<?xml version="1.0" encoding="UTF-8" standalone="no"?>
<!-- Created with Inkscape (http://www.inkscape.org/) -->

<svg
   width="500.00003"
   height="1000.0001"
   viewBox="0 0 132.29167 264.58333"
   version="1.1"
   id="svg1"
   inkscape:version="1.3.2 (091e20e, 2023-11-25, custom)"
   sodipodi:docname="!.svg"
   xmlns:inkscape="http://www.inkscape.org/namespaces/inkscape"
   xmlns:sodipodi="http://sodipodi.sourceforge.net/DTD/sodipodi-0.dtd"
   xmlns="http://www.w3.org/2000/svg"
   xmlns:svg="http://www.w3.org/2000/svg">
  <sodipodi:namedview
     id="namedview1"
     pagecolor="#ffffff"
     bordercolor="#000000"
     borderopacity="0.25"
     inkscape:showpageshadow="2"
     inkscape:pageopacity="0.0"
     inkscape:pagecheckerboard="0"
     inkscape:deskcolor="#d1d1d1"
     inkscape:document-units="mm"
     inkscape:zoom="0.25606581"
     inkscape:cx="-175.73608"
     inkscape:cy="1071.9901"
     inkscape:window-width="1920"
     inkscape:window-height="1009"
     inkscape:window-x="-8"
     inkscape:window-y="-8"
     inkscape:window-maximized="1"
     inkscape:current-layer="layer1" />
  <defs
     id="defs1" />
  <g
     inkscape:label="Layer 1"
     inkscape:groupmode="layer"
     id="layer1">
    <path
       id="path1380"
       style="fill-opacity:0.5;stroke-width:0.264583;stroke-linecap:round;stroke-linejoin:round"
       d="m 113.60064,0.2172961 a 7.5474797,7.4249049 53.325404 0 0 -6.16942,5.47873 L 64.730802,173.662 51.247002,155.16804 a 7.5474797,7.4249049 53.325404 0 0 -10.447,-1.72754 7.5474797,7.4249049 53.325404 0 0 -1.55577,10.47017 l 22.84804,31.33709 a 7.5482351,7.4256481 53.325123 0 0 13.23967,-2.4076 L 121.90977,9.6239461 a 7.5474797,7.4249049 53.325404 0 0 -5.39872,-9.20615 7.5474797,7.4249049 53.325404 0 0 -2.91041,-0.2005 z M 43.690922,22.542546 a 7.5474805,7.4249054 53.325277 0 0 -6.75248,5.53247 L 10.381946,132.53685 a 7.5474805,7.4249054 53.325277 0 0 5.396627,9.20565 7.5474805,7.4249054 53.325277 0 0 9.079282,-5.27979 L 51.414352,32.000876 a 7.5474805,7.4249054 53.325277 0 0 -5.39663,-9.20615 7.5474805,7.4249054 53.325277 0 0 -2.3268,-0.25218 z" />
  </g>
</svg>
