<?xml version="1.0" encoding="UTF-8" standalone="no"?>
<!-- Created with Inkscape (http://www.inkscape.org/) -->

<svg
   width="199.99998"
   height="1000.0001"
   viewBox="0 0 52.916661 264.58333"
   version="1.1"
   id="svg1"
   inkscape:version="1.3.2 (091e20e, 2023-11-25, custom)"
   sodipodi:docname=").svg"
   xmlns:inkscape="http://www.inkscape.org/namespaces/inkscape"
   xmlns:sodipodi="http://sodipodi.sourceforge.net/DTD/sodipodi-0.dtd"
   xmlns="http://www.w3.org/2000/svg"
   xmlns:svg="http://www.w3.org/2000/svg">
  <sodipodi:namedview
     id="namedview1"
     pagecolor="#ffffff"
     bordercolor="#000000"
     borderopacity="0.25"
     inkscape:showpageshadow="2"
     inkscape:pageopacity="0.0"
     inkscape:pagecheckerboard="0"
     inkscape:deskcolor="#d1d1d1"
     inkscape:document-units="mm"
     inkscape:zoom="0.25606581"
     inkscape:cx="-175.73608"
     inkscape:cy="1071.9901"
     inkscape:window-width="1920"
     inkscape:window-height="1009"
     inkscape:window-x="-8"
     inkscape:window-y="-8"
     inkscape:window-maximized="1"
     inkscape:current-layer="layer1" />
  <defs
     id="defs1" />
  <g
     inkscape:label="Layer 1"
     inkscape:groupmode="layer"
     id="layer1">
    <path
       style="fill-opacity:0.5;stroke-width:0.264583;stroke-linecap:round;paint-order:stroke markers fill"
       d="m 48.884421,0.36998567 c -0.64505,-0.0818 -0.82233,-0.0164 -1.16205,0.0101 a 7.5474797,7.4249049 53.325404 0 0 -7.17259,7.46490003 7.5474797,7.4249049 53.325404 0 0 2.36458,5.3309503 c 9.38848,9.54905 15.22889,26.65648 17.09341,45.28773 1.87034,18.69297 -0.1143,38.70827 -4.29181,52.971484 l -0.0386,0.12896 -4.69027,18.45315 -0.1778,0.6957 -4.69212,18.45707 -0.0265,0.13287 c -6.11822,28.38701 -33.66108,80.01672 -65.51956,101.2647 l -0.0564,0.0371 -0.0558,0.0391 c 1.36869,-0.95007 2.7641,-1.14919 3.88434,-1.19203 a 7.5474797,7.4249049 53.325404 0 0 -7.10247,7.36132 7.5474797,7.4249049 53.325404 0 0 7.32949,7.43365 c 1.09617,0.0384 2.84056,-0.0658 4.495,-1.20769 37.26736,-24.91658 64.46018,-77.10221 71.62456,-110.33982 l -0.0616,0.26577 4.65747,-18.32417 0.17806,-0.69569 4.65746,-18.3242 -0.0701,0.25797 c 4.85192,-16.564054 6.89371,-37.931434 4.81726,-58.683504 -2.07618,-20.74603 -8.12191,-41.07825 -21.52967,-54.6168803 v -0.003 c -1.43828,-1.45603 -3.33137,-2.06436003 -4.45109,-2.20626003 z M 43.092161,13.247916 a 7.5474797,7.4249049 53.325404 0 0 4.89506,2.00499 c -0.27834,0.003 -0.32756,0.0584 -0.74242,0.006 -1.04537,-0.13245 -2.75881,-0.73892 -4.15264,-2.01086 z"
       id="rect2757-57" />
  </g>
</svg>
