<?xml version="1.0" encoding="UTF-8" standalone="no"?>
<!-- Created with Inkscape (http://www.inkscape.org/) -->

<svg
   width="500.00003"
   height="1000.0001"
   viewBox="0 0 132.29167 264.58335"
   version="1.1"
   id="svg1"
   inkscape:version="1.3.2 (091e20e, 2023-11-25, custom)"
   sodipodi:docname="2.svg"
   xmlns:inkscape="http://www.inkscape.org/namespaces/inkscape"
   xmlns:sodipodi="http://sodipodi.sourceforge.net/DTD/sodipodi-0.dtd"
   xmlns="http://www.w3.org/2000/svg"
   xmlns:svg="http://www.w3.org/2000/svg">
  <sodipodi:namedview
     id="namedview1"
     pagecolor="#ffffff"
     bordercolor="#000000"
     borderopacity="0.25"
     inkscape:showpageshadow="2"
     inkscape:pageopacity="0.0"
     inkscape:pagecheckerboard="0"
     inkscape:deskcolor="#d1d1d1"
     inkscape:document-units="mm"
     inkscape:zoom="0.25606581"
     inkscape:cx="-175.73608"
     inkscape:cy="1071.9901"
     inkscape:window-width="1920"
     inkscape:window-height="1009"
     inkscape:window-x="-8"
     inkscape:window-y="-8"
     inkscape:window-maximized="1"
     inkscape:current-layer="layer1" />
  <defs
     id="defs1" />
  <g
     inkscape:label="Layer 1"
     inkscape:groupmode="layer"
     id="layer1">
    <path
       id="path2783-6"
       style="fill-opacity:0.5;stroke-width:0.264583;stroke-linecap:round;stroke-linejoin:round;paint-order:fill markers stroke"
       d="M 123.15881,0.25007648 A 7.5474797,7.4249049 53.325404 0 0 117.94467,5.5398865 L 54.462661,255.24844 a 7.5474797,7.4249049 53.325404 0 0 5.39883,9.20586 7.5474797,7.4249049 53.325404 0 0 9.07944,-5.28 L 132.42135,9.4673165 a 7.5474797,7.4249049 53.325404 0 0 -5.39644,-9.20586002 7.5474797,7.4249049 53.325404 0 0 -3.8661,-0.0114 z M 42.899581,34.909756 a 7.5474797,7.4249049 53.325404 0 0 -6.16903,5.47854 L 0.2304915,183.96273 a 7.5474797,7.4249049 53.325404 0 0 5.39618,9.20589 7.5474797,7.4249049 53.325404 0 0 9.0799695,-5.27846 L 51.206701,44.316246 a 7.5474797,7.4249049 53.325404 0 0 -5.39697,-9.20639 7.5474797,7.4249049 53.325404 0 0 -2.91015,-0.2001 z" />
  </g>
</svg>
