<?xml version="1.0" encoding="UTF-8" standalone="no"?>
<!-- Created with Inkscape (http://www.inkscape.org/) -->

<svg
   width="500.00003"
   height="1000.0001"
   viewBox="0 0 132.29167 264.58335"
   version="1.1"
   id="svg1"
   inkscape:version="1.3.2 (091e20e, 2023-11-25, custom)"
   sodipodi:docname="3.svg"
   xmlns:inkscape="http://www.inkscape.org/namespaces/inkscape"
   xmlns:sodipodi="http://sodipodi.sourceforge.net/DTD/sodipodi-0.dtd"
   xmlns="http://www.w3.org/2000/svg"
   xmlns:svg="http://www.w3.org/2000/svg">
  <sodipodi:namedview
     id="namedview1"
     pagecolor="#ffffff"
     bordercolor="#000000"
     borderopacity="0.25"
     inkscape:showpageshadow="2"
     inkscape:pageopacity="0.0"
     inkscape:pagecheckerboard="0"
     inkscape:deskcolor="#d1d1d1"
     inkscape:document-units="mm"
     inkscape:zoom="0.25606581"
     inkscape:cx="-175.73608"
     inkscape:cy="1071.9901"
     inkscape:window-width="1920"
     inkscape:window-height="1009"
     inkscape:window-x="-8"
     inkscape:window-y="-8"
     inkscape:window-maximized="1"
     inkscape:current-layer="layer1" />
  <defs
     id="defs1" />
  <g
     inkscape:label="Layer 1"
     inkscape:groupmode="layer"
     id="layer1">
    <path
       id="path2783-8"
       style="fill-opacity:0.5;stroke-width:0.264583;stroke-linecap:round;stroke-linejoin:round;paint-order:fill markers stroke"
       d="M 136.80682,0.25001897 A 7.5474797,7.4249049 53.325404 0 0 131.59347,5.539834 L 68.112522,255.24838 a 7.5474797,7.4249049 53.325404 0 0 5.397765,9.20585 7.5474797,7.4249049 53.325404 0 0 9.078648,-5.27999 L 146.07147,9.467256 a 7.5474797,7.4249049 53.325404 0 0 -5.39882,-9.20586003 7.5474797,7.4249049 53.325404 0 0 -3.86583,-0.01138 z M 28.889631,34.909696 a 7.5474797,7.4249049 53.325404 0 0 -6.169289,5.478542 L -13.779723,183.96267 a 7.5474797,7.4249049 53.325404 0 0 5.3982941,9.20588 7.5474797,7.4249049 53.325404 0 0 9.07997079,-5.27845 L 37.196489,44.316185 A 7.5474797,7.4249049 53.325404 0 0 31.799519,35.1098 7.5474797,7.4249049 53.325404 0 0 28.889631,34.909696 Z m 50.007837,0 a 7.5474797,7.4249049 53.325404 0 0 -6.168496,5.478542 L 36.228114,183.96267 a 7.5474797,7.4249049 53.325404 0 0 5.396707,9.20588 7.5474797,7.4249049 53.325404 0 0 9.079441,-5.27845 L 87.204326,44.316185 A 7.5474797,7.4249049 53.325404 0 0 81.807355,35.1098 7.5474797,7.4249049 53.325404 0 0 78.897468,34.909696 Z" />
  </g>
</svg>
