<?xml version="1.0" encoding="UTF-8" standalone="no"?>
<!-- Created with Inkscape (http://www.inkscape.org/) -->

<svg
   width="500.00003"
   height="1000.0001"
   viewBox="0 0 132.29167 264.58335"
   version="1.1"
   id="svg1"
   inkscape:version="1.3.2 (091e20e, 2023-11-25, custom)"
   sodipodi:docname="4.svg"
   xmlns:inkscape="http://www.inkscape.org/namespaces/inkscape"
   xmlns:sodipodi="http://sodipodi.sourceforge.net/DTD/sodipodi-0.dtd"
   xmlns="http://www.w3.org/2000/svg"
   xmlns:svg="http://www.w3.org/2000/svg">
  <sodipodi:namedview
     id="namedview1"
     pagecolor="#ffffff"
     bordercolor="#000000"
     borderopacity="0.25"
     inkscape:showpageshadow="2"
     inkscape:pageopacity="0.0"
     inkscape:pagecheckerboard="0"
     inkscape:deskcolor="#d1d1d1"
     inkscape:document-units="mm"
     inkscape:zoom="0.25606581"
     inkscape:cx="-175.73608"
     inkscape:cy="1071.9901"
     inkscape:window-width="1920"
     inkscape:window-height="1009"
     inkscape:window-x="-8"
     inkscape:window-y="-8"
     inkscape:window-maximized="1"
     inkscape:current-layer="layer1" />
  <defs
     id="defs1" />
  <g
     inkscape:label="Layer 1"
     inkscape:groupmode="layer"
     id="layer1">
    <path
       id="path2789-5"
       style="fill-opacity:0.5;stroke-width:0.264583;stroke-linecap:round;stroke-linejoin:round;paint-order:fill markers stroke"
       d="m 138.95666,12.303219 a 7.5474797,7.4249049 53.325404 0 0 -5.78512,4.65645 C 118.28079,56.190189 98.455833,92.593039 78.220503,124.1232 L 42.843592,100.89315 a 7.5474797,7.4249049 53.325404 0 0 -5.627159,-1.090421 7.5474797,7.4249049 53.325404 0 0 -4.685506,3.218041 7.5474797,7.4249049 53.325404 0 0 2.279915,10.39662 l 35.231121,23.1349 c -42.005777,62.56353 -83.162508,103.01998 -83.162508,103.01998 a 7.5474797,7.4249049 53.325404 0 0 -0.05054,10.60913 7.5474797,7.4249049 53.325404 0 0 10.5616382,0.2187 c 0,0 42.1941618,-41.22807 85.3011398,-105.54158 l 28.240567,18.54411 a 7.5474797,7.4249049 53.325404 0 0 10.31293,-2.12812 7.5474797,7.4249049 53.325404 0 0 -2.28018,-10.39611 L 90.859643,132.4227 C 111.53154,100.1778 131.81476,62.874409 147.1389,22.499729 a 7.5474797,7.4249049 53.325404 0 0 -4.33441,-9.74513 7.5474797,7.4249049 53.325404 0 0 -3.84783,-0.45138 z" />
  </g>
</svg>
