<?xml version="1.0" encoding="UTF-8" standalone="no"?>
<!-- Created with Inkscape (http://www.inkscape.org/) -->

<svg
   width="600"
   height="1000.0001"
   viewBox="0 0 158.74999 264.58333"
   version="1.1"
   id="svg1"
   inkscape:version="1.3.2 (091e20e, 2023-11-25, custom)"
   sodipodi:docname="7.svg"
   xmlns:inkscape="http://www.inkscape.org/namespaces/inkscape"
   xmlns:sodipodi="http://sodipodi.sourceforge.net/DTD/sodipodi-0.dtd"
   xmlns="http://www.w3.org/2000/svg"
   xmlns:svg="http://www.w3.org/2000/svg">
  <sodipodi:namedview
     id="namedview1"
     pagecolor="#ffffff"
     bordercolor="#000000"
     borderopacity="0.25"
     inkscape:showpageshadow="2"
     inkscape:pageopacity="0.0"
     inkscape:pagecheckerboard="0"
     inkscape:deskcolor="#d1d1d1"
     inkscape:document-units="mm"
     inkscape:zoom="0.25606581"
     inkscape:cx="-175.73608"
     inkscape:cy="1071.9901"
     inkscape:window-width="1920"
     inkscape:window-height="1009"
     inkscape:window-x="-8"
     inkscape:window-y="-8"
     inkscape:window-maximized="1"
     inkscape:current-layer="layer1" />
  <defs
     id="defs1" />
  <g
     inkscape:label="Layer 1"
     inkscape:groupmode="layer"
     id="layer1">
    <path
       id="path2783-0"
       style="fill-opacity:0.5;stroke-width:0.264583;stroke-linecap:round;stroke-linejoin:round;paint-order:fill markers stroke"
       d="m 133.38464,0.1177713 a 7.5474797,7.4249049 53.325404 0 0 -5.21386,5.28981 L 103.82486,101.17299 H 58.741447 L 73.229528,44.183941 a 7.5474797,7.4249049 53.325404 0 0 -5.396733,-9.20639 7.5474797,7.4249049 53.325404 0 0 -9.079626,5.27843 L 43.266233,101.17299 H 11.021198 a 7.5474797,7.4249049 53.325404 0 0 -7.3512634,7.50379 7.5474797,7.4249049 53.325404 0 0 7.5855524,7.5043 h 28.195322 l -17.197678,67.64934 a 7.5474797,7.4249049 53.325404 0 0 5.395992,9.20589 7.5474797,7.4249049 53.325404 0 0 9.079838,-5.27846 L 54.926024,116.18108 H 100.0089 L 64.688196,255.11613 a 7.5474797,7.4249049 53.325404 0 0 5.399431,9.20586 7.5474797,7.4249049 53.325404 0 0 9.078994,-5.28 L 115.48412,116.18108 h 32.24556 a 7.5474797,7.4249049 53.325404 0 0 7.3515,-7.5043 7.5474797,7.4249049 53.325404 0 0 -7.58578,-7.50379 H 119.29981 L 142.64606,9.3350013 a 7.5474797,7.4249049 53.325404 0 0 -5.39599,-9.20586 7.5474797,7.4249049 53.325404 0 0 -3.86546,-0.0114 z" />
  </g>
</svg>
