<?xml version="1.0" encoding="UTF-8" standalone="no"?>
<!-- Created with Inkscape (http://www.inkscape.org/) -->

<svg
   width="600"
   height="1000.0001"
   viewBox="0 0 158.74999 264.58333"
   version="1.1"
   id="svg1"
   inkscape:version="1.3.2 (091e20e, 2023-11-25, custom)"
   sodipodi:docname="8.svg"
   xmlns:inkscape="http://www.inkscape.org/namespaces/inkscape"
   xmlns:sodipodi="http://sodipodi.sourceforge.net/DTD/sodipodi-0.dtd"
   xmlns="http://www.w3.org/2000/svg"
   xmlns:svg="http://www.w3.org/2000/svg">
  <sodipodi:namedview
     id="namedview1"
     pagecolor="#ffffff"
     bordercolor="#000000"
     borderopacity="0.25"
     inkscape:showpageshadow="2"
     inkscape:pageopacity="0.0"
     inkscape:pagecheckerboard="0"
     inkscape:deskcolor="#d1d1d1"
     inkscape:document-units="mm"
     inkscape:zoom="0.25606581"
     inkscape:cx="-175.73608"
     inkscape:cy="1071.9901"
     inkscape:window-width="1920"
     inkscape:window-height="1009"
     inkscape:window-x="-8"
     inkscape:window-y="-8"
     inkscape:window-maximized="1"
     inkscape:current-layer="layer1" />
  <defs
     id="defs1" />
  <g
     inkscape:label="Layer 1"
     inkscape:groupmode="layer"
     id="layer1">
    <path
       id="path2783"
       style="fill-opacity:0.5;stroke-width:0.264583;stroke-linecap:round;stroke-linejoin:round;paint-order:fill markers stroke"
       d="M 145.80448,0.24994195 A 7.5474797,7.4249049 53.325404 0 0 140.59092,5.539752 l -24.3454,95.765408 H 89.232647 L 103.72046,44.316112 a 7.5474797,7.4249049 53.325404 0 0 -5.396203,-9.20639 7.5474797,7.4249049 53.325404 0 0 -9.07989,5.27844 l -15.48694,60.916998 h -27.0121 l 14.48755,-56.989048 a 7.5474797,7.4249049 53.325404 0 0 -5.39647,-9.20639 7.5474797,7.4249049 53.325404 0 0 -9.07989,5.27844 l -15.48588,60.916998 h -20.03716 a 7.5474797,7.4249049 53.325404 0 0 -7.35073,7.5038 7.5474797,7.4249049 53.325404 0 0 7.58502,7.50429 h 15.98639 l -23.76974,93.50284 a 7.5474797,7.4249049 53.325404 0 0 5.39646,9.20588 7.5474797,7.4249049 53.325404 0 0 9.08175,-5.27793 l 24.76754,-97.43079 h 27.01237 l -23.77107,93.50284 a 7.5474797,7.4249049 53.325404 0 0 5.39726,9.20588 7.5474797,7.4249049 53.325404 0 0 9.07884,-5.27793 l 24.76939,-97.43079 H 112.43065 L 77.110467,255.2483 a 7.5474797,7.4249049 53.325404 0 0 5.39679,9.20586 7.5474797,7.4249049 53.325404 0 0 9.07899,-5.28 L 127.90454,116.31325 h 20.03796 a 7.5474797,7.4249049 53.325404 0 0 7.35097,-7.50429 7.5474797,7.4249049 53.325404 0 0 -7.58526,-7.5038 H 131.71994 L 155.06675,9.467182 a 7.5474797,7.4249049 53.325404 0 0 -5.3965,-9.20586005 7.5474797,7.4249049 53.325404 0 0 -3.86575,-0.0114 z" />
  </g>
</svg>
