<?xml version="1.0" encoding="UTF-8" standalone="no"?>
<!-- Created with Inkscape (http://www.inkscape.org/) -->

<svg
   width="500.00003"
   height="1000.0001"
   viewBox="0 0 132.29167 264.58333"
   version="1.1"
   id="svg1"
   inkscape:version="1.3.2 (091e20e, 2023-11-25, custom)"
   sodipodi:docname="9.svg"
   xmlns:inkscape="http://www.inkscape.org/namespaces/inkscape"
   xmlns:sodipodi="http://sodipodi.sourceforge.net/DTD/sodipodi-0.dtd"
   xmlns="http://www.w3.org/2000/svg"
   xmlns:svg="http://www.w3.org/2000/svg">
  <sodipodi:namedview
     id="namedview1"
     pagecolor="#ffffff"
     bordercolor="#000000"
     borderopacity="0.25"
     inkscape:showpageshadow="2"
     inkscape:pageopacity="0.0"
     inkscape:pagecheckerboard="0"
     inkscape:deskcolor="#d1d1d1"
     inkscape:document-units="mm"
     inkscape:zoom="0.25606581"
     inkscape:cx="-175.73608"
     inkscape:cy="1071.9901"
     inkscape:window-width="1920"
     inkscape:window-height="1009"
     inkscape:window-x="-8"
     inkscape:window-y="-8"
     inkscape:window-maximized="1"
     inkscape:current-layer="layer1" />
  <defs
     id="defs1" />
  <g
     inkscape:label="Layer 1"
     inkscape:groupmode="layer"
     id="layer1">
    <path
       id="path2789-7"
       style="fill-opacity:0.5;stroke-width:0.264583;stroke-linecap:round;stroke-linejoin:round;paint-order:fill markers stroke"
       d="m 56.429679,12.224641 a 7.5474797,7.4249049 53.325404 0 0 -7.35039,7.504295 7.5474797,7.4249049 53.325404 0 0 7.58481,7.50377 H 128.96705 C 115.21322,61.085086 98.002596,92.642446 80.355156,120.53599 L 50.841149,87.352446 a 7.5474797,7.4249049 53.325404 0 0 -5.168106,-2.53662 7.5474797,7.4249049 53.325404 0 0 -5.383477,1.84894 7.5474797,7.4249049 53.325404 0 0 -0.519112,10.58947 l 32.195562,36.198414 c -42.659304,64.31274 -85.086828,106.11962 -85.086828,106.11962 a 7.5474797,7.4249049 53.325404 0 0 -0.05001,10.60913 7.5474797,7.4249049 53.325404 0 0 10.5616374,0.21871 c 0,0 42.0303846,-41.07118 85.0503106,-105.17035 l 23.170104,26.04996 a 7.5474797,7.4249049 53.325404 0 0 10.54946,0.68819 7.5474797,7.4249049 53.325404 0 0 0.51964,-10.58947 L 90.887156,132.37823 C 111.54953,100.14336 131.82191,62.856106 147.13943,22.499736 a 7.5482351,7.4256481 53.325123 0 0 -7.0993,-10.275095 z" />
  </g>
</svg>
