<?xml version="1.0" encoding="UTF-8" standalone="no"?>
<!-- Created with Inkscape (http://www.inkscape.org/) -->

<svg
   width="199.99998"
   height="1000.0001"
   viewBox="0 0 52.916661 264.58333"
   version="1.1"
   id="svg1"
   inkscape:version="1.3.2 (091e20e, 2023-11-25, custom)"
   sodipodi:docname="].svg"
   xmlns:inkscape="http://www.inkscape.org/namespaces/inkscape"
   xmlns:sodipodi="http://sodipodi.sourceforge.net/DTD/sodipodi-0.dtd"
   xmlns="http://www.w3.org/2000/svg"
   xmlns:svg="http://www.w3.org/2000/svg">
  <sodipodi:namedview
     id="namedview1"
     pagecolor="#ffffff"
     bordercolor="#000000"
     borderopacity="0.25"
     inkscape:showpageshadow="2"
     inkscape:pageopacity="0.0"
     inkscape:pagecheckerboard="0"
     inkscape:deskcolor="#d1d1d1"
     inkscape:document-units="mm"
     inkscape:zoom="0.25606581"
     inkscape:cx="-175.73608"
     inkscape:cy="1071.9901"
     inkscape:window-width="1920"
     inkscape:window-height="1009"
     inkscape:window-x="-8"
     inkscape:window-y="-8"
     inkscape:window-maximized="1"
     inkscape:current-layer="layer1" />
  <defs
     id="defs1" />
  <g
     inkscape:label="Layer 1"
     inkscape:groupmode="layer"
     id="layer1">
    <path
       style="fill-opacity:0.5;stroke-width:0.264583;stroke-linecap:round;stroke-linejoin:round;paint-order:stroke markers fill"
       d="m 37.167402,0.34747175 a 7.5474797,7.4249049 53.325404 0 0 -7.350919,7.50398005 7.5474797,7.4249049 53.325404 0 0 7.58481,7.5039802 H 69.323007 L 9.8317108,249.36831 H -26.138923 a 7.5474797,7.4249049 53.325404 0 0 -7.350654,7.504 7.5474797,7.4249049 53.325404 0 0 7.58534,7.50398 h 41.627953 l -0.13335,-0.0566 c 0.13388,-0.008 0.275961,0.009 0.386821,-0.004 a 7.5482351,7.4256481 53.325123 0 0 7.041356,-6.02663 l -0.04974,0.27554 63.137784,-248.354488 -0.144198,0.38105 A 7.5482351,7.4256481 53.325123 0 0 79.366856,0.44516175 c -0.261408,-0.0156 -0.573352,-0.003 -0.950648,0.0196 l 0.377825,-0.11719 z M 83.221305,14.046142 c -1.286139,0.89294 -2.65086,1.11569 -3.779308,1.1803 a 7.5482351,7.4256481 53.325123 0 0 3.779308,-1.1803 z M 16.825706,249.41913 c 1.167871,0.19497 2.613819,0.76346 4.043098,2.21211 a 7.5482351,7.4256481 53.325123 0 0 -5.224992,-2.19843 c 0.406929,-0.0257 0.600604,-0.11078 1.181894,-0.0138 z"
       id="path91-3" />
  </g>
</svg>
