<?xml version="1.0" encoding="UTF-8" standalone="no"?>
<!-- Created with Inkscape (http://www.inkscape.org/) -->

<svg
   width="199.99998"
   height="1000.0001"
   viewBox="0 0 52.916661 264.58333"
   version="1.1"
   id="svg1"
   inkscape:version="1.3.2 (091e20e, 2023-11-25, custom)"
   sodipodi:docname="U+0022.svg"
   xmlns:inkscape="http://www.inkscape.org/namespaces/inkscape"
   xmlns:sodipodi="http://sodipodi.sourceforge.net/DTD/sodipodi-0.dtd"
   xmlns="http://www.w3.org/2000/svg"
   xmlns:svg="http://www.w3.org/2000/svg">
  <sodipodi:namedview
     id="namedview1"
     pagecolor="#ffffff"
     bordercolor="#000000"
     borderopacity="0.25"
     inkscape:showpageshadow="2"
     inkscape:pageopacity="0.0"
     inkscape:pagecheckerboard="0"
     inkscape:deskcolor="#d1d1d1"
     inkscape:document-units="mm"
     inkscape:zoom="0.25606581"
     inkscape:cx="-175.73608"
     inkscape:cy="1071.9901"
     inkscape:window-width="1920"
     inkscape:window-height="1009"
     inkscape:window-x="-8"
     inkscape:window-y="-8"
     inkscape:window-maximized="1"
     inkscape:current-layer="layer1" />
  <defs
     id="defs1" />
  <g
     inkscape:label="Layer 1"
     inkscape:groupmode="layer"
     id="layer1">
    <path
       id="path92"
       style="fill:#000000;stroke-width:0.140009;stroke-linecap:round;paint-order:markers fill stroke"
       d="m 17.783153,0.00540912 a 7.5587743,7.4416795 44.77637 0 0 -1.293813,0.16537 7.5587743,7.4416795 44.77637 0 0 -5.471848,5.04411998 L 3.5083534,29.902299 a 7.5587743,7.4416795 44.77637 0 0 5.006181,9.42835 7.5587743,7.4416795 44.77637 0 0 9.3524916,-4.85913 L 25.376165,9.7841491 a 7.5587743,7.4416795 44.77637 0 0 -5.006181,-9.42837998 7.5587743,7.4416795 44.77637 0 0 -2.586831,-0.35036 z m 24.032105,0 a 7.5587743,7.4416795 44.77637 0 0 -1.29381,0.16537 7.5587743,7.4416795 44.77637 0 0 -5.47185,5.04411998 L 27.540457,29.902299 a 7.5587743,7.4416795 44.77637 0 0 5.006181,9.42835 7.5587743,7.4416795 44.77637 0 0 9.35249,-4.85913 l 7.50914,-24.6873699 a 7.5587743,7.4416795 44.77637 0 0 -5.00618,-9.42837998 7.5587743,7.4416795 44.77637 0 0 -2.58683,-0.35036 z" />
  </g>
</svg>
