<?xml version="1.0" encoding="UTF-8" standalone="no"?>
<!-- Created with Inkscape (http://www.inkscape.org/) -->

<svg
   width="500.00003"
   height="1000.0001"
   viewBox="0 0 132.29167 264.58333"
   version="1.1"
   id="svg1"
   inkscape:version="1.3.2 (091e20e, 2023-11-25, custom)"
   sodipodi:docname="U+003F.svg"
   xmlns:inkscape="http://www.inkscape.org/namespaces/inkscape"
   xmlns:sodipodi="http://sodipodi.sourceforge.net/DTD/sodipodi-0.dtd"
   xmlns="http://www.w3.org/2000/svg"
   xmlns:svg="http://www.w3.org/2000/svg">
  <sodipodi:namedview
     id="namedview1"
     pagecolor="#ffffff"
     bordercolor="#000000"
     borderopacity="0.25"
     inkscape:showpageshadow="2"
     inkscape:pageopacity="0.0"
     inkscape:pagecheckerboard="0"
     inkscape:deskcolor="#d1d1d1"
     inkscape:document-units="mm"
     inkscape:zoom="0.25606581"
     inkscape:cx="-175.73608"
     inkscape:cy="1071.9901"
     inkscape:window-width="1920"
     inkscape:window-height="1009"
     inkscape:window-x="-8"
     inkscape:window-y="-8"
     inkscape:window-maximized="1"
     inkscape:current-layer="layer1" />
  <defs
     id="defs1" />
  <g
     inkscape:label="Layer 1"
     inkscape:groupmode="layer"
     id="layer1">
    <path
       style="fill-opacity:0.5;stroke-width:0.264583;stroke-linecap:round;stroke-linejoin:round"
       d="m 54.42199,8.8929272 a 7.5474797,7.4249049 53.325404 0 0 -7.350916,7.5039798 7.5474797,7.4249049 53.325404 0 0 7.585336,7.50399 h 55.49609 l -88.937303,96.367573 0.233363,-0.24231 c -15.527867,15.34499 -23.0838369,33.18021 -23.8942559,48.30103 -0.404813,7.56041 0.820737,14.58462 4.413514,20.34869 3.5933069,5.76407 10.2576319,9.86266 17.4881649,9.86266 h 79.095868 a 7.5482351,7.4256481 53.325123 0 0 7.345359,-7.70526 l -1.92511,-45.58867 a 7.5474797,7.4249049 53.325404 0 0 -7.778479,-7.30073 7.5474797,7.4249049 53.325404 0 0 -7.145341,7.70136 l 1.59914,37.88533 H 19.221562 c -2.46671,0 -3.309937,-0.56336 -4.627827,-2.67721 -1.317625,-2.11384 -2.406121,-6.18288 -2.121958,-11.48656 0.568589,-10.60736 6.40371,-25.58219 19.536039,-38.55953 a 7.5482351,7.4256481 53.325123 0 0 0.233627,-0.2423 L 132.85799,21.544167 A 7.5482351,7.4256481 53.325123 0 0 127.22686,8.8929272 Z"
       id="path3527" />
  </g>
</svg>
