<?xml version="1.0" encoding="UTF-8" standalone="no"?>
<!-- Created with Inkscape (http://www.inkscape.org/) -->

<svg
   width="600"
   height="999.99866"
   viewBox="0 0 158.75 264.58296"
   version="1.1"
   id="svg1"
   inkscape:version="1.3.2 (091e20e, 2023-11-25, custom)"
   sodipodi:docname="Ⅽ.svg"
   xmlns:inkscape="http://www.inkscape.org/namespaces/inkscape"
   xmlns:sodipodi="http://sodipodi.sourceforge.net/DTD/sodipodi-0.dtd"
   xmlns="http://www.w3.org/2000/svg"
   xmlns:svg="http://www.w3.org/2000/svg">
  <sodipodi:namedview
     id="namedview1"
     pagecolor="#ffffff"
     bordercolor="#000000"
     borderopacity="0.25"
     inkscape:showpageshadow="2"
     inkscape:pageopacity="0.0"
     inkscape:pagecheckerboard="0"
     inkscape:deskcolor="#d1d1d1"
     inkscape:document-units="mm"
     inkscape:zoom="0.25606581"
     inkscape:cx="-175.73608"
     inkscape:cy="650.22348"
     inkscape:window-width="1920"
     inkscape:window-height="1009"
     inkscape:window-x="-8"
     inkscape:window-y="-8"
     inkscape:window-maximized="1"
     inkscape:current-layer="layer1" />
  <defs
     id="defs1" />
  <g
     inkscape:label="Layer 1"
     inkscape:groupmode="layer"
     id="layer1">
    <path
       id="path1542"
       style="fill-opacity:0.5;stroke-width:0.264583;stroke-linecap:round;stroke-linejoin:round"
       d="M 100.90026,0.83367094 A 7.5474303,7.4248559 53.325268 0 0 94.147831,6.3659759 L 87.210192,33.654256 H 41.72038 a 7.5474303,7.4248559 53.325268 0 0 -7.350919,7.503794 7.5474303,7.4248559 53.325268 0 0 7.585075,7.503769 H 83.395165 L 73.246807,88.581888 H 14.386805 a 7.5474303,7.4248559 53.325268 0 0 -7.3506537,7.50377 7.5474303,7.4248559 53.325268 0 0 7.5850747,7.503792 H 143.76805 a 7.5474303,7.4248559 53.325268 0 0 7.35066,-7.503792 7.5474303,7.4248559 53.325268 0 0 -7.58508,-7.50377 H 88.72255 L 98.871438,48.661819 H 144.3631 a 7.5474303,7.4248559 53.325268 0 0 7.35092,-7.503769 7.5474303,7.4248559 53.325268 0 0 -7.58507,-7.503794 h -41.44222 l 5.93963,-23.362392 A 7.5474303,7.4248559 53.325268 0 0 103.2278,1.0860039 7.5474303,7.4248559 53.325268 0 0 100.90026,0.83367094 Z M 16.70482,126.0703 a 7.5474303,7.4248559 53.325268 0 0 -7.3509187,7.50377 7.5474303,7.4248559 53.325268 0 0 7.5850747,7.50433 H 105.03173 L 45.176368,207.4491 33.454532,182.44407 a 7.5474303,7.4248559 53.325268 0 0 -4.241006,-3.91812 7.5474303,7.4248559 53.325268 0 0 -5.708385,0.19751 7.5474303,7.4248559 53.325268 0 0 -3.545946,9.94059 l 33.202827,70.83069 a 7.5474303,7.4248559 53.325268 0 0 9.948862,3.7206 7.5474303,7.4248559 53.325268 0 0 3.548062,-9.93902 L 52.124591,222.27156 127.52793,138.65915 a 7.5481846,7.4255981 53.325289 0 0 -5.68616,-12.58885 z" />
  </g>
</svg>
