<?xml version="1.0" encoding="UTF-8" standalone="no"?>
<!-- Created with Inkscape (http://www.inkscape.org/) -->

<svg
   width="1000"
   height="1000"
   viewBox="0 0 1000 1000"
   version="1.1"
   id="svg1"
   inkscape:version="1.3.2 (091e20e, 2023-11-25, custom)"
   sodipodi:docname="draft_2.svg"
   xml:space="preserve"
   xmlns:inkscape="http://www.inkscape.org/namespaces/inkscape"
   xmlns:sodipodi="http://sodipodi.sourceforge.net/DTD/sodipodi-0.dtd"
   xmlns="http://www.w3.org/2000/svg"
   xmlns:svg="http://www.w3.org/2000/svg"><sodipodi:namedview
     id="namedview1"
     pagecolor="#ffffff"
     bordercolor="#000000"
     borderopacity="0.25"
     inkscape:showpageshadow="2"
     inkscape:pageopacity="0.0"
     inkscape:pagecheckerboard="0"
     inkscape:deskcolor="#d1d1d1"
     inkscape:document-units="mm"
     showguides="true"
     inkscape:zoom="0.1280329"
     inkscape:cx="-10262.987"
     inkscape:cy="-964.5958"
     inkscape:window-width="1920"
     inkscape:window-height="1009"
     inkscape:window-x="-8"
     inkscape:window-y="-8"
     inkscape:window-maximized="1"
     inkscape:current-layer="layer1"><sodipodi:guide
       position="900.00006,714.28571"
       orientation="0,-1"
       id="guide2"
       inkscape:locked="false" /><sodipodi:guide
       position="900.00006,1000"
       orientation="0,-1"
       id="guide3"
       inkscape:locked="false" /><sodipodi:guide
       position="1000,0"
       orientation="0,-1"
       id="guide4"
       inkscape:locked="false" /><sodipodi:guide
       position="-3221.8281,285.71429"
       orientation="0,-1"
       id="guide5"
       inkscape:locked="false" /><sodipodi:guide
       position="-7231.7612,428.57098"
       orientation="0,-1"
       id="guide6"
       inkscape:locked="false" /><sodipodi:guide
       position="500,922.68007"
       orientation="1,0"
       id="guide7"
       inkscape:locked="false" /><sodipodi:guide
       position="0,1000"
       orientation="1,0"
       id="guide9"
       inkscape:locked="false" /><sodipodi:guide
       position="-2440.8046,524.57098"
       orientation="0,-1"
       id="guide53"
       inkscape:locked="false" /><sodipodi:guide
       position="341.1958,427.0041"
       orientation="1,0"
       id="guide78"
       inkscape:locked="false" /><sodipodi:guide
       position="-6431.7612,415.95839"
       orientation="1,0"
       id="guide91"
       inkscape:locked="false" /><sodipodi:guide
       position="-7954.0824,835.01993"
       orientation="0,-1"
       id="guide94"
       inkscape:locked="false" /></sodipodi:namedview><defs
     id="defs1" /><g
     inkscape:label="Layer 1"
     inkscape:groupmode="layer"
     id="layer1"><rect
       style="fill:#ffd5d5;stroke:none;stroke-width:56.693;stroke-linecap:round;stroke-linejoin:round;stroke-dasharray:none;stroke-opacity:1;paint-order:markers stroke fill"
       id="rect138"
       width="200"
       height="1000"
       x="9173.7637"
       y="-2.4091893e-11" /><rect
       style="fill:#ffd5d5;stroke:none;stroke-width:56.693;stroke-linecap:round;stroke-linejoin:round;stroke-dasharray:none;stroke-opacity:1;paint-order:markers stroke fill"
       id="rect121"
       width="600"
       height="999.99872"
       x="8173.7637"
       y="0.00027883478" /><rect
       style="fill:#ffd5d5;stroke:none;stroke-width:56.693;stroke-linecap:round;stroke-linejoin:round;stroke-dasharray:none;stroke-opacity:1;paint-order:markers stroke fill"
       id="rect115"
       width="200"
       height="1000"
       x="6973.7637"
       y="-2.4120315e-11" /><rect
       style="fill:#ffd5d5;stroke:none;stroke-width:56.693;stroke-linecap:round;stroke-linejoin:round;stroke-dasharray:none;stroke-opacity:1;paint-order:markers stroke fill"
       id="rect116"
       width="200"
       height="1000"
       x="-7373.7637"
       y="-1000"
       transform="scale(-1)" /><rect
       style="fill:#ffd5d5;stroke:none;stroke-width:56.693;stroke-linecap:round;stroke-linejoin:round;stroke-dasharray:none;stroke-opacity:1;paint-order:markers stroke fill"
       id="rect117"
       width="200"
       height="1000"
       x="7373.7637"
       y="0" /><path
       style="fill-opacity:0.5;stroke-width:0.999999;stroke-linecap:round;stroke-linejoin:round;paint-order:stroke markers fill"
       d="m 7233.2884,998.68674 a 28.525908,28.062633 53.325404 0 0 27.783,-28.3615 28.525908,28.062633 53.325404 0 0 -28.667,-28.3615 h -120.649 L 7336.6044,57.5056 h 135.952 a 28.525908,28.062633 53.325404 0 0 27.782,-28.3616 28.525908,28.062633 53.325404 0 0 -28.669,-28.3615 h -157.334 l 0.504,0.2141 c -0.506,0.03 -1.043,-0.034 -1.462,0.015 a 28.528763,28.065442 53.325123 0 0 -26.613,22.7778 l 0.188,-1.0414 -238.631,938.66264 0.545,-1.4402 a 28.528763,28.065442 53.325123 0 0 24.928,38.3471 c 0.988,0.059 2.167,0.01 3.593,-0.074 l -1.428,0.4429 z m -174.062,-51.7745 c 4.861,-3.3749 10.019,-4.2168 14.284,-4.461 a 28.528763,28.065442 53.325123 0 0 -14.284,4.461 z M 7310.1704,57.3135 c -4.414,-0.7369 -9.879,-2.8855 -15.281,-8.3607 a 28.528763,28.065442 53.325123 0 0 19.748,8.309 c -1.538,0.097 -2.27,0.4187 -4.467,0.052 z"
       id="path116" /><rect
       style="fill:#ffd5d5;stroke:none;stroke-width:56.693;stroke-linecap:round;stroke-linejoin:round;stroke-dasharray:none;stroke-opacity:1;paint-order:markers stroke fill"
       id="rect98"
       width="500"
       height="1000"
       x="5273.7637"
       y="-2.4120315e-11" /><rect
       style="fill:#ffd5d5;stroke:none;stroke-width:56.693;stroke-linecap:round;stroke-linejoin:round;stroke-dasharray:none;stroke-opacity:1;paint-order:markers stroke fill"
       id="rect104"
       width="500"
       height="1000"
       x="5773.7637"
       y="-2.4120315e-11" /><rect
       style="fill:#ffd5d5;stroke:none;stroke-width:56.693;stroke-linecap:round;stroke-linejoin:round;stroke-dasharray:none;stroke-opacity:1;paint-order:markers stroke fill"
       id="rect103"
       width="500"
       height="1000"
       x="2500.6807"
       y="-9.606343e-15" /><rect
       style="fill:#ffd5d5;stroke:none;stroke-width:56.693;stroke-linecap:round;stroke-linejoin:round;stroke-dasharray:none;stroke-opacity:1;paint-order:markers stroke fill"
       id="rect101"
       width="600"
       height="999.99872"
       x="4086.8135"
       y="0.00027883478" /><rect
       style="fill:#ffd5d5;stroke:none;stroke-width:56.693;stroke-linecap:round;stroke-linejoin:round;stroke-dasharray:none;stroke-opacity:1;paint-order:markers stroke fill"
       id="rect99"
       width="500"
       height="1000"
       x="3000.6807"
       y="-9.606343e-15" /><rect
       style="fill:#999999;fill-opacity:1;stroke:none;stroke-width:56.693;stroke-linecap:round;stroke-linejoin:round;stroke-dasharray:none;stroke-opacity:1;paint-order:markers stroke fill"
       id="rect81"
       width="400.00006"
       height="1000"
       x="2231.7607"
       y="-1000"
       transform="scale(-1)" /><rect
       style="fill:#999999;stroke:none;stroke-width:56.693;stroke-linecap:round;stroke-linejoin:round;stroke-dasharray:none;stroke-opacity:1;paint-order:markers stroke fill"
       id="rect78"
       width="400.00006"
       height="1000"
       x="-3831.761"
       y="5.6502358e-11" /><rect
       style="fill:#999999;fill-opacity:1;stroke:none;stroke-width:56.693;stroke-linecap:round;stroke-linejoin:round;stroke-dasharray:none;stroke-opacity:1;paint-order:markers stroke fill"
       id="rect79"
       width="400.00006"
       height="1000"
       x="3031.761"
       y="-1000"
       transform="scale(-1)" /><path
       style="fill:none;fill-opacity:1;stroke:#000000;stroke-width:56.693;stroke-linecap:round;stroke-linejoin:round;stroke-dasharray:none;stroke-opacity:1;paint-order:markers stroke fill"
       d="m -3403.8669,558.33581 c 0,0 175.9553,-73.62291 240.0598,-98.90679 133.8192,-52.78053 31.638,-171.82811 -75.4894,-141.57599 -72.5664,20.4923 -120.6426,58.73021 -154.3592,158.55725 -35.2771,104.44754 16.9394,207.76851 119.4689,207.76851 108.6696,0 164.1755,-56.93652 242.4308,-112.74977"
       id="path80"
       sodipodi:nodetypes="cssssc" /><rect
       style="fill:#999999;stroke:none;stroke-width:56.693;stroke-linecap:round;stroke-linejoin:round;stroke-dasharray:none;stroke-opacity:1;paint-order:markers stroke fill"
       id="rect77"
       width="400.00006"
       height="1000"
       x="-7031.7612"
       y="-3.1258196e-10" /><path
       style="fill:none;stroke:#000000;stroke-width:56.6931;stroke-linecap:round;stroke-linejoin:round;stroke-dasharray:none;stroke-opacity:1;paint-order:markers stroke fill"
       d="m -6982.5218,649.81262 c 13.3106,17.22246 40.2068,29.65176 77.1588,34.47676 69.4054,9.06261 157.0334,-8.72226 195.4172,-91.14462 78.1846,-167.88739 -168.15,-93.14476 -168.15,-93.14476 246.3346,-79.1463 160.9964,-186.09796 79.9296,-186.09796 -102.8897,0 -145.0294,42.79843 -189.2724,99.73347"
       id="path77"
       sodipodi:nodetypes="csscsc" /><rect
       style="fill:#999999;stroke:none;stroke-width:56.693;stroke-linecap:round;stroke-linejoin:round;stroke-dasharray:none;stroke-opacity:1;paint-order:markers stroke fill"
       id="rect72"
       width="400.00006"
       height="1000"
       x="-8631.7617"
       y="-3.1258196e-10" /><rect
       style="fill:#ffd5d5;stroke:none;stroke-width:56.693;stroke-linecap:round;stroke-linejoin:round;stroke-dasharray:none;stroke-opacity:1;paint-order:markers stroke fill"
       id="rect71"
       width="400.00006"
       height="1000"
       x="-11404.718"
       y="-3.1258196e-10" /><rect
       style="fill:#ffd5d5;stroke:none;stroke-width:56.693;stroke-linecap:round;stroke-linejoin:round;stroke-dasharray:none;stroke-opacity:1;paint-order:markers stroke fill"
       id="rect69"
       width="400.00006"
       height="1000"
       x="-11004.718"
       y="-3.1258196e-10" /><rect
       style="fill:#ffd5d5;stroke:none;stroke-width:56.693;stroke-linecap:round;stroke-linejoin:round;stroke-dasharray:none;stroke-opacity:1;paint-order:markers stroke fill"
       id="rect57"
       width="400.00006"
       height="1000"
       x="-8231.7617"
       y="-3.1258196e-10" /><rect
       style="fill:#ffd5d5;stroke:none;stroke-width:56.693;stroke-linecap:round;stroke-linejoin:round;stroke-dasharray:none;stroke-opacity:1;paint-order:markers stroke fill"
       id="rect68"
       width="400.00006"
       height="1000"
       x="-9431.7617"
       y="-3.1258196e-10" /><rect
       style="fill:#ffd5d5;stroke:none;stroke-width:56.693;stroke-linecap:round;stroke-linejoin:round;stroke-dasharray:none;stroke-opacity:1;paint-order:markers stroke fill"
       id="rect67"
       width="400.00006"
       height="1000"
       x="-9031.7617"
       y="-3.1258196e-10" /><rect
       style="fill:#ffd5d5;stroke:none;stroke-width:56.693;stroke-linecap:round;stroke-linejoin:round;stroke-dasharray:none;stroke-opacity:1;paint-order:markers stroke fill"
       id="rect58"
       width="400.00006"
       height="1000"
       x="-3031.761"
       y="0" /><rect
       style="fill:#ffd5d5;stroke:none;stroke-width:56.693;stroke-linecap:round;stroke-linejoin:round;stroke-dasharray:none;stroke-opacity:1;paint-order:markers stroke fill"
       id="rect56"
       width="400.00006"
       height="1000"
       x="-7831.7612"
       y="-3.1258196e-10" /><rect
       style="fill:#ffd5d5;stroke:none;stroke-width:56.693;stroke-linecap:round;stroke-linejoin:round;stroke-dasharray:none;stroke-opacity:1;paint-order:markers stroke fill"
       id="rect55"
       width="400.00006"
       height="1000"
       x="-7431.7612"
       y="-3.1258196e-10" /><rect
       style="fill:#ffd5d5;fill-opacity:1;stroke:none;stroke-width:56.693;stroke-linecap:round;stroke-linejoin:round;stroke-dasharray:none;stroke-opacity:1;paint-order:markers stroke fill"
       id="rect54"
       width="400.00006"
       height="1000"
       x="-6631.7612"
       y="-3.1258196e-10" /><rect
       style="fill:#ffd5d5;stroke:none;stroke-width:56.693;stroke-linecap:round;stroke-linejoin:round;stroke-dasharray:none;stroke-opacity:1;paint-order:markers stroke fill"
       id="rect51"
       width="400.00006"
       height="1000"
       x="-5831.7612"
       y="-3.1258196e-10" /><rect
       style="fill:#ffd5d5;stroke:none;stroke-width:56.693;stroke-linecap:round;stroke-linejoin:round;stroke-dasharray:none;stroke-opacity:1;paint-order:markers stroke fill"
       id="rect52"
       width="400.00006"
       height="1000"
       x="-6231.7612"
       y="-3.1258196e-10" /><rect
       style="fill:#999999;fill-opacity:1;stroke:none;stroke-width:56.693;stroke-linecap:round;stroke-linejoin:round;stroke-dasharray:none;stroke-opacity:1;paint-order:markers stroke fill"
       id="rect50"
       width="400.00006"
       height="1000"
       x="-4631.7612"
       y="-3.1258196e-10" /><path
       style="fill:none;fill-opacity:1;stroke:#000000;stroke-width:56.693;stroke-linecap:round;stroke-linejoin:round;stroke-dasharray:none;stroke-opacity:1;paint-order:markers stroke fill"
       d="m -4572.1189,645.93916 c 44.0583,68.34655 218.0831,74.28179 276.3013,-122.34941 31.0653,-104.92263 -15.6668,-207.76851 -110.494,-207.76851 -69.2226,0 -134.5741,33.06706 -184.6711,133.08369"
       id="path50"
       sodipodi:nodetypes="cssc" /><rect
       style="fill:#ffd5d5;stroke:none;stroke-width:56.693;stroke-linecap:round;stroke-linejoin:round;stroke-dasharray:none;stroke-opacity:1;paint-order:markers stroke fill"
       id="rect48"
       width="400.00006"
       height="1000"
       x="-5431.7612"
       y="-3.1258196e-10" /><rect
       style="fill:#999999;fill-opacity:1;stroke:none;stroke-width:56.693;stroke-linecap:round;stroke-linejoin:round;stroke-dasharray:none;stroke-opacity:1;paint-order:markers stroke fill"
       id="rect46"
       width="400.00006"
       height="1000"
       x="-5031.7612"
       y="-3.1258196e-10" /><rect
       style="fill:#999999;stroke:none;stroke-width:56.693;stroke-linecap:round;stroke-linejoin:round;stroke-dasharray:none;stroke-opacity:1;paint-order:markers stroke fill"
       id="rect17"
       width="400.00006"
       height="1000"
       x="-4231.7612"
       y="-3.126388e-10" /><rect
       style="fill:#005242;stroke-width:11.3386;stroke-linecap:round;stroke-linejoin:round;paint-order:markers stroke fill"
       id="rect1"
       width="500"
       height="1000"
       x="-12889.594"
       y="1.0603057e-05" /><path
       style="fill:none;stroke:#000000;stroke-width:56.693;stroke-linecap:round;stroke-linejoin:round;stroke-dasharray:none;stroke-opacity:1;paint-order:markers stroke fill"
       d="m -9034.7552,571.42902 c 0,0 -85.2985,113.72204 -138.6569,113.81983 -60.9403,0.11168 -105.425,-49.16149 -47.9774,-166.57207 57.4476,-117.41059 97.4954,-204.61599 132.3033,-204.61599 34.8079,0 17.0361,92.58383 -22.5279,139.14692 -48.8167,57.4527 -215.3493,42.30494 -279.8067,108.77242 -42.768,44.10186 -49.9389,123.95908 -15.131,123.95908 28.6214,0 53.2973,-58.0623 127.0309,-208.75813 57.4475,-117.41058 11.7104,-164.44981 -28.2174,-163.12029 -41.4651,1.38071 -77.6876,31.88734 -77.6876,31.88734"
       id="path10"
       sodipodi:nodetypes="cssssssssc" /><path
       style="fill:none;stroke:#000000;stroke-width:56.693;stroke-linecap:round;stroke-linejoin:round;stroke-dasharray:none;stroke-opacity:1;paint-order:markers stroke fill"
       d="m -11009.459,571.37266 c 279.81,-353.94223 362.674,-540.468583 288.536,-540.468583 -95.917,0 -159.13,400.095033 -215.209,540.524943 -23.798,59.47027 11.766,113.70932 88.996,113.70932 202.061,0 268.245,-358.71154 102.662,-370.93849"
       id="path12"
       sodipodi:nodetypes="csssc" /><path
       style="fill:none;stroke:#000000;stroke-width:56.6931;stroke-linecap:round;stroke-linejoin:round;stroke-dasharray:none;stroke-opacity:1;paint-order:markers stroke fill"
       d="m -11214.667,499.99384 c -11.388,-71.42902 -98.42,-516.925391 162.958,-468 166.907,31.241969 -165.47,468 -345.315,775.70581 -38.181,85.74826 -10.143,163.9538 74.63,163.9538 285.89,0 299.713,-414.48617 165.474,-549.09981 0,0 79.931,94.88532 107.373,98.79056"
       id="path14"
       sodipodi:nodetypes="cscsc" /><path
       style="fill:none;stroke:#000000;stroke-width:56.6931;stroke-linecap:round;stroke-linejoin:round;stroke-dasharray:none;stroke-opacity:1;paint-order:markers stroke fill"
       d="m -2962.6761,314.00418 -48.946,176.08028 c 0,0 -67.0401,230.97907 78.6991,191.92838 145.7391,-39.05068 252.323,-368.00866 252.323,-368.00866 -98.3071,257.36848 -130.0634,371.18893 -84.9817,371.18893 50.8195,0 129.0793,-113.82045 129.0793,-113.82045"
       id="path15"
       sodipodi:nodetypes="cczcsc" /><path
       style="fill:none;stroke:#000000;stroke-width:56.6931;stroke-linecap:round;stroke-linejoin:round;stroke-dasharray:none;stroke-opacity:1;paint-order:markers stroke fill"
       d="m -6560.2294,313.6997 -36.3161,125.17275 -14.7697,50.90753 c 0,0 -76.4012,230.97907 8.457,191.92838 84.858,-39.05068 193.6121,-368.00866 193.6121,-368.00866 l -51.0857,176.08028 c 0,0 -76.4011,230.97907 8.457,191.92838 84.8581,-39.05068 193.6123,-368.00866 193.6123,-368.00866 -97.766,257.36848 -114.4959,371.18893 -90.3655,371.18893 72.4751,0 116.8667,-113.45961 116.8667,-113.45961"
       id="path20"
       sodipodi:nodetypes="ccczcczcsc" /><path
       style="fill:none;stroke:#000000;stroke-width:56.693;stroke-linecap:round;stroke-linejoin:round;stroke-dasharray:none;stroke-opacity:1;paint-order:markers stroke fill"
       d="m -7431.7613,571.42902 c 0,0 -78.4643,113.70952 -138.6569,113.81983 -60.9403,0.11169 -105.425,-49.16149 -47.9774,-166.57207 57.4476,-117.41059 97.4954,-204.61599 132.3033,-204.61599 34.8079,0 65.3611,23.98132 20.7768,124.36349 m -131.2996,35.64604 c -79.9119,3.11076 -127.3544,21.44233 -191.8118,87.90981 -42.768,44.10186 -49.9389,123.95908 -15.131,123.95908 28.6214,0 53.2973,-58.0623 127.0309,-208.75813 57.4475,-117.41058 11.7104,-164.44981 -28.2174,-163.12029 -41.4651,1.38071 -77.6876,31.88734 -77.6876,31.88734"
       id="path21"
       sodipodi:nodetypes="csssccssssc" /><path
       style="fill:none;stroke:#000000;stroke-width:56.6931;stroke-linecap:round;stroke-linejoin:round;stroke-dasharray:none;stroke-opacity:1;paint-order:markers stroke fill"
       d="m -7075.859,314.06054 c -98.3072,257.36848 -130.0635,371.18893 -84.9817,371.18893 50.8195,0 129.0793,-113.82045 129.0793,-113.82045"
       id="path22"
       sodipodi:nodetypes="csc" /><path
       style="fill:none;stroke:#000000;stroke-width:56.693;stroke-linecap:round;stroke-linejoin:round;stroke-dasharray:none;stroke-opacity:1;paint-order:markers stroke fill"
       d="m -7109.4584,403.55958 c -150.2583,73.6215 -187.9593,91.95307 -270.3211,158.42055 -54.6478,44.10186 -63.8105,123.95908 -19.334,123.95908 36.5716,0 101.9846,-63.92017 139.3968,-208.75813 35.6804,-138.13352 16.6698,-163.12029 -36.0554,-163.12029 -36.6509,0 -76.3473,31.88734 -76.3473,31.88734"
       id="path23"
       sodipodi:nodetypes="cssssc" /><path
       style="fill:none;stroke:#000000;stroke-width:56.6931;stroke-linecap:round;stroke-linejoin:round;stroke-dasharray:none;stroke-opacity:1;paint-order:markers stroke fill"
       d="m -4162.1015,314.06054 -94.6261,371.88387"
       id="path41"
       sodipodi:nodetypes="cc" /><path
       style="fill:none;stroke:#000000;stroke-width:56.6931;stroke-linecap:round;stroke-linejoin:round;stroke-dasharray:none;stroke-opacity:1;paint-order:markers stroke fill"
       d="m -4171.9708,650.03971 c 21.3782,30.00294 81.2987,35.56444 107.3046,30.48158 71.8047,-14.0342 130.3069,-39.01302 162.571,-156.93154 28.7083,-104.92263 -14.4781,-207.76851 -102.1106,-207.76851 -86.5862,0 -134.6434,52.59329 -191.2194,129.17844"
       id="path42"
       sodipodi:nodetypes="csssc" /><path
       style="fill:none;fill-opacity:1;stroke:#000000;stroke-width:56.693;stroke-linecap:round;stroke-linejoin:round;stroke-dasharray:none;stroke-opacity:1;paint-order:markers stroke fill"
       d="m -4687.4234,481.5216 c -347.226,76.61973 -284.6956,164.41756 -284.6956,164.41756 44.0583,68.34655 218.0831,74.28179 276.3013,-122.34941 31.0653,-104.92263 -15.6668,-207.76851 -110.494,-207.76851 -69.2226,0 -134.5741,33.06706 -184.6711,133.08369"
       id="path48"
       sodipodi:nodetypes="ccssc" /><g
       id="g48"
       transform="translate(-2856.8148)"><path
         style="fill:none;stroke:#000000;stroke-width:56.6931;stroke-linecap:round;stroke-linejoin:round;stroke-dasharray:none;stroke-opacity:1;paint-order:markers stroke fill"
         d="m -2516.368,475.42902 c 42.4465,-62.73973 107.5393,-161.44036 211.3812,-161.44036 53.8052,0 67.2513,40.77538 61.5834,102.11674 -7.3466,79.51048 -46.807,193.57441 -72.1138,298.18031"
         id="path26"
         sodipodi:nodetypes="ccsc" /><path
         style="fill:none;stroke:#000000;stroke-width:56.6931;stroke-linecap:round;stroke-linejoin:round;stroke-dasharray:none;stroke-opacity:1;paint-order:markers stroke fill"
         d="m -2253.3236,674.28571 c -123.6194,92.06972 -292.4859,273.58885 -292.4859,273.58885 0,0 67.1102,-57.68356 155.6255,-42.45717 69.4696,11.95016 92.3779,108.17891 215.2374,46.70196"
         id="path31"
         sodipodi:nodetypes="ccsc" /><path
         style="fill:none;stroke:#000000;stroke-width:56.693;stroke-linecap:round;stroke-linejoin:round;stroke-dasharray:none;stroke-opacity:1;paint-order:markers stroke fill"
         d="M -2445.575,136.63356 -2226.4018,28.346501"
         id="path35" /></g><path
       style="fill:none;stroke:#000000;stroke-width:56.6931;stroke-linecap:round;stroke-linejoin:round;stroke-dasharray:none;stroke-opacity:1;paint-order:markers stroke fill"
       d="m -6213.7614,475.42902 c 0,0 56.8047,-159.44036 136.721,-159.44036 46.9738,0 38.1726,62.13481 20.9415,136.41645 -20.4841,88.30516 -35.7855,191.77642 -48.2883,230.43302 57.3388,-237.91635 128.7606,-368.98518 184.5629,-368.98518 66.2903,0 60.148,114.62041 -23.6286,368.98518 -31.4137,117.23741 -49.0806,288.81482 -117.7899,288.81482 -134.0427,0 -25.6844,-257.36724 228.7092,-403.80496"
       id="path24"
       sodipodi:nodetypes="ccscsccc" /><path
       style="fill:none;stroke:#000000;stroke-width:56.6931;stroke-linecap:round;stroke-linejoin:round;stroke-dasharray:none;stroke-opacity:1;paint-order:markers stroke fill"
       d="m -5792.7089,475.42902 c 0,0 49.7522,-161.44035 129.6685,-161.44035 46.9738,0 54.1726,62.13481 36.9415,136.41645 -20.4841,88.30516 -63.7855,193.77642 -76.2883,232.43302 0,0 95.7113,-368.84947 171.337,-368.84947 123.5474,0 13.9579,291.74491 -22.5884,399.73306"
       id="path30"
       sodipodi:nodetypes="ccsccc" /><path
       style="fill:none;stroke:#000000;stroke-width:56.6931;stroke-linecap:round;stroke-linejoin:round;stroke-dasharray:none;stroke-opacity:1;paint-order:markers stroke fill"
       d="m -5490.5339,670.37226 c -123.6194,92.06972 -318.4859,273.58885 -318.4859,273.58885 0,0 67.1103,-57.68356 155.6255,-42.45717 69.4697,11.95016 92.3779,108.17886 215.2375,46.70196"
       id="path32"
       sodipodi:nodetypes="ccsc" /><path
       style="fill:none;stroke:#000000;stroke-width:56.693;stroke-linecap:round;stroke-linejoin:round;stroke-dasharray:none;stroke-opacity:1;paint-order:markers stroke fill"
       d="M -5690.0104,136.63357 -5470.8372,28.346501"
       id="path33" /><path
       style="fill:none;stroke:#000000;stroke-width:56.693;stroke-linecap:round;stroke-linejoin:round;stroke-dasharray:none;stroke-opacity:1;paint-order:markers stroke fill"
       d="M -6051.7068,136.63356 -5832.5336,28.346501"
       id="path34" /><path
       style="fill:none;stroke:#000000;stroke-width:56.6931;stroke-linecap:round;stroke-linejoin:round;stroke-dasharray:none;stroke-opacity:1;paint-order:markers stroke fill"
       d="m -8162.3401,314.28371 -94.4164,371.88387 c 0,0 41.4057,-174.30588 210.8326,-314.37176 83.1449,-68.73619 125.8712,-66.51528 139.8704,-43.44377 14.5274,23.94201 -1.2805,70.11254 -1.2805,70.11254 -72.8607,198.17145 -92.9601,287.00805 -53.2205,287.00805 50.7067,0 128.793,-113.82045 128.793,-113.82045"
       id="path57"
       sodipodi:nodetypes="ccsscsc" /><path
       style="fill:none;stroke:#000000;stroke-width:56.6931;stroke-linecap:round;stroke-linejoin:round;stroke-dasharray:none;stroke-opacity:1;paint-order:markers stroke fill"
       d="m -8962.0774,314.06153 -94.6261,371.88387 380.8445,-371.88387 c -98.3072,257.36848 -130.0635,371.18893 -84.9817,371.18893 50.8195,0 129.0793,-113.82045 129.0793,-113.82045"
       id="path18"
       sodipodi:nodetypes="cccsc" /><path
       style="fill:none;stroke:#000000;stroke-width:56.6931;stroke-linecap:round;stroke-linejoin:round;stroke-dasharray:none;stroke-opacity:1;paint-order:markers stroke fill"
       d="m -8562.1019,314.06054 -94.6261,371.88387"
       id="path72"
       sodipodi:nodetypes="cc" /><path
       style="fill:none;stroke:#000000;stroke-width:56.6931;stroke-linecap:round;stroke-linejoin:round;stroke-dasharray:none;stroke-opacity:1;paint-order:markers stroke fill"
       d="m -8570.0956,669.1426 c 30.3633,17.77833 194.1757,45.14836 259.4389,-77.95046 73.4803,-138.5981 -163.534,-87.10073 -163.534,-87.10073 280.4478,-59.62007 185.4042,-188.23675 88.7164,-188.23675 -107.6325,0 -142.6825,56.68215 -201.9645,97.78085"
       id="path74"
       sodipodi:nodetypes="cscsc" /><path
       style="fill:none;stroke:#000000;stroke-width:56.6931;stroke-linecap:round;stroke-linejoin:round;stroke-dasharray:none;stroke-opacity:1;paint-order:markers stroke fill"
       d="m -3787.4383,423.31607 c 66.3344,-72.66421 120.9005,-109.38422 189.2724,-109.38422 108.4035,0 200.405,118.09847 -45.9296,257.49717 242.2208,-104.46285 146.3387,400.38105 -97.2672,400.38105 -38.3659,0 -95.7498,-90.8425 20.8718,-197.41378 l 288.73,-201.40039"
       id="path78"
       sodipodi:nodetypes="cscscc" /><path
       style="fill:none;fill-opacity:1;stroke:#000000;stroke-width:56.693;stroke-linecap:round;stroke-linejoin:round;stroke-dasharray:none;stroke-opacity:1;paint-order:markers stroke fill"
       d="m -9003.4149,778.72214 c 0,0 11.2884,46.06686 58.3554,56.68856 33.1633,7.48403 92.4321,-4.7147 141.6445,-53.92713"
       id="path79"
       sodipodi:nodetypes="csc" /><path
       style="fill:none;fill-opacity:1;stroke:#000000;stroke-width:56.693;stroke-linecap:round;stroke-linejoin:round;stroke-dasharray:none;stroke-opacity:1;paint-order:markers stroke fill"
       d="m -3361.4582,793.29055 c 0,0 11.2884,46.06686 58.3554,56.68856 33.1633,7.48403 92.4321,-4.7147 141.6445,-53.92713"
       id="path81"
       sodipodi:nodetypes="csc" /><path
       style="fill:none;fill-opacity:1;stroke:#000000;stroke-width:56.693;stroke-linecap:round;stroke-linejoin:round;stroke-dasharray:none;stroke-opacity:1;paint-order:markers stroke fill"
       d="m -2302.2829,377.30934 c -11.4183,-42.4372 -73.875,-77.49841 -138.1002,-59.45631 -72.9473,20.4923 -121.2759,58.73021 -155.1694,158.55725 -35.4623,104.44754 17.0282,207.76851 120.096,207.76851 109.2399,0 165.0372,-56.93652 243.7032,-112.74977"
       id="path82"
       sodipodi:nodetypes="csssc" /><rect
       style="fill:#999999;fill-opacity:1;stroke:none;stroke-width:56.693;stroke-linecap:round;stroke-linejoin:round;stroke-dasharray:none;stroke-opacity:1;paint-order:markers stroke fill"
       id="rect85"
       width="400.00006"
       height="1000"
       x="1831.7607"
       y="-1000"
       transform="scale(-1)" /><path
       style="fill:none;fill-opacity:1;stroke:#000000;stroke-width:56.693;stroke-linecap:round;stroke-linejoin:round;stroke-dasharray:none;stroke-opacity:1;paint-order:markers stroke fill"
       d="m -2021.2522,315.82105 c -75.771,0 -127.41,59.05601 -171.7301,159.43683 -46.3715,105.02696 -4.6725,208.92109 98.3953,208.92109 246.0738,0 240.5357,-368.35792 73.3348,-368.35792 z"
       id="path86"
       sodipodi:nodetypes="ssss" /><rect
       style="fill:#ffd5d5;stroke:none;stroke-width:56.693;stroke-linecap:round;stroke-linejoin:round;stroke-dasharray:none;stroke-opacity:1;paint-order:markers stroke fill"
       id="rect84"
       width="400.00006"
       height="1000"
       x="-1831.7607"
       y="5.6843419e-14" /><path
       style="fill:none;stroke:#000000;stroke-width:56.6931;stroke-linecap:round;stroke-linejoin:round;stroke-dasharray:none;stroke-opacity:1;paint-order:markers stroke fill"
       d="m -1762.0766,314.06153 -94.6261,371.88387 380.8445,-371.88387 c -98.3072,257.36848 -130.0635,371.18893 -84.9817,371.18893 50.8195,0 129.0793,-113.82045 129.0793,-113.82045"
       id="path84"
       sodipodi:nodetypes="cccsc" /><path
       style="fill:none;fill-opacity:1;stroke:#000000;stroke-width:56.693;stroke-linecap:round;stroke-linejoin:round;stroke-dasharray:none;stroke-opacity:1;paint-order:markers stroke fill"
       d="m -1803.4141,778.72214 c 0,0 11.2884,46.06686 58.3554,56.68856 33.1633,7.48403 92.4321,-4.7147 141.6445,-53.92713"
       id="path85"
       sodipodi:nodetypes="csc" /><rect
       style="fill:#ffd5d5;stroke:none;stroke-width:56.693;stroke-linecap:round;stroke-linejoin:round;stroke-dasharray:none;stroke-opacity:1;paint-order:markers stroke fill"
       id="rect89"
       width="400.00006"
       height="1000"
       x="-1431.7607"
       y="5.6843419e-14" /><path
       style="fill:none;stroke:#000000;stroke-width:56.6931;stroke-linecap:round;stroke-linejoin:round;stroke-dasharray:none;stroke-opacity:1;paint-order:markers stroke fill"
       d="m -1362.0765,314.06153 -94.6261,371.88387 151.9138,-155.84293"
       id="path89"
       sodipodi:nodetypes="ccc" /><path
       style="fill:none;fill-opacity:1;stroke:#000000;stroke-width:56.693;stroke-linecap:round;stroke-linejoin:round;stroke-dasharray:none;stroke-opacity:1;paint-order:markers stroke fill"
       d="m -1099.5404,452.251 c 0,0 -174.7582,80.7804 -165.4512,-34.93216 7.6025,-94.52147 90.7333,-104.49642 90.7333,-104.49642 65.5996,0 81.9107,50.00124 74.7179,139.42858 -13.9511,173.45268 -73.1364,233.86326 -157.9671,233.86326 -61.9253,0 -79.1291,-82.35557 -47.2813,-156.01179"
       id="path90"
       sodipodi:nodetypes="cscssc" /><rect
       style="fill:#ffd5d5;stroke:none;stroke-width:56.693;stroke-linecap:round;stroke-linejoin:round;stroke-dasharray:none;stroke-opacity:1;paint-order:markers stroke fill"
       id="rect86"
       width="400.00006"
       height="1000"
       x="-1031.7607"
       y="5.6843419e-14" /><path
       style="fill:none;stroke:#000000;stroke-width:56.6931;stroke-linecap:round;stroke-linejoin:round;stroke-dasharray:none;stroke-opacity:1;paint-order:markers stroke fill"
       d="m -962.67576,314.00418 -48.94604,176.08028 c 0,0 -67.0401,230.97907 78.69914,191.92838 145.7391,-39.05068 250.3231,-368.00866 250.3231,-368.00866 -9.4702,33.74051 -86.6286,327.99193 -100.0802,368.83395 -31.4137,117.23741 -35.4122,288.81482 -117.7899,288.81482 -171.29094,0 68.709,-305.26957 268.7092,-403.80496"
       id="path87"
       sodipodi:nodetypes="cczcccc" /><rect
       style="fill:#ffd5d5;stroke:none;stroke-width:56.693;stroke-linecap:round;stroke-linejoin:round;stroke-dasharray:none;stroke-opacity:1;paint-order:markers stroke fill"
       id="rect90"
       width="400.00006"
       height="1000"
       x="-10604.718"
       y="-3.1258196e-10" /><path
       style="fill:none;stroke:#000000;stroke-width:56.693;stroke-linecap:round;stroke-linejoin:round;stroke-dasharray:none;stroke-opacity:1;paint-order:markers stroke fill"
       d="m -10609.459,571.37266 c 404.741,-308.3787 402.674,-540.468583 328.536,-540.468583 -95.917,0 -275.008,655.124123 -123.795,655.124123 50.795,0 129.074,-53.90417 195.259,-114.65554"
       id="path91"
       sodipodi:nodetypes="cssc" /><path
       style="fill:none;fill-opacity:1;stroke:#000000;stroke-width:56.693;stroke-linecap:round;stroke-linejoin:round;stroke-dasharray:none;stroke-opacity:1;paint-order:markers stroke fill"
       d="m -12112.961,121.38583 164.943,-93.040055 101.91,100.477345"
       id="path93" /><path
       style="fill:none;stroke:#000000;stroke-width:56.693;stroke-linecap:round;stroke-linejoin:round;stroke-dasharray:none;stroke-opacity:1;paint-order:markers stroke fill"
       d="m -11698.693,136.63357 219.174,-116.097563"
       id="path94" /><text
       xml:space="preserve"
       style="font-style:normal;font-variant:normal;font-weight:normal;font-stretch:normal;font-size:38.1px;line-height:1.2;font-family:linzklar_rounded;-inkscape-font-specification:linzklar_rounded;text-align:end;letter-spacing:0px;writing-mode:lr-tb;direction:ltr;text-anchor:end;fill:#000000;stroke-width:0.2;stroke-linecap:round;paint-order:markers stroke fill"
       x="9736.8789"
       y="-85.811394"
       id="text1"><tspan
         sodipodi:role="line"
         id="tspan1"
         style="stroke-width:0.2"
         x="9736.8789"
         y="-85.811394" /></text><path
       style="fill-opacity:0.5;stroke-width:0.999999;stroke-linecap:round;stroke-linejoin:round"
       d="m 5979.4531,33.611055 a 28.525908,28.062633 53.325404 0 0 -27.783,28.3615 28.525908,28.062633 53.325404 0 0 28.669,28.3615 h 209.749 l -336.141,364.223905 0.882,-0.9158 c -58.688,57.9968 -87.246,125.4055 -90.309,182.55507 -1.53,28.57475 3.102,55.12297 16.681,76.90841 13.581,21.78548 38.769,37.27622 66.097,37.2762 h 298.945 a 28.528763,28.065442 53.325123 0 0 27.762,-29.12225 l -7.276,-172.30363 a 28.525908,28.062633 53.325404 0 0 -29.399,-27.5933 28.525908,28.062633 53.325404 0 0 -27.006,29.1075 l 6.044,143.18866 h -269.956 c -9.323,10e-6 -12.51,-2.12924 -17.491,-10.11858 -4.98,-7.98932 -9.094,-23.3684 -8.02,-43.41379 2.149,-40.09079 24.203,-96.68859 73.837,-145.73679 a 28.528763,28.065442 53.325123 0 0 0.883,-0.9158 l 380.283,-412.047105 a 28.528763,28.065442 53.325123 0 0 -21.283,-47.8157 z"
       id="path3527" /><path
       id="path1542"
       style="fill-opacity:0.5;stroke-width:0.999999;stroke-linecap:round;stroke-linejoin:round"
       d="m 8555.119,3.1511552 a 28.525721,28.062448 53.325268 0 0 -25.521,20.9094998 l -26.221,103.136805 h -171.93 a 28.525721,28.062448 53.325268 0 0 -27.783,28.3608 28.525721,28.062448 53.325268 0 0 28.668,28.3607 h 156.626 l -38.356,150.879 h -222.463 a 28.525721,28.062448 53.325268 0 0 -27.782,28.3607 28.525721,28.062448 53.325268 0 0 28.668,28.3608 h 488.114 a 28.525721,28.062448 53.325268 0 0 27.782,-28.3608 28.525721,28.062448 53.325268 0 0 -28.668,-28.3607 h -207.16 l 38.358,-150.879 h 171.937 a 28.525721,28.062448 53.325268 0 0 27.783,-28.3607 28.525721,28.062448 53.325268 0 0 -28.668,-28.3608 h -156.632 l 22.449,-88.298805 a 28.525721,28.062448 53.325268 0 0 -20.404,-34.7937998 28.525721,28.062448 53.325268 0 0 -8.797,-0.9537 z M 8236.9,476.48646 a 28.525721,28.062448 53.325268 0 0 -27.783,28.3607 28.525721,28.062448 53.325268 0 0 28.668,28.3628 h 332.949 l -226.225,250.8499 -44.303,-94.50719 a 28.525721,28.062448 53.325268 0 0 -16.029,-14.80866 28.525721,28.062448 53.325268 0 0 -21.575,0.74649 28.525721,28.062448 53.325268 0 0 -13.402,37.57074 l 125.491,267.70656 a 28.525721,28.062448 53.325268 0 0 37.602,14.0621 28.525721,28.062448 53.325268 0 0 13.41,-37.5648 l -54.933,-117.18334 284.989,-316.0154 a 28.528572,28.065253 53.325289 0 0 -21.491,-47.5799 z" /><path
       style="fill-opacity:0.5;stroke-width:0.999999;stroke-linecap:round;stroke-linejoin:round;paint-order:fill markers stroke"
       d="m 3069.6185,471.89196 a 28.523665,28.06144 53.122792 0 0 -27.7824,28.3581 28.523665,28.06144 53.122792 0 0 28.6678,28.358 h 361.2393 a 28.523665,28.06144 53.122792 0 0 27.782,-28.358 28.523665,28.06144 53.122792 0 0 -28.668,-28.3581 z"
       id="path2783-4" /><path
       id="path2783-0"
       style="fill-opacity:0.5;stroke-width:0.999999;stroke-linecap:round;stroke-linejoin:round;paint-order:fill markers stroke"
       d="M 4590.9444,0.44536682 A 28.525908,28.062633 53.325404 0 0 4571.2385,20.438367 l -92.0161,361.948003 h -170.394 l 54.7581,-215.3917 a 28.525908,28.062633 53.325404 0 0 -20.3971,-34.7958 28.525908,28.062633 53.325404 0 0 -34.3167,19.95 l -58.5333,230.2375 h -121.871 a 28.525908,28.062633 53.325404 0 0 -27.7843,28.3608 28.525908,28.062633 53.325404 0 0 28.6698,28.3627 h 106.565 l -64.9991,255.68254 a 28.525908,28.062633 53.325404 0 0 20.3943,34.7939 28.525908,28.062633 53.325404 0 0 34.3175,-19.95008 l 68.7763,-270.52636 h 170.392 l -133.4956,525.10884 a 28.525908,28.062633 53.325404 0 0 20.4073,34.7938 28.525908,28.062633 53.325404 0 0 34.3143,-19.9559 l 137.263,-539.94674 h 121.873 a 28.525908,28.062633 53.325404 0 0 27.7852,-28.3627 28.525908,28.062633 53.325404 0 0 -28.6707,-28.3608 h -106.566 l 88.2378,-347.104203 a 28.525908,28.062633 53.325404 0 0 -20.3943,-34.79380018 28.525908,28.062633 53.325404 0 0 -14.6096,-0.043 z" /><rect
       style="fill:#ffd5d5;stroke:none;stroke-width:56.693;stroke-linecap:round;stroke-linejoin:round;stroke-dasharray:none;stroke-opacity:1;paint-order:markers stroke fill"
       id="rect94"
       width="500"
       height="1000"
       x="500"
       y="-3.3878678e-11" /><path
       style="fill-opacity:0.5;stroke-width:0.999999;stroke-linecap:round;stroke-linejoin:round;paint-order:fill markers stroke"
       d="m 652.0898,380.10896 a 28.525908,28.062633 53.325404 0 0 -20.208,7.3711 28.525908,28.062633 53.325404 0 0 -1.22,40.068 l 169.41,183.6112 a 28.525908,28.062633 53.325404 0 0 39.898,1.8613 28.525908,28.062633 53.325404 0 0 1.226,-40.0681 l -169.41,-183.6186 a 28.525908,28.062633 53.325404 0 0 -19.696,-9.2249 z"
       id="path2777" /><rect
       style="fill:#ffd5d5;stroke:none;stroke-width:56.693;stroke-linecap:round;stroke-linejoin:round;stroke-dasharray:none;stroke-opacity:1;paint-order:markers stroke fill"
       id="rect95"
       width="500"
       height="1000"
       x="1000"
       y="-5.6843419e-14" /><path
       style="fill-opacity:0.5;stroke-width:0.999999;stroke-linecap:round;stroke-linejoin:round;paint-order:fill markers stroke"
       d="M 1376.9225,0.98795523 A 28.525908,28.062633 53.325404 0 0 1342.6065,20.937055 L 1102.6795,964.7181 a 28.525908,28.062633 53.325404 0 0 20.398,34.7945 28.525908,28.062633 53.325404 0 0 34.316,-19.9564 l 239.927,-943.773745 a 28.525908,28.062633 53.325404 0 0 -20.398,-34.79449977 z"
       id="path2783-1" /><rect
       style="fill:#ffd5d5;stroke:none;stroke-width:56.693;stroke-linecap:round;stroke-linejoin:round;stroke-dasharray:none;stroke-opacity:1;paint-order:markers stroke fill"
       id="rect96"
       width="500"
       height="1000"
       x="1500"
       y="-5.6843419e-14" /><path
       id="path2783-6"
       style="fill-opacity:0.5;stroke-width:0.999999;stroke-linecap:round;stroke-linejoin:round;paint-order:fill markers stroke"
       d="M 1964.8015,0.94495523 A 28.525908,28.062633 53.325404 0 0 1945.0945,20.937955 L 1705.1625,964.7183 a 28.525908,28.062633 53.325404 0 0 20.405,34.7938 28.525908,28.062633 53.325404 0 0 34.316,-19.9559 l 239.926,-943.774445 a 28.525908,28.062633 53.325404 0 0 -20.396,-34.79379977 28.525908,28.062633 53.325404 0 0 -14.612,-0.043 z M 1661.4595,131.94216 a 28.525908,28.062633 53.325404 0 0 -23.316,20.7063 L 1500.1905,695.292 a 28.525908,28.062633 53.325404 0 0 20.395,34.7939 28.525908,28.062633 53.325404 0 0 34.318,-19.95008 l 137.953,-542.64156 a 28.525908,28.062633 53.325404 0 0 -20.398,-34.7958 28.525908,28.062633 53.325404 0 0 -10.999,-0.7563 z" /><rect
       style="fill:#ffd5d5;stroke:none;stroke-width:56.693;stroke-linecap:round;stroke-linejoin:round;stroke-dasharray:none;stroke-opacity:1;paint-order:markers stroke fill"
       id="rect97"
       width="500"
       height="1000"
       x="2000.6805"
       y="-9.606343e-15" /><path
       id="path2783-8"
       style="fill-opacity:0.5;stroke-width:0.999999;stroke-linecap:round;stroke-linejoin:round;paint-order:fill markers stroke"
       d="M 2517.7457,0.94495523 A 28.525908,28.062633 53.325404 0 0 2498.0417,20.937955 L 2258.1137,964.7183 a 28.525908,28.062633 53.325404 0 0 20.401,34.7938 28.525908,28.062633 53.325404 0 0 34.313,-19.9559 l 239.934,-943.774445 a 28.525908,28.062633 53.325404 0 0 -20.405,-34.79379977 28.525908,28.062633 53.325404 0 0 -14.611,-0.043 z M 2109.8697,131.94216 a 28.525908,28.062633 53.325404 0 0 -23.317,20.7063 L 1948.5997,695.292 a 28.525908,28.062633 53.325404 0 0 20.403,34.7939 28.525908,28.062633 53.325404 0 0 34.318,-19.95008 l 137.945,-542.64156 a 28.525908,28.062633 53.325404 0 0 -20.398,-34.7958 28.525908,28.062633 53.325404 0 0 -10.998,-0.7563 z m 189.006,0 a 28.525908,28.062633 53.325404 0 0 -23.314,20.7063 L 2137.6057,695.292 a 28.525908,28.062633 53.325404 0 0 20.397,34.7939 28.525908,28.062633 53.325404 0 0 34.316,-19.95008 l 137.953,-542.64156 a 28.525908,28.062633 53.325404 0 0 -20.398,-34.7958 28.525908,28.062633 53.325404 0 0 -10.998,-0.7563 z" /><rect
       style="fill:#ffd5d5;stroke:none;stroke-width:56.693;stroke-linecap:round;stroke-linejoin:round;stroke-dasharray:none;stroke-opacity:1;paint-order:markers stroke fill"
       id="rect100"
       width="600"
       height="1000"
       x="3500.6807"
       y="0" /><path
       id="path2783-3"
       style="fill-opacity:0.5;stroke-width:0.999999;stroke-linecap:round;stroke-linejoin:round;paint-order:fill markers stroke"
       d="M 3890.3663,0.94495529 A 28.525908,28.062633 53.325404 0 0 3870.6595,20.937955 l -92.0121,361.948005 h -236.3141 a 28.525908,28.062633 53.325404 0 0 -27.7823,28.3608 28.525908,28.062633 53.325404 0 0 28.6678,28.3627 h 221.0081 L 3630.7343,964.7183 a 28.525908,28.062633 53.325404 0 0 20.3973,34.79382 28.525908,28.062633 53.325404 0 0 34.3153,-19.95592 l 137.264,-539.94674 h 236.319 a 28.525908,28.062633 53.325404 0 0 27.7802,-28.3627 28.525908,28.062633 53.325404 0 0 -28.6657,-28.3608 h -221.013 l 88.2418,-347.104205 a 28.525908,28.062633 53.325404 0 0 -20.3983,-34.79379971 28.525908,28.062633 53.325404 0 0 -14.6086,-0.043 z" /><rect
       style="fill:#ffd5d5;stroke:none;stroke-width:56.693;stroke-linecap:round;stroke-linejoin:round;stroke-dasharray:none;stroke-opacity:1;paint-order:markers stroke fill"
       id="rect102"
       width="600"
       height="999.99872"
       x="4686.8135"
       y="0.00027883478" /><path
       id="path2783"
       style="fill-opacity:0.5;stroke-width:0.999999;stroke-linecap:round;stroke-linejoin:round;paint-order:fill markers stroke"
       d="M 5237.8855,0.94495523 A 28.525908,28.062633 53.325404 0 0 5218.1807,20.937955 l -92.0141,361.948005 h -102.0959 l 54.7571,-215.3917 a 28.525908,28.062633 53.325404 0 0 -20.3951,-34.7958 28.525908,28.062633 53.325404 0 0 -34.3177,19.95 l -58.5333,230.2375 h -102.093 l 54.7561,-215.3917 a 28.525908,28.062633 53.325404 0 0 -20.3961,-34.7958 28.525908,28.062633 53.325404 0 0 -34.3177,19.95 l -58.5293,230.2375 h -75.731 a 28.525908,28.062633 53.325404 0 0 -27.7823,28.3608 28.525908,28.062633 53.325404 0 0 28.6678,28.3627 h 60.421 l -89.8384,353.39655 a 28.525908,28.062633 53.325404 0 0 20.3961,34.79387 28.525908,28.062633 53.325404 0 0 34.3247,-19.94809 l 93.6096,-368.24233 h 102.094 l -89.8434,353.39655 a 28.525908,28.062633 53.325404 0 0 20.3991,34.79387 28.525908,28.062633 53.325404 0 0 34.3137,-19.94809 l 93.6166,-368.24233 h 102.099 L 4978.2546,964.7183 a 28.525908,28.062633 53.325404 0 0 20.3973,34.7938 28.525908,28.062633 53.325404 0 0 34.3143,-19.9559 l 137.266,-539.94674 h 75.734 a 28.525908,28.062633 53.325404 0 0 27.7832,-28.3627 28.525908,28.062633 53.325404 0 0 -28.6687,-28.3608 h -60.4281 l 88.2399,-347.104205 a 28.525908,28.062633 53.325404 0 0 -20.3962,-34.79379977 28.525908,28.062633 53.325404 0 0 -14.6107,-0.043 z" /><path
       id="path2789-5"
       style="fill-opacity:0.5;stroke-width:0.999999;stroke-linecap:round;stroke-linejoin:round;paint-order:fill markers stroke"
       d="m 3025.8712,46.500355 a 28.525908,28.062633 53.325404 0 0 -21.865,17.5992 c -56.28,148.272805 -131.209,285.858405 -207.689,405.027505 l -133.708,-87.7986 a 28.525908,28.062633 53.325404 0 0 -21.268,-4.1213 28.525908,28.062633 53.325404 0 0 -17.709,12.1627 28.525908,28.062633 53.325404 0 0 8.617,39.2943 l 133.157,87.439 C 2606.6442,752.56374 2451.0912,905.47 2451.0912,905.47 a 28.525908,28.062633 53.325404 0 0 -0.191,40.0975 28.525908,28.062633 53.325404 0 0 39.918,0.8266 c 0,0 159.474,-155.82263 322.398,-398.89734 l 106.736,70.088 a 28.525908,28.062633 53.325404 0 0 38.978,-8.0433 28.525908,28.062633 53.325404 0 0 -8.618,-39.2924 l -106.225,-69.7538 c 78.13,-121.8705 154.791,-262.8597 212.709,-415.456905 a 28.525908,28.062633 53.325404 0 0 -16.382,-36.832 28.525908,28.062633 53.325404 0 0 -14.543,-1.706 z" /><path
       id="path2789-7"
       style="fill-opacity:0.5;stroke-width:0.999999;stroke-linecap:round;stroke-linejoin:round;paint-order:fill markers stroke"
       d="m 5487.0412,46.203355 a 28.525908,28.062633 53.325404 0 0 -27.781,28.3627 28.525908,28.062633 53.325404 0 0 28.667,28.360705 h 273.271 c -51.983,127.946 -117.031,247.2179 -183.73,352.6423 l -111.549,-125.4181 a 28.525908,28.062633 53.325404 0 0 -19.533,-9.5872 28.525908,28.062633 53.325404 0 0 -20.347,6.9881 28.525908,28.062633 53.325404 0 0 -1.962,40.0232 l 121.684,136.8129 C 5384.5292,747.45972 5224.1732,905.47 5224.1732,905.47 a 28.525908,28.062633 53.325404 0 0 -0.189,40.0975 28.525908,28.062633 53.325404 0 0 39.918,0.8266 c 0,0 158.855,-155.22966 321.45,-397.49424 l 87.572,98.45655 a 28.525908,28.062633 53.325404 0 0 39.872,2.60102 28.525908,28.062633 53.325404 0 0 1.964,-40.02317 l -97.486,-109.6071 c 78.094,-121.8326 154.714,-262.7608 212.607,-415.288805 a 28.528763,28.065442 53.325123 0 0 -26.832,-38.835 z" /><rect
       style="fill:#ffd5d5;stroke:none;stroke-width:56.693;stroke-linecap:round;stroke-linejoin:round;stroke-dasharray:none;stroke-opacity:1;paint-order:markers stroke fill"
       id="rect113"
       width="500"
       height="1000"
       x="6273.7637"
       y="-2.4120315e-11" /><path
       id="path1380"
       style="fill-opacity:0.5;stroke-width:0.999999;stroke-linecap:round;stroke-linejoin:round"
       d="M 6703.1204,0.82125523 A 28.525908,28.062633 53.325404 0 0 6679.8029,21.528255 l -161.3874,634.832025 -50.9624,-69.89842 a 28.525908,28.062633 53.325404 0 0 -39.4847,-6.5293 28.525908,28.062633 53.325404 0 0 -5.8801,39.5723 l 86.3548,118.43941 a 28.528763,28.065442 53.325123 0 0 50.0397,-9.09961 L 6734.525,36.373955 a 28.525908,28.062633 53.325404 0 0 -20.4046,-34.7948998 28.525908,28.062633 53.325404 0 0 -11,-0.75779997 z M 6438.8947,85.200155 a 28.525911,28.062635 53.325277 0 0 -25.5212,20.910105 l -100.371,394.8164 a 28.525911,28.062635 53.325277 0 0 20.3967,34.793 28.525911,28.062635 53.325277 0 0 34.3154,-19.9551 l 100.371,-394.8164 a 28.525911,28.062635 53.325277 0 0 -20.3967,-34.794905 28.525911,28.062635 53.325277 0 0 -8.7942,-0.9531 z" /><rect
       style="fill:#ffd5d5;stroke:none;stroke-width:56.693;stroke-linecap:round;stroke-linejoin:round;stroke-dasharray:none;stroke-opacity:1;paint-order:markers stroke fill"
       id="rect114"
       width="200"
       height="1000"
       x="6773.7637"
       y="-2.4120315e-11" /><path
       id="path92"
       style="fill:#000000;stroke-width:0.529168;stroke-linecap:round;paint-order:markers fill stroke"
       d="m 6840.9756,0.02045523 a 28.568596,28.126033 44.77637 0 0 -4.89,0.625 28.568596,28.126033 44.77637 0 0 -20.681,19.06439977 l -28.381,93.306705 a 28.568596,28.126033 44.77637 0 0 18.921,35.6347 28.568596,28.126033 44.77637 0 0 35.348,-18.3652 l 28.381,-93.306605 a 28.568596,28.126033 44.77637 0 0 -18.921,-35.6347998 28.568596,28.126033 44.77637 0 0 -9.777,-1.32419997 z m 90.83,0 a 28.568596,28.126033 44.77637 0 0 -4.89,0.625 28.568596,28.126033 44.77637 0 0 -20.681,19.06439977 l -28.381,93.306705 a 28.568596,28.126033 44.77637 0 0 18.921,35.6347 28.568596,28.126033 44.77637 0 0 35.348,-18.3652 l 28.381,-93.306605 a 28.568596,28.126033 44.77637 0 0 -18.921,-35.6347998 28.568596,28.126033 44.77637 0 0 -9.777,-1.32419997 z" /><path
       style="fill-opacity:0.5;stroke-width:0.999999;stroke-linecap:round;paint-order:stroke markers fill"
       d="m 7389.0038,998.60142 c 2.438,0.3093 3.108,0.062 4.392,-0.038 a 28.525908,28.062633 53.325404 0 0 27.109,-28.2138 28.525908,28.062633 53.325404 0 0 -8.937,-20.1485 c -35.484,-36.0909 -57.558,-100.7489 -64.605,-171.1662 -7.069,-70.6506 0.432,-146.299 16.221,-200.2072 l 0.146,-0.4874 17.727,-69.7442 0.672,-2.6294 17.734,-69.759 0.1,-0.5022 c 23.124,-107.28949 127.223,-302.42541 247.633,-382.73272 l 0.213,-0.1403 0.211,-0.1477 c -5.173,3.5908 -10.447,4.3434 -14.681,4.5053 a 28.525908,28.062633 53.325404 0 0 26.844,-27.8223 28.525908,28.062633 53.325404 0 0 -27.702,-28.0957 c -4.143,-0.1451 -10.736,0.2485 -16.989,4.5645 -140.853,94.1729 -243.629,291.40994 -270.707,417.03242 l 0.233,-1.0045 -17.603,69.2567 -0.673,2.6294 -17.603,69.2568 0.265,-0.975 c -18.338,62.6043 -26.055,143.3629 -18.207,221.7959 7.847,78.4102 30.697,155.2564 81.372,206.426 v 0.01 c 5.436,5.5031 12.591,7.8023 16.823,8.3386 z m 21.892,-48.6725 a 28.525908,28.062633 53.325404 0 0 -18.501,-7.5779 c 1.052,-0.01 1.238,-0.2208 2.806,-0.023 3.951,0.5006 10.427,2.7928 15.695,7.6001 z"
       id="rect2757-57" /><path
       style="fill-opacity:0.5;stroke-width:0.999999;stroke-linecap:round;stroke-linejoin:round;paint-order:stroke markers fill"
       d="m 7114.2389,1.3132552 a 28.525908,28.062633 53.325404 0 0 -27.783,28.3614998 28.525908,28.062633 53.325404 0 0 28.667,28.3615 h 120.649 L 7010.9229,942.4944 h -135.952 a 28.525908,28.062633 53.325404 0 0 -27.782,28.3616 28.525908,28.062633 53.325404 0 0 28.669,28.3615 h 157.334 l -0.504,-0.2141 c 0.506,-0.03 1.043,0.034 1.462,-0.015 a 28.528763,28.065442 53.325123 0 0 26.613,-22.7778 l -0.188,1.0414 238.631,-938.662645 -0.545,1.4402 a 28.528763,28.065442 53.325123 0 0 -24.928,-38.3470998 c -0.988,-0.059 -2.167,-0.01 -3.593,0.074 l 1.428,-0.4429 z m 174.062,51.7744998 c -4.861,3.3749 -10.019,4.2168 -14.284,4.461 a 28.528763,28.065442 53.325123 0 0 14.284,-4.461 z M 7037.3569,942.6865 c 4.414,0.7369 9.879,2.8855 15.281,8.3607 a 28.528763,28.065442 53.325123 0 0 -19.748,-8.309 c 1.538,-0.097 2.27,-0.4187 4.467,-0.052 z"
       id="path91-3" /><rect
       style="fill:#ffd5d5;stroke:none;stroke-width:56.693;stroke-linecap:round;stroke-linejoin:round;stroke-dasharray:none;stroke-opacity:1;paint-order:markers stroke fill"
       id="rect118"
       width="200"
       height="1000"
       x="-7773.7637"
       y="-1000"
       transform="scale(-1)" /><path
       style="fill-opacity:0.5;stroke-width:0.999999;stroke-linecap:round;paint-order:stroke markers fill"
       d="m 7758.5236,1.39858 c -2.438,-0.3093 -3.108,-0.062 -4.392,0.038 a 28.525908,28.062633 53.325404 0 0 -27.109,28.2138 28.525908,28.062633 53.325404 0 0 8.937,20.1485 c 35.484,36.0909 57.558,100.7489 64.605,171.1662 7.069,70.6506 -0.432,146.299 -16.221,200.2072 l -0.146,0.4874 -17.727,69.7442 -0.672,2.6294 -17.734,69.759 -0.1,0.5022 c -23.124,107.28949 -127.223,302.42541 -247.633,382.73272 l -0.213,0.1403 -0.211,0.1477 c 5.173,-3.5908 10.447,-4.3434 14.681,-4.5053 a 28.525908,28.062633 53.325404 0 0 -26.844,27.8223 28.525908,28.062633 53.325404 0 0 27.702,28.0957 c 4.143,0.1451 10.736,-0.2485 16.989,-4.5645 140.853,-94.1729 243.629,-291.40994 270.707,-417.03242 l -0.233,1.0045 17.603,-69.2567 0.673,-2.6294 17.603,-69.2568 -0.265,0.975 c 18.338,-62.6043 26.055,-143.3629 18.207,-221.7959 -7.847,-78.4102 -30.697,-155.2564 -81.372,-206.426 v -0.01 c -5.436,-5.5031 -12.591,-7.8023 -16.823,-8.3386 z m -21.892,48.6725 a 28.525908,28.062633 53.325404 0 0 18.501,7.5779 c -1.052,0.01 -1.238,0.2208 -2.806,0.023 -3.951,-0.5006 -10.427,-2.7928 -15.695,-7.6001 z"
       id="path118" /><rect
       style="fill:#ffd5d5;stroke:none;stroke-width:56.693;stroke-linecap:round;stroke-linejoin:round;stroke-dasharray:none;stroke-opacity:1;paint-order:markers stroke fill"
       id="rect119"
       width="200"
       height="1000"
       x="-7973.7637"
       y="-1000"
       transform="scale(-1)" /><path
       id="path89-0"
       style="fill-opacity:0.5;stroke-width:0.999999;stroke-linecap:round;stroke-linejoin:round;paint-order:stroke markers fill"
       d="m 7914.3298,-0.01654099 0.501,0.2148 c -0.541,0.034 -1.122,-0.03 -1.564,0.023 a 28.528763,28.065442 53.325123 0 0 -25.197,17.88839999 28.528763,28.065442 53.325123 0 0 -1.725,10.9316 l 14.951,375.046811 c -4.254,-0.5782 -8.77,-0.8912 -13.602,-0.8912 -55.281,0 -111.204,45.2565 -124.912,99.1719 -13.706,53.9152 19.21,99.1697 74.49,99.1697 3.037,0 6.127,-0.2578 9.244,-0.68 l -195.963,354.59845 a 28.528763,28.065442 53.325123 0 0 -1.709,3.7089 v 0.01 a 28.528763,28.065442 53.325123 0 0 26.037,38.3173 c 0.796,0.019 1.512,10e-4 2.507,-0.053 l -1.441,0.4514 h 157.332 a 28.525908,28.062633 53.325404 0 0 27.784,-28.3627 28.525908,28.062633 53.325404 0 0 -28.67,-28.3608 h -108.938 l 229.702,-415.65815 c 5.95,-9.1786 9.296,-17.3456 9.019,-23.1392 -0.245,-5.1267 -0.634,-10.0328 -1.086,-14.834 l -17.182,-430.826411 h 128.64 a 28.525908,28.062633 53.325404 0 0 27.781,-28.3627 28.525908,28.062633 53.325404 0 0 -28.668,-28.36039999 z m -19.457,48.16229999 a 28.528763,28.065442 53.325123 0 0 19.736,8.3091 c -4.633,0.2893 -11.652,-0.1165 -19.736,-8.3091 z m -21.347,410.780611 c 23.106,0 33.735,11.3897 27.416,36.2379 -6.316,24.8483 -26.401,50.65 -49.506,50.65 -23.105,0 -37.504,-18.5987 -31.188,-43.4469 6.317,-24.8483 30.173,-43.441 53.278,-43.441 z m -199.999,482.71904 a 28.528763,28.065442 53.325123 0 0 -14.317,4.4595 c 4.876,-3.3842 10.046,-4.2193 14.317,-4.4595 z" /><rect
       style="fill:#ffd5d5;stroke:none;stroke-width:56.693;stroke-linecap:round;stroke-linejoin:round;stroke-dasharray:none;stroke-opacity:1;paint-order:markers stroke fill"
       id="rect120"
       width="200"
       height="1000"
       x="7973.7637"
       y="-4.61936e-07" /><path
       id="path120"
       style="fill-opacity:0.5;stroke-width:0.999999;stroke-linecap:round;stroke-linejoin:round;paint-order:stroke markers fill"
       d="m 8033.1978,1000.0165 -0.501,-0.21476 c 0.541,-0.034 1.122,0.03 1.564,-0.023 a 28.528763,28.065442 53.325123 0 0 25.197,-17.8884 28.528763,28.065442 53.325123 0 0 1.725,-10.9316 l -14.951,-375.04681 c 4.254,0.5782 8.77,0.8912 13.602,0.8912 55.281,0 111.204,-45.2565 124.912,-99.1719 13.706,-53.9152 -19.21,-99.1697 -74.49,-99.1697 -3.037,0 -6.127,0.2578 -9.244,0.68 l 195.963,-354.59845 a 28.528763,28.065442 53.325123 0 0 1.709,-3.7089 v -0.01 a 28.528763,28.065442 53.325123 0 0 -26.037,-38.3173005 c -0.796,-0.019 -1.512,-0.001 -2.507,0.053 l 1.441,-0.4514 h -157.332 a 28.525908,28.062633 53.325404 0 0 -27.784,28.3627005 28.525908,28.062633 53.325404 0 0 28.67,28.3608 h 108.938 l -229.702,415.65815 c -5.95,9.1786 -9.296,17.3456 -9.019,23.1392 0.245,5.1267 0.634,10.0328 1.086,14.834 l 17.182,430.82641 h -128.64 a 28.525908,28.062633 53.325404 0 0 -27.781,28.3627 28.525908,28.062633 53.325404 0 0 28.668,28.36036 z m 19.457,-48.16226 a 28.528763,28.065442 53.325123 0 0 -19.736,-8.3091 c 4.633,-0.2893 11.652,0.1165 19.736,8.3091 z m 21.347,-410.78061 c -23.106,0 -33.735,-11.3897 -27.416,-36.2379 6.316,-24.8483 26.401,-50.65 49.506,-50.65 23.105,0 37.504,18.5987 31.188,43.4469 -6.317,24.8483 -30.173,43.441 -53.278,43.441 z m 199.999,-482.71904 a 28.528763,28.065442 53.325123 0 0 14.317,-4.4595 c -4.876,3.3842 -10.046,4.2193 -14.317,4.4595 z" /><rect
       style="fill:#ffd5d5;stroke:none;stroke-width:56.693;stroke-linecap:round;stroke-linejoin:round;stroke-dasharray:none;stroke-opacity:1;paint-order:markers stroke fill"
       id="rect123"
       width="200"
       height="1000"
       x="8973.7637"
       y="-2.4091893e-11" /><path
       style="fill:#000000;stroke:#000000;stroke-width:56.6929;stroke-linecap:round;stroke-linejoin:round;stroke-opacity:0.5;paint-order:fill markers stroke"
       d="m 9107.1121,656.52449 -66.6969,115.52243"
       id="path4258" /><circle
       style="fill:#000000;fill-opacity:0.5;stroke:none;stroke-width:56.6925;stroke-linecap:round;stroke-linejoin:round;stroke-opacity:0.5;paint-order:fill markers stroke"
       id="path391"
       cx="9273.7637"
       cy="673.03571"
       r="41.249996" /></g></svg>
