<?xml version="1.0" encoding="UTF-8" standalone="no"?>
<!-- Created with Inkscape (http://www.inkscape.org/) -->

<svg
   width="400"
   height="1000"
   viewBox="0 0 105.83333 264.58333"
   version="1.1"
   id="svg5"
   sodipodi:docname="draft.svg"
   inkscape:version="1.4-beta2 (9aaf4f3498, 2024-07-30)"
   xmlns:inkscape="http://www.inkscape.org/namespaces/inkscape"
   xmlns:sodipodi="http://sodipodi.sourceforge.net/DTD/sodipodi-0.dtd"
   xmlns="http://www.w3.org/2000/svg"
   xmlns:svg="http://www.w3.org/2000/svg">
  <sodipodi:namedview
     id="namedview425"
     pagecolor="#ffffff"
     bordercolor="#000000"
     borderopacity="0.25"
     inkscape:showpageshadow="2"
     inkscape:pageopacity="0.0"
     inkscape:pagecheckerboard="0"
     inkscape:deskcolor="#d1d1d1"
     showgrid="false"
     inkscape:zoom="0.236"
     inkscape:cx="-13576.271"
     inkscape:cy="256.35593"
     inkscape:window-width="1920"
     inkscape:window-height="1009"
     inkscape:window-x="-8"
     inkscape:window-y="-8"
     inkscape:window-maximized="1"
     inkscape:current-layer="svg5"
     showguides="true">
    <sodipodi:guide
       position="242.72157,66.145831"
       orientation="0,1"
       id="guide839"
       inkscape:locked="false"
       inkscape:label=""
       inkscape:color="rgb(0,134,229)" />
    <sodipodi:guide
       position="210.47475,198.7852"
       orientation="0,1"
       id="guide841"
       inkscape:locked="false"
       inkscape:label=""
       inkscape:color="rgb(0,134,229)" />
    <sodipodi:guide
       position="132.29166,264.58333"
       orientation="0,-1"
       id="guide848"
       inkscape:locked="false" />
    <sodipodi:guide
       position="16.64772,0"
       orientation="0,-1"
       id="guide850"
       inkscape:locked="false" />
    <sodipodi:guide
       position="2483.3019,132.98706"
       orientation="0,1"
       id="guide7"
       inkscape:locked="false"
       inkscape:label=""
       inkscape:color="rgb(0,134,229)" />
    <sodipodi:guide
       position="2995.2611,192.17071"
       orientation="0.70710678,-0.70710678"
       id="guide1"
       inkscape:locked="false"
       inkscape:label=""
       inkscape:color="rgb(0,134,229)" />
    <sodipodi:guide
       position="2995.2611,192.17071"
       orientation="0,-1"
       id="guide15"
       inkscape:locked="false" />
  </sodipodi:namedview>
  <defs
     id="defs2" />
  <path
     style="fill:none;stroke:#4d4d4d;stroke-width:13.2292;stroke-linecap:round;stroke-linejoin:round;stroke-dasharray:none;paint-order:markers stroke fill"
     d="m -4014.1725,118.44034 c 0,0 119.7607,-112.652698 61.6404,-112.652698 -22.0867,0 -69.3319,127.971218 -76.6012,148.613018 -8.8543,25.14225 -2.402,36.80195 13.8373,36.80195 44.4445,0 55.9696,-36.02596 48.4862,-82.00538 -1.0601,-6.51325 14.0678,43.0337 34.1235,22.5798"
     id="path3"
     sodipodi:nodetypes="cssssc" />
  <path
     style="fill:none;stroke:#4d4d4d;stroke-width:13.2292;stroke-linecap:round;stroke-linejoin:round;stroke-dasharray:none;stroke-opacity:1;paint-order:markers stroke fill"
     d="m -3898.4673,133.62835 c -31.7616,-24.56373 -2.2647,-93.516326 44.7868,-120.677512 3.6114,-2.084768 49.8812,-26.835996 18.6109,29.381714 -8.4695,24.854087 -160.6016,218.883678 -93.0987,215.450648 68.3734,-17.15229 53.9145,-95.59683 56.5086,-130.56607 0.2848,-3.83909 1.4535,8.83759 16.2092,5.07453"
     id="path6"
     sodipodi:nodetypes="cssssc" />
  <path
     style="fill:none;stroke:#4d4d4d;stroke-width:13.2292;stroke-linecap:round;stroke-linejoin:round;stroke-dasharray:none;stroke-opacity:1;paint-order:markers stroke fill"
     d="m -2385.3808,72.954356 -40.2546,118.485254 102.0146,-118.485254"
     id="path7"
     sodipodi:nodetypes="ccc" />
  <path
     style="fill:none;stroke:#4d4d4d;stroke-width:13.2292;stroke-linecap:round;stroke-linejoin:round;stroke-dasharray:none;stroke-opacity:1;paint-order:fill markers stroke"
     d="m -4185.4287,132.08274 c 0,0 62.064,-65.262277 75.9805,-58.93525 13.9166,6.327027 -49.636,130.23335 -61.5176,117.87049 -11.8817,-12.36286 -4.297,-33.5113 41.5194,-54.04034"
     id="path4"
     sodipodi:nodetypes="cssc" />
  <path
     style="fill:none;stroke:#4d4d4d;stroke-width:13.2292;stroke-linecap:round;stroke-linejoin:round;stroke-dasharray:none;stroke-opacity:1;paint-order:fill markers stroke"
     d="m -4042.2992,132.55216 c 0,0 -62.064,65.26227 -75.9805,58.93525 -13.9166,-6.32703 48.9431,-129.869464 61.5177,-117.8705 10.3207,9.848403 18.9514,38.03137 -72.6844,63.36073"
     id="path5"
     sodipodi:nodetypes="cssc" />
  <path
     style="fill:none;stroke:#4d4d4d;stroke-width:13.2292;stroke-linecap:round;stroke-linejoin:round;stroke-dasharray:none;stroke-opacity:1;paint-order:fill markers stroke"
     d="m -2101.2623,131.59627 c -0.012,0.006 -39.8337,40.68092 -41.3436,-18.681 -0.378,-14.858018 4.1489,-39.966738 23.5142,-39.966738 27.6642,0 2.6865,88.166868 -39.9774,115.224678 -11.8324,7.50426 -60.635,9.8585 2.0625,-56.57694"
     id="path5-3"
     sodipodi:nodetypes="csssc" />
  <path
     style="fill:none;stroke:#4d4d4d;stroke-width:13.2292;stroke-linecap:round;stroke-linejoin:round;stroke-dasharray:none;stroke-opacity:1;paint-order:fill markers stroke"
     d="m -3474.8696,131.59627 c 19.9605,-20.43895 93.9902,-102.087046 109.7665,-49.149961 9.0732,30.444961 -43.6642,63.724461 -43.6642,63.724461 57.0438,66.84123 -26.3598,118.41256 -52.0332,111.53339 -15.5566,-4.16838 -19.5371,-25.07263 126.9794,-126.10789"
     id="path8"
     sodipodi:nodetypes="cscsc" />
  <path
     style="fill:none;stroke:#4d4d4d;stroke-width:13.2292;stroke-linecap:round;stroke-linejoin:round;stroke-dasharray:none;stroke-opacity:1;paint-order:fill markers stroke"
     d="m -3290.9598,111.26141 c 0,0 24.4682,-32.952864 48.5546,-34.364802 24.0865,-1.411938 22.8347,18.623443 12.5235,54.699662 -29.3298,102.61707 -66.6976,52.84856 -75.4529,40.16486"
     id="path10"
     sodipodi:nodetypes="cssc" />
  <path
     style="fill:none;stroke:#4d4d4d;stroke-width:13.2293;stroke-linecap:round;stroke-linejoin:round;stroke-dasharray:none;stroke-opacity:1;paint-order:markers stroke fill"
     d="m -3276.1257,72.35364 -47.0261,118.48525"
     id="path16"
     sodipodi:nodetypes="cc" />
  <path
     style="fill:none;stroke:#4d4d4d;stroke-width:13.2292;stroke-linecap:round;stroke-linejoin:round;stroke-dasharray:none;stroke-opacity:1;paint-order:fill markers stroke"
     d="m -3265.0132,193.32014 c 0,0 8.2437,-3.5556 66.412,-61.72387"
     id="path11"
     sodipodi:nodetypes="cc" />
  <path
     style="fill:none;stroke:#4d4d4d;stroke-width:13.2292;stroke-linecap:round;stroke-linejoin:round;stroke-dasharray:none;stroke-opacity:1;paint-order:fill markers stroke"
     d="m -2775.6716,108.57917 c 0,0 23.0463,-34.14213 44.8552,-35.605025 51.9721,-3.486169 -12.4697,101.288225 -7.9137,115.751495 3.6476,11.57964 37.1734,-18.88097 73.6552,-57.12937"
     id="path13"
     sodipodi:nodetypes="cssc" />
  <path
     style="fill:none;stroke:#4d4d4d;stroke-width:13.2292;stroke-linecap:round;stroke-linejoin:round;stroke-dasharray:none;stroke-opacity:1;paint-order:fill markers stroke"
     d="M -2764.5171,71.772736 -2803.2304,191.4198"
     id="path14"
     sodipodi:nodetypes="cc" />
  <path
     style="fill:none;stroke:#4d4d4d;stroke-width:13.2292;stroke-linecap:round;stroke-linejoin:round;stroke-dasharray:none;stroke-opacity:1;paint-order:fill markers stroke"
     d="m -2573.8942,151.82469 c 0,0 -29.126,40.31261 -48.6927,39.73364 -44.1351,-1.30593 16.6956,-119.145706 16.6956,-119.145706"
     id="path17"
     sodipodi:nodetypes="csc" />
  <path
     style="fill:none;stroke:#4d4d4d;stroke-width:13.2292;stroke-linecap:round;stroke-linejoin:round;stroke-dasharray:none;stroke-opacity:1;paint-order:fill markers stroke"
     d="m -2901.9395,151.82469 c 0,0 -24.8881,40.31261 -40.9537,39.73364 -36.2378,-1.30593 16.538,-119.145709 16.538,-119.145709"
     id="path24"
     sodipodi:nodetypes="csc" />
  <path
     style="fill:none;stroke:#4d4d4d;stroke-width:13.2292;stroke-linecap:round;stroke-linejoin:round;stroke-dasharray:none;stroke-opacity:1;paint-order:fill markers stroke"
     d="m -2872.319,72.148127 c -12.5377,35.584013 -40.5392,106.745593 -38.3459,116.577513 2.5833,11.57964 14.6416,-2.1711 69.5999,-57.12937"
     id="path25"
     sodipodi:nodetypes="csc" />
  <path
     style="fill:none;stroke:#4d4d4d;stroke-width:13.2292;stroke-linecap:round;stroke-linejoin:round;stroke-dasharray:none;stroke-opacity:1;paint-order:fill markers stroke"
     d="m -2947.1925,128.07339 c 0,0 -30.9967,64.06391 -47.0623,63.48494 -36.2377,-1.30593 16.538,-119.145709 16.538,-119.145709"
     id="path26"
     sodipodi:nodetypes="csc" />
  <path
     style="fill:none;stroke:#4d4d4d;stroke-width:13.2292;stroke-linecap:round;stroke-linejoin:round;stroke-dasharray:none;stroke-opacity:1;paint-order:fill markers stroke"
     d="m -2157.0066,131.59627 c 0,0 -56.6201,59.96206 -70.6774,59.96206 -30.5076,0 43.6651,-119.145709 43.6651,-119.145709"
     id="path28"
     sodipodi:nodetypes="csc" />
  <path
     style="fill:none;stroke:#4d4d4d;stroke-width:13.2292;stroke-linecap:round;stroke-linejoin:round;stroke-dasharray:none;stroke-opacity:1;paint-order:fill markers stroke"
     d="m -3663.4224,131.59627 c 21.1743,-26.33497 81.4892,-91.088771 116.6693,-48.497077 15.028,28.090997 -47.4265,48.497077 -47.4265,48.497077 0,0 45.5697,0 28.5144,29.57502 -14.0046,24.28483 -36.1315,33.43018 -55.3868,33.43018 -14.2414,0 -22.0855,-13.01118 -22.0855,-13.01118"
     id="path29"
     sodipodi:nodetypes="cscssc" />
  <path
     style="fill:none;stroke:#4d4d4d;stroke-width:13.2293;stroke-linecap:round;stroke-linejoin:round;stroke-dasharray:none;stroke-opacity:1;paint-order:fill markers stroke"
     d="m -1837.5444,133.49643 c -54.0197,64.94107 -123.8351,80.14102 -103.1962,22.64372 11.0471,-30.77609 34.3561,-76.219335 62.5709,-83.671277 26.2269,-6.926928 45.903,21.118787 9.2546,37.914347 -18.9041,8.66359 -34.386,13.01771 -59.3532,21.40171"
     id="path30"
     sodipodi:nodetypes="csssc" />
  <path
     style="fill:none;stroke:#4d4d4d;stroke-width:13.2293;stroke-linecap:round;stroke-linejoin:round;stroke-dasharray:none;stroke-opacity:1;paint-order:fill markers stroke"
     d="m -1710.7492,133.49643 c -54.0198,64.94107 -123.8352,80.14102 -103.1963,22.64372 11.0471,-30.77609 33.2185,-74.896043 62.571,-83.671277 2.7008,-0.807453 19.6014,-0.836797 22.4696,18.884252"
     id="path31"
     sodipodi:nodetypes="cssc" />
  <path
     style="fill:none;stroke:#4d4d4d;stroke-width:13.2292;stroke-linecap:round;stroke-linejoin:round;stroke-dasharray:none;stroke-opacity:1;paint-order:fill markers stroke"
     d="m -1675.146,131.59627 c 17.4799,-19.0207 79.401,-84.837154 93.8107,-48.497077 7.6897,23.666397 -15.1464,105.900467 -66.9411,108.856447 -14.5577,0 -35.6137,-19.76821 62.5937,-59.77719"
     id="path32"
     sodipodi:nodetypes="ccsc" />
  <path
     style="fill:none;stroke:#4d4d4d;stroke-width:13.2292;stroke-linecap:round;stroke-linejoin:round;stroke-dasharray:none;stroke-opacity:1;paint-order:fill markers stroke"
     d="m -1307.6001,132.08274 c 0,0 62.064,-65.262277 75.9805,-58.93525 13.9166,6.327027 -49.636,130.2333 -61.5176,117.87049 -19.9497,-20.75762 18.758,-61.20085 84.0999,-65.29138"
     id="path33"
     sodipodi:nodetypes="cssc" />
  <path
     style="fill:none;stroke:#4d4d4d;stroke-width:13.2292;stroke-linecap:round;stroke-linejoin:round;stroke-dasharray:none;stroke-opacity:1;paint-order:fill markers stroke"
     d="m -962.56182,132.55216 c 0,0 -62.06418,65.26227 -75.98078,58.93525 -13.9167,-6.32703 42.95248,-117.8705 61.51798,-117.8705 7.4948,0 15.6916,3.529513 13.5958,19.321897"
     id="path37"
     sodipodi:nodetypes="cssc" />
  <path
     style="fill:none;stroke:#4d4d4d;stroke-width:13.2292;stroke-linecap:round;stroke-linejoin:round;stroke-dasharray:none;stroke-opacity:1;paint-order:fill markers stroke"
     d="m -1116.1935,132.08274 c 0,0 62.0643,-65.262277 75.9809,-58.93525 13.9167,6.327027 -49.6363,130.2333 -61.518,117.87049 -19.9498,-20.75762 18.7581,-61.20085 84.1002,-65.29138"
     id="path38"
     sodipodi:nodetypes="cssc" />
  <path
     style="fill:none;stroke:#4d4d4d;stroke-width:13.2292;stroke-linecap:round;stroke-linejoin:round;stroke-dasharray:none;stroke-opacity:1;paint-order:fill markers stroke"
     d="m -1512.4868,191.61147 c 0,0 30.366,6.95877 88.8736,-59.45797"
     id="path39"
     sodipodi:nodetypes="cc" />
  <path
     style="fill:none;stroke:#4d4d4d;stroke-width:13.2292;stroke-linecap:round;stroke-linejoin:round;stroke-dasharray:none;stroke-opacity:1;paint-order:fill markers stroke"
     d="m -1544.9667,131.59627 c 17.4799,-19.0207 79.4009,-84.837154 93.8106,-48.497077 7.6898,23.666397 -15.4757,108.856447 -66.941,108.856447 -6.0188,0 -12.4957,-6.17321 -15.2926,-10.24893"
     id="path40"
     sodipodi:nodetypes="ccsc" />
  <path
     style="fill:none;stroke:#4d4d4d;stroke-width:13.2292;stroke-linecap:round;stroke-linejoin:round;stroke-dasharray:none;paint-order:markers stroke fill"
     d="m -826.76282,132.79242 c 0,0 126.7104,-127.004778 68.5901,-127.004778 -22.0866,0 -69.3319,127.971218 -76.6013,148.613018 -8.8543,25.14225 -2.402,36.80195 13.8373,36.80195 26.9937,0 58.7655,-42.15884 71.5157,-58.41019"
     id="path41"
     sodipodi:nodetypes="csssc" />
  <path
     style="fill:none;stroke:#4d4d4d;stroke-width:13.2293;stroke-linecap:round;stroke-linejoin:round;stroke-dasharray:none;stroke-opacity:1;paint-order:markers stroke fill"
     d="m -4316.1636,73.822006 -39.0886,118.485254"
     id="path42"
     sodipodi:nodetypes="cc" />
  <path
     style="fill:none;stroke:#4d4d4d;stroke-width:13.2293;stroke-linecap:round;stroke-linejoin:round;stroke-dasharray:none;stroke-opacity:1;paint-order:fill markers stroke"
     d="m -4306.2699,133.06596 c 34.2676,-17.63914 51.4828,8.64666 41.2905,26.64813 -29.5262,52.14883 -59.782,27.86756 -70.4251,21.14649"
     id="path43"
     sodipodi:nodetypes="csc" />
  <path
     style="fill:none;stroke:#4d4d4d;stroke-width:13.2293;stroke-linecap:round;stroke-linejoin:round;stroke-dasharray:none;stroke-opacity:1;paint-order:fill markers stroke"
     d="m -4305.1163,192.18121 c 0,0 28.145,6.81128 77.8763,-59.93184"
     id="path44"
     sodipodi:nodetypes="cc" />
  <path
     style="fill:none;stroke:#4d4d4d;stroke-width:13.2293;stroke-linecap:round;stroke-linejoin:round;stroke-dasharray:none;stroke-opacity:1;paint-order:fill markers stroke"
     d="m -4322.2113,92.153837 c 20.1089,-24.943771 58.0544,-27.156558 65.4831,-6.812437 7.1738,19.64614 -26.616,35.36205 -49.5417,47.72456"
     id="path45"
     sodipodi:nodetypes="csc" />
  <path
     style="fill:none;stroke:#4d4d4d;stroke-width:13.2292;stroke-linecap:round;stroke-linejoin:round;stroke-dasharray:none;stroke-opacity:1;paint-order:fill markers stroke"
     d="m -492.27462,73.067636 c -35.1421,-5.511899 -71.8716,62.377634 -63.7455,96.013084 6.6423,27.49388 38.4674,32.92031 59.3226,0.36176 20.8552,-32.55854 32.2411,-88.13853 4.4229,-96.374844 z"
     id="path48"
     sodipodi:nodetypes="cssc" />
  <path
     style="fill:none;stroke:#4d4d4d;stroke-width:13.2292;stroke-linecap:round;stroke-linejoin:round;stroke-dasharray:none;paint-order:markers stroke fill"
     d="m -476.11732,109.01647 c -0.1273,-6.51325 2.3462,41.63231 25.3655,22.5798"
     id="path49"
     sodipodi:nodetypes="cc" />
  <path
     style="fill:none;stroke:#4d4d4d;stroke-width:13.2292;stroke-linecap:round;stroke-linejoin:round;stroke-dasharray:none;paint-order:markers stroke fill"
     d="m -408.45212,132.79242 c 0,0 126.71053,-127.004778 68.5901,-127.004778 -22.0866,0 -69.3319,127.971218 -76.6013,148.613018 -8.8543,25.14225 -2.402,36.80195 13.8373,36.80195 26.9937,0 58.7655,-42.15884 71.5157,-58.41019"
     id="path50"
     sodipodi:nodetypes="csssc" />
  <path
     style="fill:none;stroke:#4d4d4d;stroke-width:13.2292;stroke-linecap:round;stroke-linejoin:round;stroke-dasharray:none;stroke-opacity:1;paint-order:fill markers stroke"
     d="m -408.99452,34.880939 c 0,0 -9.8891,74.518371 44.9248,96.715331"
     id="path51"
     sodipodi:nodetypes="cc" />
  <path
     style="fill:none;stroke:#4d4d4d;stroke-width:13.2292;stroke-linecap:round;stroke-linejoin:round;stroke-dasharray:none;stroke-opacity:1;paint-order:fill markers stroke"
     d="m -2425.6343,228.39102 c 0,0 7.7885,10.14314 21.8695,10.52442 14.081,0.38128 41.154,-13.49723 41.154,-13.49723"
     id="path53"
     sodipodi:nodetypes="czc" />
  <path
     style="fill:none;stroke:#4d4d4d;stroke-width:13.2292;stroke-linecap:round;stroke-linejoin:round;stroke-dasharray:none;paint-order:markers stroke fill"
     d="m -289.0086,132.79242 c 0,0 126.71048,-127.004778 68.59014,-127.004778 -22.08661,0 -69.33194,127.971218 -76.60138,148.613018 -8.85435,25.14225 -2.40201,36.80195 13.83735,36.80195 26.99371,0 58.76553,-42.15884 71.51574,-58.41019"
     id="path55"
     sodipodi:nodetypes="csssc" />
  <path
     style="fill:none;stroke:#4d4d4d;stroke-width:13.2292;stroke-linecap:round;stroke-linejoin:round;stroke-dasharray:none;stroke-opacity:1;paint-order:fill markers stroke"
     d="m -214.49325,83.53198 c 0,0 -59.61464,45.79158 -106.22547,9.394982"
     id="path56"
     sodipodi:nodetypes="cc" />
  <path
     style="fill:none;stroke:#4d4d4d;stroke-width:13.2292;stroke-linecap:round;stroke-linejoin:round;stroke-dasharray:none;stroke-opacity:1;paint-order:fill markers stroke"
     d="m -4659.4872,192.0875 c 0,0 52.8914,-113.726313 73.762,-119.393634 24.359,-6.6146 30.9395,20.264423 -10.7537,121.510294 -33.5054,15.22977 -115.1736,58.35285 -112.8154,63.69328 55.2669,-41.4879 48.1554,29.71356 115.748,-15.78594"
     id="path22"
     sodipodi:nodetypes="cscsc" />
  <path
     style="fill:none;stroke:#4d4d4d;stroke-width:13.2292;stroke-linecap:round;stroke-linejoin:round;stroke-dasharray:none;stroke-opacity:1;paint-order:fill markers stroke"
     d="m -4455.3215,47.544995 59.4523,-29.046584"
     id="path57" />
  <path
     style="fill:none;stroke:#4d4d4d;stroke-width:13.2292;stroke-linecap:round;stroke-linejoin:round;stroke-dasharray:none;stroke-opacity:1;paint-order:fill markers stroke"
     d="m -4443.5497,194.20416 c -33.5054,15.22977 -115.1737,58.35285 -112.8154,63.69328 55.2668,-41.4879 48.1554,29.71356 115.748,-15.78594"
     id="path58"
     sodipodi:nodetypes="csc" />
  <path
     style="fill:none;stroke:#4d4d4d;stroke-width:13.2292;stroke-linecap:round;stroke-linejoin:round;stroke-dasharray:none;stroke-opacity:1;paint-order:fill markers stroke"
     d="m -4692.5293,131.59627 c 0,0 50.2378,-58.902404 64.8803,-58.902404 24.9345,0 -13.7166,84.750274 -31.8382,119.393634"
     id="path59"
     sodipodi:nodetypes="csc" />
  <path
     style="fill:none;stroke:#4d4d4d;stroke-width:13.2292;stroke-linecap:round;stroke-linejoin:round;stroke-dasharray:none;stroke-opacity:1;paint-order:fill markers stroke"
     d="m -4505.7547,131.59627 c 0,0 38.2791,-58.622125 69.9858,-58.622125 51.6273,0 6.9814,94.989765 -7.7808,121.230015"
     id="path60"
     sodipodi:nodetypes="csc" />
  <path
     style="fill:none;stroke:#4d4d4d;stroke-width:13.2292;stroke-linecap:round;stroke-linejoin:round;stroke-dasharray:none;stroke-opacity:1;paint-order:fill markers stroke"
     d="m -4455.3215,47.544995 59.4523,-29.046584"
     id="path61" />
  <path
     style="fill:none;stroke:#4d4d4d;stroke-width:13.2292;stroke-linecap:round;stroke-linejoin:round;stroke-dasharray:none;stroke-opacity:1;paint-order:fill markers stroke"
     d="m -4443.5497,194.20416 c -33.5054,15.22977 -115.1737,58.35285 -112.8154,63.69328 55.2668,-41.4879 48.1554,29.71356 115.748,-15.78594"
     id="path62"
     sodipodi:nodetypes="csc" />
  <path
     style="fill:none;stroke:#4d4d4d;stroke-width:13.2292;stroke-linecap:round;stroke-linejoin:round;stroke-dasharray:none;stroke-opacity:1;paint-order:fill markers stroke"
     d="m -4625.7581,47.544995 59.4523,-29.046584"
     id="path63" />
  <path
     style="fill:none;stroke:#4d4d4d;stroke-width:13.2292;stroke-linecap:round;stroke-linejoin:round;stroke-dasharray:none;stroke-opacity:1;paint-order:fill markers stroke"
     d="m -3440.5564,47.544995 46.7615,-29.046584"
     id="path68" />
  <path
     style="fill:none;stroke:#4d4d4d;stroke-width:13.2292;stroke-linecap:round;stroke-linejoin:round;stroke-dasharray:none;stroke-opacity:1;paint-order:fill markers stroke"
     d="m -3373.2232,47.544995 -20.5717,-29.046584"
     id="path69" />
  <path
     style="fill:none;stroke:#4d4d4d;stroke-width:13.2292;stroke-linecap:round;stroke-linejoin:round;stroke-dasharray:none;stroke-opacity:1;paint-order:fill markers stroke"
     d="m -4841.2925,192.0875 c 0,0 58.2121,-113.726313 81.4882,-119.393634 27.1666,-6.6146 30.6077,18.716362 -15.1891,119.962234 -14.554,32.17535 -17.0965,71.35898 -39.2885,66.30728 -31.3427,-7.13474 11.8102,-43.44329 53.7402,-80.75894 14.8332,-13.20084 43.7452,-43.90369 46.6082,-46.60817"
     id="path70"
     sodipodi:nodetypes="cssssc" />
  <path
     style="fill:none;stroke:#4d4d4d;stroke-width:13.2292;stroke-linecap:round;stroke-linejoin:round;stroke-dasharray:none;stroke-opacity:1;paint-order:fill markers stroke"
     d="m -4871.1371,131.59627 c 0,0 48.127,-58.902404 64.4881,-58.902404 27.8613,0 -14.6652,84.750274 -34.6435,119.393634"
     id="path71"
     sodipodi:nodetypes="csc" />
  <path
     style="fill:none;stroke:#4d4d4d;stroke-width:13.2292;stroke-linecap:round;stroke-linejoin:round;stroke-dasharray:none;stroke-opacity:1;paint-order:fill markers stroke"
     d="m -4784.2257,47.544995 59.4522,-29.046584"
     id="path72" />
  <path
     style="fill:none;stroke:#4d4d4d;stroke-width:13.2292;stroke-linecap:round;stroke-linejoin:round;stroke-dasharray:none;stroke-opacity:1;paint-order:fill markers stroke"
     d="m -2536.3774,72.41262 c 0,0 -27.0801,55.20967 -37.5168,79.41207 -9.338,21.65454 -9.1521,31.94555 -8.1164,36.58837 2.5832,11.57964 14.6416,-2.1711 69.5998,-57.12937"
     id="path1"
     sodipodi:nodetypes="cssc" />
  <path
     style="fill:none;stroke:#4d4d4d;stroke-width:13.2292;stroke-linecap:round;stroke-linejoin:round;stroke-dasharray:none;stroke-opacity:1;paint-order:fill markers stroke"
     d="m -2323.6208,72.954356 c -12.5377,35.584014 -40.5392,106.745594 -38.3459,116.577514 2.5832,11.57964 14.6416,-2.1711 69.5998,-57.12937"
     id="path2"
     sodipodi:nodetypes="csc" />
  <path
     style="fill:none;stroke:#4d4d4d;stroke-width:13.2292;stroke-linecap:round;stroke-linejoin:round;stroke-dasharray:none;stroke-opacity:1;paint-order:fill markers stroke"
     d="m -1184.7382,71.835543 c -12.5382,35.584017 -40.5405,106.745597 -38.3472,116.577517 2.5832,11.57964 14.6418,-2.1711 69.6012,-57.12937"
     id="path12"
     sodipodi:nodetypes="csc" />
  <path
     style="fill:none;stroke:#4d4d4d;stroke-width:13.2292;stroke-linecap:round;stroke-linejoin:round;stroke-dasharray:none;stroke-opacity:1;paint-order:fill markers stroke"
     d="m -589.62592,72.412618 c 0,0 -29.6322,51.990782 -60.5051,120.243482 -14.554,32.17537 -17.0965,71.35898 -39.2885,66.30728 -31.3427,-7.13474 11.8102,-43.44329 53.7402,-80.75894 14.8332,-13.20084 43.7452,-43.90369 46.6082,-46.60817"
     id="path15"
     sodipodi:nodetypes="csssc" />
  <path
     style="fill:none;stroke:#4d4d4d;stroke-width:13.2292;stroke-linecap:round;stroke-linejoin:round;stroke-dasharray:none;stroke-opacity:1;paint-order:fill markers stroke"
     d="m -631.52472,151.82468 c 0,0 -29.126,40.31261 -48.6927,39.73364 -44.1351,-1.30593 16.6956,-119.145703 16.6956,-119.145703"
     id="path17-8"
     sodipodi:nodetypes="csc" />
  <path
     style="fill:none;stroke:#4d4d4d;stroke-width:13.2292;stroke-linecap:round;stroke-linejoin:round;stroke-dasharray:none;stroke-opacity:1;paint-order:fill markers stroke"
     d="m -1944.4939,228.39102 c 0,0 7.7885,10.14314 21.8695,10.52442 14.081,0.38128 41.154,-13.49723 41.154,-13.49723"
     id="path18"
     sodipodi:nodetypes="czc" />
  <path
     style="fill:none;stroke:#4d4d4d;stroke-width:13.2293;stroke-linecap:round;stroke-linejoin:round;stroke-dasharray:none;stroke-opacity:1;paint-order:fill markers stroke"
     d="m -3621.052,194.60147 c 0,0 46.7746,0.95133 105.6225,-62.81654"
     id="path9"
     sodipodi:nodetypes="cc" />
</svg>
