<svg width="400" height="1000" viewBox="0 0 105.83333 264.58333" version="1.1" id="svg5" sodipodi:docname="!.svg" inkscape:version="1.2.1 (9c6d41e410, 2022-07-14)" xmlns:inkscape="http://www.inkscape.org/namespaces/inkscape" xmlns:sodipodi="http://sodipodi.sourceforge.net/DTD/sodipodi-0.dtd" xmlns="http://www.w3.org/2000/svg" xmlns:svg="http://www.w3.org/2000/svg"><path d="M310.834 145.697 C 308.909 146.215,306.070 147.284,304.526 148.072 C 300.346 150.204,294.787 156.268,292.406 161.293 L 290.333 165.667 290.164 462.643 L 289.994 759.619 256.164 725.851 C 225.134 694.880,221.968 691.913,217.925 690.022 C 206.379 684.622,194.682 686.545,185.947 695.280 C 176.256 704.970,174.742 719.703,182.338 730.387 C 183.594 732.153,210.913 759.906,243.048 792.059 C 306.055 855.103,303.875 853.142,312.711 854.731 C 325.329 857.001,338.705 849.217,343.303 836.928 L 344.703 833.186 344.672 501.426 C 344.647 227.477,344.487 169.086,343.754 166.333 C 340.867 155.484,332.400 147.286,322.076 145.343 C 317.434 144.469,315.124 144.542,310.834 145.697 M75.000 225.601 C 64.978 228.779,57.281 237.436,55.392 247.654 C 54.880 250.424,54.670 306.992,54.677 439.956 C 54.685 601.800,54.822 628.908,55.649 632.415 C 57.905 641.980,65.188 649.905,74.540 652.973 C 80.074 654.788,87.813 654.219,93.333 651.591 C 102.113 647.412,108.056 639.034,109.359 629.000 C 109.828 625.387,109.987 563.011,109.850 435.667 C 109.660 259.139,109.577 247.467,108.489 244.390 C 105.249 235.223,98.266 228.301,89.610 225.675 C 85.661 224.477,78.657 224.442,75.000 225.601 " stroke="none" fill-rule="evenodd" fill="#000000"></path></svg>