<svg width="400" height="1000" viewBox="0 0 399.9999924409448 1000" version="1.1" id="svg5" sodipodi:docname=",.svg" inkscape:version="1.2.1 (9c6d41e410, 2022-07-14)" xmlns:inkscape="http://www.inkscape.org/namespaces/inkscape" xmlns:sodipodi="http://sodipodi.sourceforge.net/DTD/sodipodi-0.dtd" xmlns="http://www.w3.org/2000/svg" xmlns:svg="http://www.w3.org/2000/svg"><path d="M228.333 688.457 C 221.725 689.957,214.870 694.200,211.408 698.933 C 208.401 703.044,143.977 814.526,141.059 820.667 C 139.182 824.618,139.001 825.588,139.008 831.667 C 139.015 837.986,139.144 838.596,141.474 843.377 C 148.054 856.880,162.429 862.800,176.424 857.770 C 180.653 856.251,184.253 853.728,187.389 850.087 C 188.958 848.265,205.755 819.899,224.714 787.052 C 251.387 740.842,259.451 726.351,260.357 723.005 C 264.172 708.909,255.593 693.720,241.304 689.273 C 237.537 688.100,231.562 687.725,228.333 688.457 " stroke="none" fill-rule="evenodd" fill="#000000"></path></svg>