<svg width="200" height="1000" viewBox="0 0 52.916666 264.58333" version="1.1" id="svg5" sodipodi:docname=",.svg" inkscape:version="1.2.1 (9c6d41e410, 2022-07-14)" xmlns:inkscape="http://www.inkscape.org/namespaces/inkscape" xmlns:sodipodi="http://sodipodi.sourceforge.net/DTD/sodipodi-0.dtd" xmlns="http://www.w3.org/2000/svg" xmlns:svg="http://www.w3.org/2000/svg"><path d="M131.000 688.045 C 127.754 688.332,125.751 688.810,122.738 690.017 C 118.038 691.899,113.074 695.795,110.443 699.667 C 108.587 702.399,41.902 818.121,40.813 820.500 C 39.084 824.278,38.528 826.969,38.543 831.500 C 38.584 843.949,45.779 853.991,57.749 858.307 C 63.623 860.424,70.419 860.256,76.872 857.833 C 81.716 856.014,86.818 852.054,89.599 847.953 C 91.562 845.060,157.766 730.180,159.016 727.500 C 160.905 723.450,161.471 720.826,161.462 716.167 C 161.452 711.366,160.676 708.054,158.490 703.500 C 155.849 697.994,151.699 693.888,145.833 690.976 C 140.739 688.448,136.316 687.573,131.000 688.045 " stroke="none" fill-rule="evenodd" fill="#000000"></path></svg>