<svg width="400" height="1000" viewBox="0 0 399.9999924409448 1000" version="1.1" id="svg5" sodipodi:docname="1.svg" inkscape:version="1.2.1 (9c6d41e410, 2022-07-14)" xmlns:inkscape="http://www.inkscape.org/namespaces/inkscape" xmlns:sodipodi="http://sodipodi.sourceforge.net/DTD/sodipodi-0.dtd" xmlns="http://www.w3.org/2000/svg" xmlns:svg="http://www.w3.org/2000/svg"><path d="M190.443 49.600 C 181.151 53.494,175.327 59.937,172.906 69.000 C 171.580 73.966,171.580 926.034,172.906 931.000 C 175.066 939.085,180.776 945.877,188.484 949.528 C 192.675 951.513,193.504 951.667,200.000 951.667 C 206.496 951.667,207.325 951.513,211.516 949.528 C 219.224 945.877,224.934 939.085,227.094 931.000 C 228.420 926.034,228.420 73.966,227.094 69.000 C 224.934 60.915,219.224 54.123,211.516 50.472 C 207.572 48.604,206.198 48.310,200.667 48.152 C 195.200 47.995,193.801 48.193,190.443 49.600 " stroke="none" fill-rule="evenodd" fill="black"></path></svg>