<svg width="400" height="1000" viewBox="0 0 399.9999924409448 1000" version="1.1" id="svg5" sodipodi:docname="2.svg" inkscape:version="1.2.1 (9c6d41e410, 2022-07-14)" xmlns:inkscape="http://www.inkscape.org/namespaces/inkscape" xmlns:sodipodi="http://sodipodi.sourceforge.net/DTD/sodipodi-0.dtd" xmlns="http://www.w3.org/2000/svg" xmlns:svg="http://www.w3.org/2000/svg"><path d="M316.333 48.935 C 309.556 51.084,303.391 56.039,299.736 62.275 C 295.741 69.091,296.023 35.882,296.023 500.000 C 296.023 964.118,295.741 930.909,299.736 937.725 C 302.530 942.493,307.732 947.278,312.595 949.554 C 317.726 951.955,325.890 952.734,331.176 951.328 C 340.004 948.980,348.362 940.944,350.991 932.277 C 351.868 929.387,351.986 878.295,351.986 500.000 C 351.986 124.024,351.864 70.600,351.003 67.762 C 348.465 59.397,340.619 51.539,332.277 49.009 C 328.324 47.809,320.004 47.771,316.333 48.935 M70.709 166.734 C 62.473 168.152,54.200 174.618,50.423 182.590 L 48.333 187.000 48.333 438.000 L 48.333 689.000 50.472 693.516 C 56.368 705.963,69.766 712.419,82.707 709.048 C 93.127 706.334,101.343 697.403,103.336 686.625 C 103.788 684.181,103.955 600.797,103.839 435.649 L 103.667 188.333 102.143 184.565 C 96.974 171.781,84.035 164.441,70.709 166.734 " stroke="none" fill-rule="evenodd" fill="black"></path></svg>