<svg width="500" height="1000" viewBox="0 0 132.29166 264.58333" version="1.1" id="svg5" sodipodi:docname="4.svg" inkscape:version="1.2.1 (9c6d41e410, 2022-07-14)" xmlns:inkscape="http://www.inkscape.org/namespaces/inkscape" xmlns:sodipodi="http://sodipodi.sourceforge.net/DTD/sodipodi-0.dtd" xmlns="http://www.w3.org/2000/svg" xmlns:svg="http://www.w3.org/2000/svg"><path d="M384.834 48.356 C 379.648 49.231,373.109 52.874,369.443 56.932 C 363.847 63.125,362.864 66.634,359.588 92.083 C 346.631 192.732,326.734 285.539,296.521 386.250 C 285.407 423.296,265.220 484.133,263.401 486.062 C 263.067 486.417,233.946 468.849,198.688 447.022 C 163.430 425.195,132.708 406.342,130.417 405.126 C 127.108 403.372,124.837 402.856,119.389 402.623 C 113.184 402.358,112.028 402.566,107.305 404.798 C 100.583 407.975,96.220 412.319,93.139 418.904 C 88.388 429.057,90.435 441.223,98.225 449.129 C 100.957 451.902,122.520 465.655,172.083 496.238 C 210.583 519.994,242.390 539.697,242.764 540.021 C 244.050 541.136,216.820 606.866,196.859 650.833 C 156.238 740.306,106.148 832.993,62.705 899.072 C 57.466 907.040,52.617 915.103,51.928 916.988 C 50.159 921.837,50.331 930.344,52.304 935.527 C 57.073 948.056,70.648 955.869,83.167 953.289 C 93.198 951.221,97.107 947.886,107.340 932.660 C 150.283 868.771,206.108 765.714,248.905 671.324 C 262.394 641.575,280.472 599.208,287.874 580.000 C 289.552 575.646,291.246 571.760,291.639 571.365 C 292.037 570.964,318.415 586.769,351.325 607.127 C 383.759 627.190,412.198 644.334,414.523 645.223 C 420.419 647.478,429.025 646.914,435.262 643.862 C 440.305 641.395,445.642 636.108,448.250 630.997 C 453.511 620.685,450.977 606.517,442.516 598.934 C 440.357 596.999,410.367 577.979,375.871 556.667 C 341.374 535.354,312.979 517.487,312.769 516.961 C 312.559 516.436,315.373 507.623,319.023 497.378 C 359.658 383.286,391.486 258.274,408.739 145.000 C 413.184 115.811,417.500 81.542,417.500 75.428 C 417.500 62.847,408.926 52.087,396.275 48.792 C 390.893 47.390,390.627 47.380,384.834 48.356 " stroke="none" fill-rule="evenodd" fill="black"></path></svg>