<svg width="600" height="1000" viewBox="0 0 158.74999 264.58333" version="1.1" id="svg5" sodipodi:docname="6.svg" inkscape:version="1.2.1 (9c6d41e410, 2022-07-14)" xmlns:inkscape="http://www.inkscape.org/namespaces/inkscape" xmlns:sodipodi="http://sodipodi.sourceforge.net/DTD/sodipodi-0.dtd" xmlns="http://www.w3.org/2000/svg" xmlns:svg="http://www.w3.org/2000/svg"><path d="M291.372 49.212 C 286.025 50.934,278.876 57.184,275.599 63.000 L 272.500 68.500 272.238 230.232 L 271.976 391.965 165.238 392.232 L 58.500 392.500 53.362 395.210 C 32.989 405.956,32.867 433.302,53.141 444.532 L 58.500 447.500 165.242 447.768 L 271.984 448.035 272.242 689.768 L 272.500 931.500 275.599 937.000 C 282.324 948.936,295.579 954.603,308.038 950.870 C 313.877 949.121,320.950 943.125,324.401 937.000 L 327.500 931.500 327.758 689.768 L 328.016 448.035 434.758 447.768 L 541.500 447.500 545.722 445.244 C 555.560 439.987,561.074 431.970,561.813 421.848 C 562.621 410.789,557.175 401.182,546.859 395.468 L 541.500 392.500 434.762 392.232 L 328.024 391.965 327.762 230.232 L 327.500 68.500 324.401 63.000 C 320.950 56.875,313.877 50.879,308.038 49.130 C 303.531 47.779,295.700 47.818,291.372 49.212 " stroke="none" fill-rule="evenodd" fill="black"></path></svg>