<svg width="600" height="1000" viewBox="0 0 599.9999697637791 1000" version="1.1" id="svg5" sodipodi:docname="7.svg" inkscape:version="1.2.1 (9c6d41e410, 2022-07-14)" xmlns:inkscape="http://www.inkscape.org/namespaces/inkscape" xmlns:sodipodi="http://sodipodi.sourceforge.net/DTD/sodipodi-0.dtd" xmlns="http://www.w3.org/2000/svg" xmlns:svg="http://www.w3.org/2000/svg"><path d="M395.500 49.328 C 387.230 52.571,382.714 56.548,378.840 64.000 L 376.500 68.500 376.241 230.250 L 375.982 392.000 299.991 392.000 L 224.000 392.000 224.000 291.038 C 224.000 191.791,223.965 189.982,221.956 184.611 C 217.843 173.619,207.780 166.706,195.893 166.706 C 185.010 166.706,175.343 172.937,170.614 183.000 C 168.511 187.477,168.499 188.020,168.232 289.717 L 167.963 391.935 113.232 392.217 L 58.500 392.500 53.362 395.210 C 32.989 405.956,32.867 433.302,53.141 444.532 L 58.500 447.500 113.234 447.783 L 167.968 448.065 168.234 568.283 L 168.500 688.500 170.652 693.156 C 174.989 702.539,186.217 710.000,196.000 710.000 C 201.150 710.000,209.609 706.775,214.034 703.126 C 215.977 701.523,218.902 697.801,220.534 694.856 L 223.500 689.500 223.766 568.750 L 224.031 448.000 300.010 448.000 L 375.988 448.000 376.244 689.750 L 376.500 931.500 378.837 936.000 C 383.928 945.801,392.147 951.178,403.000 951.808 C 408.815 952.145,410.180 951.832,415.955 948.835 C 420.092 946.688,423.583 943.947,425.679 941.199 C 432.482 932.279,432.000 951.638,432.000 687.351 L 432.000 448.065 486.750 447.783 C 541.397 447.501,541.508 447.496,545.722 445.244 C 555.560 439.987,561.074 431.970,561.813 421.848 C 562.621 410.789,557.175 401.182,546.859 395.468 L 541.500 392.500 486.750 392.217 L 432.000 391.935 432.000 232.649 C 432.000 56.767,432.394 67.605,425.679 58.801 C 420.973 52.632,411.633 47.976,404.163 48.076 C 401.048 48.118,397.150 48.681,395.500 49.328 " stroke="none" fill-rule="evenodd" fill="black"></path></svg>