<svg width="600" height="1000" viewBox="0 0 158.74999 264.58333" version="1.1" id="svg5" sodipodi:docname="8.svg" inkscape:version="1.2.1 (9c6d41e410, 2022-07-14)" xmlns:inkscape="http://www.inkscape.org/namespaces/inkscape" xmlns:sodipodi="http://sodipodi.sourceforge.net/DTD/sodipodi-0.dtd" xmlns="http://www.w3.org/2000/svg" xmlns:svg="http://www.w3.org/2000/svg"><path d="M436.027 49.737 C 433.346 50.683,429.511 53.359,426.453 56.416 C 417.234 65.636,418.000 49.754,418.000 231.678 L 418.000 392.000 373.018 392.000 L 328.037 392.000 327.768 289.750 C 327.501 188.019,327.489 187.477,325.386 183.000 C 322.661 177.201,316.691 171.264,311.023 168.717 C 304.979 166.002,295.029 166.000,288.977 168.713 C 282.776 171.492,276.401 178.313,273.997 184.738 C 272.049 189.943,272.000 192.577,272.000 291.038 L 272.000 392.000 227.018 392.000 L 182.037 392.000 181.768 289.250 L 181.500 186.500 179.243 182.277 C 176.156 176.500,170.586 171.152,165.089 168.689 C 159.510 166.189,149.246 165.997,143.810 168.290 C 138.576 170.499,131.496 177.358,128.800 182.831 L 126.500 187.500 126.227 289.701 L 125.954 391.901 92.227 392.201 L 58.500 392.500 53.362 395.210 C 32.989 405.956,32.867 433.302,53.141 444.532 L 58.500 447.500 92.235 447.799 L 125.971 448.099 126.235 612.299 L 126.500 776.500 128.767 781.100 C 133.824 791.364,143.211 797.426,153.991 797.390 C 164.881 797.353,173.872 791.775,179.243 781.723 L 181.500 777.500 181.762 612.750 L 182.023 448.000 227.012 448.000 L 272.000 448.000 272.000 610.962 C 272.000 771.390,272.031 774.008,273.997 779.262 C 278.090 790.201,288.382 797.368,300.000 797.368 C 311.618 797.368,321.910 790.201,326.003 779.262 C 327.969 774.008,328.000 771.390,328.000 610.962 L 328.000 448.000 373.000 448.000 L 418.000 448.000 418.000 688.322 C 418.000 960.462,417.134 934.265,426.435 943.565 C 440.712 957.842,463.205 953.264,471.764 934.338 C 473.394 930.734,473.516 915.797,473.760 689.299 L 474.020 448.099 507.760 447.799 C 540.572 447.508,541.616 447.438,545.722 445.244 C 555.560 439.987,561.074 431.970,561.813 421.848 C 562.621 410.789,557.175 401.182,546.859 395.468 L 541.500 392.500 507.765 392.201 L 474.030 391.901 473.765 230.701 C 473.518 80.154,473.385 69.246,471.764 65.662 C 466.985 55.094,456.527 47.932,446.090 48.079 C 443.016 48.122,438.487 48.868,436.027 49.737 " stroke="none" fill-rule="evenodd" fill="black"></path></svg>