<svg width="400" height="1000" viewBox="0 0 399.9999924409448 1000" version="1.1" id="svg5" sodipodi:docname="a.svg" inkscape:version="1.2.1 (9c6d41e410, 2022-07-14)" xmlns:inkscape="http://www.inkscape.org/namespaces/inkscape" xmlns:sodipodi="http://sodipodi.sourceforge.net/DTD/sodipodi-0.dtd" xmlns="http://www.w3.org/2000/svg" xmlns:svg="http://www.w3.org/2000/svg"><path d="M72.739 150.721 C 61.761 152.877,52.743 162.128,50.666 173.364 C 50.216 175.799,50.049 285.112,50.163 502.339 L 50.333 827.667 51.889 831.522 C 54.826 838.797,61.192 845.173,68.438 848.095 L 72.333 849.667 129.333 849.869 C 188.685 850.080,196.378 849.830,208.988 847.277 C 244.018 840.185,277.192 815.770,301.759 779.000 C 323.129 747.017,338.999 703.357,345.621 658.333 C 348.481 638.891,348.938 631.443,348.938 604.333 C 348.938 577.216,348.477 569.709,345.618 550.333 C 340.666 516.765,329.868 481.634,316.019 454.038 C 292.718 407.605,256.461 374.247,217.333 363.242 C 202.874 359.176,202.897 359.177,152.833 358.861 L 106.667 358.570 106.667 282.618 L 106.667 206.667 207.167 206.653 C 264.092 206.646,309.489 206.376,311.871 206.032 C 321.178 204.686,329.588 198.495,333.594 190.041 C 335.522 185.971,335.667 185.156,335.667 178.333 C 335.667 171.506,335.524 170.701,333.597 166.667 C 329.492 158.070,320.904 151.836,311.495 150.623 C 305.662 149.871,76.589 149.965,72.739 150.721 M204.584 417.844 C 208.022 419.039,212.972 421.134,215.584 422.501 C 226.297 428.107,240.492 440.802,249.797 453.098 C 271.484 481.755,286.391 523.762,291.756 571.333 C 293.400 585.918,293.400 622.748,291.756 637.333 C 287.035 679.199,274.339 718.477,256.858 745.304 C 243.692 765.508,226.346 781.783,211.189 788.151 C 199.042 793.254,202.818 792.933,152.167 793.172 L 106.667 793.386 106.667 604.334 L 106.667 415.281 152.500 415.477 L 198.333 415.673 204.584 417.844 " stroke="none" fill-rule="evenodd" fill="black"></path></svg>