<svg width="400" height="1000" viewBox="0 0 399.9999924409448 1000" version="1.1" id="svg5" sodipodi:docname="a.svg" inkscape:version="1.2.1 (9c6d41e410, 2022-07-14)" xmlns:inkscape="http://www.inkscape.org/namespaces/inkscape" xmlns:sodipodi="http://sodipodi.sourceforge.net/DTD/sodipodi-0.dtd" xmlns="http://www.w3.org/2000/svg" xmlns:svg="http://www.w3.org/2000/svg"><path d="M48.862 250.757 C 40.454 251.783,31.688 258.384,27.735 266.667 L 25.667 271.000 25.667 500.000 L 25.667 729.000 27.724 733.333 C 30.998 740.227,37.393 745.997,44.571 748.534 C 47.345 749.514,54.689 749.652,115.333 749.860 C 186.028 750.103,198.422 749.783,214.942 747.294 C 247.884 742.329,279.837 728.510,307.333 707.337 C 316.041 700.632,331.826 684.574,338.794 675.333 C 356.237 652.202,367.121 627.775,371.917 601.000 C 375.090 583.283,375.129 561.531,372.020 543.476 C 364.096 497.468,335.556 454.518,295.000 427.572 C 265.887 408.228,233.251 397.166,198.000 394.692 C 192.682 394.318,164.265 394.010,134.833 394.007 L 81.333 394.000 81.333 350.333 L 81.333 306.667 206.576 306.667 C 287.917 306.667,333.060 306.431,335.360 305.995 C 346.804 303.825,355.954 294.639,358.061 283.207 C 360.288 271.118,353.622 258.560,342.074 253.088 L 337.667 251.000 285.000 250.834 C 148.488 250.403,52.019 250.372,48.862 250.757 M189.667 450.655 C 213.183 451.745,230.543 456.147,249.602 465.851 C 282.197 482.447,304.639 508.946,314.282 542.222 C 319.032 558.613,319.332 582.614,314.997 599.346 C 311.804 611.667,304.554 627.071,296.813 637.981 C 291.446 645.546,279.925 657.654,272.569 663.461 C 258.247 674.766,239.462 684.057,221.567 688.686 C 204.751 693.036,207.432 692.886,141.500 693.154 L 81.333 693.399 81.333 572.144 C 81.333 505.454,81.533 450.689,81.778 450.444 C 82.453 449.770,174.448 449.949,189.667 450.655 " stroke="none" fill-rule="evenodd" fill="black"></path></svg>