<svg width="400" height="1000" viewBox="0 0 399.9999924409448 1000" version="1.1" id="svg5" xmlns="http://www.w3.org/2000/svg" xmlns:svg="http://www.w3.org/2000/svg"><path d="M195.667 0.777 C 186.874 1.973,178.652 8.328,174.468 17.161 L 172.333 21.667 172.157 137.484 L 171.982 253.301 168.157 254.354 C 148.311 259.814,127.706 270.752,111.333 284.517 C 56.091 330.962,23.391 416.555,25.571 509.000 C 26.269 538.592,28.934 559.013,35.665 586.369 C 43.933 619.965,55.994 647.970,73.693 674.667 C 83.040 688.764,87.811 694.588,99.946 706.711 C 114.710 721.462,125.573 729.416,142.333 737.750 C 179.705 756.332,220.295 756.332,257.667 737.750 C 273.558 729.848,284.825 721.753,298.583 708.352 C 346.371 661.802,374.646 584.722,374.646 501.000 C 374.646 403.002,335.664 314.735,274.333 273.861 C 261.668 265.420,246.118 258.282,231.833 254.351 L 228.000 253.296 227.992 139.148 C 227.983 15.153,228.184 21.860,224.273 14.674 C 222.187 10.842,216.509 5.294,212.668 3.334 C 207.953 0.928,201.591 -0.028,195.667 0.777 M211.333 307.365 C 243.820 312.523,275.618 342.520,295.395 386.667 C 329.886 463.658,325.288 568.696,284.465 636.333 C 265.876 667.132,243.431 686.281,217.458 693.500 C 213.073 694.719,210.552 694.925,200.000 694.925 C 189.448 694.925,186.927 694.719,182.542 693.500 C 156.569 686.281,134.124 667.132,115.535 636.333 C 85.054 585.831,73.882 511.262,86.733 444.088 C 94.386 404.082,110.450 367.887,131.578 343.047 C 147.695 324.097,167.982 311.139,187.000 307.644 C 192.752 306.588,205.515 306.441,211.333 307.365 " stroke="none" fill-rule="evenodd" fill="black"></path></svg>