<svg width="400" height="1000" viewBox="0 0 399.9999924409448 1000" version="1.1" id="svg5" sodipodi:docname="c.svg" inkscape:version="1.2.1 (9c6d41e410, 2022-07-14)" xmlns:inkscape="http://www.inkscape.org/namespaces/inkscape" xmlns:sodipodi="http://sodipodi.sourceforge.net/DTD/sodipodi-0.dtd" xmlns="http://www.w3.org/2000/svg" xmlns:svg="http://www.w3.org/2000/svg"><path d="M49.092 250.716 C 40.190 252.056,32.423 257.926,28.173 266.527 L 25.667 271.598 25.667 500.000 L 25.667 728.402 28.173 733.473 C 32.642 742.516,40.335 748.033,50.333 749.366 C 53.931 749.845,78.555 749.995,126.000 749.824 C 201.714 749.553,200.870 749.589,216.667 745.925 C 279.715 731.302,331.559 678.622,357.653 602.667 C 382.382 530.682,379.740 447.955,350.489 378.404 C 327.238 323.120,288.268 281.429,241.745 262.067 C 230.265 257.288,217.620 253.812,203.667 251.596 C 197.069 250.549,189.144 250.417,124.667 250.280 C 85.250 250.196,51.241 250.392,49.092 250.716 M204.036 308.515 C 219.935 312.503,232.694 318.652,246.333 328.899 C 253.755 334.476,268.766 349.688,274.746 357.693 C 300.521 392.199,315.973 438.702,317.876 487.500 C 319.647 532.907,312.119 572.049,294.384 609.648 C 285.547 628.383,274.522 644.228,260.710 658.047 C 242.269 676.495,225.450 686.363,203.667 691.516 C 197.828 692.897,196.107 692.941,139.500 693.158 L 81.333 693.382 81.333 499.997 L 81.333 306.612 139.833 306.848 C 197.032 307.079,198.460 307.116,204.036 308.515 " stroke="none" fill-rule="evenodd" fill="black"></path></svg>