<svg width="500" height="1000" viewBox="0 0 499.99998110236197 1000" version="1.1" id="svg5" xmlns="http://www.w3.org/2000/svg" xmlns:svg="http://www.w3.org/2000/svg"><path d="M49.059 250.902 C 39.770 252.341,30.872 259.425,27.320 268.209 L 25.417 272.917 25.417 429.583 C 25.417 594.857,25.335 590.901,29.233 613.333 C 33.938 640.403,44.008 668.045,56.778 688.940 C 63.003 699.127,71.695 709.845,80.777 718.535 C 102.507 739.326,125.281 749.167,151.667 749.167 C 178.052 749.167,200.826 739.326,222.556 718.535 C 231.590 709.891,240.778 698.577,246.329 689.258 C 247.997 686.458,249.649 684.167,250.000 684.167 C 250.351 684.167,252.003 686.458,253.671 689.258 C 259.222 698.577,268.410 709.891,277.444 718.535 C 299.174 739.326,321.948 749.167,348.333 749.167 C 372.254 749.167,393.265 740.973,413.915 723.591 L 418.247 719.945 418.763 723.097 C 419.885 729.956,420.260 731.363,421.755 734.316 C 424.293 739.330,431.259 745.561,436.543 747.542 C 442.801 749.889,450.546 749.883,456.826 747.529 C 463.141 745.161,470.043 738.319,472.667 731.826 L 474.583 727.083 474.583 500.000 L 474.583 272.917 472.667 268.174 C 470.043 261.681,463.141 254.839,456.826 252.471 C 446.498 248.599,435.219 250.892,427.571 258.421 C 422.334 263.576,420.326 267.383,419.207 274.274 C 418.637 277.789,418.344 330.924,418.340 431.491 C 418.335 532.201,418.037 586.126,417.455 591.491 C 413.731 625.818,400.204 658.671,382.386 676.666 C 375.709 683.410,368.823 688.192,361.788 690.970 C 355.046 693.633,341.620 693.633,334.878 690.970 C 309.522 680.956,289.233 648.148,280.681 603.333 L 278.852 593.750 278.384 433.333 L 277.917 272.917 276.000 268.174 C 273.376 261.681,266.474 254.839,260.159 252.471 C 249.831 248.599,238.553 250.892,230.904 258.421 C 225.668 263.576,223.659 267.383,222.541 274.274 C 221.970 277.789,221.677 330.924,221.673 431.491 C 221.669 532.201,221.371 586.126,220.789 591.491 C 215.564 639.644,193.005 679.958,165.122 690.970 C 158.380 693.633,144.954 693.633,138.212 690.970 C 110.362 679.971,87.763 639.587,82.545 591.491 C 81.963 586.126,81.665 532.201,81.660 431.491 C 81.656 330.924,81.363 277.789,80.793 274.274 C 79.674 267.383,77.666 263.576,72.429 258.421 C 66.174 252.264,57.756 249.556,49.059 250.902 " stroke="none" fill-rule="evenodd" fill="black"></path></svg>