<svg width="400" height="1000" viewBox="0 0 105.83333 264.58333" version="1.1" id="svg5" sodipodi:docname="i.svg" inkscape:version="1.2.1 (9c6d41e410, 2022-07-14)" xmlns:inkscape="http://www.inkscape.org/namespaces/inkscape" xmlns:sodipodi="http://sodipodi.sourceforge.net/DTD/sodipodi-0.dtd" xmlns="http://www.w3.org/2000/svg" xmlns:svg="http://www.w3.org/2000/svg"><path d="M49.092 250.769 C 38.511 252.218,29.142 260.754,26.263 271.567 C 24.898 276.696,24.898 723.304,26.263 728.433 C 29.142 739.243,38.542 747.773,49.167 749.214 C 61.822 750.931,73.291 744.607,78.866 732.839 L 81.000 728.333 81.364 572.667 C 81.766 400.526,81.404 414.253,85.984 397.000 C 96.789 356.296,128.118 323.228,167.000 311.488 C 179.019 307.858,184.859 307.078,200.000 307.078 C 212.347 307.078,215.303 307.286,221.333 308.578 C 233.684 311.225,240.727 313.674,251.667 319.125 C 281.671 334.074,305.070 363.300,314.016 397.000 C 318.592 414.239,318.232 400.542,318.635 572.667 L 319.000 728.333 321.134 732.839 C 326.709 744.607,338.178 750.931,350.833 749.214 C 361.458 747.773,370.858 739.243,373.737 728.433 C 374.498 725.573,374.652 699.509,374.659 572.192 C 374.666 423.437,374.631 419.110,373.338 409.035 C 370.553 387.349,365.699 370.490,356.917 352.013 C 339.166 314.662,311.715 286.518,275.222 268.259 C 251.564 256.421,226.961 250.667,200.000 250.667 C 157.981 250.667,120.360 264.981,86.227 293.954 L 81.454 298.006 81.227 284.836 L 81.000 271.667 78.866 267.161 C 73.233 255.269,61.877 249.017,49.092 250.769 " stroke="none" fill-rule="evenodd" fill="black"></path></svg>