<svg width="400" height="1000" viewBox="0 0 399.9999924409448 1000" version="1.1" id="svg5" sodipodi:docname="j.svg" inkscape:version="1.2.1 (9c6d41e410, 2022-07-14)" xmlns:inkscape="http://www.inkscape.org/namespaces/inkscape" xmlns:sodipodi="http://sodipodi.sourceforge.net/DTD/sodipodi-0.dtd" xmlns="http://www.w3.org/2000/svg" xmlns:svg="http://www.w3.org/2000/svg"><path d="M49.092 250.769 C 38.511 252.218,29.142 260.754,26.263 271.567 C 25.502 274.428,25.349 300.455,25.347 427.667 C 25.345 593.665,25.203 586.816,29.046 606.000 C 37.771 649.555,63.106 689.753,98.014 715.429 C 139.654 746.057,190.411 756.515,240.000 744.685 C 265.902 738.506,291.833 724.915,313.667 706.074 L 318.333 702.048 318.667 840.190 L 319.000 978.333 321.134 982.839 C 326.709 994.607,338.178 1000.931,350.833 999.214 C 361.458 997.773,370.858 989.243,373.737 978.433 C 375.138 973.171,375.116 276.674,373.715 271.293 C 370.171 257.687,356.227 248.431,342.583 250.629 C 332.524 252.248,324.040 259.150,320.110 268.910 C 319.089 271.445,318.971 284.162,318.636 427.333 C 318.233 599.466,318.594 585.754,314.016 603.000 C 303.211 643.704,271.882 676.772,233.000 688.512 C 220.981 692.142,215.141 692.922,200.000 692.922 C 187.653 692.922,184.697 692.714,178.667 691.422 C 166.316 688.775,159.273 686.326,148.333 680.875 C 118.329 665.926,94.930 636.700,85.984 603.000 C 81.408 585.761,81.768 599.458,81.365 427.333 L 81.000 271.667 78.866 267.161 C 73.233 255.269,61.877 249.017,49.092 250.769 " stroke="none" fill-rule="evenodd" fill="black"></path></svg>