<svg width="400" height="1000" viewBox="0 0 105.83333 264.58333" version="1.1" id="svg5" sodipodi:docname="k.svg" inkscape:version="1.2.1 (9c6d41e410, 2022-07-14)" xmlns:inkscape="http://www.inkscape.org/namespaces/inkscape" xmlns:sodipodi="http://sodipodi.sourceforge.net/DTD/sodipodi-0.dtd" xmlns="http://www.w3.org/2000/svg" xmlns:svg="http://www.w3.org/2000/svg"><path d="M187.000 249.091 C 129.294 255.351,81.593 295.677,52.976 362.395 C 39.915 392.845,31.372 426.089,27.206 462.667 C 25.820 474.840,26.063 520.286,27.583 533.000 C 32.474 573.925,41.553 606.440,56.717 637.333 C 68.567 661.476,82.170 680.950,98.630 697.340 C 112.088 710.741,124.831 719.782,142.333 728.346 C 159.987 736.985,177.249 742.405,196.763 745.436 C 209.569 747.425,236.777 747.598,248.667 745.765 C 280.987 740.785,308.998 729.051,331.667 710.998 C 341.926 702.827,354.333 689.492,361.495 678.937 C 366.888 670.989,368.585 664.787,367.393 657.383 C 364.296 638.156,344.065 627.769,326.852 636.569 C 322.639 638.723,319.650 641.626,314.410 648.652 C 295.993 673.345,268.489 687.779,234.192 690.748 C 217.638 692.181,197.403 689.609,180.986 683.985 C 148.870 672.984,126.027 651.069,107.688 613.667 C 92.724 583.147,84.632 550.895,82.307 512.509 L 81.873 505.352 217.436 505.176 L 353.000 505.000 356.896 503.429 C 364.551 500.341,371.355 492.969,373.702 485.218 C 374.720 481.853,374.818 479.493,374.473 466.517 C 372.976 410.144,358.666 359.230,333.833 321.919 C 325.689 309.683,320.105 302.746,311.346 293.987 C 287.295 269.932,259.378 255.820,224.946 250.311 C 218.528 249.284,192.837 248.458,187.000 249.091 M219.667 306.326 C 245.236 310.760,266.223 324.066,282.610 346.232 C 301.008 371.118,312.058 402.933,316.972 445.167 L 317.379 448.667 201.690 448.667 C 134.586 448.667,86.000 448.418,86.000 448.074 C 86.000 443.587,92.461 417.935,96.983 404.470 C 116.651 345.901,149.353 310.940,189.667 305.382 C 195.902 304.522,212.225 305.036,219.667 306.326 " stroke="none" fill-rule="evenodd" fill="black"></path></svg>