<svg width="400" height="1000" viewBox="0 0 105.83333 264.58333" version="1.1" id="svg5" sodipodi:docname="l.svg" inkscape:version="1.2.1 (9c6d41e410, 2022-07-14)" xmlns:inkscape="http://www.inkscape.org/namespaces/inkscape" xmlns:sodipodi="http://sodipodi.sourceforge.net/DTD/sodipodi-0.dtd" xmlns="http://www.w3.org/2000/svg" xmlns:svg="http://www.w3.org/2000/svg"><path d="M185.667 250.424 C 115.261 254.881,56.499 288.904,32.032 339.377 C 26.640 350.501,25.665 353.819,25.676 361.000 C 25.685 366.509,25.882 367.410,28.086 372.000 C 32.293 380.766,39.745 386.424,49.289 388.099 C 57.395 389.522,66.405 386.549,72.930 380.297 C 75.259 378.066,77.200 374.875,81.303 366.530 C 87.528 353.872,92.664 346.967,101.786 338.989 C 121.648 321.618,148.086 310.917,180.095 307.293 C 190.502 306.115,214.032 306.818,224.667 308.624 C 256.117 313.967,281.588 326.374,299.113 344.889 C 334.578 382.355,320.071 431.114,265.757 457.004 C 252.814 463.174,239.069 467.413,225.000 469.573 C 215.170 471.083,213.296 471.259,202.333 471.700 C 196.833 471.921,190.865 472.526,189.069 473.044 C 183.059 474.779,176.841 479.733,173.119 485.754 C 168.621 493.031,168.090 503.519,171.816 511.483 C 176.621 521.750,185.697 527.793,196.667 528.027 C 223.863 528.609,245.335 533.261,265.757 542.996 C 305.277 561.834,324.741 593.333,316.601 625.277 C 313.995 635.504,308.012 645.711,299.113 655.111 C 281.587 673.627,256.100 686.041,224.667 691.374 C 214.032 693.178,191.377 693.865,180.513 692.712 C 148.812 689.348,121.756 678.477,101.932 661.139 C 92.747 653.106,87.476 646.038,81.300 633.470 C 77.197 625.121,75.260 621.935,72.930 619.703 C 66.404 613.449,57.124 610.393,49.160 611.874 C 39.662 613.640,32.259 619.305,28.086 628.000 C 25.882 632.590,25.685 633.491,25.676 639.000 C 25.665 645.949,26.536 649.043,31.375 659.236 C 46.091 690.241,72.787 715.012,108.867 731.142 C 136.466 743.481,165.466 749.549,196.667 749.515 C 232.850 749.476,263.750 742.507,293.405 727.698 C 335.688 706.584,364.353 672.087,372.648 632.333 C 374.455 623.672,375.102 608.551,374.060 599.333 C 369.848 562.096,347.826 528.410,312.500 505.168 C 308.558 502.575,305.333 500.249,305.333 500.000 C 305.333 499.751,308.558 497.425,312.500 494.832 C 363.843 461.052,386.026 405.705,368.944 354.000 C 350.990 299.654,293.067 259.335,222.000 251.713 C 212.576 250.703,192.510 249.990,185.667 250.424 " stroke="none" fill-rule="evenodd" fill="black"></path></svg>