<svg width="400" height="1000" viewBox="0 0 399.9999924409448 1000" version="1.1" id="svg5" sodipodi:docname="m.svg" inkscape:version="1.2.1 (9c6d41e410, 2022-07-14)" xmlns:inkscape="http://www.inkscape.org/namespaces/inkscape" xmlns:sodipodi="http://sodipodi.sourceforge.net/DTD/sodipodi-0.dtd" xmlns="http://www.w3.org/2000/svg" xmlns:svg="http://www.w3.org/2000/svg"><path d="M53.018 0.743 C 42.496 2.275,33.114 10.861,30.263 21.567 C 26.556 35.492,34.845 50.250,49.173 55.234 C 52.047 56.233,62.849 56.363,168.467 56.666 L 284.602 57.000 190.467 177.030 C 138.694 243.046,92.731 301.546,88.329 307.030 C 61.837 340.030,43.758 378.662,33.746 423.667 C 27.390 452.238,24.856 478.684,25.571 509.000 C 26.269 538.592,28.934 559.013,35.665 586.369 C 43.933 619.965,55.994 647.970,73.693 674.667 C 83.040 688.764,87.811 694.588,99.946 706.711 C 114.710 721.462,125.573 729.416,142.333 737.750 C 179.705 756.332,220.295 756.332,257.667 737.750 C 273.558 729.848,284.825 721.753,298.583 708.352 C 357.945 650.527,386.278 546.298,370.260 444.667 C 358.412 369.489,322.848 306.099,274.508 273.996 C 253.948 260.341,232.089 252.397,210.996 250.915 C 207.515 250.670,204.668 250.289,204.670 250.068 C 204.673 249.603,360.175 51.207,363.767 47.086 C 365.086 45.572,367.103 42.383,368.250 40.000 C 370.195 35.955,370.333 35.178,370.333 28.333 C 370.333 21.453,370.200 20.719,368.181 16.457 C 364.372 8.414,356.544 2.270,348.076 0.676 C 343.587 -0.169,58.835 -0.105,53.018 0.743 M211.333 307.365 C 243.820 312.523,275.618 342.520,295.395 386.667 C 329.886 463.658,325.288 568.696,284.465 636.333 C 265.876 667.132,243.431 686.281,217.458 693.500 C 213.073 694.719,210.552 694.925,200.000 694.925 C 189.448 694.925,186.927 694.719,182.542 693.500 C 156.569 686.281,134.124 667.132,115.535 636.333 C 85.054 585.831,73.882 511.262,86.733 444.088 C 92.874 411.989,104.550 381.823,119.539 359.333 C 124.751 351.513,138.126 335.418,143.130 330.945 C 156.934 318.605,172.583 310.293,187.000 307.644 C 192.752 306.588,205.515 306.441,211.333 307.365 " stroke="none" fill-rule="evenodd" fill="black"></path></svg>