<svg width="500" height="1000" viewBox="0 0 499.99998110236197 1000" version="1.1" id="svg5" sodipodi:docname="n.svg" inkscape:version="1.2.1 (9c6d41e410, 2022-07-14)" xmlns:inkscape="http://www.inkscape.org/namespaces/inkscape" xmlns:sodipodi="http://sodipodi.sourceforge.net/DTD/sodipodi-0.dtd" xmlns="http://www.w3.org/2000/svg" xmlns:svg="http://www.w3.org/2000/svg"><path d="M49.059 250.902 C 39.770 252.341,30.872 259.425,27.320 268.209 L 25.417 272.917 25.417 500.000 L 25.417 727.083 27.333 731.826 C 29.957 738.319,36.859 745.161,43.174 747.529 C 53.502 751.401,64.781 749.108,72.429 741.579 C 77.666 736.424,79.674 732.617,80.793 725.726 C 81.350 722.292,81.656 686.482,81.660 624.375 L 81.667 528.333 104.567 528.333 L 127.468 528.333 127.859 530.208 C 128.074 531.240,128.486 535.083,128.774 538.750 C 130.114 555.814,136.279 585.308,142.576 604.782 C 168.369 684.546,219.370 737.502,280.417 747.904 C 291.127 749.729,309.338 749.765,320.417 747.982 C 395.452 735.912,456.150 656.205,471.183 550.000 C 475.545 519.184,475.545 480.816,471.183 450.000 C 457.563 353.777,405.926 277.897,339.658 256.726 C 328.528 253.170,321.896 251.855,310.518 250.945 C 294.469 249.663,276.200 251.800,260.833 256.758 C 252.809 259.346,234.749 268.334,226.667 273.760 C 178.800 305.894,144.307 366.433,131.709 440.417 C 130.383 448.208,129.062 457.583,128.774 461.250 C 128.486 464.917,128.074 468.760,127.859 469.792 L 127.468 471.667 104.567 471.667 L 81.667 471.667 81.660 375.625 C 81.656 313.518,81.350 277.708,80.793 274.274 C 79.674 267.383,77.666 263.576,72.429 258.421 C 66.174 252.264,57.756 249.556,49.059 250.902 M318.628 308.656 C 341.787 315.149,363.851 333.098,380.808 359.241 C 405.172 396.803,418.300 446.091,418.300 500.000 C 418.300 546.022,409.230 587.005,391.189 622.500 C 372.364 659.537,347.001 683.492,318.168 691.465 C 310.730 693.521,290.096 693.467,282.500 691.370 C 258.162 684.653,234.279 664.127,216.909 635.000 C 199.155 605.230,188.066 569.459,184.100 529.167 C 182.782 515.772,182.782 484.228,184.100 470.833 C 192.418 386.329,234.192 319.432,285.833 307.916 C 292.973 306.324,311.828 306.750,318.628 308.656 " stroke="none" fill-rule="evenodd" fill="black"></path></svg>