<svg width="400" height="1000" viewBox="0 0 105.83333 264.58333" version="1.1" id="svg5" sodipodi:docname="o.svg" inkscape:version="1.2.1 (9c6d41e410, 2022-07-14)" xmlns:inkscape="http://www.inkscape.org/namespaces/inkscape" xmlns:sodipodi="http://sodipodi.sourceforge.net/DTD/sodipodi-0.dtd" xmlns="http://www.w3.org/2000/svg" xmlns:svg="http://www.w3.org/2000/svg"><path d="M163.400 250.725 C 134.256 252.564,105.711 262.465,80.000 279.655 C 67.861 287.770,61.628 292.961,49.614 304.960 C 37.330 317.229,30.213 325.788,27.141 331.988 C 25.119 336.069,25.000 336.720,25.008 343.655 C 25.016 350.553,25.146 351.266,27.148 355.373 C 29.752 360.714,35.766 366.689,40.904 369.042 C 49.719 373.078,60.490 371.972,68.893 366.170 C 70.301 365.198,74.193 361.087,77.544 357.035 C 101.523 328.029,129.781 311.170,160.904 307.301 C 169.941 306.178,187.045 306.835,195.439 308.627 C 242.661 318.713,283.595 360.360,303.642 418.714 C 309.215 434.936,312.797 450.391,315.563 470.150 L 315.911 472.633 216.122 472.839 C 122.939 473.031,116.106 473.123,112.906 474.218 C 105.449 476.770,98.164 483.751,95.283 491.104 C 94.094 494.139,93.757 496.326,93.757 501.000 C 93.757 505.674,94.094 507.861,95.283 510.896 C 98.157 518.233,105.542 525.310,112.967 527.843 C 116.084 528.906,123.730 529.005,216.122 529.179 L 315.911 529.367 315.563 531.850 C 310.856 565.472,302.631 591.875,289.268 616.259 C 266.461 657.876,233.130 685.206,195.098 693.473 C 185.903 695.472,162.793 695.659,154.000 693.806 C 124.543 687.597,99.742 671.725,77.215 644.667 C 67.764 633.314,61.529 630.137,50.013 630.803 C 46.051 631.033,44.033 631.562,40.518 633.292 C 35.011 636.003,29.310 641.776,26.836 647.146 C 25.264 650.561,25.058 651.837,25.031 658.345 C 25.002 665.303,25.113 665.918,27.141 670.012 C 31.270 678.344,49.069 698.075,63.000 709.760 C 80.928 724.799,103.955 737.559,125.333 744.300 C 151.918 752.683,182.791 753.927,209.667 747.698 C 260.169 735.993,303.579 701.893,334.801 649.402 C 350.637 622.780,363.321 587.316,368.977 553.846 C 374.118 523.427,374.690 490.005,370.601 459.000 C 361.380 389.070,327.748 325.947,279.667 288.327 C 245.132 261.306,204.413 248.137,163.400 250.725 " stroke="none" fill-rule="evenodd" fill="black"></path></svg>