<svg width="400" height="1000" viewBox="0 0 105.83333 264.58333" version="1.1" id="svg5" sodipodi:docname="p.svg" inkscape:version="1.2.1 (9c6d41e410, 2022-07-14)" xmlns:inkscape="http://www.inkscape.org/namespaces/inkscape" xmlns:sodipodi="http://sodipodi.sourceforge.net/DTD/sodipodi-0.dtd" xmlns="http://www.w3.org/2000/svg" xmlns:svg="http://www.w3.org/2000/svg"><path d="M47.444 250.995 C 29.766 254.949,20.246 274.793,28.364 290.765 C 28.989 291.994,60.130 339.500,97.566 396.333 C 135.002 453.167,165.635 500.267,165.638 501.000 C 165.642 501.733,135.017 548.833,97.584 605.667 C 60.151 662.500,29.008 710.006,28.376 711.235 C 22.741 722.208,25.216 735.543,34.458 744.004 C 43.540 752.319,54.867 754.002,65.767 748.657 C 70.123 746.521,71.905 745.040,75.383 740.664 C 76.694 739.016,105.160 696.042,138.643 645.167 C 172.125 594.292,199.735 552.667,199.999 552.667 C 200.262 552.667,227.871 594.292,261.352 645.167 C 294.832 696.042,323.300 739.016,324.613 740.664 C 328.100 745.044,329.880 746.522,334.233 748.657 C 345.134 754.003,356.460 752.319,365.545 744.001 C 374.753 735.572,377.241 722.158,371.622 711.235 C 370.990 710.006,339.846 662.500,302.415 605.667 C 264.983 548.833,234.360 501.733,234.364 501.000 C 234.368 500.267,264.997 453.167,302.430 396.333 C 339.862 339.500,371.002 291.994,371.630 290.765 C 375.734 282.730,375.538 273.622,371.072 264.809 C 369.235 261.183,364.399 256.405,359.896 253.766 C 352.411 249.379,341.694 249.343,333.314 253.677 C 327.551 256.657,325.332 259.839,262.585 355.092 C 228.441 406.925,200.274 449.333,199.992 449.333 C 199.709 449.333,171.548 406.926,137.410 355.095 C 74.693 259.872,72.452 256.659,66.703 253.686 C 60.828 250.647,53.546 249.630,47.444 250.995 " stroke="none" fill-rule="evenodd" fill="#000000"></path></svg>