<svg width="400" height="1000" viewBox="0 0 399.9999924409448 1000" version="1.1" id="svg5" xmlns="http://www.w3.org/2000/svg" xmlns:svg="http://www.w3.org/2000/svg"><path d="M47.557 150.948 C 34.531 154.107,25.333 165.591,25.355 178.667 C 25.359 180.956,26.064 184.337,27.230 187.667 C 28.257 190.600,60.501 261.808,98.882 345.908 C 137.264 430.007,168.667 499.348,168.667 499.999 C 168.667 500.651,137.264 569.992,98.884 654.092 C 60.503 738.191,28.260 809.400,27.231 812.333 C 25.140 818.300,24.842 823.102,26.240 828.333 C 29.923 842.121,43.539 851.484,56.822 849.362 C 67.149 847.712,74.115 842.335,79.184 832.101 C 80.937 828.562,108.763 767.700,141.019 696.853 C 173.275 626.005,199.817 568.039,200.000 568.039 C 200.183 568.039,226.730 626.005,258.991 696.853 C 291.253 767.700,318.926 828.307,320.486 831.534 C 325.565 842.040,332.693 847.687,342.946 849.325 C 359.151 851.913,374.673 838.206,374.645 821.333 C 374.641 819.041,373.937 815.667,372.768 812.333 C 371.739 809.400,339.495 738.194,301.115 654.097 C 262.735 570.001,231.333 500.659,231.333 500.005 C 231.333 499.350,262.735 430.006,301.116 345.907 C 339.496 261.808,371.740 190.600,372.768 187.667 C 373.937 184.334,374.641 180.958,374.645 178.667 C 374.673 161.794,359.151 148.087,342.946 150.675 C 332.692 152.313,325.563 157.960,320.487 168.466 C 318.928 171.693,291.255 232.299,258.993 303.147 C 226.730 373.994,200.183 431.961,200.000 431.961 C 199.817 431.961,173.270 373.995,141.006 303.148 C 108.743 232.300,81.071 171.693,79.512 168.466 C 74.487 158.062,67.328 152.335,57.320 150.711 C 52.171 149.876,51.959 149.881,47.557 150.948 " stroke="none" fill-rule="evenodd" fill="#000000"></path></svg>