<svg width="500" height="1000" viewBox="0 0 132.29166 264.58333" version="1.1" id="svg5" sodipodi:docname="63.svg" inkscape:version="1.2.1 (9c6d41e410, 2022-07-14)" xmlns:inkscape="http://www.inkscape.org/namespaces/inkscape" xmlns:sodipodi="http://sodipodi.sourceforge.net/DTD/sodipodi-0.dtd" xmlns="http://www.w3.org/2000/svg" xmlns:svg="http://www.w3.org/2000/svg"><path d="M94.776 175.864 C 86.209 177.306,77.912 183.544,74.059 191.442 C 71.751 196.171,70.958 205.950,72.460 211.158 C 74.686 218.878,81.934 226.514,90.168 229.814 C 93.481 231.142,102.560 231.281,210.892 231.667 L 328.033 232.083 202.142 394.672 C 132.901 484.096,73.843 560.221,70.902 563.839 C 52.483 586.493,36.712 618.525,30.122 646.667 C 22.593 678.820,23.825 711.225,33.721 741.300 C 40.490 761.869,49.815 777.831,63.333 791.986 C 82.534 812.091,102.103 821.890,127.554 824.142 C 140.076 825.251,443.506 825.303,450.252 824.198 C 459.438 822.694,467.143 817.100,471.529 808.750 C 473.416 805.158,473.720 803.548,473.734 797.083 L 473.750 789.583 446.876 711.452 C 432.096 668.480,419.174 631.558,418.161 629.404 C 414.046 620.648,403.684 614.055,393.993 614.027 C 380.445 613.987,369.596 622.423,366.235 635.612 C 365.191 639.706,365.089 641.774,365.755 645.377 C 366.220 647.891,375.615 676.232,386.634 708.358 C 397.652 740.483,406.667 767.120,406.667 767.550 C 406.667 768.036,353.679 768.327,267.292 768.316 L 127.917 768.298 122.411 766.355 C 107.163 760.972,93.931 745.494,87.267 725.248 C 73.562 683.604,84.810 633.826,116.415 596.250 C 119.114 593.042,184.286 509.042,261.242 409.583 C 338.199 310.125,402.970 226.567,405.178 223.899 C 412.541 215.004,414.736 208.280,413.264 199.137 C 411.430 187.746,404.289 179.581,393.310 176.320 C 389.322 175.136,373.936 175.010,243.807 175.098 C 164.026 175.152,96.962 175.497,94.776 175.864 " stroke="none" fill-rule="evenodd" fill="black"></path></svg>