<svg width="250" height="1000" viewBox="0 0 249.99999811023622 1000" version="1.1" id="svg5" xmlns="http://www.w3.org/2000/svg" xmlns:svg="http://www.w3.org/2000/svg"><path d="M112.612 1.576 C 105.233 5.370,99.801 12.044,97.618 20.000 C 96.907 22.592,96.875 43.288,96.875 500.000 C 96.875 956.712,96.907 977.408,97.618 980.000 C 99.811 987.991,105.453 994.886,112.749 998.494 L 115.795 1000.000 125.000 1000.000 L 134.205 1000.000 137.251 998.494 C 144.489 994.915,150.247 987.881,152.389 980.000 C 153.091 977.418,153.125 954.991,153.125 500.000 C 153.125 45.009,153.091 22.582,152.389 20.000 C 150.247 12.119,144.489 5.085,137.251 1.506 L 134.205 -0.000 124.915 0.013 L 115.625 0.027 112.612 1.576 " stroke="none" fill-rule="evenodd" fill="#000000"></path></svg>