<svg width="500" height="1000" viewBox="0 0 499.99998110236197 1000" version="1.1" id="svg5" sodipodi:docname="U+003F.svg" inkscape:version="1.2.1 (9c6d41e410, 2022-07-14)" xmlns:inkscape="http://www.inkscape.org/namespaces/inkscape" xmlns:sodipodi="http://sodipodi.sourceforge.net/DTD/sodipodi-0.dtd" xmlns="http://www.w3.org/2000/svg" xmlns:svg="http://www.w3.org/2000/svg"><path d="M113.988 175.853 C 105.638 177.271,97.696 183.227,93.459 191.250 C 91.527 194.908,91.258 196.384,91.258 203.333 C 91.258 210.283,91.527 211.759,93.459 215.417 C 97.876 223.780,105.568 229.362,114.748 230.865 C 117.606 231.333,159.529 231.659,217.292 231.662 C 271.031 231.664,315.000 231.885,315.000 232.151 C 315.000 232.561,106.369 541.451,87.278 569.307 C 78.423 582.227,66.926 605.615,61.745 621.250 C 54.009 644.595,50.651 664.786,50.589 688.333 C 50.475 731.791,63.978 770.535,88.056 795.837 C 97.249 805.498,104.205 810.742,114.583 815.836 C 124.896 820.898,132.738 823.088,144.581 824.212 C 150.655 824.789,199.888 824.998,290.417 824.833 C 417.464 824.601,427.335 824.482,430.666 823.148 C 438.649 819.948,445.272 813.266,447.995 805.666 C 451.047 797.150,451.153 797.592,425.393 711.667 C 412.123 667.402,400.559 630.286,399.336 628.034 C 394.011 618.232,381.719 612.305,370.867 614.309 C 357.305 616.813,347.446 628.474,347.534 641.906 C 347.562 646.187,350.709 657.542,365.716 707.500 L 383.864 767.917 264.224 768.132 L 144.583 768.347 139.452 765.826 C 112.016 752.346,99.007 699.157,111.288 650.678 C 116.386 630.553,124.503 613.641,139.489 591.915 C 145.116 583.758,203.278 497.771,268.738 400.833 C 334.198 303.896,388.831 223.207,390.146 221.525 C 394.687 215.711,396.233 211.099,396.242 203.333 C 396.249 197.432,395.889 195.485,394.088 191.667 C 391.331 185.822,385.845 180.336,380.000 177.579 L 375.417 175.417 246.667 175.301 C 175.854 175.238,116.149 175.486,113.988 175.853 " stroke="none" fill-rule="evenodd" fill="black"></path></svg>