<svg width="250" height="1000" viewBox="0 0 249.9999943307086 1000" version="1.1" id="svg5" sodipodi:docname="34.svg" inkscape:version="1.2.1 (9c6d41e410, 2022-07-14)" xmlns:inkscape="http://www.inkscape.org/namespaces/inkscape" xmlns:sodipodi="http://sodipodi.sourceforge.net/DTD/sodipodi-0.dtd" xmlns="http://www.w3.org/2000/svg" xmlns:svg="http://www.w3.org/2000/svg"><path d="M77.500 0.281 C 69.599 1.027,62.369 4.841,57.690 10.733 C 55.466 13.533,52.822 18.827,52.022 22.083 C 51.187 25.478,51.185 195.758,52.019 199.167 C 52.328 200.427,53.427 203.227,54.461 205.389 C 56.028 208.661,56.910 209.883,59.734 212.694 C 65.503 218.436,71.573 220.965,79.583 220.965 C 87.593 220.965,93.664 218.436,99.433 212.694 C 102.257 209.883,103.139 208.661,104.705 205.389 C 105.740 203.227,106.839 200.427,107.147 199.167 C 107.982 195.758,107.979 25.478,107.145 22.083 C 106.344 18.827,103.700 13.533,101.476 10.733 C 95.932 3.751,86.107 -0.532,77.500 0.281 M168.333 0.281 C 160.442 1.026,153.256 4.813,148.502 10.733 C 146.309 13.464,143.699 18.715,142.862 22.083 C 142.389 23.985,142.292 39.096,142.292 110.833 C 142.292 193.462,142.326 197.412,143.057 200.000 C 145.791 209.679,153.810 217.682,163.333 220.238 C 165.097 220.712,167.568 220.965,170.417 220.965 C 178.427 220.965,184.497 218.436,190.266 212.694 C 193.090 209.883,193.972 208.661,195.539 205.389 C 196.573 203.227,197.672 200.427,197.981 199.167 C 198.803 195.808,198.813 26.546,197.992 22.500 C 197.294 19.064,194.762 13.820,192.310 10.733 C 186.765 3.751,176.941 -0.532,168.333 0.281 " stroke="none" fill-rule="evenodd" fill="black"></path></svg>