<svg width="400" height="1000" viewBox="0 0 399.9999924409448 1000" version="1.1" id="svg5" sodipodi:docname="u.svg" inkscape:version="1.2.1 (9c6d41e410, 2022-07-14)" xmlns:inkscape="http://www.inkscape.org/namespaces/inkscape" xmlns:sodipodi="http://sodipodi.sourceforge.net/DTD/sodipodi-0.dtd" xmlns="http://www.w3.org/2000/svg" xmlns:svg="http://www.w3.org/2000/svg"><path d="M163.400 250.725 C 134.256 252.564,105.711 262.465,80.000 279.655 C 67.861 287.770,61.628 292.961,49.614 304.960 C 37.330 317.229,30.213 325.788,27.141 331.988 C 25.119 336.069,25.000 336.720,25.008 343.655 C 25.016 350.553,25.146 351.266,27.148 355.373 C 29.752 360.714,35.766 366.689,40.904 369.042 C 49.719 373.078,60.490 371.972,68.893 366.170 C 70.301 365.198,74.193 361.087,77.544 357.035 C 101.523 328.029,129.781 311.170,160.904 307.301 C 169.941 306.178,187.045 306.835,195.439 308.627 C 209.475 311.625,223.984 317.860,236.710 326.362 C 281.588 356.347,311.810 415.498,316.632 482.792 C 320.452 536.107,307.293 590.339,280.857 630.234 C 258.245 664.357,228.652 686.179,195.098 693.473 C 185.903 695.472,162.793 695.659,154.000 693.806 C 124.543 687.597,99.742 671.725,77.215 644.667 C 67.764 633.314,61.529 630.137,50.013 630.803 C 46.051 631.033,44.033 631.562,40.518 633.292 C 35.011 636.003,29.310 641.776,26.836 647.146 C 25.264 650.561,25.058 651.837,25.031 658.345 C 25.002 665.303,25.113 665.918,27.141 670.012 C 31.270 678.344,49.069 698.075,63.000 709.760 C 80.928 724.799,103.955 737.559,125.333 744.300 C 151.918 752.683,182.791 753.927,209.667 747.698 C 260.169 735.993,303.579 701.893,334.801 649.402 C 350.637 622.780,363.321 587.316,368.977 553.846 C 374.118 523.427,374.690 490.005,370.601 459.000 C 361.380 389.070,327.748 325.947,279.667 288.327 C 245.132 261.306,204.413 248.137,163.400 250.725 " stroke="none" fill-rule="evenodd" fill="black"></path></svg>