<svg width="400" height="1000" viewBox="0 0 399.9999924409448 1000" version="1.1" id="svg5" sodipodi:docname="w.svg" inkscape:version="1.2.1 (9c6d41e410, 2022-07-14)" xmlns:inkscape="http://www.inkscape.org/namespaces/inkscape" xmlns:sodipodi="http://sodipodi.sourceforge.net/DTD/sodipodi-0.dtd" xmlns="http://www.w3.org/2000/svg" xmlns:svg="http://www.w3.org/2000/svg"><path d="M190.761 250.718 C 117.964 256.117,55.784 324.607,33.746 423.667 C 24.845 463.674,22.999 506.226,28.345 548.144 C 33.216 586.336,46.048 626.938,62.726 656.930 C 67.924 666.278,79.169 683.271,85.051 690.667 C 91.107 698.280,109.060 716.130,115.667 721.105 C 130.382 732.187,146.270 740.783,160.375 745.294 C 193.333 755.834,226.462 753.265,257.667 737.750 C 273.558 729.848,284.825 721.753,298.583 708.352 C 357.945 650.527,386.278 546.298,370.260 444.667 C 358.412 369.489,322.848 306.099,274.508 273.996 C 254.247 260.540,232.345 252.494,212.000 251.033 C 200.442 250.202,198.167 250.169,190.761 250.718 M211.333 307.365 C 243.820 312.523,275.618 342.520,295.395 386.667 C 329.886 463.658,325.288 568.696,284.465 636.333 C 265.876 667.132,243.431 686.281,217.458 693.500 C 213.073 694.719,210.552 694.925,200.000 694.925 C 189.448 694.925,186.927 694.719,182.542 693.500 C 156.569 686.281,134.124 667.132,115.535 636.333 C 85.054 585.831,73.882 511.262,86.733 444.088 C 94.386 404.082,110.450 367.887,131.578 343.047 C 147.695 324.097,167.982 311.139,187.000 307.644 C 192.752 306.588,205.515 306.441,211.333 307.365 " stroke="none" fill="black" fill-rule="evenodd"></path></svg>