<svg width="400" height="1000" viewBox="0 0 399.9999924409448 1000" version="1.1" id="svg5" sodipodi:docname="w.svg" inkscape:version="1.2.1 (9c6d41e410, 2022-07-14)" xmlns:inkscape="http://www.inkscape.org/namespaces/inkscape" xmlns:sodipodi="http://sodipodi.sourceforge.net/DTD/sodipodi-0.dtd" xmlns="http://www.w3.org/2000/svg" xmlns:svg="http://www.w3.org/2000/svg"><path d="M191.390 150.721 C 113.373 156.706,48.845 247.785,30.365 378.000 C 25.942 409.166,25.334 423.918,25.334 500.000 C 25.334 576.082,25.942 590.834,30.365 622.000 C 48.957 753.009,113.861 843.985,192.497 849.262 C 266.059 854.199,330.768 785.716,359.676 672.333 C 367.593 641.281,372.125 610.863,373.979 576.333 C 374.855 560.024,374.867 440.268,373.994 423.667 C 370.776 362.473,357.056 304.232,335.039 258.307 C 300.073 185.371,248.010 146.378,191.390 150.721 M214.333 208.319 C 216.533 208.919,221.353 210.871,225.044 212.657 C 266.960 232.939,301.859 300.584,313.959 385.000 C 317.936 412.750,318.667 430.595,318.667 500.000 C 318.667 557.463,318.217 575.568,316.299 595.333 C 308.205 678.752,277.735 749.988,237.331 779.956 C 213.092 797.935,186.848 797.878,162.446 779.795 C 122.283 750.031,91.846 678.739,83.694 595.333 C 81.763 575.580,81.346 558.663,81.346 500.000 C 81.346 422.012,82.430 402.665,88.723 368.333 C 104.488 282.333,144.736 217.441,188.333 207.732 C 194.259 206.412,208.523 206.734,214.333 208.319 " stroke="none" fill="black" fill-rule="evenodd"></path></svg>