<svg width="400" height="1000" viewBox="0 0 399.9999924409448 1000" version="1.1" id="svg5" sodipodi:docname="z.svg" inkscape:version="1.2.1 (9c6d41e410, 2022-07-14)" xmlns:inkscape="http://www.inkscape.org/namespaces/inkscape" xmlns:sodipodi="http://sodipodi.sourceforge.net/DTD/sodipodi-0.dtd" xmlns="http://www.w3.org/2000/svg" xmlns:svg="http://www.w3.org/2000/svg"><path d="M45.964 250.269 C 37.310 253.572,31.058 259.994,27.744 268.981 C 27.205 270.444,26.880 332.254,26.565 493.333 C 26.326 615.617,25.926 717.679,25.676 720.138 C 24.563 731.105,31.484 742.709,42.319 748.043 C 46.632 750.166,47.435 750.333,53.319 750.333 C 59.095 750.333,60.078 750.139,64.234 748.170 C 67.347 746.696,69.956 744.785,72.428 742.170 C 74.708 739.758,102.712 697.996,147.868 629.667 C 187.366 569.900,242.028 487.186,269.341 445.858 C 296.653 404.529,319.225 370.704,319.500 370.691 C 319.775 370.678,320.003 450.842,320.007 548.833 C 320.015 740.734,319.806 729.087,323.358 736.049 C 325.721 740.680,331.504 746.255,336.192 748.420 C 339.834 750.103,341.099 750.333,346.681 750.333 C 352.504 750.333,353.394 750.153,357.462 748.151 C 363.958 744.953,369.473 738.566,372.256 731.019 C 372.795 729.556,373.117 667.767,373.426 506.667 C 373.660 384.383,374.061 282.633,374.318 280.554 C 375.685 269.469,368.366 256.945,357.516 251.806 C 353.414 249.863,352.417 249.667,346.632 249.667 C 340.605 249.667,339.991 249.802,335.149 252.195 C 331.483 254.007,329.184 255.706,327.034 258.195 C 324.212 261.460,304.799 290.710,144.991 532.475 C 109.796 585.719,80.775 629.294,80.500 629.308 C 80.225 629.322,79.997 549.158,79.993 451.167 C 79.985 259.266,80.194 270.913,76.642 263.951 C 74.269 259.301,68.496 253.743,63.808 251.596 C 60.460 250.063,58.581 249.667,54.000 249.532 C 50.444 249.426,47.451 249.701,45.964 250.269 M104.209 810.733 C 89.667 813.160,78.699 828.303,81.199 842.498 C 82.256 848.497,84.774 853.199,90.338 859.563 C 109.540 881.527,141.377 896.718,176.569 900.708 C 185.798 901.754,210.908 901.172,219.333 899.716 C 250.205 894.384,275.946 881.761,294.161 863.024 C 304.308 852.586,307.012 846.881,306.507 836.972 C 306.253 831.982,305.840 830.189,304.110 826.563 C 298.781 815.399,286.251 808.742,274.445 810.804 C 267.385 812.038,263.668 814.259,256.257 821.678 C 246.952 830.991,240.273 835.246,228.000 839.677 C 206.720 847.361,180.137 847.259,158.873 839.411 C 147.290 835.137,141.193 831.234,132.109 822.282 C 124.360 814.645,120.758 812.373,114.187 810.981 C 109.175 809.919,109.097 809.917,104.209 810.733 " stroke="none" fill-rule="evenodd" fill="black"></path></svg>