<svg width="1000" height="1000" viewBox="0 0 1000 1000" version="1.1" id="svg5" inkscape:version="1.2.1 (9c6d41e410, 2022-07-14)" sodipodi:docname="ぁ.svg" xmlns:inkscape="http://www.inkscape.org/namespaces/inkscape" xmlns:sodipodi="http://sodipodi.sourceforge.net/DTD/sodipodi-0.dtd" xmlns="http://www.w3.org/2000/svg" xmlns:svg="http://www.w3.org/2000/svg"><path d="M231.413 238.363 C 221.350 243.679,215.289 256.301,217.399 267.547 C 218.740 274.698,227.210 284.701,234.504 287.748 C 238.947 289.605,282.664 290.000,483.476 290.000 L 727.058 290.000 725.934 302.917 C 713.621 444.320,677.456 564.238,621.420 649.468 C 607.706 670.327,586.886 697.032,584.892 696.321 C 584.141 696.053,544.043 653.083,495.786 600.833 C 438.512 538.821,405.690 504.531,401.261 502.083 C 397.529 500.021,391.939 498.333,388.838 498.333 C 381.270 498.333,371.128 503.734,366.506 510.226 C 361.382 517.421,360.414 530.639,364.481 537.863 C 367.136 542.579,427.780 608.827,533.973 723.018 C 552.199 742.617,569.449 760.078,572.306 761.820 C 578.460 765.573,589.942 765.978,596.342 762.668 C 602.752 759.353,628.761 731.996,643.246 713.333 C 682.500 662.757,712.168 605.434,735.975 534.167 C 761.894 456.575,778.766 364.898,782.597 280.833 C 783.624 258.298,783.522 257.243,779.622 250.000 C 777.112 245.339,773.107 241.091,769.042 238.777 L 762.500 235.055 500.000 235.101 C 243.958 235.146,237.350 235.226,231.413 238.363 " stroke="none" fill-rule="evenodd" fill="black"></path></svg>