<svg width="1000" height="1000" viewBox="0 0 1000 1000" version="1.1" id="svg5" inkscape:version="1.2.1 (9c6d41e410, 2022-07-14)" sodipodi:docname="あ.svg" xmlns:inkscape="http://www.inkscape.org/namespaces/inkscape" xmlns:sodipodi="http://sodipodi.sourceforge.net/DTD/sodipodi-0.dtd" xmlns="http://www.w3.org/2000/svg" xmlns:svg="http://www.w3.org/2000/svg"><path d="M153.859 158.495 C 147.808 160.255,138.776 168.618,136.521 174.549 C 131.859 186.811,137.383 201.927,148.946 208.554 L 155.833 212.500 482.836 212.937 L 809.838 213.374 809.100 221.270 C 808.694 225.613,807.174 242.667,805.723 259.167 C 787.852 462.306,723.432 642.602,627.623 757.623 L 612.747 775.483 607.710 769.825 C 604.940 766.713,550.307 707.432,486.302 638.090 C 412.371 557.994,367.875 511.038,364.296 509.340 C 353.180 504.065,341.138 506.967,332.279 517.057 C 329.437 520.295,326.604 525.645,325.984 528.947 C 323.343 543.030,319.531 538.434,459.795 690.253 C 532.077 768.489,593.121 834.250,595.447 836.389 C 601.090 841.576,610.748 843.654,619.167 841.491 C 624.402 840.145,629.599 835.956,643.374 821.972 C 752.419 711.280,829.707 523.827,856.523 305.000 C 862.407 256.980,863.940 236.632,864.055 205.000 C 864.162 175.326,864.022 173.975,860.332 169.059 C 858.223 166.250,854.098 162.500,851.165 160.726 C 845.942 157.566,838.821 157.494,502.500 157.226 C 295.857 157.060,157.053 157.566,153.859 158.495 " stroke="none" fill-rule="evenodd" fill="black"></path></svg>