<svg width="1000" height="1000" viewBox="0 0 1000 1000" version="1.1" id="svg5" inkscape:version="1.2.1 (9c6d41e410, 2022-07-14)" sodipodi:docname="う.svg" xmlns:inkscape="http://www.inkscape.org/namespaces/inkscape" xmlns:sodipodi="http://sodipodi.sourceforge.net/DTD/sodipodi-0.dtd" xmlns="http://www.w3.org/2000/svg" xmlns:svg="http://www.w3.org/2000/svg"><path d="M225.702 138.161 C 204.284 147.888,203.600 177.300,224.551 187.711 C 230.575 190.705,240.287 190.868,460.667 191.667 L 690.501 192.500 675.892 202.222 C 653.894 216.861,594.648 259.331,560.833 284.701 C 409.384 398.329,298.415 505.427,238.763 595.540 C 188.225 671.884,174.145 736.952,197.585 785.833 C 209.208 810.072,227.673 827.750,255.833 841.599 C 282.488 854.708,307.505 861.280,344.760 864.961 C 355.528 866.025,442.209 866.667,575.230 866.667 C 750.532 866.667,789.399 866.266,793.830 864.415 C 805.689 859.460,813.455 845.269,810.835 833.340 C 809.603 827.731,801.823 817.847,796.021 814.520 C 793.334 812.978,739.436 812.284,568.333 811.586 C 366.684 810.763,342.618 810.386,328.746 807.828 C 294.246 801.467,269.968 790.540,256.133 775.149 C 231.270 747.486,238.793 699.570,277.984 635.972 C 337.000 540.205,469.417 416.384,653.333 284.987 C 687.381 260.662,762.234 209.816,785.551 195.176 C 801.475 185.177,805.825 181.584,808.605 176.135 C 815.653 162.320,809.754 144.218,796.092 137.735 C 790.821 135.233,766.566 135.003,511.415 135.037 C 243.508 135.072,232.232 135.195,225.702 138.161 " stroke="none" fill-rule="evenodd" fill="black"></path></svg>