<svg width="1000" height="1000" viewBox="0 0 1000 1000" version="1.1" id="svg5" inkscape:version="1.2.1 (9c6d41e410, 2022-07-14)" sodipodi:docname="ぇ.svg" xmlns:inkscape="http://www.inkscape.org/namespaces/inkscape" xmlns:sodipodi="http://sodipodi.sourceforge.net/DTD/sodipodi-0.dtd" xmlns="http://www.w3.org/2000/svg" xmlns:svg="http://www.w3.org/2000/svg"><path d="M263.267 192.171 C 258.306 194.794,254.794 198.306,252.171 203.267 L 248.333 210.524 248.333 440.833 L 248.333 671.142 252.083 677.961 C 257.485 687.783,367.719 805.756,374.530 809.004 C 381.701 812.424,391.109 812.292,397.673 808.680 C 400.519 807.114,479.938 748.499,574.161 678.425 C 733.529 559.901,745.704 550.499,748.757 543.596 C 754.760 530.026,749.162 514.870,735.724 508.309 C 727.785 504.432,721.944 504.140,714.530 507.248 C 711.580 508.484,637.403 562.859,549.692 628.081 C 461.981 693.303,389.853 746.667,389.407 746.667 C 388.961 746.667,369.420 726.092,345.983 700.945 L 303.369 655.224 302.934 430.529 L 302.500 205.833 298.610 200.379 C 293.880 193.748,283.789 188.333,276.162 188.333 C 273.061 188.333,267.258 190.060,263.267 192.171 " stroke="none" fill-rule="evenodd" fill="black"></path></svg>