<svg width="1000" height="1000" viewBox="0 0 1000 1000" version="1.1" id="svg5" inkscape:version="1.2.1 (9c6d41e410, 2022-07-14)" sodipodi:docname="え.svg" xmlns:inkscape="http://www.inkscape.org/namespaces/inkscape" xmlns:sodipodi="http://sodipodi.sourceforge.net/DTD/sodipodi-0.dtd" xmlns="http://www.w3.org/2000/svg" xmlns:svg="http://www.w3.org/2000/svg"><path d="M200.718 101.704 C 192.572 103.432,185.591 108.373,181.824 115.077 L 178.333 121.287 178.333 422.753 C 178.333 706.756,178.502 724.522,181.250 729.457 C 184.343 735.011,322.839 884.196,332.346 892.214 C 339.256 898.041,347.971 900.166,356.246 898.042 C 364.675 895.879,812.487 564.886,817.876 556.837 C 824.713 546.623,821.858 529.325,812.063 521.621 C 806.154 516.973,796.326 514.380,789.483 515.664 C 785.266 516.455,723.810 560.987,568.281 675.949 C 449.831 763.504,352.774 834.921,352.599 834.653 C 352.424 834.386,325.518 805.525,292.807 770.519 L 233.333 706.872 233.333 415.456 L 233.333 124.040 229.583 116.701 C 223.587 104.966,212.497 99.204,200.718 101.704 " stroke="none" fill-rule="evenodd" fill="black"></path></svg>