<svg width="1000" height="1000" viewBox="0 0 1000 1000" version="1.1" id="svg5" inkscape:version="1.2.1 (9c6d41e410, 2022-07-14)" sodipodi:docname="き.svg" xmlns:inkscape="http://www.inkscape.org/namespaces/inkscape" xmlns:sodipodi="http://sodipodi.sourceforge.net/DTD/sodipodi-0.dtd" xmlns="http://www.w3.org/2000/svg" xmlns:svg="http://www.w3.org/2000/svg"><path d="M258.367 127.083 C 248.230 132.263,244.523 137.949,243.710 149.561 C 243.148 157.593,243.683 160.116,246.975 164.960 C 249.141 168.147,253.443 172.459,256.536 174.544 L 262.160 178.333 406.080 178.333 C 485.236 178.333,549.964 178.896,549.920 179.583 C 549.875 180.271,461.309 254.686,353.106 344.951 C 234.882 443.574,155.316 511.083,153.726 514.118 C 142.634 535.285,164.704 560.000,188.075 552.582 C 189.738 552.054,250.289 502.205,322.633 441.806 L 454.167 331.991 455.073 399.745 C 455.938 464.371,456.150 467.956,459.664 477.367 C 472.588 511.974,501.146 534.940,543.709 544.955 C 570.632 551.289,588.545 551.869,740.964 551.341 L 887.761 550.833 893.882 546.164 C 901.862 540.077,905.000 533.722,905.000 523.649 C 905.000 517.736,903.879 513.813,900.959 509.510 C 894.558 500.078,783.483 366.248,778.582 362.063 C 776.154 359.989,771.196 357.480,767.566 356.488 C 749.007 351.413,729.731 370.855,734.870 389.467 C 736.809 396.490,736.142 395.620,782.848 452.006 C 802.365 475.567,818.333 495.314,818.333 495.886 C 818.333 496.459,763.021 496.606,695.417 496.212 C 586.347 495.576,571.100 495.170,560.069 492.607 C 536.437 487.115,520.988 477.719,513.701 464.406 C 511.112 459.675,510.787 450.814,510.360 373.076 L 509.886 286.985 513.693 282.836 C 517.547 278.636,632.247 183.090,643.728 174.516 C 650.666 169.334,653.217 165.372,655.196 156.706 C 657.843 145.112,651.111 131.664,639.666 125.685 C 635.871 123.702,606.206 123.333,450.436 123.333 L 265.706 123.333 258.367 127.083 M353.632 562.112 C 343.734 565.280,339.477 571.238,330.132 595.000 C 312.732 639.241,289.947 679.429,265.969 708.166 C 234.568 745.800,186.952 782.105,124.334 816.159 C 101.699 828.468,97.660 832.374,94.896 844.626 C 92.331 856.001,99.004 868.193,110.702 873.506 C 120.485 877.949,125.615 877.428,138.972 870.632 C 221.687 828.552,288.194 774.533,328.531 716.667 C 350.930 684.534,378.539 628.638,388.421 595.417 C 392.204 582.697,385.502 569.006,372.631 563.161 C 365.042 559.714,361.701 559.529,353.632 562.112 M629.305 562.418 C 618.997 566.177,615.574 571.048,605.191 596.741 C 581.681 654.915,556.119 695.812,522.180 729.552 C 495.381 756.193,455.338 785.142,410.833 810.049 C 398.917 816.719,386.288 823.990,382.769 826.209 C 374.622 831.346,369.246 842.653,370.502 852.014 C 372.427 866.365,386.698 877.996,400.166 876.189 C 413.011 874.466,474.469 837.994,513.573 808.888 C 539.331 789.715,580.398 750.187,592.500 732.918 C 596.167 727.686,600.217 723.389,601.501 723.369 C 602.786 723.350,662.357 756.896,733.882 797.917 C 805.408 838.938,867.148 873.563,871.084 874.861 C 879.338 877.585,888.078 875.803,895.641 869.854 C 908.229 859.952,908.600 840.128,896.408 828.901 C 894.259 826.922,838.500 794.386,772.500 756.599 C 706.500 718.812,647.445 684.965,641.267 681.384 L 630.034 674.873 638.151 658.686 C 650.879 633.305,665.000 596.257,665.000 588.242 C 665.000 569.621,646.419 556.178,629.305 562.418 " stroke="none" fill-rule="evenodd" fill="black"></path></svg>