<svg width="1000" height="1000" viewBox="0 0 1000 1000" version="1.1" id="svg5" xmlns="http://www.w3.org/2000/svg" xmlns:svg="http://www.w3.org/2000/svg"><path d="M67.369 53.161 C 59.594 56.692,54.380 62.613,51.583 71.087 C 49.183 78.358,50.525 85.610,55.721 93.462 C 63.909 105.836,48.279 105.000,271.486 105.000 L 471.634 105.000 472.067 517.083 C 472.474 904.110,472.675 929.487,475.383 934.436 C 481.566 945.735,495.218 951.960,506.441 948.598 C 514.547 946.169,520.909 941.212,524.617 934.436 C 527.325 929.487,527.526 904.110,527.933 517.083 L 528.366 105.000 728.514 105.000 C 951.683 105.000,936.157 105.829,944.203 93.490 C 949.727 85.020,950.845 76.915,947.571 69.080 C 943.982 60.490,940.504 56.810,932.500 53.135 C 926.086 50.189,909.691 50.073,500.000 50.073 C 89.034 50.073,73.929 50.181,67.369 53.161 " stroke="none" fill-rule="evenodd" fill="#000000"></path></svg>