<svg width="1000" height="1000" viewBox="0 0 1000 1000" version="1.1" id="svg5" sodipodi:docname="与.svg" inkscape:version="1.2.1 (9c6d41e410, 2022-07-14)" xmlns:inkscape="http://www.inkscape.org/namespaces/inkscape" xmlns:sodipodi="http://sodipodi.sourceforge.net/DTD/sodipodi-0.dtd" xmlns="http://www.w3.org/2000/svg" xmlns:svg="http://www.w3.org/2000/svg"><path d="M274.167 85.686 C 268.037 88.410,262.477 94.280,260.111 100.525 C 258.896 103.731,258.333 156.554,258.333 267.346 L 258.333 429.476 262.208 436.821 C 270.105 451.790,289.108 456.161,302.357 446.055 C 311.126 439.367,312.353 435.979,313.303 415.833 L 314.167 397.500 401.667 397.500 L 489.167 397.500 489.167 487.500 L 489.167 577.500 353.750 577.926 L 218.333 578.353 218.261 527.926 C 218.221 500.192,217.557 474.231,216.785 470.236 C 215.030 461.151,210.707 455.227,202.343 450.444 C 190.291 443.552,177.373 446.700,167.619 458.904 L 162.500 465.308 162.500 540.865 C 162.500 614.917,162.569 616.515,165.987 621.127 C 167.904 623.716,171.953 627.521,174.983 629.583 L 180.493 633.333 334.135 633.333 C 418.639 633.333,488.143 633.699,488.590 634.146 C 489.037 634.592,488.775 640.211,488.008 646.631 C 486.084 662.745,478.275 683.313,466.698 702.760 C 417.725 785.024,321.528 839.373,195.833 855.792 C 184.833 857.229,159.786 859.176,140.172 860.119 C 116.466 861.259,103.056 862.591,100.172 864.092 C 82.364 873.360,79.239 897.960,94.359 909.854 C 103.243 916.842,109.377 917.464,148.117 915.310 C 255.984 909.313,340.349 884.103,411.725 836.541 C 486.657 786.610,537.584 712.968,544.297 644.839 L 545.431 633.333 680.642 633.333 L 815.853 633.333 819.622 641.548 C 829.039 662.077,856.186 663.623,867.524 644.277 L 871.667 637.207 871.667 552.500 L 871.667 467.793 867.524 460.723 C 862.943 452.907,852.457 446.667,843.903 446.667 C 835.456 446.667,824.808 453.463,820.505 461.600 C 816.724 468.750,816.667 469.671,816.667 523.595 L 816.667 578.333 680.833 578.333 L 545.000 578.333 545.000 487.500 L 545.000 396.667 632.353 396.667 L 719.705 396.667 720.269 414.713 C 720.768 430.677,721.311 433.454,724.971 438.790 C 734.887 453.245,754.150 455.886,766.408 444.472 C 775.551 435.960,775.122 444.549,775.093 270.383 C 775.078 181.714,775.051 107.130,775.033 104.641 C 774.992 99.016,766.186 88.659,758.830 85.585 C 750.890 82.268,281.638 82.365,274.167 85.686 M720.000 240.000 L 720.000 341.667 516.667 341.667 L 313.333 341.667 313.333 241.111 C 313.333 185.806,313.833 140.056,314.444 139.444 C 315.056 138.833,406.556 138.333,517.778 138.333 L 720.000 138.333 720.000 240.000 " stroke="none" fill-rule="evenodd" fill="#000000"></path></svg>