<svg width="1000" height="1000" viewBox="0 0 1000 1000" version="1.1" id="svg5" xmlns="http://www.w3.org/2000/svg" xmlns:svg="http://www.w3.org/2000/svg"><path d="M192.125 76.660 C 176.325 80.292,166.458 97.315,172.009 111.366 C 174.536 117.764,301.095 311.196,307.291 318.131 C 315.113 326.886,328.831 329.031,340.132 323.266 C 351.021 317.711,357.256 303.802,353.822 292.726 C 351.980 286.784,224.028 91.691,217.214 84.435 C 210.674 77.471,201.272 74.557,192.125 76.660 M798.538 76.711 C 789.591 78.758,784.583 83.530,778.369 95.931 C 749.897 152.748,725.046 189.305,680.431 240.000 C 658.264 265.188,606.649 316.112,585.353 333.805 L 569.873 346.667 345.687 346.667 C 99.761 346.667,116.771 345.952,107.763 356.659 C 96.547 369.987,99.908 388.508,115.174 397.500 C 120.771 400.796,124.596 400.843,460.648 401.667 L 800.463 402.500 635.976 555.460 C 545.508 639.588,470.719 707.944,469.777 707.362 C 468.836 706.781,432.178 676.437,388.315 639.933 C 344.453 603.429,306.667 572.318,304.347 570.798 C 302.027 569.278,296.895 567.985,292.944 567.925 C 270.061 567.580,256.179 592.226,269.263 609.970 C 273.740 616.042,634.457 917.808,642.175 921.939 C 647.813 924.956,660.564 924.284,666.802 920.641 C 678.930 913.558,683.992 899.904,679.172 887.281 C 676.533 880.372,669.195 873.821,595.712 812.769 C 551.400 775.955,515.300 744.997,515.489 743.974 C 515.742 742.608,781.076 495.090,887.793 396.668 C 897.395 387.813,901.128 379.035,899.342 369.514 C 897.896 361.805,892.062 353.404,885.489 349.566 C 880.416 346.603,874.661 346.459,767.354 346.609 L 654.552 346.766 683.338 317.157 C 734.533 264.498,767.738 223.436,797.107 176.466 C 809.640 156.424,827.899 120.994,830.854 110.987 C 836.737 91.064,818.828 72.070,798.538 76.711 " stroke="none" fill-rule="evenodd" fill="black"></path></svg>