<svg width="1000" height="1000" viewBox="0 0 1000 1000" version="1.1" id="svg5" inkscape:version="1.2.1 (9c6d41e410, 2022-07-14)" sodipodi:docname="傾.svg" xmlns:inkscape="http://www.inkscape.org/namespaces/inkscape" xmlns:sodipodi="http://sodipodi.sourceforge.net/DTD/sodipodi-0.dtd" xmlns="http://www.w3.org/2000/svg" xmlns:svg="http://www.w3.org/2000/svg"><path d="M810.833 56.618 C 701.306 92.290,304.807 220.483,295.780 223.141 C 283.271 226.824,275.127 233.286,271.769 242.192 C 270.712 244.996,269.998 262.098,269.996 284.692 C 269.994 305.486,269.235 340.125,268.309 361.667 C 258.701 585.181,228.844 753.835,181.781 850.439 C 173.391 867.662,164.510 881.965,149.729 902.061 C 143.611 910.378,142.712 912.697,142.821 919.884 C 143.057 935.516,154.565 947.051,169.925 947.051 C 180.921 947.051,186.701 943.227,198.215 928.333 C 272.307 832.494,316.072 623.587,324.916 323.546 C 325.736 295.705,327.029 272.376,327.787 271.703 C 328.546 271.031,437.167 235.502,569.167 192.750 C 701.167 149.997,818.167 112.084,829.167 108.497 C 846.364 102.891,849.921 101.104,854.553 95.745 C 864.020 84.794,863.856 70.945,854.133 60.183 C 848.996 54.497,839.489 49.909,833.140 50.052 C 831.871 50.081,821.833 53.035,810.833 56.618 " stroke="none" fill-rule="evenodd" fill="#000000"></path></svg>