<svg width="1000" height="1000" viewBox="0 0 1000 1000" version="1.1" id="svg5" xmlns="http://www.w3.org/2000/svg" xmlns:svg="http://www.w3.org/2000/svg"><path d="M150.833 137.260 C 144.672 140.112,139.125 145.996,136.793 152.153 C 135.575 155.368,135.016 263.445,134.984 501.906 L 134.939 847.007 138.387 852.586 C 140.283 855.655,144.334 859.710,147.390 861.598 L 152.945 865.032 500.000 865.032 L 847.055 865.032 852.610 861.598 C 855.666 859.710,859.717 855.655,861.613 852.586 L 865.061 847.007 865.016 501.748 C 864.966 124.566,865.662 150.060,855.178 141.238 C 841.685 129.886,820.449 134.653,813.176 150.668 C 810.184 157.255,810.072 169.191,810.037 483.750 L 810.000 810.000 500.000 810.000 L 190.000 810.000 190.000 483.860 L 190.000 157.719 186.524 150.538 C 184.612 146.588,180.743 141.716,177.926 139.710 C 171.615 135.216,157.923 133.978,150.833 137.260 " stroke="none" fill-rule="evenodd" fill="#000000"></path></svg>