<svg width="1000" height="1000" viewBox="0 0 1000 1000" version="1.1" id="svg5" xmlns="http://www.w3.org/2000/svg" xmlns:svg="http://www.w3.org/2000/svg"><path d="M209.132 101.549 C 196.156 104.661,188.333 114.734,188.333 128.333 C 188.333 138.933,192.490 146.500,201.334 151.999 L 207.500 155.833 443.861 156.667 L 680.221 157.500 440.711 362.500 C 308.980 475.250,194.367 573.173,186.017 580.108 C 136.563 621.172,107.848 668.509,101.491 719.451 C 95.170 770.096,117.700 823.134,160.010 857.216 C 178.232 871.894,208.079 886.789,230.833 892.561 C 240.202 894.937,256.988 897.521,269.167 898.460 C 282.864 899.518,399.034 899.955,585.000 899.650 L 879.167 899.167 885.244 895.387 C 896.011 888.692,901.129 876.727,898.028 865.498 C 896.351 859.423,801.315 674.433,793.972 662.950 C 785.709 650.027,768.582 646.557,755.791 655.214 C 748.047 660.455,742.654 671.540,743.776 679.907 C 744.286 683.708,760.740 717.334,784.814 763.773 C 806.916 806.409,825.000 841.753,825.000 842.313 C 825.000 842.874,699.066 843.333,545.147 843.333 C 311.320 843.333,263.282 842.947,253.063 840.985 C 190.841 829.038,149.672 779.338,156.617 724.557 C 161.224 688.220,182.481 654.649,221.602 621.922 C 232.179 613.073,358.583 505.088,502.500 381.954 C 646.417 258.820,768.082 154.734,772.867 150.651 C 782.692 142.267,785.991 134.134,784.102 122.952 C 782.653 114.376,773.428 103.980,765.253 101.709 C 758.197 99.749,217.285 99.593,209.132 101.549 " stroke="none" fill-rule="evenodd" fill="black"></path></svg>