<svg width="1000" height="1000" viewBox="0 0 1000 1000" version="1.1" id="svg5" xmlns="http://www.w3.org/2000/svg" xmlns:svg="http://www.w3.org/2000/svg"><path d="M146.949 51.654 C 140.789 53.111,132.623 60.100,129.018 67.001 C 127.012 70.841,126.667 134.588,126.667 501.337 L 126.667 931.174 130.466 936.811 C 135.459 944.221,145.775 949.942,154.167 949.956 C 157.889 949.963,164.882 948.062,170.000 945.652 C 175.042 943.278,192.667 935.479,209.167 928.321 C 387.901 850.776,513.986 768.858,678.333 623.501 C 743.684 565.702,862.989 451.512,869.338 440.687 C 881.534 419.890,863.525 396.154,839.037 400.748 C 833.880 401.715,826.658 408.003,794.302 439.701 C 607.911 622.296,473.650 729.364,334.167 806.640 C 294.685 828.514,212.120 868.533,183.750 879.548 C 182.087 880.194,181.667 798.791,181.667 475.929 C 181.667 131.051,181.320 70.838,179.315 67.001 C 175.786 60.245,167.954 53.470,161.552 51.634 C 155.188 49.809,154.749 49.809,146.949 51.654 " stroke="none" fill-rule="evenodd" fill="#000000"></path></svg>