<svg width="1000" height="1000" viewBox="0 0 1000 1000" version="1.1" id="svg5" xmlns="http://www.w3.org/2000/svg" xmlns:svg="http://www.w3.org/2000/svg"><path d="M189.845 163.875 C 185.266 166.291,181.098 170.214,178.777 174.292 L 175.055 180.833 175.027 482.083 L 175.000 783.333 128.750 783.373 C 103.313 783.395,79.604 784.085,76.064 784.906 C 63.259 787.877,54.152 800.591,55.415 813.733 C 56.613 826.196,64.959 835.466,77.629 838.404 C 86.343 840.425,913.657 840.425,922.371 838.404 C 935.041 835.466,943.387 826.196,944.585 813.733 C 945.848 800.591,936.741 787.877,923.936 784.906 C 920.396 784.085,896.688 783.395,871.250 783.373 L 825.000 783.333 824.973 482.083 L 824.945 180.833 821.223 174.292 C 818.902 170.214,814.734 166.291,810.155 163.875 L 802.809 160.000 500.000 160.000 L 197.191 160.000 189.845 163.875 M770.000 500.000 L 770.000 783.333 500.000 783.333 L 230.000 783.333 230.000 500.000 L 230.000 216.667 500.000 216.667 L 770.000 216.667 770.000 500.000 " stroke="none" fill-rule="evenodd" fill="#000000"></path></svg>