<svg width="1000" height="1000" viewBox="0 0 1000 1000" version="1.1" id="svg5" xmlns="http://www.w3.org/2000/svg" xmlns:svg="http://www.w3.org/2000/svg"><path d="M488.367 53.750 C 479.723 58.167,475.349 63.634,473.262 72.629 C 472.416 76.279,471.729 142.653,471.706 222.917 L 471.667 366.667 314.413 366.667 L 157.160 366.667 151.536 370.456 C 141.789 377.025,137.939 384.412,138.687 395.109 C 139.486 406.541,144.009 413.416,153.871 418.190 C 160.993 421.638,162.329 421.667,316.360 421.667 L 471.667 421.667 471.667 658.333 L 471.667 895.000 271.502 895.000 C 48.315 895.000,63.843 894.171,55.797 906.510 C 50.273 914.980,49.155 923.085,52.429 930.920 C 56.018 939.510,59.496 943.190,67.500 946.865 C 73.914 949.811,90.309 949.927,500.000 949.927 C 909.691 949.927,926.086 949.811,932.500 946.865 C 949.096 939.245,954.161 921.780,944.203 906.510 C 936.157 894.171,951.685 895.000,728.498 895.000 L 528.333 895.000 528.333 658.333 L 528.333 421.667 683.640 421.667 C 837.671 421.667,839.007 421.638,846.129 418.190 C 855.991 413.416,860.514 406.541,861.313 395.109 C 862.061 384.412,858.211 377.025,848.464 370.456 L 842.840 366.667 685.587 366.667 L 528.333 366.667 528.294 222.917 C 528.271 142.653,527.584 76.279,526.738 72.629 C 525.904 69.033,523.815 64.158,522.096 61.796 C 518.328 56.615,505.936 50.000,500.000 50.000 C 497.638 50.000,492.404 51.688,488.367 53.750 " stroke="none" fill-rule="evenodd" fill="#000000"></path></svg>