<svg width="1000" height="1000" viewBox="0 0 1000 1000" version="1.1" id="svg5" xmlns="http://www.w3.org/2000/svg" xmlns:svg="http://www.w3.org/2000/svg"><path d="M497.759 52.377 C 489.972 55.219,484.384 60.252,480.927 67.538 C 478.625 72.389,478.333 95.319,478.333 271.511 L 478.333 470.017 324.583 469.592 L 170.833 469.167 170.000 328.872 C 169.174 189.782,169.137 188.536,165.680 183.872 C 163.762 181.284,159.637 177.413,156.513 175.269 C 148.620 169.853,134.571 170.722,126.145 177.149 C 114.352 186.144,114.857 177.956,115.372 351.797 L 115.833 507.760 120.323 513.646 C 129.565 525.762,117.008 525.000,307.335 525.000 L 478.333 525.000 478.333 545.066 C 478.333 570.084,475.945 592.376,470.841 615.000 C 466.920 632.380,455.359 667.915,450.684 676.955 C 448.322 681.524,448.073 681.600,442.872 679.344 C 439.917 678.063,387.625 653.606,326.667 624.995 C 265.708 596.385,213.072 572.590,209.698 572.117 C 197.036 570.345,182.780 581.846,180.542 595.638 C 179.199 603.914,183.923 615.701,190.565 620.646 C 193.463 622.803,246.083 648.032,307.500 676.709 C 368.917 705.386,419.753 729.357,420.469 729.977 C 422.683 731.894,397.463 764.001,379.530 782.098 C 344.232 817.719,304.636 843.568,255.227 863.246 C 210.194 881.180,161.965 890.557,101.461 893.142 C 73.688 894.328,69.794 894.855,64.461 898.151 C 46.657 909.155,46.766 934.202,64.667 945.333 C 70.437 948.920,72.332 949.140,94.167 948.754 C 252.113 945.957,382.250 882.277,462.309 768.611 C 469.173 758.867,472.899 754.951,474.796 755.488 C 476.283 755.909,543.426 787.159,624.001 824.932 C 780.319 898.213,777.729 897.179,789.616 891.032 C 800.895 885.200,806.596 873.235,804.205 860.417 C 801.764 847.332,800.013 846.380,645.606 774.204 C 566.648 737.295,501.258 706.611,500.295 706.016 C 499.157 705.312,499.952 701.756,502.571 695.833 C 521.834 652.276,533.311 598.008,533.326 550.417 L 533.333 525.000 687.500 525.000 L 841.667 525.000 841.667 541.314 C 841.667 554.946,842.283 558.833,845.417 564.966 C 850.596 575.103,856.282 578.810,867.894 579.623 C 875.913 580.184,878.438 579.651,883.180 576.398 C 895.349 568.047,895.742 566.706,896.667 530.300 C 897.125 512.260,897.125 427.992,896.667 343.038 C 895.839 189.570,895.811 188.545,892.347 183.871 C 890.429 181.284,886.304 177.413,883.180 175.269 C 878.438 172.016,875.913 171.483,867.894 172.044 C 856.282 172.856,850.596 176.564,845.417 186.701 L 841.667 194.040 841.667 332.028 L 841.667 470.017 687.917 469.592 L 534.167 469.167 533.333 269.167 C 532.539 78.540,532.356 68.929,529.425 64.090 C 522.819 53.185,509.272 48.174,497.759 52.377 " stroke="none" fill-rule="evenodd" fill="#000000"></path></svg>