<svg width="1000" height="1000" viewBox="0 0 1000 1000" version="1.1" id="svg5" xmlns="http://www.w3.org/2000/svg" xmlns:svg="http://www.w3.org/2000/svg"><path d="M158.189 51.585 C 146.400 55.180,138.333 66.208,138.333 78.730 C 138.333 87.454,143.056 95.496,151.536 101.210 L 157.160 105.000 314.413 105.000 L 471.667 105.000 471.667 264.134 L 471.667 423.268 271.250 423.717 C 84.905 424.135,70.463 424.369,65.564 427.050 C 54.265 433.233,48.040 446.885,51.402 458.108 C 53.831 466.214,58.788 472.576,65.564 476.283 C 70.463 478.964,84.903 479.198,271.221 479.616 L 471.608 480.065 472.054 704.616 C 472.470 913.845,472.697 929.526,475.383 934.436 C 479.091 941.212,485.453 946.169,493.559 948.598 C 504.782 951.960,518.434 945.735,524.617 934.436 C 527.303 929.526,527.530 913.845,527.946 704.616 L 528.392 480.065 728.779 479.616 C 915.097 479.198,929.537 478.964,934.436 476.283 C 945.735 470.101,951.960 456.448,948.598 445.226 C 946.169 437.120,941.212 430.758,934.436 427.050 C 929.537 424.369,915.095 424.135,728.750 423.717 L 528.333 423.268 528.333 264.134 L 528.333 105.000 685.587 105.000 L 842.840 105.000 848.464 101.210 C 851.557 99.126,855.793 94.890,857.877 91.797 C 865.550 80.412,860.948 62.307,848.397 54.501 L 842.500 50.833 502.500 50.552 C 315.500 50.397,160.560 50.862,158.189 51.585 " stroke="none" fill-rule="evenodd" fill="#000000"></path></svg>