<svg width="1000" height="1000" viewBox="0 0 1000 1000" version="1.1" id="svg5" xmlns="http://www.w3.org/2000/svg" xmlns:svg="http://www.w3.org/2000/svg"><path d="M442.181 73.245 C 438.324 74.996,433.597 78.899,431.627 81.958 C 428.059 87.501,75.151 884.740,70.532 897.694 C 67.413 906.440,69.679 915.954,76.820 924.087 C 85.298 933.743,98.371 935.723,111.847 929.391 C 114.956 927.931,259.625 870.093,433.333 800.863 C 707.645 691.539,749.417 675.330,751.072 677.570 C 752.119 678.988,780.916 733.178,815.065 797.991 C 849.214 862.804,879.025 918.360,881.313 921.448 C 896.977 942.595,930.000 931.274,930.000 904.757 C 930.000 898.701,920.511 879.711,862.301 769.274 C 825.067 698.631,788.002 628.458,779.935 613.333 C 771.867 598.208,738.587 535.273,705.977 473.476 C 673.368 411.680,645.370 359.633,643.760 357.818 C 638.781 352.202,627.105 347.885,620.246 349.125 C 611.651 350.679,602.661 357.039,599.427 363.853 C 592.916 377.574,591.383 374.021,659.583 503.214 C 694.188 568.765,722.713 623.204,722.973 624.190 C 723.428 625.916,154.011 853.912,151.612 852.965 C 150.964 852.709,222.338 689.750,310.220 490.833 C 398.102 291.917,472.704 122.911,476.003 115.266 C 483.311 98.325,482.957 90.151,474.497 80.515 C 465.224 69.953,454.663 67.578,442.181 73.245 " stroke="none" fill-rule="evenodd" fill="black"></path></svg>