<svg width="1000" height="1000" viewBox="0 0 1000 1000" version="1.1" id="svg5" xmlns="http://www.w3.org/2000/svg" xmlns:svg="http://www.w3.org/2000/svg"><path d="M119.568 90.716 C 111.789 93.491,109.318 95.514,104.828 102.779 C 97.769 114.201,101.685 132.375,113.029 140.833 C 117.459 144.136,120.441 144.171,441.250 144.596 C 619.313 144.832,764.990 145.582,764.978 146.262 C 764.938 148.475,474.973 315.833,471.180 315.833 C 469.156 315.833,429.336 296.021,382.690 271.806 C 310.898 234.535,296.799 227.778,290.836 227.778 C 276.655 227.778,265.000 240.386,265.000 255.726 C 265.000 264.643,267.689 270.658,274.435 276.829 C 277.037 279.211,318.401 301.514,366.355 326.392 C 414.309 351.270,455.184 372.788,457.188 374.210 C 460.676 376.683,460.545 376.752,454.167 375.803 C 449.090 375.048,445.711 375.728,440.000 378.656 C 432.926 382.282,423.652 395.624,276.667 613.641 C 190.958 740.769,116.414 851.196,111.012 859.035 C 102.064 872.021,101.190 874.072,101.190 882.100 C 101.190 892.636,104.623 899.938,112.343 905.827 C 121.412 912.744,127.231 912.788,151.151 906.119 C 210.202 889.657,717.298 758.199,720.021 758.647 C 721.853 758.949,747.391 789.247,780.865 830.833 C 812.592 870.250,840.189 903.808,842.192 905.406 C 844.195 907.005,848.758 909.127,852.332 910.121 C 869.304 914.843,887.787 896.214,884.344 877.858 C 882.927 870.306,882.931 870.311,818.046 789.785 C 787.490 751.861,759.116 716.561,754.994 711.338 C 725.647 674.157,629.880 556.154,624.363 550.377 C 612.129 537.565,597.425 537.388,586.107 549.916 C 576.432 560.626,575.818 574.392,584.474 586.527 C 587.055 590.145,610.087 619.049,635.655 650.758 C 661.224 682.468,681.849 708.629,681.489 708.896 C 680.088 709.931,194.133 836.309,193.583 835.781 C 193.262 835.473,256.599 740.875,334.333 625.562 C 415.348 505.382,476.367 413.282,477.306 409.761 C 479.679 400.870,476.173 390.634,468.125 382.959 C 464.545 379.545,462.940 377.242,464.558 377.841 C 466.176 378.440,507.035 399.474,555.355 424.583 C 603.675 449.691,645.963 470.995,649.330 471.924 C 654.132 473.250,657.022 473.014,662.754 470.825 C 679.952 464.257,685.996 442.147,674.872 426.495 C 672.797 423.575,648.871 410.240,601.727 385.726 C 563.194 365.690,531.667 348.849,531.667 348.302 C 531.667 347.230,873.355 148.385,879.005 146.168 C 886.160 143.361,893.861 135.898,897.056 128.674 C 903.295 114.571,897.561 98.235,884.057 91.642 C 877.358 88.371,873.034 88.334,501.557 88.406 C 191.672 88.467,124.735 88.871,119.568 90.716 " stroke="none" fill-rule="evenodd" fill="black"></path></svg>