<svg width="1000" height="1000" viewBox="0 0 1000 1000" version="1.1" id="svg5" sodipodi:docname="彼.svg" inkscape:version="1.2.1 (9c6d41e410, 2022-07-14)" xmlns:inkscape="http://www.inkscape.org/namespaces/inkscape" xmlns:sodipodi="http://sodipodi.sourceforge.net/DTD/sodipodi-0.dtd" xmlns="http://www.w3.org/2000/svg" xmlns:svg="http://www.w3.org/2000/svg"><path d="M464.167 94.903 C 171.070 95.807,162.351 95.924,157.240 99.017 C 149.006 104.000,144.467 113.550,145.338 124.057 C 146.239 134.923,150.946 141.880,160.538 146.524 L 167.719 150.000 455.526 150.000 L 743.333 150.000 743.333 278.333 L 743.333 406.667 451.913 406.667 L 160.493 406.667 154.983 410.417 C 151.953 412.479,147.904 416.284,145.987 418.873 C 142.507 423.569,142.500 423.902,142.500 579.706 C 142.500 743.210,142.764 750.309,150.060 783.333 C 164.133 847.029,198.023 882.182,258.326 895.633 C 274.147 899.162,274.549 899.167,576.667 899.167 L 879.167 899.167 885.244 895.387 C 896.011 888.692,901.129 876.727,898.028 865.498 C 896.351 859.423,801.315 674.433,793.972 662.950 C 785.709 650.027,768.582 646.557,755.791 655.214 C 748.047 660.455,742.654 671.540,743.776 679.907 C 744.286 683.708,760.740 717.334,784.814 763.773 C 806.916 806.409,825.000 841.753,825.000 842.313 C 825.000 842.874,702.188 843.320,552.083 843.304 C 253.837 843.273,267.429 843.702,245.979 833.630 C 226.655 824.555,216.854 812.423,208.432 787.147 C 198.064 756.034,197.785 751.425,197.098 599.597 L 196.474 461.694 489.617 461.264 L 782.760 460.833 788.731 456.279 C 800.704 447.146,800.151 456.342,799.632 275.000 L 799.167 112.500 795.350 107.150 C 789.452 98.880,782.736 94.910,773.809 94.415 C 769.422 94.172,630.083 94.391,464.167 94.903 " stroke="none" fill-rule="evenodd" fill="black"></path></svg>