<svg width="1000" height="1000" viewBox="0 0 1000 1000" version="1.1" id="svg5" xmlns="http://www.w3.org/2000/svg" xmlns:svg="http://www.w3.org/2000/svg"><path d="M279.167 51.838 C 272.786 53.800,267.834 58.003,263.470 65.161 C 260.054 70.765,260.012 72.306,260.006 192.862 L 260.000 314.892 192.785 315.362 L 125.570 315.833 119.474 320.484 C 105.934 330.815,103.818 347.397,114.429 360.008 C 122.935 370.117,122.010 370.000,193.515 370.000 L 258.862 370.000 257.774 402.487 C 253.567 528.082,222.753 654.161,172.635 750.833 C 144.142 805.794,122.335 835.829,78.246 880.833 C 56.362 903.171,51.934 908.531,50.966 913.854 C 47.069 935.277,70.836 953.691,89.464 943.680 C 104.656 935.516,149.793 887.572,174.521 853.333 C 232.755 772.704,277.882 660.133,297.456 546.667 C 299.907 532.458,302.452 518.208,303.111 515.000 L 304.308 509.167 319.098 529.167 C 459.281 718.729,660.477 865.200,882.500 939.325 C 914.217 949.914,916.177 950.358,922.929 948.493 C 937.711 944.407,946.646 929.678,943.036 915.343 C 940.331 904.601,933.124 898.267,918.264 893.573 C 824.850 864.063,723.693 815.335,640.228 759.641 C 598.056 731.500,540.455 687.211,542.879 684.788 C 544.848 682.819,791.483 550.000,793.170 550.000 C 793.980 550.000,795.006 550.938,795.449 552.083 C 815.816 604.786,847.513 685.135,849.294 688.580 C 857.111 703.696,876.426 708.543,889.871 698.763 C 896.327 694.067,902.029 682.007,901.108 675.000 C 900.686 671.792,870.076 591.579,833.087 496.751 C 760.117 309.680,762.896 315.743,748.450 312.076 C 730.859 307.611,714.185 320.961,714.658 339.129 C 714.773 343.548,724.504 370.540,743.198 418.302 C 758.799 458.159,771.024 491.291,770.365 491.928 C 767.031 495.149,544.088 614.322,543.623 613.132 C 543.325 612.366,575.762 511.589,615.707 389.183 C 666.084 234.807,688.333 164.409,688.333 159.392 C 688.333 150.893,683.523 142.779,675.131 137.123 C 664.569 130.005,647.183 133.246,639.723 143.722 C 637.774 146.460,601.055 256.351,558.125 387.925 C 515.196 519.499,479.607 627.604,479.040 628.159 C 477.389 629.772,429.110 578.218,401.832 545.714 C 375.053 513.805,338.755 463.845,321.112 434.612 C 313.603 422.170,313.333 421.269,313.333 408.613 C 313.333 401.403,313.816 389.789,314.407 382.805 L 315.480 370.107 382.620 369.637 C 447.448 369.183,449.918 369.048,454.360 365.730 C 462.253 359.835,465.508 354.029,466.177 344.652 C 467.018 332.868,462.048 323.961,451.723 318.750 C 444.399 315.053,443.376 315.000,379.647 315.000 L 315.000 315.000 315.000 194.275 C 315.000 112.809,314.422 72.025,313.222 68.858 C 310.694 62.187,305.213 56.710,297.500 53.150 C 290.183 49.773,286.695 49.523,279.167 51.838 " stroke="none" fill-rule="evenodd" fill="black"></path></svg>