<svg width="1000" height="1000" viewBox="0 0 1000 1000" version="1.1" id="svg5" xmlns="http://www.w3.org/2000/svg" xmlns:svg="http://www.w3.org/2000/svg"><path d="M316.523 51.541 C 301.811 56.177,297.703 63.432,293.281 92.583 C 281.416 170.814,255.617 263.792,224.297 341.199 C 180.859 448.556,131.900 526.864,69.122 589.392 C 57.218 601.249,53.451 606.136,52.094 611.479 C 46.780 632.415,66.150 651.442,86.141 644.923 C 96.860 641.428,135.968 600.990,163.679 564.749 C 231.925 475.495,289.513 348.465,326.013 206.667 C 330.142 190.625,334.041 176.995,334.677 176.377 C 335.920 175.170,854.991 177.769,856.210 178.988 C 856.958 179.736,546.521 643.839,542.288 648.300 C 540.249 650.449,531.435 642.276,473.724 584.724 C 437.301 548.401,405.862 517.854,403.860 516.841 C 398.852 514.309,387.679 514.532,381.060 517.298 C 370.529 521.698,363.532 535.596,365.725 547.756 C 366.767 553.534,385.000 572.307,550.524 738.026 C 651.527 839.148,736.287 923.427,738.877 925.313 C 759.654 940.435,788.114 921.076,781.605 896.250 C 779.955 889.957,768.665 878.068,680.391 789.665 L 581.035 690.164 607.601 650.374 C 622.212 628.489,700.167 512.237,780.833 392.036 C 861.500 271.834,929.705 170.023,932.400 165.787 C 941.492 151.497,936.999 132.825,922.855 126.113 C 916.430 123.065,890.596 122.714,526.678 120.731 C 427.226 120.189,345.695 119.584,345.499 119.388 C 345.302 119.191,346.265 111.561,347.638 102.432 C 350.990 80.136,350.955 73.349,347.445 65.954 C 342.351 55.218,327.225 48.168,316.523 51.541 " stroke="none" fill-rule="evenodd" fill="black"></path></svg>