<svg width="1000" height="1000" viewBox="0 0 1000 1000" version="1.1" id="svg5" sodipodi:docname="手.svg" inkscape:version="1.2.1 (9c6d41e410, 2022-07-14)" xmlns:inkscape="http://www.inkscape.org/namespaces/inkscape" xmlns:sodipodi="http://sodipodi.sourceforge.net/DTD/sodipodi-0.dtd" xmlns="http://www.w3.org/2000/svg" xmlns:svg="http://www.w3.org/2000/svg"><path d="M70.614 51.807 C 63.670 53.828,53.798 64.996,52.409 72.401 C 50.055 84.945,55.757 96.667,67.282 102.977 C 72.115 105.622,87.293 105.866,272.917 106.283 L 473.333 106.732 473.333 328.377 L 473.333 550.021 347.917 549.594 L 222.500 549.167 221.667 408.871 C 220.840 269.781,220.803 268.536,217.347 263.871 C 215.429 261.284,211.304 257.413,208.180 255.269 C 203.438 252.016,200.913 251.483,192.894 252.044 C 181.282 252.856,175.596 256.564,170.417 266.701 L 166.667 274.040 166.667 428.740 C 166.667 599.873,166.069 590.561,177.610 599.364 L 183.906 604.167 326.305 604.611 L 468.704 605.055 467.534 612.944 C 463.476 640.328,449.573 682.426,434.066 714.289 C 385.784 813.491,303.195 874.550,196.254 890.102 C 189.606 891.069,172.420 892.465,158.062 893.204 C 135.562 894.363,131.144 895.051,126.063 898.191 C 110.564 907.771,107.975 928.308,120.667 941.000 C 128.796 949.129,135.271 950.175,166.009 948.323 C 244.432 943.596,306.872 922.380,367.091 880.000 C 385.462 867.071,420.939 833.063,436.638 813.333 C 477.893 761.484,507.459 696.380,520.844 627.906 C 523.130 616.212,525.000 606.275,525.000 605.822 C 525.000 605.370,582.375 605.000,652.500 605.000 L 780.000 605.000 780.037 621.250 C 780.096 647.568,787.520 658.316,806.558 659.647 C 814.215 660.182,816.824 659.615,821.513 656.398 C 833.588 648.112,834.076 646.507,835.000 611.969 C 835.458 594.844,835.458 510.575,835.000 424.704 C 834.172 269.545,834.145 268.546,830.680 263.871 C 823.951 254.791,816.846 251.301,806.558 252.020 C 795.116 252.820,787.503 257.806,783.176 267.335 C 780.231 273.819,780.071 281.189,780.037 412.094 L 780.000 550.021 654.583 549.594 L 529.167 549.167 528.744 327.917 L 528.321 106.667 724.079 106.667 C 854.977 106.667,922.550 106.085,928.027 104.910 C 936.708 103.048,945.791 95.854,948.519 88.679 C 949.333 86.536,950.000 81.358,950.000 77.172 C 950.000 67.808,945.441 59.916,936.999 54.667 L 930.833 50.833 503.333 50.560 C 249.976 50.399,73.707 50.907,70.614 51.807 " stroke="none" fill-rule="evenodd" fill="#000000"></path></svg>