<svg width="1000" height="1000" viewBox="0 0 1000 1000" version="1.1" id="svg5" xmlns="http://www.w3.org/2000/svg" xmlns:svg="http://www.w3.org/2000/svg"><path d="M192.325 51.566 C 169.307 57.115,164.521 87.970,184.549 101.695 L 190.587 105.833 328.931 106.297 L 467.276 106.760 440.433 133.797 C 424.078 150.270,413.147 162.610,412.457 165.380 L 411.324 169.926 309.281 170.380 L 207.238 170.833 201.354 175.323 C 189.316 184.506,190.000 174.624,190.000 339.309 C 190.000 486.135,190.027 487.337,193.493 494.497 C 202.687 513.489,227.672 515.179,240.730 497.693 C 243.412 494.102,244.296 490.008,244.754 479.046 L 245.342 465.000 485.833 465.000 L 726.325 465.000 726.912 479.046 C 727.371 490.008,728.254 494.102,730.936 497.693 C 736.831 505.585,742.638 508.841,752.014 509.510 C 763.575 510.335,772.366 505.440,777.792 495.155 L 781.667 487.809 781.667 339.573 C 781.667 174.593,782.352 184.506,770.312 175.323 L 764.427 170.833 623.880 170.389 C 546.579 170.144,483.333 169.387,483.333 168.705 C 483.333 168.024,497.021 153.805,513.750 137.108 L 544.167 106.749 662.623 106.291 L 781.080 105.833 787.118 101.695 C 804.121 90.042,804.121 66.623,787.117 54.971 L 781.078 50.833 489.289 50.576 C 328.805 50.434,195.171 50.880,192.325 51.566 M457.953 257.929 L 458.405 290.025 352.119 289.596 L 245.833 289.167 245.377 259.223 C 245.126 242.754,245.292 228.310,245.746 227.127 C 246.411 225.394,267.103 225.059,352.036 225.404 L 457.500 225.833 457.953 257.929 M725.833 257.500 L 725.833 289.167 619.583 289.596 L 513.333 290.025 513.333 258.623 C 513.333 241.353,513.839 226.717,514.457 226.099 C 515.075 225.481,562.887 225.168,620.707 225.404 L 725.833 225.833 725.833 257.500 M457.953 377.083 L 457.500 409.167 351.667 409.167 L 245.833 409.167 245.377 379.223 C 245.126 362.754,245.290 348.316,245.741 347.139 C 246.397 345.429,267.804 345.000,352.484 345.000 L 458.405 345.000 457.953 377.083 M725.833 377.500 L 725.833 409.167 620.000 409.167 L 514.167 409.167 513.714 377.071 L 513.261 344.975 619.547 345.404 L 725.833 345.833 725.833 377.500 M276.617 518.750 C 272.534 520.813,267.500 525.048,265.430 528.163 L 261.667 533.826 261.667 615.246 L 261.667 696.667 168.026 696.667 C 76.362 696.667,74.233 696.740,67.169 700.160 C 48.178 709.354,46.488 734.338,63.974 747.397 C 68.478 750.761,70.589 750.843,163.680 751.290 L 258.785 751.747 257.616 766.290 C 256.080 785.389,250.848 816.030,246.453 831.667 C 244.521 838.542,238.983 852.417,234.147 862.500 C 227.139 877.113,222.801 883.605,212.771 894.494 C 197.993 910.536,194.949 917.694,198.236 928.667 C 203.860 947.438,225.458 954.875,241.394 943.528 C 254.933 933.887,273.658 908.556,284.874 884.709 C 298.614 855.494,307.738 820.128,311.671 780.833 C 312.680 770.750,313.876 760.063,314.328 757.083 L 315.151 751.667 491.742 751.667 L 668.333 751.667 668.333 810.142 L 668.333 868.617 660.417 862.883 C 634.585 844.171,628.719 841.755,616.871 844.945 C 608.647 847.159,598.935 857.597,597.379 865.895 C 595.984 873.328,598.814 883.509,603.810 889.034 C 605.839 891.279,621.750 903.063,639.167 915.221 C 656.583 927.379,674.038 939.772,677.955 942.761 C 690.287 952.174,703.801 952.211,714.451 942.860 C 725.245 933.382,725.000 935.793,725.000 839.257 L 725.000 751.741 828.212 751.287 C 929.496 750.842,931.510 750.769,936.026 747.397 C 943.593 741.746,947.086 735.726,947.937 726.870 C 949.025 715.549,943.146 705.153,932.831 700.160 C 925.749 696.732,923.740 696.667,825.307 696.667 L 725.000 696.667 725.000 618.739 C 725.000 572.655,724.330 538.476,723.361 535.097 C 721.195 527.543,712.426 518.702,705.074 516.660 C 701.343 515.623,622.681 515.015,491.603 515.009 L 284.040 515.000 276.617 518.750 M668.333 634.167 L 668.333 696.667 492.500 696.667 L 316.667 696.667 316.667 634.167 L 316.667 571.667 492.500 571.667 L 668.333 571.667 668.333 634.167 " stroke="none" fill-rule="evenodd" fill="#000000"></path></svg>