<svg width="1000" height="1000" viewBox="0 0 1000 1000" version="1.1" id="svg5" xmlns="http://www.w3.org/2000/svg" xmlns:svg="http://www.w3.org/2000/svg"><path d="M255.833 121.667 C 187.983 122.438,182.160 122.731,177.946 125.589 C 165.502 134.031,161.934 152.648,170.587 163.992 C 179.891 176.189,177.260 175.741,244.923 176.667 L 305.833 177.500 305.685 324.167 C 305.537 469.953,304.301 517.160,299.030 578.333 C 290.191 680.912,270.941 749.835,236.017 803.950 C 222.047 825.596,232.401 823.333,147.327 823.333 C 66.180 823.333,66.169 823.334,57.883 833.182 C 51.740 840.482,49.396 849.900,51.643 858.246 C 53.556 865.349,61.440 874.363,67.882 876.812 C 73.238 878.848,926.762 878.848,932.118 876.812 C 938.560 874.363,946.444 865.349,948.357 858.246 C 951.693 845.855,944.144 830.591,932.215 825.607 C 927.833 823.776,908.079 823.333,830.748 823.333 C 777.934 823.333,734.980 822.771,735.295 822.083 C 735.611 821.396,740.178 812.398,745.445 802.089 C 779.575 735.288,794.856 663.230,803.500 528.333 C 804.583 511.433,805.709 424.035,806.179 320.514 L 806.989 141.861 803.141 135.015 C 801.025 131.249,796.901 126.690,793.977 124.883 C 788.762 121.660,784.293 121.590,558.914 121.215 C 432.553 121.005,296.167 121.208,255.833 121.667 M751.175 336.250 C 750.235 511.961,748.562 554.209,739.886 621.372 C 732.620 677.616,721.400 722.369,705.067 760.255 C 697.210 778.478,685.015 800.028,682.619 799.919 C 681.637 799.875,656.833 771.269,627.500 736.351 C 565.694 662.779,564.854 662.084,546.531 669.416 C 536.723 673.340,530.000 683.124,530.000 693.475 C 530.000 697.861,530.674 703.223,531.498 705.390 C 532.322 707.558,554.493 734.794,580.767 765.915 L 628.539 822.500 459.833 822.925 C 367.045 823.158,290.868 823.090,290.550 822.773 C 290.233 822.455,293.673 815.139,298.195 806.515 C 315.925 772.699,331.025 728.206,340.000 683.333 C 356.719 599.744,361.609 511.925,361.646 294.583 L 361.667 176.667 556.847 176.667 L 752.028 176.667 751.175 336.250 " stroke="none" fill-rule="evenodd" fill="#000000"></path></svg>