<svg width="1000" height="1000" viewBox="0 0 1000 1000" version="1.1" id="svg5" xmlns="http://www.w3.org/2000/svg" xmlns:svg="http://www.w3.org/2000/svg"><path d="M67.500 52.354 C 61.284 55.139,54.113 62.665,51.773 68.858 C 50.537 72.129,50.000 202.795,50.000 500.162 C 50.000 854.698,50.380 927.684,52.252 932.163 C 55.245 939.326,65.277 947.933,72.048 949.145 C 75.046 949.682,269.125 949.907,503.333 949.644 L 929.167 949.167 935.333 945.333 C 953.340 934.135,953.340 909.198,935.333 898.001 L 929.167 894.167 517.917 893.734 L 106.667 893.301 106.667 703.317 L 106.667 513.333 154.167 513.333 L 201.667 513.333 201.667 665.751 C 201.667 766.219,202.264 820.896,203.420 826.168 C 204.385 830.567,206.520 835.795,208.165 837.786 C 220.287 852.454,242.789 851.640,253.032 836.161 C 256.926 830.278,257.508 827.520,258.072 812.281 L 258.709 795.052 498.333 795.052 L 737.957 795.052 738.595 812.281 C 739.159 827.520,739.741 830.278,743.634 836.161 C 754.862 853.128,780.030 852.169,790.220 834.387 L 794.167 827.500 794.624 670.473 L 795.082 513.445 859.921 512.973 C 922.423 512.517,924.926 512.376,929.360 509.064 C 937.253 503.168,940.508 497.362,941.177 487.986 C 942.002 476.425,937.106 467.634,926.821 462.208 C 919.513 458.353,919.159 458.333,857.238 458.333 L 795.000 458.333 795.000 328.595 L 795.000 198.858 791.125 191.512 C 788.709 186.933,784.786 182.765,780.708 180.444 L 774.167 176.722 498.585 176.694 C 189.889 176.663,215.741 175.583,206.935 188.888 L 202.500 195.588 202.054 326.961 L 201.608 458.333 154.137 458.333 L 106.667 458.333 106.667 282.516 L 106.667 106.699 517.917 106.266 L 929.167 105.833 935.333 101.999 C 953.340 90.802,953.340 65.865,935.333 54.667 L 929.167 50.833 500.833 50.473 C 145.171 50.175,71.652 50.494,67.500 52.354 M470.000 345.000 L 470.000 458.333 364.167 458.333 L 258.333 458.333 258.333 345.000 L 258.333 231.667 364.167 231.667 L 470.000 231.667 470.000 345.000 M738.333 345.000 L 738.333 458.333 632.500 458.333 L 526.667 458.333 526.667 345.000 L 526.667 231.667 632.500 231.667 L 738.333 231.667 738.333 345.000 M470.000 626.667 L 470.000 740.000 364.167 740.000 L 258.333 740.000 258.333 626.667 L 258.333 513.333 364.167 513.333 L 470.000 513.333 470.000 626.667 M738.333 626.667 L 738.333 740.000 632.500 740.000 L 526.667 740.000 526.667 626.667 L 526.667 513.333 632.500 513.333 L 738.333 513.333 738.333 626.667 " stroke="none" fill-rule="evenodd" fill="#000000"></path></svg>