<svg width="1000" height="1000" viewBox="0 0 1000 1000" version="1.1" id="svg5" xmlns="http://www.w3.org/2000/svg" xmlns:svg="http://www.w3.org/2000/svg"><path d="M446.764 52.014 C 443.609 52.883,439.458 54.848,437.539 56.380 C 435.620 57.913,355.779 141.292,260.114 241.667 C 164.449 342.042,84.091 425.867,81.541 427.945 C 64.330 441.968,65.461 466.422,83.798 476.728 C 88.715 479.491,92.117 480.138,98.827 479.587 C 103.597 479.195,251.875 452.128,428.333 419.438 C 604.792 386.748,750.706 360.001,752.587 360.001 C 754.706 360.000,781.027 381.965,821.754 417.720 C 857.914 449.466,889.913 476.466,892.863 477.720 C 909.907 484.966,930.000 471.591,930.000 453.001 C 930.000 448.509,928.881 442.671,927.513 440.026 C 926.146 437.381,894.833 408.715,857.930 376.323 C 670.012 211.376,641.066 186.200,635.690 183.028 C 619.811 173.659,596.667 187.184,596.667 205.831 C 596.667 219.813,597.851 221.185,647.251 264.436 C 701.798 312.193,700.872 311.351,699.907 312.310 C 698.687 313.523,182.783 408.472,180.160 407.966 C 178.757 407.696,240.503 341.713,327.203 250.833 C 442.568 129.908,477.281 92.567,479.365 87.155 C 487.016 67.283,467.540 46.289,446.764 52.014 M222.636 481.839 C 215.689 482.967,209.371 487.143,204.270 493.975 C 200.840 498.569,200.833 499.017,200.833 714.835 L 200.833 931.093 205.484 937.191 C 215.813 950.733,232.396 952.850,245.008 942.237 C 253.776 934.860,255.000 930.615,255.000 907.583 L 255.000 886.667 481.667 886.667 L 708.333 886.667 708.333 905.887 C 708.333 930.933,711.818 939.879,724.035 946.196 C 736.511 952.648,752.807 947.442,759.957 934.721 C 763.419 928.561,763.424 928.218,763.435 714.302 C 763.445 526.235,763.138 499.456,760.923 495.173 C 758.038 489.595,751.084 483.657,745.979 482.414 C 740.978 481.196,230.045 480.634,222.636 481.839 M708.333 683.333 L 708.333 830.000 481.667 830.000 L 255.000 830.000 255.000 684.444 C 255.000 604.389,255.500 538.389,256.111 537.778 C 256.722 537.167,358.722 536.667,482.778 536.667 L 708.333 536.667 708.333 683.333 " stroke="none" fill-rule="evenodd" fill="black"></path></svg>