<svg width="1000" height="1000" viewBox="0 0 1000 1000" version="1.1" id="svg5" xmlns="http://www.w3.org/2000/svg" xmlns:svg="http://www.w3.org/2000/svg"><path d="M490.539 106.660 L 76.911 107.500 72.205 110.987 C 55.825 123.124,55.834 145.553,72.222 156.399 L 78.923 160.833 464.461 161.264 C 676.508 161.501,850.000 162.100,850.000 162.596 C 850.000 164.915,467.974 635.833,466.093 635.833 C 464.913 635.833,424.751 592.333,376.844 539.167 C 328.937 486.000,287.913 440.839,285.680 438.810 C 274.962 429.069,259.746 429.816,248.947 440.614 C 240.834 448.727,238.524 456.835,241.498 466.759 C 243.647 473.935,238.917 468.495,351.640 593.416 C 394.280 640.671,479.339 734.938,540.661 802.899 C 613.724 883.872,653.939 927.213,657.328 928.634 C 669.862 933.891,686.596 928.083,692.651 916.375 C 696.504 908.923,696.385 896.655,692.398 890.437 C 690.621 887.666,647.958 839.765,597.592 783.992 C 547.226 728.219,505.976 681.293,505.926 679.711 C 505.855 677.504,899.820 187.428,928.696 153.803 C 938.881 141.944,940.171 127.896,932.096 116.796 C 927.936 111.077,915.531 104.900,909.230 105.410 C 906.445 105.636,718.034 106.198,490.539 106.660 " stroke="none" fill-rule="evenodd" fill="black"></path></svg>