<svg width="1000" height="1000" viewBox="0 0 1000 1000" version="1.1" id="svg5" xmlns="http://www.w3.org/2000/svg" xmlns:svg="http://www.w3.org/2000/svg"><path d="M65.751 109.011 C 59.058 111.926,52.163 120.299,50.078 128.045 C 47.953 135.936,50.219 144.690,56.236 151.842 C 64.261 161.379,66.298 161.667,125.780 161.667 L 180.000 161.667 180.073 512.083 C 180.113 704.813,180.777 865.769,181.548 869.764 C 184.333 884.176,194.031 892.500,208.039 892.500 L 217.500 892.500 470.717 742.051 C 609.987 659.304,724.496 592.179,725.181 592.884 C 725.867 593.589,764.749 658.667,811.585 737.500 C 861.964 822.295,899.055 883.004,902.404 886.149 C 912.842 895.952,928.169 895.557,938.507 885.218 C 946.695 877.030,949.574 866.871,946.164 858.191 C 942.004 847.599,587.810 253.327,582.571 248.148 C 566.095 231.861,536.667 245.089,536.667 268.782 C 536.667 275.513,536.916 275.951,626.482 426.355 C 664.319 489.892,694.914 542.767,694.472 543.855 C 693.861 545.358,260.052 804.191,240.638 814.637 L 236.667 816.773 236.667 489.220 L 236.667 161.667 582.554 161.667 C 960.742 161.667,934.904 162.371,943.784 151.818 C 952.922 140.957,952.914 127.367,943.764 116.492 C 934.871 105.923,968.440 106.661,499.637 106.732 C 146.882 106.786,69.932 107.190,65.751 109.011 " stroke="none" fill-rule="evenodd" fill="#000000"></path></svg>