<svg width="1000" height="1000" viewBox="0 0 1000 1000" version="1.1" id="svg5" xmlns="http://www.w3.org/2000/svg" xmlns:svg="http://www.w3.org/2000/svg"><path d="M486.619 51.822 C 483.384 53.698,478.884 57.937,476.619 61.242 L 472.500 67.250 471.995 133.625 L 471.490 200.000 299.495 200.037 C 135.367 200.072,127.188 200.215,120.668 203.176 C 116.911 204.882,112.036 208.803,109.835 211.889 L 105.833 217.500 105.402 491.701 L 104.971 765.901 108.735 773.360 C 118.777 793.256,147.709 792.898,157.265 772.759 C 159.763 767.495,160.000 744.919,160.000 511.831 L 160.000 256.667 315.833 256.667 L 471.667 256.667 471.676 587.917 C 471.682 810.634,472.249 921.197,473.407 925.365 C 476.885 937.891,487.841 946.667,500.000 946.667 C 512.159 946.667,523.115 937.891,526.593 925.365 C 527.751 921.197,528.318 810.634,528.324 587.917 L 528.333 256.667 684.167 256.667 L 840.000 256.667 840.000 499.167 C 840.000 656.980,839.428 741.667,838.361 741.667 C 837.460 741.667,812.147 725.035,782.111 704.707 C 679.604 635.331,679.073 635.000,670.529 635.000 C 647.721 635.000,634.478 661.174,648.357 678.818 C 650.197 681.158,694.632 712.055,747.101 747.480 C 799.571 782.904,845.761 814.276,849.747 817.194 C 856.087 821.835,858.316 822.500,867.542 822.500 C 878.940 822.500,884.051 819.971,890.730 811.025 L 894.167 806.422 894.167 511.961 L 894.167 217.500 890.165 211.889 C 887.964 208.803,883.089 204.882,879.332 203.176 C 872.812 200.215,864.633 200.072,700.505 200.037 L 528.510 200.000 528.005 133.625 L 527.500 67.250 523.362 61.214 C 514.925 48.907,498.764 44.776,486.619 51.822 " stroke="none" fill-rule="evenodd" fill="#000000"></path></svg>