<svg width="1000" height="1000" viewBox="0 0 1000 1000" version="1.1" id="svg5" xmlns="http://www.w3.org/2000/svg" xmlns:svg="http://www.w3.org/2000/svg"><path d="M156.491 135.094 C 149.009 136.321,142.494 140.768,138.347 147.478 C 134.982 152.923,134.968 154.306,134.968 500.000 L 134.968 847.055 138.402 852.610 C 140.290 855.666,144.345 859.717,147.414 861.613 L 152.993 865.061 498.252 865.016 C 785.828 864.978,844.402 864.591,848.839 862.700 C 869.601 853.852,870.390 824.550,850.155 813.875 L 842.809 810.000 516.405 810.000 L 190.000 810.000 190.000 500.000 L 190.000 190.000 516.405 190.000 L 842.809 190.000 850.155 186.125 C 867.456 176.998,870.057 153.759,855.178 141.238 C 852.276 138.797,847.486 136.374,844.534 135.855 C 837.535 134.624,163.902 133.879,156.491 135.094 " stroke="none" fill-rule="evenodd" fill="#000000"></path></svg>