<svg width="1000" height="1000" viewBox="0 0 1000 1000" version="1.1" id="svg5" sodipodi:docname="耳.svg" inkscape:version="1.2.1 (9c6d41e410, 2022-07-14)" xmlns:inkscape="http://www.inkscape.org/namespaces/inkscape" xmlns:sodipodi="http://sodipodi.sourceforge.net/DTD/sodipodi-0.dtd" xmlns="http://www.w3.org/2000/svg" xmlns:svg="http://www.w3.org/2000/svg"><path d="M307.500 54.029 C 301.289 56.801,294.115 64.326,291.773 70.525 C 290.626 73.561,290.000 99.270,290.000 143.374 L 290.000 211.531 181.250 212.015 L 72.500 212.500 66.334 216.334 C 59.778 220.411,54.463 227.855,52.667 235.479 C 49.863 247.375,59.869 262.957,72.578 266.486 C 77.040 267.724,113.227 268.318,184.670 268.324 L 290.174 268.333 289.194 336.250 C 286.451 526.277,278.886 613.490,258.238 693.152 C 239.554 765.234,209.254 822.438,156.321 885.557 C 137.213 908.343,133.729 915.202,135.761 926.035 C 137.363 934.575,148.556 945.766,157.059 947.330 C 172.282 950.130,179.349 944.894,207.445 910.000 C 244.001 864.599,269.177 823.325,288.207 777.600 C 296.620 757.387,310.303 715.304,314.388 697.083 L 317.470 683.333 577.068 683.333 L 836.667 683.333 836.703 698.750 C 836.747 717.093,839.839 725.499,849.161 732.609 C 861.719 742.187,882.127 737.100,888.966 722.687 C 891.576 717.187,891.788 698.575,891.801 474.104 L 891.815 231.466 888.323 225.817 C 886.403 222.710,882.057 218.443,878.666 216.334 L 872.500 212.500 608.750 212.053 L 345.000 211.607 345.000 143.412 C 345.000 99.281,344.374 73.561,343.227 70.525 C 337.727 55.968,320.734 48.122,307.500 54.029 M836.667 344.167 L 836.667 420.000 589.733 420.000 L 342.800 420.000 343.896 378.750 C 344.499 356.063,344.994 321.938,344.996 302.917 L 345.000 268.333 590.833 268.333 L 836.667 268.333 836.667 344.167 M836.667 550.833 L 836.667 626.667 582.354 626.667 L 328.040 626.667 329.008 620.417 C 332.212 599.734,337.576 542.074,339.127 511.667 C 339.664 501.125,340.509 488.563,341.005 483.750 L 341.907 475.000 589.287 475.000 L 836.667 475.000 836.667 550.833 " stroke="none" fill-rule="evenodd" fill="black"></path></svg>