<svg width="1000" height="1000" viewBox="0 0 1000 1000" version="1.1" id="svg5" xmlns="http://www.w3.org/2000/svg" xmlns:svg="http://www.w3.org/2000/svg"><path d="M282.759 52.431 C 276.041 54.826,269.358 60.201,266.097 65.833 C 264.669 68.298,263.950 131.679,263.333 309.167 L 262.500 549.167 200.417 549.604 L 138.333 550.041 138.297 412.104 C 138.262 281.189,138.102 273.819,135.158 267.335 C 130.830 257.806,123.217 252.820,111.776 252.020 C 101.487 251.301,94.383 254.791,87.653 263.871 C 84.189 268.546,84.161 269.558,83.333 423.871 C 82.875 509.284,83.091 581.581,83.814 584.532 C 85.545 591.599,92.675 599.895,99.452 602.727 C 103.784 604.536,120.750 605.000,182.662 605.000 L 260.430 605.000 259.237 618.750 C 258.581 626.313,256.207 643.000,253.961 655.833 C 233.960 770.158,189.964 852.315,133.521 880.739 C 118.062 888.524,106.829 891.565,86.949 893.349 C 74.423 894.473,68.201 895.840,64.116 898.365 C 46.650 909.159,46.945 934.313,64.667 945.333 C 69.972 948.631,72.761 949.118,84.630 948.815 C 131.034 947.632,170.994 929.361,207.529 892.622 C 253.743 846.151,286.685 774.824,305.728 680.000 C 308.894 664.235,316.667 611.490,316.667 605.770 C 316.667 605.346,345.070 605.000,379.786 605.000 L 442.905 605.000 443.656 623.213 C 444.306 639.011,444.939 642.205,448.424 647.291 C 459.958 664.123,483.436 664.035,495.029 647.117 L 499.167 641.078 499.167 455.833 L 499.167 270.589 495.029 264.550 C 483.377 247.546,459.958 247.545,448.305 264.549 L 444.167 270.587 443.704 410.314 L 443.242 550.040 381.204 549.604 L 319.167 549.167 318.333 309.167 C 317.715 130.974,317.000 68.308,315.560 65.833 C 312.107 59.900,304.057 53.308,298.219 51.634 C 291.136 49.602,290.617 49.629,282.759 52.431 M732.759 52.431 C 726.041 54.826,719.358 60.201,716.097 65.833 C 714.669 68.298,713.950 131.679,713.333 309.167 L 712.500 549.167 650.417 549.604 L 588.333 550.041 588.297 412.104 C 588.262 281.189,588.102 273.819,585.158 267.335 C 580.830 257.806,573.217 252.820,561.776 252.020 C 551.487 251.301,544.383 254.791,537.653 263.871 C 534.189 268.546,534.161 269.558,533.333 423.871 C 532.875 509.284,533.091 581.581,533.814 584.532 C 535.545 591.599,542.675 599.895,549.452 602.727 C 553.788 604.538,570.975 605.000,634.113 605.000 L 713.333 605.000 713.336 765.417 C 713.339 945.133,712.428 931.878,725.498 942.322 C 737.911 952.241,756.624 947.879,764.911 933.135 C 768.297 927.110,768.333 925.351,768.333 766.023 L 768.333 605.000 830.619 605.000 L 892.905 605.000 893.656 623.213 C 894.306 639.011,894.939 642.205,898.424 647.291 C 909.958 664.123,933.436 664.035,945.029 647.117 L 949.167 641.078 949.167 455.833 L 949.167 270.589 945.029 264.550 C 933.377 247.546,909.958 247.545,898.305 264.549 L 894.167 270.587 893.704 410.314 L 893.242 550.040 831.204 549.604 L 769.167 549.167 768.333 309.167 C 767.715 130.974,767.000 68.308,765.560 65.833 C 762.107 59.900,754.057 53.308,748.219 51.634 C 741.136 49.602,740.617 49.629,732.759 52.431 " stroke="none" fill-rule="evenodd" fill="#000000"></path></svg>