<svg width="1000" height="1000" viewBox="0 0 1000 1000" version="1.1" id="svg5" xmlns="http://www.w3.org/2000/svg" xmlns:svg="http://www.w3.org/2000/svg"><path d="M72.465 51.541 C 48.290 57.377,43.434 88.797,64.667 101.999 L 70.833 105.833 239.583 106.288 L 408.333 106.743 408.343 514.622 C 408.349 805.558,408.876 924.389,410.181 929.088 C 414.040 942.986,430.092 952.497,443.108 948.598 C 451.214 946.169,457.576 941.212,461.283 934.436 C 463.991 929.487,464.193 904.153,464.600 517.917 L 465.033 106.667 678.350 106.667 L 891.667 106.667 891.662 115.417 C 891.659 120.229,890.561 135.556,889.222 149.476 C 870.905 339.873,820.455 494.353,717.867 674.167 C 710.545 687.000,704.333 697.759,704.062 698.076 C 703.791 698.393,661.704 663.464,610.535 620.455 C 559.366 577.445,515.437 540.912,512.916 539.269 C 506.388 535.016,493.412 535.316,486.009 539.892 C 472.276 548.379,468.441 565.890,477.596 578.301 C 480.293 581.957,530.807 625.463,589.849 674.982 C 670.564 742.677,698.793 765.444,703.624 766.745 C 712.362 769.098,720.967 767.179,727.534 761.413 C 734.322 755.453,768.566 698.180,792.654 652.500 C 875.009 496.323,920.182 356.073,940.009 195.000 C 943.940 163.071,948.203 109.790,948.623 87.352 C 948.900 72.541,948.495 69.821,945.218 64.520 C 943.172 61.210,938.724 56.776,935.333 54.667 L 929.167 50.833 503.333 50.579 C 269.125 50.439,75.234 50.872,72.465 51.541 " stroke="none" fill-rule="evenodd" fill="black"></path></svg>