<svg width="1000" height="1000" viewBox="0 0 1000 1000" version="1.1" id="svg5" xmlns="http://www.w3.org/2000/svg" xmlns:svg="http://www.w3.org/2000/svg"><path d="M67.469 52.323 C 60.565 55.331,52.035 65.459,50.855 72.048 C 50.318 75.046,50.093 269.125,50.356 503.333 L 50.833 929.167 54.667 935.333 C 60.076 944.031,68.362 948.718,78.333 948.718 C 88.304 948.718,96.590 944.031,101.999 935.333 L 105.833 929.167 106.266 517.917 L 106.699 106.667 500.016 106.667 L 893.333 106.667 893.333 481.211 L 893.333 855.755 880.417 843.271 C 873.313 836.405,857.375 820.955,845.000 808.938 C 832.625 796.921,820.100 785.869,817.166 784.378 C 800.511 775.913,778.443 789.811,778.361 808.816 C 778.318 818.697,783.608 826.757,800.614 842.718 C 809.276 850.848,837.306 877.880,862.904 902.789 C 912.762 951.306,913.573 951.889,927.536 949.270 C 934.696 947.927,944.699 939.461,947.748 932.163 C 949.620 927.684,950.000 854.698,950.000 500.162 C 950.000 202.795,949.463 72.129,948.227 68.858 C 945.815 62.474,938.623 55.070,932.137 52.295 C 924.328 48.953,75.139 48.981,67.469 52.323 " stroke="none" fill-rule="evenodd" fill="#000000"></path></svg>