<svg width="400" height="1000" viewBox="0 0 399.9999924409448 1000" version="1.1" id="svg5" sodipodi:docname="!.svg" inkscape:version="1.2 (dc2aedaf03, 2022-05-15)" xmlns:inkscape="http://www.inkscape.org/namespaces/inkscape" xmlns:sodipodi="http://sodipodi.sourceforge.net/DTD/sodipodi-0.dtd" xmlns="http://www.w3.org/2000/svg" xmlns:svg="http://www.w3.org/2000/svg"><path d="M310.834 145.697 C 308.909 146.215,306.070 147.284,304.526 148.072 C 300.346 150.204,294.787 156.268,292.406 161.293 L 290.333 165.667 290.164 462.167 C 290.070 625.242,289.780 758.667,289.518 758.667 C 289.256 758.667,273.882 743.551,255.354 725.076 C 221.688 691.507,219.595 689.649,213.000 687.501 C 209.258 686.282,200.962 686.359,197.355 687.647 C 190.472 690.104,184.235 695.577,181.033 701.970 C 176.324 711.375,177.342 723.435,183.552 731.813 C 184.852 733.566,211.959 761.010,243.791 792.800 C 306.892 855.818,303.843 853.100,313.278 854.761 C 326.640 857.115,339.950 847.903,343.759 833.667 C 344.498 830.905,344.651 773.701,344.651 500.000 C 344.651 226.299,344.498 169.095,343.759 166.333 C 340.853 155.470,332.398 147.286,322.076 145.343 C 317.434 144.469,315.124 144.542,310.834 145.697 M75.000 225.601 C 64.978 228.779,57.281 237.436,55.392 247.654 C 54.880 250.424,54.670 306.992,54.677 439.956 C 54.685 601.800,54.822 628.908,55.649 632.415 C 57.905 641.980,65.188 649.905,74.540 652.973 C 80.074 654.788,87.813 654.219,93.333 651.591 C 102.113 647.412,108.056 639.034,109.359 629.000 C 109.828 625.387,109.987 563.011,109.850 435.667 C 109.660 259.139,109.577 247.467,108.489 244.390 C 105.249 235.223,98.266 228.301,89.610 225.675 C 85.661 224.477,78.657 224.442,75.000 225.601 " stroke="none" fill-rule="evenodd" fill="black"></path></svg>