<svg width="300" height="1000" viewBox="0 0 79.374998 264.58333" version="1.1" id="svg5" sodipodi:docname=").svg" inkscape:version="1.2.1 (9c6d41e410, 2022-07-14)" xmlns:inkscape="http://www.inkscape.org/namespaces/inkscape" xmlns:sodipodi="http://sodipodi.sourceforge.net/DTD/sodipodi-0.dtd" xmlns="http://www.w3.org/2000/svg" xmlns:svg="http://www.w3.org/2000/svg"><path d="M66.475 0.518 C 50.314 2.972,39.502 18.971,43.253 34.880 C 44.896 41.851,47.887 45.886,56.956 53.366 C 64.537 59.620,82.355 77.522,89.187 85.750 C 121.811 125.039,148.783 175.604,169.064 235.500 C 186.428 286.779,197.196 339.537,200.496 389.500 C 201.175 399.781,201.193 597.439,200.516 607.750 C 195.001 691.724,167.471 785.583,128.012 854.948 C 106.487 892.787,82.213 923.127,56.555 944.261 C 53.072 947.131,49.371 950.594,48.331 951.958 C 39.151 963.995,41.137 981.225,52.798 990.725 C 58.488 995.359,64.452 997.270,72.051 996.892 C 80.077 996.493,84.090 994.554,93.828 986.367 C 146.082 942.441,190.949 870.921,221.096 783.500 C 239.891 728.995,251.477 674.497,256.331 617.750 C 257.094 608.835,257.208 596.736,257.379 506.250 C 257.598 390.983,257.489 386.216,253.960 356.250 C 240.436 241.426,194.888 125.556,134.559 52.500 C 119.532 34.303,97.086 12.333,85.764 4.741 C 80.581 1.266,72.787 -0.441,66.475 0.518 " stroke="none" fill-rule="evenodd" fill="black"></path></svg>