<svg width="200" height="1000" viewBox="0 0 199.9999962204724 1000" version="1.1" id="svg5" sodipodi:docname=",.svg" inkscape:version="1.2.1 (9c6d41e410, 2022-07-14)" xmlns:inkscape="http://www.inkscape.org/namespaces/inkscape" xmlns:sodipodi="http://sodipodi.sourceforge.net/DTD/sodipodi-0.dtd" xmlns="http://www.w3.org/2000/svg" xmlns:svg="http://www.w3.org/2000/svg"><path d="M131.000 788.039 C 122.841 788.745,114.757 793.317,110.443 799.667 C 108.587 802.399,41.902 918.121,40.813 920.500 C 39.084 924.278,38.528 926.969,38.543 931.500 C 38.584 943.949,45.779 953.991,57.749 958.307 C 63.623 960.424,70.419 960.256,76.872 957.833 C 81.716 956.014,86.818 952.054,89.599 947.953 C 91.562 945.060,157.766 830.180,159.016 827.500 C 160.905 823.450,161.471 820.826,161.462 816.167 C 161.452 811.366,160.676 808.054,158.490 803.500 C 155.849 797.994,151.699 793.888,145.833 790.976 C 140.746 788.451,136.336 787.578,131.000 788.039 " stroke="none" fill-rule="evenodd" fill="#000000"></path></svg>