<svg width="400" height="1000" viewBox="0 0 399.9999924409448 1000" version="1.1" id="svg5" sodipodi:docname=",.svg" inkscape:version="1.2.1 (9c6d41e410, 2022-07-14)" xmlns:inkscape="http://www.inkscape.org/namespaces/inkscape" xmlns:sodipodi="http://sodipodi.sourceforge.net/DTD/sodipodi-0.dtd" xmlns="http://www.w3.org/2000/svg" xmlns:svg="http://www.w3.org/2000/svg"><path d="M228.333 788.457 C 221.725 789.957,214.870 794.200,211.408 798.933 C 208.401 803.044,143.977 914.526,141.059 920.667 C 139.182 924.618,139.001 925.588,139.008 931.667 C 139.015 937.986,139.144 938.596,141.474 943.377 C 148.054 956.880,162.429 962.800,176.424 957.770 C 180.653 956.251,184.253 953.728,187.389 950.087 C 188.958 948.265,205.755 919.899,224.714 887.052 C 251.387 840.842,259.451 826.351,260.357 823.005 C 264.172 808.909,255.593 793.720,241.304 789.273 C 237.537 788.100,231.562 787.725,228.333 788.457 " stroke="none" fill-rule="evenodd" fill="#000000"></path></svg>