<svg width="500" height="1000" viewBox="0 0 132.29166 264.58333" version="1.1" id="svg5" sodipodi:docname="1.svg" inkscape:version="1.2.1 (9c6d41e410, 2022-07-14)" xmlns:inkscape="http://www.inkscape.org/namespaces/inkscape" xmlns:sodipodi="http://sodipodi.sourceforge.net/DTD/sodipodi-0.dtd" xmlns="http://www.w3.org/2000/svg" xmlns:svg="http://www.w3.org/2000/svg"><path d="M245.181 48.449 C 239.406 49.383,234.835 51.788,230.395 56.228 C 225.781 60.842,223.621 65.118,222.541 71.774 C 221.338 79.186,221.338 920.814,222.541 928.226 C 223.635 934.969,225.608 938.810,230.482 943.684 C 235.251 948.453,239.251 950.562,245.336 951.516 C 250.922 952.392,258.096 951.413,262.481 949.176 C 266.522 947.115,272.943 940.699,275.000 936.668 C 275.879 934.944,276.986 931.146,277.459 928.226 C 278.662 920.814,278.662 79.186,277.459 71.774 C 276.986 68.854,275.879 65.056,275.000 63.332 C 272.961 59.336,266.533 52.891,262.570 50.869 C 259.866 49.490,257.871 48.982,251.250 47.987 C 250.333 47.849,247.602 48.057,245.181 48.449 " stroke="none" fill-rule="evenodd" fill="black"></path></svg>