<svg width="500" height="1000" viewBox="0 0 499.99998110236197 1000" version="1.1" id="svg5" sodipodi:docname="3.svg" inkscape:version="1.2.1 (9c6d41e410, 2022-07-14)" xmlns:inkscape="http://www.inkscape.org/namespaces/inkscape" xmlns:sodipodi="http://sodipodi.sourceforge.net/DTD/sodipodi-0.dtd" xmlns="http://www.w3.org/2000/svg" xmlns:svg="http://www.w3.org/2000/svg"><path d="M416.847 48.449 C 411.073 49.383,406.501 51.788,402.061 56.228 C 397.448 60.842,395.287 65.118,394.207 71.774 C 393.003 79.196,393.005 920.814,394.209 928.236 C 395.576 936.660,399.529 942.875,406.425 947.443 C 413.668 952.240,423.293 953.217,431.833 950.022 C 438.139 947.663,445.043 940.819,447.667 934.326 L 449.583 929.583 449.583 500.000 L 449.583 70.417 447.680 65.709 C 445.542 60.421,439.187 53.395,434.277 50.890 C 431.537 49.492,429.544 48.983,422.917 47.987 C 422.000 47.849,419.269 48.057,416.847 48.449 M68.936 167.900 C 61.623 170.677,54.962 177.410,51.852 185.168 C 50.507 188.525,50.402 204.169,50.188 434.167 C 50.031 602.006,50.234 681.383,50.831 685.277 C 52.774 697.964,60.943 706.742,73.155 709.264 C 85.808 711.877,98.131 705.232,104.054 692.600 L 106.250 687.917 106.250 438.333 L 106.250 188.750 104.347 184.043 C 102.054 178.371,95.910 171.838,90.260 169.062 C 85.295 166.623,73.931 166.003,68.936 167.900 M240.552 167.917 C 233.121 170.735,226.184 177.830,223.590 185.265 C 222.150 189.393,222.083 200.554,222.083 438.750 L 222.083 687.917 224.279 692.600 C 230.202 705.232,242.525 711.877,255.179 709.264 C 264.517 707.335,271.448 701.712,275.721 692.600 L 277.917 687.917 277.917 438.333 L 277.917 188.750 276.013 184.043 C 273.720 178.371,267.577 171.838,261.927 169.062 C 256.936 166.610,245.600 166.003,240.552 167.917 " stroke="none" fill-rule="evenodd" fill="black"></path></svg>