<svg width="500" height="1000" viewBox="0 0 132.29166 264.58333" version="1.1" id="svg5" sodipodi:docname="9.svg" inkscape:version="1.2 (dc2aedaf03, 2022-05-15)" xmlns:inkscape="http://www.inkscape.org/namespaces/inkscape" xmlns:sodipodi="http://sodipodi.sourceforge.net/DTD/sodipodi-0.dtd" xmlns="http://www.w3.org/2000/svg" xmlns:svg="http://www.w3.org/2000/svg"><path d="M96.545 91.145 C 88.554 92.875,81.372 98.761,77.602 106.667 C 75.775 110.499,75.417 112.410,75.417 118.333 C 75.417 124.386,75.752 126.100,77.725 130.118 C 80.286 135.333,85.440 140.537,90.959 143.482 L 94.583 145.417 226.042 145.635 C 336.945 145.819,357.500 146.033,357.500 147.000 C 357.500 149.311,350.663 188.462,347.008 207.083 C 333.979 273.449,317.118 335.968,293.403 405.833 C 282.505 437.941,276.435 454.383,275.346 454.746 C 274.910 454.891,246.998 431.144,213.319 401.975 C 179.639 372.805,149.407 346.794,146.135 344.171 C 138.415 337.981,131.678 335.898,123.764 337.254 C 116.592 338.482,112.802 340.450,107.783 345.551 C 101.808 351.624,99.718 357.323,100.194 366.250 C 100.633 374.494,102.965 379.424,109.307 385.519 C 111.751 387.867,144.875 416.673,182.917 449.532 C 220.958 482.392,252.437 509.784,252.870 510.404 C 253.721 511.624,252.121 515.666,238.686 546.250 C 215.088 599.969,186.065 657.734,155.785 711.250 C 125.519 764.743,89.063 822.074,62.258 858.333 C 50.971 873.601,49.513 877.338,50.931 887.355 C 52.321 897.170,58.040 904.695,67.400 909.025 C 71.116 910.744,73.382 911.195,78.373 911.210 C 83.816 911.226,85.409 910.861,90.204 908.500 C 96.680 905.312,98.840 903.013,110.801 886.568 C 171.759 802.759,245.811 670.899,291.728 564.397 C 295.132 556.503,298.166 550.034,298.470 550.022 C 298.774 550.010,322.212 570.076,350.553 594.613 C 385.722 625.061,403.539 639.944,406.667 641.488 C 410.601 643.430,412.253 643.743,418.333 643.703 C 424.268 643.663,426.179 643.288,430.119 641.393 C 439.367 636.943,445.043 628.479,445.656 618.228 C 446.095 610.879,444.633 605.378,440.856 600.163 C 439.224 597.911,328.036 500.687,320.937 495.306 C 320.765 495.175,324.075 485.816,328.294 474.508 C 371.151 359.632,399.032 252.234,415.029 140.417 C 418.047 119.316,418.065 112.502,415.116 106.458 C 412.427 100.946,406.654 95.293,401.017 92.651 L 396.250 90.417 248.750 90.271 C 135.165 90.159,100.168 90.360,96.545 91.145 " stroke="none" fill-rule="evenodd" fill="black"></path></svg>