<svg width="300" height="1000" viewBox="0 0 79.374998 264.58333" version="1.1" id="svg5" sodipodi:docname="[.svg" inkscape:version="1.2.1 (9c6d41e410, 2022-07-14)" xmlns:inkscape="http://www.inkscape.org/namespaces/inkscape" xmlns:sodipodi="http://sodipodi.sourceforge.net/DTD/sodipodi-0.dtd" xmlns="http://www.w3.org/2000/svg" xmlns:svg="http://www.w3.org/2000/svg"><path d="M66.989 0.481 C 55.967 1.930,46.207 10.846,43.434 22.000 C 42.858 24.316,42.750 99.561,42.750 499.000 C 42.750 957.661,42.780 973.348,43.668 976.224 C 45.979 983.712,51.450 990.550,57.791 993.875 C 64.137 997.202,58.183 997.000,150.000 997.000 C 223.176 997.000,233.647 996.907,236.229 996.234 C 245.507 993.818,253.464 985.908,256.246 976.337 C 257.429 972.269,257.333 965.150,256.039 961.000 C 253.126 951.650,245.043 943.913,235.953 941.770 C 233.181 941.116,223.755 941.014,165.875 941.007 L 99.000 941.000 99.000 498.750 L 99.000 56.500 165.375 56.491 C 220.398 56.484,232.306 56.363,235.000 55.782 C 245.131 53.598,253.210 46.061,256.208 36.000 C 257.184 32.724,257.318 25.251,256.464 21.711 C 254.315 12.797,246.525 4.425,237.536 1.368 L 234.250 0.250 152.000 0.184 C 106.763 0.148,68.507 0.282,66.989 0.481 M56.000 52.000 C 56.000 52.275,55.901 52.500,55.780 52.500 C 55.658 52.500,55.420 52.275,55.250 52.000 C 55.080 51.725,55.179 51.500,55.470 51.500 C 55.762 51.500,56.000 51.725,56.000 52.000 M59.986 53.980 C 61.176 54.733,60.364 54.892,59.000 54.173 C 58.311 53.810,58.087 53.515,58.500 53.515 C 58.913 53.515,59.581 53.725,59.986 53.980 M65.276 56.110 C 65.770 56.603,61.837 55.490,61.308 54.986 C 61.065 54.755,61.781 54.836,62.900 55.166 C 64.018 55.497,65.088 55.921,65.276 56.110 M64.824 941.343 C 64.235 941.931,61.000 942.903,61.000 942.491 C 61.000 942.174,62.216 941.732,64.958 941.052 C 65.073 941.023,65.012 941.154,64.824 941.343 M60.500 942.732 C 60.500 942.860,59.994 943.210,59.375 943.510 C 58.295 944.034,58.289 944.024,59.221 943.278 C 60.241 942.460,60.500 942.350,60.500 942.732 " stroke="none" fill-rule="evenodd" fill="black"></path></svg>