<svg width="300" height="1000" viewBox="0 0 299.9999962204724 1000" version="1.1" id="svg5" sodipodi:docname="[.svg" inkscape:version="1.2.1 (9c6d41e410, 2022-07-14)" xmlns:inkscape="http://www.inkscape.org/namespaces/inkscape" xmlns:sodipodi="http://sodipodi.sourceforge.net/DTD/sodipodi-0.dtd" xmlns="http://www.w3.org/2000/svg" xmlns:svg="http://www.w3.org/2000/svg"><path d="M66.989 0.481 C 55.967 1.930,46.207 10.846,43.434 22.000 C 42.858 24.316,42.750 99.561,42.750 499.000 C 42.750 957.661,42.780 973.348,43.668 976.224 C 45.979 983.712,51.450 990.550,57.791 993.875 C 64.137 997.202,58.183 997.000,150.000 997.000 C 223.176 997.000,233.647 996.907,236.229 996.234 C 245.507 993.818,253.464 985.908,256.246 976.337 C 257.429 972.269,257.333 965.150,256.039 961.000 C 253.126 951.650,245.043 943.913,235.953 941.770 C 233.181 941.116,223.755 941.014,165.875 941.007 L 99.000 941.000 99.000 498.750 L 99.000 56.500 165.375 56.491 C 220.398 56.484,232.306 56.363,235.000 55.782 C 245.131 53.598,253.210 46.061,256.208 36.000 C 257.184 32.724,257.318 25.251,256.464 21.711 C 254.315 12.797,246.525 4.425,237.536 1.368 L 234.250 0.250 152.000 0.184 C 106.763 0.148,68.507 0.282,66.989 0.481 " stroke="none" fill-rule="evenodd" fill="black"></path></svg>