<svg width="400" height="1000" viewBox="0 0 399.9999924409448 1000" version="1.1" id="svg5" sodipodi:docname="c.svg" inkscape:version="1.3 (0e150ed6c4, 2023-07-21)" xmlns:inkscape="http://www.inkscape.org/namespaces/inkscape" xmlns:sodipodi="http://sodipodi.sourceforge.net/DTD/sodipodi-0.dtd" xmlns="http://www.w3.org/2000/svg" xmlns:svg="http://www.w3.org/2000/svg"><path d="M74.569 150.638 C 62.974 152.193,52.949 161.967,50.680 173.927 C 49.734 178.919,49.734 821.081,50.680 826.073 C 53.081 838.730,62.981 847.877,75.980 849.449 C 79.129 849.830,104.431 849.975,138.793 849.809 C 201.362 849.508,200.145 849.577,212.770 845.598 C 263.974 829.462,306.243 766.093,330.018 669.823 C 339.159 632.809,344.630 596.418,348.132 549.333 C 349.311 533.485,349.311 466.515,348.132 450.667 C 345.270 412.183,341.495 383.687,335.263 353.511 C 319.892 279.092,294.922 222.433,261.883 187.005 C 247.523 171.607,229.590 159.702,212.770 154.402 C 200.063 150.397,201.598 150.480,137.333 150.299 C 104.883 150.208,76.640 150.360,74.569 150.638 M199.075 209.063 C 220.429 218.356,242.624 248.401,258.864 290.000 C 276.530 335.250,287.284 388.485,292.129 454.667 C 293.270 470.266,293.270 529.734,292.129 545.333 C 287.284 611.515,276.530 664.750,258.864 710.000 C 242.624 751.599,220.429 781.644,199.075 790.937 L 194.333 793.000 150.500 793.185 L 106.667 793.370 106.667 500.000 L 106.667 206.630 150.500 206.815 L 194.333 207.000 199.075 209.063 " stroke="none" fill-rule="evenodd" fill="black"></path></svg>