<svg width="500" height="1000" viewBox="0 0 499.99998110236197 1000" version="1.1" id="svg5" sodipodi:docname="d.svg" inkscape:version="1.2.1 (9c6d41e410, 2022-07-14)" xmlns:inkscape="http://www.inkscape.org/namespaces/inkscape" xmlns:sodipodi="http://sodipodi.sourceforge.net/DTD/sodipodi-0.dtd" xmlns="http://www.w3.org/2000/svg" xmlns:svg="http://www.w3.org/2000/svg"><path d="M74.059 150.902 C 64.770 152.341,55.872 159.425,52.320 168.209 L 50.417 172.917 50.162 389.583 C 49.904 609.201,50.073 625.048,52.992 655.417 C 60.925 737.928,85.288 802.609,119.219 831.243 C 127.392 838.140,136.649 843.508,145.417 846.435 C 151.417 848.438,153.291 848.661,164.167 848.661 C 175.042 848.661,176.916 848.438,182.917 846.435 C 195.923 842.093,210.410 831.931,220.440 820.116 C 229.921 808.946,243.166 786.696,247.917 773.958 C 248.729 771.781,249.666 770.000,250.000 770.000 C 250.334 770.000,251.271 771.781,252.083 773.958 C 256.854 786.750,270.080 808.946,279.652 820.225 C 289.989 832.406,304.772 842.561,318.333 846.797 C 323.689 848.471,326.253 848.742,336.250 848.697 C 346.573 848.651,348.684 848.389,354.583 846.427 C 358.250 845.207,364.171 842.540,367.741 840.501 C 374.891 836.415,386.895 826.627,390.415 822.011 C 391.654 820.386,392.797 819.186,392.955 819.344 C 393.113 819.502,393.652 822.194,394.152 825.326 C 395.313 832.594,397.259 836.350,402.571 841.579 C 410.219 849.108,421.498 851.401,431.826 847.529 C 438.141 845.161,445.043 838.319,447.667 831.826 L 449.583 827.083 449.583 500.000 L 449.583 172.917 447.667 168.174 C 445.043 161.681,438.141 154.839,431.826 152.471 C 416.673 146.789,400.419 154.625,394.700 170.368 C 394.033 172.202,393.642 238.193,393.304 405.833 C 392.788 661.458,393.162 642.903,387.841 677.500 C 379.290 733.101,360.646 778.976,341.723 790.977 C 337.048 793.942,334.619 793.942,329.943 790.977 C 310.914 778.908,292.507 733.606,283.836 677.500 C 278.505 643.003,278.877 661.521,278.375 405.833 L 277.917 172.917 276.000 168.174 C 273.376 161.681,266.474 154.839,260.159 152.471 C 245.006 146.789,228.752 154.625,223.033 170.368 C 222.366 172.202,221.975 238.193,221.637 405.833 C 221.122 661.473,221.495 642.935,216.171 677.500 C 208.673 726.180,194.605 764.954,177.311 784.600 C 173.083 789.404,167.168 793.333,164.167 793.333 C 161.165 793.333,155.251 789.404,151.022 784.600 C 133.759 764.988,119.647 726.095,112.162 677.500 C 106.839 642.935,107.212 661.473,106.696 405.833 C 106.358 238.193,105.967 172.202,105.300 170.368 C 103.489 165.381,101.621 162.547,97.421 158.413 C 91.174 152.264,82.752 149.557,74.059 150.902 " stroke="none" fill-rule="evenodd" fill="black"></path></svg>