<svg width="400" height="1000" viewBox="0 0 399.9999924409448 1000" version="1.1" id="svg5" sodipodi:docname="e.svg" inkscape:version="1.2.1 (9c6d41e410, 2022-07-14)" xmlns:inkscape="http://www.inkscape.org/namespaces/inkscape" xmlns:sodipodi="http://sodipodi.sourceforge.net/DTD/sodipodi-0.dtd" xmlns="http://www.w3.org/2000/svg" xmlns:svg="http://www.w3.org/2000/svg"><path d="M70.333 154.231 C 65.608 155.795,62.414 157.777,58.736 161.429 C 54.339 165.794,51.413 171.713,50.623 177.839 C 50.304 180.311,50.034 278.361,50.022 395.728 C 49.999 621.856,49.982 620.451,53.053 647.249 C 56.676 678.872,64.388 710.223,75.457 738.333 C 79.396 748.335,89.963 769.369,95.217 777.667 C 112.352 804.722,132.500 824.227,155.000 835.541 C 192.169 854.232,232.718 849.024,267.333 821.115 C 273.469 816.168,286.412 803.165,290.203 798.139 L 293.000 794.430 293.413 809.382 C 293.839 824.784,294.089 826.307,297.196 832.398 C 299.295 836.512,305.172 841.958,310.000 844.264 C 314.035 846.191,314.839 846.333,321.667 846.333 C 328.494 846.333,329.299 846.191,333.333 844.264 C 341.930 840.159,348.164 831.571,349.377 822.161 C 350.136 816.273,350.136 183.727,349.377 177.839 C 348.164 168.429,341.930 159.841,333.333 155.736 C 329.299 153.809,328.494 153.667,321.667 153.667 C 314.839 153.667,314.035 153.809,310.000 155.736 C 303.058 159.051,298.115 164.633,294.768 172.935 C 293.754 175.450,293.638 193.582,293.310 401.333 C 292.918 649.534,293.248 630.161,288.968 656.667 C 279.649 714.370,255.590 762.428,226.291 781.857 C 209.257 793.154,190.743 793.154,173.709 781.857 C 144.410 762.428,120.351 714.370,111.032 656.667 C 106.752 630.161,107.082 649.534,106.690 401.333 C 106.362 193.582,106.246 175.450,105.232 172.935 C 101.876 164.611,96.930 159.033,90.000 155.757 C 86.259 153.988,84.801 153.684,79.333 153.529 C 75.390 153.417,71.994 153.682,70.333 154.231 " stroke="none" fill-rule="evenodd" fill="black"></path></svg>