<svg width="400" height="1000" viewBox="0 0 105.83333 264.58333" version="1.1" id="svg5" sodipodi:docname="g.svg" inkscape:version="1.2.1 (9c6d41e410, 2022-07-14)" xmlns:inkscape="http://www.inkscape.org/namespaces/inkscape" xmlns:sodipodi="http://sodipodi.sourceforge.net/DTD/sodipodi-0.dtd" xmlns="http://www.w3.org/2000/svg" xmlns:svg="http://www.w3.org/2000/svg"><path d="M187.846 151.413 C 132.632 158.524,86.945 207.871,58.398 291.229 C 42.651 337.212,32.282 389.629,27.517 447.333 C 25.703 469.300,25.913 527.720,27.892 551.667 C 34.093 626.719,49.381 688.684,74.273 739.667 C 88.321 768.438,101.517 787.595,119.091 804.727 C 159.235 843.860,212.489 858.240,263.121 843.619 C 296.306 834.036,327.553 810.015,348.911 777.667 C 359.906 761.015,366.392 747.854,367.657 739.632 C 368.204 736.079,366.570 728.415,364.321 723.976 C 360.740 716.909,352.032 710.662,343.989 709.391 C 335.714 708.083,326.056 711.309,320.084 717.376 C 317.871 719.624,315.281 723.659,311.875 730.163 C 302.949 747.212,296.198 756.501,284.745 767.494 C 242.481 808.060,180.743 799.424,143.521 747.740 C 107.928 698.317,84.912 610.919,82.273 515.167 L 81.800 498.000 215.066 497.988 C 360.305 497.976,353.742 498.146,360.482 494.224 C 365.155 491.506,369.931 486.289,372.274 481.345 L 374.333 477.000 374.264 457.000 C 374.029 388.890,362.254 320.627,341.778 268.667 C 336.952 256.420,326.040 234.447,319.983 224.776 C 295.567 185.797,262.496 160.683,226.000 153.407 C 213.025 150.820,198.389 150.055,187.846 151.413 M207.667 207.326 C 216.636 208.277,223.509 210.277,231.667 214.310 C 243.245 220.034,252.426 227.643,261.687 239.190 C 289.033 273.286,308.157 332.009,315.315 403.870 C 316.425 415.009,317.995 436.246,317.999 440.167 C 318.000 441.273,311.996 441.333,201.247 441.333 L 84.494 441.333 84.968 435.833 C 85.776 426.450,88.484 406.233,90.654 393.379 C 106.333 300.521,137.168 235.020,175.333 213.499 C 181.962 209.761,191.517 207.153,200.000 206.766 C 200.917 206.724,204.367 206.976,207.667 207.326 M111.000 908.809 C 103.062 909.826,94.432 915.869,90.468 923.188 C 87.698 928.302,86.479 934.986,87.337 940.357 C 88.317 946.493,90.780 951.208,96.304 957.519 C 114.899 978.770,145.146 993.715,179.000 998.377 C 189.723 999.854,210.277 999.854,221.000 998.377 C 254.854 993.715,285.101 978.770,303.696 957.519 C 306.334 954.505,309.285 950.365,310.253 948.319 C 315.320 937.618,312.945 924.858,304.333 916.515 C 297.730 910.118,289.313 907.517,280.189 909.055 C 273.544 910.174,269.396 912.689,262.044 920.055 C 251.408 930.710,241.423 936.319,225.872 940.373 C 209.631 944.607,187.833 944.317,171.650 939.652 C 157.323 935.522,148.421 930.392,138.433 920.509 C 128.184 910.367,121.406 907.476,111.000 908.809 " stroke="none" fill-rule="evenodd" fill="black"></path></svg>