<svg width="400" height="1000" viewBox="0 0 105.83333 264.58333" version="1.1" id="svg5" sodipodi:docname="h.svg" inkscape:version="1.2.1 (9c6d41e410, 2022-07-14)" xmlns:inkscape="http://www.inkscape.org/namespaces/inkscape" xmlns:sodipodi="http://sodipodi.sourceforge.net/DTD/sodipodi-0.dtd" xmlns="http://www.w3.org/2000/svg" xmlns:svg="http://www.w3.org/2000/svg"><path d="M217.333 150.723 C 168.147 154.010,122.933 187.120,87.681 245.667 C 81.571 255.813,69.085 280.979,64.196 293.000 C 43.216 344.584,30.996 402.029,27.344 466.241 C 26.473 481.557,26.473 518.443,27.344 533.759 C 30.889 596.090,42.599 652.452,62.438 702.667 C 67.553 715.613,81.365 743.898,87.667 754.333 C 120.897 809.353,161.898 841.314,208.333 848.395 C 216.931 849.706,233.637 849.711,242.667 848.406 C 288.168 841.828,330.025 809.606,362.364 756.261 C 371.161 741.750,373.995 735.658,374.445 730.283 C 375.465 718.121,369.634 707.847,358.635 702.423 C 350.492 698.407,342.859 698.417,334.190 702.455 C 328.250 705.222,325.269 708.679,317.914 721.333 C 307.316 739.565,299.534 750.239,288.333 761.904 C 271.880 779.041,255.199 789.051,237.541 792.384 C 228.927 794.010,215.754 793.409,207.667 791.022 C 170.827 780.148,137.024 739.863,113.110 678.333 C 72.568 574.021,72.568 425.979,113.110 321.667 C 137.033 260.113,170.813 219.857,207.667 208.978 C 215.754 206.591,228.927 205.990,237.541 207.616 C 255.199 210.949,271.880 220.959,288.333 238.096 C 299.534 249.761,307.316 260.435,317.914 278.667 C 325.269 291.320,328.145 294.657,334.121 297.469 C 342.864 301.584,350.443 301.617,358.635 297.577 C 369.634 292.153,375.465 281.879,374.445 269.717 C 374.124 265.883,373.466 263.895,370.778 258.629 C 356.461 230.590,333.965 201.841,312.356 183.970 C 283.285 159.927,250.624 148.499,217.333 150.723 " stroke="none" fill-rule="evenodd" fill="black"></path></svg>