<svg width="400" height="1000" viewBox="0 0 399.9999924409448 1000" version="1.1" id="svg5" sodipodi:docname="j.svg" inkscape:version="1.2.1 (9c6d41e410, 2022-07-14)" xmlns:inkscape="http://www.inkscape.org/namespaces/inkscape" xmlns:sodipodi="http://sodipodi.sourceforge.net/DTD/sodipodi-0.dtd" xmlns="http://www.w3.org/2000/svg" xmlns:svg="http://www.w3.org/2000/svg"><path d="M312.849 151.948 C 304.483 154.799,298.602 160.759,294.768 170.269 C 293.754 172.783,293.638 191.009,293.310 400.000 C 292.919 649.681,293.249 630.154,288.968 656.667 C 279.649 714.370,255.590 762.428,226.291 781.857 C 209.257 793.154,190.743 793.154,173.709 781.857 C 144.410 762.428,120.351 714.370,111.032 656.667 C 106.752 630.161,107.082 649.534,106.690 401.333 C 106.362 193.582,106.246 175.450,105.232 172.935 C 101.885 164.633,96.942 159.051,90.000 155.736 C 85.965 153.809,85.161 153.667,78.333 153.667 C 71.506 153.667,70.701 153.809,66.667 155.736 C 58.070 159.841,51.836 168.429,50.623 177.839 C 50.304 180.311,50.034 278.361,50.022 395.728 C 49.999 621.856,49.982 620.451,53.053 647.249 C 56.676 678.872,64.388 710.223,75.457 738.333 C 79.396 748.335,89.963 769.369,95.217 777.667 C 112.352 804.722,132.500 824.227,155.000 835.541 C 192.169 854.232,232.718 849.024,267.333 821.115 C 273.462 816.174,286.407 803.170,290.203 798.142 L 293.000 794.437 293.357 885.718 C 293.665 964.386,293.851 977.368,294.709 979.667 C 298.725 990.436,307.450 997.854,317.796 999.297 C 333.061 1001.426,347.377 990.333,349.377 974.828 C 350.222 968.276,350.148 180.878,349.302 175.000 C 347.713 163.963,340.000 154.827,329.610 151.675 C 325.199 150.337,317.193 150.467,312.849 151.948 " stroke="none" fill-rule="evenodd" fill="black"></path></svg>