<svg width="400" height="1000" viewBox="0 0 399.9999924409448 1000" version="1.1" id="svg5" sodipodi:docname="m.svg" inkscape:version="1.2.1 (9c6d41e410, 2022-07-14)" xmlns:inkscape="http://www.inkscape.org/namespaces/inkscape" xmlns:sodipodi="http://sodipodi.sourceforge.net/DTD/sodipodi-0.dtd" xmlns="http://www.w3.org/2000/svg" xmlns:svg="http://www.w3.org/2000/svg"><path d="M42.351 0.743 C 36.824 1.548,31.665 4.251,27.244 8.660 C 22.733 13.158,20.349 17.620,19.240 23.638 C 17.229 34.550,22.286 45.767,32.039 52.025 C 39.274 56.668,29.235 56.297,157.723 56.666 L 273.779 57.000 212.853 106.667 C 179.343 133.983,144.518 162.273,135.463 169.533 C 117.660 183.808,113.352 187.767,103.403 199.000 C 59.024 249.108,31.093 330.065,26.007 423.333 C 25.133 439.358,25.133 560.642,26.007 576.667 C 29.377 638.471,42.834 695.470,64.966 741.693 C 99.664 814.155,151.190 853.041,207.503 849.262 C 274.948 844.736,332.899 777.357,359.676 672.333 C 367.593 641.281,372.125 610.863,373.979 576.333 C 374.855 560.024,374.867 440.268,373.994 423.667 C 372.208 389.709,367.583 358.722,359.638 327.487 C 338.584 244.712,297.193 183.697,246.500 160.708 C 242.925 159.086,240.000 157.531,240.000 157.251 C 240.000 156.827,355.555 62.395,369.410 51.497 C 374.540 47.462,376.729 44.779,379.208 39.490 C 380.813 36.067,381.000 34.900,381.000 28.333 C 381.000 21.499,380.858 20.700,378.912 16.593 C 375.082 8.511,367.163 2.261,358.742 0.676 C 354.252 -0.169,48.170 -0.105,42.351 0.743 M214.333 208.319 C 216.533 208.919,221.353 210.871,225.044 212.657 C 266.960 232.939,301.859 300.584,313.959 385.000 C 317.936 412.750,318.667 430.595,318.667 500.000 C 318.667 557.463,318.217 575.568,316.299 595.333 C 308.205 678.752,277.735 749.988,237.331 779.956 C 213.092 797.935,186.848 797.878,162.446 779.795 C 122.283 750.031,91.846 678.739,83.694 595.333 C 81.763 575.580,81.346 558.663,81.346 500.000 C 81.346 441.337,81.763 424.420,83.694 404.667 C 89.937 340.790,109.103 283.791,136.909 246.398 C 144.409 236.312,150.048 230.448,159.667 222.729 C 170.127 214.333,178.645 209.908,188.667 207.661 C 194.249 206.410,208.690 206.780,214.333 208.319 " stroke="none" fill-rule="evenodd" fill="black"></path></svg>