<svg width="500" height="1000" viewBox="0 0 499.99998110236197 1000" version="1.1" id="svg5" sodipodi:docname="n.svg" inkscape:version="1.2.1 (9c6d41e410, 2022-07-14)" xmlns:inkscape="http://www.inkscape.org/namespaces/inkscape" xmlns:sodipodi="http://sodipodi.sourceforge.net/DTD/sodipodi-0.dtd" xmlns="http://www.w3.org/2000/svg" xmlns:svg="http://www.w3.org/2000/svg"><path d="M74.059 150.902 C 64.770 152.341,55.872 159.425,52.320 168.209 L 50.417 172.917 50.417 500.000 L 50.417 827.083 52.333 831.826 C 54.957 838.319,61.859 845.161,68.174 847.529 C 78.502 851.401,89.781 849.108,97.429 841.579 C 102.666 836.424,104.674 832.617,105.793 825.726 C 106.362 822.217,106.656 770.904,106.660 674.375 L 106.667 528.333 122.917 528.333 L 139.167 528.333 139.175 530.208 C 139.179 531.240,139.556 538.458,140.012 546.250 C 145.724 643.810,167.470 728.883,200.694 783.637 C 224.900 823.531,254.524 846.027,286.875 849.083 C 313.064 851.557,337.433 841.594,360.049 819.167 C 375.336 804.007,385.614 789.289,397.879 765.000 C 440.318 680.952,458.494 547.271,445.354 415.833 C 438.436 346.638,421.310 281.405,397.879 235.000 C 385.634 210.750,375.378 196.060,360.059 180.831 C 341.660 162.539,322.808 152.871,301.753 150.928 C 259.919 147.068,221.385 175.297,192.581 230.905 C 162.404 289.163,144.852 365.600,139.542 461.875 L 139.002 471.667 122.834 471.667 L 106.667 471.667 106.660 325.625 C 106.656 229.096,106.362 177.783,105.793 174.274 C 104.674 167.383,102.666 163.576,97.429 158.421 C 91.174 152.264,82.756 149.556,74.059 150.902 M307.045 209.919 C 322.715 217.634,340.630 241.736,354.388 273.610 C 390.653 357.633,402.982 489.136,385.769 608.333 C 376.092 675.346,356.363 733.525,332.112 766.567 C 324.616 776.779,314.180 786.568,307.044 790.081 C 301.856 792.635,300.579 792.917,294.167 792.917 C 283.832 792.917,278.227 790.005,267.009 778.808 C 234.282 746.143,208.848 671.994,199.115 580.870 C 190.744 502.500,195.048 417.372,210.979 346.250 C 223.156 291.885,243.435 245.576,264.905 223.103 C 276.730 210.727,284.618 206.469,295.018 206.852 C 300.179 207.043,302.303 207.584,307.045 209.919 " stroke="none" fill-rule="evenodd" fill="black"></path></svg>