<svg width="400" height="1000" viewBox="0 0 399.9999924409448 1000" version="1.1" id="svg5" sodipodi:docname="s.svg" inkscape:version="1.2.1 (9c6d41e410, 2022-07-14)" xmlns:inkscape="http://www.inkscape.org/namespaces/inkscape" xmlns:sodipodi="http://sodipodi.sourceforge.net/DTD/sodipodi-0.dtd" xmlns="http://www.w3.org/2000/svg" xmlns:svg="http://www.w3.org/2000/svg"><path d="M74.569 150.659 C 63.027 152.143,52.950 161.958,50.680 173.927 C 49.734 178.919,49.734 821.081,50.680 826.073 C 53.009 838.349,62.941 847.800,75.172 849.377 C 77.644 849.696,104.481 849.966,134.810 849.978 C 180.999 849.996,191.153 849.833,197.340 848.970 C 219.936 845.818,239.342 835.456,258.364 816.385 C 273.019 801.692,284.058 786.108,296.586 762.423 C 320.691 716.851,339.136 646.774,345.949 574.877 C 348.687 545.990,349.000 538.307,349.000 500.000 C 349.000 461.693,348.687 454.010,345.949 425.123 C 339.137 353.241,320.465 282.356,296.482 237.333 C 283.812 213.548,272.944 198.233,258.364 183.615 C 239.196 164.397,219.540 153.969,196.889 150.999 C 190.589 150.174,179.631 150.015,133.799 150.087 C 103.293 150.135,76.640 150.393,74.569 150.659 M199.075 209.063 C 220.429 218.356,242.624 248.401,258.864 290.000 C 276.530 335.250,287.284 388.485,292.129 454.667 C 293.270 470.266,293.270 529.734,292.129 545.333 C 287.284 611.515,276.530 664.750,258.864 710.000 C 242.624 751.599,220.429 781.644,199.075 790.937 L 194.333 793.000 150.500 793.185 L 106.667 793.370 106.667 500.000 L 106.667 206.630 150.500 206.815 L 194.333 207.000 199.075 209.063 M74.333 895.452 C 65.708 896.608,57.310 902.822,53.259 911.048 C 51.105 915.422,51.000 915.976,51.000 922.995 C 51.000 929.923,51.125 930.608,53.128 934.677 C 61.113 950.897,86.310 969.132,113.333 978.247 C 129.656 983.753,144.584 986.097,163.333 986.097 C 170.117 986.097,178.367 985.762,181.667 985.353 C 205.274 982.429,227.854 974.474,244.979 963.047 C 258.331 954.138,268.639 944.014,273.400 935.130 C 275.368 931.458,275.643 930.298,275.874 924.667 C 276.087 919.494,275.875 917.567,274.722 914.151 C 270.431 901.451,257.423 893.437,244.333 895.428 C 237.484 896.470,232.737 899.314,225.136 906.929 C 215.335 916.747,206.055 922.145,191.947 926.233 C 174.889 931.177,151.849 931.209,135.016 926.314 C 120.929 922.217,111.654 916.964,102.676 908.000 C 94.709 900.045,92.493 898.397,87.596 896.787 C 82.519 895.118,79.270 894.791,74.333 895.452 " stroke="none" fill-rule="evenodd" fill="black"></path></svg>