<svg width="250" height="1000" viewBox="0 0 249.9999943307086 1000" version="1.1" id="svg5" sodipodi:docname="U+0022.svg" inkscape:version="1.2.1 (9c6d41e410, 2022-07-14)" xmlns:inkscape="http://www.inkscape.org/namespaces/inkscape" xmlns:sodipodi="http://sodipodi.sourceforge.net/DTD/sodipodi-0.dtd" xmlns="http://www.w3.org/2000/svg" xmlns:svg="http://www.w3.org/2000/svg"><path d="M77.500 0.281 C 69.599 1.027,62.369 4.841,57.690 10.733 C 55.466 13.533,52.822 18.827,52.022 22.083 C 51.564 23.945,51.458 33.864,51.458 75.000 C 51.458 130.863,51.304 127.542,54.188 133.542 C 57.897 141.258,64.614 146.855,72.708 148.976 C 76.001 149.838,83.166 149.838,86.458 148.976 C 92.076 147.504,97.952 143.706,101.476 139.267 C 103.700 136.467,106.344 131.173,107.145 127.917 C 107.977 124.533,107.977 25.467,107.145 22.083 C 106.344 18.827,103.700 13.533,101.476 10.733 C 95.932 3.751,86.107 -0.532,77.500 0.281 M168.333 0.281 C 160.442 1.026,153.256 4.813,148.502 10.733 C 146.309 13.464,143.699 18.715,142.862 22.083 C 142.018 25.474,142.018 124.526,142.862 127.917 C 143.699 131.285,146.309 136.536,148.502 139.267 C 152.226 143.905,158.911 148.082,164.375 149.186 C 167.768 149.872,174.246 149.764,177.292 148.971 C 182.896 147.513,188.782 143.709,192.310 139.267 C 194.655 136.315,197.247 131.035,197.986 127.708 C 198.803 124.033,198.803 25.967,197.986 22.292 C 197.247 18.965,194.655 13.685,192.310 10.733 C 186.765 3.751,176.941 -0.532,168.333 0.281 " stroke="none" fill-rule="evenodd" fill="black"></path></svg>