<svg width="600" height="1000" viewBox="0 0 158.75 264.58333" version="1.1" id="svg5" xmlns="http://www.w3.org/2000/svg" xmlns:svg="http://www.w3.org/2000/svg"><path d="M66.500 163.324 C 58.215 166.585,53.713 170.550,49.840 178.000 C 46.597 184.237,46.573 195.614,49.790 201.723 C 52.794 207.430,58.358 212.809,63.911 215.377 C 68.481 217.491,68.932 217.501,170.250 217.773 L 272.000 218.046 272.000 502.523 L 272.000 787.000 220.510 787.000 L 169.020 787.000 168.760 590.250 L 168.500 393.500 165.839 389.000 C 160.152 379.382,151.793 374.543,140.932 374.584 C 130.134 374.624,120.477 381.086,115.812 391.393 L 113.500 396.500 113.500 612.000 L 113.500 827.500 115.649 832.149 C 118.092 837.434,124.313 844.073,129.197 846.608 C 131.014 847.551,135.731 848.532,139.680 848.788 C 146.154 849.208,147.514 848.948,153.514 846.140 L 160.168 843.026 294.980 843.029 L 429.791 843.032 430.147 858.766 C 430.468 872.902,430.741 874.957,432.839 879.000 C 442.359 897.345,464.946 900.711,478.613 885.823 C 486.707 877.005,486.048 900.328,485.758 632.967 L 485.500 394.500 483.243 390.277 C 473.944 372.874,452.105 369.124,438.614 382.614 C 436.477 384.751,433.777 388.525,432.614 391.000 L 430.500 395.500 430.240 591.250 L 429.980 787.000 378.990 787.000 L 328.000 787.000 328.000 502.523 L 328.000 218.046 429.750 217.773 L 531.500 217.500 536.000 215.165 C 542.371 211.858,547.522 206.539,550.055 200.651 C 553.130 193.504,552.511 182.332,548.707 176.320 C 545.382 171.063,541.618 167.474,536.500 164.682 L 532.500 162.500 301.000 162.322 C 125.052 162.186,68.780 162.427,66.500 163.324 " stroke="none" fill-rule="evenodd" fill="#000000"></path></svg>