<svg width="200" height="1000" viewBox="0 0 200 1000" version="1.1" id="svg5" sodipodi:docname="U+003A.svg" inkscape:version="1.2.1 (9c6d41e410, 2022-07-14)" xmlns:inkscape="http://www.inkscape.org/namespaces/inkscape" xmlns:sodipodi="http://sodipodi.sourceforge.net/DTD/sodipodi-0.dtd" xmlns="http://www.w3.org/2000/svg" xmlns:svg="http://www.w3.org/2000/svg"><path d="M95.939 220.343 C 77.366 222.431,62.658 236.158,59.538 254.318 C 58.858 258.278,58.848 264.375,59.516 268.205 C 61.996 282.424,72.173 294.683,85.735 299.784 C 90.619 301.621,93.755 302.138,100.000 302.138 C 105.000 302.138,106.286 302.027,109.000 301.356 C 116.812 299.425,122.771 296.184,128.297 290.861 C 136.606 282.856,141.000 272.643,141.000 261.333 C 141.000 252.655,138.389 244.371,133.458 237.407 C 129.998 232.519,123.692 227.160,118.167 224.412 C 111.690 221.190,102.832 219.569,95.939 220.343 M95.167 697.865 C 83.584 699.534,73.824 705.253,67.014 714.362 C 57.827 726.651,56.392 743.534,63.370 757.240 C 65.543 761.507,67.592 764.300,71.147 767.840 C 79.005 775.665,88.884 779.739,100.000 779.739 C 111.116 779.739,120.995 775.665,128.853 767.840 C 132.408 764.300,134.457 761.507,136.630 757.240 C 141.518 747.638,142.384 736.047,138.973 725.867 C 135.104 714.319,125.949 704.723,114.611 700.329 C 110.444 698.715,106.374 697.961,101.167 697.839 C 98.417 697.774,95.717 697.786,95.167 697.865 " stroke="none" fill="black" fill-rule="evenodd"></path></svg>