<svg width="200" height="1000" viewBox="0 0 200 1000" version="1.1" id="svg5" sodipodi:docname="U+002E.svg" inkscape:version="1.2.1 (9c6d41e410, 2022-07-14)" xmlns:inkscape="http://www.inkscape.org/namespaces/inkscape" xmlns:sodipodi="http://sodipodi.sourceforge.net/DTD/sodipodi-0.dtd" xmlns="http://www.w3.org/2000/svg" xmlns:svg="http://www.w3.org/2000/svg"><path d="M95.167 767.865 C 83.584 769.534,73.824 775.253,67.014 784.362 C 57.827 796.651,56.392 813.534,63.370 827.240 C 65.543 831.507,67.592 834.300,71.147 837.840 C 79.005 845.665,88.884 849.739,100.000 849.739 C 111.116 849.739,120.995 845.665,128.853 837.840 C 132.408 834.300,134.457 831.507,136.630 827.240 C 141.518 817.638,142.384 806.047,138.973 795.867 C 135.104 784.319,125.949 774.723,114.611 770.329 C 110.444 768.715,106.374 767.961,101.167 767.839 C 98.417 767.774,95.717 767.786,95.167 767.865 " stroke="none" fill="black" fill-rule="evenodd"></path></svg>