<svg width="500" height="1000" viewBox="0 0 132.29166 264.58333" version="1.1" id="svg5" sodipodi:docname="U+003F.svg" inkscape:version="1.2.1 (9c6d41e410, 2022-07-14)" xmlns:inkscape="http://www.inkscape.org/namespaces/inkscape" xmlns:sodipodi="http://sodipodi.sourceforge.net/DTD/sodipodi-0.dtd" xmlns="http://www.w3.org/2000/svg" xmlns:svg="http://www.w3.org/2000/svg"><path d="M113.988 175.858 C 105.648 177.263,97.698 183.224,93.459 191.250 C 91.527 194.908,91.258 196.384,91.258 203.333 C 91.258 210.283,91.527 211.759,93.459 215.417 C 97.876 223.780,105.568 229.362,114.748 230.865 C 117.606 231.333,159.529 231.659,217.292 231.662 C 271.031 231.664,315.000 231.885,315.000 232.151 C 315.000 232.561,106.369 541.451,87.278 569.307 C 78.423 582.227,66.926 605.615,61.745 621.250 C 54.009 644.595,50.651 664.786,50.589 688.333 C 50.475 731.791,63.978 770.535,88.056 795.837 C 97.249 805.498,104.205 810.742,114.583 815.836 C 124.896 820.898,132.738 823.088,144.581 824.212 C 150.655 824.789,199.888 824.998,290.417 824.833 C 417.464 824.601,427.335 824.482,430.666 823.148 C 438.646 819.949,445.265 813.273,447.999 805.666 C 451.082 797.087,451.226 797.687,425.415 711.667 C 412.157 667.483,400.557 630.282,399.336 628.034 C 394.011 618.232,381.719 612.305,370.867 614.309 C 357.305 616.813,347.446 628.474,347.534 641.906 C 347.562 646.187,350.709 657.542,365.716 707.500 L 383.864 767.917 264.224 768.132 L 144.583 768.347 139.452 765.826 C 112.016 752.346,99.007 699.157,111.288 650.678 C 116.299 630.899,124.553 613.542,138.652 593.141 C 167.802 550.961,392.885 216.855,394.382 213.543 C 397.029 207.687,396.851 198.623,393.966 192.320 C 391.500 186.934,385.885 180.910,381.013 178.425 C 379.192 177.496,375.312 176.348,372.392 175.874 C 366.056 174.846,120.085 174.831,113.988 175.858 " stroke="none" fill-rule="evenodd" fill="black"></path></svg>