<svg width="500" height="1000" viewBox="0 0 132.29166 264.58333" version="1.1" id="svg5" sodipodi:docname="ｅｉ.svg" inkscape:version="1.3 (0e150ed6c4, 2023-07-21)" xml:space="preserve" xmlns:inkscape="http://www.inkscape.org/namespaces/inkscape" xmlns:sodipodi="http://sodipodi.sourceforge.net/DTD/sodipodi-0.dtd" xmlns="http://www.w3.org/2000/svg" xmlns:svg="http://www.w3.org/2000/svg"><path d="M220.270 51.200 C 215.776 52.605,211.903 55.031,208.641 58.487 C 205.107 62.229,41.858 300.099,39.015 305.648 C 37.776 308.067,36.508 311.741,36.197 313.813 C 35.567 318.013,36.979 326.574,38.920 330.329 C 41.325 334.980,47.406 340.562,52.721 342.999 C 62.501 347.481,53.567 349.412,214.527 308.032 C 294.245 287.538,360.009 270.878,360.668 271.010 C 361.327 271.142,374.479 286.621,389.895 305.408 C 417.199 338.684,418.063 339.636,423.337 342.283 C 430.773 346.015,436.472 346.561,444.026 344.267 C 451.425 342.019,458.004 336.347,461.357 329.325 C 464.564 322.609,464.649 313.257,461.563 306.667 C 460.181 303.717,449.041 289.459,430.310 266.667 C 414.301 247.188,398.589 228.003,395.393 224.034 C 379.632 204.456,328.618 142.840,326.022 140.244 C 321.159 135.381,314.920 132.979,307.083 132.953 C 298.848 132.925,294.427 134.750,288.001 140.827 C 281.667 146.818,279.595 151.777,279.643 160.833 C 279.672 166.420,280.075 168.732,281.551 171.774 C 282.580 173.895,291.996 186.083,302.476 198.857 C 312.956 211.632,321.280 222.313,320.974 222.593 C 320.148 223.350,130.666 271.777,130.232 271.343 C 130.028 271.139,157.361 230.917,190.972 181.961 C 224.583 133.005,253.021 91.069,254.167 88.769 C 255.868 85.353,256.250 83.362,256.250 77.901 C 256.250 72.005,255.921 70.547,253.466 65.561 C 247.420 53.279,233.239 47.144,220.270 51.200 M120.000 366.156 C 117.479 366.715,114.239 367.797,112.800 368.560 C 108.867 370.646,103.178 376.713,100.833 381.322 C 98.842 385.236,98.741 386.153,98.552 402.083 C 96.815 548.116,89.431 643.739,72.778 735.833 C 59.326 810.226,37.835 878.186,19.146 905.435 C 8.784 920.545,13.181 938.173,29.583 947.272 C 33.294 949.330,34.571 949.579,41.250 949.546 C 55.855 949.473,62.524 943.769,74.819 920.833 C 106.456 861.816,132.647 749.890,144.532 622.917 C 149.825 566.379,154.114 481.972,154.156 433.542 L 154.167 421.667 230.875 421.667 L 307.583 421.667 307.023 608.125 C 306.448 799.364,306.759 829.079,309.620 856.421 C 312.640 885.291,318.002 904.563,326.735 917.941 C 336.922 933.545,348.954 942.101,367.982 947.270 L 376.250 949.515 414.583 949.549 L 452.917 949.583 457.500 947.410 C 462.888 944.855,468.166 939.746,470.738 934.596 C 472.893 930.280,474.298 922.646,473.626 918.895 C 472.727 913.879,428.111 767.910,426.498 764.709 C 423.991 759.733,418.877 754.715,413.578 752.030 C 409.355 749.890,407.863 749.585,401.667 749.594 C 395.640 749.604,393.882 749.948,389.881 751.904 C 381.655 755.926,375.063 765.032,373.742 774.199 C 373.033 779.119,372.983 778.936,391.736 840.492 C 400.406 868.950,407.500 892.714,407.500 893.301 C 407.500 894.140,404.765 894.288,394.792 893.992 C 380.873 893.578,377.417 892.692,374.308 888.740 C 369.701 882.883,365.854 862.584,364.044 834.583 C 363.281 822.776,363.008 763.764,362.969 602.500 L 362.917 386.250 360.470 381.422 C 356.035 372.668,348.459 367.280,338.578 365.852 C 329.764 364.577,125.840 364.861,120.000 366.156 " stroke="none" fill-rule="evenodd" fill="black"></path></svg>