<svg width="500" height="1000" viewBox="0 0 132.29166 264.58333" version="1.1" id="svg5" xml:space="preserve" xmlns="http://www.w3.org/2000/svg" xmlns:svg="http://www.w3.org/2000/svg"><path d="M70.612 72.569 C 63.024 74.368,56.487 79.815,53.195 87.083 C 51.012 91.900,50.646 100.161,52.389 105.220 C 54.254 110.632,59.379 116.226,65.080 119.075 L 70.266 121.667 220.133 121.667 C 302.560 121.667,370.000 121.956,370.000 122.310 C 370.000 123.412,340.161 154.414,328.329 165.605 C 270.314 220.480,198.696 268.945,135.978 295.771 L 124.447 300.704 94.098 300.977 C 64.495 301.243,63.648 301.297,59.583 303.165 C 54.751 305.386,48.861 310.798,46.674 315.026 C 44.316 319.586,43.348 326.369,44.299 331.667 C 46.296 342.778,54.980 350.827,66.820 352.539 C 69.846 352.976,139.496 353.307,230.694 353.317 C 318.275 353.326,389.181 353.653,389.028 354.047 C 387.424 358.164,235.403 677.494,235.055 677.477 C 234.795 677.464,220.333 650.384,202.917 617.298 C 174.419 563.163,170.791 556.681,166.667 552.526 C 154.375 540.143,134.663 543.024,126.279 558.428 C 123.192 564.100,122.402 573.153,124.512 578.678 C 125.281 580.692,165.601 657.282,214.113 748.878 C 275.809 865.369,303.352 916.591,305.765 919.326 C 315.619 930.491,331.694 930.900,342.827 920.269 C 349.754 913.654,352.278 901.980,348.665 893.271 C 347.795 891.174,328.802 854.965,306.458 812.806 C 284.115 770.647,265.833 735.690,265.833 735.122 C 265.833 734.554,307.709 645.888,358.890 538.086 C 410.071 430.285,452.879 339.833,454.018 337.083 C 459.354 324.212,453.776 309.857,441.002 303.584 L 436.250 301.250 335.000 300.822 C 279.313 300.587,234.180 300.305,234.705 300.197 C 236.340 299.859,272.500 275.635,285.523 266.153 C 340.745 225.943,389.611 179.260,434.147 124.167 C 447.237 107.973,448.731 105.189,448.671 97.083 C 448.595 86.804,443.093 78.292,433.750 73.998 L 429.583 72.083 251.667 71.954 C 149.669 71.880,72.411 72.142,70.612 72.569 " stroke="none" fill-rule="evenodd" fill="black"></path></svg>