<svg width="500" height="1000" viewBox="0 0 132.29166 264.58333" version="1.1" id="svg5" xml:space="preserve" xmlns="http://www.w3.org/2000/svg" xmlns:svg="http://www.w3.org/2000/svg"><path d="M69.283 86.785 C 62.806 88.660,56.233 94.566,53.186 101.250 C 50.655 106.801,50.615 115.433,53.094 120.958 C 55.176 125.599,60.266 130.887,65.174 133.507 L 68.750 135.417 219.568 135.833 L 370.386 136.250 363.650 143.750 C 343.459 166.230,307.195 200.051,280.833 220.987 C 245.866 248.758,205.620 275.005,167.917 294.629 C 146.621 305.713,137.148 309.684,130.603 310.270 C 127.497 310.547,123.291 311.511,121.255 312.412 C 115.643 314.894,109.742 320.892,107.084 326.815 L 104.785 331.938 104.469 364.094 C 102.986 515.080,92.985 628.721,72.447 727.970 C 59.911 788.552,42.525 841.131,25.950 868.588 C 20.571 877.499,19.674 880.535,20.234 887.937 C 21.256 901.454,31.695 912.292,45.185 913.843 C 51.843 914.608,60.265 911.860,65.567 907.193 C 82.207 892.547,106.443 830.293,122.409 761.185 C 138.655 690.868,148.408 618.759,155.427 517.083 C 156.846 496.527,158.371 461.197,159.168 430.417 C 159.667 411.167,160.286 388.948,160.544 381.042 L 161.012 366.667 237.173 366.667 L 313.333 366.667 313.348 570.625 C 313.365 799.496,313.533 807.791,318.767 838.750 C 321.358 854.078,324.166 863.556,329.170 873.864 C 336.416 888.789,346.017 898.769,359.583 905.476 C 374.939 913.066,385.309 914.370,427.500 914.014 L 458.750 913.750 463.517 911.516 C 469.139 908.881,474.596 903.544,477.500 897.841 C 479.288 894.330,479.574 892.686,479.514 886.250 C 479.447 878.952,478.833 876.682,456.758 802.083 C 443.839 758.426,433.203 723.933,432.057 721.971 C 426.775 712.935,415.056 706.685,405.682 707.904 C 395.938 709.172,386.855 715.571,382.771 724.048 C 380.888 727.956,380.504 729.876,380.501 735.417 C 380.498 741.657,381.574 745.724,397.332 798.998 C 406.591 830.301,414.167 856.458,414.167 857.123 C 414.167 859.485,389.778 858.250,384.276 855.611 C 378.841 853.003,374.657 839.581,372.101 816.550 C 369.200 790.406,368.925 762.969,369.408 547.955 C 369.726 406.870,369.602 336.487,369.031 333.399 C 368.564 330.871,367.440 327.349,366.533 325.572 C 364.101 320.805,358.057 315.170,352.664 312.642 L 347.917 310.417 295.086 310.168 L 242.255 309.919 259.257 298.501 C 326.515 253.334,383.530 201.130,433.712 138.767 C 447.022 122.226,448.729 119.094,448.705 111.250 C 448.675 101.298,443.448 93.009,434.167 88.195 L 430.417 86.250 251.250 86.112 C 137.190 86.024,71.066 86.269,69.283 86.785 " stroke="none" fill-rule="evenodd" fill="black"></path></svg>