<svg width="400" height="1000" viewBox="0 0 399.9999924409448 1000" version="1.1" id="svg5" sodipodi:docname="u.svg" inkscape:version="1.2.1 (9c6d41e410, 2022-07-14)" xmlns:inkscape="http://www.inkscape.org/namespaces/inkscape" xmlns:sodipodi="http://sodipodi.sourceforge.net/DTD/sodipodi-0.dtd" xmlns="http://www.w3.org/2000/svg" xmlns:svg="http://www.w3.org/2000/svg"><path d="M166.000 150.723 C 116.860 154.007,71.655 187.061,36.748 245.235 C 28.374 259.190,26.001 264.391,25.549 269.785 C 24.536 281.874,30.393 292.166,41.365 297.577 C 49.557 301.617,57.136 301.584,65.879 297.469 C 71.863 294.653,74.730 291.324,82.071 278.667 C 92.536 260.624,100.440 249.788,111.667 238.096 C 128.120 220.959,144.801 210.949,162.459 207.616 C 171.073 205.990,184.246 206.591,192.333 208.978 C 221.421 217.564,248.170 243.868,270.661 286.000 C 318.283 375.211,330.926 514.461,301.924 630.333 C 282.456 708.112,245.790 766.807,204.459 786.354 C 194.519 791.055,187.802 792.736,177.333 793.143 C 160.960 793.779,147.585 789.790,132.667 779.821 C 114.069 767.394,98.182 749.024,82.086 721.333 C 77.657 713.713,74.285 708.719,72.365 706.933 C 64.944 700.034,52.913 697.558,43.933 701.082 C 39.271 702.912,33.483 707.147,31.006 710.540 C 27.169 715.797,25.667 720.711,25.667 728.000 C 25.667 734.126,25.760 734.522,28.537 740.099 C 32.003 747.063,40.584 761.454,46.168 769.667 C 73.252 809.504,108.058 836.581,144.000 845.774 C 163.295 850.709,185.259 850.706,204.667 845.766 C 240.524 836.639,274.346 810.450,302.132 770.296 C 313.452 753.938,329.062 724.136,337.556 702.667 C 355.119 658.276,366.605 607.449,371.303 553.333 C 374.048 521.718,374.048 478.282,371.303 446.667 C 366.606 392.564,355.144 341.836,337.562 297.333 C 332.447 284.387,318.635 256.102,312.333 245.667 C 272.846 180.287,221.559 147.011,166.000 150.723 " stroke="none" fill-rule="evenodd" fill="black"></path></svg>