<svg width="400" height="1000" viewBox="0 0 399.9999924409448 1000" version="1.1" id="svg5" sodipodi:docname="x.svg" inkscape:version="1.2.1 (9c6d41e410, 2022-07-14)" xmlns:inkscape="http://www.inkscape.org/namespaces/inkscape" xmlns:sodipodi="http://sodipodi.sourceforge.net/DTD/sodipodi-0.dtd" xmlns="http://www.w3.org/2000/svg" xmlns:svg="http://www.w3.org/2000/svg"><path d="M70.333 154.231 C 65.608 155.795,62.414 157.777,58.736 161.429 C 54.339 165.794,51.413 171.713,50.623 177.839 C 49.864 183.727,49.864 816.273,50.623 822.161 C 51.836 831.571,58.070 840.159,66.667 844.264 C 70.701 846.191,71.506 846.333,78.333 846.333 C 85.161 846.333,85.965 846.191,90.000 844.264 C 96.942 840.949,101.885 835.367,105.232 827.065 C 106.246 824.550,106.362 806.418,106.690 598.667 C 107.082 350.466,106.752 369.839,111.032 343.333 C 124.123 262.268,165.240 204.261,205.553 209.984 C 242.568 215.238,277.231 270.651,288.968 343.333 C 293.263 369.934,292.937 350.068,293.184 600.333 C 293.344 762.059,293.198 829.752,292.677 834.893 C 290.647 854.942,284.716 871.778,274.859 885.474 C 269.648 892.715,258.308 903.436,250.034 908.945 C 222.523 927.259,182.402 937.934,125.667 942.033 C 120.167 942.430,106.067 943.014,94.333 943.331 C 79.596 943.729,72.176 944.185,70.333 944.805 C 60.019 948.279,52.102 957.487,50.729 967.608 C 48.625 983.110,59.611 997.385,75.172 999.371 C 80.007 999.988,115.290 999.123,130.529 998.014 C 202.107 992.805,252.353 977.468,289.667 949.439 C 298.167 943.054,312.407 928.842,318.496 920.667 C 337.458 895.208,347.134 866.756,349.331 830.000 C 349.739 823.173,349.987 737.699,349.985 604.667 C 349.981 381.925,349.970 380.961,347.309 355.667 C 341.339 298.931,322.207 244.816,295.236 208.377 C 288.400 199.141,277.897 187.790,270.187 181.306 C 225.907 144.064,174.109 144.048,129.864 181.263 C 123.967 186.223,113.011 197.562,108.531 203.342 L 106.729 205.667 106.685 193.667 C 106.660 187.067,106.366 179.775,106.032 177.463 C 104.698 168.237,98.420 159.737,90.000 155.757 C 86.259 153.988,84.801 153.684,79.333 153.529 C 75.390 153.417,71.994 153.682,70.333 154.231 " stroke="none" fill-rule="evenodd" fill="black"></path></svg>