<svg width="400" height="1000" viewBox="0 0 105.83333 264.58333" version="1.1" id="svg5" sodipodi:docname="z.svg" inkscape:version="1.2.1 (9c6d41e410, 2022-07-14)" xmlns:inkscape="http://www.inkscape.org/namespaces/inkscape" xmlns:sodipodi="http://sodipodi.sourceforge.net/DTD/sodipodi-0.dtd" xmlns="http://www.w3.org/2000/svg" xmlns:svg="http://www.w3.org/2000/svg"><path d="M314.834 155.030 C 309.827 156.378,306.287 158.345,302.516 161.872 C 298.436 165.689,296.251 169.355,293.670 176.716 C 292.568 179.860,250.117 290.886,199.333 423.442 L 107.000 664.451 106.667 420.726 C 106.360 196.151,106.247 176.785,105.232 174.269 C 101.841 165.857,97.029 160.423,90.000 157.068 C 85.966 155.143,85.160 155.000,78.333 155.000 C 71.506 155.000,70.701 155.143,66.667 157.069 C 58.070 161.175,51.836 169.763,50.623 179.172 C 49.780 185.711,49.826 818.220,50.670 822.742 C 51.702 828.273,54.845 834.011,58.987 837.929 C 69.918 848.266,86.503 848.399,97.368 838.236 C 101.563 834.313,103.732 830.694,106.330 823.286 C 107.432 820.143,149.883 709.116,200.667 576.560 L 293.000 335.548 293.333 579.274 C 293.640 803.849,293.753 823.215,294.768 825.731 C 298.159 834.143,302.971 839.577,310.000 842.932 C 314.034 844.857,314.840 845.000,321.667 845.000 C 328.494 845.000,329.299 844.857,333.333 842.931 C 341.930 838.825,348.164 830.237,349.377 820.828 C 350.221 814.278,350.174 181.764,349.328 177.306 C 347.141 165.775,337.753 156.530,326.333 154.662 C 321.157 153.815,319.100 153.881,314.834 155.030 M105.158 908.731 C 102.886 908.984,99.480 910.063,96.824 911.370 C 82.837 918.255,76.978 934.721,83.657 948.373 C 87.069 955.347,97.716 966.235,109.158 974.451 C 117.294 980.293,132.496 987.808,143.667 991.509 C 161.437 997.397,174.684 999.489,194.000 999.458 C 219.263 999.417,240.504 994.683,261.538 984.407 C 280.492 975.148,298.348 959.919,304.203 948.019 C 306.217 943.927,306.332 943.289,306.303 936.345 C 306.276 929.846,306.069 928.558,304.505 925.165 C 302.464 920.733,296.959 914.618,292.836 912.202 C 286.209 908.318,277.475 907.487,269.922 910.020 C 264.617 911.799,262.523 913.337,255.000 920.981 C 240.519 935.694,219.458 943.355,193.581 943.321 C 174.066 943.296,157.113 938.707,142.829 929.583 C 140.901 928.351,135.797 923.955,131.486 919.813 C 125.469 914.032,122.798 911.943,119.990 910.822 C 115.275 908.939,109.985 908.193,105.158 908.731 " stroke="none" fill-rule="evenodd" fill="black"></path></svg>