<svg width="300" height="1000" viewBox="0 0 299.9999962204724 1000" version="1.1" id="svg5" sodipodi:docname="{.svg" inkscape:version="1.2.1 (9c6d41e410, 2022-07-14)" xmlns:inkscape="http://www.inkscape.org/namespaces/inkscape" xmlns:sodipodi="http://sodipodi.sourceforge.net/DTD/sodipodi-0.dtd" xmlns="http://www.w3.org/2000/svg" xmlns:svg="http://www.w3.org/2000/svg"><path d="M69.213 0.517 C 63.255 1.308,57.772 4.240,53.201 9.081 C 49.776 12.707,48.249 15.237,46.693 19.866 C 45.508 23.392,45.411 24.257,45.642 29.250 L 45.897 34.750 100.396 219.000 C 130.371 320.338,154.858 403.292,154.812 403.344 C 154.767 403.395,151.925 403.240,148.497 403.000 C 105.085 399.953,64.185 426.630,48.841 468.000 C 42.170 485.986,41.013 507.395,45.712 525.932 C 49.299 540.083,55.920 553.421,64.862 564.508 C 71.102 572.245,81.568 581.496,89.750 586.506 C 107.019 597.080,126.089 602.077,146.352 601.335 C 152.587 601.106,154.405 601.178,154.239 601.644 C 154.121 601.977,129.685 683.362,99.937 782.500 L 45.850 962.750 45.620 968.105 C 45.430 972.555,45.566 974.035,46.429 976.855 C 49.287 986.197,57.146 993.842,66.322 996.208 C 69.066 996.915,78.300 997.000,152.592 997.000 C 225.686 997.000,236.147 996.907,238.729 996.234 C 248.243 993.756,256.755 985.065,259.003 975.534 C 259.892 971.766,259.776 965.206,258.760 961.711 C 256.648 954.445,251.063 947.456,244.703 944.122 C 238.528 940.885,241.528 941.016,173.375 941.007 C 128.754 941.002,111.500 940.847,111.500 940.451 C 111.500 940.148,137.517 853.130,169.315 747.076 C 225.565 559.470,227.215 554.081,230.252 548.000 C 238.508 531.467,241.949 516.269,241.345 499.000 C 240.787 483.052,237.415 470.173,229.956 455.500 C 227.796 451.252,221.394 429.947,169.335 253.750 L 111.129 56.750 174.190 56.500 L 237.250 56.250 240.481 55.084 C 245.180 53.388,247.839 51.681,251.500 48.009 C 255.033 44.466,257.422 40.442,258.778 35.750 C 260.002 31.516,259.896 24.253,258.548 19.964 C 255.990 11.826,248.409 4.221,240.000 1.357 L 236.750 0.250 154.500 0.182 C 109.263 0.145,70.884 0.295,69.213 0.517 M152.916 460.231 C 156.748 461.171,162.455 463.753,166.212 466.247 C 169.758 468.600,175.650 474.425,176.385 476.302 C 176.696 477.098,178.557 483.212,180.518 489.888 L 184.085 502.027 180.236 514.888 C 178.120 521.962,176.098 528.313,175.744 529.000 C 174.923 530.594,169.432 535.843,166.500 537.837 C 159.602 542.528,153.366 544.491,144.192 544.861 C 136.500 545.172,132.567 544.608,126.486 542.324 C 117.136 538.812,108.107 530.610,103.451 521.398 C 99.604 513.789,98.156 503.412,99.704 494.552 C 102.841 476.600,117.279 462.342,135.238 459.460 C 138.878 458.876,149.231 459.328,152.916 460.231 " stroke="none" fill-rule="evenodd" fill="black"></path></svg>