<svg width="300" height="1000" viewBox="0 0 299.9999962204724 1000" version="1.1" id="svg5" sodipodi:docname="}.svg" inkscape:version="1.2.1 (9c6d41e410, 2022-07-14)" xmlns:inkscape="http://www.inkscape.org/namespaces/inkscape" xmlns:sodipodi="http://sodipodi.sourceforge.net/DTD/sodipodi-0.dtd" xmlns="http://www.w3.org/2000/svg" xmlns:svg="http://www.w3.org/2000/svg"><path d="M66.989 0.481 C 56.085 1.914,46.138 10.919,43.536 21.711 C 42.682 25.251,42.816 32.724,43.792 36.000 C 46.790 46.061,54.869 53.598,65.000 55.782 C 67.687 56.361,78.934 56.484,129.928 56.491 C 183.749 56.499,191.571 56.593,191.327 57.229 C 191.173 57.630,164.950 146.276,133.053 254.221 C 75.709 448.282,75.022 450.560,71.752 457.264 C 57.383 486.730,57.386 517.268,71.763 546.922 L 75.515 554.664 133.258 747.238 C 165.016 853.154,191.000 940.079,191.000 940.406 C 191.000 940.861,176.559 941.002,129.125 941.007 C 75.704 941.014,66.812 941.118,64.047 941.770 C 54.957 943.913,46.874 951.650,43.961 961.000 C 42.667 965.150,42.571 972.269,43.754 976.337 C 45.851 983.551,51.456 990.553,57.791 993.875 C 64.137 997.202,58.183 997.000,150.000 997.000 C 223.176 997.000,233.647 996.907,236.229 996.234 C 245.439 993.836,253.366 986.007,256.210 976.500 C 257.377 972.602,257.287 965.683,256.012 961.126 C 254.898 957.149,149.255 604.585,148.520 602.394 L 148.066 601.039 156.158 601.335 C 180.799 602.237,204.411 594.394,223.150 579.082 C 228.447 574.753,237.261 565.371,241.106 559.967 C 254.573 541.040,261.023 518.404,259.481 495.476 C 256.485 450.922,223.814 413.636,179.960 404.722 C 173.298 403.368,161.614 402.389,156.784 402.780 C 147.790 403.509,148.000 403.509,148.000 402.772 C 148.000 402.381,172.089 320.540,201.532 220.905 C 230.974 121.270,255.505 38.175,256.044 36.250 C 257.174 32.215,257.368 25.460,256.463 21.705 C 254.315 12.798,246.522 4.424,237.536 1.368 L 234.250 0.250 152.000 0.184 C 106.763 0.148,68.507 0.282,66.989 0.481 M172.750 460.736 C 186.481 464.769,197.638 475.914,201.794 489.750 C 202.966 493.652,203.153 495.180,203.198 501.250 C 203.253 508.711,202.657 512.601,200.683 517.660 C 196.455 528.492,187.496 537.672,176.880 542.049 C 171.109 544.429,166.336 545.161,158.545 544.862 C 149.036 544.497,143.809 542.883,136.510 538.060 C 133.116 535.818,127.661 530.763,126.772 529.037 C 126.408 528.329,124.390 521.955,122.288 514.871 L 118.467 501.992 122.342 488.913 C 126.629 474.447,126.717 474.277,132.686 469.085 C 137.720 464.707,144.577 461.296,150.750 460.100 C 152.400 459.781,154.200 459.413,154.750 459.284 C 155.300 459.154,158.563 459.131,162.000 459.232 C 166.899 459.375,169.223 459.701,172.750 460.736 " stroke="none" fill-rule="evenodd" fill="black"></path></svg>