<svg width="600" height="1000" viewBox="0 0 158.75 264.58333" version="1.1" id="svg5" sodipodi:docname="Ⅽ.svg" inkscape:version="1.2.1 (9c6d41e410, 2022-07-14)" xmlns:inkscape="http://www.inkscape.org/namespaces/inkscape" xmlns:sodipodi="http://sodipodi.sourceforge.net/DTD/sodipodi-0.dtd" xmlns="http://www.w3.org/2000/svg" xmlns:svg="http://www.w3.org/2000/svg"><path d="M294.903 51.052 C 285.993 52.483,278.594 58.380,274.395 67.398 L 272.020 72.500 272.010 117.250 L 272.000 162.000 195.160 162.000 L 118.319 162.000 112.200 165.058 C 102.717 169.796,97.181 177.755,96.290 187.928 C 95.335 198.833,102.386 210.514,112.844 215.348 C 117.465 217.484,118.079 217.502,194.757 217.780 L 272.014 218.059 271.757 283.280 L 271.500 348.500 170.500 349.000 L 69.500 349.500 65.500 351.662 C 60.415 354.411,55.810 359.266,52.865 364.983 C 49.625 371.271,49.625 381.726,52.863 388.017 C 56.085 394.276,61.437 399.511,67.106 401.950 L 71.926 404.024 299.279 404.024 C 467.983 404.024,527.518 403.727,530.066 402.874 C 545.244 397.790,553.285 379.643,546.626 365.500 C 543.854 359.612,540.910 356.292,534.981 352.368 L 530.647 349.500 429.323 349.231 L 328.000 348.963 328.000 283.511 L 328.000 218.059 405.250 217.780 L 482.500 217.500 487.000 215.163 C 497.460 209.730,502.989 201.017,502.968 190.000 C 502.946 178.378,495.845 167.956,485.245 163.990 C 480.105 162.067,477.355 162.000,404.010 162.000 L 328.096 162.000 327.798 117.250 C 327.501 72.654,327.492 72.482,325.137 67.273 C 319.911 55.714,307.463 49.036,294.903 51.052 M109.275 477.654 C 106.951 478.477,102.813 481.161,100.081 483.617 C 85.650 496.592,88.907 519.506,106.458 528.482 L 112.358 531.500 269.780 531.765 C 402.163 531.988,427.119 532.247,426.679 533.393 C 426.392 534.142,394.315 583.429,355.396 642.918 C 288.579 745.054,284.544 750.981,282.975 749.290 C 282.061 748.306,267.910 729.050,251.528 706.500 C 235.146 683.950,219.932 663.614,217.720 661.308 C 206.465 649.579,188.479 650.000,177.465 662.250 C 169.813 670.761,168.014 682.660,172.950 692.128 C 174.056 694.251,193.774 721.754,216.767 753.244 C 239.759 784.735,259.905 812.401,261.536 814.724 C 279.355 840.113,354.051 940.721,356.707 942.910 C 367.301 951.643,383.416 950.517,393.601 940.333 C 401.660 932.273,403.944 919.121,398.945 909.554 C 397.600 906.980,379.246 881.260,358.158 852.399 C 337.069 823.538,320.027 799.379,320.285 798.712 C 320.543 798.045,361.711 734.910,411.769 658.410 C 461.827 581.911,503.522 517.892,504.424 516.146 C 511.918 501.656,504.184 483.110,488.282 477.437 C 485.158 476.323,452.220 476.094,299.000 476.123 C 136.931 476.153,112.966 476.347,109.275 477.654 " stroke="none" fill-rule="evenodd" fill="black"></path></svg>