<svg width="1000" height="1000" viewBox="0 0 1000 1000" version="1.1" id="svg5" xmlns="http://www.w3.org/2000/svg" xmlns:svg="http://www.w3.org/2000/svg"><path d="M382.500 290.710 C 374.792 295.348,370.554 301.758,369.092 310.986 C 368.214 316.533,369.182 319.727,375.609 332.500 C 405.992 392.876,454.939 444.462,515.938 480.394 C 527.241 487.052,536.529 492.952,536.578 493.504 C 536.627 494.056,504.604 508.577,465.417 525.774 C 426.229 542.970,390.249 558.780,385.460 560.908 C 367.718 568.790,362.669 590.747,375.517 604.146 C 383.084 612.037,590.713 711.812,601.923 712.944 C 615.469 714.311,628.264 704.060,630.867 689.754 C 632.333 681.697,627.247 670.177,619.781 664.643 C 616.693 662.354,587.917 647.879,555.833 632.477 C 523.750 617.074,489.704 600.731,480.176 596.159 C 463.391 588.105,462.980 587.778,466.999 585.673 C 469.280 584.477,502.951 569.579,541.823 552.566 C 580.696 535.553,615.122 520.220,618.326 518.493 C 625.357 514.704,631.667 503.593,631.667 495.000 C 631.667 486.323,625.356 475.270,618.326 471.633 C 615.122 469.975,602.000 463.617,589.167 457.504 C 541.932 435.003,510.311 413.719,481.539 385.059 C 462.230 365.825,446.373 345.496,433.906 323.992 C 420.076 300.138,416.015 294.404,410.170 290.474 C 402.445 285.280,391.366 285.375,382.500 290.710 " stroke="none" fill-rule="evenodd" fill="black"></path></svg>