<svg width="1000" height="1000" viewBox="0 0 1000 1000" version="1.1" id="svg5" xmlns="http://www.w3.org/2000/svg" xmlns:svg="http://www.w3.org/2000/svg"><path d="M204.167 240.451 C 196.631 244.666,190.000 255.810,190.000 264.258 C 190.000 272.863,196.735 283.493,204.933 287.829 L 212.191 291.667 406.512 291.699 C 613.995 291.734,620.505 291.958,649.300 300.037 C 689.749 311.387,722.830 337.340,739.175 370.546 C 750.239 393.023,753.706 407.992,753.914 434.167 C 754.113 459.158,751.814 474.068,744.131 497.641 C 715.810 584.532,627.386 661.297,513.333 698.006 C 504.625 700.809,490.986 705.039,483.024 707.405 C 466.642 712.275,459.630 717.787,456.492 728.260 C 451.467 745.031,464.747 763.333,481.941 763.333 C 493.384 763.333,542.313 747.534,577.500 732.477 C 632.037 709.140,678.963 677.554,717.765 638.065 C 738.961 616.493,748.699 604.644,762.327 583.844 C 785.114 549.066,799.308 514.155,806.918 474.167 C 810.511 455.289,809.665 410.768,805.367 392.500 C 785.204 306.803,721.717 253.060,624.167 239.111 C 610.462 237.151,572.249 236.727,409.167 236.725 L 210.833 236.722 204.167 240.451 " stroke="none" fill-rule="evenodd" fill="black"></path></svg>