<svg width="1000" height="1000" viewBox="0 0 1000 1000" version="1.1" id="svg5" xmlns="http://www.w3.org/2000/svg" xmlns:svg="http://www.w3.org/2000/svg"><path d="M134.167 171.498 C 118.332 175.477,109.502 188.774,112.409 204.266 C 113.882 212.122,123.706 222.817,131.414 224.958 C 135.402 226.065,222.588 226.651,384.273 226.657 C 592.442 226.665,633.967 227.052,649.726 229.131 C 746.135 241.846,808.900 293.986,827.062 376.446 C 831.734 397.658,831.990 438.257,827.599 461.667 C 809.394 558.734,736.257 650.924,628.333 712.843 C 590.352 734.634,541.671 754.780,490.752 769.779 C 462.187 778.193,457.272 780.856,452.158 790.689 C 448.761 797.221,450.009 811.974,454.466 817.986 C 458.878 823.936,469.579 829.938,475.836 829.973 C 481.803 830.005,518.238 819.693,545.000 810.398 C 665.300 768.613,762.299 698.566,823.660 609.167 C 900.814 496.758,907.268 364.193,840.004 273.474 C 799.442 218.768,738.279 186.042,652.500 173.148 C 637.296 170.863,142.958 169.289,134.167 171.498 " stroke="none" fill-rule="evenodd" fill="black"></path></svg>