<svg width="1000" height="1000" viewBox="0 0 1000 1000" version="1.1" id="svg5" sodipodi:docname="ぃ.svg" inkscape:version="1.3 (0e150ed6c4, 2023-07-21)" xmlns:inkscape="http://www.inkscape.org/namespaces/inkscape" xmlns:sodipodi="http://sodipodi.sourceforge.net/DTD/sodipodi-0.dtd" xmlns="http://www.w3.org/2000/svg" xmlns:svg="http://www.w3.org/2000/svg"><path d="M497.500 190.369 C 484.481 194.985,489.762 185.073,338.945 487.980 C 183.752 799.674,191.359 782.996,198.237 796.478 C 205.753 811.210,225.736 815.267,239.080 804.771 C 244.819 800.256,533.352 223.906,533.297 217.066 C 533.250 211.210,528.134 200.053,523.679 196.092 C 520.003 192.823,509.166 188.441,505.000 188.538 C 503.625 188.570,500.250 189.394,497.500 190.369 M447.729 474.174 C 440.182 476.787,432.701 483.479,429.978 490.053 C 427.313 496.488,428.754 676.619,431.631 696.667 C 440.707 759.907,462.995 790.104,510.000 802.848 C 526.991 807.454,572.515 806.987,592.500 802.000 C 610.754 797.446,640.027 783.310,655.407 771.623 C 695.844 740.897,740.810 681.557,792.804 590.307 C 805.258 568.451,807.664 558.318,802.686 548.692 C 795.623 535.035,777.231 529.435,764.332 537.014 C 758.933 540.186,755.154 545.495,742.040 568.333 C 680.344 675.777,634.047 729.952,590.994 745.084 C 577.483 749.833,558.051 752.170,540.833 751.116 C 502.578 748.774,494.534 739.603,486.495 689.167 C 485.400 682.294,484.197 639.095,483.568 584.034 L 482.500 490.568 477.831 484.449 C 470.034 474.232,458.718 470.370,447.729 474.174 " stroke="none" fill-rule="evenodd" fill="black"></path></svg>