<svg width="1000" height="1000" viewBox="0 0 1000 1000" version="1.1" id="svg5" inkscape:version="1.2.1 (9c6d41e410, 2022-07-14)" sodipodi:docname="ぃ.svg" xmlns:inkscape="http://www.inkscape.org/namespaces/inkscape" xmlns:sodipodi="http://sodipodi.sourceforge.net/DTD/sodipodi-0.dtd" xmlns="http://www.w3.org/2000/svg" xmlns:svg="http://www.w3.org/2000/svg"><path d="M572.500 192.362 C 569.750 193.590,565.533 196.748,563.130 199.380 C 559.130 203.762,188.056 762.793,183.607 771.140 C 180.983 776.063,181.159 787.225,183.965 793.940 C 190.416 809.381,212.342 814.552,225.279 803.684 C 228.236 801.199,243.513 779.667,259.227 755.833 C 274.941 732.000,320.731 663.000,360.982 602.500 L 434.167 492.500 435.063 595.000 C 436.091 712.471,435.700 709.065,451.850 741.331 C 466.228 770.055,489.091 789.776,519.020 799.267 C 539.740 805.839,564.437 806.873,687.623 806.328 L 799.413 805.833 805.451 801.695 C 813.272 796.335,818.333 787.204,818.333 778.454 C 818.333 772.913,808.317 749.640,768.218 662.014 C 714.641 544.937,713.992 543.768,700.498 540.134 C 682.981 535.417,664.634 551.707,667.109 569.778 C 667.566 573.108,685.955 615.048,707.974 662.976 L 748.009 750.119 644.421 749.643 C 542.427 749.174,540.697 749.111,531.991 745.542 C 513.570 737.990,501.662 723.971,494.723 701.667 L 490.833 689.167 490.833 547.500 L 490.833 405.833 548.571 318.974 C 580.327 271.201,607.224 230.406,608.341 228.318 C 611.227 222.926,609.620 207.543,605.593 202.014 C 601.453 196.331,589.212 189.980,582.564 190.065 C 579.779 190.101,575.250 191.135,572.500 192.362 " stroke="none" fill-rule="evenodd" fill="black"></path></svg>