<svg width="1000" height="1000" viewBox="0 0 1000 1000" version="1.1" id="svg5" inkscape:version="1.2.1 (9c6d41e410, 2022-07-14)" sodipodi:docname="い.svg" xmlns:inkscape="http://www.inkscape.org/namespaces/inkscape" xmlns:sodipodi="http://sodipodi.sourceforge.net/DTD/sodipodi-0.dtd" xmlns="http://www.w3.org/2000/svg" xmlns:svg="http://www.w3.org/2000/svg"><path d="M594.167 114.004 C 591.417 115.218,587.944 117.626,586.450 119.356 C 582.663 123.739,105.339 844.510,102.189 850.602 C 98.867 857.025,100.067 870.384,104.504 876.374 C 106.320 878.827,110.363 882.587,113.487 884.731 C 118.228 887.984,120.754 888.517,128.772 887.956 C 134.955 887.524,140.003 886.082,142.939 883.910 C 145.448 882.055,209.375 787.160,285.000 673.033 L 422.500 465.529 423.437 602.348 C 424.457 751.246,424.415 750.559,434.388 780.792 C 449.409 826.323,479.116 858.511,519.830 873.370 C 546.680 883.169,546.434 883.157,720.369 883.425 C 895.786 883.695,884.648 884.342,893.902 873.344 C 898.705 867.636,900.890 859.033,899.413 851.647 C 898.282 845.993,776.034 578.533,770.906 570.494 C 760.586 554.315,735.008 554.640,724.847 571.080 C 716.939 583.876,716.105 581.564,774.070 707.500 C 803.182 770.750,827.388 823.813,827.862 825.417 C 828.676 828.177,821.746 828.333,698.674 828.333 C 554.160 828.333,552.914 828.253,530.344 817.535 C 508.949 807.374,493.734 787.618,484.729 758.306 L 480.898 745.833 480.400 562.319 L 479.903 378.804 554.040 266.969 C 594.816 205.460,629.422 152.730,630.941 149.791 C 634.466 142.975,633.402 129.800,628.829 123.626 C 620.604 112.520,606.438 108.588,594.167 114.004 " stroke="none" fill-rule="evenodd" fill="black"></path></svg>