<svg width="1000" height="1000" viewBox="0 0 264.58333 264.58333" version="1.1" id="svg5" xmlns="http://www.w3.org/2000/svg" xmlns:svg="http://www.w3.org/2000/svg"><path d="M496.716 110.972 C 493.535 112.352,489.510 114.760,487.770 116.324 C 486.031 117.887,402.196 283.978,301.471 485.415 C 143.884 800.566,118.337 852.652,118.361 858.748 C 118.450 881.861,145.603 894.612,162.723 879.581 C 167.579 875.317,201.096 809.460,349.914 511.777 C 449.615 312.341,532.088 146.403,533.188 143.025 C 536.974 131.394,530.552 117.900,518.242 111.620 C 510.616 107.729,504.610 107.549,496.716 110.972 M432.417 472.344 C 425.515 475.351,418.819 483.692,416.510 492.159 C 414.117 500.937,415.577 698.694,418.230 725.000 C 425.749 799.568,441.126 836.236,474.332 858.776 C 497.753 874.674,521.739 880.586,562.500 880.509 C 604.657 880.429,632.497 873.837,664.328 856.398 C 712.003 830.279,754.529 785.609,808.117 705.362 C 826.712 677.516,853.186 633.873,870.568 602.409 C 882.937 580.018,884.248 573.260,878.429 561.855 C 874.730 554.604,870.199 551.192,860.351 548.242 C 854.473 546.481,852.354 546.588,846.139 548.961 C 842.122 550.495,837.289 553.419,835.399 555.459 C 833.509 557.498,823.173 574.542,812.431 593.333 C 750.856 701.046,698.353 768.593,652.219 799.451 C 624.164 818.217,600.379 825.076,563.070 825.161 C 513.828 825.272,495.464 815.137,484.267 781.667 C 473.694 750.059,471.363 716.731,470.976 591.667 C 470.701 502.707,470.349 490.245,467.990 485.833 C 460.675 472.153,445.803 466.514,432.417 472.344 " stroke="none" fill-rule="evenodd" fill="black"></path></svg>