<svg width="1000" height="1000" viewBox="0 0 1000 1000" version="1.1" id="svg5" inkscape:version="1.2.1 (9c6d41e410, 2022-07-14)" sodipodi:docname="ぅ.svg" xmlns:inkscape="http://www.inkscape.org/namespaces/inkscape" xmlns:sodipodi="http://sodipodi.sourceforge.net/DTD/sodipodi-0.dtd" xmlns="http://www.w3.org/2000/svg" xmlns:svg="http://www.w3.org/2000/svg"><path d="M288.286 221.822 C 270.538 232.117,269.356 255.045,285.922 267.681 L 292.239 272.500 456.970 273.333 L 621.701 274.167 598.065 290.833 C 517.268 347.808,446.858 405.274,391.843 459.146 C 321.652 527.879,281.877 582.422,265.057 633.007 C 242.593 700.562,268.362 752.089,335.583 774.032 C 366.095 783.992,369.840 784.167,553.333 784.167 L 720.833 784.167 726.999 780.333 C 745.007 769.135,745.007 744.198,726.999 733.001 L 720.833 729.167 546.667 728.210 C 354.664 727.155,361.268 727.524,338.838 716.583 C 310.936 702.972,305.103 678.648,320.722 641.030 C 358.187 550.791,490.273 427.573,699.106 288.047 C 719.493 274.426,733.800 263.708,736.049 260.370 C 745.014 247.066,741.329 230.516,727.610 222.476 L 720.540 218.333 507.354 218.372 C 295.593 218.410,294.127 218.433,288.286 221.822 " stroke="none" fill-rule="evenodd" fill="black"></path></svg>