<svg width="1000" height="1000" viewBox="0 0 1000 1000" version="1.1" id="svg5" inkscape:version="1.2.1 (9c6d41e410, 2022-07-14)" sodipodi:docname="ぅ.svg" xmlns:inkscape="http://www.inkscape.org/namespaces/inkscape" xmlns:sodipodi="http://sodipodi.sourceforge.net/DTD/sodipodi-0.dtd" xmlns="http://www.w3.org/2000/svg" xmlns:svg="http://www.w3.org/2000/svg"><path d="M501.667 218.321 C 302.141 219.128,292.266 219.308,287.424 222.242 C 280.941 226.169,275.544 234.156,274.133 241.913 C 272.625 250.196,277.785 261.474,285.922 267.681 L 292.239 272.500 456.970 273.333 L 621.701 274.167 598.065 290.833 C 517.268 347.808,446.858 405.274,391.843 459.146 C 321.652 527.879,281.877 582.422,265.057 633.007 C 242.593 700.562,268.362 752.089,335.583 774.032 C 366.095 783.992,369.840 784.167,553.333 784.167 L 720.833 784.167 726.999 780.333 C 745.007 769.135,745.007 744.198,726.999 733.001 L 720.833 729.167 546.667 728.210 C 354.664 727.155,361.268 727.524,338.838 716.583 C 317.529 706.188,309.244 690.046,313.132 666.500 C 325.637 590.782,442.551 468.449,628.333 336.693 C 657.994 315.657,712.126 279.035,726.149 270.517 C 744.286 259.500,747.030 237.350,731.842 224.570 C 726.849 220.368,716.135 216.219,712.500 217.080 C 711.583 217.297,616.708 217.855,501.667 218.321 " stroke="none" fill-rule="evenodd" fill="black"></path></svg>