<svg width="1000" height="1000" viewBox="0 0 264.58333 264.58333" version="1.1" id="svg5" xmlns="http://www.w3.org/2000/svg" xmlns:svg="http://www.w3.org/2000/svg"><path d="M501.372 208.241 C 285.400 209.166,285.240 209.169,280.539 212.653 C 264.159 224.790,264.167 247.219,280.555 258.065 L 287.255 262.500 458.971 263.333 L 630.686 264.167 615.206 274.769 C 594.691 288.819,588.827 298.846,593.263 312.287 C 598.788 329.028,616.637 336.939,631.520 329.243 C 635.623 327.121,699.082 284.739,738.862 257.554 C 759.581 243.394,750.017 209.573,724.800 207.822 C 720.785 207.543,620.242 207.731,501.372 208.241 M297.469 570.565 C 289.295 574.274,282.714 583.335,271.059 606.923 C 257.079 635.218,251.645 653.662,250.511 676.667 C 249.527 696.640,252.165 711.182,259.342 725.345 C 276.085 758.388,304.745 777.103,355.000 787.814 C 368.182 790.624,381.790 790.833,550.833 790.833 L 732.500 790.833 738.127 786.820 C 755.154 774.676,752.147 748.690,732.693 739.855 C 726.143 736.880,718.244 736.736,557.500 736.652 C 460.075 736.601,383.969 735.889,376.827 734.962 C 340.660 730.268,318.558 719.662,309.503 702.658 C 306.620 697.245,305.880 693.076,305.923 682.500 C 305.995 664.836,310.776 649.540,324.294 623.718 C 335.980 601.398,337.336 594.593,332.240 583.853 C 326.719 572.220,308.862 565.395,297.469 570.565 " stroke="none" fill-rule="evenodd" fill="black"></path></svg>