<svg width="1000" height="1000" viewBox="0 0 1000 1000" version="1.1" id="svg5" xmlns="http://www.w3.org/2000/svg" xmlns:svg="http://www.w3.org/2000/svg"><path d="M225.702 138.161 C 201.001 149.379,204.996 184.124,231.644 189.839 C 237.586 191.114,308.559 191.667,466.220 191.667 L 692.276 191.667 662.513 212.083 C 646.144 223.313,631.277 234.507,629.476 236.959 C 627.675 239.412,625.839 245.189,625.396 249.797 C 624.731 256.722,625.345 259.463,628.939 265.595 C 633.533 273.435,644.021 280.033,651.776 279.963 C 659.212 279.896,668.752 274.137,730.833 232.237 C 764.750 209.346,795.336 188.903,798.802 186.807 C 816.913 175.857,815.312 146.855,796.092 137.735 C 790.821 135.233,766.566 135.003,511.415 135.037 C 243.508 135.072,232.232 135.195,225.702 138.161 M239.721 599.948 C 225.384 607.745,197.027 666.370,189.152 704.492 C 185.950 719.996,185.525 745.639,188.253 758.778 C 199.572 813.303,242.698 847.508,318.333 861.951 C 337.366 865.586,339.062 865.616,560.833 866.224 C 683.667 866.561,786.649 866.381,789.683 865.824 C 797.165 864.451,807.865 854.450,810.204 846.644 C 811.245 843.167,811.589 837.608,810.967 834.292 C 809.597 826.990,801.188 816.993,793.830 813.918 C 789.402 812.068,751.347 811.664,580.470 811.652 C 454.462 811.644,364.946 810.975,353.333 809.956 C 306.022 805.804,277.746 796.074,259.082 777.523 C 250.735 769.226,248.367 765.557,245.332 756.215 C 240.995 742.863,240.663 729.720,244.225 712.472 C 247.859 694.880,253.414 680.957,267.789 653.415 C 279.467 631.041,280.304 628.754,279.579 621.208 C 278.237 607.242,268.780 598.136,254.652 597.205 C 248.163 596.777,244.219 597.501,239.721 599.948 " stroke="none" fill-rule="evenodd" fill="black"></path></svg>