<svg width="1000" height="1000" viewBox="0 0 1000 1000" version="1.1" id="svg5" xmlns="http://www.w3.org/2000/svg" xmlns:svg="http://www.w3.org/2000/svg"><path d="M253.895 182.425 C 249.452 185.151,245.705 189.268,243.478 193.868 C 240.001 201.050,240.000 201.127,240.000 441.239 C 240.000 597.056,240.605 686.005,241.723 694.463 C 243.931 711.176,251.743 735.873,259.641 751.114 C 276.885 784.388,304.626 806.853,341.036 817.031 C 352.514 820.239,358.153 820.692,385.833 820.633 C 413.857 820.574,419.963 820.041,438.910 816.004 C 467.806 809.848,489.351 802.225,519.167 787.607 C 596.775 749.558,671.043 679.021,734.142 583.431 C 751.785 556.703,760.000 541.120,760.000 534.381 C 760.000 525.882,753.408 514.702,745.833 510.354 C 740.592 507.345,737.281 506.662,730.348 507.156 C 716.452 508.148,715.127 509.469,695.191 542.185 C 671.184 581.584,638.222 623.336,604.167 657.481 C 540.506 721.311,480.040 755.130,413.333 764.218 C 381.861 768.505,359.740 766.671,340.833 758.206 C 329.128 752.966,313.443 736.738,306.986 723.186 C 295.259 698.576,296.074 717.731,295.071 443.038 C 294.170 196.067,294.155 195.228,290.730 190.641 C 284.844 182.758,279.026 179.493,269.652 178.810 C 262.413 178.283,259.590 178.930,253.895 182.425 " stroke="none" fill-rule="evenodd" fill="black"></path></svg>