<svg width="1000" height="1000" viewBox="0 0 1000 1000" version="1.1" id="svg5" inkscape:version="1.2.1 (9c6d41e410, 2022-07-14)" sodipodi:docname="お.svg" xmlns:inkscape="http://www.inkscape.org/namespaces/inkscape" xmlns:sodipodi="http://sodipodi.sourceforge.net/DTD/sodipodi-0.dtd" xmlns="http://www.w3.org/2000/svg" xmlns:svg="http://www.w3.org/2000/svg"><path d="M532.417 72.252 C 525.459 75.409,518.800 83.751,516.526 92.159 C 515.151 97.244,514.967 121.691,515.855 181.250 L 517.079 263.333 328.486 263.333 C 120.998 263.333,133.641 262.682,123.806 273.883 C 112.187 287.116,115.693 305.026,131.828 314.863 C 137.480 318.309,138.161 318.321,327.083 318.327 L 516.667 318.333 516.631 344.583 C 516.540 410.627,512.168 492.015,506.582 531.667 C 493.747 622.774,463.897 696.829,405.587 782.227 C 387.802 808.274,359.011 846.745,334.309 877.467 C 324.602 889.540,317.587 899.917,316.563 903.717 C 311.679 921.855,330.073 941.042,348.345 936.868 C 358.066 934.648,361.019 931.875,383.164 904.167 C 507.085 749.114,551.378 650.869,565.803 499.051 C 569.177 463.551,571.603 404.505,571.638 357.083 L 571.667 318.333 698.604 318.333 L 825.540 318.333 832.610 314.190 C 840.427 309.609,846.667 299.124,846.667 290.569 C 846.667 282.123,839.871 271.474,831.733 267.171 L 824.476 263.333 698.071 263.333 L 571.667 263.333 571.627 181.250 C 571.605 136.104,570.905 96.225,570.071 92.629 C 567.124 79.924,557.788 71.530,545.541 70.574 C 540.905 70.212,535.348 70.922,532.417 72.252 " stroke="none" fill-rule="evenodd" fill="black"></path></svg>