<svg width="1000" height="1000" viewBox="0 0 1000 1000" version="1.1" id="svg5" inkscape:version="1.2.1 (9c6d41e410, 2022-07-14)" sodipodi:docname="か.svg" xmlns:inkscape="http://www.inkscape.org/namespaces/inkscape" xmlns:sodipodi="http://sodipodi.sourceforge.net/DTD/sodipodi-0.dtd" xmlns="http://www.w3.org/2000/svg" xmlns:svg="http://www.w3.org/2000/svg"><path d="M408.039 111.595 C 215.729 112.498,215.232 112.509,210.539 115.987 C 201.458 122.715,197.968 129.820,198.687 140.109 C 199.486 151.551,204.473 159.163,214.002 163.491 C 220.516 166.449,228.558 166.595,387.083 166.630 C 478.521 166.650,553.333 167.102,553.333 167.633 C 553.333 168.165,453.827 318.728,332.208 502.217 C 210.590 685.706,108.534 839.958,105.418 845.000 C 100.435 853.062,99.835 855.230,100.436 862.986 C 101.199 872.834,104.735 878.726,113.487 884.731 C 118.228 887.984,120.754 888.517,128.772 887.956 C 134.955 887.524,140.003 886.082,142.939 883.910 C 145.448 882.055,209.375 787.160,285.000 673.033 L 422.500 465.529 423.437 602.348 C 424.457 751.246,424.415 750.559,434.388 780.792 C 449.409 826.323,479.116 858.511,519.830 873.370 C 546.680 883.169,546.434 883.157,720.369 883.425 C 895.786 883.695,884.648 884.342,893.902 873.344 C 898.705 867.636,900.890 859.033,899.413 851.647 C 898.282 845.993,776.034 578.533,770.906 570.494 C 760.586 554.315,735.008 554.640,724.847 571.080 C 716.939 583.876,716.105 581.564,774.070 707.500 C 803.182 770.750,827.388 823.813,827.862 825.417 C 828.676 828.177,821.746 828.333,698.674 828.333 C 554.160 828.333,552.914 828.253,530.344 817.535 C 508.949 807.374,493.734 787.618,484.729 758.306 L 480.898 745.833 480.400 562.329 L 479.903 378.826 552.035 270.252 C 591.707 210.537,626.302 158.358,628.911 154.300 C 635.277 144.400,635.414 132.474,629.268 123.187 C 624.177 115.494,618.375 112.214,608.311 111.339 C 604.198 110.982,514.076 111.097,408.039 111.595 " stroke="none" fill-rule="evenodd" fill="black"></path></svg>