<svg width="1000" height="1000" viewBox="0 0 1000 1000" version="1.1" id="svg5" xmlns="http://www.w3.org/2000/svg" xmlns:svg="http://www.w3.org/2000/svg"><path d="M247.500 109.881 C 239.901 111.715,235.544 114.508,231.031 120.439 C 222.922 131.096,223.321 142.740,232.140 152.784 C 241.733 163.710,237.348 163.333,354.946 163.333 C 413.643 163.333,461.667 163.709,461.667 164.168 C 461.667 164.627,384.417 319.502,290.000 508.333 C 142.355 803.621,118.337 852.655,118.361 858.748 C 118.450 881.861,145.603 894.612,162.723 879.581 C 167.573 875.322,201.020 809.712,348.520 515.110 C 447.455 317.508,530.321 152.458,532.665 148.333 C 540.269 134.956,534.941 119.447,519.984 111.425 C 514.501 108.485,507.816 108.342,383.359 108.504 C 311.387 108.598,250.250 109.218,247.500 109.881 M658.283 173.750 C 648.303 178.792,643.333 186.528,643.333 197.023 C 643.333 201.531,644.162 206.857,645.175 208.860 C 647.796 214.041,763.241 329.726,768.667 332.609 C 779.386 338.303,795.700 333.907,802.613 323.462 C 808.277 314.902,809.275 307.947,806.050 299.503 C 802.008 288.917,685.019 172.590,676.875 171.058 C 668.227 169.431,666.272 169.714,658.283 173.750 M432.417 472.344 C 425.515 475.351,418.819 483.692,416.510 492.159 C 414.117 500.937,415.577 698.694,418.230 725.000 C 425.749 799.568,441.126 836.236,474.332 858.776 C 497.753 874.674,521.739 880.586,562.500 880.509 C 604.657 880.429,632.497 873.837,664.328 856.398 C 712.003 830.279,754.529 785.609,808.117 705.362 C 826.712 677.516,853.186 633.873,870.568 602.409 C 882.937 580.018,884.248 573.260,878.429 561.855 C 874.730 554.604,870.199 551.192,860.351 548.242 C 854.473 546.481,852.354 546.588,846.139 548.961 C 842.122 550.495,837.289 553.419,835.399 555.459 C 833.509 557.498,823.173 574.542,812.431 593.333 C 750.856 701.046,698.353 768.593,652.219 799.451 C 624.164 818.217,600.379 825.076,563.070 825.161 C 513.828 825.272,495.464 815.137,484.267 781.667 C 473.694 750.059,471.363 716.731,470.976 591.667 C 470.701 502.707,470.349 490.245,467.990 485.833 C 460.675 472.153,445.803 466.514,432.417 472.344 " stroke="none" fill-rule="evenodd" fill="black"></path></svg>