<svg width="1000" height="1000" viewBox="0 0 1000 1000" version="1.1" id="svg5" sodipodi:docname="ぎ.svg" inkscape:version="1.3 (0e150ed6c4, 2023-07-21)" xmlns:inkscape="http://www.inkscape.org/namespaces/inkscape" xmlns:sodipodi="http://sodipodi.sourceforge.net/DTD/sodipodi-0.dtd" xmlns="http://www.w3.org/2000/svg" xmlns:svg="http://www.w3.org/2000/svg"><path d="M458.202 124.974 L 360.572 125.833 354.601 130.388 C 347.262 135.987,342.471 147.380,344.008 155.575 C 345.472 163.378,351.334 171.628,358.339 175.743 C 363.903 179.011,367.359 179.204,434.593 180.000 L 505.020 180.833 360.356 370.923 C 280.792 475.472,213.961 563.445,211.844 566.417 C 200.985 581.667,209.077 602.761,227.955 608.417 C 236.137 610.868,246.233 608.312,252.290 602.256 C 254.711 599.834,328.073 504.024,415.317 389.343 C 502.560 274.663,576.767 177.583,580.221 173.610 C 588.169 164.467,590.677 157.008,589.182 146.958 C 587.229 133.831,572.419 122.286,559.375 123.724 C 557.427 123.938,511.899 124.501,458.202 124.974 M733.334 130.206 C 727.957 132.350,721.969 137.976,719.008 143.667 C 715.980 149.488,716.005 162.254,719.058 167.999 C 722.742 174.935,838.544 289.613,843.858 291.589 C 863.268 298.805,883.819 282.251,880.852 261.789 C 879.783 254.422,877.728 252.138,819.457 193.575 C 785.684 159.634,756.808 131.961,753.804 130.659 C 747.641 127.987,739.359 127.803,733.334 130.206 M489.983 343.750 C 486.953 345.813,482.904 349.620,480.987 352.212 C 477.594 356.797,477.501 358.589,477.548 418.878 C 477.601 486.052,478.884 499.116,487.512 520.350 C 501.075 553.729,532.842 581.916,572.522 595.782 C 578.544 597.886,583.627 600.147,583.819 600.807 C 584.138 601.909,552.224 618.759,416.667 689.061 C 237.295 782.086,115.214 845.866,111.455 848.515 C 101.344 855.643,98.715 872.170,105.776 884.220 C 111.882 894.638,124.942 899.574,136.585 895.865 C 138.831 895.149,197.558 864.987,267.088 828.838 C 336.619 792.690,394.242 763.359,395.141 763.658 C 396.039 763.957,419.062 792.661,446.304 827.444 C 476.454 865.941,497.943 891.910,501.225 893.815 C 507.796 897.629,519.479 897.883,526.291 894.361 C 529.038 892.940,536.195 885.892,542.195 878.699 C 581.259 831.863,631.841 800.273,685.833 788.991 C 696.635 786.734,707.830 785.853,725.833 785.845 C 748.919 785.834,751.960 786.202,765.545 790.653 C 802.959 802.912,842.012 836.615,870.647 881.357 C 879.107 894.577,886.974 899.891,898.187 899.963 C 906.861 900.019,918.047 892.653,921.783 884.423 C 928.361 869.937,925.184 861.358,901.800 830.466 C 870.753 789.451,832.218 757.753,795.029 742.642 C 771.165 732.945,758.341 730.826,724.167 730.930 C 698.083 731.009,689.513 731.670,675.559 734.682 C 620.953 746.468,575.712 770.344,530.342 811.320 C 517.328 823.074,514.366 825.048,512.615 823.132 C 506.128 816.038,446.667 738.466,446.667 737.097 C 446.667 736.197,501.949 706.743,569.517 671.643 L 692.368 607.825 731.821 608.183 C 775.002 608.576,778.535 607.985,786.977 598.955 C 798.641 586.481,796.814 568.054,782.890 557.728 C 776.873 553.266,756.234 551.962,688.927 551.793 C 631.447 551.648,609.379 549.870,591.667 543.956 C 575.428 538.534,566.352 533.147,554.580 521.944 C 543.994 511.868,537.689 500.602,534.838 486.667 C 533.799 481.588,532.488 450.679,531.898 417.366 L 530.833 357.232 526.164 351.114 C 523.596 347.750,519.320 343.872,516.663 342.498 C 509.287 338.684,496.549 339.281,489.983 343.750 " stroke="none" fill-rule="evenodd" fill="black"></path></svg>