<svg width="1000" height="1000" viewBox="0 0 1000 1000" version="1.1" id="svg5" inkscape:version="1.2.1 (9c6d41e410, 2022-07-14)" sodipodi:docname="く.svg" xmlns:inkscape="http://www.inkscape.org/namespaces/inkscape" xmlns:sodipodi="http://sodipodi.sourceforge.net/DTD/sodipodi-0.dtd" xmlns="http://www.w3.org/2000/svg" xmlns:svg="http://www.w3.org/2000/svg"><path d="M334.425 92.445 C 326.982 95.083,320.736 100.477,317.158 107.356 C 313.747 113.914,314.987 127.959,319.541 134.355 C 324.370 141.138,614.955 307.754,624.661 309.306 C 629.881 310.140,633.243 309.534,639.090 306.704 C 654.695 299.150,659.741 279.549,649.528 266.159 C 646.255 261.868,610.276 240.494,499.694 177.146 C 419.654 131.295,352.292 93.245,350.000 92.591 C 347.708 91.937,344.708 91.126,343.333 90.788 C 341.958 90.450,337.950 91.196,334.425 92.445 M441.372 378.319 C 260.856 379.164,260.228 379.178,255.538 382.653 C 239.159 394.791,239.167 417.219,255.554 428.065 L 262.255 432.500 412.103 433.333 L 561.951 434.167 365.559 638.478 C 257.543 750.849,165.657 846.573,161.367 851.198 C 152.227 861.053,149.242 869.616,151.765 878.751 C 153.788 886.079,160.263 894.188,166.782 897.560 C 173.391 900.977,184.799 900.618,191.068 896.795 C 193.948 895.040,253.889 833.730,324.273 760.552 C 394.656 687.373,452.862 627.250,453.621 626.944 C 454.379 626.639,455.000 662.385,455.000 706.381 C 455.000 768.461,455.529 789.136,457.360 798.709 C 464.926 838.251,490.811 869.138,529.167 884.389 C 558.576 896.084,550.323 895.588,726.327 896.222 L 885.153 896.794 891.547 893.200 C 900.865 887.963,905.578 878.664,904.642 867.366 C 903.927 858.755,901.333 854.529,843.231 767.346 C 809.865 717.280,780.466 674.551,777.901 672.392 C 767.622 663.743,752.819 665.076,742.296 675.599 C 734.581 683.313,731.633 693.683,734.796 701.976 C 735.735 704.439,756.089 735.817,780.027 771.707 C 803.965 807.597,823.971 838.055,824.484 839.393 C 825.298 841.513,809.354 841.754,699.792 841.276 C 575.646 840.735,574.010 840.685,560.864 837.000 C 536.909 830.287,522.137 818.405,514.458 799.676 C 510.878 790.943,510.827 789.454,510.360 679.519 L 509.887 568.204 519.527 557.901 C 524.829 552.234,556.607 519.075,590.146 484.215 C 623.685 449.355,652.084 419.033,653.255 416.834 C 658.006 407.910,654.946 391.660,647.193 384.643 C 642.537 380.429,632.424 376.610,627.137 377.069 C 624.587 377.290,540.992 377.852,441.372 378.319 " stroke="none" fill-rule="evenodd" fill="black"></path></svg>