<svg width="1000" height="1000" viewBox="0 0 1000 1000" version="1.1" id="svg5" xmlns="http://www.w3.org/2000/svg" xmlns:svg="http://www.w3.org/2000/svg"><path d="M254.493 133.855 C 241.931 141.460,237.423 154.527,243.008 167.152 C 249.619 182.098,237.657 178.775,448.333 224.194 C 553.292 246.822,642.258 265.329,646.035 265.321 C 668.546 265.276,681.496 238.603,667.235 221.656 C 664.871 218.846,660.864 215.475,658.331 214.166 C 652.377 211.086,275.433 129.997,267.126 130.009 C 263.517 130.013,258.129 131.654,254.493 133.855 M310.583 359.881 C 290.872 368.831,289.537 397.569,308.340 408.137 C 314.547 411.625,315.816 411.667,416.616 411.667 C 474.304 411.667,518.370 412.301,518.056 413.127 C 517.750 413.930,425.717 508.992,313.537 624.377 C 185.867 755.695,108.654 836.330,107.112 839.950 C 102.013 851.922,108.196 868.062,120.272 874.307 C 126.780 877.673,138.189 877.689,144.661 874.342 C 147.429 872.910,225.682 793.535,318.555 697.953 C 411.429 602.371,514.881 496.033,548.448 461.646 C 613.599 394.906,614.766 393.415,612.471 379.831 C 611.122 371.846,603.262 362.163,595.496 358.918 C 591.116 357.088,564.577 356.674,453.804 356.703 C 323.885 356.738,317.176 356.887,310.583 359.881 M495.001 591.872 C 489.540 594.050,483.678 599.617,480.299 605.833 C 477.938 610.178,477.583 618.260,477.592 667.500 C 477.602 726.036,478.593 738.614,485.119 763.016 C 499.991 818.622,557.882 858.519,641.667 870.904 C 664.026 874.209,865.220 877.509,875.773 874.744 C 894.640 869.800,902.762 846.147,890.568 831.656 C 881.186 820.506,886.332 821.027,773.267 819.776 C 712.100 819.099,664.000 817.841,654.100 816.660 C 611.488 811.574,575.904 797.091,555.222 776.415 C 536.193 757.392,534.719 750.228,533.470 670.707 L 532.500 608.914 528.362 602.879 C 520.809 591.864,506.697 587.208,495.001 591.872 " stroke="none" fill-rule="evenodd" fill="black"></path></svg>