<svg width="1000" height="1000" viewBox="0 0 1000 1000" version="1.1" id="svg5" inkscape:version="1.2.1 (9c6d41e410, 2022-07-14)" sodipodi:docname="け.svg" xmlns:inkscape="http://www.inkscape.org/namespaces/inkscape" xmlns:sodipodi="http://sodipodi.sourceforge.net/DTD/sodipodi-0.dtd" xmlns="http://www.w3.org/2000/svg" xmlns:svg="http://www.w3.org/2000/svg"><path d="M118.333 125.197 C 112.162 127.645,103.616 136.541,101.827 142.380 C 100.882 145.465,99.808 291.672,99.127 510.212 C 98.008 869.041,98.031 873.003,101.288 880.365 C 109.223 898.303,133.095 902.417,146.023 888.075 C 147.961 885.925,179.767 835.513,216.704 776.047 C 275.405 681.541,283.957 666.940,284.615 660.091 C 286.912 636.185,258.763 621.148,240.966 636.773 C 237.813 639.542,217.854 669.916,195.585 705.837 C 173.722 741.104,155.458 769.968,155.000 769.980 C 154.542 769.991,154.167 628.438,154.167 455.417 L 154.167 140.833 150.165 135.222 C 143.330 125.639,128.776 121.055,118.333 125.197 M355.372 126.864 C 340.268 134.341,335.443 154.026,345.488 167.195 C 354.420 178.906,346.908 178.333,491.502 178.333 C 563.093 178.333,621.667 178.695,621.667 179.137 C 621.667 179.579,540.925 334.240,442.241 522.828 C 285.493 822.379,262.829 866.591,262.921 872.643 C 263.235 893.402,285.427 906.607,303.106 896.554 C 306.440 894.658,310.353 891.471,311.803 889.471 C 313.254 887.470,360.129 798.487,415.970 691.730 L 517.500 497.626 518.475 629.230 C 519.401 754.151,519.626 761.643,522.909 776.788 C 536.272 838.424,564.457 874.799,610.833 890.262 L 622.500 894.152 753.837 894.634 L 885.174 895.115 891.557 891.528 C 899.567 887.026,905.000 877.633,905.000 868.288 C 905.000 863.172,891.296 823.363,855.803 725.369 C 828.744 650.664,805.397 586.994,803.919 583.880 C 800.383 576.428,789.393 570.000,780.187 570.000 C 762.122 570.000,749.247 587.053,754.020 604.658 C 755.189 608.971,774.638 663.442,797.240 725.705 C 819.841 787.967,838.333 839.182,838.333 839.514 C 838.333 839.847,791.646 839.903,734.583 839.639 C 615.721 839.089,622.419 839.917,604.691 823.574 C 588.540 808.686,579.115 784.959,575.042 748.942 C 573.760 737.598,573.336 679.274,573.675 560.833 L 574.167 389.167 627.286 287.500 C 656.501 231.583,683.420 180.647,687.106 174.309 C 695.211 160.373,697.075 153.073,694.805 144.167 C 692.773 136.198,689.145 131.461,681.505 126.804 C 675.872 123.369,674.778 123.346,519.167 123.341 C 362.964 123.336,362.479 123.346,355.372 126.864 " stroke="none" fill-rule="evenodd" fill="black"></path></svg>