<svg width="1000" height="1000" viewBox="0 0 1000 1000" version="1.1" id="svg5" xmlns="http://www.w3.org/2000/svg" xmlns:svg="http://www.w3.org/2000/svg"><path d="M460.751 138.984 C 440.141 148.069,438.066 180.071,457.201 193.720 C 462.475 197.482,462.852 197.504,537.596 198.333 L 612.691 199.167 458.923 513.333 C 329.402 777.959,305.142 828.627,305.077 834.650 C 304.927 848.606,314.448 859.894,328.579 862.514 C 336.634 864.006,348.149 858.929,353.676 851.448 C 361.563 840.772,685.400 176.241,686.163 169.167 C 687.088 160.592,681.532 149.575,672.763 142.597 L 666.360 137.500 566.097 137.122 C 485.129 136.817,464.855 137.175,460.751 138.984 M172.759 174.078 C 166.111 176.469,159.196 181.998,156.425 187.139 C 154.219 191.233,142.927 229.944,136.874 254.167 C 103.089 389.370,98.775 574.793,125.999 721.667 C 134.442 767.214,150.447 822.258,158.563 833.656 C 170.088 849.841,195.605 847.845,204.583 830.057 C 209.593 820.131,209.355 816.555,202.412 797.374 C 173.107 716.416,158.158 577.118,165.045 449.167 C 169.520 366.027,181.520 293.229,201.976 225.130 C 209.565 199.863,209.658 193.403,202.564 184.103 C 194.962 174.135,183.408 170.250,172.759 174.078 M729.764 178.596 C 716.399 186.346,712.368 205.371,721.487 217.667 C 724.138 221.242,751.701 249.393,782.737 280.225 C 843.264 340.353,844.702 341.470,858.597 339.122 C 868.099 337.517,879.183 326.432,880.789 316.930 C 883.141 303.009,882.159 301.759,819.463 238.783 C 787.311 206.489,758.604 178.926,755.668 177.533 C 748.108 173.946,736.998 174.401,729.764 178.596 M590.833 476.468 C 582.904 480.109,579.350 483.826,575.897 492.091 C 571.215 503.295,573.092 665.979,578.336 703.550 C 584.366 746.751,602.018 784.549,629.215 812.500 C 650.542 834.419,672.872 847.262,701.667 854.172 C 715.306 857.445,768.127 859.864,827.670 859.941 C 871.818 859.999,872.965 859.915,878.350 856.250 C 886.604 850.632,890.376 844.508,891.263 835.284 C 892.239 825.120,887.831 816.174,878.791 809.971 C 873.087 806.058,871.346 805.810,846.796 805.396 C 774.090 804.170,718.815 801.719,710.218 799.340 C 674.110 789.348,646.095 756.271,635.961 711.667 C 631.444 691.787,629.809 659.839,629.023 576.079 C 628.201 488.640,628.164 488.222,620.526 481.310 C 616.402 477.577,606.104 473.324,601.304 473.370 C 599.212 473.390,594.500 474.784,590.833 476.468 " stroke="none" fill-rule="evenodd" fill="black"></path></svg>