<svg width="1000" height="1000" viewBox="0 0 1000 1000" version="1.1" id="svg5" xmlns="http://www.w3.org/2000/svg" xmlns:svg="http://www.w3.org/2000/svg"><path d="M408.980 87.388 C 406.127 88.630,402.118 91.413,400.070 93.573 C 398.022 95.733,384.041 122.063,369.002 152.083 L 341.657 206.667 255.412 206.703 C 175.060 206.737,168.702 206.951,162.369 209.827 C 140.951 219.555,140.267 248.967,161.217 259.378 C 166.984 262.244,173.484 262.568,240.388 263.333 L 313.277 264.167 234.138 423.148 C 163.412 565.230,155.000 582.964,155.000 589.985 C 155.000 604.206,165.564 615.122,180.348 616.177 C 187.275 616.671,190.596 615.987,195.833 612.986 C 202.297 609.283,205.119 603.912,288.688 436.250 L 374.876 263.333 470.689 263.333 C 533.888 263.333,569.403 262.711,575.023 261.506 C 601.671 255.791,605.666 221.046,580.964 209.827 C 574.634 206.952,568.296 206.737,488.773 206.703 L 403.380 206.667 425.023 163.223 C 442.493 128.157,446.661 118.435,446.639 112.806 C 446.564 93.688,426.155 79.912,408.980 87.388 M549.167 348.226 C 459.541 349.113,453.869 349.347,448.907 352.350 C 436.748 359.709,432.784 378.513,440.881 390.428 C 449.184 402.647,447.562 402.402,526.344 403.333 L 596.854 404.167 451.457 621.667 C 371.488 741.292,305.084 841.952,303.892 845.355 C 299.780 857.098,305.627 871.034,317.125 876.901 C 329.122 883.021,344.116 879.728,351.908 869.261 C 353.311 867.376,424.681 760.833,510.508 632.500 C 596.334 504.167,668.831 395.866,671.611 391.833 C 684.135 373.663,673.104 349.391,651.611 347.827 C 647.517 347.529,601.417 347.709,549.167 348.226 M582.500 588.937 C 576.237 591.848,569.094 599.383,566.773 605.525 C 564.521 611.486,564.449 695.377,566.668 727.876 C 570.088 777.957,579.832 803.134,606.407 830.561 C 628.889 853.763,657.483 868.484,691.656 874.451 C 708.283 877.354,844.796 880.226,856.022 877.909 C 863.348 876.397,872.650 868.680,875.185 862.013 C 876.000 859.870,876.667 854.691,876.667 850.505 C 876.667 841.141,872.108 833.250,863.666 828.001 C 857.557 824.202,856.820 824.156,784.167 823.008 C 700.348 821.685,692.352 820.762,670.257 809.870 C 647.238 798.523,631.861 780.339,625.864 757.375 C 622.558 744.713,620.034 696.732,620.015 646.167 C 619.998 602.097,619.651 600.384,609.098 592.335 C 602.057 586.964,590.045 585.430,582.500 588.937 " stroke="none" fill-rule="evenodd" fill="black"></path></svg>