<svg width="1000" height="1000" viewBox="0 0 1000 1000" version="1.1" id="svg5" inkscape:version="1.2.1 (9c6d41e410, 2022-07-14)" sodipodi:docname="こ.svg" xmlns:inkscape="http://www.inkscape.org/namespaces/inkscape" xmlns:sodipodi="http://sodipodi.sourceforge.net/DTD/sodipodi-0.dtd" xmlns="http://www.w3.org/2000/svg" xmlns:svg="http://www.w3.org/2000/svg"><path d="M457.208 92.686 C 454.297 94.121,450.547 96.799,448.874 98.637 C 447.202 100.475,429.329 129.096,409.156 162.239 L 372.479 222.500 248.192 223.333 L 123.905 224.167 118.021 228.656 C 101.545 241.225,103.764 265.930,122.169 274.840 C 129.259 278.272,131.209 278.333,233.026 278.333 C 295.523 278.333,336.667 278.946,336.667 279.877 C 336.667 280.727,285.174 366.039,222.239 469.461 C 159.304 572.882,106.360 660.764,104.585 664.754 C 92.757 691.353,129.796 714.794,149.426 693.131 C 151.402 690.951,208.662 597.667,276.671 485.833 C 344.680 374.000,401.092 281.563,402.032 280.417 C 403.362 278.795,424.338 278.333,496.609 278.333 L 589.476 278.333 596.733 274.495 C 605.206 270.015,611.682 259.441,611.639 250.155 C 611.601 241.770,605.339 231.604,597.466 227.145 C 590.854 223.400,590.599 223.388,514.583 223.361 C 465.000 223.343,438.333 222.752,438.333 221.671 C 438.333 220.756,450.631 199.813,465.662 175.131 C 480.693 150.449,493.860 127.621,494.922 124.402 C 496.339 120.108,496.373 116.767,495.050 111.851 C 490.371 94.477,472.218 85.283,457.208 92.686 M529.167 378.235 C 416.800 378.957,383.338 379.641,380.484 381.272 C 375.183 384.304,368.531 393.596,367.317 399.664 C 364.733 412.584,374.059 428.193,386.414 431.624 C 390.255 432.691,434.763 433.318,507.083 433.324 C 570.104 433.329,621.667 433.676,621.667 434.094 C 621.667 434.512,549.141 529.574,460.498 645.344 C 371.856 761.113,297.981 858.429,296.332 861.602 C 292.528 868.921,292.581 875.682,296.509 884.332 C 301.222 894.708,308.620 899.167,321.128 899.167 C 328.991 899.167,332.531 898.339,336.116 895.662 C 338.698 893.734,383.941 835.829,436.655 766.984 C 489.370 698.139,533.458 640.858,534.629 639.694 C 536.355 637.976,536.736 652.354,536.646 715.871 C 536.573 767.395,537.177 797.554,538.412 804.073 C 542.898 827.755,552.664 846.146,570.082 863.711 C 580.200 873.915,585.757 877.973,596.843 883.252 C 624.443 896.394,615.722 895.690,758.001 896.268 L 885.168 896.785 891.554 893.196 C 899.824 888.548,905.000 879.337,905.000 869.267 C 905.000 862.283,900.119 852.283,857.223 771.376 C 830.946 721.814,807.543 679.003,805.217 676.239 C 796.918 666.376,783.852 664.068,772.549 670.469 C 763.078 675.834,758.333 683.614,758.333 693.781 C 758.333 701.369,761.395 707.848,794.583 770.499 C 814.521 808.135,831.083 839.545,831.389 840.298 C 832.249 842.418,650.767 842.000,639.056 839.855 C 618.399 836.071,603.564 824.456,596.071 806.201 C 592.552 797.627,592.494 795.800,592.091 680.833 L 591.683 564.167 644.254 495.833 C 673.169 458.250,698.795 425.008,701.202 421.963 C 704.310 418.032,705.793 413.847,706.316 407.534 C 707.640 391.568,697.058 378.911,681.466 377.816 C 677.452 377.534,608.917 377.722,529.167 378.235 " stroke="none" fill-rule="evenodd" fill="black"></path></svg>