<svg width="1000" height="1000" viewBox="0 0 1000 1000" version="1.1" id="svg5" xmlns="http://www.w3.org/2000/svg" xmlns:svg="http://www.w3.org/2000/svg"><path d="M348.334 130.206 C 325.714 139.226,326.058 172.917,348.858 181.556 C 351.999 182.746,387.948 183.333,457.608 183.333 C 514.840 183.333,561.630 183.896,561.586 184.583 C 561.542 185.271,483.050 239.083,387.159 304.167 C 291.268 369.250,210.266 424.674,207.154 427.331 C 189.270 442.601,193.982 467.788,216.087 475.084 C 219.320 476.151,224.191 476.578,226.911 476.034 C 229.632 475.490,254.127 465.176,281.345 453.113 C 404.497 398.535,463.915 380.014,543.333 371.449 C 570.464 368.523,629.112 368.998,650.295 372.314 C 705.838 381.011,743.737 400.628,759.317 428.747 C 763.769 436.783,764.167 438.871,764.167 454.244 C 764.167 470.336,763.915 471.498,757.689 484.103 C 749.868 499.939,730.996 520.438,712.411 533.286 C 701.714 540.681,644.481 570.821,414.167 690.348 C 222.907 789.606,115.160 845.904,111.455 848.515 C 101.344 855.643,98.715 872.170,105.776 884.220 C 111.882 894.638,124.942 899.574,136.585 895.865 C 138.831 895.149,197.558 864.987,267.088 828.838 C 336.619 792.690,394.242 763.359,395.141 763.658 C 396.039 763.957,419.062 792.661,446.304 827.444 C 476.454 865.941,497.943 891.910,501.225 893.815 C 507.796 897.629,519.479 897.883,526.291 894.361 C 529.038 892.940,536.195 885.892,542.195 878.699 C 581.259 831.863,631.841 800.273,685.833 788.991 C 696.635 786.734,707.830 785.853,725.833 785.845 C 748.919 785.834,751.960 786.202,765.545 790.653 C 802.959 802.912,842.012 836.615,870.647 881.357 C 879.107 894.577,886.974 899.891,898.187 899.963 C 906.861 900.019,918.047 892.653,921.783 884.423 C 928.361 869.937,925.184 861.358,901.800 830.466 C 870.753 789.451,832.218 757.753,795.029 742.642 C 771.165 732.945,758.341 730.826,724.167 730.930 C 698.083 731.009,689.513 731.670,675.559 734.682 C 620.953 746.468,575.712 770.344,530.342 811.320 C 517.328 823.074,514.366 825.048,512.615 823.132 C 506.112 816.022,446.667 738.465,446.667 737.092 C 446.667 736.189,503.479 705.985,572.917 669.973 C 642.354 633.960,706.667 600.402,715.833 595.400 C 768.346 566.744,803.628 528.209,816.915 485.000 C 819.995 474.982,820.731 468.859,820.623 454.167 C 820.466 432.816,816.035 416.514,805.459 398.374 C 797.820 385.270,777.979 364.774,763.538 355.066 C 701.896 313.628,598.220 302.566,481.667 324.990 C 467.458 327.723,453.396 330.666,450.417 331.530 C 447.438 332.394,445.032 332.591,445.071 331.967 C 445.111 331.343,496.813 295.731,559.965 252.829 C 665.674 181.016,675.061 174.261,678.227 167.719 C 680.119 163.812,681.667 158.577,681.667 156.087 C 681.667 146.001,672.896 133.917,662.808 130.106 C 656.531 127.734,354.291 127.830,348.334 130.206 M745.833 163.233 C 729.959 167.006,720.998 181.616,725.070 197.083 C 726.698 203.270,734.356 211.620,785.550 263.035 C 817.789 295.412,846.417 323.106,849.167 324.578 C 855.690 328.068,867.759 327.990,874.590 324.413 C 888.218 317.279,893.084 297.867,884.390 285.322 C 882.009 281.887,854.354 253.469,822.934 222.171 C 781.475 180.873,764.438 164.958,760.820 164.145 C 751.668 162.087,750.859 162.038,745.833 163.233 " stroke="none" fill-rule="evenodd" fill="black"></path></svg>