<svg width="1000" height="1000" viewBox="0 0 1000 1000" version="1.1" id="svg5" sodipodi:docname="ず.svg" inkscape:version="1.3 (0e150ed6c4, 2023-07-21)" xmlns:inkscape="http://www.inkscape.org/namespaces/inkscape" xmlns:sodipodi="http://sodipodi.sourceforge.net/DTD/sodipodi-0.dtd" xmlns="http://www.w3.org/2000/svg" xmlns:svg="http://www.w3.org/2000/svg"><path d="M297.846 133.483 C 287.545 138.919,281.636 151.811,284.165 163.327 C 285.346 168.703,293.229 178.935,298.268 181.632 C 303.147 184.243,682.167 265.358,689.369 265.332 C 701.802 265.288,711.402 257.667,715.265 244.774 C 718.539 233.845,712.303 219.667,701.841 214.257 C 695.824 211.145,318.410 129.979,310.398 130.074 C 306.971 130.114,301.322 131.648,297.846 133.483 M305.833 319.786 C 297.825 323.482,294.348 327.163,290.762 335.747 C 285.805 347.611,292.165 363.231,304.435 369.323 C 310.510 372.340,317.178 372.542,436.553 373.333 L 562.272 374.167 368.220 488.237 C 261.490 550.975,167.658 606.300,159.702 611.181 C 144.147 620.724,139.137 626.675,137.480 637.577 C 136.296 645.364,141.533 657.055,148.462 662.096 C 157.137 668.407,163.368 668.445,193.486 662.374 C 220.773 656.873,240.565 652.285,335.833 629.373 C 434.200 605.716,484.065 597.544,556.667 593.183 C 640.729 588.133,710.578 597.785,755.359 620.637 C 804.281 645.603,818.817 677.029,799.008 715.000 C 765.609 779.017,648.559 832.102,495.833 852.494 C 470.802 855.837,466.847 857.096,460.399 863.781 C 451.019 873.506,449.451 882.703,455.160 894.497 C 459.365 903.183,469.826 910.000,478.949 910.000 C 487.331 910.000,537.802 902.384,563.333 897.266 C 653.982 879.096,729.849 849.389,783.333 811.123 C 800.476 798.857,828.567 771.204,837.804 757.500 C 855.427 731.354,862.433 710.431,862.361 684.167 C 862.319 668.760,861.610 663.812,857.920 653.173 C 840.019 601.558,786.706 563.689,708.333 546.919 C 643.088 532.959,547.527 533.522,453.333 548.423 C 426.758 552.627,404.967 556.909,367.756 565.241 C 351.397 568.904,337.729 571.618,337.382 571.271 C 337.036 570.924,413.795 525.352,507.959 469.998 C 602.123 414.645,680.803 368.188,682.804 366.761 C 688.841 362.455,693.333 352.802,693.333 344.136 C 693.333 334.456,688.883 326.651,680.333 321.334 L 674.167 317.500 493.333 317.104 C 320.573 316.726,312.202 316.846,305.833 319.786 M733.203 377.123 C 719.323 386.476,715.998 401.503,724.800 415.090 C 727.440 419.166,755.002 447.740,786.050 478.590 C 846.986 539.136,848.432 540.249,862.702 537.572 C 871.331 535.953,882.620 524.664,884.239 516.035 C 886.936 501.659,886.064 500.538,822.773 436.965 C 790.540 404.588,762.141 377.025,759.666 375.715 C 752.624 371.988,739.811 372.670,733.203 377.123 " stroke="none" fill-rule="evenodd" fill="black"></path></svg>