<svg width="1000" height="1000" viewBox="0 0 1000 1000" version="1.1" id="svg5" xmlns="http://www.w3.org/2000/svg" xmlns:svg="http://www.w3.org/2000/svg"><path d="M458.333 141.188 C 448.403 144.978,440.000 156.887,440.000 167.171 C 440.000 176.162,446.591 186.750,454.933 191.162 L 462.191 195.000 561.929 195.000 C 616.785 195.000,661.667 195.408,661.667 195.907 C 661.667 196.674,416.390 452.471,351.687 519.182 C 334.399 537.008,330.278 542.220,328.523 548.488 C 325.527 559.189,328.127 567.920,336.583 575.560 C 344.448 582.665,352.779 584.619,363.260 581.816 C 375.773 578.469,416.427 562.382,465.833 541.228 C 562.112 500.005,598.440 489.212,655.423 484.900 C 732.541 479.065,787.239 503.341,812.495 554.612 C 821.461 572.813,825.018 589.414,825.147 613.657 C 825.510 682.209,787.607 745.534,717.751 793.084 C 683.607 816.326,644.339 833.039,594.283 845.633 C 585.181 847.923,575.806 851.224,573.450 852.969 C 553.260 867.917,560.151 896.365,585.402 902.313 C 593.257 904.164,641.737 890.880,674.167 877.992 C 781.812 835.214,858.925 750.363,877.581 654.167 C 881.627 633.307,881.698 595.449,877.727 577.007 C 869.169 537.267,852.581 507.083,824.999 481.063 C 769.120 428.350,682.073 414.972,574.167 442.514 C 548.087 449.170,527.633 456.131,493.615 469.925 C 479.562 475.624,467.745 479.968,467.356 479.578 C 466.967 479.189,530.462 412.562,608.457 331.519 C 686.451 250.475,751.330 181.753,752.632 178.804 C 758.101 166.415,754.211 152.780,742.795 144.320 C 738.118 140.854,737.278 140.832,599.462 140.534 C 523.216 140.369,459.708 140.663,458.333 141.188 M172.759 174.078 C 166.111 176.469,159.196 181.998,156.425 187.139 C 154.219 191.233,142.927 229.944,136.874 254.167 C 103.089 389.370,98.775 574.793,125.999 721.667 C 134.442 767.214,150.447 822.258,158.563 833.656 C 170.088 849.841,195.605 847.845,204.583 830.057 C 209.593 820.131,209.355 816.555,202.412 797.374 C 173.107 716.416,158.158 577.118,165.045 449.167 C 169.520 366.027,181.520 293.229,201.976 225.130 C 209.565 199.863,209.658 193.403,202.564 184.103 C 194.962 174.135,183.408 170.250,172.759 174.078 M759.136 253.989 C 752.039 257.081,743.702 267.176,742.367 274.292 C 739.761 288.181,741.123 289.942,801.410 350.617 C 832.260 381.664,860.834 409.227,864.910 411.867 C 887.489 426.494,914.438 404.253,904.905 378.858 C 902.287 371.883,789.028 258.689,780.833 254.857 C 773.032 251.209,766.148 250.934,759.136 253.989 " stroke="none" fill-rule="evenodd" fill="#000000"></path></svg>