<svg width="1000" height="1000" viewBox="0 0 1000 1000" version="1.1" id="svg5" xmlns="http://www.w3.org/2000/svg" xmlns:svg="http://www.w3.org/2000/svg"><path d="M403.345 87.655 C 400.143 89.043,396.018 91.601,394.179 93.339 C 392.339 95.076,378.467 121.286,363.354 151.582 L 335.874 206.667 250.854 206.676 C 198.519 206.682,163.494 207.335,159.747 208.376 C 152.891 210.280,142.345 220.885,140.670 227.559 C 136.793 243.004,147.250 258.632,163.570 261.785 C 167.565 262.557,201.396 263.221,238.750 263.261 C 276.104 263.301,306.667 263.959,306.667 264.724 C 306.667 265.489,270.973 337.677,227.347 425.141 C 152.884 574.432,148.076 584.602,148.813 591.281 C 149.821 600.424,156.447 610.392,163.853 613.906 C 175.118 619.252,189.052 616.425,196.744 607.235 C 198.993 604.548,238.689 526.071,284.956 432.841 L 369.079 263.333 464.956 263.261 C 517.689 263.221,564.102 262.557,568.097 261.785 C 584.417 258.632,594.873 243.004,590.997 227.559 C 589.322 220.885,578.776 210.280,571.919 208.376 C 568.179 207.337,533.559 206.682,482.083 206.676 C 436.021 206.671,398.333 206.286,398.333 205.821 C 398.333 205.355,407.612 186.418,418.953 163.737 C 430.293 141.057,440.102 120.065,440.751 117.089 C 443.118 106.218,435.105 92.130,423.804 87.295 C 416.955 84.365,410.678 84.475,403.345 87.655 M717.500 181.686 C 701.872 185.025,692.867 198.656,695.767 214.583 C 696.759 220.030,704.758 228.708,758.036 282.125 C 823.557 347.819,824.058 348.217,837.941 345.663 C 846.356 344.115,857.637 332.905,859.209 324.530 C 862.025 309.516,862.933 310.691,798.630 246.138 C 765.925 213.305,737.684 185.625,735.873 184.627 C 730.672 181.762,722.940 180.524,717.500 181.686 M451.667 349.536 C 440.369 353.781,432.213 367.327,434.048 378.799 C 435.307 386.673,439.736 393.396,447.150 398.684 L 452.500 402.500 539.081 403.333 L 625.662 404.167 484.566 507.176 C 406.963 563.831,340.486 612.581,336.840 615.509 C 320.745 628.434,321.683 650.675,338.743 660.673 C 342.804 663.053,348.685 664.996,351.813 664.992 C 359.472 664.981,396.956 655.018,458.333 636.680 C 542.218 611.617,575.680 604.085,622.154 599.803 C 651.135 597.133,701.553 598.848,721.250 603.174 C 781.813 616.477,813.407 651.271,802.738 692.916 C 787.328 753.068,704.424 803.401,587.772 823.428 C 567.812 826.854,561.009 829.963,555.463 838.193 C 546.959 850.812,549.772 866.148,562.268 875.297 C 568.908 880.159,569.666 880.316,582.500 879.497 C 598.480 878.477,631.268 871.816,658.438 864.070 C 767.796 832.891,842.958 771.397,857.360 701.320 C 870.680 636.506,830.702 579.540,754.889 555.305 C 696.397 536.608,603.936 539.415,516.935 562.531 C 508.374 564.806,500.229 566.667,498.836 566.667 C 497.442 566.667,549.415 527.854,614.331 480.417 C 699.594 418.111,733.279 392.583,735.668 388.464 C 740.629 379.907,740.097 368.557,734.346 360.258 C 725.591 347.626,734.271 348.318,586.415 348.465 C 513.678 348.537,453.042 349.019,451.667 349.536 " stroke="none" fill-rule="evenodd" fill="black"></path></svg>