<svg width="1000" height="1000" viewBox="0 0 1000 1000" version="1.1" id="svg5" xmlns="http://www.w3.org/2000/svg" xmlns:svg="http://www.w3.org/2000/svg"><path d="M339.950 128.750 C 335.867 130.813,330.926 134.911,328.969 137.857 C 324.531 144.542,310.180 187.557,303.502 214.194 C 291.424 262.366,285.282 308.223,283.860 360.833 C 281.761 438.509,292.831 503.195,320.299 573.757 C 329.227 596.692,333.320 601.758,345.677 605.170 C 358.794 608.791,374.498 599.245,378.231 585.378 C 380.430 577.215,379.766 574.082,371.568 553.930 C 348.208 496.499,336.712 428.436,338.955 360.833 C 341.187 293.578,350.620 241.067,371.828 177.856 C 379.226 155.805,379.915 152.540,378.376 146.824 C 376.030 138.114,370.741 131.844,362.631 128.161 C 353.685 124.098,348.914 124.222,339.950 128.750 M682.071 126.344 C 675.856 128.254,666.475 136.718,663.995 142.655 C 662.052 147.304,661.666 177.149,661.661 322.863 C 661.657 430.390,660.989 504.865,659.921 516.667 C 655.395 566.679,641.920 613.006,617.503 662.500 C 583.238 731.953,536.136 786.764,482.990 819.030 C 469.478 827.233,464.386 833.330,462.486 843.579 C 461.222 850.399,465.501 862.086,471.069 867.020 C 476.837 872.131,486.764 875.350,493.186 874.190 C 515.790 870.107,579.671 816.733,611.904 775.000 C 668.679 701.490,703.296 618.933,714.169 531.109 C 716.250 514.299,716.667 480.519,716.667 328.610 C 716.667 147.798,716.638 146.237,713.245 140.198 C 707.192 129.429,692.819 123.041,682.071 126.344 " stroke="none" fill-rule="evenodd" fill="black"></path></svg>