<svg width="1000" height="1000" viewBox="0 0 1000 1000" version="1.1" id="svg5" xmlns="http://www.w3.org/2000/svg" xmlns:svg="http://www.w3.org/2000/svg"><path d="M722.228 109.191 C 708.352 117.508,704.715 134.694,713.996 148.087 C 716.350 151.484,743.602 179.454,774.555 210.241 C 834.701 270.065,836.376 271.372,850.467 269.482 C 863.536 267.729,873.333 256.385,873.333 243.004 C 873.333 238.511,872.257 232.809,870.942 230.334 C 867.258 223.398,751.456 108.720,746.142 106.744 C 738.353 103.849,729.656 104.738,722.228 109.191 M284.167 128.072 C 280.500 129.807,275.871 133.013,273.880 135.197 C 261.650 148.610,237.766 237.767,230.848 295.833 C 218.697 397.830,229.288 489.186,263.211 575.000 C 270.888 594.420,277.023 601.894,287.707 604.844 C 303.855 609.303,321.667 595.359,321.667 578.259 C 321.667 575.410,318.399 564.698,314.406 554.456 C 300.525 518.855,291.458 484.663,285.601 445.833 C 281.780 420.497,281.256 337.696,284.737 309.167 C 290.106 265.161,300.023 220.889,313.384 181.275 C 317.939 167.767,321.667 154.692,321.667 152.218 C 321.667 145.367,315.688 134.597,309.608 130.497 C 301.663 125.138,292.259 124.241,284.167 128.072 M620.400 128.517 C 616.496 130.450,611.621 134.387,609.567 137.266 L 605.833 142.500 604.695 325.000 C 603.969 441.481,602.875 513.785,601.672 524.875 C 594.466 591.277,566.494 663.528,525.163 722.500 C 502.405 754.970,464.839 793.237,439.435 809.828 C 408.210 830.220,407.063 831.346,405.477 843.169 C 404.233 852.447,405.857 857.428,412.540 864.825 C 420.027 873.112,430.187 876.297,439.418 873.250 C 456.303 867.678,492.129 841.290,518.434 815.052 C 582.098 751.549,628.958 665.780,649.131 575.834 C 659.045 531.631,658.826 536.660,659.564 336.667 C 660.036 208.557,659.699 150.666,658.456 146.476 C 655.940 137.996,650.548 131.756,642.631 128.161 C 633.798 124.149,629.072 124.224,620.400 128.517 " stroke="none" fill-rule="evenodd" fill="#000000"></path></svg>