<svg width="1000" height="1000" viewBox="0 0 1000 1000" version="1.1" id="svg5" sodipodi:docname="ぢ.svg" inkscape:version="1.3 (0e150ed6c4, 2023-07-21)" xmlns:inkscape="http://www.inkscape.org/namespaces/inkscape" xmlns:sodipodi="http://sodipodi.sourceforge.net/DTD/sodipodi-0.dtd" xmlns="http://www.w3.org/2000/svg" xmlns:svg="http://www.w3.org/2000/svg"><path d="M335.833 113.787 C 330.235 116.922,327.825 120.188,320.788 134.176 C 305.994 163.589,291.568 211.357,285.808 250.000 C 273.917 329.773,284.006 401.219,316.581 467.921 C 329.316 493.999,333.446 498.353,346.645 499.621 C 361.908 501.088,374.803 490.479,376.266 475.253 C 376.919 468.450,376.066 465.397,370.305 453.941 C 356.254 425.994,346.758 398.343,340.619 367.500 C 335.941 343.996,336.259 279.524,341.187 252.342 C 347.495 217.544,357.853 184.158,371.645 154.167 C 375.936 144.836,376.862 140.957,376.270 134.796 C 374.386 115.181,353.099 104.121,335.833 113.787 M675.837 112.626 C 673.089 114.058,669.450 116.490,667.750 118.028 C 659.949 125.087,660.004 124.281,661.094 216.935 C 662.362 324.634,660.059 362.837,649.057 416.667 C 628.001 519.681,579.583 591.819,493.986 647.707 C 483.803 654.356,454.928 670.263,429.819 683.057 C 404.710 695.851,380.792 708.191,376.667 710.479 C 372.542 712.766,312.167 744.067,242.500 780.037 C 172.833 816.006,113.863 846.823,111.455 848.518 C 101.344 855.638,98.715 872.170,105.776 884.220 C 111.889 894.650,124.942 899.574,136.615 895.855 C 138.878 895.134,197.984 864.941,267.963 828.759 C 337.941 792.578,395.715 763.478,396.348 764.094 C 396.982 764.710,419.625 793.445,446.667 827.950 C 476.546 866.075,497.948 891.913,501.225 893.815 C 507.796 897.629,519.479 897.883,526.291 894.361 C 529.038 892.940,536.195 885.892,542.195 878.699 C 581.259 831.863,631.841 800.273,685.833 788.991 C 696.635 786.734,707.830 785.853,725.833 785.845 C 748.919 785.834,751.960 786.202,765.545 790.653 C 802.959 802.912,842.012 836.615,870.647 881.357 C 879.107 894.577,886.974 899.891,898.187 899.963 C 906.861 900.019,918.047 892.653,921.783 884.423 C 928.361 869.937,925.184 861.358,901.800 830.466 C 870.753 789.451,832.218 757.753,795.029 742.642 C 771.165 732.945,758.341 730.826,724.167 730.930 C 698.083 731.009,689.513 731.670,675.559 734.682 C 620.953 746.468,575.712 770.344,530.342 811.320 C 517.328 823.074,514.366 825.048,512.615 823.132 C 511.459 821.868,496.004 802.178,478.272 779.377 C 447.604 739.943,446.189 737.802,449.265 735.507 C 451.044 734.180,464.125 727.190,478.333 719.974 C 592.842 661.823,665.338 574.184,696.640 456.069 C 713.727 391.592,719.415 320.006,716.627 204.536 C 715.781 169.500,714.643 137.614,714.099 133.680 C 711.700 116.359,690.768 104.840,675.837 112.626 M779.167 113.432 C 764.590 118.126,756.394 135.082,761.744 149.475 C 763.769 154.919,878.488 270.641,885.602 274.415 C 888.226 275.806,893.579 276.944,897.500 276.944 C 915.129 276.944,927.485 261.602,924.232 243.750 C 923.242 238.313,915.465 229.840,864.464 178.632 C 832.217 146.254,803.879 118.343,801.491 116.607 C 796.167 112.736,785.874 111.272,779.167 113.432 " stroke="none" fill-rule="evenodd" fill="black"></path></svg>