<svg width="1000" height="1000" viewBox="0 0 1000 1000" version="1.1" id="svg5" sodipodi:docname="っ.svg" inkscape:version="1.3 (0e150ed6c4, 2023-07-21)" xmlns:inkscape="http://www.inkscape.org/namespaces/inkscape" xmlns:sodipodi="http://sodipodi.sourceforge.net/DTD/sodipodi-0.dtd" xmlns="http://www.w3.org/2000/svg" xmlns:svg="http://www.w3.org/2000/svg"><path d="M650.326 148.750 C 641.215 153.727,315.305 482.243,312.249 489.530 C 309.389 496.351,309.389 503.649,312.249 510.470 C 315.305 517.757,641.215 846.273,650.326 851.250 C 659.074 856.028,665.925 855.994,675.155 851.125 C 688.284 844.199,693.710 827.936,687.013 815.581 C 685.448 812.692,614.892 740.504,530.224 655.164 L 376.281 500.000 530.224 344.836 C 614.892 259.496,685.448 187.308,687.013 184.419 C 693.764 171.963,688.208 155.388,675.057 148.750 C 670.970 146.688,665.279 145.000,662.409 145.000 C 659.539 145.000,654.102 146.688,650.326 148.750 " stroke="none" fill-rule="evenodd" fill="black"></path></svg>