<svg width="1000" height="1000" viewBox="0 0 1000 1000" version="1.1" id="svg5" sodipodi:docname="つ.svg" inkscape:version="1.3 (0e150ed6c4, 2023-07-21)" xmlns:inkscape="http://www.inkscape.org/namespaces/inkscape" xmlns:sodipodi="http://sodipodi.sourceforge.net/DTD/sodipodi-0.dtd" xmlns="http://www.w3.org/2000/svg" xmlns:svg="http://www.w3.org/2000/svg"><path d="M296.536 98.790 C 293.443 100.874,289.141 105.186,286.975 108.373 C 283.704 113.188,283.150 115.758,283.697 123.587 C 284.527 135.455,290.237 143.579,300.388 147.332 C 304.300 148.778,393.062 168.329,497.639 190.778 C 699.484 234.107,691.249 232.707,703.103 225.704 C 720.676 215.324,717.892 186.295,698.553 178.243 C 691.480 175.298,315.407 95.000,308.688 95.000 C 304.657 95.000,300.008 96.450,296.536 98.790 M343.761 288.529 C 334.113 291.315,327.844 299.679,318.770 321.869 C 296.764 375.691,285.968 425.640,283.848 483.448 C 281.983 534.283,290.306 584.097,308.333 630.000 C 317.995 654.604,330.149 678.213,334.885 681.579 C 352.672 694.220,375.091 684.809,379.186 662.983 C 380.160 657.793,378.858 653.684,370.187 634.578 C 340.478 569.118,332.424 509.893,343.405 437.639 C 348.908 401.432,359.349 365.463,374.002 332.230 C 380.816 316.776,381.151 313.498,376.865 304.167 C 373.114 295.996,368.832 292.043,360.527 289.081 C 353.180 286.461,351.152 286.394,343.761 288.529 M681.140 289.027 C 673.585 291.786,668.984 295.685,665.246 302.496 C 662.771 307.006,662.408 322.796,661.569 462.500 C 660.662 613.470,660.545 617.898,657.058 632.824 C 641.837 697.977,600.635 763.706,546.591 809.050 C 527.573 825.006,511.158 836.054,489.193 847.679 C 479.568 852.774,470.189 858.853,468.352 861.188 C 454.707 878.535,467.719 905.000,489.891 905.000 C 502.063 905.000,542.264 882.930,569.971 861.037 C 632.036 811.997,680.785 742.977,702.547 673.333 C 716.718 627.982,716.667 628.762,716.667 457.321 C 716.667 309.750,716.626 307.881,713.245 301.865 C 706.612 290.065,693.097 284.660,681.140 289.027 " stroke="none" fill-rule="evenodd" fill="black"></path></svg>