<svg width="1000" height="1000" viewBox="0 0 1000 1000" version="1.1" id="svg5" sodipodi:docname="уБе.svg" inkscape:version="1.3 (0e150ed6c4, 2023-07-21)" xmlns:inkscape="http://www.inkscape.org/namespaces/inkscape" xmlns:sodipodi="http://sodipodi.sourceforge.net/DTD/sodipodi-0.dtd" xmlns="http://www.w3.org/2000/svg" xmlns:svg="http://www.w3.org/2000/svg"><path d="M244.167 97.353 C 224.933 105.901,223.086 134.032,241.031 145.122 C 244.656 147.363,307.986 161.674,439.434 189.957 C 647.164 234.654,638.478 233.204,649.898 225.073 C 665.450 213.998,663.320 187.577,646.221 179.462 C 639.196 176.129,262.889 94.974,254.880 95.065 C 251.738 95.101,246.917 96.130,244.167 97.353 M289.167 288.823 C 278.522 293.102,276.529 295.350,268.483 312.151 C 246.431 358.198,231.683 421.541,229.014 481.667 C 226.304 542.707,240.003 607.080,267.164 660.936 C 275.596 677.656,281.303 683.917,290.335 686.354 C 302.880 689.741,314.868 684.026,321.354 671.569 C 326.573 661.545,325.609 655.941,314.571 632.116 C 295.389 590.712,287.939 561.332,285.046 515.678 C 281.216 455.252,292.878 393.293,320.030 329.812 C 326.125 315.559,326.026 309.488,319.537 299.860 C 312.797 289.859,299.034 284.857,289.167 288.823 M626.140 289.027 C 618.585 291.786,613.984 295.685,610.246 302.496 C 607.771 307.007,607.408 322.859,606.565 463.333 C 605.659 614.454,605.524 619.620,602.103 634.167 C 589.626 687.218,560.298 739.874,519.181 783.046 C 492.275 811.297,467.745 829.993,434.007 847.963 C 424.160 853.208,414.591 859.552,412.743 862.061 C 410.589 864.985,409.141 870.070,408.710 876.228 C 408.149 884.246,408.682 886.772,411.936 891.513 C 417.729 899.956,423.784 903.706,433.066 904.598 C 440.505 905.313,443.197 904.505,458.657 896.917 C 547.776 853.177,627.976 753.907,652.753 656.667 C 662.401 618.804,662.406 618.700,662.455 456.667 L 662.500 307.500 658.666 301.334 C 651.544 289.881,637.919 284.725,626.140 289.027 M730.833 289.170 C 717.304 293.954,709.701 308.093,713.324 321.733 C 715.086 328.361,721.564 335.457,773.067 387.177 C 804.838 419.083,833.312 446.732,836.341 448.620 C 843.858 453.303,856.255 453.223,863.991 448.442 C 876.546 440.683,881.061 423.284,873.620 411.341 C 871.732 408.312,844.083 379.843,812.177 348.077 C 763.477 299.591,753.097 290.030,747.500 288.503 C 739.279 286.261,739.033 286.271,730.833 289.170 " stroke="none" fill-rule="evenodd" fill="black"></path></svg>