<svg width="1000" height="1000" viewBox="0 0 1000 1000" version="1.1" id="svg5" xmlns="http://www.w3.org/2000/svg" xmlns:svg="http://www.w3.org/2000/svg"><path d="M502.448 161.770 C 494.915 163.961,487.246 172.426,483.343 182.858 C 471.342 214.932,457.440 284.088,451.417 341.667 C 448.117 373.224,448.561 455.092,452.191 484.167 C 457.509 526.759,465.818 565.146,477.804 602.500 C 485.303 625.870,488.792 632.041,497.168 636.748 C 509.680 643.780,523.745 640.793,532.564 629.231 C 539.647 619.945,539.545 613.589,531.935 590.000 C 518.708 548.996,512.084 519.018,507.548 479.632 C 497.614 393.377,507.560 292.706,535.021 201.558 C 539.481 186.756,538.764 179.415,532.086 171.479 C 527.347 165.846,516.341 159.999,510.833 160.187 C 509.000 160.249,505.226 160.962,502.448 161.770 M788.738 161.344 C 782.522 163.254,773.142 171.718,770.661 177.655 C 768.717 182.307,768.333 212.878,768.333 362.990 C 768.333 479.267,767.698 549.184,766.535 560.961 C 758.830 638.951,730.804 716.245,686.511 781.667 C 664.853 813.655,644.311 835.361,614.270 858.001 C 600.075 868.699,596.565 880.245,603.309 894.057 C 610.970 909.749,627.242 913.405,644.158 903.237 C 684.405 879.044,732.180 821.297,764.198 758.143 C 797.041 693.359,814.872 633.465,821.625 565.240 C 822.677 554.613,823.333 477.518,823.333 364.634 L 823.333 181.287 819.647 174.728 C 817.619 171.120,813.647 166.739,810.820 164.992 C 804.987 161.387,794.329 159.626,788.738 161.344 M241.092 174.098 C 234.466 176.460,227.537 181.985,224.776 187.107 C 222.272 191.752,212.423 225.313,206.074 250.833 C 186.092 331.159,176.697 414.012,176.687 510.000 C 176.676 617.069,187.530 710.452,208.455 783.333 C 218.459 818.176,224.711 832.895,232.018 838.807 C 245.529 849.738,265.570 845.205,273.173 829.497 C 277.951 819.629,277.671 816.704,269.865 794.863 C 246.363 729.106,231.671 620.451,231.668 512.377 C 231.665 409.309,244.259 313.992,269.182 228.464 C 273.299 214.338,276.667 201.000,276.667 198.824 C 276.667 193.891,271.468 183.507,266.954 179.425 C 263.730 176.509,252.756 171.813,249.167 171.813 C 248.250 171.813,244.616 172.841,241.092 174.098 " stroke="none" fill-rule="evenodd" fill="black"></path></svg>