<svg width="1000" height="1000" viewBox="0 0 1000 1000" version="1.1" id="svg5" sodipodi:docname="で.svg" inkscape:version="1.3 (0e150ed6c4, 2023-07-21)" xmlns:inkscape="http://www.inkscape.org/namespaces/inkscape" xmlns:sodipodi="http://sodipodi.sourceforge.net/DTD/sodipodi-0.dtd" xmlns="http://www.w3.org/2000/svg" xmlns:svg="http://www.w3.org/2000/svg"><path d="M820.833 142.353 C 807.421 148.314,801.285 164.871,807.325 178.804 C 810.301 185.667,925.916 300.884,932.192 303.239 C 944.711 307.938,959.807 302.084,966.162 290.067 C 970.654 281.573,970.981 275.586,967.423 267.030 C 964.376 259.704,858.408 152.371,846.757 144.809 C 838.507 139.455,829.314 138.584,820.833 142.353 M434.107 162.210 C 421.252 167.181,417.397 173.296,409.305 201.546 C 397.666 242.183,389.295 286.227,383.942 335.000 C 379.873 372.080,379.836 450.619,383.872 483.175 C 389.433 528.037,398.244 568.178,411.158 607.500 C 417.974 628.252,424.367 636.621,435.818 639.783 C 451.974 644.244,470.000 630.488,470.000 613.700 C 470.000 611.092,467.713 602.255,464.919 594.063 C 444.452 534.063,435.865 478.969,436.100 409.167 C 436.346 335.994,446.133 269.541,466.676 201.558 C 469.396 192.558,470.151 187.163,469.316 182.709 C 467.773 174.484,458.552 164.426,450.284 161.949 C 442.522 159.623,440.722 159.652,434.107 162.210 M717.307 163.110 C 713.533 164.867,708.283 169.139,705.640 172.604 L 700.833 178.905 699.892 371.536 C 698.890 576.510,699.043 572.535,690.658 611.667 C 669.386 710.937,613.129 808.731,551.241 854.019 C 537.264 864.247,533.955 868.141,532.328 876.278 C 530.623 884.803,533.087 893.051,539.440 900.084 C 550.334 912.142,563.029 912.290,580.263 900.561 C 651.826 851.857,718.625 740.307,743.591 627.815 C 754.328 579.436,753.808 591.393,754.506 377.020 L 755.142 181.539 751.384 174.854 C 744.332 162.306,729.795 157.296,717.307 163.110 M172.759 174.078 C 166.111 176.469,159.196 181.998,156.425 187.139 C 154.219 191.233,142.927 229.944,136.874 254.167 C 103.089 389.370,98.775 574.793,125.999 721.667 C 134.442 767.214,150.447 822.258,158.563 833.656 C 170.088 849.841,195.605 847.845,204.583 830.057 C 209.593 820.131,209.355 816.555,202.412 797.374 C 173.107 716.416,158.158 577.118,165.045 449.167 C 169.520 366.027,181.520 293.229,201.976 225.130 C 209.565 199.863,209.658 193.403,202.564 184.103 C 194.962 174.135,183.408 170.250,172.759 174.078 " stroke="none" fill-rule="evenodd" fill="#000000"></path></svg>