<svg width="1000" height="1000" viewBox="0 0 1000 1000" version="1.1" id="svg5" sodipodi:docname="と.svg" inkscape:version="1.3 (0e150ed6c4, 2023-07-21)" xmlns:inkscape="http://www.inkscape.org/namespaces/inkscape" xmlns:sodipodi="http://sodipodi.sourceforge.net/DTD/sodipodi-0.dtd" xmlns="http://www.w3.org/2000/svg" xmlns:svg="http://www.w3.org/2000/svg"><path d="M463.345 104.322 C 460.143 105.710,456.018 108.268,454.179 110.005 C 452.339 111.743,438.467 137.953,423.354 168.249 L 395.874 223.333 313.019 223.333 C 261.245 223.333,227.091 223.992,221.973 225.090 C 213.292 226.952,204.209 234.146,201.481 241.321 C 199.153 247.445,199.742 258.120,202.760 264.480 C 204.279 267.680,208.535 272.293,212.219 274.732 L 218.918 279.167 292.792 279.664 C 333.423 279.937,366.667 280.382,366.667 280.651 C 366.667 280.921,330.967 353.072,287.334 440.988 C 210.123 596.557,208.021 601.048,208.768 608.874 C 211.012 632.409,241.951 642.496,256.227 624.347 C 257.981 622.118,297.568 543.728,344.200 450.147 L 428.984 280.000 526.575 279.991 C 592.660 279.984,626.319 279.387,630.833 278.140 C 640.412 275.494,649.478 265.449,650.911 255.897 C 651.823 249.815,651.285 246.868,648.103 240.523 C 643.537 231.417,638.204 227.055,629.038 224.929 C 625.442 224.095,585.563 223.395,540.417 223.373 C 495.271 223.351,458.333 223.059,458.333 222.725 C 458.333 222.390,467.708 203.011,479.167 179.660 C 497.413 142.475,500.000 136.166,500.000 128.852 C 500.000 118.103,493.440 108.405,483.469 104.416 C 475.085 101.061,470.910 101.041,463.345 104.322 M515.620 373.974 C 504.454 379.030,496.973 393.768,485.910 432.500 C 472.131 480.737,466.056 536.312,469.972 578.305 C 474.352 625.286,484.777 665.121,501.398 698.383 C 511.813 719.228,536.612 720.986,549.544 701.797 C 555.010 693.685,554.499 684.300,547.693 667.822 C 531.797 629.340,526.670 604.241,525.498 559.167 C 524.712 528.992,525.076 520.800,528.133 499.743 C 532.191 471.790,537.563 449.721,546.123 425.833 C 556.130 397.912,555.311 387.159,542.431 377.335 C 535.353 371.936,523.422 370.440,515.620 373.974 M763.333 373.444 C 758.548 375.450,750.615 382.617,747.773 387.500 C 746.365 389.921,745.563 427.573,744.846 525.000 C 744.002 639.732,743.474 660.736,741.205 670.000 C 729.492 717.810,705.594 763.635,674.689 797.540 C 654.959 819.186,644.464 827.779,615.703 845.833 C 605.199 852.427,601.371 857.986,600.404 868.049 C 599.770 874.642,600.404 877.765,603.490 883.256 C 611.638 897.754,626.811 901.351,643.333 892.701 C 713.293 856.078,774.969 769.974,795.250 680.615 C 798.924 664.430,798.993 661.976,799.563 527.436 L 800.144 390.706 796.322 385.090 C 794.220 382.001,790.493 377.987,788.041 376.171 C 782.876 372.345,769.479 370.867,763.333 373.444 " stroke="none" fill-rule="evenodd" fill="black"></path></svg>