<svg width="1000" height="1000" viewBox="0 0 1000 1000" version="1.1" id="svg5" sodipodi:docname="ど.svg" inkscape:version="1.3 (0e150ed6c4, 2023-07-21)" xmlns:inkscape="http://www.inkscape.org/namespaces/inkscape" xmlns:sodipodi="http://sodipodi.sourceforge.net/DTD/sodipodi-0.dtd" xmlns="http://www.w3.org/2000/svg" xmlns:svg="http://www.w3.org/2000/svg"><path d="M402.104 104.946 C 392.998 109.080,391.388 111.740,360.856 173.120 L 335.878 223.333 252.522 223.373 C 206.677 223.395,166.225 224.095,162.629 224.929 C 149.971 227.865,141.566 237.186,140.508 249.459 C 139.655 259.362,143.223 266.843,152.236 274.048 L 158.639 279.167 233.439 279.663 L 308.240 280.159 229.232 438.221 C 185.777 525.155,149.708 599.026,149.079 602.380 C 146.353 616.910,157.930 631.477,173.384 632.962 C 183.392 633.923,190.131 631.376,196.258 624.316 C 198.774 621.416,238.708 542.784,285.000 449.578 L 369.167 280.113 465.833 280.038 C 519.000 279.997,565.420 279.481,568.989 278.892 C 577.826 277.432,589.276 266.456,590.871 257.917 C 593.275 245.042,587.687 233.394,576.051 227.023 C 571.348 224.449,562.323 224.119,484.583 223.680 C 437.146 223.412,398.333 222.844,398.333 222.417 C 398.333 221.990,407.652 203.015,419.042 180.249 C 430.432 157.484,440.242 136.236,440.844 133.031 C 442.019 126.765,438.771 116.802,433.686 111.076 C 430.008 106.933,418.686 101.740,413.333 101.740 C 411.042 101.740,405.989 103.183,402.104 104.946 M710.632 200.728 C 703.623 203.778,696.561 213.424,695.490 221.410 C 693.632 235.262,695.075 237.106,754.759 297.112 C 785.546 328.065,813.516 355.316,816.913 357.671 C 825.792 363.824,834.666 364.599,844.076 360.044 C 856.977 353.799,863.166 338.732,858.256 325.525 C 855.935 319.283,740.693 203.664,733.804 200.667 C 727.094 197.747,717.421 197.773,710.632 200.728 M455.751 374.011 C 448.134 377.329,442.612 384.962,436.711 400.333 C 425.486 429.573,415.753 471.466,411.557 508.610 C 408.994 531.288,410.394 590.569,413.940 609.563 C 420.251 643.362,435.043 688.818,444.111 702.274 C 458.460 723.566,489.608 716.883,494.188 691.529 C 495.050 686.756,493.757 681.742,487.743 666.529 C 472.156 627.101,466.901 602.122,465.505 560.833 C 463.846 511.791,471.877 464.153,490.163 414.559 C 496.177 398.246,495.650 391.088,487.773 382.117 C 479.088 372.224,466.922 369.145,455.751 374.011 M703.334 373.539 C 701.043 374.453,697.409 376.843,695.259 378.850 C 686.091 387.410,686.466 381.960,685.624 518.921 C 684.760 659.385,684.416 664.639,674.017 696.399 C 659.251 741.495,627.865 789.747,594.663 818.394 C 583.805 827.763,576.199 833.127,553.603 847.356 C 539.553 856.203,536.223 873.952,546.269 886.447 C 557.159 899.991,569.468 900.990,588.942 889.910 C 626.719 868.416,666.987 827.793,692.992 784.941 C 720.382 739.807,735.856 694.476,739.907 647.500 C 742.151 621.483,742.238 399.622,740.007 391.593 C 738.145 384.891,729.786 376.066,722.808 373.436 C 717.070 371.272,708.910 371.316,703.334 373.539 " stroke="none" fill-rule="evenodd" fill="black"></path></svg>