<svg width="1000" height="1000" viewBox="0 0 1000 1000" version="1.1" id="svg5" xmlns="http://www.w3.org/2000/svg" xmlns:svg="http://www.w3.org/2000/svg"><path d="M301.667 78.496 C 298.458 80.377,294.645 83.547,293.192 85.541 C 291.740 87.535,258.609 139.877,219.568 201.857 C 180.526 263.837,146.090 318.086,143.042 322.410 C 132.348 337.580,136.774 357.293,152.610 365.025 C 162.796 369.999,169.423 369.265,183.483 361.606 C 211.640 346.270,279.309 313.223,304.167 302.669 C 384.543 268.544,456.352 253.036,556.545 248.166 C 625.330 244.822,668.183 251.185,705.000 270.210 C 751.709 294.346,783.335 337.850,796.930 396.667 C 801.244 415.334,802.942 462.310,800.079 483.806 C 787.818 575.857,736.218 654.129,663.730 690.634 C 639.295 702.939,611.272 710.952,586.329 712.766 L 571.825 713.821 575.109 703.161 C 577.910 694.068,580.847 681.464,585.748 657.500 C 587.397 649.438,591.504 511.507,591.555 462.500 C 591.619 400.180,587.581 373.308,573.996 345.663 C 558.659 314.452,530.367 298.068,500.723 303.230 C 472.963 308.064,444.796 327.944,416.745 362.500 C 363.749 427.788,330.435 529.306,338.263 601.667 C 346.587 678.609,389.326 732.056,460.882 755.006 C 470.022 757.938,478.438 760.612,479.583 760.949 C 483.456 762.088,481.704 764.704,467.917 778.362 C 424.157 821.714,362.687 844.421,279.021 848.142 C 244.709 849.668,238.406 851.699,231.863 863.340 C 222.467 880.058,232.498 900.728,251.667 904.151 C 259.252 905.505,308.810 902.341,330.546 899.115 C 419.333 885.937,490.020 846.208,535.117 784.138 L 545.389 770.000 560.611 769.948 C 639.564 769.678,710.134 739.385,765.261 682.098 C 845.312 598.911,877.393 469.889,844.728 362.500 C 825.571 299.522,784.630 249.594,728.905 221.253 C 678.204 195.467,628.793 188.146,540.833 193.387 C 437.387 199.551,358.221 218.331,269.496 257.753 C 255.927 263.782,244.494 268.383,244.089 267.978 C 243.683 267.572,264.839 233.174,291.100 191.537 C 317.362 149.900,339.884 113.356,341.150 110.329 C 343.899 103.753,342.682 94.856,337.963 87.032 C 331.208 75.833,313.367 71.637,301.667 78.496 M520.634 363.400 C 526.654 370.555,532.808 391.478,535.135 412.710 C 537.162 431.199,536.577 492.168,533.347 599.167 C 531.661 655.038,528.216 675.812,515.620 706.067 L 513.442 711.300 501.352 708.996 C 469.036 702.839,446.308 691.516,426.612 671.763 C 411.254 656.359,405.270 646.191,398.072 623.271 C 394.504 611.908,394.174 607.954,394.255 577.500 C 394.353 540.145,396.092 529.699,408.307 493.062 C 427.536 435.392,464.292 381.165,496.714 362.633 C 507.187 356.647,515.167 356.903,520.634 363.400 " stroke="none" fill-rule="evenodd" fill="black"></path></svg>