<svg width="1000" height="1000" viewBox="0 0 1000 1000" version="1.1" id="svg5" sodipodi:docname="に.svg" inkscape:version="1.3 (0e150ed6c4, 2023-07-21)" xmlns:inkscape="http://www.inkscape.org/namespaces/inkscape" xmlns:sodipodi="http://sodipodi.sourceforge.net/DTD/sodipodi-0.dtd" xmlns="http://www.w3.org/2000/svg" xmlns:svg="http://www.w3.org/2000/svg"><path d="M355.802 103.989 C 353.035 105.195,348.535 108.736,345.802 111.859 C 341.999 116.204,279.553 201.537,223.750 278.645 C 212.341 294.409,228.136 318.333,249.952 318.333 C 253.824 318.333,260.228 316.177,266.952 312.609 C 281.918 304.667,319.812 287.977,346.667 277.499 C 423.600 247.484,486.555 236.012,575.000 235.893 C 622.748 235.829,634.887 237.314,658.333 246.088 C 709.059 265.070,738.333 308.875,738.333 365.796 C 738.333 447.588,676.906 520.545,595.944 534.912 C 579.281 537.869,580.167 538.795,583.673 522.083 C 587.562 503.553,592.195 372.139,589.923 344.823 C 586.457 303.137,571.580 275.632,546.204 263.989 C 537.065 259.796,533.953 259.238,520.000 259.290 C 502.306 259.357,491.218 262.528,475.342 272.064 C 431.571 298.354,391.716 359.282,379.115 419.167 C 375.068 438.400,375.400 470.294,379.822 487.145 C 386.230 511.562,399.966 533.261,419.946 550.529 C 432.522 561.399,461.864 575.648,482.383 580.849 C 491.485 583.156,499.215 585.326,499.561 585.672 C 500.342 586.453,488.305 606.321,480.277 617.500 C 459.438 646.519,421.110 679.617,391.667 694.020 C 378.718 700.354,382.787 698.250,235.833 774.590 C 162.500 812.686,100.371 845.800,97.768 848.177 C 91.211 854.167,88.333 860.314,88.333 868.333 C 88.333 884.927,104.783 898.620,120.467 895.083 C 123.564 894.384,183.298 864.080,253.208 827.740 C 323.119 791.399,380.942 761.667,381.704 761.667 C 382.467 761.667,405.395 790.231,432.655 825.143 C 459.916 860.055,483.879 889.706,485.906 891.034 C 492.595 895.417,500.064 896.699,507.707 894.774 C 515.316 892.858,518.461 890.057,534.291 871.089 C 554.159 847.285,591.722 818.431,620.093 805.181 C 649.079 791.644,674.450 785.354,705.833 783.925 C 724.282 783.084,729.628 783.449,741.828 786.377 C 758.473 790.372,770.667 795.476,784.378 804.187 C 809.700 820.274,833.607 844.519,854.695 875.499 C 867.131 893.769,873.047 898.333,884.290 898.333 C 892.104 898.333,902.168 892.982,906.943 886.288 C 909.981 882.029,910.833 878.642,910.833 870.833 C 910.833 861.679,910.144 859.777,902.683 848.333 C 870.832 799.483,825.664 759.123,783.293 741.650 C 758.721 731.517,745.341 729.164,712.500 729.197 C 688.083 729.222,679.017 729.928,663.787 732.990 C 609.815 743.843,557.261 771.692,515.894 811.363 C 508.899 818.070,502.531 823.320,501.743 823.029 C 500.338 822.510,431.667 735.328,431.667 734.063 C 431.667 733.709,438.604 728.773,447.083 723.095 C 489.787 694.497,522.175 660.911,546.076 620.441 C 551.075 611.975,556.664 601.662,558.494 597.524 C 560.708 592.520,562.854 590.000,564.901 590.000 C 566.595 590.000,575.747 589.218,585.240 588.262 C 643.225 582.423,692.316 559.560,731.668 520.065 C 764.944 486.669,784.395 450.436,794.446 403.125 C 798.859 382.357,798.459 344.018,793.627 324.433 C 773.848 244.276,713.382 195.833,619.489 184.919 C 599.576 182.605,539.955 183.532,506.667 186.674 C 455.081 191.543,400.305 203.083,355.778 218.465 C 342.341 223.106,331.110 226.663,330.819 226.368 C 330.529 226.074,342.261 209.333,356.892 189.167 C 394.573 137.227,393.333 139.270,393.333 129.127 C 393.333 109.837,373.251 96.386,355.802 103.989 M524.508 318.333 C 531.438 332.476,532.328 349.417,530.111 425.000 C 528.254 488.297,526.281 513.599,521.988 529.167 C 520.184 535.706,516.701 536.096,499.627 531.670 C 448.835 518.504,427.299 482.633,437.596 428.351 C 442.263 403.750,451.412 382.127,467.929 356.667 C 482.747 333.824,509.616 309.198,518.333 310.469 C 519.708 310.669,522.487 314.208,524.508 318.333 " stroke="none" fill-rule="evenodd" fill="black"></path></svg>