<svg width="1000" height="1000" viewBox="0 0 1000 1000" version="1.1" id="svg5" xmlns="http://www.w3.org/2000/svg" xmlns:svg="http://www.w3.org/2000/svg"><path d="M299.983 93.750 C 291.729 99.368,287.957 105.492,287.071 114.716 C 286.114 124.677,291.042 134.979,299.167 140.000 C 304.777 143.467,681.158 225.316,691.898 225.405 C 700.580 225.476,711.536 218.829,715.538 211.062 C 722.386 197.771,717.067 179.905,704.523 174.059 C 697.082 170.591,321.302 90.000,312.574 90.000 C 307.974 90.000,303.562 91.314,299.983 93.750 M309.813 228.617 C 306.502 229.500,301.175 232.985,297.975 236.361 C 294.776 239.738,261.179 282.625,223.315 331.667 C 185.451 380.708,151.582 424.013,148.050 427.900 C 134.716 442.574,133.696 452.316,144.209 464.598 C 151.124 472.676,162.365 477.592,170.386 476.045 C 173.382 475.467,182.583 471.650,190.833 467.562 C 199.083 463.474,223.658 452.950,245.443 444.176 C 358.886 398.487,434.751 381.904,554.675 376.583 C 617.816 373.781,655.603 377.093,690.461 388.484 C 719.184 397.870,741.078 411.268,760.102 431.100 C 778.688 450.475,787.550 466.029,796.033 494.167 C 800.154 507.833,800.559 511.613,800.592 536.667 C 800.632 566.120,797.889 582.477,788.907 606.356 C 759.044 685.748,680.845 742.612,592.153 749.429 L 578.075 750.512 580.745 744.120 C 582.214 740.604,585.306 730.552,587.617 721.781 C 592.557 703.024,593.990 682.694,596.671 593.333 C 598.635 527.901,597.660 505.935,591.774 482.920 C 576.348 422.603,524.286 399.520,467.500 427.819 C 432.754 445.135,397.043 481.570,371.771 525.488 C 340.962 579.030,329.391 639.547,341.644 683.049 C 357.013 737.609,401.454 774.397,472.967 791.757 C 476.890 792.710,479.712 794.117,479.237 794.886 C 477.233 798.128,453.027 815.499,440.768 822.492 C 414.264 837.610,374.625 850.030,334.167 855.892 C 324.083 857.353,300.733 859.145,282.277 859.876 C 251.349 861.099,248.162 861.515,241.591 865.185 C 231.883 870.607,227.499 876.940,227.503 885.539 C 227.506 894.477,232.733 901.939,242.205 906.524 C 259.256 914.778,339.760 908.606,393.998 894.885 C 430.921 885.545,465.613 870.431,495.000 850.883 C 511.519 839.895,535.720 818.346,543.972 807.278 L 548.777 800.833 569.805 800.428 C 633.113 799.207,689.546 783.169,737.500 752.771 C 803.585 710.879,847.339 646.878,860.172 573.333 C 863.469 554.439,863.087 515.448,859.438 498.390 C 851.110 459.463,835.465 429.287,809.541 402.152 C 778.900 370.081,740.838 348.805,692.068 336.488 C 659.080 328.157,637.680 326.046,588.333 326.255 C 466.915 326.769,362.140 344.804,262.917 382.269 C 256.729 384.606,251.667 386.134,251.667 385.665 C 251.667 385.197,270.927 359.918,294.468 329.490 C 318.009 299.062,338.615 272.403,340.258 270.248 C 350.146 257.278,343.845 237.193,327.569 229.799 C 320.093 226.403,318.508 226.298,309.813 228.617 M520.170 468.503 C 525.148 473.481,531.075 487.349,533.633 500.000 C 536.265 513.022,536.243 561.282,533.568 640.882 C 531.595 699.614,530.390 708.327,520.787 733.333 C 514.432 749.881,515.901 749.016,499.400 745.924 C 456.954 737.971,424.111 719.100,411.096 695.187 C 395.015 665.641,394.135 628.157,408.557 587.042 C 426.998 534.473,471.202 479.267,504.295 467.476 C 513.310 464.264,516.112 464.445,520.170 468.503 " stroke="none" fill-rule="evenodd" fill="black"></path></svg>