<svg width="1000" height="1000" viewBox="0 0 1000 1000" version="1.1" id="svg5" xmlns="http://www.w3.org/2000/svg" xmlns:svg="http://www.w3.org/2000/svg"><path d="M435.833 112.423 C 432.167 113.735,427.346 117.026,425.122 119.735 C 422.897 122.445,395.313 170.676,363.824 226.915 C 332.335 283.153,304.036 333.293,300.939 338.337 C 293.499 350.448,292.145 358.074,295.754 367.524 C 299.113 376.321,306.041 382.587,315.102 385.027 C 324.134 387.460,329.610 385.661,349.452 373.744 C 470.362 301.123,542.127 278.121,655.833 275.545 C 690.669 274.756,699.924 275.059,712.287 277.393 C 743.272 283.242,765.486 294.222,786.267 313.962 C 818.044 344.147,836.216 388.853,839.331 444.508 C 844.205 531.587,806.255 622.359,745.569 668.776 C 732.306 678.921,709.168 690.449,693.333 694.802 C 678.621 698.847,661.659 701.086,661.685 698.979 C 661.695 698.166,662.834 693.770,664.217 689.211 C 671.286 665.906,673.560 643.659,675.039 583.333 C 678.352 448.215,677.021 408.570,668.183 379.225 C 651.571 324.069,611.261 306.214,566.979 334.398 C 534.139 355.298,497.568 410.966,477.737 470.240 C 449.432 554.841,452.255 628.712,485.853 682.618 C 503.006 710.139,534.907 734.494,566.834 744.444 C 572.226 746.125,576.645 747.989,576.652 748.586 C 576.660 749.183,572.729 754.336,567.917 760.038 C 548.808 782.678,517.487 802.676,484.889 813.050 C 463.651 819.810,442.883 823.248,413.376 824.891 C 386.835 826.369,381.810 827.887,374.432 836.656 C 365.731 846.995,366.581 861.973,376.426 871.818 C 385.379 880.771,391.329 881.871,420.282 879.927 C 458.482 877.362,488.084 871.301,516.942 860.134 C 564.239 841.832,606.273 807.152,632.463 764.824 L 637.212 757.148 656.523 756.152 C 679.864 754.948,696.228 751.932,716.923 745.019 C 824.177 709.193,899.526 582.572,894.465 446.667 C 890.004 326.885,826.296 243.785,723.002 223.012 C 706.522 219.698,699.582 219.253,667.500 219.451 C 570.075 220.056,485.456 239.485,406.118 279.467 C 401.691 281.698,397.510 283.293,396.826 283.012 C 396.141 282.730,412.641 252.125,433.490 215.000 C 454.340 177.875,471.836 145.336,472.370 142.691 C 473.615 136.519,470.951 126.659,466.514 121.018 C 459.541 112.153,446.667 108.546,435.833 112.423 M172.759 174.078 C 166.111 176.469,159.196 181.998,156.425 187.139 C 154.219 191.233,142.927 229.944,136.874 254.167 C 103.089 389.370,98.775 574.793,125.999 721.667 C 134.442 767.214,150.447 822.258,158.563 833.656 C 170.088 849.841,195.605 847.845,204.583 830.057 C 209.593 820.131,209.355 816.555,202.412 797.374 C 173.107 716.416,158.158 577.118,165.045 449.167 C 169.520 366.027,181.520 293.229,201.976 225.130 C 209.565 199.863,209.658 193.403,202.564 184.103 C 194.962 174.135,183.408 170.250,172.759 174.078 M611.633 384.468 C 618.078 398.178,620.236 412.439,621.174 447.500 C 622.500 497.127,618.831 634.030,615.679 652.500 C 613.036 667.990,606.163 694.392,604.287 696.269 C 602.585 697.970,581.850 691.850,570.882 686.410 C 543.232 672.695,526.935 651.939,518.086 619.167 C 513.334 601.571,512.918 560.503,517.249 536.667 C 529.005 471.965,562.621 405.402,595.667 381.390 C 604.757 374.785,607.313 375.278,611.633 384.468 " stroke="none" fill-rule="evenodd" fill="black"></path></svg>