<svg width="1000" height="1000" viewBox="0 0 1000 1000" version="1.1" id="svg5" xmlns="http://www.w3.org/2000/svg" xmlns:svg="http://www.w3.org/2000/svg"><path d="M408.980 87.388 C 406.127 88.630,402.118 91.413,400.070 93.573 C 398.022 95.733,384.041 122.063,369.002 152.083 L 341.657 206.667 255.412 206.703 C 175.060 206.737,168.702 206.951,162.369 209.827 C 140.951 219.555,140.267 248.967,161.217 259.378 C 166.984 262.244,173.484 262.568,240.388 263.333 L 313.277 264.167 234.138 423.148 C 163.412 565.230,155.000 582.964,155.000 589.985 C 155.000 604.206,165.564 615.122,180.348 616.177 C 187.275 616.671,190.596 615.987,195.833 612.986 C 202.297 609.283,205.119 603.912,288.688 436.250 L 374.876 263.333 470.689 263.333 C 533.888 263.333,569.403 262.711,575.023 261.506 C 601.671 255.791,605.666 221.046,580.964 209.827 C 574.634 206.952,568.296 206.737,488.773 206.703 L 403.380 206.667 425.023 163.223 C 442.493 128.157,446.661 118.435,446.639 112.806 C 446.564 93.688,426.155 79.912,408.980 87.388 M458.333 335.163 C 455.125 337.043,451.299 340.214,449.832 342.208 C 448.364 344.202,423.280 379.208,394.090 420.000 C 364.900 460.792,338.550 497.101,335.533 500.688 C 319.991 519.169,332.036 544.930,356.504 545.539 C 362.799 545.696,368.184 543.755,386.667 534.666 C 484.571 486.521,559.852 467.353,664.274 463.982 C 714.494 462.361,741.007 466.679,770.000 481.203 C 800.072 496.266,821.522 523.498,830.044 557.432 C 836.318 582.416,834.203 619.033,824.923 646.088 C 804.186 706.539,750.333 751.564,688.773 759.918 C 683.948 760.573,680.000 760.532,680.000 759.827 C 680.000 759.121,681.553 752.309,683.451 744.689 C 686.393 732.877,687.273 720.385,689.423 660.000 C 692.617 570.258,690.934 548.978,678.616 523.333 C 672.120 509.807,656.516 494.759,644.167 490.110 C 630.627 485.013,613.865 485.006,598.050 490.091 C 536.616 509.845,476.518 609.967,480.556 685.833 C 481.680 706.963,484.740 718.534,494.420 738.261 C 508.124 766.189,534.171 787.870,568.975 800.320 L 583.861 805.645 577.431 811.204 C 564.291 822.562,536.813 835.932,513.333 842.392 C 496.255 847.091,474.266 850.139,446.156 851.705 C 415.722 853.401,409.743 855.029,402.547 863.581 C 397.915 869.086,395.765 877.849,397.425 884.460 C 399.152 891.341,409.903 901.063,418.279 903.319 C 425.948 905.384,450.988 904.615,478.333 901.474 C 526.386 895.956,569.569 881.289,604.167 858.736 C 610.583 854.553,624.290 842.627,634.627 832.232 L 653.421 813.333 667.555 813.333 C 675.328 813.333,689.015 812.233,697.969 810.888 C 763.737 801.010,819.042 766.242,856.426 711.274 C 870.814 690.117,885.385 653.621,890.205 626.667 C 893.303 609.339,892.918 568.981,889.512 554.012 C 871.070 472.958,810.284 423.431,716.741 413.239 C 681.647 409.416,607.322 413.386,557.500 421.746 C 521.953 427.710,478.809 439.122,450.288 450.105 C 442.416 453.136,438.341 454.049,438.873 452.663 C 439.328 451.478,452.282 432.956,467.658 411.504 C 483.035 390.052,496.603 369.674,497.810 366.221 C 501.925 354.444,495.545 340.572,482.999 334.018 C 476.506 330.626,465.176 331.152,458.333 335.163 M625.495 545.569 C 631.644 558.657,632.356 573.678,630.447 650.107 C 628.590 724.508,627.867 731.895,620.556 751.250 C 617.429 759.529,615.981 759.808,599.946 755.223 C 572.527 747.382,552.721 731.891,545.255 712.447 C 536.307 689.146,537.749 658.728,549.333 626.461 C 561.298 593.132,585.382 558.953,607.500 543.915 C 617.824 536.895,621.582 537.241,625.495 545.569 " stroke="none" fill-rule="evenodd" fill="black"></path></svg>