<svg width="1000" height="1000" viewBox="0 0 1000 1000" version="1.1" id="svg5" xmlns="http://www.w3.org/2000/svg" xmlns:svg="http://www.w3.org/2000/svg"><path d="M503.582 87.827 C 494.716 92.196,489.672 101.376,488.880 114.585 C 488.187 126.154,480.000 515.038,480.000 536.408 C 480.000 547.886,479.850 548.333,475.999 548.333 C 469.640 548.333,434.596 554.535,409.167 560.161 C 317.558 580.427,240.105 614.233,192.116 654.896 C 161.246 681.053,145.005 713.154,150.068 738.003 C 157.619 775.061,193.692 797.523,260.833 806.974 C 280.894 809.798,350.596 809.844,365.371 807.042 C 439.329 793.021,490.334 748.340,517.101 674.124 C 522.588 658.909,529.213 631.149,531.672 613.072 C 533.375 600.547,534.109 598.516,537.233 597.678 C 544.703 595.674,631.061 596.726,653.357 599.093 C 711.976 605.315,752.195 620.793,775.650 646.156 C 789.154 660.760,796.102 681.241,794.300 701.131 C 790.908 738.560,768.857 769.262,724.167 798.777 C 688.117 822.586,629.753 846.086,576.161 858.373 C 557.898 862.560,550.958 866.434,546.419 874.974 C 537.001 892.697,550.061 915.000,569.857 915.000 C 579.029 915.000,615.307 906.054,640.678 897.535 C 747.990 861.504,815.194 810.801,839.585 747.465 C 873.318 659.870,823.451 581.421,716.691 554.134 C 678.396 544.346,645.673 541.193,582.781 541.229 L 534.730 541.257 535.783 504.378 C 537.597 440.910,543.333 155.879,543.333 129.226 C 543.333 105.567,543.074 103.441,539.544 98.203 C 531.142 85.735,516.438 81.493,503.582 87.827 M658.283 173.750 C 648.303 178.792,643.333 186.528,643.333 197.023 C 643.333 201.531,644.162 206.857,645.175 208.860 C 647.796 214.041,763.241 329.726,768.667 332.609 C 779.386 338.303,795.700 333.907,802.613 323.462 C 808.277 314.902,809.275 307.947,806.050 299.503 C 802.008 288.917,685.019 172.590,676.875 171.058 C 668.227 169.431,666.272 169.714,658.283 173.750 M474.241 622.156 C 459.627 696.252,422.540 738.090,359.167 751.976 C 343.986 755.302,283.983 754.679,260.833 750.955 C 228.689 745.784,206.492 736.934,205.318 728.821 C 204.437 722.735,210.901 712.792,223.410 700.992 C 266.602 660.247,353.273 625.162,454.167 607.579 C 472.256 604.427,475.925 604.189,476.386 606.141 C 476.690 607.427,475.725 614.634,474.241 622.156 " stroke="none" fill-rule="evenodd" fill="black"></path></svg>