<svg width="1000" height="1000" viewBox="0 0 1000 1000" version="1.1" id="svg5" sodipodi:docname="ぴ.svg" inkscape:version="1.3 (0e150ed6c4, 2023-07-21)" xmlns:inkscape="http://www.inkscape.org/namespaces/inkscape" xmlns:sodipodi="http://sodipodi.sourceforge.net/DTD/sodipodi-0.dtd" xmlns="http://www.w3.org/2000/svg" xmlns:svg="http://www.w3.org/2000/svg"><path d="M490.702 124.749 C 482.607 128.519,477.233 134.880,475.170 143.134 C 474.341 146.452,472.019 205.042,470.011 273.333 C 468.002 341.625,466.099 397.767,465.781 398.093 C 465.463 398.419,455.970 399.744,444.685 401.039 C 378.901 408.584,308.915 424.273,266.341 441.019 C 208.400 463.810,180.033 488.673,180.033 516.667 C 180.033 541.034,198.775 558.167,235.606 567.466 C 262.078 574.149,279.704 575.741,327.500 575.766 C 368.095 575.788,374.172 575.422,389.584 572.030 C 423.116 564.650,451.066 551.456,472.250 533.006 C 491.173 516.526,509.074 487.077,515.868 461.250 L 518.828 450.000 563.997 450.006 C 639.961 450.015,684.820 456.432,714.829 471.580 C 750.348 489.510,747.270 508.956,704.408 537.404 C 661.999 565.553,539.692 628.012,420.000 682.646 C 401.208 691.223,382.083 700.181,377.500 702.552 C 268.656 758.856,104.520 844.600,100.505 847.254 C 97.575 849.191,93.638 853.516,91.755 856.865 C 81.635 874.872,94.933 896.944,115.902 896.944 C 122.131 896.944,140.385 887.955,251.565 830.139 C 322.222 793.396,380.731 763.333,381.585 763.333 C 382.440 763.333,405.715 792.206,433.307 827.494 C 465.385 868.519,485.319 892.608,488.590 894.299 C 495.095 897.663,506.512 897.694,512.948 894.366 C 515.691 892.948,524.042 884.647,531.506 875.921 C 564.611 837.217,610.128 806.529,652.886 794.083 C 681.491 785.757,715.823 782.813,737.611 786.818 C 779.770 794.568,826.722 832.109,859.766 884.490 C 868.778 898.774,883.176 903.549,896.593 896.704 C 905.539 892.140,910.460 884.634,911.267 874.319 C 912.045 864.374,909.736 859.438,893.802 836.988 C 857.075 785.243,808.045 748.299,757.916 734.598 C 745.899 731.313,740.177 730.839,712.500 730.837 C 678.804 730.833,668.014 732.312,637.699 741.089 C 596.625 752.982,554.198 777.817,516.459 812.061 C 509.120 818.719,502.505 824.167,501.758 824.167 C 500.253 824.167,432.764 738.330,433.626 737.512 C 433.924 737.231,452.917 728.244,475.833 717.541 C 584.253 666.909,697.344 608.200,735.833 582.567 C 769.202 560.344,787.917 536.922,793.397 510.527 C 798.912 483.960,786.058 453.998,761.252 435.603 C 722.322 406.734,665.337 394.693,566.957 394.549 L 521.413 394.483 522.429 370.991 C 523.680 342.037,528.183 191.902,528.664 163.097 C 529.004 142.715,528.869 141.806,524.515 135.227 C 516.716 123.443,502.780 119.124,490.702 124.749 M460.000 455.881 C 460.000 456.365,457.649 461.419,454.776 467.111 C 448.179 480.178,430.851 497.524,417.500 504.424 C 390.975 518.131,364.047 522.550,315.833 521.107 C 283.468 520.138,249.055 516.288,245.994 513.295 C 243.462 510.818,280.569 493.825,307.672 485.049 C 336.222 475.806,375.406 466.951,414.500 460.911 C 449.959 455.432,460.000 454.322,460.000 455.881 " stroke="none" fill-rule="evenodd" fill="black"></path></svg>