<svg width="1000" height="1000" viewBox="0 0 1000 1000" version="1.1" id="svg5" xmlns="http://www.w3.org/2000/svg" xmlns:svg="http://www.w3.org/2000/svg"><path d="M265.384 108.754 C 258.101 111.089,248.797 121.668,247.379 129.228 C 245.199 140.844,251.715 153.982,262.038 158.786 C 265.042 160.184,353.830 179.883,459.345 202.561 C 612.913 235.567,652.473 243.553,657.624 242.587 C 667.186 240.793,677.672 229.713,679.153 219.839 C 681.260 205.785,672.606 193.445,657.662 189.196 C 645.125 185.631,276.689 106.637,273.529 106.837 C 272.046 106.930,268.381 107.793,265.384 108.754 M466.828 248.371 C 459.314 253.083,455.407 257.912,453.373 265.000 C 452.453 268.208,449.735 344.333,447.334 434.167 C 444.841 527.449,442.306 597.916,441.423 598.469 C 440.573 599.002,431.468 600.385,421.189 601.542 C 357.335 608.729,281.115 626.163,230.226 645.223 C 185.194 662.088,151.811 681.441,132.575 701.832 C 113.021 722.561,107.997 742.211,117.144 762.190 C 130.888 792.212,172.081 807.317,251.993 811.639 C 326.575 815.673,377.284 805.185,419.983 776.895 C 431.807 769.062,450.096 751.788,459.484 739.587 C 474.875 719.585,489.439 686.387,493.685 661.624 L 495.592 650.503 529.046 649.427 C 567.157 648.202,618.491 650.334,646.667 654.313 C 719.453 664.591,762.307 691.024,757.556 722.710 C 752.688 755.167,712.241 785.832,642.500 809.940 C 613.285 820.038,568.443 831.718,542.764 835.917 C 523.075 839.137,516.753 842.193,510.456 851.536 C 507.720 855.596,506.667 859.571,506.667 865.833 C 506.667 877.079,511.488 884.503,522.261 889.845 C 530.066 893.715,530.830 893.783,543.926 891.790 C 576.888 886.774,637.637 870.901,669.953 858.861 C 736.690 833.998,780.994 802.171,800.714 764.925 C 831.024 707.678,804.783 649.944,734.981 620.304 C 690.928 601.599,640.990 594.429,553.633 594.269 L 498.100 594.167 499.138 566.667 C 500.868 520.886,506.656 302.132,506.661 282.330 C 506.667 262.133,504.778 256.963,494.652 249.463 C 487.839 244.416,474.001 243.873,466.828 248.371 M738.704 341.102 C 726.509 347.112,720.018 360.992,723.436 373.750 C 725.083 379.898,732.741 388.290,781.417 437.292 C 812.263 468.345,840.834 495.907,844.910 498.542 C 858.063 507.047,874.241 503.761,883.138 490.777 C 887.805 483.965,888.426 471.504,884.468 464.039 C 880.035 455.676,766.593 343.766,759.637 340.893 C 751.761 337.640,745.603 337.701,738.704 341.102 M437.462 660.417 C 435.493 669.802,426.896 689.895,421.373 698.020 C 401.228 727.655,376.614 743.483,336.622 752.523 C 319.807 756.324,262.149 757.730,233.155 755.046 C 209.022 752.812,185.822 748.473,176.007 744.357 C 169.545 741.647,169.529 741.616,172.673 738.114 C 185.500 723.828,233.233 700.822,279.826 686.468 C 320.330 673.990,398.319 658.407,436.382 655.187 C 438.019 655.049,438.301 656.415,437.462 660.417 " stroke="none" fill-rule="evenodd" fill="#000000"></path></svg>