<svg width="1000" height="1000" viewBox="0 0 1000 1000" version="1.1" id="svg5" sodipodi:docname="ぷ.svg" inkscape:version="1.3 (0e150ed6c4, 2023-07-21)" xmlns:inkscape="http://www.inkscape.org/namespaces/inkscape" xmlns:sodipodi="http://sodipodi.sourceforge.net/DTD/sodipodi-0.dtd" xmlns="http://www.w3.org/2000/svg" xmlns:svg="http://www.w3.org/2000/svg"><path d="M300.702 109.827 C 283.173 117.789,278.602 139.452,291.638 152.785 C 294.404 155.614,298.729 158.756,301.250 159.767 C 303.771 160.777,391.708 180.059,496.667 202.616 C 623.931 229.966,689.327 243.332,692.985 242.741 C 719.099 238.518,725.012 203.884,701.640 192.049 C 696.521 189.458,634.193 175.413,503.790 147.466 C 399.083 125.026,312.083 106.683,310.457 106.703 C 308.831 106.723,304.441 108.129,300.702 109.827 M506.668 246.872 C 501.149 249.073,495.291 254.674,492.065 260.833 C 488.925 266.828,489.300 257.941,484.148 448.194 C 481.928 530.159,479.524 597.752,478.806 598.400 C 478.088 599.048,469.250 600.459,459.167 601.536 C 422.384 605.463,367.230 615.745,329.167 625.770 C 237.739 649.849,174.353 684.426,155.396 720.560 C 151.524 727.940,150.877 731.186,150.857 743.333 C 150.836 755.720,151.394 758.454,155.299 765.096 C 172.143 793.748,211.623 807.354,290.361 811.643 C 341.582 814.433,380.280 810.189,414.906 797.986 C 432.471 791.795,438.851 788.617,455.833 777.596 C 492.498 753.804,519.067 714.370,529.245 668.639 C 530.609 662.513,532.071 655.931,532.495 654.013 C 533.233 650.670,534.592 650.480,565.382 649.423 C 670.525 645.812,751.094 661.007,781.446 690.172 C 808.214 715.894,794.182 750.999,745.327 780.533 C 709.568 802.150,643.145 824.639,584.167 835.098 C 559.719 839.433,555.062 841.289,549.135 849.060 C 538.498 863.006,543.381 882.358,559.505 890.164 L 567.390 893.981 589.112 890.302 C 618.454 885.333,658.563 875.087,690.833 864.316 C 796.016 829.208,850.145 779.005,849.957 716.733 C 849.833 675.631,820.336 639.794,769.606 619.111 C 724.535 600.736,652.303 591.589,570.759 593.931 L 535.684 594.938 536.281 574.552 C 540.525 429.735,544.438 269.480,543.811 266.199 C 542.673 260.244,533.686 249.977,527.262 247.293 C 520.936 244.650,512.664 244.481,506.668 246.872 M474.515 660.674 C 471.723 677.882,458.268 701.672,442.398 717.459 C 422.576 737.178,396.809 749.214,363.753 754.197 C 344.525 757.095,296.105 757.447,268.333 754.891 C 236.887 751.996,208.333 745.310,208.333 740.841 C 208.333 736.709,229.028 722.996,252.500 711.574 C 285.139 695.691,319.210 684.272,366.126 673.492 C 392.599 667.409,453.190 657.059,473.135 655.213 C 474.843 655.055,475.199 656.462,474.515 660.674 " stroke="none" fill-rule="evenodd" fill="black"></path></svg>