<svg width="1000" height="1000" viewBox="0 0 1000 1000" version="1.1" id="svg5" xmlns="http://www.w3.org/2000/svg" xmlns:svg="http://www.w3.org/2000/svg"><path d="M404.830 105.417 C 400.062 108.574,394.617 118.193,370.397 166.250 L 341.626 223.333 254.037 223.333 C 192.666 223.333,165.358 223.892,162.807 225.200 C 155.849 228.768,148.259 237.420,146.564 243.716 C 144.221 252.416,146.015 260.117,152.107 267.507 C 161.112 278.432,160.305 278.333,240.780 278.333 C 280.684 278.333,313.333 278.608,313.333 278.943 C 313.333 279.278,277.708 351.147,234.167 438.651 C 148.703 610.404,151.326 604.254,157.760 617.814 C 160.981 624.600,169.978 630.987,178.481 632.523 C 185.109 633.720,195.182 630.326,200.811 624.997 C 202.656 623.250,242.789 544.536,289.994 450.077 L 375.820 278.333 475.464 278.333 C 584.471 278.333,581.984 278.546,590.451 268.484 C 599.575 257.640,599.618 242.539,590.550 232.998 C 581.048 223.001,584.474 223.333,490.916 223.333 C 415.463 223.333,405.000 223.027,405.000 220.821 C 405.000 219.438,414.456 199.408,426.012 176.309 C 445.947 136.465,446.985 133.894,446.245 126.198 C 444.850 111.680,433.796 101.667,419.167 101.667 C 412.961 101.667,408.882 102.734,404.830 105.417 M602.469 377.323 C 595.559 380.333,587.032 390.463,585.864 397.048 C 585.333 400.046,582.858 454.235,580.366 517.466 L 575.833 632.432 561.667 635.136 C 473.715 651.923,400.496 692.347,378.902 736.040 C 373.064 747.853,372.503 750.176,372.532 762.414 C 372.559 773.754,373.269 777.179,377.109 784.515 C 392.613 814.132,432.590 828.336,494.586 826.253 C 522.128 825.328,533.861 822.517,553.934 812.032 C 568.098 804.635,589.059 785.205,598.987 770.270 C 612.784 749.517,624.229 717.765,627.555 691.017 L 628.776 681.200 662.304 682.186 C 711.451 683.631,736.189 690.273,754.177 706.854 C 763.689 715.622,766.659 721.157,768.286 733.149 C 774.505 778.978,725.773 820.415,637.616 844.261 C 610.949 851.474,605.467 881.948,628.508 894.898 C 638.238 900.367,650.318 899.043,678.769 889.392 C 725.376 873.582,759.939 853.723,785.000 828.355 C 831.325 781.462,837.471 719.506,800.198 675.152 C 786.424 658.760,766.198 646.037,740.833 637.809 C 718.054 630.419,701.412 628.065,665.173 627.105 L 631.179 626.204 632.172 606.852 C 632.718 596.208,634.842 544.678,636.891 492.340 L 640.618 397.181 636.166 389.584 C 628.970 377.304,614.551 372.058,602.469 377.323 M570.803 695.417 C 570.182 698.396,567.817 706.458,565.548 713.333 C 555.442 743.947,537.801 762.509,512.567 769.080 C 488.829 775.261,431.656 769.390,428.753 760.473 C 427.735 757.345,442.197 742.866,455.511 733.686 C 469.917 723.753,488.973 714.089,508.772 706.676 C 524.822 700.667,561.912 690.307,568.049 690.119 C 571.563 690.011,571.825 690.513,570.803 695.417 " stroke="none" fill-rule="evenodd" fill="black"></path></svg>