<svg width="1000" height="1000" viewBox="0 0 1000 1000" version="1.1" id="svg5" sodipodi:docname="ま.svg" inkscape:version="1.3 (0e150ed6c4, 2023-07-21)" xmlns:inkscape="http://www.inkscape.org/namespaces/inkscape" xmlns:sodipodi="http://sodipodi.sourceforge.net/DTD/sodipodi-0.dtd" xmlns="http://www.w3.org/2000/svg" xmlns:svg="http://www.w3.org/2000/svg"><path d="M291.716 129.215 C 280.368 134.315,274.710 142.554,274.740 153.936 C 274.753 158.862,292.656 209.258,337.379 330.264 C 371.821 423.450,400.000 500.446,400.000 501.366 C 400.000 502.285,388.188 514.377,373.750 528.235 C 292.877 605.866,240.216 670.503,215.857 722.036 C 181.372 794.993,204.588 847.127,280.833 867.949 L 297.500 872.500 537.322 872.950 L 777.144 873.399 784.429 869.873 C 803.490 860.646,805.213 835.686,787.692 822.603 C 783.107 819.180,782.194 819.163,543.628 818.277 C 323.956 817.461,303.296 817.150,293.627 814.518 C 268.918 807.790,257.020 798.430,255.447 784.482 C 252.413 757.560,283.074 705.466,338.928 642.644 C 358.006 621.186,418.572 559.996,420.712 560.018 C 421.696 560.028,424.669 565.840,427.321 572.935 C 434.730 592.759,445.040 600.386,460.942 597.805 C 472.591 595.915,483.333 583.421,483.333 571.763 C 483.333 568.993,479.583 556.427,475.000 543.838 C 470.417 531.249,466.667 520.022,466.667 518.889 C 466.667 512.891,593.180 405.958,701.055 320.778 C 749.174 282.782,751.667 280.091,751.667 266.133 C 751.667 258.345,743.934 247.255,735.738 243.287 C 727.773 239.431,721.932 239.145,714.530 242.249 C 701.957 247.521,546.240 373.605,471.670 438.892 C 457.464 451.330,445.349 460.980,444.749 460.337 C 444.149 459.693,417.641 388.684,385.843 302.538 C 354.044 216.393,326.972 143.869,325.682 141.374 C 319.653 129.716,303.482 123.927,291.716 129.215 " stroke="none" fill-rule="evenodd" fill="#000000"></path></svg>