<svg width="1000" height="1000" viewBox="0 0 1000 1000" version="1.1" id="svg5" sodipodi:docname="み.svg" inkscape:version="1.3 (0e150ed6c4, 2023-07-21)" xmlns:inkscape="http://www.inkscape.org/namespaces/inkscape" xmlns:sodipodi="http://sodipodi.sourceforge.net/DTD/sodipodi-0.dtd" xmlns="http://www.w3.org/2000/svg" xmlns:svg="http://www.w3.org/2000/svg"><path d="M286.871 115.045 C 280.274 116.554,274.074 120.874,269.270 127.309 C 266.731 130.708,265.841 134.384,265.862 141.372 C 265.890 150.609,267.171 153.198,319.830 250.477 C 349.496 305.281,373.483 350.340,373.134 350.609 C 372.785 350.878,359.375 359.958,343.333 370.786 C 301.082 399.307,270.524 423.089,247.140 445.649 C 223.434 468.518,214.010 480.391,205.468 498.144 C 199.957 509.596,199.352 512.215,199.264 525.000 C 199.180 537.223,199.800 540.456,203.784 548.569 C 213.593 568.544,234.621 581.202,271.726 589.469 C 282.559 591.883,301.935 592.365,421.667 593.204 L 559.167 594.167 476.667 636.934 C 431.292 660.456,388.542 682.616,381.667 686.180 C 223.849 767.984,103.055 831.277,98.985 834.298 C 87.436 842.871,85.045 860.689,93.887 872.281 C 99.225 879.279,110.870 884.169,119.040 882.843 C 122.196 882.331,182.391 851.956,252.806 815.342 C 323.221 778.728,381.583 749.085,382.500 749.468 C 383.417 749.851,404.042 775.709,428.333 806.931 C 452.625 838.152,475.467 867.093,479.092 871.243 C 494.351 888.710,511.735 887.155,527.296 866.932 C 531.438 861.550,543.180 849.197,553.390 839.483 C 600.667 794.499,654.642 771.484,713.333 771.284 C 734.649 771.212,749.133 774.074,766.127 781.717 C 797.401 795.782,830.009 825.992,856.532 865.473 C 861.307 872.581,866.948 879.533,869.069 880.923 C 882.352 889.626,898.284 885.837,907.917 871.684 C 913.855 862.959,913.051 852.894,905.408 840.253 C 887.868 811.245,854.270 774.030,828.650 755.229 C 786.392 724.220,743.477 711.866,693.931 716.448 C 626.431 722.691,567.663 749.928,515.194 799.287 L 501.916 811.778 472.152 773.806 C 432.006 722.589,432.595 723.401,434.327 721.700 C 436.139 719.920,670.601 597.892,682.500 592.535 C 687.083 590.472,692.471 586.995,694.472 584.808 C 702.758 575.758,704.022 561.812,697.557 550.780 C 689.601 537.205,705.040 538.156,494.575 538.274 C 302.203 538.381,289.332 538.004,268.333 531.647 C 252.139 526.744,252.160 526.773,257.420 517.109 C 269.699 494.548,311.232 458.584,373.422 416.662 C 387.016 407.498,398.745 400.011,399.486 400.024 C 400.227 400.037,402.905 403.804,405.437 408.394 C 415.765 427.119,436.963 430.133,450.779 414.841 C 454.727 410.471,456.773 406.265,457.585 400.850 C 458.601 394.070,458.027 391.659,452.963 381.457 L 447.180 369.807 454.007 365.202 C 475.971 350.385,586.124 287.778,656.667 250.018 C 688.581 232.935,690.941 231.289,695.038 223.259 C 700.730 212.102,698.471 200.253,688.955 191.356 C 677.732 180.862,669.669 180.970,648.831 191.895 C 597.427 218.844,508.984 268.348,453.571 301.188 C 435.826 311.704,420.704 319.676,419.966 318.904 C 419.228 318.132,395.586 274.750,367.429 222.500 C 339.272 170.250,314.644 125.741,312.700 123.592 C 306.005 116.186,296.145 112.923,286.871 115.045 " stroke="none" fill-rule="evenodd" fill="black"></path></svg>