<svg width="1000" height="1000" viewBox="0 0 1000 1000" version="1.1" id="svg5" sodipodi:docname="む.svg" inkscape:version="1.3 (0e150ed6c4, 2023-07-21)" xmlns:inkscape="http://www.inkscape.org/namespaces/inkscape" xmlns:sodipodi="http://sodipodi.sourceforge.net/DTD/sodipodi-0.dtd" xmlns="http://www.w3.org/2000/svg" xmlns:svg="http://www.w3.org/2000/svg"><path d="M302.500 137.487 C 293.559 140.626,285.431 150.156,284.095 159.066 C 282.367 170.587,289.606 184.061,299.748 188.203 C 306.711 191.047,683.161 271.667,689.476 271.667 C 705.844 271.667,718.992 255.420,715.912 239.001 C 714.825 233.208,707.053 222.883,701.571 219.949 C 699.027 218.587,312.976 134.870,310.176 135.073 C 309.621 135.113,306.167 136.200,302.500 137.487 M294.903 304.914 C 280.210 309.372,271.440 323.835,275.190 337.419 C 276.039 340.493,303.718 396.330,336.700 461.502 C 369.682 526.674,396.667 580.640,396.667 581.428 C 396.667 582.215,382.757 592.787,365.757 604.920 C 280.868 665.507,229.724 714.320,209.774 753.792 C 185.965 800.902,207.562 841.068,265.000 856.496 C 296.736 865.021,296.088 865.001,542.714 864.991 C 705.225 864.984,774.441 864.443,779.129 863.141 C 798.061 857.885,806.080 834.462,793.902 819.989 C 784.047 808.278,805.764 809.262,535.833 808.296 C 305.042 807.470,291.942 807.265,281.667 804.324 C 275.708 802.618,267.182 799.390,262.719 797.150 C 254.874 793.212,254.637 792.881,255.567 787.150 C 258.687 767.928,291.721 731.699,344.865 689.217 C 368.913 669.993,415.482 635.990,420.285 634.146 C 422.358 633.351,424.329 635.568,428.488 643.372 C 436.208 657.855,442.816 662.500,455.704 662.500 C 468.034 662.500,475.469 657.989,480.158 647.665 C 484.711 637.638,484.087 632.216,476.594 616.720 C 472.887 609.055,470.206 601.868,470.635 600.748 C 472.444 596.034,599.739 517.697,692.500 464.212 C 719.083 448.884,742.119 435.199,743.690 433.801 C 748.243 429.749,752.229 417.445,751.148 410.780 C 749.663 401.635,743.641 393.313,735.992 389.840 C 722.770 383.835,720.893 384.493,673.136 411.892 C 602.151 452.617,533.543 494.171,455.326 543.817 C 449.080 547.781,444.209 549.876,443.315 548.982 C 442.488 548.155,415.454 495.358,383.240 431.656 C 351.026 367.953,323.431 314.415,321.918 312.681 C 318.535 308.806,307.019 303.369,302.500 303.513 C 300.667 303.572,297.248 304.202,294.903 304.914 " stroke="none" fill-rule="evenodd" fill="black"></path></svg>