<svg width="1000" height="1000" viewBox="0 0 1000 1000" version="1.1" id="svg5" sodipodi:docname="め.svg" inkscape:version="1.3 (0e150ed6c4, 2023-07-21)" xmlns:inkscape="http://www.inkscape.org/namespaces/inkscape" xmlns:sodipodi="http://sodipodi.sourceforge.net/DTD/sodipodi-0.dtd" xmlns="http://www.w3.org/2000/svg" xmlns:svg="http://www.w3.org/2000/svg"><path d="M427.500 129.992 C 417.896 134.778,412.481 143.508,412.579 154.045 C 412.639 160.496,425.773 202.656,467.996 331.934 C 498.431 425.122,523.333 501.850,523.333 502.441 C 523.333 503.031,514.521 513.056,503.750 524.720 C 420.435 614.937,367.928 691.097,352.455 744.167 C 347.188 762.232,345.357 786.584,348.229 800.366 C 355.908 837.216,387.719 862.615,437.389 871.554 C 444.052 872.753,514.536 873.333,653.377 873.333 L 859.476 873.333 866.733 869.495 C 875.076 865.084,881.667 854.496,881.667 845.505 C 881.667 837.878,876.252 827.786,869.621 823.057 L 864.167 819.167 653.333 818.286 C 468.121 817.511,441.487 817.087,434.167 814.790 C 414.962 808.764,404.467 800.238,402.347 788.940 C 397.474 762.959,419.121 716.501,463.973 656.681 C 488.599 623.836,541.567 562.482,543.472 564.594 C 544.087 565.276,545.899 569.958,547.500 575.000 C 552.230 589.903,562.166 598.333,575.000 598.333 C 587.266 598.333,598.220 589.465,601.640 576.766 C 603.179 571.051,602.463 567.486,595.086 544.110 L 586.806 517.869 594.213 509.199 C 610.421 490.227,723.393 383.275,794.631 319.460 C 815.940 300.372,834.491 282.597,835.854 279.960 C 837.218 277.323,838.333 271.491,838.333 266.999 C 838.333 248.408,818.237 235.032,801.196 242.281 C 791.766 246.293,672.395 355.125,604.662 421.464 C 584.632 441.082,567.788 456.677,567.232 456.120 C 566.675 455.564,543.504 385.316,515.740 300.015 C 487.977 214.714,463.873 142.502,462.176 139.544 C 458.628 133.360,446.699 126.666,439.230 126.668 C 436.445 126.669,431.167 128.164,427.500 129.992 M172.759 174.078 C 166.111 176.469,159.196 181.998,156.425 187.139 C 154.219 191.233,142.927 229.944,136.874 254.167 C 103.089 389.370,98.775 574.793,125.999 721.667 C 134.442 767.214,150.447 822.258,158.563 833.656 C 170.088 849.841,195.605 847.845,204.583 830.057 C 209.593 820.131,209.355 816.555,202.412 797.374 C 173.107 716.416,158.158 577.118,165.045 449.167 C 169.520 366.027,181.520 293.229,201.976 225.130 C 209.565 199.863,209.658 193.403,202.564 184.103 C 194.962 174.135,183.408 170.250,172.759 174.078 " stroke="none" fill-rule="evenodd" fill="black"></path></svg>