<svg width="1000" height="1000" viewBox="0 0 1000 1000" version="1.1" id="svg5" sodipodi:docname="も.svg" inkscape:version="1.3 (0e150ed6c4, 2023-07-21)" xmlns:inkscape="http://www.inkscape.org/namespaces/inkscape" xmlns:sodipodi="http://sodipodi.sourceforge.net/DTD/sodipodi-0.dtd" xmlns="http://www.w3.org/2000/svg" xmlns:svg="http://www.w3.org/2000/svg"><path d="M400.751 113.919 C 397.955 115.187,393.830 118.457,391.584 121.184 C 389.338 123.912,375.509 150.261,360.854 179.738 L 334.208 233.333 247.366 233.333 L 160.524 233.333 153.267 237.171 C 145.068 241.507,138.333 252.137,138.333 260.742 C 138.333 268.613,144.974 280.260,151.667 284.129 C 157.220 287.338,161.077 287.540,232.118 288.333 L 306.737 289.167 227.711 447.719 C 184.247 534.923,148.184 608.554,147.571 611.343 C 144.859 623.692,156.479 640.230,169.599 642.691 C 176.542 643.994,186.230 641.301,192.585 636.302 C 196.038 633.586,219.999 586.863,282.739 460.506 L 368.190 288.408 470.641 287.954 C 571.154 287.509,573.178 287.435,577.693 284.064 C 586.648 277.376,589.167 272.277,589.167 260.833 C 589.167 248.509,586.062 243.049,575.677 237.111 C 569.172 233.391,569.094 233.388,482.917 233.361 C 435.479 233.346,396.667 232.979,396.667 232.547 C 396.667 232.114,406.417 212.190,418.333 188.270 C 432.677 159.479,439.988 142.986,439.963 139.473 C 439.909 131.648,434.482 121.045,428.264 116.617 C 421.622 111.887,408.141 110.565,400.751 113.919 M430.837 354.292 C 428.089 355.725,424.554 358.062,422.980 359.486 C 418.591 363.458,414.440 375.910,415.452 382.068 C 415.943 385.056,438.917 438.724,466.506 501.331 C 494.094 563.938,516.667 616.186,516.667 617.437 C 516.667 618.689,511.610 623.715,505.429 628.606 C 457.821 666.283,405.905 716.088,384.646 744.479 C 364.601 771.247,353.333 797.369,353.333 817.069 C 353.333 827.037,358.858 843.855,364.738 851.787 C 377.493 868.996,399.855 880.432,431.388 885.874 C 443.814 888.018,474.172 888.311,645.019 887.937 L 844.167 887.500 849.621 883.610 C 856.084 879.000,861.667 868.837,861.667 861.680 C 861.667 851.011,853.153 839.015,842.808 835.106 C 839.591 833.891,777.160 833.333,644.205 833.333 C 436.026 833.333,434.605 833.280,417.260 824.884 C 408.301 820.547,407.099 816.618,411.327 805.491 C 418.185 787.442,442.133 758.389,478.097 724.486 C 496.623 707.022,538.346 671.667,540.430 671.667 C 541.125 671.667,542.890 674.657,544.353 678.312 C 553.543 701.281,585.186 702.954,595.158 680.998 C 599.552 671.322,599.120 666.484,592.500 651.207 C 589.292 643.804,586.667 637.119,586.667 636.352 C 586.667 632.910,672.318 572.042,755.232 516.562 C 809.571 480.202,814.930 476.197,818.148 469.549 C 822.449 460.666,822.515 456.196,818.478 447.307 C 813.075 435.408,800.909 428.740,788.762 431.019 C 779.780 432.704,675.849 502.248,595.327 560.454 C 577.632 573.245,562.950 583.438,562.699 583.105 C 562.449 582.772,540.667 533.375,514.294 473.333 C 487.922 413.292,464.730 362.383,462.756 360.202 C 455.281 351.945,440.565 349.220,430.837 354.292 " stroke="none" fill-rule="evenodd" fill="black"></path></svg>