<svg width="1000" height="1000" viewBox="0 0 1000 1000" version="1.1" id="svg5" sodipodi:docname="や.svg" inkscape:version="1.3 (0e150ed6c4, 2023-07-21)" xmlns:inkscape="http://www.inkscape.org/namespaces/inkscape" xmlns:sodipodi="http://sodipodi.sourceforge.net/DTD/sodipodi-0.dtd" xmlns="http://www.w3.org/2000/svg" xmlns:svg="http://www.w3.org/2000/svg"><path d="M141.716 107.619 C 130.120 112.690,124.615 121.006,124.615 133.456 C 124.615 146.850,132.923 156.686,146.970 159.925 C 151.603 160.994,262.230 161.603,457.500 161.635 C 666.083 161.670,762.822 162.238,767.201 163.454 C 774.891 165.589,785.783 175.067,789.963 183.261 C 797.797 198.618,798.462 226.469,791.586 251.278 C 773.888 315.139,717.009 370.405,643.710 394.963 C 617.780 403.650,582.261 409.890,557.544 410.099 C 541.301 410.237,530.585 412.250,525.314 416.155 C 506.996 429.722,509.978 456.290,530.706 464.207 C 537.628 466.850,540.826 466.943,565.597 465.215 C 652.894 459.125,721.173 430.727,776.438 377.523 C 810.901 344.345,834.540 304.344,846.874 258.333 C 850.110 246.262,850.667 240.098,850.640 216.667 C 850.610 191.045,850.294 188.256,846.019 175.833 C 839.474 156.812,832.683 145.731,819.925 133.252 C 808.121 121.706,794.712 114.001,777.442 108.840 C 768.080 106.043,749.410 105.847,457.500 105.479 C 183.435 105.135,146.830 105.383,141.716 107.619 M563.538 216.809 C 560.442 217.463,555.942 219.460,553.538 221.246 C 550.273 223.672,234.229 657.225,119.806 816.245 C 112.387 826.555,105.789 837.430,105.143 840.412 C 102.496 852.620,108.614 864.945,120.326 871.002 C 127.078 874.493,141.256 873.465,147.283 869.048 C 150.973 866.343,577.566 280.562,592.033 258.333 C 596.232 251.882,596.819 249.600,596.231 242.014 C 594.910 224.973,579.847 213.359,563.538 216.809 M484.425 519.078 C 476.466 521.940,470.269 527.526,467.285 534.530 C 463.915 542.438,464.086 670.220,467.510 702.482 C 472.757 751.926,485.418 780.698,514.873 810.107 C 541.935 837.126,577.713 856.006,617.118 864.062 C 642.016 869.152,664.446 870.168,759.234 870.500 C 853.336 870.828,854.790 870.783,859.342 867.397 C 868.234 860.781,870.833 855.594,870.833 844.461 C 870.833 836.254,870.019 833.026,866.820 828.540 C 858.661 817.099,858.950 817.134,762.500 815.917 C 667.255 814.715,641.355 813.332,621.494 808.389 C 571.729 796.004,535.413 763.004,526.005 721.621 C 521.682 702.602,520.000 669.717,520.000 604.184 C 520.000 562.920,519.369 538.552,518.222 535.525 C 513.145 522.126,497.341 514.435,484.425 519.078 " stroke="none" fill-rule="evenodd" fill="black"></path></svg>