<svg width="1000" height="1000" viewBox="0 0 1000 1000" version="1.1" id="svg5" sodipodi:docname="ゆ.svg" inkscape:version="1.3 (0e150ed6c4, 2023-07-21)" xmlns:inkscape="http://www.inkscape.org/namespaces/inkscape" xmlns:sodipodi="http://sodipodi.sourceforge.net/DTD/sodipodi-0.dtd" xmlns="http://www.w3.org/2000/svg" xmlns:svg="http://www.w3.org/2000/svg"><path d="M296.536 130.456 C 293.443 132.541,289.141 136.853,286.975 140.040 C 279.301 151.333,284.399 171.156,296.602 177.466 C 302.597 180.567,680.476 261.971,688.627 261.919 C 698.408 261.855,708.032 255.416,713.125 245.526 C 718.238 235.599,712.732 217.976,702.563 211.721 C 696.571 208.034,320.328 126.667,309.275 126.667 C 304.634 126.667,300.204 127.984,296.536 130.456 M572.011 357.083 C 565.245 360.789,120.367 816.696,109.722 830.833 C 105.187 836.856,104.762 838.470,105.323 847.540 C 106.035 859.058,109.346 864.647,118.560 869.887 C 126.041 874.141,137.344 874.372,144.484 870.417 C 147.381 868.813,245.151 769.250,361.751 649.167 C 478.352 529.083,581.451 422.958,590.860 413.333 C 609.364 394.406,613.118 387.428,610.967 375.958 C 609.597 368.656,601.188 358.660,593.830 355.585 C 586.116 352.362,579.845 352.793,572.011 357.083 M492.504 589.197 C 484.795 593.364,482.018 596.468,479.053 604.232 C 476.643 610.544,476.419 618.446,477.159 671.111 C 478.066 735.637,479.494 749.202,487.610 770.339 C 505.685 817.412,559.707 853.460,630.833 865.910 C 639.083 867.354,662.708 869.194,683.333 869.999 C 737.976 872.131,873.289 872.401,878.333 870.388 C 883.609 868.283,891.610 860.342,893.529 855.308 C 894.338 853.186,895.000 848.025,895.000 843.838 C 895.000 834.475,890.441 826.583,881.999 821.334 L 875.833 817.500 776.283 816.449 C 672.719 815.355,660.038 814.829,636.877 810.660 C 590.904 802.386,552.393 779.959,540.917 754.777 C 534.286 740.225,533.014 727.408,531.895 663.868 C 530.884 606.449,530.669 603.349,527.397 598.971 C 521.509 591.092,515.690 587.826,506.319 587.141 C 500.311 586.701,495.907 587.357,492.504 589.197 " stroke="none" fill-rule="evenodd" fill="black"></path></svg>