<svg width="1000" height="1000" viewBox="0 0 1000 1000" version="1.1" id="svg5" sodipodi:docname="よ.svg" inkscape:version="1.3 (0e150ed6c4, 2023-07-21)" xmlns:inkscape="http://www.inkscape.org/namespaces/inkscape" xmlns:sodipodi="http://sodipodi.sourceforge.net/DTD/sodipodi-0.dtd" xmlns="http://www.w3.org/2000/svg" xmlns:svg="http://www.w3.org/2000/svg"><path d="M408.980 87.388 C 406.127 88.630,402.118 91.413,400.070 93.573 C 398.022 95.733,384.041 122.063,369.002 152.083 L 341.657 206.667 255.412 206.703 C 175.060 206.737,168.702 206.951,162.369 209.827 C 140.951 219.555,140.267 248.967,161.217 259.378 C 166.984 262.244,173.484 262.568,240.388 263.333 L 313.277 264.167 234.138 423.148 C 163.412 565.230,155.000 582.964,155.000 589.985 C 155.000 604.206,165.564 615.122,180.348 616.177 C 187.275 616.671,190.596 615.987,195.833 612.986 C 202.297 609.283,205.119 603.912,288.688 436.250 L 374.876 263.333 470.689 263.333 C 533.888 263.333,569.403 262.711,575.023 261.506 C 601.671 255.791,605.666 221.046,580.964 209.827 C 574.634 206.952,568.296 206.737,488.773 206.703 L 403.380 206.667 425.023 163.223 C 442.493 128.157,446.661 118.435,446.639 112.806 C 446.564 93.688,426.155 79.912,408.980 87.388 M626.806 314.547 C 620.159 317.821,638.616 289.970,431.787 608.824 C 264.504 866.714,274.265 850.023,281.976 864.987 C 291.805 884.062,315.651 885.627,328.762 868.059 C 343.204 848.707,665.633 348.750,666.688 344.074 C 671.590 322.336,647.381 304.413,626.806 314.547 M570.802 570.564 C 563.648 573.812,555.359 583.890,554.035 590.949 C 552.273 600.342,554.453 725.725,556.670 742.500 C 565.833 811.829,614.412 861.371,685.833 874.222 C 697.615 876.341,717.468 877.124,778.368 877.867 C 862.745 878.897,861.116 879.045,870.112 869.566 C 878.285 860.953,879.376 846.757,872.646 836.588 C 864.395 824.120,866.424 824.426,782.500 822.985 C 703.835 821.635,689.833 820.428,671.274 813.399 C 642.812 802.619,620.776 777.926,614.160 749.398 C 610.655 734.287,608.403 689.969,608.365 635.363 C 608.330 584.588,607.868 581.962,597.607 574.135 C 590.423 568.656,578.502 567.068,570.802 570.564 " stroke="none" fill-rule="evenodd" fill="black"></path></svg>