<svg width="1000" height="1000" viewBox="0 0 1000 1000" version="1.1" id="svg5" sodipodi:docname="ら.svg" inkscape:version="1.3 (0e150ed6c4, 2023-07-21)" xmlns:inkscape="http://www.inkscape.org/namespaces/inkscape" xmlns:sodipodi="http://sodipodi.sourceforge.net/DTD/sodipodi-0.dtd" xmlns="http://www.w3.org/2000/svg" xmlns:svg="http://www.w3.org/2000/svg"><path d="M215.348 149.438 C 204.929 154.589,198.541 167.536,200.712 179.105 C 202.216 187.125,211.955 197.793,219.747 199.958 C 223.730 201.064,308.062 201.651,463.782 201.657 L 701.730 201.667 700.926 205.417 C 700.484 207.479,698.544 220.042,696.615 233.333 C 684.237 318.654,655.689 422.658,619.499 514.281 C 597.570 569.798,577.875 610.327,551.433 654.354 C 535.937 680.155,534.392 685.916,539.914 697.323 C 546.583 711.099,561.480 716.521,575.556 710.294 C 582.052 707.421,584.669 704.697,592.143 693.025 C 664.660 579.784,729.746 392.554,753.174 229.792 C 759.948 182.732,760.647 172.174,757.527 164.006 C 755.841 159.591,752.295 154.773,748.731 152.055 L 742.760 147.500 481.797 147.113 C 243.627 146.759,220.354 146.963,215.348 149.438 M403.307 336.363 C 395.838 340.260,394.181 342.878,337.190 440.833 C 244.616 599.948,221.900 644.277,207.719 693.491 C 184.597 773.736,213.897 824.784,295.833 847.009 L 315.833 852.434 548.446 852.923 L 781.058 853.412 786.626 849.622 C 794.937 843.966,798.708 837.860,799.596 828.618 C 800.573 818.450,796.163 809.503,787.117 803.305 L 781.079 799.167 551.790 798.314 L 322.500 797.461 308.333 793.531 C 276.829 784.791,262.369 774.494,257.350 757.229 C 250.935 735.162,259.512 701.412,285.584 646.139 C 300.434 614.656,320.734 578.432,391.253 457.576 C 449.401 357.922,446.923 363.468,439.840 348.836 C 433.300 335.325,416.373 329.546,403.307 336.363 " stroke="none" fill-rule="evenodd" fill="black"></path></svg>