<svg width="1000" height="1000" viewBox="0 0 1000 1000" version="1.1" id="svg5" sodipodi:docname="り.svg" inkscape:version="1.3 (0e150ed6c4, 2023-07-21)" xmlns:inkscape="http://www.inkscape.org/namespaces/inkscape" xmlns:sodipodi="http://sodipodi.sourceforge.net/DTD/sodipodi-0.dtd" xmlns="http://www.w3.org/2000/svg" xmlns:svg="http://www.w3.org/2000/svg"><path d="M255.632 104.050 C 249.274 106.831,242.059 115.955,240.651 122.997 C 238.209 135.204,246.016 149.476,257.837 154.415 C 262.247 156.257,294.891 156.667,437.446 156.667 C 588.485 156.667,611.667 156.988,611.667 159.082 C 611.667 164.435,604.412 199.051,598.042 224.097 C 578.636 300.388,543.213 384.513,508.181 437.500 C 494.265 458.550,492.687 461.731,492.063 470.000 C 491.262 480.623,495.108 487.942,505.040 494.691 C 512.484 499.750,526.655 499.276,534.477 493.706 C 537.277 491.712,545.636 480.817,553.052 469.496 C 608.588 384.712,653.526 261.417,668.459 152.862 C 671.924 127.675,671.956 126.239,669.223 119.083 C 667.509 114.594,663.985 109.791,660.398 107.055 L 654.427 102.500 457.630 102.138 C 294.422 101.837,259.946 102.164,255.632 104.050 M395.541 229.353 C 392.630 230.788,389.172 233.208,387.855 234.731 C 385.902 236.989,327.789 326.260,302.511 365.833 C 255.587 439.292,238.430 480.577,240.409 515.273 C 242.570 553.175,267.863 576.378,321.312 589.488 C 330.919 591.845,348.514 592.369,445.833 593.200 L 559.167 594.167 476.667 636.934 C 431.292 660.456,388.542 682.616,381.667 686.180 C 223.849 767.984,103.055 831.277,98.985 834.298 C 87.436 842.871,85.045 860.689,93.887 872.281 C 99.225 879.279,110.870 884.169,119.040 882.843 C 122.196 882.331,182.391 851.956,252.806 815.342 C 323.221 778.728,381.583 749.085,382.500 749.468 C 383.417 749.851,404.042 775.709,428.333 806.931 C 452.625 838.152,475.467 867.093,479.092 871.243 C 494.351 888.710,511.735 887.155,527.296 866.932 C 531.438 861.550,543.180 849.197,553.390 839.483 C 600.667 794.499,654.642 771.484,713.333 771.284 C 734.649 771.212,749.133 774.074,766.127 781.717 C 797.401 795.782,830.009 825.992,856.532 865.473 C 861.307 872.581,866.948 879.533,869.069 880.923 C 882.352 889.626,898.284 885.837,907.917 871.684 C 913.855 862.959,913.051 852.894,905.408 840.253 C 887.868 811.245,854.270 774.030,828.650 755.229 C 786.392 724.220,743.477 711.866,693.931 716.448 C 626.431 722.691,567.663 749.928,515.194 799.287 L 501.916 811.778 472.152 773.806 C 432.006 722.589,432.595 723.401,434.327 721.700 C 436.139 719.920,670.601 597.892,682.500 592.535 C 687.083 590.472,692.471 586.995,694.472 584.808 C 707.336 570.757,702.373 547.034,685.067 539.852 C 682.365 538.730,624.584 538.196,515.543 538.285 C 354.702 538.417,349.650 538.325,333.241 534.981 C 315.368 531.339,303.833 526.823,299.130 521.626 C 294.500 516.510,294.141 505.091,298.191 491.759 C 307.396 461.454,319.848 439.808,392.061 328.576 C 413.101 296.168,431.448 266.941,432.833 263.627 C 436.062 255.897,434.894 245.207,430.082 238.448 C 422.600 227.941,406.826 223.787,395.541 229.353 " stroke="none" fill-rule="evenodd" fill="black"></path></svg>