<svg width="1000" height="1000" viewBox="0 0 1000 1000" version="1.1" id="svg5" sodipodi:docname="る.svg" inkscape:version="1.3 (0e150ed6c4, 2023-07-21)" xmlns:inkscape="http://www.inkscape.org/namespaces/inkscape" xmlns:sodipodi="http://sodipodi.sourceforge.net/DTD/sodipodi-0.dtd" xmlns="http://www.w3.org/2000/svg" xmlns:svg="http://www.w3.org/2000/svg"><path d="M302.500 137.487 C 293.559 140.626,285.431 150.156,284.095 159.066 C 282.367 170.587,289.606 184.061,299.748 188.203 C 306.711 191.047,683.161 271.667,689.476 271.667 C 705.844 271.667,718.992 255.420,715.912 239.001 C 714.825 233.208,707.053 222.883,701.571 219.949 C 699.027 218.587,312.976 134.870,310.176 135.073 C 309.621 135.113,306.167 136.200,302.500 137.487 M217.500 389.029 C 207.752 393.380,200.000 404.700,200.000 414.582 C 200.000 422.510,206.477 433.082,214.057 437.524 L 221.126 441.667 459.915 441.667 L 698.704 441.667 697.540 447.871 C 695.026 461.271,684.525 494.850,675.582 518.081 C 646.700 593.111,603.522 663.830,554.636 716.171 C 546.186 725.218,539.486 734.007,538.300 737.601 C 534.216 749.977,540.441 764.083,552.610 770.025 C 570.346 778.685,580.665 772.160,615.551 730.224 C 665.469 670.218,713.524 582.686,738.284 506.667 C 750.437 469.353,761.165 419.231,759.218 408.855 C 757.920 401.937,749.354 391.923,742.163 388.918 C 734.198 385.591,224.963 385.698,217.500 389.029 M403.635 510.419 C 400.123 512.109,328.157 590.931,279.238 646.667 C 220.309 713.808,198.235 753.085,200.475 786.814 C 203.044 825.505,233.115 848.062,298.333 860.222 L 319.167 864.107 545.465 864.605 C 709.499 864.966,773.682 864.586,778.738 863.224 C 798.007 858.036,806.218 834.626,793.902 819.989 C 784.060 808.292,804.711 809.266,545.000 808.260 C 313.949 807.365,310.634 807.306,295.833 803.823 C 268.097 797.297,255.000 790.450,255.000 782.478 C 255.000 774.860,262.089 759.547,273.408 742.712 C 292.168 714.811,307.621 696.528,384.167 611.667 C 437.478 552.564,441.274 547.955,442.639 540.678 C 444.820 529.052,438.274 516.057,427.710 511.045 C 421.219 507.965,409.375 507.657,403.635 510.419 " stroke="none" fill-rule="evenodd" fill="black"></path></svg>