<svg width="1000" height="1000" viewBox="0 0 1000 1000" version="1.1" id="svg5" sodipodi:docname="れ.svg" inkscape:version="1.3 (0e150ed6c4, 2023-07-21)" xmlns:inkscape="http://www.inkscape.org/namespaces/inkscape" xmlns:sodipodi="http://sodipodi.sourceforge.net/DTD/sodipodi-0.dtd" xmlns="http://www.w3.org/2000/svg" xmlns:svg="http://www.w3.org/2000/svg"><path d="M172.759 174.078 C 166.111 176.469,159.196 181.998,156.425 187.139 C 154.219 191.233,142.927 229.944,136.874 254.167 C 103.089 389.370,98.775 574.793,125.999 721.667 C 134.442 767.214,150.447 822.258,158.563 833.656 C 170.088 849.841,195.605 847.845,204.583 830.057 C 209.593 820.131,209.355 816.555,202.412 797.374 C 173.107 716.416,158.158 577.118,165.045 449.167 C 169.520 366.027,181.520 293.229,201.976 225.130 C 209.565 199.863,209.658 193.403,202.564 184.103 C 194.962 174.135,183.408 170.250,172.759 174.078 M359.845 195.542 C 349.560 200.968,344.665 209.758,345.490 221.319 C 346.159 230.696,349.415 236.504,357.308 242.397 C 361.893 245.820,362.720 245.835,574.878 246.269 L 787.845 246.704 784.778 266.818 C 765.368 394.107,713.069 541.154,654.423 633.333 C 645.872 646.775,644.251 650.552,643.694 658.333 C 643.153 665.898,643.726 668.513,646.975 673.294 C 652.853 681.942,660.838 686.667,669.578 686.667 C 684.862 686.667,690.386 681.129,712.805 643.333 C 764.469 556.230,814.200 417.275,834.786 302.500 C 842.613 258.860,847.361 220.290,845.789 213.129 C 844.354 206.598,835.692 196.786,828.830 193.918 C 824.392 192.064,783.144 191.667,595.316 191.667 L 367.191 191.667 359.845 195.542 M525.000 356.900 C 521.792 358.855,518.066 362.024,516.721 363.942 C 511.027 372.064,409.334 542.951,396.736 565.567 C 373.928 606.513,359.126 639.415,350.587 668.145 C 344.782 687.673,343.285 718.249,347.434 732.521 C 351.782 747.476,357.767 757.987,368.110 768.832 C 384.744 786.274,410.027 798.014,445.835 804.924 C 463.028 808.242,468.818 808.332,661.335 808.297 C 850.660 808.262,859.460 808.127,865.998 805.158 C 875.527 800.830,880.514 793.217,881.313 781.776 C 882.032 771.487,878.542 764.382,869.462 757.653 C 864.764 754.172,864.469 754.165,661.129 753.309 C 457.575 752.451,457.495 752.449,444.531 748.780 C 419.384 741.663,407.987 734.925,403.176 724.332 C 392.954 701.824,407.901 657.224,451.266 580.833 C 459.071 567.083,487.232 519.531,513.845 475.161 C 540.458 430.791,563.292 391.416,564.587 387.661 C 568.593 376.042,562.823 362.358,551.478 356.571 C 543.063 352.277,532.369 352.410,525.000 356.900 " stroke="none" fill-rule="evenodd" fill="black"></path></svg>