<svg width="1000" height="1000" viewBox="0 0 1000 1000" version="1.1" id="svg5" sodipodi:docname="ろ.svg" inkscape:version="1.3 (0e150ed6c4, 2023-07-21)" xmlns:inkscape="http://www.inkscape.org/namespaces/inkscape" xmlns:sodipodi="http://sodipodi.sourceforge.net/DTD/sodipodi-0.dtd" xmlns="http://www.w3.org/2000/svg" xmlns:svg="http://www.w3.org/2000/svg"><path d="M411.548 131.627 C 408.274 133.358,404.782 135.762,403.787 136.970 C 402.792 138.178,389.541 164.104,374.339 194.583 L 346.700 250.000 260.125 250.000 C 203.008 250.000,171.954 250.603,168.858 251.773 C 158.771 255.584,150.000 267.667,150.000 277.754 C 150.000 285.831,156.419 296.381,164.057 300.857 L 171.126 305.000 244.730 305.000 C 285.212 305.000,318.333 305.282,318.333 305.626 C 318.333 305.971,283.079 377.033,239.991 463.543 C 196.903 550.053,160.918 623.482,160.025 626.719 C 157.644 635.347,160.751 644.608,168.506 652.006 C 178.911 661.931,193.557 662.554,203.688 653.502 C 207.493 650.102,232.029 602.697,294.864 477.342 L 380.833 305.833 482.796 305.000 C 582.981 304.181,584.840 304.106,589.462 300.680 C 597.736 294.548,601.667 287.082,601.667 277.500 C 601.667 266.494,596.875 258.882,586.717 253.750 C 579.306 250.006,579.149 250.000,493.814 250.000 C 446.799 250.000,408.333 249.619,408.333 249.154 C 408.333 248.689,418.083 228.820,430.000 205.000 C 453.684 157.659,454.602 154.447,447.855 142.534 C 440.635 129.786,424.308 124.881,411.548 131.627 M413.983 397.387 C 402.516 402.378,395.166 415.643,397.367 427.375 C 398.736 434.677,407.145 444.674,414.504 447.748 C 418.911 449.590,450.891 450.000,589.946 450.000 L 760.000 450.000 760.000 454.140 C 760.000 459.556,752.626 494.902,747.303 515.000 C 726.627 593.069,693.332 670.133,657.168 723.625 C 645.683 740.612,644.333 743.449,643.676 751.990 C 643.088 759.639,643.641 762.604,646.527 767.274 C 653.861 779.141,670.862 784.046,682.883 777.763 C 698.732 769.478,742.621 691.834,768.021 627.141 C 796.236 555.280,818.377 468.103,818.965 426.554 C 819.150 413.461,818.794 411.784,814.677 406.372 C 805.406 394.181,820.175 394.993,608.915 395.065 C 453.126 395.119,418.239 395.534,413.983 397.387 M552.652 517.449 C 549.068 518.736,544.821 521.149,543.214 522.811 C 538.860 527.313,455.538 654.659,439.002 682.084 C 421.746 710.703,410.406 733.749,403.120 755.005 C 398.297 769.077,397.692 772.868,397.669 789.167 C 397.636 812.781,401.123 822.400,415.158 837.403 C 430.078 853.353,452.316 863.710,483.380 869.177 C 495.259 871.268,523.792 871.662,663.187 871.664 L 828.874 871.667 835.943 867.524 C 843.523 863.082,850.000 852.510,850.000 844.582 C 850.000 835.618,843.077 824.626,834.167 819.440 C 831.718 818.015,785.715 817.269,660.833 816.629 C 504.605 815.829,490.023 815.520,480.833 812.808 C 455.306 805.275,449.973 799.397,453.129 782.271 C 457.061 760.930,473.174 729.347,506.154 678.333 C 515.339 664.125,537.587 630.043,555.594 602.597 C 587.276 554.305,588.333 552.420,588.333 544.237 C 588.333 533.319,583.960 525.153,575.668 520.588 C 566.595 515.593,560.232 514.725,552.652 517.449 " stroke="none" fill-rule="evenodd" fill="black"></path></svg>