<svg width="1000" height="1000" viewBox="0 0 1000 1000" version="1.1" id="svg5" sodipodi:docname="わ.svg" inkscape:version="1.3 (0e150ed6c4, 2023-07-21)" xmlns:inkscape="http://www.inkscape.org/namespaces/inkscape" xmlns:sodipodi="http://sodipodi.sourceforge.net/DTD/sodipodi-0.dtd" xmlns="http://www.w3.org/2000/svg" xmlns:svg="http://www.w3.org/2000/svg"><path d="M181.650 147.083 C 173.396 152.701,169.624 158.826,168.737 168.049 C 167.752 178.306,172.752 188.327,181.603 193.832 L 187.500 197.500 474.167 198.333 C 744.173 199.118,761.146 199.338,766.222 202.112 C 787.412 213.692,773.537 252.692,736.949 284.389 C 670.754 341.735,556.231 378.595,403.333 391.768 C 391.875 392.755,360.000 394.110,332.500 394.779 C 277.222 396.124,275.865 396.385,267.530 407.313 C 257.738 420.150,261.830 439.849,275.958 447.889 L 282.500 451.612 446.667 451.671 L 610.833 451.730 602.964 456.672 C 593.883 462.375,588.320 471.713,588.361 481.184 C 588.420 494.894,601.773 508.246,615.483 508.306 C 622.879 508.338,623.883 507.853,675.000 479.535 C 696.542 467.601,719.042 455.386,725.000 452.391 C 736.872 446.422,742.171 441.649,744.889 434.475 C 747.762 426.891,747.002 416.403,743.116 410.029 C 735.163 396.983,732.161 396.222,690.000 396.568 C 666.917 396.758,654.760 396.290,655.833 395.253 C 656.750 394.367,662.375 391.619,668.333 389.147 C 685.758 381.915,720.372 363.897,734.471 354.719 C 814.141 302.858,849.193 235.688,823.187 184.712 C 814.370 167.431,794.002 152.166,772.383 146.637 C 759.752 143.406,753.144 143.333,473.313 143.333 L 187.160 143.333 181.650 147.083 M294.167 665.269 C 287.037 667.867,282.438 672.465,272.907 686.523 C 262.326 702.130,251.214 725.861,247.707 740.343 C 235.485 790.800,264.667 831.886,323.998 847.757 C 353.977 855.777,346.514 855.488,541.270 856.165 C 747.652 856.882,732.587 857.765,741.399 844.440 C 749.945 831.515,746.474 816.034,732.850 806.316 L 727.500 802.500 545.833 801.493 C 354.687 800.433,357.469 800.551,331.751 792.427 C 293.540 780.356,290.583 759.122,320.767 713.565 C 328.536 701.839,330.000 698.440,330.000 692.125 C 330.000 673.538,310.855 659.190,294.167 665.269 " stroke="none" fill-rule="evenodd" fill="black"></path></svg>