<svg width="1000" height="1000" viewBox="0 0 1000 1000" version="1.1" id="svg5" sodipodi:docname="ゐ.svg" inkscape:version="1.3 (0e150ed6c4, 2023-07-21)" xmlns:inkscape="http://www.inkscape.org/namespaces/inkscape" xmlns:sodipodi="http://sodipodi.sourceforge.net/DTD/sodipodi-0.dtd" xmlns="http://www.w3.org/2000/svg" xmlns:svg="http://www.w3.org/2000/svg"><path d="M282.039 135.187 C 267.957 142.179,262.198 161.210,270.456 173.464 C 272.541 176.557,276.777 180.793,279.869 182.877 L 285.493 186.667 430.246 186.667 C 509.861 186.667,575.000 187.255,575.000 187.974 C 575.000 188.693,572.761 190.604,570.024 192.221 C 562.457 196.691,556.361 205.748,555.444 213.884 C 553.352 232.441,572.643 248.667,589.779 242.763 C 595.048 240.948,647.589 209.363,690.156 182.422 C 697.651 177.678,701.667 169.418,701.667 158.745 C 701.667 149.612,697.589 142.009,689.461 135.987 C 684.757 132.501,684.716 132.500,486.961 132.074 L 289.167 131.647 282.039 135.187 M294.167 402.353 C 287.902 405.137,283.871 409.629,275.341 423.333 C 256.193 454.095,246.991 488.398,251.470 512.324 C 257.736 545.797,283.138 571.324,322.125 583.329 C 349.323 591.703,356.606 592.222,460.833 593.223 L 559.167 594.167 476.667 636.934 C 431.292 660.456,388.542 682.616,381.667 686.180 C 223.849 767.984,103.055 831.277,98.985 834.298 C 87.436 842.871,85.045 860.689,93.887 872.281 C 99.225 879.279,110.870 884.169,119.040 882.843 C 122.196 882.331,182.391 851.956,252.806 815.342 C 323.221 778.728,381.583 749.085,382.500 749.468 C 383.417 749.851,404.042 775.709,428.333 806.931 C 452.625 838.152,475.467 867.093,479.092 871.243 C 494.351 888.710,511.735 887.155,527.296 866.932 C 531.438 861.550,543.180 849.197,553.390 839.483 C 600.667 794.499,654.642 771.484,713.333 771.284 C 734.649 771.212,749.133 774.074,766.127 781.717 C 797.401 795.782,830.009 825.992,856.532 865.473 C 861.307 872.581,866.948 879.533,869.069 880.923 C 882.352 889.626,898.284 885.837,907.917 871.684 C 913.855 862.959,913.051 852.894,905.408 840.253 C 887.868 811.245,854.270 774.030,828.650 755.229 C 786.392 724.220,743.477 711.866,693.931 716.448 C 626.431 722.691,567.663 749.928,515.194 799.287 L 501.916 811.778 472.152 773.806 C 432.006 722.589,432.595 723.401,434.327 721.700 C 436.139 719.920,670.601 597.892,682.500 592.535 C 687.083 590.472,692.471 586.995,694.472 584.808 C 702.758 575.758,704.022 561.812,697.557 550.780 C 689.803 537.548,701.295 538.407,524.763 537.861 C 381.717 537.419,366.239 537.107,353.555 534.419 C 328.710 529.154,314.384 521.756,309.046 511.433 C 303.452 500.616,307.637 477.384,318.610 458.333 C 331.895 435.269,333.544 431.195,332.423 424.190 C 329.494 405.874,310.560 395.067,294.167 402.353 " stroke="none" fill-rule="evenodd" fill="black"></path></svg>