<svg width="1000" height="1000" viewBox="0 0 1000 1000" version="1.1" id="svg5" sodipodi:docname="ゑ.svg" inkscape:version="1.3 (0e150ed6c4, 2023-07-21)" xmlns:inkscape="http://www.inkscape.org/namespaces/inkscape" xmlns:sodipodi="http://sodipodi.sourceforge.net/DTD/sodipodi-0.dtd" xmlns="http://www.w3.org/2000/svg" xmlns:svg="http://www.w3.org/2000/svg"><path d="M172.759 174.078 C 166.111 176.469,159.196 181.998,156.425 187.139 C 154.219 191.233,142.927 229.944,136.874 254.167 C 103.089 389.370,98.775 574.793,125.999 721.667 C 134.442 767.214,150.447 822.258,158.563 833.656 C 170.088 849.841,195.605 847.845,204.583 830.057 C 209.593 820.131,209.355 816.555,202.412 797.374 C 173.107 716.416,158.158 577.118,165.045 449.167 C 169.520 366.027,181.520 293.229,201.976 225.130 C 209.565 199.863,209.658 193.403,202.564 184.103 C 194.962 174.135,183.408 170.250,172.759 174.078 M615.833 213.345 C 495.750 213.814,397.315 214.378,397.088 214.599 C 396.862 214.819,393.681 217.706,390.021 221.013 C 381.878 228.369,379.059 236.981,381.646 246.591 C 383.553 253.672,389.818 262.143,395.596 265.454 C 398.329 267.020,440.186 267.695,574.056 268.333 L 748.946 269.167 731.691 281.667 C 711.379 296.382,708.136 300.296,707.071 311.382 C 705.553 327.180,717.619 340.670,733.215 340.614 C 737.405 340.598,743.083 339.395,745.833 337.939 C 750.530 335.452,845.231 269.464,855.628 261.433 C 874.198 247.090,864.070 215.790,840.000 213.135 C 836.792 212.781,735.917 212.876,615.833 213.345 M408.771 558.498 C 400.735 562.476,394.460 571.706,382.614 596.971 C 368.562 626.942,362.860 649.286,362.915 674.167 C 363.045 733.783,405.987 773.538,481.651 784.091 C 497.327 786.278,526.041 786.667,671.834 786.667 C 795.300 786.667,844.575 786.142,847.193 784.800 C 854.142 781.237,861.740 772.583,863.430 766.309 C 866.401 755.274,859.904 740.563,849.404 734.546 C 846.673 732.981,803.712 732.273,666.667 731.534 C 509.431 730.686,486.159 730.238,476.548 727.872 C 436.236 717.949,420.451 704.139,418.695 677.257 C 417.460 658.352,423.213 638.478,439.075 606.850 C 449.518 586.026,450.449 579.648,444.556 569.292 C 440.319 561.847,429.026 554.999,420.988 555.001 C 418.153 555.002,412.655 556.576,408.771 558.498 " stroke="none" fill-rule="evenodd" fill="black"></path></svg>