<svg width="1000" height="1000" viewBox="0 0 1000 1000" version="1.1" id="svg5" sodipodi:docname="ん.svg" inkscape:version="1.3 (0e150ed6c4, 2023-07-21)" xmlns:inkscape="http://www.inkscape.org/namespaces/inkscape" xmlns:sodipodi="http://sodipodi.sourceforge.net/DTD/sodipodi-0.dtd" xmlns="http://www.w3.org/2000/svg" xmlns:svg="http://www.w3.org/2000/svg"><path d="M548.267 88.838 C 543.306 91.461,539.794 94.973,537.171 99.933 L 533.333 107.191 533.333 190.443 L 533.333 273.695 529.514 272.736 C 499.343 265.164,467.419 277.786,435.242 310.010 C 372.495 372.847,329.313 488.561,338.300 569.788 C 345.689 636.580,377.206 683.793,433.248 712.025 C 455.578 723.274,487.394 732.111,518.821 735.793 C 529.940 737.096,529.901 736.799,521.252 754.167 C 490.116 816.693,412.127 851.926,290.732 858.310 C 273.371 859.223,256.465 859.977,253.163 859.985 C 240.215 860.017,228.333 873.184,228.333 887.500 C 228.333 905.039,240.998 915.000,263.298 915.000 C 284.528 915.000,327.934 911.711,352.500 908.240 C 475.586 890.851,556.890 834.048,582.571 747.500 C 586.621 733.851,587.166 728.596,588.617 689.167 C 591.212 618.695,590.184 123.747,587.409 107.048 C 586.289 100.313,577.703 90.263,570.496 87.252 C 562.756 84.017,556.544 84.461,548.267 88.838 M518.022 329.160 C 523.965 334.161,527.842 343.301,530.990 359.730 C 534.068 375.797,534.519 681.667,531.464 681.667 C 523.192 681.667,491.941 675.569,479.682 671.563 C 455.671 663.716,442.583 656.057,427.303 640.911 C 406.316 620.109,395.812 595.724,393.621 562.721 C 390.615 517.443,400.664 471.278,424.148 422.484 C 449.775 369.237,486.466 328.565,511.955 325.150 C 512.573 325.068,515.303 326.872,518.022 329.160 " stroke="none" fill-rule="evenodd" fill="black"></path></svg>