<svg width="1000" height="1000" viewBox="0 0 1000 1000" version="1.1" id="svg5" sodipodi:docname="々.svg" inkscape:version="1.2.1 (9c6d41e410, 2022-07-14)" xmlns:inkscape="http://www.inkscape.org/namespaces/inkscape" xmlns:sodipodi="http://sodipodi.sourceforge.net/DTD/sodipodi-0.dtd" xmlns="http://www.w3.org/2000/svg" xmlns:svg="http://www.w3.org/2000/svg"><path d="M385.833 250.667 C 378.230 254.019,372.316 260.896,370.036 269.038 C 367.411 278.415,369.070 283.702,381.312 304.968 C 408.562 352.303,441.738 390.308,481.441 419.670 C 493.327 428.460,528.025 450.673,532.222 452.179 C 533.292 452.563,533.687 453.397,533.100 454.033 C 532.513 454.669,513.763 462.314,491.433 471.022 C 448.849 487.630,443.279 490.899,439.844 501.306 C 437.349 508.866,438.812 520.939,442.890 526.440 C 447.366 532.479,458.032 538.273,464.730 538.306 C 470.936 538.337,613.229 483.599,620.000 478.576 C 631.128 470.321,634.039 453.733,626.377 442.233 C 622.693 436.703,617.270 433.406,586.473 417.974 C 505.941 377.617,465.168 341.139,428.474 276.615 C 422.984 266.962,416.769 257.449,414.663 255.476 C 407.086 248.378,395.436 246.435,385.833 250.667 M387.806 522.415 C 371.487 528.235,364.696 544.870,372.051 561.012 C 374.174 565.670,586.047 746.473,592.940 749.508 C 599.208 752.268,609.229 752.151,614.835 749.252 C 622.233 745.426,629.546 735.952,630.792 728.580 C 632.517 718.365,627.694 709.382,614.027 697.357 C 567.259 656.208,410.031 524.147,405.608 522.298 C 398.872 519.484,395.971 519.503,387.806 522.415 " stroke="none" fill-rule="evenodd" fill="black"></path></svg>