<svg width="1000" height="1000" viewBox="0 0 1000 1000" version="1.1" id="svg5" sodipodi:docname="㕮.svg" inkscape:version="1.3 (0e150ed6c4, 2023-07-21)" xmlns:inkscape="http://www.inkscape.org/namespaces/inkscape" xmlns:sodipodi="http://sodipodi.sourceforge.net/DTD/sodipodi-0.dtd" xmlns="http://www.w3.org/2000/svg" xmlns:svg="http://www.w3.org/2000/svg"><path d="M595.608 61.629 C 579.913 65.249,569.685 83.109,575.459 96.814 C 576.777 99.941,591.463 124.035,608.094 150.355 C 624.726 176.675,638.333 198.988,638.333 199.938 C 638.333 201.112,607.593 201.667,542.608 201.667 C 478.850 201.667,445.317 202.260,442.192 203.444 C 431.784 207.388,424.722 217.786,424.722 229.167 C 424.722 238.226,428.358 245.244,436.117 251.164 L 442.238 255.833 537.369 256.667 L 632.500 257.500 632.933 337.917 L 633.365 418.333 540.542 418.333 C 449.708 418.333,447.564 418.408,440.503 421.827 C 425.065 429.300,420.390 448.956,430.802 462.607 C 439.172 473.581,436.664 473.333,539.352 473.333 L 632.145 473.333 631.037 488.750 C 627.781 534.062,612.734 594.794,591.498 648.333 C 583.931 667.412,563.729 708.469,552.226 728.146 C 512.298 796.447,462.342 849.388,417.643 870.769 C 401.914 878.292,393.059 880.771,375.421 882.587 C 362.327 883.936,355.375 888.402,350.230 898.772 C 344.769 909.780,346.212 919.299,354.692 928.204 C 363.147 937.084,370.836 938.942,389.539 936.628 C 425.474 932.182,461.290 913.983,500.177 880.412 C 569.673 820.413,632.104 715.725,664.869 604.242 C 668.359 592.367,671.879 582.463,672.691 582.233 C 674.471 581.728,742.301 674.289,742.969 678.134 C 743.999 684.064,713.886 731.814,690.399 761.496 C 674.616 781.443,672.082 787.496,674.991 798.299 C 680.182 817.577,703.908 825.454,718.645 812.791 C 727.986 804.765,759.977 761.417,772.648 739.618 C 776.233 733.450,779.786 728.594,780.544 728.827 C 781.301 729.060,815.485 774.982,856.507 830.876 C 915.198 910.841,932.487 933.314,937.630 936.320 C 950.516 943.850,968.191 938.054,975.025 924.057 C 979.115 915.679,979.219 909.100,975.377 901.602 C 973.300 897.547,834.812 707.257,809.784 674.068 C 809.041 673.082,811.721 664.394,815.852 654.397 C 828.565 623.633,846.663 564.962,846.665 554.501 C 846.667 549.503,842.970 541.108,838.553 536.079 C 831.611 528.176,816.767 525.610,807.051 530.635 C 798.630 534.989,793.994 542.208,790.150 556.952 C 784.109 580.119,771.649 618.333,770.136 618.333 C 769.353 618.333,750.073 593.021,727.292 562.083 L 685.871 505.833 686.356 492.500 C 686.622 485.167,687.227 477.854,687.699 476.250 C 688.504 473.517,694.448 473.333,782.049 473.333 L 875.540 473.333 882.610 469.190 C 897.298 460.583,900.500 442.432,889.653 429.272 C 880.381 418.024,883.458 418.333,780.887 418.333 L 688.333 418.333 688.333 337.500 L 688.333 256.667 782.238 256.667 L 876.142 256.667 883.400 252.829 C 891.743 248.417,898.333 237.829,898.333 228.838 C 898.333 221.211,892.918 211.120,886.288 206.390 L 880.833 202.500 793.054 201.667 C 744.775 201.208,704.944 200.458,704.539 200.000 C 704.134 199.542,686.321 171.417,664.954 137.500 C 643.587 103.583,624.611 73.799,622.786 71.313 C 617.289 63.828,605.024 59.457,595.608 61.629 M71.610 162.083 C 51.743 172.111,52.120 201.051,72.241 210.599 C 77.217 212.960,85.422 213.333,132.335 213.333 C 166.883 213.333,186.667 213.931,186.667 214.975 C 186.667 226.660,175.986 333.349,170.646 375.000 C 168.355 392.875,165.757 413.500,164.874 420.833 C 162.462 440.868,152.182 505.058,145.680 540.693 C 125.755 649.891,95.718 763.140,63.955 848.828 C 55.631 871.285,55.147 876.602,60.505 886.733 C 68.060 901.020,85.864 905.548,99.026 896.529 C 106.586 891.349,108.268 888.177,118.878 859.091 C 157.211 754.001,191.657 613.512,212.438 477.500 C 214.819 461.917,217.096 448.229,217.498 447.083 C 218.065 445.468,231.907 445.000,279.114 445.000 L 340.000 445.000 339.991 458.750 C 339.977 478.930,337.028 539.163,334.135 578.333 C 329.486 641.287,322.631 695.329,312.360 750.000 C 310.036 762.375,307.705 774.938,307.182 777.917 C 306.659 780.896,305.729 783.333,305.116 783.333 C 304.502 783.333,295.472 763.851,285.049 740.039 C 273.547 713.763,264.408 695.127,261.799 692.628 C 257.111 688.137,246.902 683.333,242.047 683.333 C 240.365 683.333,235.136 685.253,230.428 687.599 C 220.876 692.359,215.000 701.518,215.000 711.650 C 215.000 715.217,224.149 738.142,240.232 774.873 C 287.902 883.744,289.495 887.133,295.645 892.816 C 308.542 904.733,329.337 900.785,337.575 884.855 C 340.402 879.388,353.771 823.988,362.275 782.500 C 381.541 688.510,390.779 600.325,395.056 469.569 C 396.231 433.637,396.243 414.617,395.093 410.344 C 393.406 404.081,385.803 395.427,378.860 391.867 C 376.331 390.570,352.269 390.000,300.110 390.000 C 258.799 390.000,225.005 389.438,225.011 388.750 C 225.017 388.063,226.474 375.125,228.248 360.000 C 232.095 327.206,235.932 289.020,239.722 245.833 L 242.500 214.167 326.667 213.333 C 410.773 212.501,410.838 212.497,416.965 208.687 C 423.638 204.538,430.000 193.507,430.000 186.087 C 430.000 176.001,421.229 163.917,411.142 160.106 C 407.943 158.897,354.357 158.333,242.745 158.333 L 79.040 158.333 71.610 162.083 " stroke="none" fill-rule="evenodd" fill="black"></path></svg>