<svg width="1000" height="1000" viewBox="0 0 1000 1000" version="1.1" id="svg5" xmlns="http://www.w3.org/2000/svg" xmlns:svg="http://www.w3.org/2000/svg"><path d="M495.000 106.578 C 256.460 107.293,186.699 107.959,183.930 109.546 C 173.965 115.256,168.534 127.496,170.742 139.266 C 172.216 147.122,182.039 157.817,189.747 159.958 C 193.751 161.070,292.631 161.651,478.750 161.657 C 634.354 161.662,761.667 162.167,761.667 162.779 C 761.667 164.780,741.550 201.947,726.184 228.333 C 698.013 276.711,667.604 323.443,630.205 375.833 C 592.560 428.568,537.597 498.956,534.835 497.969 C 534.113 497.711,485.367 454.000,426.510 400.833 C 367.654 347.667,316.498 302.104,312.832 299.583 C 300.768 291.290,283.694 294.489,275.721 306.538 C 269.958 315.245,269.052 322.036,272.459 330.959 C 275.018 337.659,288.014 349.948,386.424 438.716 C 447.516 493.823,497.728 539.828,498.006 540.950 C 499.157 545.592,417.925 632.705,371.957 676.124 C 287.444 755.951,215.020 810.389,150.012 842.949 C 133.047 851.447,117.506 860.269,115.477 862.556 C 105.601 873.682,106.453 888.812,117.556 899.467 C 128.643 910.107,135.431 910.529,155.307 901.812 C 213.516 876.283,282.841 828.618,362.500 759.354 C 395.294 730.839,486.092 640.126,517.371 604.628 C 530.071 590.215,541.027 578.771,541.717 579.198 C 542.408 579.625,591.241 623.565,650.236 676.842 C 709.231 730.120,759.750 775.123,762.500 776.849 C 768.611 780.685,781.543 781.011,788.330 777.502 C 803.335 769.743,807.761 749.165,797.140 736.543 C 794.724 733.671,744.104 687.443,684.652 633.814 C 611.784 568.083,577.030 535.687,578.009 534.403 C 578.807 533.357,587.313 522.750,596.911 510.833 C 686.542 399.547,760.750 286.421,819.776 171.085 C 833.163 144.926,835.000 140.297,835.000 132.722 C 835.000 117.700,824.939 107.162,809.612 106.133 C 805.700 105.870,664.125 106.070,495.000 106.578 " stroke="none" fill-rule="evenodd" fill="black"></path></svg>