<svg width="1000" height="1000" viewBox="0 0 1000 1000" version="1.1" id="svg5" xmlns="http://www.w3.org/2000/svg" xmlns:svg="http://www.w3.org/2000/svg"><path d="M284.002 53.176 C 280.244 54.882,275.563 58.536,273.598 61.295 C 270.567 65.552,250.213 130.484,227.245 209.167 C 224.034 220.167,211.176 262.917,198.672 304.167 C 173.067 388.631,172.263 393.085,180.636 404.059 C 189.278 415.385,184.938 415.000,304.113 415.000 L 411.667 415.000 411.666 419.583 C 411.665 425.631,397.832 493.771,391.449 519.167 C 354.352 666.760,301.985 765.164,194.016 890.168 C 178.131 908.560,173.979 916.563,175.673 925.525 C 179.870 947.731,205.911 956.521,221.765 941.085 C 241.849 921.530,293.036 857.012,319.813 817.503 C 371.690 740.957,404.191 672.893,430.064 586.614 C 443.680 541.207,452.402 503.382,467.904 422.500 L 469.181 415.833 618.757 415.408 C 701.024 415.174,768.329 415.549,768.324 416.241 C 768.319 416.933,767.181 430.625,765.797 446.667 C 753.184 592.790,720.192 712.165,654.859 848.072 C 647.657 863.053,641.040 875.053,640.155 874.739 C 639.270 874.424,611.575 848.140,578.610 816.329 C 545.646 784.519,516.161 756.959,513.088 755.086 C 506.483 751.059,495.231 750.600,488.498 754.082 C 474.811 761.159,469.468 775.788,475.241 790.379 C 477.476 796.028,627.998 941.302,636.167 945.694 C 644.668 950.265,655.046 949.848,662.950 944.618 C 668.234 941.122,671.915 935.607,683.276 914.174 C 768.617 753.172,813.466 593.281,823.387 414.670 C 824.863 388.092,824.754 382.698,822.647 378.004 C 819.309 370.567,816.815 367.723,809.971 363.551 L 804.167 360.012 521.971 360.006 C 244.616 360.000,239.793 359.945,240.789 356.805 C 241.617 354.197,258.886 296.371,276.641 236.752 L 280.141 225.000 545.341 225.000 L 810.540 225.000 817.610 220.857 C 825.189 216.415,831.667 205.844,831.667 197.916 C 831.667 187.842,823.813 176.578,813.804 172.295 C 809.327 170.379,766.101 170.000,552.375 170.000 C 348.213 170.000,296.470 169.578,297.099 167.917 C 297.533 166.771,303.711 146.077,310.829 121.931 C 322.716 81.602,323.616 77.516,321.885 71.740 C 319.265 62.993,313.946 56.786,305.964 53.161 C 297.395 49.269,292.597 49.272,284.002 53.176 " stroke="none" fill-rule="evenodd" fill="black"></path></svg>