<svg width="1000" height="1000" viewBox="0 0 1000 1000" version="1.1" id="svg5" sodipodi:docname="享.svg" inkscape:version="1.3.2 (091e20e, 2023-11-25, custom)" xmlns:inkscape="http://www.inkscape.org/namespaces/inkscape" xmlns:sodipodi="http://sodipodi.sourceforge.net/DTD/sodipodi-0.dtd" xmlns="http://www.w3.org/2000/svg" xmlns:svg="http://www.w3.org/2000/svg"><path d="M486.619 50.155 C 483.384 52.032,478.884 56.270,476.619 59.574 C 472.507 65.571,472.499 65.661,471.969 113.624 L 471.438 161.667 328.465 161.667 L 185.493 161.667 179.830 165.430 C 176.715 167.500,172.479 172.534,170.417 176.617 C 166.678 184.018,166.667 184.283,166.676 266.603 C 166.682 318.255,167.330 351.487,168.407 355.365 C 171.885 367.891,182.841 376.667,195.000 376.667 C 207.159 376.667,218.115 367.891,221.593 355.365 C 222.644 351.582,223.318 323.346,223.324 282.917 L 223.333 216.667 347.500 216.667 L 471.667 216.667 471.676 242.917 C 471.681 257.354,472.513 272.150,473.526 275.796 C 477.417 289.811,491.694 298.596,506.168 295.881 C 514.110 294.391,524.038 284.571,526.474 275.796 C 527.487 272.150,528.319 257.354,528.324 242.917 L 528.333 216.667 652.416 216.667 L 776.499 216.667 777.000 287.215 L 777.500 357.764 782.276 364.024 C 788.933 372.748,796.008 376.653,805.170 376.660 C 819.142 376.672,830.582 365.301,832.499 349.499 C 833.077 344.733,833.314 305.208,833.025 261.667 C 832.561 191.767,832.177 181.915,829.742 177.500 C 826.168 171.022,820.359 165.674,814.475 163.444 C 811.287 162.236,764.724 161.667,669.173 161.667 L 528.562 161.667 528.031 113.624 C 527.500 65.600,527.498 65.579,523.362 59.546 C 514.924 47.240,498.763 43.110,486.619 50.155 M491.140 315.694 C 483.585 318.453,478.984 322.352,475.246 329.163 C 472.964 333.322,472.407 340.849,471.951 373.750 L 471.402 413.333 329.785 413.333 C 174.576 413.333,183.310 412.772,174.429 423.325 C 163.817 435.937,165.934 452.519,179.475 462.849 L 185.572 467.500 328.849 467.953 L 472.125 468.406 471.211 482.953 C 469.109 516.392,449.418 550.885,410.100 590.001 C 360.524 639.322,290.887 680.287,211.605 706.770 C 169.659 720.782,120.321 730.000,87.270 730.000 C 74.909 730.000,67.678 732.617,61.356 739.378 C 49.658 751.890,51.518 770.274,65.536 780.677 C 81.361 792.421,172.115 779.766,236.317 756.864 L 254.923 750.227 255.378 848.154 L 255.833 946.080 260.000 952.231 C 268.316 964.508,287.146 968.603,298.004 960.497 C 307.366 953.507,309.110 949.237,310.000 931.129 L 310.833 914.167 528.333 914.167 L 745.833 914.167 746.667 931.129 C 747.556 949.237,749.300 953.507,758.663 960.497 C 769.520 968.604,788.351 964.508,796.667 952.231 L 800.833 946.080 801.284 833.873 C 801.532 772.160,802.191 721.667,802.748 721.667 C 803.305 721.667,828.977 736.104,859.797 753.750 C 914.496 785.068,916.059 785.833,925.294 785.833 C 932.283 785.833,935.985 784.922,939.461 782.347 C 947.560 776.346,951.667 768.716,951.667 759.671 C 951.667 749.838,948.522 743.228,941.252 737.777 C 938.272 735.542,846.208 682.516,736.667 619.941 C 627.125 557.366,534.838 504.491,531.585 502.441 L 525.669 498.714 526.898 486.440 C 527.574 479.690,528.174 472.870,528.230 471.286 C 528.327 468.583,537.160 468.378,671.380 467.953 L 814.428 467.500 820.549 462.831 C 834.442 452.232,836.070 434.830,824.375 421.925 C 816.263 412.973,822.729 413.333,670.215 413.333 L 528.598 413.333 528.049 373.624 L 527.500 333.914 522.924 327.004 C 515.556 315.877,502.934 311.386,491.140 315.694 M626.216 620.000 C 689.646 656.208,741.570 686.396,741.605 687.083 C 741.639 687.771,659.767 688.333,559.667 688.333 C 448.505 688.333,378.283 687.735,379.250 686.796 C 380.121 685.950,389.219 679.013,399.468 671.379 C 444.446 637.880,477.641 602.873,500.045 565.313 C 504.017 558.653,508.082 553.421,509.078 553.686 C 510.074 553.950,562.786 583.792,626.216 620.000 M746.272 800.417 L 745.833 857.500 528.333 857.500 L 310.833 857.500 310.395 800.417 L 309.956 743.333 528.333 743.333 L 746.710 743.333 746.272 800.417 " stroke="none" fill-rule="evenodd" fill="black"></path></svg>