<svg width="1000" height="1000" viewBox="0 0 1000 1000" version="1.1" id="svg5" xmlns="http://www.w3.org/2000/svg" xmlns:svg="http://www.w3.org/2000/svg"><path d="M120.837 77.619 C 113.544 81.431,109.830 85.148,107.270 91.196 C 102.207 103.160,105.708 116.555,115.940 124.364 L 122.233 129.167 166.950 129.660 L 211.667 130.153 211.667 290.130 C 211.667 466.190,211.081 456.417,222.216 466.194 C 233.371 475.988,235.496 475.735,285.833 458.601 C 310.583 450.177,332.205 443.296,333.881 443.309 C 335.558 443.322,375.308 466.021,422.215 493.750 C 506.612 543.642,507.597 544.167,516.796 544.167 C 532.415 544.167,543.333 533.195,543.333 517.500 C 543.333 508.974,540.612 502.588,534.742 497.338 C 532.592 495.415,502.521 477.154,467.917 456.759 C 433.313 436.363,405.013 419.186,405.029 418.588 C 405.069 417.047,652.986 332.500,657.464 332.500 C 660.066 332.500,681.392 352.147,729.826 399.167 C 767.597 435.833,801.580 467.521,805.345 469.583 C 817.066 476.004,828.320 473.650,837.860 462.784 C 848.986 450.113,846.893 437.042,831.159 420.933 C 802.477 391.566,547.079 145.303,541.873 141.994 C 537.016 138.906,534.034 138.269,526.640 138.739 C 516.332 139.394,509.196 143.601,504.281 151.922 C 500.527 158.277,500.244 170.883,503.708 177.504 C 505.147 180.255,530.400 205.755,559.825 234.170 C 589.249 262.585,613.326 286.294,613.329 286.856 C 613.331 287.419,604.521 290.966,593.750 294.738 C 567.570 303.908,267.699 406.667,267.121 406.667 C 266.871 406.667,266.667 344.423,266.667 268.348 L 266.667 130.029 548.211 129.598 L 829.756 129.167 834.461 125.680 C 851.012 113.416,851.012 91.584,834.461 79.320 L 829.756 75.833 477.795 75.421 C 160.977 75.049,125.334 75.268,120.837 77.619 M737.418 445.918 C 734.622 447.297,724.271 457.716,714.415 469.071 C 673.258 516.487,607.611 575.164,534.167 630.182 C 503.869 652.879,491.166 661.667,488.656 661.667 C 487.538 661.667,429.445 634.682,359.561 601.700 C 289.678 568.718,230.049 541.247,227.052 540.652 C 223.549 539.957,218.928 540.593,214.107 542.434 C 195.297 549.618,190.580 574.110,205.350 587.902 C 207.550 589.956,259.559 615.325,320.925 644.277 C 382.291 673.230,433.061 697.460,433.746 698.122 C 435.130 699.459,388.634 728.876,352.500 749.524 C 255.623 804.882,169.691 843.075,92.500 865.081 C 67.082 872.327,63.620 873.753,58.850 878.945 C 48.506 890.205,48.403 904.268,58.579 915.858 C 69.028 927.759,77.002 927.533,121.505 914.072 C 222.559 883.507,347.242 821.832,471.535 740.927 L 493.903 726.367 503.201 730.472 C 508.316 732.731,602.500 777.125,712.500 829.126 C 822.500 881.128,915.225 924.060,918.556 924.531 C 936.553 927.075,953.012 908.548,948.209 891.152 C 944.403 877.370,949.643 880.140,742.657 782.503 C 635.779 732.088,548.333 690.299,548.333 689.638 C 548.333 688.977,557.521 681.517,568.750 673.061 C 643.479 616.785,715.107 552.438,756.827 504.100 C 776.840 480.912,777.205 480.242,776.343 468.320 C 775.748 460.100,774.753 457.418,770.727 453.183 C 768.035 450.352,763.808 446.978,761.333 445.685 C 755.484 442.629,743.851 442.743,737.418 445.918 " stroke="none" fill-rule="evenodd" fill="black"></path></svg>