<svg width="1000" height="1000" viewBox="0 0 1000 1000" version="1.1" id="svg5" sodipodi:docname="倒.svg" inkscape:version="1.3 (0e150ed6c4, 2023-07-21)" xmlns:inkscape="http://www.inkscape.org/namespaces/inkscape" xmlns:sodipodi="http://sodipodi.sourceforge.net/DTD/sodipodi-0.dtd" xmlns="http://www.w3.org/2000/svg" xmlns:svg="http://www.w3.org/2000/svg"><path d="M670.802 97.323 C 663.785 100.380,655.317 110.545,654.371 117.048 C 653.934 120.046,652.770 159.625,651.783 205.000 C 650.003 286.898,647.194 343.737,642.477 393.333 C 641.125 407.542,639.233 427.417,638.272 437.500 C 633.097 491.773,618.405 576.885,605.762 625.833 C 578.079 733.004,541.527 799.517,477.075 860.000 C 458.139 877.770,455.025 882.498,455.010 893.504 C 454.982 914.800,480.499 927.805,497.667 915.244 C 507.370 908.144,545.506 869.616,559.771 852.500 C 615.759 785.323,655.102 684.584,678.464 548.581 C 681.480 531.028,684.371 516.694,684.890 516.727 C 685.409 516.760,733.452 604.697,791.652 712.144 C 860.778 839.759,899.528 909.619,903.401 913.612 C 917.890 928.545,942.673 921.023,948.341 899.971 C 950.082 893.507,949.921 891.581,947.082 884.860 C 945.292 880.624,888.112 774.574,820.015 649.194 L 696.202 421.229 697.194 406.865 C 697.740 398.964,699.331 376.750,700.729 357.500 C 706.244 281.606,710.550 133.170,707.680 117.875 C 707.032 114.421,704.113 108.875,701.194 105.549 C 692.499 95.646,681.489 92.666,670.802 97.323 M383.334 106.872 C 381.043 107.786,377.409 110.176,375.259 112.183 C 366.313 120.536,366.667 114.417,366.667 260.724 L 366.667 396.614 357.340 414.398 C 334.729 457.513,299.073 510.411,267.887 547.107 C 212.726 612.015,155.440 658.515,70.476 707.350 C 56.529 715.367,42.892 724.461,40.172 727.559 C 29.413 739.812,33.033 759.517,47.598 767.986 C 59.574 774.951,66.555 773.093,99.167 754.259 C 167.583 714.749,214.418 680.046,262.306 633.382 C 296.400 600.158,332.559 557.116,355.805 522.083 C 360.214 515.438,364.462 510.000,365.245 510.000 C 366.027 510.000,366.667 579.000,366.667 663.333 C 366.667 747.667,366.104 816.634,365.417 816.595 C 364.729 816.555,356.073 805.650,346.181 792.362 C 336.288 779.073,325.788 766.733,322.847 764.940 C 302.856 752.750,276.087 773.974,283.153 796.411 C 285.753 804.667,372.584 919.785,379.830 924.583 C 391.323 932.194,409.374 927.591,417.166 915.063 L 420.833 909.167 421.667 658.333 L 422.500 407.500 429.386 394.167 C 443.128 367.556,456.667 334.058,456.667 326.666 C 456.667 311.796,444.586 300.000,429.356 300.000 L 421.667 300.000 421.657 215.417 C 421.652 165.049,420.984 128.444,420.007 124.926 C 418.145 118.225,409.786 109.400,402.808 106.769 C 397.070 104.606,388.910 104.649,383.334 106.872 " stroke="none" fill-rule="evenodd" fill="black"></path></svg>