<svg width="1000" height="1000" viewBox="0 0 1000 1000" version="1.1" id="svg5" xmlns="http://www.w3.org/2000/svg" xmlns:svg="http://www.w3.org/2000/svg"><path d="M204.036 76.494 C 191.507 82.184,184.897 95.572,188.327 108.309 C 190.517 116.442,200.212 126.260,207.304 127.526 C 210.162 128.036,341.500 128.239,499.167 127.977 L 785.833 127.500 791.107 123.738 C 799.047 118.075,803.966 106.695,802.552 97.264 C 801.152 87.932,790.448 76.173,781.774 74.438 C 778.736 73.830,649.031 73.350,493.542 73.370 C 221.942 73.405,210.566 73.528,204.036 76.494 M274.870 240.250 C 268.098 241.635,261.647 246.459,257.813 253.006 C 254.956 257.883,254.800 265.956,254.944 401.320 C 255.028 480.056,254.619 545.720,254.036 547.238 C 253.068 549.763,245.179 550.000,162.268 550.000 C 63.011 550.000,64.630 549.850,56.216 559.849 C 50.218 566.978,47.932 575.907,50.098 583.751 C 51.950 590.459,58.304 598.897,63.930 602.121 C 66.583 603.641,91.259 604.381,159.961 605.000 L 252.421 605.833 251.991 620.000 C 251.156 647.501,248.127 689.514,244.868 718.812 C 235.736 800.906,221.082 853.198,195.727 894.169 C 186.441 909.172,185.194 916.667,190.322 926.653 C 200.812 947.080,224.113 948.270,238.770 929.128 C 247.805 917.328,266.978 877.410,273.975 855.833 C 282.491 829.571,289.307 800.239,294.068 769.358 C 300.647 726.687,303.081 700.359,307.607 622.917 L 308.654 605.000 494.327 605.000 L 680.000 605.000 680.000 722.500 C 680.000 787.125,679.703 840.000,679.341 840.000 C 678.978 840.000,672.222 832.582,664.326 823.516 C 656.430 814.450,647.426 805.825,644.316 804.349 C 623.395 794.421,599.818 814.465,606.436 836.553 C 607.722 840.846,619.584 855.735,644.568 884.413 C 664.514 907.309,682.853 928.702,685.323 931.953 C 697.131 947.502,721.830 946.750,731.851 930.535 C 735.144 925.207,735.210 922.232,735.519 765.471 L 735.833 605.833 834.167 605.000 C 907.513 604.378,933.407 603.647,936.070 602.121 C 946.481 596.155,952.853 581.935,949.902 571.249 C 948.050 564.541,941.696 556.103,936.070 552.879 C 933.407 551.353,907.513 550.622,834.167 550.000 L 735.833 549.167 735.537 405.833 C 735.374 327.000,734.852 260.542,734.375 258.149 C 733.238 252.431,726.245 244.253,720.435 241.847 C 715.364 239.747,284.875 238.203,274.870 240.250 M680.000 422.500 L 680.000 550.000 495.000 550.000 L 310.000 550.000 310.000 422.500 L 310.000 295.000 495.000 295.000 L 680.000 295.000 680.000 422.500 " stroke="none" fill-rule="evenodd" fill="black"></path></svg>