<svg width="1000" height="1000" viewBox="0 0 1000 1000" version="1.1" id="svg5" xmlns="http://www.w3.org/2000/svg" xmlns:svg="http://www.w3.org/2000/svg"><path d="M88.267 52.171 C 83.297 54.799,79.795 58.306,77.156 63.296 L 73.302 70.584 73.734 500.708 C 74.141 904.839,74.341 931.152,77.050 936.103 C 83.233 947.402,96.885 953.627,108.108 950.265 C 123.485 945.657,128.555 937.262,129.656 914.583 L 130.446 898.333 500.000 898.333 L 869.554 898.333 870.344 914.583 C 871.445 937.262,876.515 945.657,891.892 950.265 C 903.115 953.627,916.767 947.402,922.950 936.103 C 925.659 931.152,925.859 904.839,926.266 500.708 L 926.698 70.584 922.844 63.296 C 920.205 58.306,916.703 54.799,911.733 52.171 L 904.476 48.333 500.000 48.333 L 95.524 48.333 88.267 52.171 M870.000 473.333 L 870.000 843.333 500.000 843.333 L 130.000 843.333 130.000 473.333 L 130.000 103.333 500.000 103.333 L 870.000 103.333 870.000 473.333 M229.341 228.390 C 223.683 230.092,215.687 237.282,212.351 243.667 C 207.845 252.293,209.994 265.342,217.194 273.075 C 226.593 283.169,208.362 282.421,467.164 283.333 L 703.495 284.167 592.164 421.531 C 530.932 497.082,480.083 559.090,479.167 559.327 C 478.250 559.565,453.282 532.884,423.681 500.037 C 389.971 462.629,367.770 439.322,364.263 437.657 C 351.197 431.457,334.119 437.579,328.217 450.577 C 321.171 466.093,323.718 471.392,354.480 505.211 C 368.132 520.220,396.896 552.015,418.401 575.866 C 535.562 705.811,585.853 761.303,590.113 765.335 C 596.781 771.645,607.161 774.212,615.684 771.659 C 629.818 767.424,639.160 751.560,635.235 738.459 C 633.117 731.390,632.195 730.311,561.193 651.782 C 536.800 624.804,517.327 601.929,517.919 600.949 C 518.511 599.969,577.909 526.569,649.914 437.840 C 721.920 349.110,782.896 273.811,785.417 270.508 C 789.179 265.580,790.000 262.802,790.000 254.999 C 790.000 244.525,786.335 237.315,777.795 230.987 L 773.089 227.500 503.628 227.219 C 354.422 227.063,232.013 227.586,229.341 228.390 " stroke="none" fill-rule="evenodd" fill="#000000"></path></svg>