<svg width="1000" height="1000" viewBox="0 0 1000 1000" version="1.1" id="svg5" xmlns="http://www.w3.org/2000/svg" xmlns:svg="http://www.w3.org/2000/svg"><path d="M77.375 78.365 C 67.616 83.195,62.792 90.506,62.014 101.640 C 61.273 112.248,65.152 119.662,74.869 126.210 L 80.493 130.000 445.246 130.000 C 645.861 130.000,809.998 130.563,809.995 131.250 C 809.991 132.241,644.512 233.588,491.290 326.439 L 468.287 340.379 375.557 289.773 C 324.555 261.939,279.804 238.237,276.109 237.101 C 257.151 231.272,237.442 250.994,243.158 270.073 C 244.269 273.780,247.200 278.999,249.672 281.671 C 253.309 285.601,385.630 359.120,466.827 402.323 C 475.623 407.004,510.292 425.833,543.869 444.167 L 604.917 477.500 385.375 478.333 C 167.665 479.160,165.785 479.195,160.006 482.590 C 156.800 484.473,152.488 488.521,150.422 491.587 L 146.667 497.160 146.667 700.329 C 146.667 924.145,145.879 907.906,157.220 917.864 C 167.786 927.141,183.052 926.464,192.873 916.282 C 200.399 908.480,201.667 903.714,201.667 883.225 L 201.667 865.000 500.000 865.000 L 798.333 865.000 798.333 883.387 C 798.333 904.440,800.047 910.103,808.724 917.721 C 815.651 923.803,824.146 925.807,832.950 923.436 C 840.005 921.537,848.863 913.307,851.564 906.142 C 852.776 902.927,853.333 837.798,853.333 699.305 L 853.333 497.160 849.570 491.496 C 847.500 488.382,842.466 484.146,838.383 482.083 C 831.053 478.380,830.129 478.333,764.022 478.333 L 697.083 478.333 696.108 473.455 C 695.571 470.772,692.586 466.084,689.475 463.038 C 686.213 459.845,650.143 439.242,604.282 414.377 C 560.537 390.659,525.366 370.670,526.123 369.957 C 527.783 368.394,898.563 142.614,917.350 131.726 C 931.970 123.253,936.170 118.722,938.379 109.038 C 941.216 96.599,933.857 82.138,922.215 77.273 C 917.669 75.374,848.305 75.000,500.470 75.001 C 86.335 75.003,84.131 75.020,77.375 78.365 M797.926 672.083 L 797.500 809.167 500.000 809.167 L 202.500 809.167 202.074 672.083 L 201.647 535.000 500.000 535.000 L 798.353 535.000 797.926 672.083 " stroke="none" fill-rule="evenodd" fill="#000000"></path></svg>