<svg width="1000" height="1000" viewBox="0 0 1000 1000" version="1.1" id="svg5" sodipodi:docname="冶.svg" inkscape:version="1.3 (0e150ed6c4, 2023-07-21)" xmlns:inkscape="http://www.inkscape.org/namespaces/inkscape" xmlns:sodipodi="http://sodipodi.sourceforge.net/DTD/sodipodi-0.dtd" xmlns="http://www.w3.org/2000/svg" xmlns:svg="http://www.w3.org/2000/svg"><path d="M225.833 41.937 C 224.000 42.946,220.089 46.045,217.143 48.822 C 211.585 54.061,211.429 54.552,205.685 85.000 C 201.363 107.907,192.252 133.589,179.891 157.712 C 160.677 195.210,145.102 215.891,100.770 262.779 C 75.570 289.431,73.254 293.355,75.651 305.336 C 76.987 312.017,83.805 320.963,90.003 324.168 C 96.077 327.309,108.758 327.395,114.666 324.336 C 120.652 321.237,162.351 278.407,179.634 257.606 C 187.202 248.498,197.922 234.436,203.455 226.356 L 213.516 211.667 520.508 211.657 C 726.539 211.651,829.538 211.082,833.698 209.927 C 862.528 201.920,861.569 163.368,832.371 156.596 C 828.581 155.717,703.431 155.063,534.583 155.040 C 349.020 155.014,243.333 154.418,243.333 153.395 C 243.333 152.512,244.825 148.005,246.648 143.380 C 256.020 119.605,266.138 69.780,263.479 60.507 C 261.332 53.022,255.312 45.528,249.065 42.563 C 242.816 39.598,230.675 39.271,225.833 41.937 M220.762 279.772 C 208.032 287.535,202.600 300.237,206.834 312.344 C 210.199 321.963,350.681 459.072,360.049 461.878 C 371.542 465.322,385.360 459.956,391.676 449.599 C 395.989 442.524,396.104 429.331,391.911 422.455 C 387.500 415.221,249.313 281.231,243.783 278.825 C 236.922 275.841,226.506 276.269,220.762 279.772 M732.369 279.808 C 729.547 281.529,717.391 293.814,705.356 307.107 C 654.288 363.515,588.386 419.748,519.790 465.446 L 495.561 481.588 330.574 482.044 L 165.588 482.500 159.549 486.638 C 143.563 497.593,142.426 519.613,157.214 531.835 C 164.460 537.823,174.438 538.332,285.499 538.382 L 394.167 538.431 380.000 545.954 C 331.790 571.557,241.883 609.944,143.735 646.829 C 119.664 655.875,98.139 664.476,95.900 665.943 C 90.660 669.376,84.992 681.105,85.027 688.443 C 85.060 695.310,90.808 705.932,96.959 710.493 C 99.412 712.311,105.093 714.152,109.584 714.583 C 116.825 715.279,122.645 713.533,160.958 699.173 C 184.723 690.265,218.987 677.057,237.101 669.822 C 255.215 662.587,270.765 656.667,271.657 656.667 C 272.694 656.667,273.440 709.596,273.723 803.212 C 274.162 948.274,274.201 949.803,277.603 954.359 C 283.217 961.877,289.263 965.421,297.793 966.194 C 305.052 966.852,326.825 959.464,521.953 890.128 C 640.819 847.891,739.194 813.333,740.564 813.333 C 741.934 813.333,775.180 846.019,814.444 885.969 C 853.708 925.919,888.899 960.419,892.646 962.636 C 905.850 970.447,920.563 966.790,929.544 953.464 C 933.817 947.123,934.682 933.385,931.191 927.311 C 927.380 920.680,620.954 613.375,615.637 610.852 C 593.291 600.248,569.626 622.691,578.428 646.142 C 579.396 648.722,606.545 677.247,638.759 709.530 C 670.973 741.813,696.944 768.612,696.472 769.083 C 695.722 769.833,330.214 900.000,328.858 900.000 C 328.569 900.000,328.333 839.623,328.333 765.829 L 328.333 631.658 345.417 623.848 C 380.122 607.982,451.683 571.292,479.584 555.060 L 508.336 538.333 671.251 538.294 C 763.025 538.271,837.022 537.592,840.704 536.738 C 853.782 533.704,863.333 522.632,863.333 510.504 C 863.333 497.876,854.156 485.998,842.269 483.240 C 838.730 482.418,781.179 481.728,714.379 481.706 L 592.924 481.667 612.712 466.381 C 655.468 433.354,688.954 403.365,725.917 365.000 C 756.332 333.431,769.709 317.708,770.943 312.075 C 771.494 309.559,772.212 306.618,772.539 305.541 C 773.651 301.876,769.886 291.787,765.430 286.492 C 757.246 276.765,742.310 273.746,732.369 279.808 " stroke="none" fill-rule="evenodd" fill="#000000"></path></svg>