<svg width="1000" height="1000" viewBox="0 0 1000 1000" version="1.1" id="svg5" sodipodi:docname="刺.svg" inkscape:version="1.3 (0e150ed6c4, 2023-07-21)" xmlns:inkscape="http://www.inkscape.org/namespaces/inkscape" xmlns:sodipodi="http://sodipodi.sourceforge.net/DTD/sodipodi-0.dtd" xmlns="http://www.w3.org/2000/svg" xmlns:svg="http://www.w3.org/2000/svg"><path d="M302.124 116.822 C 298.110 118.809,293.451 122.929,291.291 126.404 C 287.503 132.495,287.499 132.571,286.667 219.994 L 285.833 307.487 276.667 308.627 C 271.625 309.255,240.500 312.829,207.500 316.570 C 174.500 320.311,144.537 324.189,140.917 325.186 C 132.361 327.544,124.113 335.915,121.769 344.622 C 118.498 356.768,123.648 368.420,135.143 374.880 C 141.495 378.450,143.402 378.706,156.476 377.749 C 169.875 376.769,262.180 366.317,277.917 363.998 L 285.000 362.955 285.000 458.977 C 285.000 511.790,284.438 555.011,283.750 555.025 C 283.063 555.039,274.250 556.569,264.167 558.424 C 254.083 560.279,222.078 565.844,193.044 570.790 C 164.009 575.736,138.013 580.942,135.274 582.358 C 128.749 585.733,123.755 592.243,121.625 600.155 C 117.214 616.537,130.720 633.333,148.305 633.333 C 155.484 633.333,191.045 627.642,247.737 617.419 C 265.284 614.255,280.765 611.667,282.139 611.667 C 284.293 611.667,284.751 619.310,285.455 667.083 C 286.207 718.127,286.599 724.013,290.423 741.667 C 306.558 816.159,347.281 864.982,407.500 882.032 L 420.833 885.807 635.000 886.291 C 873.863 886.831,858.683 887.541,867.945 875.398 C 871.774 870.378,872.500 867.781,872.500 859.104 L 872.500 848.783 813.586 760.380 C 781.184 711.758,752.684 670.080,750.253 667.761 C 741.325 659.246,729.836 657.766,719.323 663.777 C 708.476 669.980,703.226 680.177,704.679 692.224 C 705.009 694.962,723.464 724.295,748.594 762.026 C 772.434 797.820,792.342 828.154,792.834 829.436 C 793.597 831.424,766.903 831.689,610.614 831.241 C 410.502 830.669,422.134 831.243,401.862 820.944 C 378.640 809.146,357.859 780.217,348.299 746.377 C 341.905 723.742,340.067 702.226,340.033 649.583 C 340.015 622.313,340.230 600.000,340.511 600.000 C 340.792 600.000,359.355 596.314,381.761 591.808 C 500.139 568.005,695.977 521.425,705.156 514.889 C 725.398 500.475,717.510 468.152,693.107 465.514 C 687.636 464.923,671.789 468.249,629.167 478.937 C 519.085 506.540,343.188 545.410,340.504 542.726 C 340.029 542.251,340.196 499.818,340.876 448.431 L 342.113 355.000 346.043 355.000 C 348.204 355.000,373.791 351.590,402.903 347.422 C 500.465 333.455,600.893 316.348,608.539 312.394 C 624.941 303.912,627.886 280.603,614.087 268.487 C 604.472 260.045,598.652 259.426,573.169 264.132 C 522.651 273.462,352.110 300.000,342.674 300.000 C 342.120 300.000,341.654 262.688,341.639 217.083 C 341.612 134.353,341.603 134.152,337.882 127.500 C 333.696 120.016,322.536 113.332,314.230 113.335 C 311.445 113.335,305.998 114.905,302.124 116.822 " stroke="none" fill-rule="evenodd" fill="black"></path></svg>