<svg width="1000" height="1000" viewBox="0 0 1000 1000" version="1.1" id="svg5" sodipodi:docname="力.svg" inkscape:version="1.2.1 (9c6d41e410, 2022-07-14)" xmlns:inkscape="http://www.inkscape.org/namespaces/inkscape" xmlns:sodipodi="http://sodipodi.sourceforge.net/DTD/sodipodi-0.dtd" xmlns="http://www.w3.org/2000/svg" xmlns:svg="http://www.w3.org/2000/svg"><path d="M112.465 91.540 C 88.289 97.381,83.434 128.796,104.667 141.999 L 110.833 145.833 234.705 146.301 L 358.576 146.769 357.688 151.301 C 357.200 153.794,353.733 173.458,349.984 195.000 C 294.555 513.445,213.046 715.762,69.774 890.522 C 58.877 903.814,53.033 912.408,52.325 916.181 C 47.871 939.921,72.053 958.215,92.036 946.223 C 103.044 939.616,146.906 883.702,179.940 834.167 C 266.071 705.008,326.180 558.957,369.946 372.500 C 373.819 356.000,377.267 341.563,377.608 340.417 C 378.097 338.777,402.178 338.333,490.764 338.333 L 603.300 338.333 602.257 551.250 C 601.163 774.738,601.491 789.286,608.398 823.500 C 622.079 891.270,660.455 929.235,729.378 943.183 C 757.557 948.886,784.987 950.231,861.963 949.684 C 932.468 949.183,934.904 949.058,939.360 945.730 C 948.269 939.076,950.837 933.925,950.793 922.794 L 950.753 912.500 902.705 826.667 C 876.279 779.458,852.412 738.473,849.668 735.588 C 842.986 728.564,832.477 725.614,823.893 728.355 C 810.810 732.531,802.063 745.465,803.760 758.123 C 804.261 761.852,818.471 789.086,840.620 828.766 C 860.446 864.283,876.667 893.715,876.667 894.171 C 876.667 894.627,857.958 895.000,835.091 895.000 C 705.190 895.000,674.052 878.377,660.393 801.736 C 657.812 787.254,657.556 764.162,657.530 543.209 L 657.500 300.585 652.697 294.282 C 643.992 282.860,650.015 283.333,513.387 283.333 C 442.415 283.333,390.000 282.703,390.000 281.850 C 390.000 281.034,391.525 272.972,393.389 263.933 C 398.062 241.278,411.107 167.936,412.538 156.279 L 413.710 146.724 643.105 146.279 L 872.500 145.833 878.666 141.999 C 887.365 136.590,892.051 128.304,892.051 118.333 C 892.051 108.362,887.365 100.076,878.666 94.667 L 872.500 90.833 495.000 90.578 C 287.375 90.438,115.234 90.871,112.465 91.540 " stroke="none" fill-rule="evenodd" fill="black"></path></svg>