<svg width="1000" height="1000" viewBox="0 0 1000 1000" version="1.1" id="svg5" xml:space="preserve" xmlns="http://www.w3.org/2000/svg" xmlns:svg="http://www.w3.org/2000/svg"><path d="M565.717 77.022 C 561.138 77.960,556.841 80.554,552.492 85.008 C 546.786 90.851,545.979 92.703,545.424 101.219 C 544.960 108.336,545.581 112.194,547.815 116.072 C 549.475 118.953,579.333 154.790,614.167 195.710 C 649.000 236.630,677.750 270.835,678.056 271.722 C 678.411 272.753,614.635 273.333,500.972 273.333 C 403.271 273.333,323.333 273.071,323.333 272.751 C 323.333 272.431,328.491 261.368,334.794 248.168 C 355.128 205.584,376.517 148.827,384.195 117.082 C 386.963 105.640,386.966 104.598,384.259 97.510 C 380.624 87.991,371.637 80.450,362.251 79.042 C 353.684 77.758,341.822 82.752,336.873 89.726 C 335.140 92.169,330.955 103.542,327.573 115.000 C 302.524 199.871,255.867 290.736,203.910 355.833 C 186.964 377.065,150.098 414.574,130.912 430.104 C 123.621 436.005,106.435 448.333,92.719 457.500 C 79.004 466.667,66.302 476.173,64.492 478.626 C 59.970 484.754,58.872 497.983,62.330 504.671 C 68.057 515.746,81.140 523.009,91.186 520.689 C 106.430 517.170,154.482 483.574,188.320 452.778 L 200.833 441.389 201.667 551.111 L 202.500 660.833 206.334 666.999 C 208.443 670.391,212.943 674.891,216.334 676.999 L 222.500 680.833 344.514 681.667 L 466.528 682.500 461.621 696.667 C 433.640 777.443,368.320 835.349,280.354 857.357 C 255.641 863.540,231.943 866.776,201.381 868.142 C 175.321 869.307,173.188 869.653,167.058 873.710 C 147.340 886.758,152.934 918.103,175.833 922.890 C 185.873 924.988,231.242 922.411,256.566 918.304 C 309.897 909.654,358.449 891.318,397.637 865.026 C 458.904 823.923,503.324 761.220,520.451 691.667 L 522.708 682.500 631.971 682.071 L 741.233 681.643 742.349 691.506 C 744.207 707.927,753.572 718.205,767.933 719.585 C 781.075 720.848,793.789 711.741,796.760 698.936 C 799.013 689.228,798.746 444.055,796.474 435.871 C 791.218 416.939,767.795 408.920,753.323 421.098 C 742.071 430.566,742.550 425.930,742.018 530.417 L 741.537 625.000 634.935 625.000 L 528.333 625.000 528.333 476.667 L 528.333 328.333 627.350 328.333 L 726.367 328.333 737.057 340.417 C 742.937 347.063,779.318 389.710,817.905 435.189 C 856.492 480.669,890.052 519.443,892.482 521.355 C 899.546 526.912,910.121 527.712,919.091 523.370 C 929.358 518.400,933.854 511.653,934.591 500.109 C 935.041 493.065,934.413 489.630,931.978 485.833 C 926.806 477.766,595.365 87.964,589.275 82.786 C 582.552 77.070,574.778 75.168,565.717 77.022 M471.667 476.667 L 471.667 625.000 365.000 625.000 L 258.333 625.000 258.294 534.583 C 258.272 484.854,257.571 441.225,256.738 437.629 C 253.988 425.773,245.422 417.448,233.865 415.400 L 226.901 414.167 240.148 398.333 C 247.433 389.625,259.943 373.222,267.947 361.882 C 275.951 350.542,284.567 338.354,287.094 334.799 L 291.688 328.333 381.677 328.333 L 471.667 328.333 471.667 476.667 " stroke="none" fill-rule="evenodd" fill="black"></path></svg>