<svg width="1000" height="1000" viewBox="0 0 1000 1000" version="1.1" id="svg5" sodipodi:docname="包.svg" inkscape:version="1.3.2 (091e20e, 2023-11-25, custom)" xmlns:inkscape="http://www.inkscape.org/namespaces/inkscape" xmlns:sodipodi="http://sodipodi.sourceforge.net/DTD/sodipodi-0.dtd" xmlns="http://www.w3.org/2000/svg" xmlns:svg="http://www.w3.org/2000/svg"><path d="M150.751 137.252 C 143.992 140.319,137.026 148.829,135.841 155.466 C 135.314 158.418,135.096 315.466,135.358 504.461 L 135.833 848.089 139.270 852.692 C 141.160 855.223,144.777 858.840,147.308 860.730 L 151.911 864.167 480.955 864.596 L 810.000 865.025 810.000 883.399 C 810.000 903.709,811.701 909.799,819.378 916.977 C 828.651 925.647,838.030 927.058,849.497 921.507 C 854.334 919.165,858.095 915.657,860.901 910.867 L 865.089 903.722 865.026 530.929 C 864.956 123.426,865.681 151.743,855.098 142.838 C 848.520 137.303,843.705 136.003,833.877 137.111 C 824.291 138.192,818.512 142.381,813.750 151.701 L 810.000 159.040 810.000 484.520 L 810.000 810.000 500.000 810.000 L 190.000 810.000 190.000 483.860 L 190.000 157.719 186.524 150.538 C 184.612 146.588,180.743 141.716,177.926 139.710 C 171.623 135.221,157.951 133.985,150.751 137.252 " stroke="none" fill-rule="evenodd" fill="black"></path></svg>