<svg width="1000" height="1000" viewBox="0 0 1000 1000" version="1.1" id="svg5" xmlns="http://www.w3.org/2000/svg" xmlns:svg="http://www.w3.org/2000/svg"><path d="M196.600 88.838 C 191.628 91.467,188.128 94.973,185.487 99.967 L 181.631 107.259 182.065 328.335 L 182.500 549.411 186.667 555.564 C 202.091 578.338,236.667 567.981,236.667 540.587 L 236.667 531.667 354.167 531.667 L 471.667 531.667 471.667 593.333 L 471.667 655.000 323.280 655.000 C 159.432 655.000,167.730 654.458,159.135 665.727 C 148.723 679.378,153.399 699.034,168.836 706.507 C 175.996 709.973,177.201 710.000,323.860 710.000 L 471.667 710.000 471.667 784.138 L 471.667 858.276 287.917 858.721 L 104.167 859.167 98.001 863.001 C 89.559 868.250,85.000 876.141,85.000 885.505 C 85.000 889.691,85.667 894.870,86.481 897.013 C 89.209 904.188,98.292 911.382,106.973 913.243 C 118.433 915.701,881.567 915.701,893.027 913.243 C 901.708 911.382,910.791 904.188,913.519 897.013 C 914.333 894.870,915.000 889.691,915.000 885.505 C 915.000 876.141,910.441 868.250,901.999 863.001 L 895.833 859.167 712.083 858.721 L 528.333 858.276 528.333 784.138 L 528.333 710.000 676.405 710.000 L 824.476 710.000 831.733 706.162 C 846.389 698.412,850.974 678.981,841.179 666.138 C 832.186 654.348,841.810 655.000,676.831 655.000 L 528.333 655.000 528.333 593.333 L 528.333 531.667 645.833 531.667 L 763.333 531.667 763.333 540.587 C 763.333 561.317,783.556 574.215,801.969 565.229 C 805.928 563.297,811.042 558.948,813.333 555.564 L 817.500 549.411 817.935 329.262 L 818.369 109.113 814.601 101.737 C 810.004 92.739,804.333 88.397,794.764 86.548 C 790.769 85.777,656.180 85.113,495.679 85.073 L 203.858 85.000 196.600 88.838 M471.667 211.678 L 471.667 281.689 354.583 281.261 L 237.500 280.833 237.065 211.250 L 236.630 141.667 354.148 141.667 L 471.667 141.667 471.667 211.678 M762.935 211.250 L 762.500 280.833 645.417 281.261 L 528.333 281.689 528.333 211.678 L 528.333 141.667 645.852 141.667 L 763.370 141.667 762.935 211.250 M471.667 406.678 L 471.667 476.689 354.583 476.261 L 237.500 475.833 237.065 406.250 L 236.630 336.667 354.148 336.667 L 471.667 336.667 471.667 406.678 M762.935 406.250 L 762.500 475.833 645.417 476.261 L 528.333 476.689 528.333 406.678 L 528.333 336.667 645.852 336.667 L 763.370 336.667 762.935 406.250 " stroke="none" fill-rule="evenodd" fill="black"></path></svg>