<svg width="1000" height="1000" viewBox="0 0 1000 1000" version="1.1" id="svg5" sodipodi:docname="卵.svg" inkscape:version="1.3 (0e150ed6c4, 2023-07-21)" xmlns:inkscape="http://www.inkscape.org/namespaces/inkscape" xmlns:sodipodi="http://sodipodi.sourceforge.net/DTD/sodipodi-0.dtd" xmlns="http://www.w3.org/2000/svg" xmlns:svg="http://www.w3.org/2000/svg"><path d="M143.538 83.337 C 136.447 85.011,130.229 89.579,125.417 96.650 L 121.667 102.160 121.667 206.967 C 121.667 322.863,121.331 319.094,132.393 327.532 C 145.656 337.647,164.955 333.289,172.829 318.400 L 176.667 311.142 176.667 224.738 L 176.667 138.333 500.132 138.333 L 823.598 138.333 822.631 142.917 C 819.541 157.566,795.000 303.880,795.000 307.657 C 795.000 310.160,796.947 315.529,799.327 319.590 C 810.190 338.127,836.629 337.404,846.275 318.307 C 849.154 312.605,853.994 287.641,866.691 212.995 C 875.844 159.185,883.333 112.233,883.333 108.659 C 883.333 97.406,873.343 86.194,860.704 83.262 C 852.609 81.385,151.497 81.458,143.538 83.337 M328.368 281.860 C 322.500 284.201,318.458 288.226,314.823 295.350 C 311.825 301.225,311.667 306.790,311.667 406.600 L 311.667 511.667 197.917 511.706 C 135.354 511.728,81.225 512.429,77.629 513.262 C 68.463 515.388,63.130 519.750,58.564 528.856 C 55.382 535.201,54.844 538.149,55.756 544.230 C 57.188 553.782,66.255 563.827,75.833 566.473 C 80.401 567.735,118.658 568.318,197.321 568.324 L 312.143 568.333 311.135 610.417 C 310.090 654.086,308.819 667.707,303.163 695.833 C 289.984 761.371,253.625 819.364,200.148 860.143 C 181.627 874.267,179.167 877.748,179.167 889.835 C 179.167 897.773,179.971 900.481,183.836 905.548 C 193.046 917.623,207.474 920.464,220.450 912.757 C 231.351 906.283,253.018 888.302,268.757 872.670 C 320.376 821.398,351.910 754.120,363.361 670.833 C 364.370 663.500,365.625 637.438,366.151 612.917 L 367.107 568.333 498.554 568.333 L 630.000 568.333 630.000 731.314 L 630.000 894.294 633.750 901.633 C 644.012 921.715,668.157 922.588,681.250 903.350 L 685.000 897.840 685.000 733.087 L 685.000 568.333 806.250 568.324 C 889.124 568.318,929.585 567.736,934.088 566.486 C 947.986 562.627,957.497 546.575,953.598 533.559 C 951.169 525.453,946.212 519.091,939.436 515.383 C 934.596 512.735,924.010 512.462,809.583 512.033 L 685.000 511.565 685.000 405.196 L 685.000 298.826 681.210 293.203 C 674.642 283.456,667.255 279.606,656.558 280.353 C 645.126 281.152,638.251 285.675,633.476 295.538 C 630.066 302.583,630.000 304.692,630.000 407.193 L 630.000 511.667 498.369 511.667 L 366.738 511.667 366.286 404.288 C 365.839 298.302,365.788 296.848,362.347 292.205 C 354.217 281.235,340.443 277.042,328.368 281.860 " stroke="none" fill-rule="evenodd" fill="black"></path></svg>