<svg width="1000" height="1000" viewBox="0 0 1000 1000" version="1.1" id="svg5" sodipodi:docname="хПо.svg" inkscape:version="1.3 (0e150ed6c4, 2023-07-21)" xml:space="preserve" xmlns:inkscape="http://www.inkscape.org/namespaces/inkscape" xmlns:sodipodi="http://sodipodi.sourceforge.net/DTD/sodipodi-0.dtd" xmlns="http://www.w3.org/2000/svg" xmlns:svg="http://www.w3.org/2000/svg"><path d="M534.167 138.333 C 480.598 138.942,459.871 139.718,457.263 141.212 C 455.299 142.338,451.766 145.548,449.410 148.348 C 437.660 162.312,441.738 181.086,458.367 189.583 C 465.562 193.260,466.844 193.333,523.686 193.333 C 571.646 193.333,581.667 193.728,581.667 195.615 C 581.667 200.144,569.897 292.329,564.891 327.013 C 541.027 492.341,509.772 617.189,464.215 729.167 C 453.319 755.948,425.278 813.945,410.244 840.795 C 398.993 860.889,397.518 868.433,402.705 879.364 C 410.040 894.821,432.195 898.806,445.047 886.980 C 450.230 882.211,465.094 856.403,481.352 823.946 C 539.827 707.203,579.891 574.982,608.893 403.031 L 616.010 360.833 672.329 360.394 L 728.649 359.955 728.074 557.061 C 727.549 737.510,727.745 755.873,730.404 774.354 C 733.994 799.306,739.870 820.322,747.817 836.630 C 756.220 853.873,774.344 871.889,792.034 880.583 C 813.445 891.106,828.814 893.511,881.153 894.527 C 906.079 895.011,929.923 894.890,934.140 894.258 C 947.132 892.310,958.333 879.620,958.333 866.852 C 958.333 861.647,903.978 717.067,898.068 706.551 C 888.986 690.391,865.389 688.987,853.192 703.881 C 849.361 708.559,846.508 719.824,847.827 725.066 C 848.394 727.321,858.115 753.469,869.429 783.172 C 880.743 812.875,890.000 837.904,890.000 838.790 C 890.000 841.094,843.353 838.644,830.037 835.640 C 802.179 829.357,791.681 813.508,785.835 768.910 C 783.724 752.813,783.333 716.866,783.333 539.028 C 783.333 363.737,782.947 327.323,781.039 322.863 C 778.264 316.377,770.860 309.185,764.475 306.773 C 761.440 305.626,735.822 305.000,691.941 305.000 L 624.100 305.000 630.594 251.250 C 634.166 221.688,637.345 196.563,637.658 195.417 C 638.108 193.772,665.854 193.333,769.279 193.333 C 915.082 193.333,906.775 193.974,916.669 181.970 C 927.116 169.296,923.730 150.947,909.394 142.545 L 902.441 138.470 754.970 137.985 C 673.862 137.718,574.500 137.875,534.167 138.333 M78.538 194.944 C 71.893 196.583,65.695 200.936,60.936 207.306 C 57.627 211.737,57.481 214.282,56.987 276.370 C 56.645 319.278,57.078 342.898,58.281 347.008 C 62.519 361.486,76.956 370.335,90.693 366.876 C 94.790 365.844,98.482 365.000,98.897 365.000 C 99.311 365.000,99.764 401.291,99.904 445.646 L 100.158 526.292 76.329 526.966 C 48.854 527.743,42.350 529.853,35.492 540.216 C 28.388 550.951,30.315 567.068,39.719 575.579 C 46.167 581.414,54.977 583.184,77.954 583.260 L 100.074 583.333 99.893 682.304 C 99.697 789.284,99.439 785.950,108.592 794.472 C 125.910 810.597,155.000 797.036,155.000 772.839 L 155.000 766.731 261.250 767.115 L 367.500 767.500 368.596 776.479 C 370.415 791.381,379.324 800.152,393.681 801.177 C 405.242 802.002,414.032 797.106,419.458 786.821 L 423.333 779.476 423.333 681.405 L 423.333 583.333 444.583 583.324 C 470.528 583.313,476.259 581.866,483.908 573.400 C 493.402 562.891,494.086 548.445,485.568 538.323 C 477.805 529.096,473.134 527.719,447.083 526.975 L 423.333 526.296 423.333 444.900 L 423.333 363.503 429.436 366.053 C 440.736 370.775,454.736 365.308,461.313 353.605 C 464.947 347.141,465.000 346.085,465.000 280.436 C 465.000 213.913,464.995 213.819,461.210 208.203 C 459.126 205.110,454.890 200.874,451.797 198.790 L 446.174 195.000 269.962 195.000 C 173.045 195.000,91.594 194.675,88.958 194.278 C 86.323 193.881,81.634 194.181,78.538 194.944 M410.367 298.410 L 410.833 346.821 406.667 345.494 C 401.020 343.695,118.262 343.793,114.583 345.595 C 111.840 346.939,111.667 344.146,111.667 298.512 L 111.667 250.000 260.784 250.000 L 409.902 250.000 410.367 298.410 M233.333 462.500 L 233.333 526.667 194.167 526.667 L 155.000 526.667 155.000 462.500 L 155.000 398.333 194.167 398.333 L 233.333 398.333 233.333 462.500 M368.333 462.500 L 368.333 526.667 328.333 526.667 L 288.333 526.667 288.333 463.611 C 288.333 428.931,288.833 400.056,289.444 399.444 C 290.056 398.833,308.056 398.333,329.444 398.333 L 368.333 398.333 368.333 462.500 M233.333 647.500 L 233.333 711.667 194.167 711.667 L 155.000 711.667 155.000 647.500 L 155.000 583.333 194.167 583.333 L 233.333 583.333 233.333 647.500 M368.333 647.500 L 368.333 711.667 328.333 711.667 L 288.333 711.667 288.333 647.500 L 288.333 583.333 328.333 583.333 L 368.333 583.333 368.333 647.500 " stroke="none" fill-rule="evenodd" fill="black"></path></svg>