<svg width="1000" height="1000" viewBox="0 0 1000 1000" version="1.1" id="svg5" sodipodi:docname="味.svg" inkscape:version="1.3 (0e150ed6c4, 2023-07-21)" xmlns:inkscape="http://www.inkscape.org/namespaces/inkscape" xmlns:sodipodi="http://sodipodi.sourceforge.net/DTD/sodipodi-0.dtd" xmlns="http://www.w3.org/2000/svg" xmlns:svg="http://www.w3.org/2000/svg"><path d="M157.500 158.333 L 50.833 159.167 45.560 162.928 C 39.910 166.958,33.333 178.694,33.333 184.746 C 33.333 189.463,37.620 199.765,41.314 203.924 C 42.883 205.692,47.167 208.515,50.833 210.199 C 57.044 213.051,63.803 213.263,149.583 213.297 L 241.667 213.333 241.667 536.856 L 241.667 860.379 245.353 866.939 C 247.381 870.546,251.693 875.148,254.937 877.166 L 260.833 880.833 475.000 881.667 L 689.167 882.500 690.000 910.000 C 690.908 939.972,691.520 942.176,700.926 949.350 C 713.985 959.311,733.348 954.843,741.162 940.067 L 745.000 932.809 745.000 573.110 L 745.000 213.411 843.040 212.955 L 941.080 212.500 947.118 208.362 C 964.359 196.546,964.147 173.969,946.684 162.083 L 941.174 158.333 832.670 158.310 C 772.993 158.297,620.667 158.109,494.167 157.893 C 367.667 157.677,216.167 157.875,157.500 158.333 M689.588 519.583 L 689.167 825.833 492.917 826.257 L 296.667 826.680 296.667 520.007 L 296.667 213.333 493.338 213.333 L 690.009 213.333 689.588 519.583 " stroke="none" fill-rule="evenodd" fill="black"></path></svg>