<svg width="1000" height="1000" viewBox="0 0 1000 1000" version="1.1" id="svg5" sodipodi:docname="哦.svg" inkscape:version="1.4.2 (f4327f4, 2025-05-13)" xmlns:inkscape="http://www.inkscape.org/namespaces/inkscape" xmlns:sodipodi="http://sodipodi.sourceforge.net/DTD/sodipodi-0.dtd" xmlns="http://www.w3.org/2000/svg" xmlns:svg="http://www.w3.org/2000/svg"><path d="M70.802 68.978 C 58.498 74.367,50.927 90.159,54.891 102.169 C 57.046 108.699,65.520 117.382,72.192 119.898 C 75.195 121.030,99.335 121.667,139.275 121.667 L 201.667 121.667 201.655 127.917 C 201.623 145.726,188.924 278.381,182.311 330.000 C 180.020 347.875,177.421 368.427,176.535 375.672 C 170.594 424.221,155.902 513.566,144.168 572.500 C 123.348 677.075,99.875 766.181,69.000 857.843 C 54.077 902.146,53.270 905.243,54.986 911.615 C 60.246 931.147,82.123 939.342,97.564 927.564 C 104.633 922.172,106.078 919.390,114.911 894.167 C 161.237 761.884,197.605 609.975,222.446 445.000 C 225.690 423.458,228.750 403.396,229.247 400.417 L 230.151 395.000 303.409 395.000 L 376.667 395.000 376.650 404.583 C 376.557 457.682,369.032 578.437,361.565 646.667 C 356.053 697.032,337.572 809.651,334.278 812.944 C 333.810 813.412,332.723 812.004,331.862 809.814 C 331.002 807.625,320.120 781.833,307.680 752.500 C 288.301 706.805,284.187 698.395,278.955 693.780 C 264.267 680.825,243.009 686.813,235.694 705.966 C 233.316 712.192,233.163 714.526,234.779 719.918 C 239.091 734.312,318.539 919.177,322.051 922.990 C 326.938 928.296,334.967 931.667,342.717 931.667 C 350.626 931.667,362.521 924.739,365.929 918.148 C 367.367 915.367,372.576 895.708,377.505 874.462 C 407.097 746.887,421.010 645.574,428.355 504.167 C 431.061 452.063,432.893 368.307,431.469 361.796 C 429.915 354.690,425.499 348.615,418.350 343.750 L 412.840 340.000 325.865 340.000 C 278.028 340.000,238.528 339.639,238.086 339.197 C 237.645 338.756,238.255 329.943,239.443 319.614 C 244.049 279.561,251.615 200.825,254.219 165.833 C 255.720 145.667,257.270 127.497,257.663 125.456 L 258.377 121.745 355.734 121.289 C 451.547 120.841,453.166 120.778,457.796 117.347 C 465.894 111.345,470.000 103.715,470.000 94.671 C 470.000 84.611,466.859 78.255,458.882 72.169 L 452.760 67.500 264.297 67.137 C 111.082 66.842,74.892 67.187,70.802 68.978 M533.333 93.803 C 528.299 96.465,524.806 99.951,522.161 104.952 L 518.313 112.229 518.740 519.153 L 519.167 926.078 523.305 932.117 C 535.120 949.359,557.697 949.148,569.583 931.684 C 573.057 926.580,573.333 924.347,573.333 901.420 L 573.333 876.667 724.167 876.667 L 875.000 876.667 875.009 897.917 C 875.021 923.905,876.461 929.587,884.991 937.294 C 892.610 944.177,897.500 945.774,907.040 944.495 C 918.711 942.929,927.701 933.945,930.118 921.430 C 932.175 910.786,931.986 122.573,929.925 113.637 C 927.918 104.934,923.315 98.385,916.165 94.059 C 910.990 90.928,905.405 90.820,725.745 90.382 L 540.656 89.930 533.333 93.803 M696.667 483.333 L 696.667 820.000 635.000 820.000 L 573.333 820.000 573.333 483.333 L 573.333 146.667 635.000 146.667 L 696.667 146.667 696.667 483.333 M875.000 483.333 L 875.000 820.000 813.333 820.000 L 751.667 820.000 751.667 483.333 L 751.667 146.667 813.333 146.667 L 875.000 146.667 875.000 483.333 " stroke="none" fill-rule="evenodd" fill="black"></path></svg>