<svg width="1000" height="1000" viewBox="0 0 1000 1000" version="1.1" id="svg5" sodipodi:docname="哦.svg" inkscape:version="1.4 (86a8ad7, 2024-10-11)" xmlns:inkscape="http://www.inkscape.org/namespaces/inkscape" xmlns:sodipodi="http://sodipodi.sourceforge.net/DTD/sodipodi-0.dtd" xmlns="http://www.w3.org/2000/svg" xmlns:svg="http://www.w3.org/2000/svg"><path d="M69.167 66.468 C 59.966 70.736,54.925 76.742,52.411 86.431 C 48.251 102.471,55.004 115.994,70.386 122.420 C 75.577 124.590,86.284 125.000,137.685 125.000 L 198.810 125.000 197.688 142.083 C 194.521 190.287,185.002 285.481,177.397 345.000 C 151.742 545.772,118.079 701.605,68.244 850.293 C 57.954 880.995,51.667 902.354,51.667 906.610 C 51.667 916.012,57.060 925.777,65.245 931.193 C 79.582 940.681,100.480 935.426,108.110 920.415 C 117.350 902.236,150.303 797.323,167.396 731.667 C 192.752 634.269,218.227 505.404,230.245 413.750 L 232.267 398.333 303.051 398.333 L 373.835 398.333 372.713 433.750 C 369.450 536.725,362.396 625.655,351.525 700.833 C 346.253 737.299,335.884 795.296,333.704 800.519 C 332.789 802.709,326.795 790.123,311.874 754.686 C 300.561 727.817,289.518 702.711,287.334 698.895 C 275.374 677.999,245.802 678.826,234.815 700.363 C 228.092 713.541,228.254 714.058,270.038 812.817 C 320.292 931.594,316.636 923.829,324.876 929.283 C 338.448 938.264,355.058 935.835,365.580 923.331 C 370.323 917.693,370.613 916.793,378.986 881.667 C 414.385 733.153,430.830 594.519,434.441 414.167 C 435.473 362.603,435.395 360.612,432.098 354.167 C 427.945 346.047,424.269 342.584,416.243 339.230 C 410.997 337.038,397.935 336.667,326.165 336.667 C 279.996 336.667,241.882 336.326,241.466 335.911 C 241.050 335.495,242.406 320.307,244.478 302.161 C 247.686 274.079,255.225 193.598,259.592 140.833 L 260.833 125.833 356.790 125.000 L 452.747 124.167 459.505 119.693 C 477.967 107.473,477.507 81.135,458.606 68.183 L 452.745 64.167 264.289 63.772 C 83.783 63.393,75.552 63.507,69.167 66.468 M539.509 88.470 C 532.172 89.664,522.640 96.719,518.748 103.836 C 515.999 108.864,515.809 131.998,515.403 510.800 C 515.122 773.640,515.550 915.554,516.642 921.462 C 521.946 950.158,555.410 957.527,571.817 933.613 C 575.487 928.264,575.905 925.666,576.667 903.463 L 577.500 879.167 725.000 879.167 L 872.500 879.167 873.333 903.333 C 874.232 929.381,875.773 934.767,884.238 941.425 C 899.310 953.281,921.606 948.173,929.941 930.954 C 933.324 923.966,933.333 922.881,933.333 517.741 C 933.333 115.451,933.301 111.471,930.015 105.030 C 925.298 95.783,916.578 89.643,907.013 88.832 C 894.278 87.752,546.027 87.409,539.509 88.470 M694.167 483.333 L 694.167 817.500 635.417 817.938 L 576.667 818.376 576.667 484.466 C 576.667 300.815,577.176 150.046,577.799 149.423 C 578.422 148.800,604.859 148.488,636.549 148.729 L 694.167 149.167 694.167 483.333 M872.921 482.917 L 872.500 817.500 813.750 817.938 L 755.000 818.376 755.000 484.466 C 755.000 300.815,755.500 150.056,756.111 149.444 C 756.722 148.833,783.349 148.333,815.282 148.333 L 873.341 148.333 872.921 482.917 " stroke="none" fill-rule="evenodd" fill="black"></path></svg>