<svg width="1000" height="1000" viewBox="0 0 1000 1000" version="1.1" id="svg5" sodipodi:docname="哦.svg" inkscape:version="1.3 (0e150ed6c4, 2023-07-21)" xmlns:inkscape="http://www.inkscape.org/namespaces/inkscape" xmlns:sodipodi="http://sodipodi.sourceforge.net/DTD/sodipodi-0.dtd" xmlns="http://www.w3.org/2000/svg" xmlns:svg="http://www.w3.org/2000/svg"><path d="M528.194 158.743 C 525.062 160.824,520.813 165.867,518.750 169.950 L 515.000 177.373 515.000 503.604 C 515.000 723.346,515.566 832.476,516.735 837.925 C 519.621 851.385,530.165 860.385,543.045 860.385 C 562.917 860.385,571.461 848.423,571.594 820.417 L 571.667 805.000 724.857 805.000 L 878.046 805.000 878.607 824.051 C 879.080 840.148,879.699 843.814,882.603 847.698 C 893.435 862.187,910.492 864.716,923.508 853.764 C 934.024 844.915,933.333 869.271,933.333 507.389 C 933.333 138.717,934.349 169.758,921.979 160.323 L 916.093 155.833 724.991 155.396 L 533.888 154.959 528.194 158.743 M72.465 168.215 C 48.297 174.011,43.435 205.464,64.667 218.666 C 70.788 222.472,71.312 222.504,136.131 223.005 L 201.428 223.510 200.707 228.839 C 200.310 231.769,198.840 245.417,197.440 259.167 C 175.623 473.496,127.804 668.753,60.149 819.768 C 53.805 833.929,51.667 840.695,51.667 846.605 C 51.667 864.624,69.822 877.501,87.159 871.779 C 95.108 869.156,101.245 862.664,106.173 851.667 C 157.462 737.216,193.754 619.469,220.728 480.000 C 224.008 463.042,227.076 447.479,227.544 445.417 L 228.397 441.667 303.627 441.667 L 378.857 441.667 377.734 474.101 C 375.207 547.072,367.114 625.132,355.916 684.561 C 348.672 723.003,337.286 770.026,335.234 769.972 C 334.647 769.956,323.292 749.560,310.000 724.646 C 296.708 699.733,283.993 677.144,281.744 674.448 C 267.628 657.526,240.761 664.550,234.854 686.706 C 232.239 696.513,230.765 693.318,281.192 787.162 C 307.948 836.955,323.706 864.557,326.520 866.556 C 339.977 876.120,358.332 872.835,366.444 859.411 C 373.572 847.614,399.897 748.527,409.903 695.833 C 422.943 627.157,429.771 559.903,433.606 462.383 L 435.642 410.598 431.571 402.383 C 428.732 396.653,425.482 393.040,420.833 390.444 C 414.172 386.725,414.096 386.721,326.528 386.694 C 278.326 386.679,238.529 386.306,238.088 385.866 C 237.648 385.426,239.362 370.334,241.898 352.328 C 244.433 334.322,248.416 301.870,250.749 280.212 C 253.083 258.554,255.423 236.896,255.949 232.083 L 256.907 223.333 351.370 223.324 C 411.207 223.318,448.105 222.684,452.032 221.593 C 480.861 213.586,479.902 175.034,450.704 168.262 C 442.980 166.471,79.927 166.426,72.465 168.215 M696.667 480.000 L 696.667 750.000 634.167 750.000 L 571.667 750.000 571.667 480.000 L 571.667 210.000 634.167 210.000 L 696.667 210.000 696.667 480.000 M877.922 479.583 L 877.500 749.167 815.000 749.167 L 752.500 749.167 752.072 481.667 C 751.837 334.542,752.001 213.229,752.436 212.083 C 753.051 210.468,767.274 210.000,815.786 210.000 L 878.343 210.000 877.922 479.583 " stroke="none" fill-rule="evenodd" fill="black"></path></svg>