<svg width="1000" height="1000" viewBox="0 0 1000 1000" version="1.1" id="svg5" sodipodi:docname="哩.svg" inkscape:version="1.3 (0e150ed6c4, 2023-07-21)" xmlns:inkscape="http://www.inkscape.org/namespaces/inkscape" xmlns:sodipodi="http://sodipodi.sourceforge.net/DTD/sodipodi-0.dtd" xmlns="http://www.w3.org/2000/svg" xmlns:svg="http://www.w3.org/2000/svg"><path d="M771.062 30.775 C 761.294 34.257,755.821 40.666,749.869 55.594 C 741.743 75.974,716.787 128.670,699.240 162.500 C 653.768 250.170,615.215 310.954,578.203 353.333 C 565.691 367.660,562.750 373.667,563.778 382.794 C 566.112 403.495,589.064 414.740,605.519 403.243 C 608.442 401.201,614.958 394.783,620.000 388.980 L 629.167 378.429 630.000 487.965 C 630.756 587.296,631.099 597.986,633.690 602.718 C 642.922 619.580,662.758 623.201,676.733 610.575 C 684.643 603.429,686.645 597.009,686.657 578.750 L 686.667 565.000 777.500 565.000 L 868.333 565.000 868.333 580.307 C 868.333 592.442,869.057 597.110,871.827 602.831 C 879.712 619.120,901.510 623.335,914.798 611.139 C 923.667 602.999,923.517 605.220,923.521 482.096 C 923.523 417.973,924.156 368.511,924.964 369.346 C 925.755 370.164,930.277 377.583,935.013 385.833 C 939.749 394.083,944.869 402.223,946.391 403.921 C 959.062 418.055,984.649 412.704,991.556 394.475 C 996.299 381.956,998.731 386.783,902.340 217.399 C 852.294 129.454,809.251 53.375,806.689 48.333 C 801.181 37.494,797.447 33.810,788.860 30.748 C 780.926 27.918,779.067 27.921,771.062 30.775 M407.500 43.101 C 398.006 48.965,396.557 52.300,386.623 91.140 C 351.951 226.704,307.710 358.607,270.884 436.210 C 259.957 459.235,258.225 464.064,259.226 468.710 C 263.027 486.357,277.717 496.411,293.534 492.189 L 299.702 490.543 298.925 495.688 C 298.157 500.777,331.662 745.525,335.109 760.000 C 338.130 772.686,349.138 781.667,361.667 781.667 C 369.957 781.667,376.507 778.485,382.237 771.675 C 390.786 761.515,391.052 765.155,371.552 625.534 C 361.589 554.198,353.028 494.160,352.528 492.114 C 351.229 486.800,342.551 477.437,336.666 475.000 C 333.759 473.795,327.800 473.241,322.492 473.681 C 317.455 474.099,313.333 474.342,313.333 474.221 C 313.333 474.100,317.382 465.788,322.331 455.750 C 347.742 404.211,377.960 320.726,408.267 218.333 C 415.728 193.125,422.440 171.000,423.182 169.167 C 424.175 166.712,436.262 201.423,469.031 300.833 C 526.711 475.817,525.000 470.568,525.001 472.503 C 525.002 473.461,521.533 473.926,516.820 473.599 C 506.254 472.867,497.662 476.901,492.196 485.160 C 488.545 490.678,487.726 494.761,485.653 517.817 C 479.241 589.113,468.671 654.069,453.022 718.333 L 449.167 734.167 448.333 539.878 L 447.500 345.589 443.065 338.888 C 431.929 322.062,408.790 322.556,397.123 339.869 L 393.333 345.493 393.333 611.080 C 393.333 757.153,392.848 876.667,392.255 876.667 C 391.662 876.667,388.099 874.152,384.338 871.079 C 373.259 862.026,367.135 859.531,358.128 860.396 C 342.927 861.857,332.244 874.744,333.697 889.866 C 334.106 894.117,335.757 899.606,337.367 902.064 C 341.840 908.889,405.713 957.186,413.246 959.438 C 425.931 963.231,438.129 957.598,444.583 944.966 C 448.309 937.674,448.333 937.141,448.333 862.026 L 448.333 786.425 452.693 789.854 C 464.898 799.455,482.059 796.562,491.987 783.230 C 495.158 778.972,505.506 738.872,515.830 690.833 C 527.574 636.189,536.630 574.634,540.347 524.185 L 542.351 496.978 550.771 497.847 C 561.536 498.958,569.755 495.618,575.820 487.666 C 585.318 475.213,588.439 486.736,516.159 267.394 C 479.930 157.452,449.539 64.709,448.625 61.298 C 446.321 52.706,441.103 45.903,434.364 42.705 C 426.642 39.041,413.766 39.230,407.500 43.101 M205.205 53.403 C 197.901 55.042,191.660 59.778,187.500 66.841 C 184.193 72.455,184.163 75.889,183.737 498.108 C 183.426 806.306,183.819 925.617,185.160 930.608 C 187.521 939.388,197.794 949.435,205.983 950.971 C 217.310 953.096,230.536 946.606,236.283 936.103 C 238.996 931.146,239.167 905.410,239.167 502.500 C 239.167 84.534,239.090 74.012,235.990 67.768 C 230.547 56.807,217.392 50.668,205.205 53.403 M831.446 203.775 C 856.317 247.560,876.667 284.122,876.667 285.025 C 876.667 286.083,844.350 286.667,785.833 286.667 C 735.378 286.667,695.000 286.022,695.000 285.215 C 695.000 284.417,701.686 272.138,709.858 257.929 C 728.161 226.105,755.886 173.493,770.658 142.554 C 780.095 122.787,782.067 119.710,783.980 121.760 C 785.215 123.084,806.574 159.990,831.446 203.775 M56.536 170.456 C 53.443 172.541,49.207 176.777,47.123 179.869 L 43.333 185.493 43.333 458.333 L 43.333 731.174 47.083 736.684 C 54.367 747.385,65.195 752.241,76.462 749.858 C 84.490 748.160,90.267 743.412,94.583 734.966 L 98.333 727.627 98.333 458.333 L 98.333 189.040 94.583 181.617 C 89.452 171.458,81.839 166.667,70.833 166.667 C 64.571 166.667,60.596 167.720,56.536 170.456 M868.333 370.000 L 868.333 398.333 777.500 398.333 L 686.667 398.333 686.667 370.000 L 686.667 341.667 777.500 341.667 L 868.333 341.667 868.333 370.000 M868.333 481.667 L 868.333 510.000 777.500 510.000 L 686.667 510.000 686.667 481.667 L 686.667 453.333 777.500 453.333 L 868.333 453.333 868.333 481.667 M625.802 633.966 C 618.893 637.008,610.370 647.130,609.173 653.714 C 608.628 656.713,608.403 723.292,608.674 801.667 C 609.217 958.600,608.611 949.733,619.359 958.187 C 630.808 967.193,645.694 966.306,655.995 956.005 C 662.542 949.458,664.979 941.172,664.991 925.417 L 665.000 913.333 777.306 913.333 L 889.612 913.333 890.267 929.636 C 890.814 943.249,891.544 946.814,894.694 951.237 C 904.354 964.804,919.869 968.265,932.773 959.732 C 946.056 950.948,945.279 961.088,945.158 798.155 C 945.079 693.124,944.526 652.192,943.150 649.520 C 940.301 643.991,934.769 638.349,929.167 635.258 C 924.636 632.759,910.408 632.465,777.500 632.125 C 658.503 631.821,629.884 632.168,625.802 633.966 M890.000 716.667 L 890.000 745.000 777.500 745.000 L 665.000 745.000 665.000 716.667 L 665.000 688.333 777.500 688.333 L 890.000 688.333 890.000 716.667 M890.000 828.333 L 890.000 856.667 777.500 856.667 L 665.000 856.667 665.000 828.333 L 665.000 800.000 777.500 800.000 L 890.000 800.000 890.000 828.333 " stroke="none" fill-rule="evenodd" fill="#000000"></path></svg>