<svg width="1000" height="1000" viewBox="0 0 1000 1000" version="1.1" id="svg5" xmlns="http://www.w3.org/2000/svg" xmlns:svg="http://www.w3.org/2000/svg"><path d="M209.132 101.549 C 196.156 104.661,188.333 114.734,188.333 128.333 C 188.333 138.933,192.490 146.500,201.334 151.999 L 207.500 155.833 443.862 156.667 L 680.224 157.500 538.465 278.819 C 420.159 380.067,396.212 399.874,393.718 398.539 C 392.075 397.660,357.246 375.184,316.320 348.594 C 275.394 322.003,240.239 299.353,238.197 298.260 C 232.727 295.333,219.951 295.680,213.743 298.925 C 205.884 303.032,199.727 313.160,199.590 322.202 C 199.349 338.150,199.113 337.949,278.476 389.509 C 318.272 415.364,350.833 437.144,350.833 437.909 C 350.833 439.132,221.860 550.355,185.513 580.478 C 167.941 595.041,146.075 618.303,135.281 633.917 C 109.153 671.713,96.777 714.792,101.353 752.023 C 108.187 807.633,140.923 852.234,194.167 878.476 C 218.773 890.603,239.735 896.189,269.167 898.460 C 282.864 899.518,399.034 899.955,585.000 899.650 L 879.167 899.167 885.244 895.387 C 896.011 888.692,901.129 876.727,898.028 865.498 C 896.351 859.423,801.315 674.433,793.972 662.950 C 785.709 650.027,768.582 646.557,755.791 655.214 C 748.047 660.455,742.654 671.540,743.776 679.907 C 744.286 683.708,760.740 717.334,784.814 763.773 C 806.916 806.409,825.000 841.753,825.000 842.313 C 825.000 842.874,699.066 843.333,545.147 843.333 C 311.320 843.333,263.282 842.947,253.063 840.985 C 190.841 829.038,149.672 779.338,156.617 724.557 C 160.989 690.077,182.485 654.780,216.478 626.265 C 224.374 619.641,268.582 581.960,314.720 542.528 C 360.857 503.096,399.857 470.883,401.386 470.943 C 402.915 471.003,443.731 496.751,492.088 528.162 C 540.445 559.572,582.736 586.024,586.069 586.944 C 594.849 589.369,602.621 587.302,610.087 580.556 C 620.714 570.956,622.625 557.884,615.185 545.689 C 612.957 542.036,587.838 524.872,528.599 486.522 C 482.703 456.810,445.305 432.017,445.492 431.427 C 445.748 430.623,640.065 263.965,772.867 150.651 C 782.692 142.267,785.991 134.134,784.102 122.952 C 782.653 114.376,773.428 103.980,765.253 101.709 C 758.197 99.749,217.285 99.593,209.132 101.549 " stroke="none" fill-rule="evenodd" fill="black"></path></svg>