<svg width="1000" height="1000" viewBox="0 0 1000 1000" version="1.1" id="svg5" sodipodi:docname="啌.svg" inkscape:version="1.4 (86a8ad7, 2024-10-11)" xmlns:inkscape="http://www.inkscape.org/namespaces/inkscape" xmlns:sodipodi="http://sodipodi.sourceforge.net/DTD/sodipodi-0.dtd" xmlns="http://www.w3.org/2000/svg" xmlns:svg="http://www.w3.org/2000/svg"><path d="M460.192 54.522 C 458.006 54.945,452.629 58.879,448.243 63.265 C 441.922 69.586,440.053 72.753,439.230 78.536 C 438.658 82.550,438.411 230.583,438.679 407.500 L 439.167 729.167 443.587 736.685 C 454.736 755.648,479.984 757.022,494.048 739.431 C 498.872 733.398,499.215 732.005,500.000 715.265 L 500.833 697.500 562.083 697.063 L 623.333 696.626 623.333 790.813 L 623.333 885.000 495.526 885.000 C 368.692 885.000,367.663 885.027,360.416 888.535 C 346.572 895.237,340.213 911.348,345.720 925.769 C 348.835 933.924,357.537 942.579,364.614 944.559 C 370.564 946.224,937.769 946.224,943.719 944.559 C 950.024 942.795,960.044 933.634,962.748 927.163 C 968.661 913.012,962.670 895.988,949.171 888.579 C 944.684 886.117,930.822 885.747,815.000 885.000 L 685.833 884.167 685.833 790.833 L 685.833 697.500 747.083 697.063 L 808.333 696.626 808.370 712.063 C 808.414 730.483,811.502 738.829,820.939 746.027 C 826.528 750.289,828.590 750.833,839.167 750.833 C 849.743 750.833,851.806 750.289,857.394 746.027 C 860.860 743.383,865.098 738.133,866.811 734.360 C 869.819 727.736,869.928 716.346,869.963 403.696 C 870.003 51.557,870.575 73.687,861.170 63.614 C 851.755 53.530,865.710 54.186,655.833 53.960 C 550.417 53.846,462.378 54.099,460.192 54.522 M56.450 64.928 C 44.201 68.682,35.000 81.668,35.000 95.200 C 35.000 105.584,42.192 116.676,52.004 121.426 C 58.996 124.811,61.777 125.000,104.693 125.000 L 150.000 125.000 149.998 131.250 C 149.993 153.675,139.420 287.973,131.531 365.833 C 111.929 559.302,79.670 741.493,40.007 882.745 C 34.121 903.709,33.837 909.878,38.329 919.157 C 48.003 939.141,75.623 942.071,89.000 924.533 C 98.000 912.733,128.177 791.401,147.332 690.000 C 161.019 617.542,175.751 520.938,184.059 449.167 C 186.393 429.000,188.731 409.313,189.254 405.417 L 190.204 398.333 238.692 398.333 L 287.180 398.333 286.037 442.917 C 284.043 520.673,279.683 599.526,274.081 659.167 C 269.585 707.040,261.264 772.625,259.458 774.431 C 259.054 774.835,252.949 757.964,245.890 736.941 C 232.012 695.610,229.610 691.468,216.304 685.918 C 208.245 682.557,202.385 682.702,194.098 686.466 C 182.000 691.961,173.209 707.151,175.765 718.140 C 176.323 720.538,191.365 766.750,209.191 820.833 C 244.157 926.914,244.220 927.059,257.715 932.697 C 273.145 939.144,292.872 929.504,298.108 912.959 C 301.751 901.445,316.865 812.202,324.858 755.000 C 337.765 662.630,345.556 549.568,347.770 422.500 C 348.815 362.535,348.751 360.649,345.433 354.167 C 341.277 346.046,337.601 342.583,329.576 339.230 C 324.418 337.075,313.303 336.667,259.823 336.667 L 196.206 336.667 197.258 326.250 C 200.906 290.113,211.667 143.285,211.667 129.647 L 211.667 125.000 282.807 125.000 C 351.896 125.000,354.158 124.898,361.250 121.465 C 372.076 116.224,377.500 107.112,377.500 94.166 C 377.500 82.404,373.533 74.986,363.607 68.183 L 357.746 64.167 209.290 63.875 C 127.639 63.715,58.861 64.189,56.450 64.928 M623.333 375.854 L 623.333 636.708 562.083 636.271 L 500.833 635.833 500.405 377.500 C 500.170 235.417,500.334 118.229,500.770 117.083 C 501.384 115.469,515.273 115.000,562.448 115.000 L 623.333 115.000 623.333 375.854 M808.333 375.854 L 808.333 636.708 747.083 636.271 L 685.833 635.833 685.405 377.500 C 685.170 235.417,685.334 118.229,685.770 117.083 C 686.384 115.469,700.273 115.000,747.448 115.000 L 808.333 115.000 808.333 375.854 " stroke="none" fill-rule="evenodd" fill="black"></path></svg>