<svg width="1000" height="1000" viewBox="0 0 1000 1000" version="1.1" id="svg5" sodipodi:docname="嗅.svg" inkscape:version="1.3.2 (091e20e, 2023-11-25, custom)" xmlns:inkscape="http://www.inkscape.org/namespaces/inkscape" xmlns:sodipodi="http://sodipodi.sourceforge.net/DTD/sodipodi-0.dtd" xmlns="http://www.w3.org/2000/svg" xmlns:svg="http://www.w3.org/2000/svg"><path d="M359.983 52.083 C 352.657 57.070,348.438 63.019,346.596 70.962 C 345.762 74.558,345.062 119.344,345.040 170.487 L 345.000 263.473 234.194 263.251 L 123.387 263.028 117.475 266.682 C 114.224 268.692,110.086 273.230,108.282 276.768 C 105.065 283.072,105.000 287.669,105.000 507.325 C 105.000 661.627,105.552 732.911,106.773 736.142 C 110.584 746.229,122.667 755.000,132.754 755.000 C 140.831 755.000,151.381 748.581,155.857 740.943 L 160.000 733.874 160.000 526.104 L 160.000 318.333 252.500 318.333 L 345.000 318.333 345.040 617.917 C 345.063 791.768,345.716 920.244,346.596 924.038 C 352.355 948.868,382.359 954.705,396.695 933.784 L 400.833 927.745 401.268 623.039 L 401.702 318.333 494.184 318.333 L 586.667 318.333 586.667 622.554 C 586.667 874.294,587.055 927.703,588.918 932.163 C 592.364 940.410,601.948 947.921,610.699 949.234 C 620.623 950.722,631.667 945.574,637.020 936.965 L 640.833 930.833 641.667 791.667 C 642.305 684.983,642.947 653.473,644.416 656.667 C 645.469 658.958,648.469 662.842,651.082 665.296 C 656.387 670.280,852.839 779.614,861.060 782.158 C 873.080 785.878,889.710 776.317,893.397 763.567 C 894.598 759.411,894.996 682.393,894.659 519.037 L 894.167 280.573 889.516 274.476 C 886.957 271.122,883.207 267.431,881.182 266.272 C 878.351 264.653,850.350 263.974,760.000 263.333 L 642.500 262.500 641.667 165.833 L 640.833 69.167 637.020 63.035 C 632.907 56.420,621.856 50.000,614.582 50.000 C 604.508 50.000,593.244 57.853,588.961 67.863 C 587.102 72.208,586.667 91.275,586.667 168.280 L 586.667 263.333 494.218 263.333 L 401.769 263.333 401.301 165.417 C 400.835 67.817,400.821 67.481,397.166 61.603 C 389.383 49.090,371.215 44.439,359.983 52.083 M840.000 513.376 L 840.000 708.419 834.583 705.630 C 831.604 704.096,798.276 685.738,760.522 664.835 C 678.380 619.357,676.377 618.323,670.472 618.370 C 660.598 618.448,651.093 624.767,643.848 636.069 C 642.304 638.478,641.841 603.512,641.765 478.750 L 641.667 318.333 740.833 318.333 L 840.000 318.333 840.000 513.376 " stroke="none" fill-rule="evenodd" fill="#000000"></path></svg>