<svg width="1000" height="1000" viewBox="0 0 1000 1000" version="1.1" id="svg5" xmlns="http://www.w3.org/2000/svg" xmlns:svg="http://www.w3.org/2000/svg"><path d="M195.510 108.803 C 188.747 110.208,181.122 116.450,177.351 123.667 C 175.389 127.423,175.000 148.580,175.000 251.516 L 175.000 374.864 123.452 375.348 C 74.393 375.810,71.683 375.999,67.305 379.270 C 59.414 385.166,56.159 390.972,55.490 400.348 C 54.665 411.909,59.560 420.699,69.845 426.125 L 77.191 430.000 499.736 430.000 L 922.281 430.000 929.497 426.507 C 948.488 417.313,950.179 392.332,932.695 379.270 C 928.317 375.999,925.607 375.810,876.548 375.348 L 825.000 374.864 825.000 251.516 C 825.000 146.478,824.638 127.467,822.560 123.449 C 819.614 117.752,811.099 110.329,806.122 109.118 C 800.238 107.686,202.369 107.378,195.510 108.803 M769.596 268.750 L 769.167 374.167 500.000 374.167 L 230.833 374.167 230.404 268.750 L 229.975 163.333 500.000 163.333 L 770.025 163.333 769.596 268.750 M225.247 506.979 C 217.212 508.351,211.100 512.107,206.585 518.448 C 203.304 523.055,203.257 525.900,203.242 717.375 C 203.227 927.350,202.748 915.927,211.925 924.472 C 217.217 929.399,223.752 931.667,232.662 931.667 C 242.608 931.667,249.763 928.442,256.276 921.024 L 261.667 914.884 261.667 894.942 L 261.667 875.000 500.000 875.000 L 738.333 875.000 738.333 894.942 L 738.333 914.884 743.724 921.024 C 750.237 928.442,757.392 931.667,767.338 931.667 C 779.928 931.667,789.059 926.454,794.378 916.231 C 798.075 909.123,797.934 527.285,794.231 520.124 C 790.861 513.607,782.880 508.163,775.339 507.237 C 765.168 505.988,232.517 505.738,225.247 506.979 M738.333 690.833 L 738.333 823.333 500.000 823.333 L 261.667 823.333 261.667 690.833 L 261.667 558.333 500.000 558.333 L 738.333 558.333 738.333 690.833 " stroke="none" fill-rule="evenodd" fill="#000000"></path></svg>