<svg width="1000" height="1000" viewBox="0 0 1000 1000" version="1.1" id="svg5" sodipodi:docname="塩.svg" inkscape:version="1.3 (0e150ed6c4, 2023-07-21)" xmlns:inkscape="http://www.inkscape.org/namespaces/inkscape" xmlns:sodipodi="http://sodipodi.sourceforge.net/DTD/sodipodi-0.dtd" xmlns="http://www.w3.org/2000/svg" xmlns:svg="http://www.w3.org/2000/svg"><path d="M529.589 103.400 C 519.004 105.220,510.851 113.907,508.534 125.833 C 507.643 130.417,506.498 149.917,505.989 169.167 C 502.064 317.662,460.316 454.664,390.703 547.500 C 376.372 566.611,364.979 578.944,342.205 600.000 L 328.686 612.500 303.221 585.223 L 277.756 557.947 281.445 544.390 C 315.080 420.786,332.310 319.418,339.982 200.000 C 342.617 158.988,342.411 137.941,339.317 131.957 C 330.584 115.070,307.453 111.904,295.153 125.913 C 288.355 133.656,287.144 139.658,285.923 171.667 C 283.277 241.048,273.741 323.157,259.890 395.833 C 251.636 439.139,235.794 506.271,233.169 509.068 C 232.281 510.014,210.870 489.836,179.228 458.235 C 150.369 429.414,124.312 404.521,121.322 402.917 C 103.598 393.408,81.584 406.980,81.726 427.330 C 81.758 432.007,82.696 437.423,83.809 439.365 C 84.922 441.308,106.833 463.518,132.500 488.721 C 158.167 513.924,187.311 543.278,197.265 553.952 L 215.364 573.359 206.658 599.596 C 167.591 717.329,115.273 823.759,64.720 888.333 C 47.972 909.728,46.667 912.187,46.667 922.362 C 46.667 935.872,59.259 948.333,72.911 948.333 C 84.026 948.333,90.679 944.225,101.651 930.586 C 154.370 865.052,209.196 759.274,248.377 647.500 C 253.197 633.750,257.845 621.750,258.705 620.833 C 259.720 619.752,263.298 622.488,268.885 628.615 C 273.623 633.812,288.269 649.937,301.432 664.448 C 314.594 678.960,327.707 692.146,330.572 693.750 C 337.797 697.795,350.666 697.557,357.636 693.249 C 369.986 685.616,374.383 668.319,367.007 656.385 L 363.387 650.527 372.110 644.934 C 393.826 631.013,434.134 585.051,458.290 546.667 C 486.257 502.225,513.877 437.761,531.757 375.196 C 534.716 364.838,535.626 363.256,537.508 365.196 C 538.738 366.463,559.349 394.500,583.311 427.500 C 607.273 460.500,629.571 489.847,632.862 492.715 L 638.846 497.930 632.496 509.382 C 623.177 526.187,605.007 552.460,593.265 566.105 C 587.616 572.671,576.000 583.796,567.453 590.829 C 549.609 605.511,545.901 611.449,547.059 623.498 C 548.877 642.420,569.057 654.078,585.381 645.636 C 593.428 641.475,606.139 631.071,621.440 616.120 C 660.289 578.164,691.802 524.465,717.462 452.500 C 723.656 435.128,735.855 393.896,739.112 379.323 C 740.023 375.247,740.535 374.851,742.346 376.823 C 743.529 378.112,781.806 440.104,827.407 514.583 C 883.793 606.677,911.934 651.150,915.371 653.598 C 926.745 661.696,945.065 658.278,953.458 646.491 C 958.517 639.387,959.581 627.247,955.787 619.911 C 954.183 616.809,911.215 546.372,860.304 463.385 C 750.973 285.174,754.807 291.593,755.791 288.373 C 759.111 277.514,764.749 197.658,765.266 154.167 C 765.687 118.702,764.959 115.619,754.231 107.436 C 738.970 95.796,716.647 103.949,711.903 122.895 C 711.039 126.344,709.900 147.542,709.372 170.000 C 707.105 266.336,692.654 356.047,667.939 427.203 C 663.075 441.206,662.697 441.761,659.997 438.870 C 656.656 435.292,554.979 295.846,552.419 291.332 C 551.184 289.155,551.277 284.101,552.733 274.128 C 559.076 230.688,564.888 134.565,561.818 123.861 C 557.518 108.868,544.788 100.786,529.589 103.400 M113.538 166.809 C 97.347 170.233,87.487 188.444,93.734 203.384 C 95.141 206.747,115.457 229.194,142.290 257.031 C 191.600 308.186,194.086 310.126,207.153 307.675 C 215.304 306.146,223.652 300.124,227.081 293.300 C 230.909 285.680,230.823 273.849,226.892 267.500 C 222.780 260.858,135.929 170.737,132.131 169.171 C 125.744 166.538,118.918 165.671,113.538 166.809 M446.668 701.872 C 436.369 705.979,430.000 715.965,430.000 728.004 C 430.000 737.049,434.107 744.679,442.205 750.680 C 446.904 754.162,447.160 754.167,631.074 754.605 C 799.493 755.006,815.735 754.808,821.047 752.287 C 840.753 742.936,841.582 714.638,822.466 703.811 L 815.833 700.055 633.333 700.133 C 516.157 700.183,449.342 700.806,446.668 701.872 M344.019 869.818 C 325.781 880.939,324.388 903.402,341.142 916.182 L 347.240 920.833 627.370 921.322 C 781.442 921.591,910.707 921.355,914.627 920.797 C 919.720 920.072,923.596 918.030,928.204 913.641 C 939.500 902.886,940.510 886.811,930.550 876.332 C 920.673 865.940,943.038 866.666,632.999 866.673 C 357.959 866.679,349.007 866.776,344.019 869.818 " stroke="none" fill-rule="evenodd" fill="black"></path></svg>