<svg width="1000" height="1000" viewBox="0 0 1000 1000" version="1.1" id="svg5" sodipodi:docname="壁.svg" inkscape:version="1.3.2 (091e20e, 2023-11-25, custom)" xmlns:inkscape="http://www.inkscape.org/namespaces/inkscape" xmlns:sodipodi="http://sodipodi.sourceforge.net/DTD/sodipodi-0.dtd" xmlns="http://www.w3.org/2000/svg" xmlns:svg="http://www.w3.org/2000/svg"><path d="M540.751 157.330 C 530.070 162.012,522.603 175.873,524.491 187.512 C 525.760 195.328,535.376 206.160,543.014 208.376 C 547.240 209.602,595.189 210.005,696.128 209.664 C 842.247 209.170,843.117 209.147,847.795 205.680 C 864.346 193.416,864.346 171.584,847.795 159.320 C 843.113 155.850,842.374 155.832,694.462 155.468 C 573.444 155.170,544.889 155.516,540.751 157.330 M171.915 194.494 C 168.844 196.007,164.354 200.233,161.938 203.883 C 158.004 209.829,157.580 211.926,157.874 224.010 C 158.055 231.430,161.982 345.125,166.601 476.667 C 171.220 608.208,174.999 720.053,175.000 725.209 L 175.000 734.586 143.750 742.376 C 95.229 754.472,91.001 755.919,85.326 762.383 C 74.494 774.720,74.923 788.649,86.493 800.218 C 97.257 810.982,97.958 810.923,166.667 793.399 C 230.263 777.179,323.609 753.333,430.833 725.914 C 465.667 717.007,497.234 708.378,500.983 706.738 C 509.129 703.176,515.133 694.358,516.161 684.447 C 517.649 670.107,504.450 655.097,490.292 655.027 C 487.244 655.012,466.804 659.623,444.871 665.274 C 422.938 670.924,404.577 675.133,404.071 674.626 C 403.564 674.119,405.781 665.839,408.997 656.226 C 425.215 607.753,437.710 545.827,444.050 482.500 C 449.399 429.077,450.701 394.495,450.767 304.167 L 450.833 212.500 446.887 205.613 C 444.712 201.818,440.121 197.142,436.660 195.196 C 430.415 191.686,429.672 191.667,303.940 191.705 C 189.826 191.739,176.956 192.011,171.915 194.494 M395.875 269.377 C 397.875 306.720,394.572 417.255,389.930 468.333 C 382.694 547.955,363.078 633.031,340.878 681.080 C 335.634 692.431,334.901 693.232,328.074 695.083 C 288.719 705.753,232.279 719.489,231.416 718.607 C 230.219 717.386,213.747 248.475,214.861 247.361 C 215.243 246.979,255.854 246.667,305.107 246.667 L 394.659 246.667 395.875 269.377 M479.136 792.312 C 476.369 793.524,471.781 797.161,468.941 800.396 C 459.050 811.661,460.143 826.890,471.583 837.226 C 475.186 840.482,480.617 843.591,483.651 844.135 C 486.684 844.680,582.674 844.909,696.961 844.646 C 903.861 844.169,904.776 844.152,909.358 840.730 C 926.404 828.003,926.404 806.997,909.358 794.270 C 904.773 790.846,903.977 790.832,694.461 790.472 C 523.204 790.177,483.233 790.519,479.136 792.312 " stroke="none" fill-rule="evenodd" fill="#000000"></path></svg>