<svg width="1000" height="1000" viewBox="0 0 1000 1000" version="1.1" id="svg5" sodipodi:docname="女.svg" inkscape:version="1.3 (0e150ed6c4, 2023-07-21)" xmlns:inkscape="http://www.inkscape.org/namespaces/inkscape" xmlns:sodipodi="http://sodipodi.sourceforge.net/DTD/sodipodi-0.dtd" xmlns="http://www.w3.org/2000/svg" xmlns:svg="http://www.w3.org/2000/svg"><path d="M489.856 51.593 C 482.637 53.781,477.477 57.984,473.649 64.795 L 470.000 71.287 470.000 193.144 L 470.000 315.000 328.750 315.037 C 194.605 315.071,187.156 315.229,180.668 318.176 C 170.292 322.888,165.833 330.287,165.833 342.794 C 165.833 353.918,168.424 359.097,177.308 365.730 C 181.861 369.130,183.424 369.171,325.369 369.611 L 468.829 370.055 467.755 385.181 C 465.320 419.486,456.790 462.864,444.685 502.500 C 433.816 538.088,407.569 601.667,403.745 601.667 C 400.956 601.667,308.333 549.145,308.333 547.563 C 308.333 546.611,311.367 536.833,315.075 525.833 C 326.762 491.164,336.667 447.615,336.667 430.896 C 336.667 409.887,315.547 397.035,296.768 406.615 C 287.808 411.186,284.051 418.311,280.923 436.667 C 275.456 468.749,261.207 520.000,257.756 520.000 C 256.821 520.000,242.309 512.419,225.506 503.153 C 208.703 493.887,192.303 485.707,189.062 484.976 C 180.650 483.079,171.912 486.029,164.759 493.182 C 154.024 503.917,154.008 519.481,164.722 530.006 C 168.083 533.309,184.900 543.736,202.092 553.178 C 219.284 562.620,233.772 571.028,234.287 571.861 C 235.449 573.742,222.917 594.557,210.436 611.474 C 196.500 630.366,173.111 652.720,153.164 666.212 C 133.464 679.538,129.777 683.897,128.697 695.134 C 127.322 709.449,137.569 722.654,151.504 724.523 C 161.301 725.837,164.840 724.438,183.683 711.807 C 219.619 687.717,251.533 653.397,275.016 613.588 C 278.989 606.853,283.140 600.997,284.240 600.574 C 286.156 599.839,371.941 646.506,376.250 650.627 C 377.901 652.205,374.933 657.809,361.990 677.560 C 331.277 724.424,303.856 757.887,266.356 794.266 C 205.445 853.357,143.225 886.683,85.833 890.958 C 75.900 891.698,68.853 893.162,64.971 895.293 C 50.482 903.247,46.157 922.170,56.011 934.502 C 66.415 947.522,77.690 949.284,112.496 943.334 C 158.793 935.419,207.798 912.323,256.030 875.686 C 311.739 833.370,362.518 777.327,406.912 709.167 C 415.868 695.417,424.163 682.856,425.347 681.254 C 427.314 678.594,448.275 689.906,667.500 811.936 C 799.500 885.412,910.735 946.640,914.689 947.997 C 920.642 950.041,923.062 950.110,928.772 948.399 C 949.178 942.285,956.141 916.473,941.079 902.771 C 938.194 900.146,827.833 838.000,695.833 764.668 C 563.833 691.336,455.258 630.799,454.555 630.141 C 453.852 629.482,456.979 621.095,461.504 611.502 C 477.829 576.894,495.698 527.769,505.699 490.000 C 514.337 457.381,523.333 402.679,523.333 382.781 C 523.333 378.651,523.789 374.086,524.345 372.636 C 525.256 370.261,539.387 370.000,667.115 370.000 L 808.874 370.000 815.943 365.857 C 823.523 361.415,830.000 350.844,830.000 342.916 C 830.000 332.842,822.147 321.578,812.137 317.295 C 807.724 315.407,781.817 315.000,665.928 315.000 L 525.083 315.000 524.625 191.953 L 524.167 68.905 519.360 62.605 C 514.473 56.198,503.544 49.986,497.500 50.180 C 495.667 50.239,492.227 50.874,489.856 51.593 " stroke="none" fill-rule="evenodd" fill="#000000"></path></svg>