<svg width="1000" height="1000" viewBox="0 0 1000 1000" version="1.1" id="svg5" xmlns="http://www.w3.org/2000/svg" xmlns:svg="http://www.w3.org/2000/svg"><path d="M200.299 121.136 C 197.256 122.636,192.756 126.498,190.299 129.718 L 185.833 135.574 185.342 405.703 C 185.005 591.118,185.401 677.736,186.604 681.900 C 188.854 689.686,199.607 699.463,207.561 700.955 C 214.638 702.282,224.412 699.753,230.396 695.046 C 237.059 689.805,240.000 681.675,240.000 668.498 L 240.000 656.667 500.000 656.667 L 760.000 656.667 760.000 668.498 C 760.000 681.675,762.941 689.805,769.604 695.046 C 775.588 699.753,785.362 702.282,792.439 700.955 C 800.393 699.463,811.146 689.686,813.396 681.900 C 814.599 677.736,814.995 591.118,814.658 405.703 L 814.167 135.574 809.677 129.688 C 800.268 117.351,827.042 118.329,499.748 118.371 C 231.029 118.406,205.359 118.643,200.299 121.136 M471.667 266.678 L 471.667 360.023 356.250 359.595 L 240.833 359.167 240.400 268.333 C 240.162 218.375,240.326 176.563,240.765 175.417 C 241.392 173.778,266.109 173.333,356.614 173.333 L 471.667 173.333 471.667 266.678 M759.167 266.667 L 759.167 359.167 643.750 359.595 L 528.333 360.023 528.333 266.667 L 528.333 173.311 643.750 173.739 L 759.167 174.167 759.167 266.667 M471.667 507.500 L 471.667 600.000 355.833 600.000 L 240.000 600.000 240.000 508.611 C 240.000 458.347,240.500 416.722,241.111 416.111 C 241.722 415.500,293.847 415.000,356.944 415.000 L 471.667 415.000 471.667 507.500 M759.597 507.917 L 760.028 600.000 644.181 600.000 L 528.333 600.000 528.333 507.489 L 528.333 414.977 643.750 415.405 L 759.167 415.833 759.597 507.917 M64.869 830.456 C 55.123 837.025,51.272 844.412,52.020 855.109 C 52.820 866.551,57.806 874.163,67.335 878.491 C 73.940 881.491,88.285 881.593,500.000 881.593 C 911.715 881.593,926.060 881.491,932.665 878.491 C 942.194 874.163,947.180 866.551,947.980 855.109 C 948.728 844.412,944.877 837.025,935.131 830.456 L 929.507 826.667 500.000 826.667 L 70.493 826.667 64.869 830.456 " stroke="none" fill-rule="evenodd" fill="#000000"></path></svg>