<svg width="1000" height="1000" viewBox="0 0 1000 1000" version="1.1" id="svg5" sodipodi:docname="хнР.svg" inkscape:version="1.3.2 (091e20e, 2023-11-25, custom)" xmlns:inkscape="http://www.inkscape.org/namespaces/inkscape" xmlns:sodipodi="http://sodipodi.sourceforge.net/DTD/sodipodi-0.dtd" xmlns="http://www.w3.org/2000/svg" xmlns:svg="http://www.w3.org/2000/svg"><path d="M250.833 108.612 C 249.000 109.626,245.741 112.040,243.592 113.978 C 234.456 122.211,234.906 112.228,234.910 306.673 C 234.913 504.309,234.249 491.531,244.992 500.571 C 257.601 511.181,274.180 509.066,284.516 495.530 C 288.869 489.829,289.202 488.231,289.727 470.553 L 290.287 451.667 500.000 451.667 L 709.713 451.667 710.273 470.553 C 710.798 488.231,711.131 489.829,715.484 495.530 C 725.820 509.066,742.399 511.181,755.008 500.571 C 765.834 491.461,765.165 504.356,765.053 307.163 L 764.951 127.792 761.225 121.096 C 758.833 116.797,754.871 113.017,750.155 110.534 L 742.809 106.667 498.488 106.717 C 323.182 106.754,253.225 107.289,250.833 108.612 M710.000 278.333 L 710.000 395.000 500.000 395.000 L 290.000 395.000 290.000 278.333 L 290.000 161.667 500.000 161.667 L 710.000 161.667 710.000 278.333 M252.500 560.696 C 240.685 566.013,234.247 576.577,235.415 588.733 C 236.291 597.847,240.088 603.983,248.316 609.583 L 253.826 613.333 362.746 613.333 L 471.667 613.333 471.667 738.313 L 471.667 863.294 271.789 863.730 C 72.852 864.165,71.889 864.183,67.308 867.603 C 59.741 873.253,56.247 879.274,55.396 888.130 C 54.308 899.451,60.188 909.847,70.503 914.840 L 77.719 918.333 500.000 918.333 L 922.281 918.333 929.497 914.840 C 948.489 905.646,950.179 880.660,932.692 867.603 C 928.111 864.183,927.148 864.165,728.211 863.730 L 528.333 863.294 528.333 738.313 L 528.333 613.333 637.254 613.333 L 746.174 613.333 751.684 609.583 C 759.938 603.966,763.710 597.841,764.596 588.618 C 765.573 578.449,761.163 569.503,752.117 563.305 L 746.078 559.167 501.789 558.806 C 299.711 558.508,256.636 558.835,252.500 560.696 " stroke="none" fill-rule="evenodd" fill="#000000"></path></svg>