<svg width="1000" height="1000" viewBox="0 0 1000 1000" version="1.1" id="svg5" xmlns="http://www.w3.org/2000/svg" xmlns:svg="http://www.w3.org/2000/svg"><path d="M233.487 51.936 C 230.363 54.079,226.238 57.950,224.320 60.537 C 220.937 65.100,220.819 67.244,220.362 132.620 L 219.892 200.000 173.696 200.037 C 121.891 200.078,117.705 200.855,109.835 211.889 L 105.833 217.500 105.402 491.701 L 104.971 765.901 108.735 773.360 C 118.777 793.256,147.709 792.898,157.265 772.759 C 159.763 767.495,160.000 744.919,160.000 511.831 L 160.000 256.667 189.988 256.667 L 219.976 256.667 220.405 593.211 L 220.833 929.756 224.270 934.358 C 230.903 943.242,236.081 945.833,247.206 945.833 C 255.316 945.833,258.655 945.010,262.942 941.952 C 274.751 933.529,274.075 941.426,275.000 801.178 L 275.833 674.856 305.472 739.511 C 321.773 775.072,336.506 806.788,338.212 809.993 C 342.088 817.273,353.091 823.343,362.345 823.306 C 372.267 823.266,381.718 817.368,386.250 808.390 L 390.000 800.960 390.000 697.147 L 390.000 593.333 440.241 593.333 L 490.481 593.333 489.358 628.750 C 485.585 747.720,475.800 824.611,458.020 875.000 C 447.211 905.632,447.770 915.983,460.769 925.897 C 475.777 937.345,495.378 930.846,503.690 911.667 C 526.442 859.163,540.761 761.863,544.649 633.333 L 545.833 594.167 652.083 593.738 L 758.333 593.309 758.333 694.894 L 758.333 796.479 750.588 793.053 C 736.712 786.915,720.809 792.530,714.840 805.674 C 709.040 818.446,709.819 820.852,734.330 865.873 C 746.795 888.768,758.505 910.692,760.352 914.594 C 766.500 927.580,777.049 933.172,791.694 931.208 C 800.434 930.035,808.069 924.266,811.824 915.998 C 814.779 909.492,814.929 901.649,814.963 751.250 L 815.000 593.333 872.083 593.327 C 926.913 593.321,929.391 593.184,934.839 589.863 C 942.368 585.273,946.093 580.489,948.040 572.913 C 951.299 560.233,945.635 548.387,933.299 542.083 C 926.123 538.417,924.730 538.333,870.480 538.333 L 815.000 538.333 815.000 395.034 C 815.000 234.019,815.632 242.434,802.834 233.163 L 796.167 228.333 653.727 228.333 C 511.732 228.333,511.268 228.344,505.007 231.863 C 501.552 233.805,497.138 238.219,495.196 241.673 C 491.676 247.937,491.667 248.348,491.667 393.144 L 491.667 538.333 440.833 538.333 L 390.000 538.333 390.000 380.780 C 390.000 250.704,389.600 222.291,387.705 217.863 C 384.930 211.377,377.526 204.185,371.142 201.773 C 368.242 200.677,348.979 200.000,320.725 200.000 L 275.000 200.000 274.963 135.417 C 274.930 76.039,274.677 70.283,271.824 64.002 C 267.497 54.473,259.884 49.486,248.442 48.687 C 240.785 48.151,238.176 48.718,233.487 51.936 M470.658 63.226 C 447.635 68.806,442.854 99.638,462.883 113.362 L 468.922 117.500 652.378 117.500 C 823.149 117.500,836.198 117.301,841.103 114.617 C 847.879 110.909,852.836 104.547,855.265 96.441 C 858.627 85.218,852.402 71.566,841.103 65.383 C 836.208 62.705,823.031 62.481,655.833 62.236 C 556.833 62.090,473.504 62.536,470.658 63.226 M335.000 462.778 C 335.000 576.139,334.561 668.450,334.024 667.913 C 333.488 667.377,330.300 661.455,326.941 654.753 C 322.141 645.176,319.406 641.764,314.167 638.811 C 302.720 632.362,290.356 634.176,280.417 643.763 L 275.000 648.987 275.000 452.827 L 275.000 256.667 305.000 256.667 L 335.000 256.667 335.000 462.778 M758.333 410.833 L 758.333 538.333 652.500 538.333 L 546.667 538.333 546.667 410.833 L 546.667 283.333 652.500 283.333 L 758.333 283.333 758.333 410.833 " stroke="none" fill-rule="evenodd" fill="#000000"></path></svg>