<svg width="1000" height="1000" viewBox="0 0 1000 1000" version="1.1" id="svg5" sodipodi:docname="寝.svg" inkscape:version="1.4 (86a8ad7, 2024-10-11)" xmlns:inkscape="http://www.inkscape.org/namespaces/inkscape" xmlns:sodipodi="http://sodipodi.sourceforge.net/DTD/sodipodi-0.dtd" xmlns="http://www.w3.org/2000/svg" xmlns:svg="http://www.w3.org/2000/svg"><path d="M634.003 55.793 C 628.523 59.077,625.938 62.453,620.931 72.860 C 590.814 135.460,514.235 257.864,458.541 332.424 L 441.054 355.833 439.066 348.046 C 436.502 338.004,431.510 331.096,424.364 327.705 C 419.775 325.528,412.941 325.000,389.331 325.000 L 360.000 325.000 359.991 246.250 C 359.985 193.936,359.364 165.275,358.141 160.871 C 352.885 141.939,329.462 133.920,314.989 146.098 C 303.850 155.471,304.217 152.324,303.677 242.917 L 303.186 325.000 246.638 325.000 L 190.090 325.000 189.628 241.960 L 189.167 158.919 185.029 152.882 C 173.518 136.088,151.588 135.813,139.270 152.307 C 135.933 156.774,135.809 159.345,135.000 240.537 L 134.167 324.167 103.032 325.000 C 68.495 325.924,66.888 326.412,58.602 338.487 C 53.559 345.837,54.078 360.016,59.679 367.883 C 66.968 378.118,74.222 380.000,106.395 380.000 L 135.071 380.000 134.961 588.272 C 134.842 813.704,134.341 800.859,143.592 809.472 C 145.741 811.474,149.611 813.911,152.192 814.889 C 155.255 816.050,182.216 816.667,229.867 816.667 L 302.850 816.667 303.817 828.208 C 304.922 841.383,307.698 847.766,314.989 853.902 C 329.462 866.080,352.885 858.061,358.141 839.129 C 359.429 834.491,359.984 781.005,359.991 661.072 C 360.000 498.418,360.149 489.711,362.917 490.961 C 369.355 493.871,383.315 493.728,387.969 490.705 C 409.871 476.476,463.347 417.542,505.811 360.833 C 548.990 303.169,613.344 203.254,643.469 147.107 C 647.519 139.557,651.298 133.370,651.866 133.357 C 652.434 133.344,707.472 212.646,774.173 309.583 C 840.873 406.521,897.034 487.592,898.973 489.742 C 917.740 510.539,952.785 491.990,945.592 465.067 C 944.709 461.760,885.568 374.197,811.028 265.833 C 737.885 159.500,676.016 69.511,673.541 65.858 C 663.696 51.322,648.089 47.349,634.003 55.793 M634.260 333.778 C 630.644 335.826,626.144 340.126,624.260 343.334 C 620.856 349.128,620.828 350.747,620.000 589.878 L 619.167 830.590 615.029 824.550 C 600.408 803.211,568.872 809.783,564.172 835.147 C 563.455 839.014,563.950 843.250,565.572 847.132 C 569.753 857.138,626.854 939.906,632.204 943.716 C 635.257 945.890,640.489 947.503,645.681 947.871 C 657.109 948.681,666.103 943.588,671.250 933.390 L 675.000 925.960 675.000 639.076 L 675.000 352.191 671.162 344.933 C 663.998 331.386,647.361 326.357,634.260 333.778 M414.739 387.048 C 410.757 391.842,396.838 406.654,383.806 419.965 L 360.112 444.167 360.056 412.123 L 360.000 380.079 388.750 379.581 C 404.563 379.307,418.507 378.914,419.739 378.708 C 420.970 378.502,418.720 382.255,414.739 387.048 M303.333 570.833 L 303.333 761.667 246.667 761.667 L 190.000 761.667 190.000 570.833 L 190.000 380.000 246.667 380.000 L 303.333 380.000 303.333 570.833 M447.759 474.078 C 436.220 478.227,428.333 488.624,428.333 499.687 C 428.333 503.823,498.430 746.675,503.032 758.481 C 505.322 764.358,513.773 771.165,521.742 773.553 C 538.055 778.440,555.062 764.975,554.965 747.248 C 554.946 743.720,538.196 683.640,517.743 613.737 C 488.445 513.602,479.702 485.726,476.528 482.329 C 468.429 473.659,457.579 470.548,447.759 474.078 M831.092 474.078 C 817.560 478.944,813.297 485.968,809.221 510.115 C 800.398 562.382,784.851 615.033,764.674 660.976 C 759.878 671.897,747.769 697.333,737.767 717.500 C 718.403 756.540,716.783 762.278,722.176 772.706 C 726.570 781.204,737.588 788.364,746.167 788.297 C 752.975 788.243,763.862 782.806,768.197 777.295 C 773.239 770.885,807.327 701.497,819.270 673.333 C 837.755 629.741,854.666 571.543,863.341 521.667 C 867.427 498.177,867.023 492.134,860.827 484.010 C 853.295 474.136,841.702 470.263,831.092 474.078 " stroke="none" fill-rule="evenodd" fill="#000000"></path></svg>