<svg width="1000" height="1000" viewBox="0 0 1000 1000" version="1.1" id="svg5" sodipodi:docname="島.svg" inkscape:version="1.3 (0e150ed6c4, 2023-07-21)" xmlns:inkscape="http://www.inkscape.org/namespaces/inkscape" xmlns:sodipodi="http://sodipodi.sourceforge.net/DTD/sodipodi-0.dtd" xmlns="http://www.w3.org/2000/svg" xmlns:svg="http://www.w3.org/2000/svg"><path d="M488.763 56.250 C 483.786 58.962,475.000 68.986,475.000 71.952 C 475.000 75.859,414.202 167.168,375.312 221.667 C 277.740 358.400,184.449 464.542,102.500 532.061 C 66.206 561.964,65.669 562.491,63.443 570.441 C 57.505 591.648,78.742 611.099,99.300 603.282 C 109.980 599.222,156.012 560.345,193.623 523.621 L 219.785 498.075 225.032 501.954 L 230.279 505.833 498.056 506.256 C 750.480 506.654,766.161 506.510,771.548 503.756 C 778.838 500.028,783.271 493.943,785.718 484.304 L 787.657 476.666 839.245 540.361 C 867.619 575.394,893.382 605.769,896.496 607.862 C 904.524 613.255,915.575 613.023,924.441 607.274 C 937.248 598.969,941.185 585.877,934.646 573.333 C 932.495 569.208,841.132 455.160,731.618 319.892 C 622.103 184.624,530.180 70.999,527.345 67.392 C 519.325 57.188,512.553 53.333,502.644 53.333 C 497.671 53.333,491.883 54.549,488.763 56.250 M636.581 289.843 C 707.575 377.645,765.887 450.162,766.164 450.992 C 766.463 451.888,664.955 452.327,515.833 452.073 C 377.875 451.838,265.000 451.261,265.000 450.792 C 265.000 450.323,274.857 438.515,286.905 424.553 C 346.649 355.316,415.100 263.962,477.304 170.449 C 492.078 148.238,504.917 130.096,505.833 130.134 C 506.750 130.171,565.586 202.040,636.581 289.843 M314.136 537.323 C 307.142 540.370,298.660 550.528,297.667 557.048 C 297.210 560.046,296.387 574.435,295.839 589.022 C 291.925 693.081,265.867 768.573,216.667 818.385 C 186.976 848.445,155.223 867.163,96.907 888.981 C 72.441 898.135,68.039 900.560,64.255 906.965 C 54.441 923.579,60.202 940.982,77.731 947.677 C 87.047 951.235,90.094 950.560,124.991 937.219 C 222.291 900.019,280.614 847.887,315.441 766.984 C 320.054 756.268,324.055 747.225,324.331 746.888 C 324.608 746.551,360.685 768.013,404.501 794.580 C 448.317 821.147,487.084 844.367,490.649 846.180 L 497.130 849.477 487.315 855.388 C 468.285 866.849,446.832 876.390,400.453 894.020 C 386.991 899.137,381.095 904.745,378.313 915.076 C 374.594 928.888,383.996 944.314,398.355 947.959 C 407.043 950.164,414.963 947.934,453.953 932.302 C 522.484 904.827,567.267 871.694,602.608 822.319 C 612.816 808.057,630.522 775.353,637.951 757.039 L 641.518 748.245 662.009 762.990 C 673.279 771.100,735.000 815.520,799.167 861.701 C 870.547 913.074,918.624 946.598,923.022 948.066 C 948.129 956.444,969.002 922.497,950.216 903.838 C 947.630 901.269,880.829 852.667,801.769 795.833 L 658.024 692.500 658.913 686.667 C 667.173 632.528,669.980 603.687,669.993 572.850 C 669.999 559.876,669.325 555.211,666.704 550.074 C 662.340 541.520,654.691 536.308,645.156 535.392 C 635.029 534.419,626.711 537.979,620.700 545.859 C 616.104 551.885,615.923 552.883,614.695 578.953 C 611.569 645.324,604.974 684.853,589.911 727.500 C 579.053 758.243,559.886 791.091,541.071 811.204 L 530.928 822.048 529.489 816.441 C 528.698 813.357,526.267 808.482,524.086 805.607 C 521.466 802.154,489.526 781.831,429.919 745.692 L 339.716 691.002 340.783 685.918 C 346.425 659.022,351.667 605.760,351.667 575.321 C 351.667 557.883,351.288 555.479,347.524 549.057 C 340.647 537.322,325.973 532.165,314.136 537.323 " stroke="none" fill-rule="evenodd" fill="black"></path></svg>