<svg width="1000" height="1000" viewBox="0 0 1000 1000" version="1.1" id="svg5" sodipodi:docname="тиЮ.svg" inkscape:version="1.3 (0e150ed6c4, 2023-07-21)" xmlns:inkscape="http://www.inkscape.org/namespaces/inkscape" xmlns:sodipodi="http://sodipodi.sourceforge.net/DTD/sodipodi-0.dtd" xmlns="http://www.w3.org/2000/svg" xmlns:svg="http://www.w3.org/2000/svg"><path d="M272.500 60.603 C 265.552 63.833,258.575 71.680,256.634 78.448 C 255.731 81.597,255.000 106.326,255.000 133.739 L 255.000 183.333 165.417 183.406 C 71.127 183.483,67.951 183.714,59.654 191.092 C 55.363 194.908,50.086 206.137,50.037 211.557 C 49.972 218.701,56.687 229.966,63.828 234.693 L 70.586 239.167 162.756 239.662 L 254.926 240.157 255.380 379.091 L 255.833 518.025 260.952 524.429 C 271.564 537.707,252.528 536.661,483.750 536.664 L 690.000 536.667 690.000 542.254 C 690.000 554.949,705.643 567.594,719.559 566.148 C 728.074 565.264,733.233 562.094,739.472 553.915 L 744.167 547.761 744.617 393.959 L 745.067 240.157 837.241 239.662 L 929.414 239.167 936.172 234.693 C 943.313 229.966,950.028 218.701,949.963 211.557 C 949.914 206.137,944.637 194.908,940.346 191.092 C 932.049 183.714,928.873 183.483,834.583 183.406 L 745.000 183.333 744.991 133.750 C 744.985 105.373,744.258 81.564,743.291 78.081 C 741.150 70.373,730.455 60.549,722.599 59.075 C 714.166 57.493,705.911 59.449,699.989 64.432 C 690.067 72.781,690.000 73.225,690.000 130.751 L 690.000 183.333 500.000 183.333 L 310.000 183.333 310.000 130.246 C 310.000 77.937,309.945 77.079,306.250 71.650 C 304.188 68.619,300.493 64.654,298.041 62.837 C 292.399 58.658,279.173 57.502,272.500 60.603 M689.594 360.417 L 689.167 480.833 499.583 481.257 L 310.000 481.681 310.000 360.840 L 310.000 240.000 500.011 240.000 L 690.022 240.000 689.594 360.417 M323.452 571.158 C 320.309 572.813,315.476 576.997,312.711 580.456 L 307.686 586.746 306.504 616.298 C 304.717 660.966,300.078 692.473,290.079 727.854 C 272.760 789.140,236.688 836.632,183.833 867.739 C 164.241 879.269,145.518 887.515,110.054 900.230 C 92.115 906.662,81.015 911.597,78.009 914.477 C 64.694 927.234,68.800 950.830,85.668 958.491 C 95.301 962.865,98.835 962.515,120.514 955.040 C 193.047 930.030,233.681 906.725,271.667 868.351 C 294.932 844.847,316.712 812.217,328.721 782.871 C 331.846 775.237,334.822 770.215,335.963 770.652 C 337.822 771.366,501.924 864.905,503.048 865.892 C 505.542 868.083,461.863 887.951,430.000 899.119 C 399.380 909.851,397.187 911.018,392.443 919.113 C 384.885 932.010,388.154 948.247,399.844 955.870 C 410.310 962.695,415.378 962.588,437.089 955.086 C 510.358 929.768,549.200 907.848,587.228 870.354 C 610.990 846.925,625.856 825.746,642.049 792.248 L 651.973 771.718 658.903 776.465 C 757.209 843.810,927.531 957.887,932.518 959.724 C 942.528 963.412,950.867 961.238,959.386 952.719 C 970.184 941.921,970.932 926.702,961.190 915.988 C 959.161 913.756,893.375 868.650,815.000 815.752 C 736.625 762.855,671.543 718.687,670.374 717.602 C 668.652 716.003,668.726 713.349,670.767 703.646 C 675.693 680.229,678.461 653.719,679.412 620.833 C 680.368 587.762,680.345 587.455,676.438 581.820 C 667.550 568.999,653.297 564.883,640.462 571.431 C 627.841 577.870,626.074 583.074,624.630 618.043 C 621.438 695.385,605.123 754.559,574.280 800.662 C 565.389 813.951,544.328 838.333,541.740 838.333 C 541.012 838.333,539.954 836.020,539.389 833.193 C 538.823 830.366,536.905 826.009,535.127 823.512 C 533.026 820.561,500.274 800.907,441.625 767.402 L 351.356 715.833 352.226 709.167 C 352.705 705.500,354.689 692.375,356.637 680.000 C 358.925 665.458,360.525 645.402,361.160 623.293 C 362.013 593.557,361.784 588.395,359.406 583.796 C 352.746 570.916,335.454 564.838,323.452 571.158 " stroke="none" fill-rule="evenodd" fill="black"></path></svg>