<svg width="1000" height="1000" viewBox="0 0 1000 1000" version="1.1" id="svg5" sodipodi:docname="帝.svg" inkscape:version="1.3 (0e150ed6c4, 2023-07-21)" xmlns:inkscape="http://www.inkscape.org/namespaces/inkscape" xmlns:sodipodi="http://sodipodi.sourceforge.net/DTD/sodipodi-0.dtd" xmlns="http://www.w3.org/2000/svg" xmlns:svg="http://www.w3.org/2000/svg"><path d="M404.167 52.484 C 385.677 59.075,379.221 81.404,391.696 95.612 C 394.371 98.659,412.709 115.647,432.447 133.363 C 452.184 151.078,468.333 166.179,468.333 166.920 C 468.333 167.660,416.771 168.469,353.750 168.716 L 239.167 169.167 233.893 172.928 C 225.953 178.592,221.034 189.971,222.448 199.402 C 223.848 208.734,234.552 220.494,243.226 222.229 C 246.264 222.836,298.906 223.333,360.208 223.333 L 471.667 223.333 471.667 265.788 L 471.667 308.243 329.583 308.705 L 187.500 309.167 181.334 313.001 C 172.635 318.410,167.949 326.696,167.949 336.667 C 167.949 346.638,172.635 354.924,181.334 360.333 L 187.500 364.167 327.083 364.629 C 425.341 364.955,466.667 365.623,466.667 366.885 C 466.667 367.872,464.036 373.664,460.820 379.756 C 426.058 445.616,318.623 515.124,202.500 546.882 C 165.162 557.094,141.218 561.149,101.503 563.987 C 67.757 566.398,62.756 568.255,56.785 580.589 C 52.456 589.531,52.411 596.657,56.629 604.926 C 62.112 615.674,68.578 619.070,84.881 619.767 C 118.175 621.188,179.253 611.634,227.739 597.418 C 230.718 596.545,231.632 597.345,233.248 602.242 C 234.804 606.957,239.452 612.384,248.755 620.353 C 248.981 620.547,280.667 621.109,319.167 621.603 L 389.167 622.500 389.651 672.500 C 390.462 756.359,386.566 778.242,365.233 809.657 C 336.863 851.434,273.784 886.853,216.104 893.395 C 199.606 895.266,194.025 897.550,187.765 904.989 C 179.065 915.329,179.914 930.306,189.759 940.151 C 198.106 948.498,205.195 950.206,223.069 948.178 C 251.776 944.921,279.956 936.436,310.833 921.752 C 371.779 892.768,414.828 848.629,433.087 796.402 C 443.355 767.031,443.729 763.548,444.542 689.583 L 445.288 621.667 498.477 621.667 L 551.667 621.667 551.696 734.583 C 551.728 859.459,551.812 860.647,562.259 882.452 C 571.927 902.633,588.787 918.370,612.460 929.307 C 635.757 940.071,663.540 945.574,708.348 948.299 C 744.700 950.509,819.080 950.468,827.129 948.233 C 840.806 944.435,849.641 931.475,847.818 917.883 C 846.737 909.827,848.104 911.750,804.718 857.269 C 775.418 820.478,768.981 813.287,763.312 811.019 C 759.620 809.542,754.715 808.333,752.413 808.333 C 740.566 808.333,727.636 819.898,725.801 832.136 C 724.232 842.595,727.255 848.427,746.813 872.681 L 763.835 893.791 724.834 892.892 C 663.204 891.470,633.606 884.275,617.905 866.895 C 606.850 854.659,606.666 852.878,606.672 758.447 C 606.675 712.093,607.168 662.354,607.766 647.917 L 608.855 621.667 678.178 621.630 C 742.177 621.596,748.025 621.355,754.332 618.491 C 770.347 611.218,775.114 589.981,763.762 576.489 C 754.961 566.030,768.749 566.616,530.824 566.585 C 411.204 566.570,313.333 566.214,313.333 565.795 C 313.333 565.376,318.267 562.796,324.296 560.062 C 356.163 545.613,405.504 515.191,432.646 493.257 C 460.394 470.834,487.784 441.571,500.171 421.112 C 503.286 415.969,506.668 411.740,507.688 411.714 C 508.709 411.688,600.959 458.638,712.688 516.048 C 853.916 588.614,917.865 620.651,922.500 621.156 C 927.279 621.676,931.286 620.790,936.653 618.024 C 946.709 612.843,951.667 605.131,951.667 594.671 C 951.667 585.181,948.734 578.661,941.972 573.115 C 939.324 570.944,847.942 523.417,738.901 467.500 L 540.645 365.833 676.572 365.000 L 812.500 364.167 818.666 360.333 C 836.674 349.135,836.674 324.198,818.666 313.001 L 812.500 309.167 670.417 308.705 L 528.333 308.243 528.333 265.788 L 528.333 223.333 639.792 223.333 C 701.094 223.333,753.736 222.836,756.774 222.229 C 765.448 220.494,776.152 208.734,777.552 199.402 C 778.966 189.971,774.047 178.592,766.107 172.928 L 760.833 169.167 656.667 168.333 L 552.500 167.500 490.833 111.926 C 456.917 81.361,427.292 55.389,425.000 54.210 C 417.920 50.570,411.117 50.007,404.167 52.484 " stroke="none" fill-rule="evenodd" fill="black"></path></svg>