<svg width="1000" height="1000" viewBox="0 0 1000 1000" version="1.1" id="svg5" inkscape:version="1.4 (86a8ad7, 2024-10-11)" sodipodi:docname="店.svg" xmlns:inkscape="http://www.inkscape.org/namespaces/inkscape" xmlns:sodipodi="http://sodipodi.sourceforge.net/DTD/sodipodi-0.dtd" xmlns="http://www.w3.org/2000/svg" xmlns:svg="http://www.w3.org/2000/svg"><path d="M494.132 51.615 C 486.782 53.281,480.573 57.852,476.279 64.756 C 472.852 70.267,472.445 73.278,471.909 97.083 L 471.317 123.333 315.605 123.333 C 144.228 123.333,153.572 122.760,143.806 133.883 C 134.552 144.423,134.581 157.277,143.884 167.872 C 153.561 178.894,144.354 178.333,315.780 178.333 L 471.667 178.333 471.667 215.833 L 471.667 253.333 298.750 253.373 C 200.969 253.396,122.993 254.072,119.296 254.929 C 94.465 260.688,88.629 290.692,109.549 305.029 L 115.588 309.167 293.627 309.620 L 471.667 310.073 471.667 490.837 L 471.667 671.601 353.619 672.051 L 235.572 672.500 229.451 677.169 C 221.474 683.255,218.333 689.611,218.333 699.671 C 218.333 708.715,222.439 716.345,230.537 722.347 C 235.194 725.799,236.557 725.842,368.037 726.667 C 441.075 727.125,560.592 727.125,633.629 726.667 C 764.496 725.845,766.492 725.783,771.026 722.397 C 779.910 715.762,782.500 710.584,782.500 699.461 C 782.500 686.954,778.041 679.555,767.665 674.842 C 761.214 671.913,754.348 671.738,644.583 671.703 L 528.333 671.667 528.333 630.000 C 528.333 607.083,528.801 588.333,529.372 588.333 C 529.943 588.333,564.399 605.583,605.941 626.667 C 658.337 653.259,683.127 665.000,686.876 665.000 C 697.181 665.000,705.944 658.749,728.532 635.285 C 778.758 583.112,814.378 536.972,843.004 487.006 C 876.365 428.777,899.346 353.948,902.690 292.667 C 903.649 275.098,903.502 273.881,899.766 268.487 C 894.558 260.965,888.669 256.776,880.704 254.929 C 877.007 254.072,799.031 253.396,701.250 253.373 L 528.333 253.333 528.333 215.833 L 528.333 178.333 684.220 178.333 C 855.789 178.333,846.427 178.908,856.194 167.784 C 865.448 157.244,865.419 144.390,856.116 133.795 C 846.440 122.774,855.629 123.333,684.395 123.333 L 528.683 123.333 528.091 97.083 C 527.552 73.161,527.160 70.286,523.666 64.667 C 517.289 54.412,505.254 49.093,494.132 51.615 M844.302 318.750 C 838.968 360.151,820.003 415.262,796.623 457.304 C 772.544 500.604,727.539 559.274,691.179 594.764 L 682.029 603.695 605.217 564.764 L 528.404 525.833 528.369 417.917 L 528.333 310.000 686.881 310.000 L 845.429 310.000 844.302 318.750 M163.367 365.417 C 159.331 367.479,154.549 371.198,152.740 373.681 C 148.636 379.316,147.108 394.592,150.090 400.178 C 155.678 410.642,299.402 614.937,304.954 620.307 C 314.943 629.969,329.182 630.534,340.396 621.713 C 349.643 614.439,352.917 597.304,346.934 587.493 C 340.449 576.859,199.358 375.575,195.214 371.045 C 186.302 361.303,175.243 359.348,163.367 365.417 M68.895 874.191 C 61.397 878.685,55.000 889.300,55.000 897.246 C 55.000 907.333,63.771 919.416,73.858 923.227 C 77.128 924.463,206.572 925.000,500.995 925.000 C 962.918 925.000,929.871 925.743,938.784 915.151 C 950.736 900.947,946.519 881.156,929.666 872.351 C 925.826 870.345,862.820 870.002,500.499 870.016 L 75.833 870.032 68.895 874.191 " stroke="none" fill-rule="evenodd" fill="black"></path></svg>