<svg width="1000" height="1000" viewBox="0 0 1000 1000" version="1.1" id="svg5" xmlns="http://www.w3.org/2000/svg" xmlns:svg="http://www.w3.org/2000/svg"><path d="M268.333 121.667 C 175.008 122.591,177.321 122.307,170.291 133.710 C 163.006 145.527,163.627 156.422,172.140 166.117 C 181.477 176.752,180.775 176.667,259.384 176.667 L 330.541 176.667 329.439 238.750 C 328.001 319.740,322.433 431.638,318.991 448.750 L 318.068 453.333 231.118 453.343 C 175.585 453.349,141.892 453.984,137.871 455.100 C 118.773 460.404,110.808 482.319,122.436 497.564 C 131.599 509.578,127.661 509.112,224.583 509.653 C 292.608 510.033,311.667 510.593,311.667 512.211 C 311.667 513.350,309.811 525.592,307.542 539.415 C 288.820 653.497,261.385 721.162,201.380 801.250 L 184.835 823.333 129.030 823.333 C 66.842 823.333,65.915 823.474,57.014 834.272 C 46.166 847.432,49.369 865.583,64.057 874.190 L 71.126 878.333 500.000 878.333 L 928.874 878.333 935.943 874.190 C 950.631 865.583,953.834 847.432,942.986 834.272 C 933.642 822.936,938.047 823.333,821.720 823.333 C 717.248 823.333,716.667 823.315,716.667 819.949 C 716.667 816.749,755.585 526.808,757.530 515.521 L 758.445 510.208 812.139 509.688 C 871.225 509.114,871.551 509.060,880.568 498.344 C 892.746 483.872,884.728 460.448,865.796 455.192 C 861.696 454.054,841.518 453.348,812.917 453.343 C 769.775 453.334,766.667 453.135,766.667 450.382 C 766.667 448.758,775.355 383.696,785.975 305.798 C 796.594 227.901,805.687 159.224,806.180 153.184 C 807.281 139.695,804.001 131.592,795.037 125.660 L 788.929 121.618 570.715 121.226 C 450.697 121.010,314.625 121.208,268.333 121.667 M746.667 180.084 C 746.667 183.320,712.750 436.446,710.779 447.917 L 709.849 453.333 542.185 453.333 L 374.521 453.333 375.584 440.417 C 380.892 375.960,385.000 278.587,385.000 217.255 L 385.000 176.667 565.833 176.667 L 746.667 176.667 746.667 180.084 M701.667 512.800 C 701.667 515.746,662.243 808.570,660.588 817.917 L 659.629 823.333 457.315 823.333 C 346.042 823.333,255.000 822.977,255.000 822.542 C 255.000 822.107,260.516 813.670,267.258 803.792 C 294.945 763.229,313.092 727.185,330.376 678.430 C 343.353 641.824,355.922 589.265,363.280 540.833 C 365.230 528.000,367.179 515.813,367.611 513.750 L 368.397 510.000 535.032 510.000 C 689.983 510.000,701.667 510.196,701.667 512.800 " stroke="none" fill-rule="evenodd" fill="#000000"></path></svg>