<svg width="1000" height="1000" viewBox="0 0 1000 1000" version="1.1" id="svg5" sodipodi:docname="待.svg" inkscape:version="1.3 (0e150ed6c4, 2023-07-21)" xml:space="preserve" xmlns:inkscape="http://www.inkscape.org/namespaces/inkscape" xmlns:sodipodi="http://sodipodi.sourceforge.net/DTD/sodipodi-0.dtd" xmlns="http://www.w3.org/2000/svg" xmlns:svg="http://www.w3.org/2000/svg"><path d="M494.132 51.615 C 486.782 53.281,480.573 57.852,476.279 64.756 C 472.525 70.793,472.497 71.317,472.001 142.872 L 471.503 214.910 329.501 215.372 L 187.500 215.833 181.334 219.667 C 163.326 230.865,163.326 255.802,181.334 266.999 L 187.500 270.833 328.889 271.295 L 470.278 271.757 469.126 278.795 C 463.262 314.622,436.540 365.547,402.029 406.667 C 322.184 501.800,184.103 575.000,84.494 575.000 C 67.337 575.000,53.333 587.506,53.333 602.829 C 53.333 610.456,58.748 620.547,65.379 625.276 C 70.505 628.933,72.238 629.156,94.167 628.986 C 120.342 628.784,138.225 626.105,171.410 617.413 C 305.210 582.368,442.016 474.900,497.142 361.537 C 502.839 349.821,508.250 340.193,509.167 340.141 C 510.083 340.088,600.365 404.565,709.793 483.422 C 819.221 562.279,910.871 627.893,913.460 629.232 C 924.973 635.186,939.717 630.573,947.877 618.464 C 953.089 610.730,953.107 597.600,947.917 590.007 C 945.556 586.554,866.655 528.691,735.000 433.864 C 531.901 287.578,525.833 283.052,525.833 277.854 L 525.833 272.500 669.167 271.667 L 812.500 270.833 818.666 266.999 C 836.674 255.802,836.674 230.865,818.666 219.667 L 812.500 215.833 670.499 215.372 L 528.497 214.910 527.999 142.872 C 527.501 71.009,527.491 70.818,523.666 64.667 C 517.289 54.412,505.254 49.093,494.132 51.615 M259.051 618.219 C 233.721 624.344,228.433 655.922,250.501 669.274 C 255.714 672.428,261.703 672.500,519.167 672.500 C 776.630 672.500,782.619 672.428,787.832 669.274 C 806.265 658.121,806.204 632.039,787.720 621.446 L 780.833 617.500 522.500 617.241 C 380.417 617.098,261.865 617.538,259.051 618.219 M76.600 857.171 C 56.988 867.542,57.572 895.241,77.610 905.025 C 84.315 908.299,88.826 908.333,507.246 908.333 C 969.624 908.333,936.537 909.077,945.451 898.484 C 954.589 887.624,954.581 874.033,945.430 863.158 C 936.541 852.594,969.549 853.333,506.982 853.333 L 83.858 853.333 76.600 857.171 " stroke="none" fill-rule="evenodd" fill="#000000"></path></svg>