<svg width="1000" height="1000" viewBox="0 0 1000 1000" version="1.1" id="svg5" sodipodi:docname="従.svg" inkscape:version="1.4 (86a8ad7, 2024-10-11)" xmlns:inkscape="http://www.inkscape.org/namespaces/inkscape" xmlns:sodipodi="http://sodipodi.sourceforge.net/DTD/sodipodi-0.dtd" xmlns="http://www.w3.org/2000/svg" xmlns:svg="http://www.w3.org/2000/svg"><path d="M622.806 52.360 C 615.223 55.130,610.614 59.049,606.967 65.829 C 604.670 70.101,604.113 80.959,603.165 140.000 C 602.554 178.042,601.496 219.854,600.813 232.917 L 599.573 256.667 518.536 256.703 C 443.113 256.737,437.027 256.955,430.668 259.842 C 420.292 264.555,415.833 271.954,415.833 284.461 C 415.833 295.585,418.424 300.762,427.307 307.397 C 431.788 310.744,434.055 310.845,514.402 311.296 L 596.895 311.758 595.928 320.462 C 595.396 325.250,594.190 338.917,593.249 350.833 C 592.308 362.750,590.815 378.875,589.932 386.667 C 589.049 394.458,587.228 410.583,585.886 422.500 C 571.413 550.971,542.148 665.111,503.805 742.634 C 474.185 802.522,445.085 838.996,386.998 889.037 C 377.556 897.172,368.743 905.929,367.415 908.498 C 366.087 911.066,365.000 916.843,365.000 921.334 C 365.000 939.923,385.085 953.294,402.137 946.057 C 409.293 943.020,441.251 915.434,465.123 891.688 C 548.447 808.801,598.887 690.433,630.147 504.425 C 631.706 495.144,632.454 493.435,634.156 495.258 C 635.306 496.491,694.933 595.750,766.661 715.833 C 838.388 835.917,898.542 936.240,900.335 938.775 C 907.971 949.566,924.875 952.168,936.665 944.366 C 946.549 937.824,951.507 925.866,948.551 915.693 C 947.730 912.866,878.978 796.682,795.769 657.507 C 666.888 441.941,644.513 403.590,644.701 398.577 C 644.823 395.341,646.032 380.650,647.388 365.930 C 648.744 351.210,650.357 332.998,650.972 325.459 L 652.090 311.752 739.257 311.293 C 824.727 310.842,826.517 310.765,831.129 307.347 C 839.227 301.345,843.333 293.715,843.333 284.671 C 843.333 274.611,840.193 268.255,832.216 262.169 L 826.096 257.500 740.336 257.039 L 654.577 256.578 655.656 243.706 C 657.667 219.716,659.895 79.338,658.372 72.629 C 654.661 56.280,638.028 46.801,622.806 52.360 M240.833 69.029 C 234.622 71.801,227.448 79.326,225.106 85.525 C 223.989 88.482,223.333 109.862,223.333 143.352 L 223.333 196.487 158.750 196.993 C 101.509 197.442,93.573 197.825,88.949 200.357 C 77.313 206.727,71.725 218.375,74.129 231.250 C 75.724 239.790,87.174 250.765,96.011 252.225 C 99.580 252.814,129.313 253.305,162.083 253.315 L 221.667 253.333 221.667 259.689 C 221.667 269.371,217.281 300.529,213.294 319.174 C 191.402 421.550,127.294 529.132,35.025 618.333 C 16.554 636.190,15.124 638.028,14.105 645.229 C 12.711 655.077,17.306 666.188,25.054 671.705 C 32.387 676.926,45.768 678.079,53.376 674.145 C 56.449 672.555,70.447 659.979,84.482 646.197 L 110.000 621.139 110.000 684.093 C 110.000 744.503,110.138 747.292,113.422 753.135 C 115.304 756.484,119.560 761.086,122.879 763.362 C 128.914 767.500,128.917 767.500,176.957 768.011 L 225.000 768.521 225.027 855.511 L 225.055 942.500 228.811 949.133 C 233.270 957.005,243.437 963.268,251.821 963.306 C 261.107 963.348,271.681 956.873,276.162 948.400 L 280.000 941.142 280.000 854.738 L 280.000 768.333 309.787 768.333 L 339.574 768.333 340.643 775.021 C 341.974 783.341,351.242 794.051,359.457 796.762 C 370.742 800.487,384.566 795.016,391.092 784.243 C 393.956 779.514,394.224 772.729,395.000 685.000 L 395.833 590.833 418.304 629.167 C 430.663 650.250,442.780 669.423,445.231 671.773 C 457.214 683.262,478.001 680.515,486.647 666.299 C 491.201 658.810,492.324 649.797,489.533 643.128 C 488.238 640.033,439.813 556.991,381.922 458.590 C 282.333 289.312,276.667 279.251,276.667 271.715 C 276.667 267.334,277.135 261.406,277.708 258.542 L 278.750 253.333 341.458 253.324 C 382.076 253.318,406.515 252.666,410.833 251.473 C 419.396 249.107,429.465 238.713,430.971 230.684 C 433.096 219.357,426.606 206.131,416.103 200.383 C 411.407 197.814,403.624 197.443,344.583 196.980 L 278.333 196.459 278.333 142.126 L 278.333 87.793 274.190 80.723 C 267.304 68.973,252.548 63.800,240.833 69.029 M317.565 457.500 C 347.691 508.833,375.608 556.368,379.603 563.133 C 384.860 572.037,386.033 575.081,383.850 574.159 C 371.692 569.022,367.915 568.317,361.624 570.011 C 354.647 571.890,346.172 578.183,342.879 583.930 C 341.406 586.500,340.600 605.007,340.000 650.000 L 339.167 712.500 310.000 712.500 L 280.833 712.500 280.000 591.667 C 279.185 473.519,279.091 470.704,275.740 465.001 C 266.035 448.479,242.208 447.440,230.323 463.020 L 225.833 468.905 225.000 590.703 L 224.167 712.500 194.583 712.955 L 165.000 713.410 165.000 652.647 C 165.000 619.080,164.304 590.053,163.445 587.794 C 162.590 585.544,159.532 581.018,156.649 577.735 C 153.423 574.060,151.893 570.946,152.670 569.633 C 153.363 568.460,160.104 558.875,167.648 548.333 C 204.533 496.795,237.111 433.352,254.087 380.000 C 256.567 372.208,258.936 364.770,259.352 363.471 C 259.792 362.101,260.672 361.751,261.450 362.638 C 262.188 363.479,287.440 406.167,317.565 457.500 " stroke="none" fill-rule="evenodd" fill="black"></path></svg>