<svg width="1000" height="1000" viewBox="0 0 1000 1000" version="1.1" id="svg5" sodipodi:docname="急.svg" inkscape:version="1.3 (0e150ed6c4, 2023-07-21)" xml:space="preserve" xmlns:inkscape="http://www.inkscape.org/namespaces/inkscape" xmlns:sodipodi="http://sodipodi.sourceforge.net/DTD/sodipodi-0.dtd" xmlns="http://www.w3.org/2000/svg" xmlns:svg="http://www.w3.org/2000/svg"><path d="M359.167 61.548 C 337.182 66.853,329.363 91.422,344.759 106.818 C 348.141 110.200,353.892 113.795,357.538 114.808 C 361.332 115.861,378.164 116.652,396.905 116.657 C 421.595 116.664,429.820 117.179,430.361 118.750 C 431.778 122.867,428.486 251.740,425.880 294.167 C 411.713 524.751,378.102 690.528,322.680 803.163 C 312.054 824.760,311.062 831.745,317.111 842.375 C 322.122 851.182,333.308 857.199,342.781 856.184 C 356.677 854.696,360.658 850.452,374.185 822.711 C 403.755 762.070,425.876 691.916,444.148 600.833 C 452.247 560.458,465.000 482.598,465.000 473.524 C 465.000 470.011,465.166 470.000,517.500 470.000 C 546.375 470.000,570.000 470.219,570.000 470.486 C 570.000 470.753,567.368 485.790,564.151 503.902 C 540.374 637.765,502.805 750.758,456.003 829.167 C 449.984 839.250,444.574 850.010,443.981 853.077 C 440.768 869.686,458.748 887.498,475.525 884.327 C 486.308 882.289,491.045 877.535,503.969 855.784 C 555.776 768.593,598.155 639.702,621.499 498.333 L 626.040 470.833 676.204 470.392 C 723.402 469.978,726.328 470.125,725.706 472.892 C 725.343 474.510,722.345 490.083,719.044 507.500 C 706.378 574.335,689.605 638.480,667.549 704.429 C 644.668 772.844,619.387 831.684,591.680 881.011 C 575.766 909.342,574.445 913.017,576.822 922.344 C 581.352 940.113,601.570 948.968,616.637 939.783 C 624.076 935.248,624.627 934.496,637.261 911.667 C 656.668 876.597,662.898 864.374,674.644 838.333 C 707.101 766.370,732.789 690.511,754.795 601.642 C 763.750 565.480,777.556 499.938,780.858 477.917 L 782.045 470.000 841.123 470.000 L 900.201 470.000 899.198 490.417 C 892.176 633.350,866.077 747.286,813.678 863.750 C 807.595 877.271,802.046 888.333,801.347 888.333 C 800.648 888.333,786.372 877.668,769.622 864.632 C 727.175 831.599,724.657 830.000,715.079 830.000 C 705.849 830.000,697.965 834.534,692.123 843.203 C 687.293 850.370,686.961 863.562,691.425 870.883 C 694.191 875.418,790.601 951.736,799.474 956.414 C 804.598 959.116,817.596 958.800,823.330 955.835 C 830.942 951.899,835.440 944.671,854.010 906.539 C 885.270 842.348,906.010 784.801,923.943 712.500 C 943.145 635.082,954.929 541.246,954.984 465.321 C 955.002 440.281,953.226 430.814,947.313 424.438 C 937.888 414.273,954.900 414.937,703.413 414.905 C 576.935 414.889,473.114 414.328,472.700 413.658 C 472.287 412.988,472.570 406.828,473.331 399.970 C 474.092 393.111,475.918 371.000,477.391 350.833 C 478.863 330.667,480.485 309.495,480.996 303.784 L 481.925 293.402 632.475 292.951 L 783.025 292.500 789.429 287.381 C 802.574 276.875,805.246 261.359,795.999 249.235 C 786.428 236.687,798.041 237.554,632.500 237.035 L 484.167 236.571 485.641 176.619 L 487.115 116.667 641.474 116.657 C 748.954 116.651,797.847 116.089,802.462 114.808 C 816.477 110.917,825.262 96.639,822.547 82.166 C 821.057 74.224,811.237 64.295,802.462 61.859 C 794.917 59.764,367.800 59.464,359.167 61.548 M113.860 126.572 C 109.475 128.563,105.145 132.369,102.194 136.828 L 97.500 143.917 96.986 215.292 L 96.471 286.667 73.182 286.667 C 47.630 286.667,42.227 287.983,34.689 296.045 C 25.895 305.451,24.367 316.716,30.444 327.343 C 37.595 339.849,40.188 340.766,70.116 341.365 L 96.667 341.896 96.667 523.928 L 96.667 705.960 100.417 713.299 C 107.933 728.009,104.628 727.389,180.537 728.333 L 247.500 729.167 248.442 740.112 C 249.471 752.065,252.309 757.228,261.217 763.351 C 270.830 769.959,287.377 767.678,295.579 758.614 C 303.345 750.033,303.183 754.609,303.260 542.083 L 303.333 341.667 328.920 341.667 C 352.711 341.667,354.894 341.403,360.017 337.917 C 368.292 332.285,372.043 326.174,372.937 316.870 C 374.025 305.549,368.146 295.153,357.831 290.160 C 351.544 287.117,347.569 286.667,326.974 286.667 L 303.333 286.667 303.333 217.020 C 303.333 148.104,303.294 147.295,299.583 139.950 C 289.855 120.693,265.600 118.331,253.210 135.435 L 248.333 142.167 248.333 214.417 L 248.333 286.667 200.833 286.667 L 153.333 286.667 153.297 217.083 C 153.263 153.138,153.012 146.960,150.199 140.833 C 146.557 132.904,142.841 129.350,134.576 125.897 C 126.611 122.569,122.374 122.707,113.860 126.572 M247.500 507.500 L 247.500 672.500 200.417 672.943 L 153.333 673.385 153.333 507.500 L 153.333 341.615 200.417 342.057 L 247.500 342.500 247.500 507.500 " stroke="none" fill-rule="evenodd" fill="black"></path></svg>