<svg width="1000" height="1000" viewBox="0 0 1000 1000" version="1.1" id="svg5" sodipodi:docname="意.svg" inkscape:version="1.3 (0e150ed6c4, 2023-07-21)" xmlns:inkscape="http://www.inkscape.org/namespaces/inkscape" xmlns:sodipodi="http://sodipodi.sourceforge.net/DTD/sodipodi-0.dtd" xmlns="http://www.w3.org/2000/svg" xmlns:svg="http://www.w3.org/2000/svg"><path d="M195.269 68.500 C 188.178 69.952,180.814 75.751,177.683 82.350 C 175.201 87.580,174.994 103.857,175.394 262.261 C 175.832 436.025,175.841 436.434,179.320 441.128 C 185.321 449.227,192.951 453.333,201.996 453.333 C 212.052 453.333,218.410 450.194,224.497 442.221 C 229.013 436.307,229.184 435.350,229.709 413.048 L 230.252 389.990 512.209 390.412 L 794.167 390.833 795.000 413.634 C 795.922 438.856,797.054 441.886,808.487 449.731 C 813.228 452.984,815.754 453.517,823.772 452.956 C 835.385 452.144,841.070 448.436,846.250 438.299 L 850.000 430.960 849.963 260.897 C 849.928 98.652,849.784 90.519,846.824 84.002 C 845.118 80.244,841.197 75.369,838.111 73.168 L 832.500 69.167 724.167 68.752 C 451.868 67.708,199.723 67.589,195.269 68.500 M794.614 162.083 L 794.167 200.833 512.500 200.833 L 230.833 200.833 230.386 162.083 L 229.939 123.333 512.500 123.333 L 795.061 123.333 794.614 162.083 M794.167 295.833 L 794.167 334.167 512.083 334.588 L 230.000 335.010 230.000 295.833 L 230.000 256.657 512.083 257.079 L 794.167 257.500 794.167 295.833 M87.335 503.176 C 76.959 507.888,72.500 515.287,72.500 527.794 C 72.500 538.919,75.091 544.097,83.975 550.730 L 88.578 554.167 457.205 555.000 L 825.833 555.833 813.333 564.008 C 806.458 568.504,729.958 617.607,643.333 673.126 C 513.722 756.194,484.653 774.175,479.167 774.669 C 473.025 775.221,465.352 771.170,381.680 723.188 C 331.729 694.544,288.025 670.388,284.559 669.508 C 271.652 666.232,256.950 675.929,253.135 690.233 C 251.353 696.916,251.473 699.013,254.019 705.678 C 255.710 710.108,259.207 715.062,262.232 717.317 C 265.129 719.477,306.500 743.553,354.167 770.819 C 401.833 798.086,447.583 824.341,455.833 829.164 C 464.083 833.987,515.743 863.643,570.632 895.065 C 677.836 956.437,679.411 957.171,691.009 951.174 C 708.900 941.922,712.883 921.425,699.483 907.567 C 696.480 904.461,660.083 882.651,615.833 857.441 C 572.750 832.895,536.518 811.921,535.317 810.831 C 533.584 809.257,574.548 782.353,734.484 680.030 C 845.226 609.179,937.592 549.626,939.742 547.689 C 953.736 535.077,950.413 512.047,933.343 503.338 C 926.847 500.024,923.752 500.000,510.483 500.037 C 108.091 500.072,93.938 500.177,87.335 503.176 " stroke="none" fill-rule="evenodd" fill="black"></path></svg>