<svg width="1000" height="1000" viewBox="0 0 1000 1000" version="1.1" id="svg5" sodipodi:docname="慥.svg" inkscape:version="1.3 (0e150ed6c4, 2023-07-21)" xmlns:inkscape="http://www.inkscape.org/namespaces/inkscape" xmlns:sodipodi="http://sodipodi.sourceforge.net/DTD/sodipodi-0.dtd" xmlns="http://www.w3.org/2000/svg" xmlns:svg="http://www.w3.org/2000/svg"><path d="M179.170 79.285 C 171.482 83.305,168.137 86.858,164.605 94.754 C 159.091 107.081,164.241 121.149,176.865 128.245 C 182.508 131.416,185.716 131.667,220.644 131.667 L 258.333 131.667 258.333 303.387 C 258.333 454.149,258.646 475.856,260.897 481.243 C 265.706 492.752,273.944 498.568,285.690 498.746 C 291.124 498.828,332.593 482.589,478.137 423.383 C 658.510 350.010,663.739 348.003,666.609 351.041 C 668.232 352.760,696.709 385.479,729.890 423.750 C 763.070 462.020,791.774 494.165,793.675 495.183 C 800.677 498.930,807.304 499.957,813.582 498.266 C 832.084 493.284,840.916 472.517,830.845 457.676 C 823.641 447.061,563.737 148.849,560.544 147.535 C 548.599 142.620,538.693 143.775,529.992 151.096 C 519.698 159.758,516.866 174.005,523.330 184.608 C 525.154 187.600,548.854 215.586,575.995 246.797 C 603.137 278.009,625.079 303.784,624.755 304.076 C 623.901 304.847,319.718 428.568,316.241 429.559 C 313.465 430.351,313.337 422.796,313.741 281.447 L 314.167 132.500 566.667 131.667 C 808.328 130.869,819.385 130.701,824.243 127.758 C 830.726 123.831,836.123 115.844,837.534 108.087 C 839.041 99.804,833.881 88.525,825.745 82.319 L 819.426 77.500 501.797 77.087 C 216.111 76.715,183.664 76.936,179.170 79.285 M492.314 444.841 C 489.462 446.580,485.337 450.515,483.148 453.585 L 479.167 459.167 478.700 532.917 L 478.234 606.667 342.397 606.667 C 230.761 606.667,205.604 607.076,201.196 608.961 C 191.187 613.244,183.333 624.508,183.333 634.582 C 183.333 641.856,189.753 652.907,196.368 657.020 L 202.500 660.833 340.000 661.667 L 477.500 662.500 477.929 772.873 L 478.357 883.245 302.929 883.706 C 107.060 884.220,121.972 883.266,112.335 895.902 C 103.087 908.026,105.759 923.543,118.905 934.048 L 125.309 939.167 499.738 939.653 C 705.674 939.921,877.386 939.683,881.320 939.124 C 895.290 937.140,905.933 923.632,904.585 909.600 C 903.348 896.728,894.642 887.434,881.430 884.882 C 877.435 884.110,797.474 883.446,703.738 883.406 L 533.310 883.333 533.738 772.917 L 534.167 662.500 672.500 661.667 L 810.833 660.833 816.444 656.832 C 822.752 652.333,828.242 641.763,828.297 634.012 C 828.357 625.506,821.597 614.840,813.400 610.505 L 806.142 606.667 669.788 606.667 L 533.433 606.667 532.967 532.620 C 532.512 460.474,532.411 458.453,529.013 453.870 C 520.132 441.888,503.762 437.860,492.314 444.841 " stroke="none" fill-rule="evenodd" fill="#000000"></path></svg>