<svg width="1000" height="1000" viewBox="0 0 1000 1000" version="1.1" id="svg5" sodipodi:docname="或.svg" inkscape:version="1.2.1 (9c6d41e410, 2022-07-14)" xmlns:inkscape="http://www.inkscape.org/namespaces/inkscape" xmlns:sodipodi="http://sodipodi.sourceforge.net/DTD/sodipodi-0.dtd" xmlns="http://www.w3.org/2000/svg" xmlns:svg="http://www.w3.org/2000/svg"><path d="M334.845 107.200 C 324.593 112.598,321.019 120.094,317.618 143.333 C 307.698 211.103,281.048 305.681,252.572 374.167 C 216.449 461.046,176.076 525.568,123.482 580.474 C 108.564 596.047,103.132 602.891,101.820 607.765 C 97.402 624.172,111.098 641.667,128.360 641.667 C 137.637 641.667,140.271 640.051,156.562 624.369 C 241.048 543.045,312.314 405.825,352.607 246.894 L 359.003 221.667 489.918 221.668 C 689.220 221.671,818.669 223.389,817.659 226.019 C 815.439 231.806,542.768 636.667,541.092 636.667 C 540.023 636.667,513.652 611.092,482.491 579.833 C 451.147 548.392,423.437 521.957,420.470 520.667 C 407.119 514.858,391.443 520.857,384.956 534.258 C 380.475 543.514,381.180 552.827,386.950 560.613 C 389.086 563.495,464.708 639.458,555.000 729.419 C 732.719 906.486,724.161 898.758,739.369 895.905 C 748.965 894.105,759.344 883.012,760.854 872.942 C 763.021 858.492,762.120 857.441,668.170 764.855 C 620.511 717.888,581.834 678.635,582.221 677.625 C 583.309 674.791,888.385 219.789,892.738 214.508 C 904.034 200.805,900.596 180.055,885.575 171.283 C 880.574 168.362,868.411 168.151,625.892 166.781 C 485.952 165.991,371.211 165.079,370.913 164.755 C 370.614 164.432,371.457 157.042,372.786 148.333 C 374.115 139.625,374.814 129.968,374.339 126.873 C 373.086 118.716,366.834 110.439,359.057 106.642 C 350.201 102.318,343.841 102.465,334.845 107.200 " stroke="none" fill-rule="evenodd" fill="black"></path></svg>