<svg width="1000" height="1000" viewBox="0 0 1000 1000" version="1.1" id="svg5" sodipodi:docname="挽.svg" inkscape:version="1.3 (0e150ed6c4, 2023-07-21)" xmlns:inkscape="http://www.inkscape.org/namespaces/inkscape" xmlns:sodipodi="http://sodipodi.sourceforge.net/DTD/sodipodi-0.dtd" xmlns="http://www.w3.org/2000/svg" xmlns:svg="http://www.w3.org/2000/svg"><path d="M521.562 51.690 C 506.023 54.351,499.758 65.000,497.553 92.500 C 492.616 154.053,472.015 218.637,436.626 283.504 C 429.323 296.890,422.873 310.216,422.293 313.119 C 420.877 320.200,425.571 332.115,431.862 337.409 C 447.197 350.313,468.262 343.820,477.496 323.343 C 479.152 319.671,481.142 316.667,481.920 316.667 C 482.697 316.667,483.333 381.056,483.333 459.754 L 483.333 602.840 487.083 608.350 C 492.070 615.677,498.019 619.895,505.962 621.738 C 509.558 622.571,544.938 623.272,584.583 623.294 C 641.123 623.325,656.665 623.783,656.658 625.417 C 656.653 626.563,655.114 638.000,653.238 650.833 C 640.559 737.562,611.209 810.488,572.507 851.418 C 547.338 878.037,523.153 890.189,488.884 893.436 C 469.669 895.257,464.266 897.263,457.765 904.989 C 449.241 915.119,449.931 929.557,459.440 940.084 C 467.684 949.208,474.376 950.720,496.143 948.377 C 580.471 939.298,644.020 876.770,682.518 765.000 C 696.014 725.816,707.495 673.714,710.888 636.250 L 712.058 623.333 774.362 623.333 L 836.667 623.333 836.667 639.754 C 836.667 654.073,837.152 656.893,840.456 661.797 C 847.025 671.544,854.412 675.394,865.109 674.647 C 876.541 673.848,883.416 669.325,888.190 659.462 C 891.645 652.325,891.667 651.233,891.667 480.341 C 891.667 287.317,892.425 299.192,879.501 289.830 C 866.753 280.595,849.884 284.212,840.456 298.203 L 836.667 303.826 836.667 435.246 L 836.667 566.667 775.833 566.667 L 715.000 566.667 715.000 395.869 L 715.000 225.071 823.212 224.619 C 930.044 224.172,931.484 224.122,936.129 220.680 C 944.227 214.679,948.333 207.049,948.333 198.004 C 948.333 187.944,945.193 181.588,937.215 175.503 L 931.093 170.833 736.380 170.396 C 618.921 170.133,541.667 169.349,541.667 168.422 C 541.667 167.576,542.815 161.426,544.218 154.755 C 551.025 122.395,555.597 79.803,553.197 71.109 C 549.651 58.268,535.146 49.364,521.562 51.690 M179.703 193.333 C 114.512 194.135,111.730 194.299,107.306 197.603 C 97.332 205.053,92.859 215.666,95.142 226.462 C 96.840 234.490,101.588 240.267,110.034 244.583 C 117.197 248.243,118.665 248.333,171.186 248.333 L 225.000 248.333 225.000 359.918 L 225.000 471.503 152.917 472.001 C 73.431 472.551,75.375 472.298,66.098 483.323 C 53.920 497.795,61.939 521.218,80.871 526.474 C 85.212 527.679,111.232 528.318,156.250 528.324 L 225.000 528.333 225.000 693.604 L 225.000 858.874 229.143 865.943 C 237.615 880.400,255.912 883.825,268.637 873.336 C 280.766 863.338,280.000 875.508,280.000 692.747 L 280.000 528.497 352.083 527.999 C 423.993 527.501,424.182 527.491,430.333 523.666 C 448.340 512.469,448.340 487.531,430.333 476.334 C 424.182 472.509,423.993 472.499,352.083 472.001 L 280.000 471.503 280.000 359.982 L 280.000 248.461 335.542 247.981 L 391.084 247.500 397.233 243.333 C 405.578 237.680,410.659 227.002,409.576 217.397 C 408.578 208.542,401.768 198.902,394.309 195.785 C 388.047 193.169,287.006 192.014,179.703 193.333 M659.591 396.250 L 660.016 566.667 599.175 566.667 L 538.333 566.667 538.333 437.020 L 538.333 307.373 534.583 299.950 C 532.521 295.867,528.208 290.768,525.000 288.617 C 520.060 285.307,517.563 284.807,508.700 285.353 C 501.810 285.777,498.486 285.400,498.973 284.249 C 499.379 283.287,504.682 271.250,510.757 257.500 C 516.833 243.750,522.510 230.804,523.375 228.731 L 524.946 224.962 592.056 225.398 L 659.167 225.833 659.591 396.250 " stroke="none" fill-rule="evenodd" fill="black"></path></svg>