<svg width="1000" height="1000" viewBox="0 0 1000 1000" version="1.1" id="svg5" xmlns="http://www.w3.org/2000/svg" xmlns:svg="http://www.w3.org/2000/svg"><path d="M215.833 53.135 C 212.167 54.818,207.783 57.752,206.092 59.654 C 198.975 67.658,198.483 72.765,198.406 139.524 L 198.333 203.215 137.785 203.691 L 77.236 204.167 71.267 208.721 C 59.044 218.047,59.858 196.353,60.372 499.167 C 60.803 753.046,61.022 771.178,63.717 776.103 C 74.400 795.627,102.267 795.627,112.950 776.103 C 115.642 771.182,115.863 753.868,116.276 514.583 L 116.718 258.333 157.526 258.333 L 198.333 258.333 198.343 590.417 C 198.349 826.333,198.882 924.408,200.181 929.088 C 204.040 942.986,220.092 952.497,233.108 948.598 C 241.214 946.169,247.576 941.212,251.283 934.436 C 253.985 929.498,254.194 908.088,254.607 593.750 L 255.048 258.333 295.857 258.333 L 336.667 258.333 336.667 473.333 C 336.667 591.583,336.334 688.333,335.927 688.333 C 335.520 688.333,330.915 680.646,325.694 671.250 C 312.871 648.176,309.131 643.499,300.427 639.648 C 282.687 631.801,263.333 645.178,263.333 665.287 C 263.333 671.658,267.638 680.296,297.677 734.202 C 316.565 768.099,334.119 799.958,336.686 805.000 C 342.588 816.596,348.922 822.538,357.917 824.920 C 370.127 828.152,383.624 822.385,389.233 811.539 C 391.426 807.297,391.732 770.898,391.732 514.019 C 391.732 225.715,391.683 221.253,388.448 216.020 C 386.642 213.097,382.213 209.047,378.605 207.020 C 372.183 203.410,370.827 203.333,313.523 203.333 L 255.000 203.333 254.927 142.083 C 254.887 108.396,254.223 77.565,253.452 73.570 C 251.605 64.010,247.262 58.330,238.299 53.750 C 229.449 49.228,224.628 49.096,215.833 53.135 M382.469 93.989 C 375.535 97.011,367.045 107.122,365.780 113.866 C 363.513 125.951,371.930 140.401,383.858 144.898 C 386.849 146.025,410.265 146.667,448.442 146.667 C 504.372 146.667,508.333 146.860,508.329 149.583 C 508.319 155.278,498.227 221.408,491.604 259.167 C 487.906 280.250,478.735 327.500,471.224 364.167 C 463.713 400.833,457.553 435.018,457.534 440.132 C 457.506 447.842,458.320 450.506,462.303 455.726 C 471.176 467.355,456.924 466.638,680.754 466.714 L 883.333 466.783 883.310 472.141 C 883.266 482.316,880.053 544.243,878.275 569.167 C 871.684 661.588,861.850 723.685,844.016 785.495 C 833.594 821.619,819.700 860.891,817.406 860.708 C 816.541 860.639,793.261 827.639,765.672 787.375 C 733.219 740.010,713.569 712.843,710.009 710.417 C 702.394 705.227,689.269 705.245,681.536 710.456 C 669.327 718.684,664.816 733.363,670.888 745.105 C 674.148 751.410,799.324 934.500,804.000 939.803 C 808.175 944.538,819.224 949.912,824.890 949.963 C 831.398 950.022,843.388 943.320,846.847 937.689 C 852.071 929.187,872.807 875.107,885.902 835.833 C 911.653 758.599,924.681 688.798,932.404 586.667 C 935.577 544.702,938.193 490.990,938.652 458.333 C 939.036 431.099,938.062 426.463,930.526 419.643 C 922.348 412.242,917.629 411.667,865.054 411.667 C 819.298 411.667,815.000 411.426,815.000 408.868 C 815.000 407.329,827.816 341.516,843.480 262.618 C 862.761 165.497,871.657 117.295,871.023 113.372 C 869.888 106.346,865.709 100.425,858.350 95.417 L 852.840 91.667 620.170 91.732 C 431.647 91.785,386.545 92.213,382.469 93.989 M809.449 150.417 C 807.752 157.389,758.333 408.392,758.333 410.036 C 758.333 411.084,715.403 411.667,638.221 411.667 C 524.609 411.667,518.156 411.509,518.975 408.750 C 524.360 390.631,553.455 228.454,560.015 180.000 C 561.938 165.792,563.861 152.479,564.288 150.417 L 565.064 146.667 687.712 146.667 L 810.361 146.667 809.449 150.417 " stroke="none" fill-rule="evenodd" fill="#000000"></path></svg>