<svg width="1000" height="1000" viewBox="0 0 1000 1000" version="1.1" id="svg5" xmlns="http://www.w3.org/2000/svg" xmlns:svg="http://www.w3.org/2000/svg"><path d="M485.474 68.489 C 482.526 70.377,478.401 74.677,476.307 78.044 C 472.691 83.859,472.472 86.031,471.945 121.250 L 471.389 158.333 323.611 158.343 C 228.850 158.349,173.650 158.958,169.747 160.042 C 162.189 162.142,152.208 172.853,150.855 180.317 C 150.305 183.351,150.075 261.958,150.344 355.000 C 150.886 542.466,150.067 529.151,161.656 538.902 C 176.128 551.080,199.552 543.061,204.808 524.129 C 206.088 519.518,206.651 471.461,206.657 366.250 L 206.667 215.000 339.167 215.000 L 471.667 215.000 471.667 401.667 L 471.667 588.333 355.262 588.333 L 238.858 588.333 231.600 592.171 C 223.370 596.524,216.667 607.144,216.667 615.833 C 216.667 624.522,223.370 635.143,231.600 639.495 L 238.858 643.333 499.736 643.333 C 756.578 643.333,760.719 643.282,767.390 640.025 C 787.428 630.241,788.012 602.542,768.400 592.171 L 761.142 588.333 644.738 588.333 L 528.333 588.333 528.333 401.667 L 528.333 215.000 660.833 215.000 L 793.333 215.000 793.333 355.043 L 793.333 495.086 788.519 492.596 C 763.257 479.533,656.263 429.515,652.068 428.808 C 644.266 427.493,632.478 432.492,627.265 439.326 C 619.226 449.867,620.323 466.656,629.622 475.382 C 632.122 477.727,674.292 498.973,723.333 522.595 C 821.691 569.970,822.891 570.401,835.708 562.963 C 839.731 560.629,843.742 556.338,846.125 551.821 L 850.000 544.476 850.000 363.180 C 850.000 239.389,849.439 180.395,848.231 177.192 C 845.600 170.214,836.775 161.855,830.074 159.993 C 826.403 158.973,768.230 158.348,676.389 158.343 L 528.611 158.333 528.055 121.124 C 527.502 84.045,527.484 83.891,523.065 77.218 C 520.626 73.534,516.013 69.279,512.814 67.760 C 504.677 63.899,492.117 64.234,485.474 68.489 M74.167 881.831 C 57.897 886.855,49.616 908.262,58.750 921.684 C 63.736 929.010,69.685 933.229,77.629 935.071 C 86.343 937.092,913.657 937.092,922.371 935.071 C 947.202 929.312,953.038 899.307,932.117 884.971 L 926.078 880.833 502.622 880.560 C 246.622 880.395,77.189 880.898,74.167 881.831 " stroke="none" fill-rule="evenodd" fill="#000000"></path></svg>