<svg width="1000" height="1000" viewBox="0 0 1000 1000" version="1.1" id="svg5" xmlns="http://www.w3.org/2000/svg" xmlns:svg="http://www.w3.org/2000/svg"><path d="M330.833 65.278 C 325.408 68.279,319.853 73.840,317.215 78.912 C 315.139 82.904,314.776 95.006,314.929 155.162 L 315.111 226.667 258.497 226.667 C 222.549 226.667,200.171 227.314,197.192 228.439 C 186.685 232.409,178.306 244.389,178.361 255.363 C 178.395 262.106,184.251 272.679,190.536 277.343 C 195.067 280.706,197.367 280.851,253.453 281.312 L 311.667 281.790 311.667 289.909 C 311.667 302.797,306.689 337.781,302.506 354.290 C 297.139 375.473,289.261 393.478,280.222 405.217 C 275.975 410.733,271.191 417.254,269.592 419.707 C 265.979 425.249,265.756 438.405,269.165 444.997 C 272.967 452.348,282.292 458.625,290.844 459.589 L 298.333 460.434 298.333 554.383 L 298.333 648.333 186.095 648.333 L 73.858 648.333 66.512 652.208 C 56.227 657.634,51.331 666.425,52.156 677.986 C 52.825 687.363,56.081 693.170,63.974 699.064 C 68.501 702.444,70.406 702.507,181.323 702.951 C 243.333 703.199,294.709 704.043,295.492 704.825 C 297.142 706.476,294.261 750.348,290.665 778.333 C 284.014 830.085,273.577 863.233,254.878 891.996 C 248.584 901.678,248.100 903.226,248.692 911.776 C 249.492 923.322,254.013 930.085,264.242 935.037 C 280.215 942.769,292.644 936.154,307.057 912.252 C 331.822 871.184,345.324 813.079,351.347 721.667 L 352.500 704.167 485.000 704.167 L 617.500 704.167 617.936 772.449 L 618.371 840.731 611.269 833.796 C 603.338 826.051,597.554 823.333,589.005 823.333 C 570.646 823.333,557.518 841.546,563.284 859.017 C 565.876 866.872,627.677 933.167,635.441 936.423 C 642.464 939.367,655.663 938.067,661.271 933.880 C 663.667 932.091,667.174 928.557,669.064 926.026 C 672.431 921.517,672.517 919.247,673.333 812.796 L 674.167 704.167 802.795 703.333 C 929.451 702.513,931.495 702.447,936.026 699.064 C 943.919 693.170,947.175 687.363,947.844 677.986 C 948.669 666.425,943.773 657.634,933.488 652.208 L 926.142 648.333 799.738 648.333 L 673.333 648.333 673.333 549.057 C 673.333 472.689,673.814 448.941,675.417 446.140 C 676.970 443.426,677.712 422.147,678.333 362.500 L 679.167 282.500 741.964 281.667 C 802.411 280.865,804.937 280.703,809.464 277.343 C 823.482 266.940,825.342 248.556,813.644 236.045 C 805.039 226.842,803.635 226.667,738.387 226.667 L 678.333 226.667 678.333 154.413 L 678.333 82.160 674.544 76.536 C 672.459 73.443,668.223 69.207,665.131 67.123 L 659.507 63.333 496.837 63.384 C 381.190 63.420,333.203 63.968,330.833 65.278 M622.940 172.917 L 623.380 226.667 496.690 226.667 L 370.000 226.667 370.000 173.611 C 370.000 144.431,370.505 120.051,371.122 119.434 C 371.738 118.817,428.551 118.505,497.372 118.740 L 622.500 119.167 622.940 172.917 M622.944 327.083 C 623.188 351.604,623.076 371.667,622.695 371.667 C 622.314 371.667,618.101 369.042,613.333 365.833 C 605.098 360.291,601.206 359.233,591.667 359.940 C 584.695 360.457,575.000 367.976,571.572 375.527 C 564.758 390.536,568.787 399.492,590.472 417.540 C 599.257 424.851,606.494 431.396,606.555 432.083 C 606.617 432.771,544.417 433.333,468.333 433.333 C 326.409 433.333,325.806 433.307,331.542 427.417 C 335.128 423.733,346.673 397.958,351.463 382.939 C 357.142 365.137,364.098 329.586,365.735 310.000 C 366.310 303.125,367.200 293.933,367.714 289.573 L 368.649 281.646 495.574 282.073 L 622.500 282.500 622.944 327.083 M618.333 568.333 L 618.333 648.333 485.833 648.333 L 353.333 648.333 353.333 569.444 C 353.333 526.056,353.833 490.056,354.444 489.444 C 355.056 488.833,414.681 488.333,486.944 488.333 L 618.333 488.333 618.333 568.333 " stroke="none" fill-rule="evenodd" fill="black"></path></svg>