<svg width="1000" height="1000" viewBox="0 0 1000 1000" version="1.1" id="svg5" sodipodi:docname="杯.svg" inkscape:version="1.3 (0e150ed6c4, 2023-07-21)" xmlns:inkscape="http://www.inkscape.org/namespaces/inkscape" xmlns:sodipodi="http://sodipodi.sourceforge.net/DTD/sodipodi-0.dtd" xmlns="http://www.w3.org/2000/svg" xmlns:svg="http://www.w3.org/2000/svg"><path d="M194.167 105.605 C 187.905 108.514,180.761 116.048,178.439 122.192 C 175.951 128.777,175.956 549.575,178.444 556.142 C 180.674 562.026,186.022 567.834,192.500 571.408 C 197.019 573.901,210.698 574.211,334.583 574.630 L 471.667 575.093 471.667 715.046 L 471.667 855.000 272.917 855.037 C 83.046 855.072,73.863 855.211,67.369 858.161 C 59.346 861.804,54.067 867.998,51.402 876.892 C 47.211 890.880,57.575 906.465,73.310 909.839 C 85.374 912.426,914.626 912.426,926.690 909.839 C 953.447 904.101,957.433 869.425,932.631 858.161 C 926.137 855.211,916.954 855.072,727.083 855.037 L 528.333 855.000 528.333 715.000 L 528.333 575.000 649.794 575.000 L 771.254 575.000 772.004 584.046 C 774.244 611.059,806.077 619.752,822.347 597.794 L 825.833 593.089 825.833 357.500 C 825.833 122.157,825.830 121.906,822.397 117.309 C 815.764 108.424,810.585 105.833,799.461 105.833 C 787.210 105.833,780.127 109.951,774.962 120.074 C 771.735 126.401,771.667 130.571,771.667 322.434 L 771.667 518.333 501.667 518.333 L 231.667 518.333 231.667 321.477 C 231.667 126.006,231.643 124.578,228.245 118.532 C 221.457 106.456,205.426 100.374,194.167 105.605 " stroke="none" fill-rule="evenodd" fill="black"></path></svg>