<svg width="1000" height="1000" viewBox="0 0 1000 1000" version="1.1" id="svg5" xmlns="http://www.w3.org/2000/svg" xmlns:svg="http://www.w3.org/2000/svg"><path d="M118.163 70.430 C 115.048 72.500,110.813 77.534,108.750 81.617 L 105.000 89.040 105.000 330.271 C 105.000 491.119,105.578 574.198,106.735 579.592 C 109.818 593.970,121.247 602.529,135.756 601.326 C 151.175 600.047,159.439 590.679,161.131 572.563 L 162.149 561.667 316.908 561.667 L 471.667 561.667 471.676 733.750 C 471.682 854.161,472.238 907.824,473.526 912.462 C 477.417 926.477,491.694 935.262,506.168 932.547 C 514.110 931.057,524.038 921.237,526.474 912.462 C 527.762 907.824,528.318 854.161,528.324 733.750 L 528.333 561.667 683.105 561.667 L 837.877 561.667 838.751 572.551 C 840.240 591.101,850.471 601.675,866.919 601.660 C 880.089 601.649,890.370 592.879,893.287 579.167 C 894.504 573.441,894.919 495.204,894.613 329.167 C 894.204 107.936,893.933 87.077,891.408 82.500 C 887.834 76.022,882.026 70.674,876.142 68.444 C 872.869 67.204,758.366 66.667,497.638 66.667 L 123.826 66.667 118.163 70.430 M471.667 204.167 L 471.667 286.667 316.667 286.667 L 161.667 286.667 161.667 204.167 L 161.667 121.667 316.667 121.667 L 471.667 121.667 471.667 204.167 M838.333 204.167 L 838.333 286.667 683.333 286.667 L 528.333 286.667 528.333 204.167 L 528.333 121.667 683.333 121.667 L 838.333 121.667 838.333 204.167 M471.667 423.333 L 471.667 505.000 316.667 505.000 L 161.667 505.000 161.667 423.333 L 161.667 341.667 316.667 341.667 L 471.667 341.667 471.667 423.333 M838.333 423.333 L 838.333 505.000 683.333 505.000 L 528.333 505.000 528.333 423.333 L 528.333 341.667 683.333 341.667 L 838.333 341.667 838.333 423.333 " stroke="none" fill-rule="evenodd" fill="black"></path></svg>