<svg width="1000" height="1000" viewBox="0 0 1000 1000" version="1.1" id="svg5" xmlns="http://www.w3.org/2000/svg" xmlns:svg="http://www.w3.org/2000/svg"><path d="M67.469 52.323 C 60.565 55.331,52.035 65.459,50.855 72.048 C 50.318 75.046,50.093 269.125,50.356 503.333 L 50.833 929.167 54.667 935.333 C 60.076 944.031,68.362 948.718,78.333 948.718 C 88.304 948.718,96.590 944.031,101.999 935.333 L 105.833 929.167 106.283 730.417 L 106.732 531.667 154.200 531.667 L 201.667 531.667 201.706 684.583 C 201.729 770.353,202.412 840.371,203.262 844.038 C 209.014 868.836,239.025 874.707,253.329 853.831 C 256.897 848.624,257.518 845.584,258.073 830.587 L 258.711 813.333 498.333 813.333 L 737.955 813.333 738.594 830.587 C 739.149 845.584,739.770 848.624,743.338 853.831 C 751.909 866.340,768.821 870.498,780.131 862.877 C 786.986 858.257,793.333 849.191,793.333 844.019 C 793.333 841.917,794.046 839.756,794.917 839.218 C 796.341 838.338,816.453 857.368,886.667 926.036 C 910.717 949.557,914.511 951.713,927.536 949.270 C 934.696 947.927,944.699 939.461,947.748 932.163 C 949.620 927.684,950.000 854.698,950.000 500.162 C 950.000 202.795,949.463 72.129,948.227 68.858 C 945.815 62.474,938.623 55.070,932.137 52.295 C 924.328 48.953,75.139 48.981,67.469 52.323 M893.333 291.667 L 893.333 476.667 844.167 476.667 L 795.000 476.667 795.000 347.020 L 795.000 217.373 791.250 209.950 C 789.187 205.867,784.952 200.833,781.837 198.763 L 776.174 195.000 498.333 195.000 L 220.493 195.000 214.830 198.763 C 211.715 200.833,207.479 205.867,205.417 209.950 L 201.667 217.373 201.667 347.020 L 201.667 476.667 154.167 476.667 L 106.667 476.667 106.667 291.667 L 106.667 106.667 500.000 106.667 L 893.333 106.667 893.333 291.667 M470.000 363.333 L 470.000 476.667 364.167 476.667 L 258.333 476.667 258.333 363.333 L 258.333 250.000 364.167 250.000 L 470.000 250.000 470.000 363.333 M738.333 363.333 L 738.333 476.667 632.500 476.667 L 526.667 476.667 526.667 363.333 L 526.667 250.000 632.500 250.000 L 738.333 250.000 738.333 363.333 M470.000 645.000 L 470.000 758.333 364.167 758.333 L 258.333 758.333 258.333 645.000 L 258.333 531.667 364.167 531.667 L 470.000 531.667 470.000 645.000 M738.333 645.000 L 738.333 758.333 632.500 758.333 L 526.667 758.333 526.667 645.000 L 526.667 531.667 632.500 531.667 L 738.333 531.667 738.333 645.000 M893.333 693.711 L 893.333 855.755 880.417 843.271 C 873.313 836.405,857.375 820.955,845.000 808.938 C 819.227 783.910,814.620 780.959,803.057 782.070 L 795.000 782.844 795.000 657.255 L 795.000 531.667 844.167 531.667 L 893.333 531.667 893.333 693.711 " stroke="none" fill-rule="evenodd" fill="#000000"></path></svg>