<svg width="1000" height="1000" viewBox="0 0 1000 1000" version="1.1" id="svg5" sodipodi:docname="це╡.svg" inkscape:version="1.2.1 (9c6d41e410, 2022-07-14)" xmlns:inkscape="http://www.inkscape.org/namespaces/inkscape" xmlns:sodipodi="http://sodipodi.sourceforge.net/DTD/sodipodi-0.dtd" xmlns="http://www.w3.org/2000/svg" xmlns:svg="http://www.w3.org/2000/svg"><path d="M132.335 83.176 C 121.959 87.888,117.500 95.287,117.500 107.794 C 117.500 118.919,120.091 124.097,128.975 130.730 C 133.576 134.165,133.702 134.167,445.539 135.000 L 757.500 135.833 750.833 140.300 C 730.200 154.125,474.242 311.667,472.414 311.667 C 471.210 311.667,436.509 292.975,395.300 270.130 C 299.847 217.212,307.797 221.134,297.915 222.083 C 288.777 222.962,282.706 226.744,276.936 235.153 C 271.662 242.840,272.395 257.176,278.466 265.048 C 281.439 268.903,306.484 283.692,369.203 318.626 C 416.850 345.166,460.708 369.526,466.667 372.759 C 472.625 375.993,491.276 386.257,508.113 395.569 L 538.727 412.500 309.658 413.333 L 80.589 414.167 73.888 418.601 C 57.062 429.737,57.556 452.876,74.869 464.544 L 80.493 468.333 361.496 468.437 C 516.048 468.494,684.390 468.450,735.588 468.339 C 794.568 468.211,828.461 468.724,828.088 469.740 C 827.152 472.291,469.816 747.521,467.721 747.304 C 466.683 747.197,424.063 718.226,373.011 682.924 C 310.516 639.710,278.260 618.378,274.286 617.632 C 264.844 615.861,255.961 619.181,249.289 626.976 C 240.459 637.292,239.533 647.868,246.462 659.263 C 249.093 663.589,338.773 726.788,473.368 819.167 C 488.060 829.250,535.729 862.151,579.301 892.280 C 629.770 927.179,660.756 947.570,664.678 948.465 C 682.471 952.526,701.394 934.377,697.333 917.146 C 694.639 905.715,690.455 902.381,603.364 842.268 C 555.737 809.396,516.935 781.944,517.135 781.263 C 517.336 780.583,606.000 711.729,714.167 628.254 C 945.683 449.586,931.042 461.103,935.100 454.450 C 941.993 443.144,937.306 425.444,925.468 418.085 L 919.167 414.167 785.000 413.333 L 650.833 412.500 591.667 379.414 C 559.125 361.217,531.569 345.568,530.431 344.639 C 528.924 343.408,575.004 314.079,700.138 236.622 C 794.614 178.141,873.435 128.917,875.294 127.234 C 881.342 121.761,883.751 115.056,882.985 105.825 C 882.093 95.067,876.880 87.361,867.665 83.176 C 861.070 80.181,848.327 80.073,500.000 80.073 C 151.673 80.073,138.930 80.181,132.335 83.176 " stroke="none" fill-rule="evenodd" fill="black"></path></svg>