<svg width="1000" height="1000" viewBox="0 0 1000 1000" version="1.1" id="svg5" xmlns="http://www.w3.org/2000/svg" xmlns:svg="http://www.w3.org/2000/svg"><path d="M182.986 136.647 C 175.812 138.810,168.969 144.461,166.033 150.647 C 163.558 155.863,163.318 185.392,163.272 489.822 C 163.217 851.022,162.629 827.484,171.925 836.139 C 174.075 838.140,177.945 840.578,180.525 841.556 C 183.785 842.791,276.252 843.333,483.442 843.333 L 781.667 843.333 781.703 862.083 C 781.754 887.942,785.672 896.273,800.747 902.571 C 812.444 907.459,828.382 901.121,833.962 889.363 C 836.580 883.846,836.775 857.787,836.731 519.900 C 836.678 114.380,837.735 148.999,825.156 140.797 C 816.686 135.273,808.582 134.155,800.747 137.429 C 792.157 141.018,788.477 144.496,784.801 152.500 C 781.943 158.724,781.737 165.618,781.703 256.250 L 781.667 353.333 500.000 353.333 L 218.333 353.333 218.297 256.250 C 218.263 165.618,218.057 158.724,215.199 152.500 C 211.557 144.570,207.841 141.017,199.576 137.564 C 192.862 134.758,189.811 134.590,182.986 136.647 M781.667 597.500 L 781.667 786.667 500.000 786.667 L 218.333 786.667 218.333 597.500 L 218.333 408.333 500.000 408.333 L 781.667 408.333 781.667 597.500 " stroke="none" fill-rule="evenodd" fill="#000000"></path></svg>