<svg width="1000" height="1000" viewBox="0 0 1000 1000" version="1.1" id="svg5" xmlns="http://www.w3.org/2000/svg" xmlns:svg="http://www.w3.org/2000/svg"><path d="M113.051 146.711 C 103.271 151.877,99.157 159.052,99.219 170.833 C 99.288 183.951,200.313 654.874,204.652 662.303 C 217.508 684.316,255.038 674.649,254.986 649.337 C 254.978 645.577,233.715 543.125,207.735 421.667 C 181.755 300.208,160.806 200.271,161.181 199.583 C 161.556 198.896,314.444 198.333,500.932 198.333 C 824.274 198.333,840.000 198.470,840.000 201.285 C 840.000 202.908,835.925 219.596,830.944 238.368 C 771.251 463.344,715.785 586.573,630.663 683.333 C 593.541 725.530,555.171 758.627,501.556 794.698 C 478.924 809.924,476.352 812.525,473.331 823.241 C 468.279 841.164,487.613 860.138,505.899 855.203 C 509.530 854.223,522.250 846.922,534.167 838.979 C 632.742 773.273,704.348 695.063,761.506 590.675 C 799.149 521.927,836.150 424.566,869.394 306.783 C 884.780 252.272,903.807 179.566,904.535 172.500 C 905.533 162.821,899.418 152.117,890.067 147.171 L 882.809 143.333 500.988 143.407 C 126.500 143.479,119.049 143.543,113.051 146.711 " stroke="none" fill-rule="evenodd" fill="black"></path></svg>