<svg width="1000" height="1000" viewBox="0 0 1000 1000" version="1.1" id="svg5" sodipodi:docname="橘.svg" inkscape:version="1.4 (86a8ad7, 2024-10-11)" xmlns:inkscape="http://www.inkscape.org/namespaces/inkscape" xmlns:sodipodi="http://sodipodi.sourceforge.net/DTD/sodipodi-0.dtd" xmlns="http://www.w3.org/2000/svg" xmlns:svg="http://www.w3.org/2000/svg"><path d="M211.668 38.448 C 206.795 40.498,200.504 46.101,197.764 50.833 C 196.363 53.251,195.605 91.461,195.000 190.000 L 194.167 325.833 185.398 326.338 C 179.347 326.686,176.373 326.169,175.803 324.671 C 175.348 323.477,169.385 276.885,162.552 221.133 C 148.891 109.675,149.496 112.411,136.939 105.353 C 125.243 98.780,112.592 100.927,103.072 111.101 C 94.498 120.264,94.481 119.824,107.489 225.930 C 114.113 279.960,119.219 324.729,118.835 325.417 C 118.451 326.104,110.042 326.667,100.148 326.667 C 84.237 326.667,81.523 327.100,76.650 330.417 C 68.396 336.034,64.624 342.159,63.737 351.382 C 62.752 361.640,67.752 371.661,76.603 377.166 C 82.290 380.703,84.466 380.863,137.729 381.667 L 192.959 382.500 187.199 410.758 C 171.809 486.259,133.974 620.784,100.511 718.982 C 82.004 773.292,67.893 809.393,54.185 837.500 C 39.504 867.600,39.353 868.073,41.650 876.607 C 47.443 898.117,72.810 904.857,87.871 888.887 C 94.821 881.518,113.270 843.721,127.597 807.500 C 139.637 777.060,170.621 684.749,185.216 635.833 L 194.167 605.833 195.000 776.128 C 195.826 944.874,195.865 946.465,199.270 951.025 C 205.903 959.909,211.082 962.500,222.206 962.500 C 234.456 962.500,241.540 958.382,246.704 948.259 C 249.925 941.947,250.001 937.785,250.051 765.483 C 250.079 666.820,250.730 590.268,251.528 591.667 C 252.313 593.042,270.760 645.167,292.522 707.500 C 314.284 769.833,333.477 823.583,335.174 826.943 C 344.776 845.964,372.208 846.265,382.855 827.466 C 384.921 823.818,386.624 818.376,386.639 815.372 C 386.654 812.369,356.123 722.744,318.791 616.206 L 250.916 422.500 250.322 402.083 L 249.728 381.667 304.084 381.667 C 364.308 381.667,365.409 381.502,374.527 371.117 C 383.449 360.956,383.861 347.876,375.600 337.046 C 369.137 328.573,362.915 326.667,341.720 326.667 C 331.607 326.667,323.333 326.339,323.333 325.940 C 323.333 325.540,325.216 317.477,327.517 308.023 C 336.617 270.636,342.959 222.573,348.983 145.350 C 351.659 111.041,351.067 106.469,342.811 97.716 C 330.504 84.666,309.571 87.014,299.988 102.520 C 297.076 107.231,296.068 113.288,294.107 137.853 C 286.659 231.169,280.477 274.210,268.667 315.000 L 265.530 325.833 258.182 325.833 L 250.833 325.833 250.000 190.833 C 249.190 59.620,249.073 55.675,245.833 50.174 C 240.763 41.565,234.696 37.861,224.652 37.241 C 219.802 36.942,213.959 37.485,211.668 38.448 M652.417 48.919 C 645.640 51.994,638.782 60.398,636.852 67.992 C 635.989 71.388,634.800 81.667,634.210 90.833 C 629.917 157.537,617.391 216.251,593.237 282.903 C 587.790 297.933,583.333 312.889,583.333 316.138 C 583.333 323.926,589.329 334.313,596.317 338.632 C 602.256 342.303,612.724 343.340,620.417 341.021 L 625.000 339.639 625.000 471.676 C 625.000 603.075,625.017 603.743,628.530 609.993 C 630.475 613.454,635.151 618.045,638.946 620.220 C 645.691 624.085,646.837 624.178,694.536 624.696 L 743.239 625.225 742.465 632.196 C 742.039 636.030,740.918 647.417,739.973 657.500 C 731.936 743.263,709.189 824.538,682.071 864.384 C 673.449 877.051,658.600 890.999,649.405 895.066 C 645.409 896.834,637.010 899.006,630.740 899.894 C 613.645 902.315,605.136 910.161,603.729 924.797 C 602.144 941.296,615.695 955.000,633.593 955.000 C 637.740 955.000,646.956 953.511,654.073 951.691 C 731.478 931.894,780.816 823.735,797.586 637.083 L 798.672 625.000 831.836 625.000 L 865.000 625.000 865.000 640.054 C 865.000 657.542,867.085 663.762,875.390 671.054 C 886.661 680.950,901.888 679.860,912.226 668.417 C 915.482 664.814,918.591 659.383,919.137 656.349 C 919.682 653.316,919.912 571.951,919.648 475.538 C 919.168 300.657,919.158 300.233,915.680 295.538 C 909.679 287.440,902.049 283.333,893.004 283.333 C 882.944 283.333,876.588 286.474,870.503 294.451 L 865.833 300.573 865.388 434.453 L 864.942 568.333 832.463 568.333 L 799.985 568.333 800.409 395.417 L 800.833 222.500 871.667 221.667 C 937.081 220.897,942.848 220.597,947.054 217.744 C 957.317 210.783,962.035 196.429,957.571 185.747 C 953.982 177.157,950.504 173.477,942.500 169.801 C 936.218 166.917,928.488 166.738,808.537 166.703 L 681.241 166.667 682.378 159.583 C 685.796 138.296,688.504 111.399,689.385 90.000 C 690.352 66.507,690.270 65.675,686.440 60.153 C 684.273 57.029,680.493 52.987,678.041 51.171 C 672.414 47.003,659.199 45.842,652.417 48.919 M375.372 193.531 C 356.496 202.874,354.881 227.709,372.304 240.730 C 376.556 243.909,379.584 244.205,412.617 244.675 L 448.333 245.184 448.333 359.259 L 448.333 473.333 403.280 473.333 C 352.951 473.333,350.292 473.802,342.468 484.060 C 332.353 497.322,336.711 516.622,351.600 524.495 C 358.655 528.226,360.109 528.333,403.595 528.333 L 448.333 528.333 448.333 694.647 L 448.333 860.960 452.083 868.299 C 462.345 888.382,486.490 889.255,499.583 870.017 L 503.333 864.507 503.333 696.420 L 503.333 528.333 547.980 528.333 C 590.970 528.333,592.903 528.194,600.050 524.583 C 619.146 514.937,620.558 490.824,602.799 477.653 C 598.360 474.361,595.473 474.120,551.132 473.333 L 504.167 472.500 504.167 359.167 L 504.167 245.833 539.467 245.000 C 571.787 244.237,575.155 243.877,579.364 240.730 C 589.442 233.197,593.845 222.670,591.468 211.796 C 589.693 203.675,585.083 198.068,576.633 193.750 L 569.294 190.000 475.897 190.001 C 384.136 190.003,382.375 190.064,375.372 193.531 M744.591 395.417 L 745.015 568.333 712.508 568.333 L 680.000 568.333 679.963 437.083 C 679.929 312.690,679.765 305.476,676.824 299.002 C 673.357 291.368,666.914 286.058,658.272 283.714 C 654.591 282.715,652.731 281.306,653.138 279.824 C 653.489 278.546,656.950 267.000,660.830 254.167 C 664.709 241.333,668.377 228.757,668.981 226.218 L 670.079 221.603 707.123 222.052 L 744.167 222.500 744.591 395.417 " stroke="none" fill-rule="evenodd" fill="#000000"></path></svg>