<svg width="1000" height="1000" viewBox="0 0 1000 1000" version="1.1" id="svg5" sodipodi:docname="檸.svg" inkscape:version="1.3 (0e150ed6c4, 2023-07-21)" xmlns:inkscape="http://www.inkscape.org/namespaces/inkscape" xmlns:sodipodi="http://sodipodi.sourceforge.net/DTD/sodipodi-0.dtd" xmlns="http://www.w3.org/2000/svg" xmlns:svg="http://www.w3.org/2000/svg"><path d="M215.833 36.765 C 209.412 38.833,204.474 43.048,200.137 50.161 C 196.713 55.778,196.679 57.155,196.673 190.417 L 196.667 325.000 186.667 325.000 C 181.167 325.000,176.667 324.327,176.667 323.505 C 176.667 322.683,171.101 276.635,164.297 221.175 C 156.117 154.487,151.049 118.639,149.331 115.317 C 145.982 108.841,139.537 103.828,131.441 101.402 C 118.627 97.563,102.364 107.004,98.655 120.437 C 97.306 125.325,99.260 145.354,108.407 220.359 C 114.699 271.953,120.209 316.604,120.652 319.583 L 121.457 325.000 104.588 325.000 C 83.464 325.000,75.493 328.221,68.939 339.405 C 61.296 352.447,65.057 367.226,78.316 376.250 C 83.754 379.951,84.542 380.000,138.580 380.000 L 193.333 380.000 193.333 384.392 C 193.333 397.749,169.300 496.403,147.641 571.955 C 111.891 696.658,79.369 789.541,52.285 844.295 C 42.435 864.206,41.449 867.111,42.474 873.177 C 44.841 887.191,55.944 896.672,69.974 896.660 C 85.257 896.648,91.300 889.918,108.956 853.245 C 129.628 810.307,156.256 736.254,183.167 646.855 C 189.621 625.417,195.298 607.480,195.784 606.994 C 196.269 606.508,196.667 681.733,196.667 774.159 L 196.667 942.207 200.810 949.277 C 205.251 956.856,215.823 963.333,223.751 963.333 C 233.825 963.333,245.089 955.480,249.372 945.470 C 251.272 941.030,251.667 909.939,251.667 764.720 C 251.667 668.257,252.294 590.046,253.060 590.917 C 253.826 591.787,271.551 641.625,292.449 701.667 C 313.347 761.708,331.877 814.714,333.628 819.456 C 337.611 830.245,344.770 837.369,354.314 840.041 C 360.633 841.810,362.764 841.701,369.104 839.279 C 378.169 835.817,386.117 827.127,387.639 819.012 C 388.338 815.287,387.827 809.654,386.313 804.393 C 384.958 799.685,354.346 711.833,318.286 609.167 L 252.722 422.500 252.611 401.667 L 252.500 380.833 308.063 380.384 C 369.190 379.890,369.467 379.846,377.400 369.446 C 385.526 358.792,385.058 345.646,376.194 335.549 C 368.486 326.770,362.808 325.000,342.359 325.000 C 324.741 325.000,324.619 324.973,325.706 321.250 C 326.309 319.188,328.985 307.750,331.654 295.833 C 339.608 260.323,344.629 220.205,350.704 143.623 C 353.349 110.278,352.628 105.570,343.485 96.426 C 330.395 83.336,309.291 86.977,300.577 103.828 C 298.740 107.382,296.992 120.825,294.808 148.213 C 288.744 224.237,284.174 258.123,274.823 296.408 C 267.588 326.027,268.149 325.000,259.208 325.000 L 251.667 325.000 251.664 191.250 C 251.662 67.208,251.450 57.085,248.747 51.785 C 242.547 39.626,227.820 32.906,215.833 36.765 M515.833 51.125 C 511.077 52.382,502.095 59.464,498.716 64.621 C 496.027 68.723,495.777 85.177,495.000 309.093 L 494.167 549.167 467.944 549.626 L 441.722 550.084 441.278 409.495 L 440.833 268.906 436.164 262.785 C 430.079 254.807,423.723 251.667,413.663 251.667 C 404.618 251.667,396.988 255.773,390.987 263.872 C 387.515 268.557,387.498 269.232,387.058 425.377 C 386.624 579.264,386.678 582.304,389.950 589.005 C 391.784 592.761,396.051 597.708,399.432 600.000 C 405.553 604.148,405.775 604.169,449.600 604.662 L 493.619 605.157 492.524 619.662 C 483.470 739.503,459.486 833.145,427.419 873.854 C 417.444 886.517,407.771 892.589,395.334 893.996 C 375.400 896.252,363.745 911.293,368.435 928.712 C 372.075 942.230,386.908 951.456,401.275 949.137 C 435.882 943.552,458.073 928.412,479.232 895.951 C 513.719 843.044,538.292 747.083,546.929 631.585 L 548.917 605.000 575.982 605.000 L 603.046 605.000 603.607 624.051 C 604.082 640.228,604.693 643.810,607.653 647.801 C 619.929 664.346,641.752 664.343,654.013 647.794 L 657.500 643.089 657.500 455.833 L 657.500 268.578 654.013 263.872 C 641.750 247.321,619.918 247.321,607.653 263.871 C 604.197 268.536,604.160 269.781,603.333 408.871 L 602.500 549.167 576.667 549.167 L 550.833 549.167 550.000 309.093 C 549.223 85.177,548.973 68.723,546.284 64.621 C 539.717 54.599,525.885 48.469,515.833 51.125 M804.167 52.449 C 795.945 55.423,789.105 62.783,786.779 71.161 C 785.581 75.474,785.016 153.017,785.009 313.750 L 785.000 550.000 759.213 550.000 L 733.425 550.000 732.963 411.250 L 732.500 272.500 728.554 265.613 C 718.260 247.650,693.602 247.091,681.638 264.549 L 677.500 270.588 677.049 423.740 C 676.753 524.400,677.184 579.063,678.305 583.228 C 680.637 591.888,685.940 598.163,694.036 601.839 C 700.070 604.580,705.558 604.931,742.917 604.963 L 785.000 605.000 785.009 762.917 C 785.016 872.407,785.580 922.854,786.848 927.422 C 790.706 941.320,806.759 950.831,819.774 946.931 C 827.880 944.503,834.242 939.546,837.950 932.770 C 840.618 927.894,840.867 915.454,841.290 766.250 L 841.747 605.000 867.326 605.000 L 892.905 605.000 893.656 623.213 C 894.306 639.011,894.939 642.205,898.424 647.291 C 909.958 664.123,933.436 664.035,945.029 647.117 L 949.167 641.078 949.167 455.833 L 949.167 270.589 945.029 264.550 C 933.377 247.546,909.958 247.545,898.305 264.549 L 894.167 270.587 893.704 410.294 L 893.242 550.000 867.482 550.000 L 841.722 550.000 841.278 310.417 L 840.833 70.833 836.999 64.667 C 829.806 53.098,816.283 48.066,804.167 52.449 " stroke="none" fill-rule="evenodd" fill="black"></path></svg>