<svg width="1000" height="1000" viewBox="0 0 1000 1000" version="1.1" id="svg5" sodipodi:docname="цнк.svg" inkscape:version="1.2.1 (9c6d41e410, 2022-07-14)" xmlns:inkscape="http://www.inkscape.org/namespaces/inkscape" xmlns:sodipodi="http://sodipodi.sourceforge.net/DTD/sodipodi-0.dtd" xmlns="http://www.w3.org/2000/svg" xmlns:svg="http://www.w3.org/2000/svg"><path d="M204.170 89.292 C 193.227 94.998,188.056 102.992,188.056 114.203 C 188.056 121.937,190.060 126.934,195.625 133.075 C 203.860 142.162,189.719 141.667,440.751 141.667 C 568.671 141.667,673.322 142.229,673.308 142.917 C 673.294 143.604,613.136 186.729,539.623 238.750 L 405.963 333.333 308.335 333.333 L 210.706 333.333 203.367 337.083 C 199.331 339.146,194.622 342.766,192.904 345.129 C 185.958 354.676,186.590 370.523,194.244 378.778 C 203.778 389.060,187.194 388.388,431.119 388.377 C 580.599 388.370,653.415 388.919,652.290 390.043 C 651.368 390.966,547.913 451.994,422.390 525.661 C 153.052 683.732,167.988 674.769,151.914 687.962 C 117.964 715.826,100.762 746.577,100.894 779.167 C 101.121 835.450,153.299 880.439,235.833 895.514 L 255.833 899.167 567.500 899.167 L 879.167 899.167 885.333 895.333 C 895.442 889.047,899.356 880.440,898.585 866.191 C 898.407 862.905,883.421 841.724,847.292 793.691 C 819.219 756.369,794.281 723.704,791.875 721.101 C 776.158 704.101,751.386 709.693,744.784 731.732 C 741.259 743.495,743.149 746.926,780.163 795.970 L 815.279 842.500 538.890 842.961 C 296.970 843.364,260.452 843.102,246.077 840.861 C 205.577 834.545,170.301 815.445,160.058 794.287 C 147.365 768.067,168.318 737.461,218.333 709.166 C 236.913 698.655,741.352 402.364,760.833 390.520 C 779.135 379.393,782.117 375.692,783.037 362.964 C 783.644 354.571,783.139 352.371,779.259 346.507 C 776.510 342.354,772.085 338.515,767.806 336.572 C 761.151 333.551,754.956 333.405,631.750 333.370 C 532.582 333.342,503.122 332.878,504.633 331.367 C 505.714 330.286,568.611 285.473,644.404 231.784 C 720.196 178.094,783.709 132.135,785.544 129.652 C 787.581 126.897,789.126 121.702,789.510 116.319 C 790.335 104.758,785.440 95.968,775.155 90.542 L 767.809 86.667 488.488 86.677 C 238.447 86.686,208.643 86.960,204.170 89.292 " stroke="none" fill-rule="evenodd" fill="black"></path></svg>