<svg width="1000" height="1000" viewBox="0 0 1000 1000" version="1.1" id="svg5" sodipodi:docname="цоЛ.svg" inkscape:version="1.3 (0e150ed6c4, 2023-07-21)" xml:space="preserve" xmlns:inkscape="http://www.inkscape.org/namespaces/inkscape" xmlns:sodipodi="http://sodipodi.sourceforge.net/DTD/sodipodi-0.dtd" xmlns="http://www.w3.org/2000/svg" xmlns:svg="http://www.w3.org/2000/svg"><path d="M494.132 51.615 C 486.782 53.281,480.573 57.852,476.279 64.756 C 472.560 70.737,472.492 71.794,471.988 131.214 L 471.477 191.595 328.525 192.047 L 185.572 192.500 179.475 197.151 C 165.934 207.481,163.817 224.063,174.429 236.675 C 183.306 247.224,174.726 246.667,328.251 246.667 C 465.788 246.667,468.333 246.725,468.333 249.901 C 468.333 251.679,466.384 258.617,464.002 265.317 C 434.597 348.025,323.247 437.249,197.500 478.862 C 162.641 490.398,133.027 496.161,98.237 498.177 C 71.862 499.705,66.784 501.251,59.432 509.989 C 50.310 520.829,51.544 535.566,62.449 546.031 C 71.483 554.701,77.413 555.706,105.902 553.392 C 155.147 549.393,189.864 540.947,252.500 517.728 L 264.167 513.404 444.583 513.368 C 543.813 513.349,624.974 513.896,624.941 514.583 C 624.909 515.271,537.347 561.113,430.358 616.456 C 216.402 727.130,214.518 728.138,196.859 741.394 C 166.149 764.447,149.510 797.604,154.685 825.433 C 161.218 860.561,190.652 887.755,238.794 903.141 C 275.463 914.860,254.654 914.167,569.461 914.167 L 853.089 914.167 857.794 910.680 C 866.108 904.520,870.000 897.091,870.000 887.381 C 870.000 876.512,871.742 878.876,814.034 811.453 C 775.251 766.142,769.483 760.078,762.702 757.488 C 738.679 748.314,716.603 776.361,731.063 797.684 C 733.481 801.250,745.856 816.285,758.563 831.097 C 771.270 845.908,781.667 858.471,781.667 859.014 C 781.667 859.556,673.854 859.996,542.083 859.990 C 284.955 859.980,285.850 860.006,257.500 851.520 C 245.601 847.957,226.850 838.845,220.819 833.693 C 209.577 824.090,206.938 812.847,213.453 802.307 C 218.557 794.047,233.363 781.511,247.081 773.833 C 253.728 770.112,370.167 709.522,505.833 639.187 C 641.500 568.852,754.871 509.525,757.768 507.348 C 764.396 502.369,769.131 490.561,767.797 482.339 C 766.551 474.664,763.304 469.752,755.581 463.861 L 749.427 459.167 556.941 458.333 L 364.454 457.500 373.508 451.489 C 401.334 433.015,441.964 396.340,464.709 369.167 C 477.492 353.894,495.810 327.216,503.330 312.917 C 505.621 308.563,508.046 305.000,508.721 305.000 C 509.396 305.000,600.764 360.966,711.762 429.369 C 823.661 498.328,916.306 554.371,919.704 555.157 C 930.920 557.752,943.159 551.809,948.612 541.121 C 952.895 532.725,952.237 519.355,947.200 512.441 C 945.103 509.562,864.076 458.651,735.313 379.306 C 620.643 308.646,526.787 250.083,526.744 249.167 C 526.693 248.074,576.171 247.213,670.416 246.667 C 774.957 246.061,815.076 245.307,817.500 243.903 C 826.314 238.799,831.944 229.171,831.944 219.203 C 831.944 210.108,828.317 203.095,820.549 197.169 L 814.428 192.500 671.475 192.047 L 528.523 191.595 528.012 131.214 C 527.506 71.535,527.455 70.762,523.666 64.667 C 517.289 54.412,505.254 49.093,494.132 51.615 " stroke="none" fill-rule="evenodd" fill="#000000"></path></svg>