<svg width="1000" height="1000" viewBox="0 0 1000 1000" version="1.1" id="svg5" sodipodi:docname="汪.svg" inkscape:version="1.4 (86a8ad7, 2024-10-11)" xmlns:inkscape="http://www.inkscape.org/namespaces/inkscape" xmlns:sodipodi="http://sodipodi.sourceforge.net/DTD/sodipodi-0.dtd" xmlns="http://www.w3.org/2000/svg" xmlns:svg="http://www.w3.org/2000/svg"><path d="M472.500 25.278 C 459.422 32.511,456.920 38.679,454.112 70.616 C 446.388 158.463,430.634 219.165,393.220 305.247 C 381.936 331.208,380.821 339.112,387.123 348.464 C 389.207 351.557,393.520 355.859,396.706 358.025 C 401.521 361.296,404.092 361.850,411.920 361.303 C 426.995 360.249,430.803 356.253,442.996 328.697 C 456.447 298.300,469.756 263.986,477.553 239.604 L 483.808 220.041 675.949 219.604 C 867.958 219.167,868.093 219.164,872.795 215.680 C 889.346 203.416,889.346 181.584,872.795 169.320 C 868.095 165.838,867.863 165.833,682.352 165.395 L 496.614 164.957 497.629 160.395 C 498.187 157.886,498.933 154.708,499.287 153.333 C 504.164 134.402,512.331 51.461,510.088 43.640 C 507.845 35.821,502.476 29.097,496.031 26.039 C 489.517 22.948,477.421 22.557,472.500 25.278 M111.369 203.204 C 54.712 204.121,51.689 204.329,47.306 207.603 C 39.756 213.243,36.248 219.270,35.404 228.049 C 34.418 238.306,39.419 248.327,48.270 253.832 C 53.875 257.319,56.436 257.541,100.044 258.333 L 145.922 259.167 142.987 297.500 C 139.682 340.675,132.695 411.974,129.187 438.333 C 127.906 447.958,126.013 462.958,124.980 471.667 C 121.512 500.898,109.956 574.490,103.207 610.321 C 85.917 702.124,67.978 774.385,44.120 848.333 C 33.470 881.345,33.064 887.462,40.847 897.666 C 51.975 912.256,74.306 911.725,84.611 896.626 C 86.689 893.581,91.800 880.532,95.969 867.628 C 129.492 763.860,156.144 644.693,174.974 514.386 C 177.738 495.256,180.000 478.944,180.000 478.136 C 180.000 477.321,201.929 476.667,229.213 476.667 L 278.426 476.667 277.585 487.083 C 277.123 492.813,276.318 512.500,275.798 530.833 C 273.957 595.722,267.273 675.539,259.188 729.167 C 252.338 774.608,251.103 781.667,250.009 781.667 C 249.426 781.667,243.067 766.854,235.877 748.750 C 228.688 730.646,221.311 713.683,219.485 711.056 C 215.676 705.578,204.782 700.090,197.610 700.037 C 190.320 699.982,179.680 705.858,175.272 712.373 C 166.925 724.708,166.620 723.562,201.898 812.560 C 236.848 900.729,238.048 903.000,251.655 906.663 C 263.356 909.814,277.032 903.907,282.496 893.341 C 283.832 890.757,287.150 878.635,289.868 866.405 C 317.476 742.187,329.010 640.794,332.716 489.752 L 333.847 443.670 329.447 436.162 C 326.430 431.013,322.780 427.556,317.831 425.160 C 310.900 421.805,308.156 421.667,248.565 421.667 L 186.516 421.667 187.416 416.250 C 189.265 405.130,201.667 268.135,201.667 258.828 C 201.667 258.556,232.555 258.333,270.307 258.333 C 336.590 258.333,339.195 258.213,346.164 254.840 C 360.334 247.980,366.181 228.859,357.877 216.536 C 355.793 213.443,351.557 209.207,348.464 207.123 L 342.840 203.333 265.170 203.319 C 222.452 203.311,183.750 203.065,179.167 202.772 C 174.583 202.480,144.075 202.674,111.369 203.204 M510.527 303.239 C 506.141 305.230,501.813 309.036,498.860 313.496 L 494.167 320.587 493.691 425.293 L 493.215 530.000 433.220 530.000 C 367.436 530.000,366.014 530.186,357.883 539.849 C 348.744 550.709,348.752 564.300,357.903 575.175 C 366.012 584.812,367.455 585.000,433.280 585.000 L 493.333 585.000 493.333 619.667 C 493.333 726.955,474.209 816.748,440.730 866.647 C 431.227 880.812,413.885 897.532,401.128 904.831 C 388.855 911.853,384.511 918.095,383.687 929.891 C 383.151 937.561,383.720 940.170,386.975 944.960 C 395.956 958.175,410.594 962.042,424.191 954.792 C 483.530 923.153,521.713 853.952,539.071 746.588 C 545.544 706.551,549.943 648.632,549.984 602.917 L 550.000 585.000 593.311 585.000 L 636.622 585.000 637.061 763.212 C 637.499 941.085,637.507 941.432,640.987 946.128 C 642.904 948.716,647.029 952.587,650.153 954.731 C 654.895 957.984,657.420 958.517,665.439 957.956 C 676.634 957.173,682.416 953.581,687.889 944.010 L 691.612 937.500 691.639 761.250 L 691.667 585.000 735.000 585.000 L 778.333 585.000 778.370 760.417 C 778.405 927.882,778.547 936.143,781.509 942.665 C 785.837 952.194,793.449 957.180,804.891 957.980 C 815.180 958.699,822.285 955.208,829.013 946.128 C 832.487 941.440,832.503 940.773,833.333 763.628 L 834.167 585.833 894.167 585.000 C 936.744 584.409,955.189 583.580,957.688 582.147 C 963.879 578.596,971.187 568.912,972.349 562.720 C 974.513 551.181,970.385 543.131,956.245 531.323 C 956.019 531.134,928.458 530.571,895.000 530.073 L 834.167 529.167 833.333 424.167 C 832.530 322.910,832.381 318.969,829.167 313.635 C 825.200 307.052,818.103 302.367,809.754 300.820 C 801.478 299.286,790.207 304.433,783.986 312.588 L 779.167 318.905 778.702 424.452 L 778.238 530.000 734.952 530.000 L 691.667 530.000 691.667 426.613 C 691.667 312.250,692.037 316.336,680.840 307.107 C 673.450 301.015,665.749 299.221,657.050 301.564 C 650.753 303.259,642.101 310.849,638.533 317.807 C 637.214 320.380,636.667 352.036,636.667 425.724 L 636.667 530.000 593.333 530.000 L 550.000 530.000 549.927 427.917 C 549.850 320.313,549.702 318.045,542.242 309.654 C 538.370 305.300,527.145 300.073,521.667 300.073 C 519.375 300.073,514.362 301.498,510.527 303.239 " stroke="none" fill-rule="evenodd" fill="black"></path></svg>