<svg width="1000" height="1000" viewBox="0 0 1000 1000" version="1.1" id="svg5" sodipodi:docname="汪.svg" inkscape:version="1.4.2 (f4327f4, 2025-05-13)" xmlns:inkscape="http://www.inkscape.org/namespaces/inkscape" xmlns:sodipodi="http://sodipodi.sourceforge.net/DTD/sodipodi-0.dtd" xmlns="http://www.w3.org/2000/svg" xmlns:svg="http://www.w3.org/2000/svg"><path d="M472.314 63.175 C 466.325 66.827,460.627 74.241,459.305 80.102 C 458.800 82.337,457.605 93.542,456.650 105.000 C 453.328 144.816,447.339 180.854,438.090 216.667 C 428.163 255.106,421.594 273.868,401.826 320.242 C 388.590 351.291,387.721 356.651,394.143 367.610 C 398.531 375.098,409.187 381.699,416.776 381.630 C 423.496 381.569,434.294 375.716,438.664 369.765 C 446.156 359.561,470.913 299.547,481.709 265.417 L 487.113 248.333 663.610 248.333 C 818.671 248.333,840.852 248.022,846.243 245.770 C 858.180 240.782,863.718 232.514,863.718 219.678 C 863.718 210.879,859.752 203.431,851.908 197.500 C 847.575 194.223,844.584 194.160,675.833 193.746 C 581.417 193.515,503.309 193.007,502.262 192.617 C 500.850 192.092,500.926 189.176,502.553 181.371 C 506.548 162.206,511.830 115.295,512.168 95.980 C 512.538 74.817,511.247 71.393,500.017 63.750 C 492.913 58.915,479.748 58.641,472.314 63.175 M156.667 148.207 C 85.341 149.274,86.633 149.063,78.482 160.959 C 71.793 170.719,73.875 187.274,82.807 195.357 C 90.968 202.742,95.761 203.333,147.504 203.333 L 196.781 203.333 195.902 211.250 C 195.419 215.604,194.223 230.417,193.245 244.167 C 189.691 294.135,183.352 359.055,175.835 422.500 C 156.713 583.878,122.181 749.541,81.830 873.479 C 77.941 885.425,75.000 897.699,75.000 901.983 C 75.000 920.113,95.281 933.251,112.137 926.039 C 122.205 921.731,125.883 915.612,134.805 888.333 C 164.932 796.216,192.397 679.781,211.549 562.977 C 217.573 526.233,228.333 452.813,228.333 448.446 C 228.333 447.220,245.702 446.667,284.167 446.667 L 340.000 446.667 339.989 460.417 C 339.957 499.662,334.208 603.173,329.090 656.667 C 324.467 704.981,311.288 795.825,308.471 798.795 C 307.796 799.508,300.620 783.008,292.525 762.129 C 274.695 716.141,273.168 712.981,266.210 707.674 C 248.696 694.316,223.046 706.955,223.060 728.936 C 223.065 737.125,288.006 905.675,294.643 914.725 C 305.377 929.363,324.416 930.904,336.042 918.075 C 341.966 911.538,343.040 908.185,350.736 872.217 C 369.807 783.093,380.435 711.288,387.451 624.183 C 388.853 606.776,390.000 591.963,390.000 591.267 C 390.000 590.570,413.354 590.000,441.898 590.000 L 493.797 590.000 492.847 634.583 C 491.867 680.556,489.192 710.686,483.265 742.500 C 469.403 816.911,445.380 863.317,408.978 886.005 C 394.822 894.828,390.000 901.904,390.000 913.854 C 390.000 922.489,394.766 930.509,403.373 936.358 C 411.992 942.215,424.394 940.976,437.562 932.943 C 476.051 909.465,503.064 871.177,522.410 812.683 C 538.689 763.460,546.524 708.597,549.275 624.583 L 550.407 590.000 588.505 590.000 L 626.604 590.000 627.052 755.539 L 627.500 921.078 631.935 927.779 C 643.195 944.793,668.348 943.862,678.554 926.054 L 682.500 919.167 682.956 754.583 L 683.412 590.000 721.706 590.000 L 760.000 590.000 760.000 753.640 C 760.000 916.119,760.025 917.332,763.476 924.462 C 768.251 934.325,775.126 938.848,786.558 939.647 C 796.847 940.366,803.951 936.875,810.680 927.795 C 814.149 923.113,814.171 922.267,815.000 756.962 L 815.833 590.833 871.965 590.000 C 925.363 589.207,928.320 588.999,932.695 585.730 C 949.736 572.998,949.736 552.002,932.695 539.270 C 928.320 536.001,925.363 535.793,871.965 535.000 L 815.833 534.167 815.000 435.833 C 814.378 362.487,813.647 336.593,812.121 333.930 C 806.411 323.965,794.171 318.534,782.401 320.742 C 774.545 322.216,763.850 332.039,761.709 339.747 C 760.658 343.531,760.015 381.617,760.009 440.417 L 760.000 535.000 721.730 535.000 L 683.460 535.000 682.980 437.917 C 682.545 349.933,682.232 340.344,679.643 335.615 C 673.334 324.090,661.612 318.389,649.067 320.742 C 641.212 322.216,630.517 332.039,628.376 339.747 C 627.325 343.531,626.682 381.617,626.676 440.417 L 626.667 535.000 588.333 535.000 L 550.000 535.000 549.991 441.250 C 549.984 377.992,549.383 345.344,548.141 340.871 C 544.250 326.856,529.973 318.071,515.499 320.786 C 507.557 322.276,497.628 332.096,495.192 340.871 C 493.950 345.344,493.349 377.992,493.343 441.250 L 493.333 535.000 443.333 535.000 L 393.333 535.000 393.389 527.917 C 393.420 524.021,394.140 497.958,394.989 470.000 C 396.655 415.146,396.221 410.354,388.784 401.516 C 380.545 391.724,380.052 391.667,304.201 391.667 L 234.961 391.667 235.805 385.417 C 239.193 360.342,251.651 218.954,251.665 205.417 C 251.666 203.781,267.939 203.333,327.466 203.333 C 413.175 203.333,413.008 203.355,421.837 191.168 C 431.071 178.419,427.454 161.551,413.464 152.123 L 407.840 148.333 322.670 148.319 C 275.827 148.311,233.750 148.066,229.167 147.775 C 224.583 147.484,191.958 147.679,156.667 148.207 " stroke="none" fill-rule="evenodd" fill="black"></path></svg>