<svg width="1000" height="1000" viewBox="0 0 1000 1000" version="1.1" id="svg5" sodipodi:docname="淮.svg" inkscape:version="1.3 (0e150ed6c4, 2023-07-21)" xmlns:inkscape="http://www.inkscape.org/namespaces/inkscape" xmlns:sodipodi="http://sodipodi.sourceforge.net/DTD/sodipodi-0.dtd" xmlns="http://www.w3.org/2000/svg" xmlns:svg="http://www.w3.org/2000/svg"><path d="M212.806 45.694 C 204.473 48.737,200.208 52.689,196.468 60.833 C 193.718 66.823,193.401 72.581,193.354 117.500 C 193.301 167.703,191.034 260.368,189.044 293.676 L 187.979 311.518 125.107 312.009 L 62.235 312.500 56.083 317.194 C 43.478 326.813,40.309 338.776,46.976 351.569 C 54.664 366.322,51.825 365.769,122.620 366.308 L 185.000 366.783 185.005 372.141 C 185.007 375.089,184.285 385.375,183.400 395.000 C 182.514 404.625,180.976 423.000,179.980 435.833 C 168.675 581.591,141.814 713.287,107.678 790.331 C 91.914 825.911,81.637 842.967,52.781 881.439 C 37.410 901.933,36.028 904.395,35.468 912.272 C 34.651 923.780,39.717 932.755,49.943 937.917 C 67.115 946.584,76.051 941.920,98.006 912.832 C 120.400 883.163,132.943 863.480,146.542 836.667 C 182.183 766.393,207.849 669.242,224.252 542.524 C 226.624 524.203,228.877 508.901,229.260 508.518 C 229.643 508.135,231.043 510.374,232.372 513.494 C 245.641 544.651,317.403 693.689,321.079 697.726 C 326.813 704.021,337.355 707.534,345.772 705.955 C 358.652 703.539,370.192 687.210,367.728 674.889 C 367.233 672.415,338.116 609.366,303.023 534.779 L 239.218 399.167 239.711 384.260 C 239.981 376.062,240.576 368.749,241.033 368.010 C 241.490 367.271,261.208 366.667,284.852 366.667 C 326.689 366.667,327.988 366.566,333.350 362.917 C 341.604 357.299,345.376 351.174,346.263 341.951 C 347.240 331.785,342.831 322.839,333.788 316.638 C 327.807 312.537,327.379 312.496,285.505 312.003 L 243.257 311.506 244.173 301.170 C 246.053 279.940,248.325 183.790,248.329 125.252 C 248.334 57.487,248.191 56.543,236.823 49.130 C 228.963 44.004,220.678 42.819,212.806 45.694 M401.667 83.203 C 393.691 84.779,387.443 89.191,382.946 96.422 L 379.167 102.500 378.690 205.431 C 378.352 278.220,378.765 310.415,380.100 315.371 C 385.298 334.674,408.694 342.896,423.344 330.568 C 434.547 321.142,434.116 325.085,434.652 227.083 L 435.137 138.333 641.735 138.333 C 755.364 138.333,848.333 138.916,848.333 139.628 C 848.333 140.340,844.159 177.653,839.057 222.545 C 833.955 267.437,830.092 307.698,830.472 312.013 C 832.286 332.583,855.216 343.179,872.542 331.453 C 883.422 324.090,883.685 322.767,895.696 215.000 C 901.775 160.458,906.730 112.757,906.708 108.996 C 906.638 97.368,896.825 86.228,884.038 83.262 C 876.450 81.503,410.562 81.445,401.667 83.203 M522.500 285.594 C 516.326 288.452,510.791 294.332,508.444 300.525 C 507.252 303.672,506.667 340.573,506.667 412.561 L 506.667 519.904 429.583 520.369 L 352.500 520.833 347.046 524.724 C 340.254 529.568,335.000 539.591,335.000 547.704 C 335.000 556.841,341.811 567.299,350.503 571.507 C 357.500 574.894,359.984 575.000,432.448 575.000 L 507.177 575.000 506.149 620.417 C 504.665 685.970,499.580 726.365,487.547 768.172 C 474.800 812.456,457.799 845.271,431.000 877.315 C 415.496 895.852,413.567 906.285,423.153 919.747 C 429.429 928.560,444.550 932.623,455.534 928.447 C 468.615 923.474,499.165 881.962,517.557 844.167 C 547.981 781.649,561.667 708.689,561.667 609.018 L 561.667 574.967 640.417 575.400 L 719.167 575.833 720.000 744.462 C 720.829 912.304,720.850 913.112,724.320 917.795 C 730.451 926.069,737.917 930.000,747.500 930.000 C 758.506 930.000,766.118 925.208,771.250 915.050 L 775.000 907.627 775.000 741.314 L 775.000 575.000 853.387 575.000 C 939.916 575.000,938.455 575.163,947.860 564.451 C 959.480 551.217,955.974 533.307,939.839 523.470 C 934.308 520.099,932.184 520.012,854.583 520.006 L 775.000 520.000 775.000 413.026 C 775.000 307.992,774.937 305.922,771.524 298.871 C 766.749 289.009,759.874 284.486,748.442 283.687 C 738.154 282.968,731.049 286.458,724.320 295.538 C 720.886 300.171,720.821 301.907,720.000 409.705 L 719.167 519.167 640.417 519.600 L 561.667 520.033 561.639 412.100 L 561.612 304.167 557.889 297.657 C 555.842 294.076,552.135 289.640,549.652 287.800 C 543.949 283.570,529.420 282.390,522.500 285.594 " stroke="none" fill-rule="evenodd" fill="black"></path></svg>