<svg width="1000" height="1000" viewBox="0 0 1000 1000" version="1.1" id="svg5" sodipodi:docname="深.svg" inkscape:version="1.3 (0e150ed6c4, 2023-07-21)" xmlns:inkscape="http://www.inkscape.org/namespaces/inkscape" xmlns:sodipodi="http://sodipodi.sourceforge.net/DTD/sodipodi-0.dtd" xmlns="http://www.w3.org/2000/svg" xmlns:svg="http://www.w3.org/2000/svg"><path d="M203.575 111.695 C 196.222 114.806,190.415 119.925,187.664 125.723 C 185.148 131.025,184.920 153.420,184.958 391.641 C 185.003 679.045,184.195 658.736,195.943 667.697 L 202.240 672.500 481.120 672.931 L 760.000 673.362 760.000 685.901 C 760.000 700.821,762.421 707.390,770.549 714.527 C 783.941 726.285,804.715 722.004,812.351 705.911 C 814.906 700.528,815.122 677.566,815.077 415.665 L 815.028 131.265 811.264 124.472 C 803.021 109.596,784.168 106.109,770.939 117.014 C 759.876 126.133,760.000 125.119,760.000 206.613 L 760.000 280.000 500.000 280.000 L 240.000 280.000 239.997 206.250 C 239.995 123.978,240.248 125.925,228.303 116.390 C 221.795 111.195,210.035 108.962,203.575 111.695 M760.000 476.667 L 760.000 618.333 500.000 618.333 L 240.000 618.333 240.000 476.667 L 240.000 335.000 500.000 335.000 L 760.000 335.000 760.000 476.667 M50.161 838.470 C 42.580 843.092,38.751 847.888,36.631 855.417 C 33.183 867.665,39.965 881.206,52.369 886.839 C 58.931 889.820,74.432 889.927,500.000 889.927 C 925.568 889.927,941.069 889.820,947.631 886.839 C 968.594 877.318,969.810 849.840,949.773 838.446 L 943.713 835.000 499.773 835.006 L 55.833 835.012 50.161 838.470 " stroke="none" fill-rule="evenodd" fill="#000000"></path></svg>