<svg width="1000" height="1000" viewBox="0 0 1000 1000" version="1.1" id="svg5" sodipodi:docname="Тии.svg" inkscape:version="1.3 (0e150ed6c4, 2023-07-21)" xmlns:inkscape="http://www.inkscape.org/namespaces/inkscape" xmlns:sodipodi="http://sodipodi.sourceforge.net/DTD/sodipodi-0.dtd" xmlns="http://www.w3.org/2000/svg" xmlns:svg="http://www.w3.org/2000/svg"><path d="M629.013 134.837 C 623.556 137.316,619.510 141.742,608.774 156.976 C 583.566 192.745,539.284 243.553,511.385 268.720 L 498.603 280.249 443.052 247.165 C 412.498 228.968,385.402 213.162,382.838 212.040 C 376.546 209.287,371.385 209.473,363.197 212.749 C 345.084 219.997,340.745 244.563,355.258 257.706 C 357.408 259.653,379.792 273.437,405.000 288.338 C 430.208 303.238,451.804 316.331,452.991 317.432 C 454.716 319.033,451.708 322.127,437.991 332.859 C 371.558 384.838,315.411 418.699,265.833 436.682 C 257.583 439.675,248.754 443.584,246.212 445.369 C 240.342 449.491,235.000 459.880,235.000 467.171 C 235.000 476.162,241.591 486.750,249.933 491.162 C 258.826 495.865,263.374 495.953,275.833 491.667 C 281.162 489.833,286.111 488.333,286.831 488.333 C 287.551 488.333,286.318 491.521,284.090 495.417 C 281.863 499.313,280.031 505.076,280.020 508.224 C 279.992 516.274,285.939 527.616,292.202 531.457 C 295.116 533.245,328.625 549.845,366.667 568.348 C 404.708 586.850,436.442 602.562,437.186 603.263 C 440.025 605.939,370.329 647.344,323.871 670.581 C 280.599 692.224,226.665 713.420,200.436 719.090 C 197.467 719.731,194.610 720.949,194.087 721.795 C 193.564 722.641,192.431 723.333,191.568 723.333 C 190.595 723.333,190.000 616.128,190.000 440.526 L 190.000 157.719 186.524 150.538 C 181.343 139.835,174.724 135.833,162.206 135.833 C 151.081 135.833,145.903 138.424,139.270 147.308 L 135.833 151.911 135.358 495.539 C 135.096 684.534,135.314 841.582,135.841 844.534 C 137.063 851.379,144.129 859.806,151.083 862.712 C 155.570 864.587,215.111 864.978,501.748 865.016 L 847.007 865.061 852.586 861.613 C 855.655 859.717,859.717 855.655,861.613 852.586 L 865.061 847.007 865.016 501.748 C 864.966 124.566,865.662 150.060,855.178 141.238 C 841.685 129.886,820.449 134.653,813.176 150.668 C 810.190 157.244,810.072 168.121,810.037 440.595 C 810.007 666.413,809.578 723.514,807.917 722.818 C 802.578 720.584,549.066 596.241,548.333 595.497 C 547.875 595.032,550.094 592.667,553.265 590.242 C 615.159 542.907,694.866 464.067,699.962 445.141 C 703.026 433.763,697.846 421.394,687.284 414.866 C 682.327 411.803,679.728 411.366,670.747 412.087 C 660.317 412.924,660.132 412.868,661.973 409.427 C 667.111 399.826,666.409 387.388,660.248 378.889 C 658.737 376.803,633.314 360.638,603.754 342.965 C 574.194 325.293,550.007 310.165,550.004 309.348 C 550.002 308.531,561.063 296.525,574.583 282.669 C 619.055 237.093,664.883 178.705,667.615 164.138 C 669.728 152.875,662.435 140.037,650.964 134.827 C 642.398 130.937,637.597 130.939,629.013 134.837 M566.314 384.508 C 598.133 403.487,627.354 420.169,631.250 421.578 C 637.672 423.901,639.034 423.889,645.833 421.443 C 649.958 419.960,653.333 419.089,653.333 419.508 C 653.333 421.708,620.884 456.964,601.463 475.867 C 567.055 509.355,497.410 566.667,491.124 566.667 C 489.747 566.667,450.868 548.183,404.727 525.592 C 358.585 503.000,317.459 483.605,313.336 482.491 L 305.838 480.466 323.336 472.202 C 369.619 450.343,434.303 407.505,487.284 363.625 C 496.332 356.131,504.799 350.000,506.099 350.000 C 507.398 350.000,534.495 365.528,566.314 384.508 M642.839 703.333 C 794.359 777.391,791.548 776.213,804.220 770.918 L 810.000 768.503 810.000 789.252 L 810.000 810.000 500.000 810.000 L 190.000 810.000 190.000 789.124 L 190.000 768.248 194.917 770.791 C 202.556 774.741,210.687 773.880,234.975 766.551 C 302.566 746.153,386.761 704.157,470.000 649.320 C 483.292 640.564,495.394 633.385,496.894 633.367 C 498.394 633.348,564.069 664.833,642.839 703.333 " stroke="none" fill-rule="evenodd" fill="black"></path></svg>