<svg width="1000" height="1000" viewBox="0 0 1000 1000" version="1.1" id="svg5" sodipodi:docname="Тии.svg" inkscape:version="1.3.2 (091e20e, 2023-11-25, custom)" xmlns:inkscape="http://www.inkscape.org/namespaces/inkscape" xmlns:sodipodi="http://sodipodi.sourceforge.net/DTD/sodipodi-0.dtd" xmlns="http://www.w3.org/2000/svg" xmlns:svg="http://www.w3.org/2000/svg"><path d="M633.416 72.092 C 627.353 75.298,624.307 79.157,612.689 98.342 C 582.959 147.437,548.717 193.257,506.259 240.761 L 498.875 249.022 440.711 208.320 C 408.247 185.602,379.360 166.568,375.335 165.243 C 358.498 159.700,341.667 172.869,341.667 191.585 C 341.667 200.094,344.771 206.356,352.119 212.669 C 355.211 215.326,380.363 233.250,408.012 252.500 C 435.661 271.750,458.294 288.371,458.308 289.435 C 458.336 291.563,426.490 321.847,401.758 343.211 C 349.020 388.768,291.527 426.569,248.466 443.999 C 236.010 449.041,232.476 451.887,228.156 460.350 C 224.212 468.079,224.213 473.939,228.161 482.631 C 231.825 490.700,238.109 496.029,246.679 498.337 C 255.439 500.696,269.112 496.174,298.703 481.132 C 357.117 451.439,410.648 411.436,483.709 342.880 L 506.585 321.415 567.698 364.226 C 601.310 387.772,631.304 408.078,634.352 409.351 C 641.949 412.526,647.739 412.257,655.724 408.358 C 669.322 401.718,674.952 386.172,668.548 372.944 C 664.533 364.650,666.053 365.821,594.583 315.956 C 567.312 296.929,545.000 281.051,545.000 280.672 C 545.000 280.292,552.001 271.883,560.558 261.985 C 600.530 215.747,633.929 170.202,661.031 124.973 C 671.811 106.983,672.500 105.232,672.500 95.833 C 672.500 83.900,668.292 76.747,658.259 71.629 C 649.812 67.319,642.172 67.462,633.416 72.092 M115.299 357.803 C 112.256 359.303,107.756 363.165,105.299 366.385 L 100.833 372.240 100.401 622.948 C 99.968 873.513,99.970 873.659,103.406 879.773 C 105.297 883.138,109.562 887.753,112.883 890.029 L 118.922 894.167 481.829 894.598 L 844.736 895.030 845.285 916.401 C 845.809 936.844,846.036 938.039,850.503 943.888 C 856.590 951.861,862.948 955.000,873.004 955.000 C 882.049 955.000,889.679 950.893,895.680 942.794 L 899.167 938.089 899.167 655.833 L 899.167 373.578 895.730 368.975 C 883.004 351.929,861.997 351.929,849.270 368.975 C 845.847 373.559,845.830 374.497,845.000 606.372 L 844.167 839.167 829.485 839.650 L 814.803 840.133 822.239 832.983 C 834.986 820.726,835.829 806.002,824.462 794.177 C 821.320 790.910,763.235 756.667,681.667 709.996 C 606.042 666.726,543.591 630.787,542.887 630.132 C 542.183 629.476,550.536 620.911,561.450 611.097 C 595.963 580.063,645.826 527.253,673.333 492.602 C 691.119 470.198,706.608 447.438,707.626 442.214 C 711.347 423.112,692.535 405.141,674.136 410.221 C 665.828 412.515,660.002 418.109,646.983 436.290 C 628.001 462.799,601.155 493.864,568.361 527.267 C 540.396 555.750,498.188 595.481,492.333 598.831 C 490.770 599.725,462.018 584.103,404.587 551.154 C 306.201 494.708,306.744 495.000,300.175 495.000 C 276.700 495.000,263.314 524.978,279.632 541.008 C 282.126 543.458,319.757 565.880,363.256 590.834 C 406.756 615.788,442.601 636.968,442.911 637.901 C 443.591 639.939,402.802 670.478,369.853 692.599 C 307.968 734.147,242.109 768.487,195.833 783.336 C 179.585 788.550,174.155 792.250,169.921 800.996 C 167.111 806.802,166.526 810.120,167.377 815.440 C 168.438 822.077,174.074 833.293,176.386 833.370 C 176.999 833.391,179.375 834.874,181.667 836.667 L 185.833 839.926 170.417 839.963 L 155.000 840.000 155.000 608.595 L 155.000 377.191 151.125 369.845 C 144.216 356.749,128.297 351.398,115.299 357.803 M645.444 752.664 C 726.325 799.045,793.212 837.670,794.083 838.497 C 795.024 839.390,675.693 840.000,500.000 840.000 C 337.383 840.000,205.046 839.369,205.917 838.598 C 206.788 837.827,212.750 835.499,219.167 833.424 C 265.106 818.572,331.546 783.975,395.000 741.862 C 422.322 723.729,475.249 685.000,488.333 673.566 C 491.542 670.763,495.117 668.438,496.278 668.401 C 497.439 668.364,564.564 706.282,645.444 752.664 " stroke="none" fill-rule="evenodd" fill="black"></path></svg>