<svg width="1000" height="1000" viewBox="0 0 1000 1000" version="1.1" id="svg5" sodipodi:docname="父.svg" inkscape:version="1.3 (0e150ed6c4, 2023-07-21)" xmlns:inkscape="http://www.inkscape.org/namespaces/inkscape" xmlns:sodipodi="http://sodipodi.sourceforge.net/DTD/sodipodi-0.dtd" xmlns="http://www.w3.org/2000/svg" xmlns:svg="http://www.w3.org/2000/svg"><path d="M394.830 65.419 C 386.529 70.919,380.991 83.021,382.419 92.540 C 383.749 101.410,382.727 100.168,435.313 156.823 C 456.682 179.847,474.413 199.343,474.713 200.149 C 475.024 200.982,411.632 201.805,327.752 202.057 C 181.716 202.496,180.197 202.534,175.641 205.936 C 158.596 218.664,158.596 239.669,175.641 252.397 C 180.195 255.797,181.751 255.838,324.288 256.277 L 468.333 256.721 468.333 337.527 L 468.333 418.333 328.750 418.343 C 239.529 418.349,186.971 418.962,183.081 420.042 C 175.288 422.207,165.550 432.875,164.045 440.895 C 161.847 452.614,168.356 465.592,178.957 470.622 C 184.094 473.060,198.922 473.333,325.913 473.333 L 467.156 473.333 466.080 485.417 C 461.402 537.983,433.629 608.327,394.179 667.530 C 335.984 754.862,254.886 825.926,174.167 860.319 C 143.421 873.419,115.290 880.189,81.291 882.670 C 66.780 883.729,60.186 887.077,53.642 896.706 C 50.387 901.497,49.817 904.106,50.353 911.776 C 51.161 923.330,55.685 930.087,65.934 935.049 C 72.797 938.371,75.033 938.606,89.672 937.542 C 150.088 933.153,209.948 910.603,272.059 868.834 C 373.229 800.798,457.949 693.870,499.283 582.046 C 502.763 572.630,506.135 565.130,506.775 565.380 C 508.401 566.013,625.477 674.867,627.396 677.530 C 630.634 682.021,588.804 727.720,555.079 756.536 C 533.363 775.091,528.333 781.677,528.333 791.555 C 528.333 808.863,546.439 822.926,562.917 818.419 C 574.012 815.383,622.440 771.205,654.137 735.203 L 670.253 716.899 786.964 825.533 C 851.155 885.281,906.351 935.562,909.620 937.268 C 917.255 941.251,929.229 940.296,936.491 935.125 C 947.205 927.496,951.272 911.598,945.347 900.502 C 943.781 897.570,889.250 845.662,824.167 785.150 C 759.083 724.639,705.171 674.109,704.362 672.861 C 703.354 671.307,706.047 665.113,712.902 653.213 C 730.152 623.270,745.221 590.741,754.024 564.445 C 762.224 539.953,736.497 519.325,714.113 532.443 C 706.482 536.915,704.872 539.638,695.687 563.596 C 688.387 582.639,663.340 631.671,660.921 631.655 C 659.956 631.649,628.042 602.666,590.000 567.249 L 520.833 502.854 521.264 493.510 C 521.501 488.371,522.097 481.729,522.590 478.750 L 523.484 473.333 666.496 473.333 L 809.507 473.333 815.017 469.583 C 823.292 463.952,827.043 457.840,827.937 448.536 C 829.025 437.215,823.146 426.820,812.831 421.827 C 805.678 418.364,804.364 418.333,664.458 418.333 L 523.301 418.333 523.734 337.917 L 524.167 257.500 668.333 256.667 L 812.500 255.833 818.397 252.166 C 825.850 247.530,831.675 237.314,831.639 228.940 C 831.602 220.136,825.493 210.024,817.466 205.478 L 810.833 201.722 681.322 201.694 L 551.811 201.667 489.807 134.814 C 455.705 98.045,425.485 66.548,422.651 64.820 C 415.263 60.315,402.106 60.598,394.830 65.419 " stroke="none" fill-rule="evenodd" fill="#000000"></path></svg>