<svg width="1000" height="1000" viewBox="0 0 1000 1000" version="1.1" id="svg5" xml:space="preserve" xmlns="http://www.w3.org/2000/svg" xmlns:svg="http://www.w3.org/2000/svg"><path d="M463.333 54.431 C 459.976 56.587,230.488 305.000,187.917 352.560 C 177.559 364.131,176.667 365.723,176.667 372.623 C 176.667 384.993,184.855 393.333,197.001 393.334 C 200.025 393.334,222.591 389.487,247.146 384.785 C 271.702 380.084,292.251 376.696,292.812 377.256 C 294.108 378.552,290.314 465.736,287.761 493.333 L 285.833 514.167 185.000 515.000 C 77.488 515.889,80.330 515.651,73.506 524.325 C 66.074 533.774,67.369 545.258,76.896 554.388 L 81.884 559.167 181.066 559.622 L 280.248 560.077 279.292 564.622 C 278.766 567.122,276.822 578.167,274.972 589.167 C 266.474 639.696,249.193 696.231,230.143 735.833 C 210.960 775.712,192.011 802.969,164.319 830.520 C 142.691 852.038,123.247 865.967,78.125 892.266 C 69.302 897.408,60.963 903.326,59.594 905.416 C 53.215 915.151,54.949 926.569,64.086 935.000 C 67.698 938.333,70.326 939.163,77.218 939.147 C 84.768 939.130,88.100 937.809,104.167 928.464 C 148.228 902.838,167.609 888.781,193.960 863.336 C 248.858 810.328,285.808 739.297,309.961 640.346 C 312.040 631.828,314.342 625.078,315.076 625.346 C 315.810 625.614,353.406 660.622,398.622 703.142 C 444.836 746.601,483.323 781.506,486.519 782.860 C 502.750 789.738,520.626 772.882,515.043 755.964 C 513.424 751.057,494.076 732.010,418.053 660.482 C 339.042 586.143,323.242 570.544,324.020 567.648 C 324.534 565.733,324.965 563.229,324.977 562.083 C 324.995 560.449,340.407 560.000,396.420 560.000 C 467.830 560.000,467.841 559.999,473.504 556.228 C 485.432 548.283,487.815 533.916,478.952 523.382 L 474.704 518.333 539.213 518.333 L 603.722 518.333 602.552 529.583 C 600.510 549.230,590.431 606.732,585.244 628.333 C 563.410 719.245,530.381 783.685,481.433 830.871 C 457.989 853.471,438.004 867.852,401.667 888.271 C 382.381 899.108,377.126 903.772,374.904 912.023 C 373.490 917.276,373.771 919.674,376.532 925.918 C 380.750 935.452,391.482 941.128,400.556 938.623 C 406.680 936.932,434.670 921.157,456.573 907.054 C 518.355 867.271,564.690 811.579,595.561 740.000 C 605.695 716.502,618.345 678.955,625.040 652.500 C 628.055 640.583,631.014 630.262,631.615 629.563 C 632.215 628.865,693.035 695.573,766.770 777.803 C 840.505 860.033,903.260 929.756,906.225 932.743 C 915.667 942.251,928.099 942.234,937.633 932.700 C 944.768 925.565,946.439 917.096,942.263 909.232 C 940.560 906.025,872.792 829.430,791.667 739.021 C 710.542 648.613,643.678 573.785,643.081 572.738 C 642.484 571.690,643.577 559.021,645.511 544.583 L 649.026 518.333 735.763 518.327 C 819.373 518.321,822.696 518.201,827.932 515.009 C 839.498 507.957,843.042 495.047,836.217 484.830 C 828.379 473.097,830.470 473.339,736.833 473.336 L 652.832 473.333 653.894 455.417 C 656.533 410.900,657.164 359.056,655.142 352.929 C 650.924 340.150,636.963 333.763,625.597 339.411 C 612.992 345.675,612.635 347.004,611.393 392.205 C 610.785 414.367,609.773 441.668,609.145 452.873 L 608.003 473.246 523.289 473.706 C 440.697 474.155,438.457 474.253,433.871 477.608 C 422.787 485.715,420.833 499.792,429.381 509.951 L 433.630 515.000 382.409 515.000 L 331.188 515.000 332.260 500.417 C 335.269 459.473,336.563 435.939,337.607 403.204 L 338.754 367.242 519.794 332.644 C 619.366 313.616,702.333 297.716,704.167 297.311 C 706.685 296.755,720.040 307.990,758.759 343.234 C 786.952 368.896,811.465 390.667,813.233 391.613 C 815.001 392.559,819.508 393.333,823.248 393.333 C 836.251 393.333,846.548 378.498,841.914 366.439 C 840.021 361.511,815.312 338.580,662.889 200.302 C 624.363 165.351,613.768 156.587,608.954 155.683 C 593.737 152.829,580.895 168.986,586.553 183.867 C 587.407 186.113,606.118 204.349,628.133 224.392 C 659.407 252.865,667.541 261.093,665.330 262.020 C 660.998 263.836,259.737 340.190,257.843 339.559 C 256.930 339.254,308.903 281.679,373.339 211.613 C 438.204 141.081,491.546 81.708,492.848 78.591 C 499.772 62.018,478.559 44.653,463.333 54.431 " stroke="none" fill-rule="evenodd" fill="black"></path></svg>