<svg width="1000" height="1000" viewBox="0 0 1000 1000" version="1.1" id="svg5" sodipodi:docname="物.svg" inkscape:version="1.2.1 (9c6d41e410, 2022-07-14)" xmlns:inkscape="http://www.inkscape.org/namespaces/inkscape" xmlns:sodipodi="http://sodipodi.sourceforge.net/DTD/sodipodi-0.dtd" xmlns="http://www.w3.org/2000/svg" xmlns:svg="http://www.w3.org/2000/svg"><path d="M117.417 127.344 C 106.628 132.044,99.104 146.137,101.563 157.040 C 103.422 165.282,106.042 169.354,112.809 174.516 L 118.907 179.167 465.461 179.595 C 753.858 179.952,811.871 180.397,811.159 182.251 C 810.251 184.618,480.548 593.098,474.178 599.748 L 470.429 603.662 391.848 516.414 C 348.629 468.428,310.363 427.019,306.813 424.393 C 294.207 415.071,274.568 419.665,267.349 433.625 C 263.496 441.076,263.615 453.344,267.602 459.568 C 269.379 462.342,307.649 505.387,352.646 555.223 C 397.644 605.059,438.894 650.825,444.313 656.926 C 449.733 663.028,495.350 713.554,545.685 769.207 C 608.939 839.145,638.905 871.105,642.715 872.697 C 663.734 881.479,686.014 862.335,680.144 840.535 C 678.783 835.480,660.620 814.401,594.216 740.812 C 547.905 689.491,510.011 646.535,510.007 645.355 C 510.001 643.369,862.676 205.763,886.071 178.729 C 891.911 171.980,897.405 163.756,898.488 160.140 C 901.988 148.460,896.695 134.683,886.265 128.324 C 880.886 125.045,877.134 125.013,501.667 125.071 C 190.172 125.120,121.593 125.526,117.417 127.344 " stroke="none" fill-rule="evenodd" fill="black"></path></svg>