<svg width="1000" height="1000" viewBox="0 0 1000 1000" version="1.1" id="svg5" sodipodi:docname="物.svg" inkscape:version="1.2.1 (9c6d41e410, 2022-07-14)" xmlns:inkscape="http://www.inkscape.org/namespaces/inkscape" xmlns:sodipodi="http://sodipodi.sourceforge.net/DTD/sodipodi-0.dtd" xmlns="http://www.w3.org/2000/svg" xmlns:svg="http://www.w3.org/2000/svg"><path d="M117.417 127.344 C 106.628 132.044,99.104 146.137,101.563 157.040 C 103.422 165.282,106.042 169.354,112.809 174.516 L 118.907 179.167 466.073 180.000 L 813.240 180.833 644.837 389.167 C 552.216 503.750,475.082 598.884,473.428 600.576 C 470.517 603.554,467.905 600.860,391.844 516.410 C 348.627 468.426,310.363 427.019,306.813 424.393 C 294.207 415.071,274.568 419.665,267.349 433.625 C 263.496 441.076,263.615 453.344,267.602 459.568 C 269.379 462.342,307.649 505.387,352.646 555.223 C 397.644 605.059,438.894 650.825,444.313 656.926 C 449.733 663.028,495.350 713.554,545.685 769.207 C 608.939 839.145,638.905 871.105,642.715 872.697 C 663.734 881.479,686.014 862.335,680.144 840.535 C 678.783 835.480,660.620 814.401,594.216 740.812 C 547.905 689.491,510.011 646.534,510.007 645.353 C 510.003 644.172,590.781 543.297,689.513 421.186 C 788.246 299.075,875.205 191.523,882.756 182.180 C 890.951 172.042,897.181 162.614,898.209 158.795 C 901.383 147.007,894.877 133.556,882.999 127.351 C 876.472 123.941,125.247 123.934,117.417 127.344 " stroke="none" fill-rule="evenodd" fill="black"></path></svg>