<svg width="1000" height="1000" viewBox="0 0 1000 1000" version="1.1" id="svg5" sodipodi:docname="球.svg" inkscape:version="1.4 (86a8ad7, 2024-10-11)" xmlns:inkscape="http://www.inkscape.org/namespaces/inkscape" xmlns:sodipodi="http://sodipodi.sourceforge.net/DTD/sodipodi-0.dtd" xmlns="http://www.w3.org/2000/svg" xmlns:svg="http://www.w3.org/2000/svg"><path d="M156.650 133.750 C 153.619 135.813,149.571 139.617,147.653 142.206 C 144.197 146.871,144.167 147.877,144.167 259.167 C 144.167 370.456,144.197 371.463,147.653 376.128 C 153.784 384.402,161.250 388.333,170.833 388.333 C 181.839 388.333,189.452 383.542,194.583 373.383 L 198.333 365.960 198.333 275.480 L 198.333 185.000 504.167 185.000 C 785.467 185.000,810.000 185.217,810.000 187.711 C 810.000 189.201,802.875 227.533,794.167 272.891 C 785.458 318.250,778.333 358.544,778.333 362.434 C 778.333 370.764,783.212 378.934,791.536 384.544 C 802.736 392.091,821.739 387.525,828.694 375.615 C 832.043 369.881,871.667 166.834,871.667 155.407 C 871.667 147.598,866.569 139.252,858.464 133.790 L 852.840 130.000 507.500 130.000 L 162.160 130.000 156.650 133.750 M475.833 303.135 C 472.167 304.818,467.921 307.614,466.399 309.348 C 463.270 312.913,177.900 831.893,172.946 843.029 C 165.298 860.221,178.402 880.000,197.440 880.000 C 201.102 880.000,320.997 849.947,463.874 813.216 C 606.751 776.484,724.545 746.775,725.639 747.195 C 726.733 747.614,747.803 781.605,772.461 822.729 C 797.120 863.853,819.285 899.502,821.718 901.948 C 827.853 908.119,838.034 910.658,846.983 908.248 C 860.793 904.529,870.463 888.813,866.894 875.886 C 864.336 866.621,670.479 544.951,663.735 538.780 C 653.354 529.282,639.283 529.473,628.451 539.259 C 620.767 546.201,617.225 556.610,619.635 565.168 C 620.512 568.284,637.828 598.449,658.115 632.202 C 678.402 665.955,695.000 694.246,695.000 695.072 C 695.000 695.898,691.063 697.680,686.250 699.032 C 664.906 705.030,254.500 810.056,254.074 809.629 C 253.812 809.367,311.678 703.412,382.665 574.172 C 453.653 444.932,512.398 336.785,513.210 333.844 C 514.993 327.384,513.033 317.666,508.763 311.796 C 504.993 306.613,492.576 299.986,486.730 300.037 C 484.404 300.057,479.500 301.451,475.833 303.135 " stroke="none" fill-rule="evenodd" fill="black"></path></svg>