<svg width="1000" height="1000" viewBox="0 0 1000 1000" version="1.1" id="svg5" xmlns="http://www.w3.org/2000/svg" xmlns:svg="http://www.w3.org/2000/svg"><path d="M424.170 50.863 C 412.881 56.966,408.330 64.240,408.340 76.167 C 408.343 81.087,409.548 86.092,411.468 89.167 C 413.185 91.917,433.804 115.542,457.287 141.667 L 499.983 189.167 284.445 190.000 L 68.906 190.833 62.785 195.503 C 54.807 201.588,51.667 207.944,51.667 218.004 C 51.667 227.049,55.773 234.679,63.872 240.680 L 68.577 244.167 315.538 245.219 C 451.367 245.798,563.625 246.275,565.000 246.279 C 566.375 246.282,649.383 245.809,749.462 245.226 C 930.659 244.171,931.444 244.152,936.129 240.680 C 944.227 234.679,948.333 227.049,948.333 218.004 C 948.333 207.944,945.193 201.588,937.215 195.503 L 931.094 190.833 752.630 190.000 L 574.167 189.167 566.525 180.833 C 562.321 176.250,535.137 146.082,506.114 113.793 C 477.092 81.504,451.426 53.827,449.078 52.289 C 442.958 48.279,430.293 47.554,424.170 50.863 M153.307 365.405 C 134.187 375.063,132.764 399.173,150.537 412.347 C 155.113 415.739,157.179 415.846,226.770 416.301 L 298.299 416.769 298.733 648.931 L 299.167 881.093 303.836 887.215 C 313.050 899.294,300.318 898.500,482.566 898.374 L 646.667 898.261 646.667 913.351 C 646.667 922.254,647.590 930.650,648.918 933.830 C 651.993 941.188,661.990 949.597,669.292 950.967 C 682.346 953.416,698.661 943.196,700.844 931.202 C 701.382 928.249,701.974 811.458,702.161 671.667 L 702.500 417.500 776.667 416.667 C 830.895 416.057,851.793 415.283,854.404 413.788 C 856.367 412.662,859.901 409.452,862.256 406.652 C 872.850 394.063,870.722 377.472,857.191 367.151 L 851.093 362.500 505.923 362.072 L 160.754 361.643 153.307 365.405 M646.667 630.000 L 646.667 843.333 500.833 843.333 L 355.000 843.333 355.000 630.000 L 355.000 416.667 500.833 416.667 L 646.667 416.667 646.667 630.000 " stroke="none" fill-rule="evenodd" fill="#000000"></path></svg>