<svg width="1000" height="1000" viewBox="0 0 1000 1000" version="1.1" id="svg5" sodipodi:docname="男.svg" inkscape:version="1.3 (0e150ed6c4, 2023-07-21)" xmlns:inkscape="http://www.inkscape.org/namespaces/inkscape" xmlns:sodipodi="http://sodipodi.sourceforge.net/DTD/sodipodi-0.dtd" xmlns="http://www.w3.org/2000/svg" xmlns:svg="http://www.w3.org/2000/svg"><path d="M489.947 51.568 C 482.930 53.701,478.332 57.199,474.489 63.333 L 470.833 69.167 470.000 191.667 L 469.167 314.167 326.667 315.000 C 168.373 315.926,178.193 315.171,169.715 327.058 C 166.657 331.345,165.833 334.684,165.833 342.794 C 165.833 353.918,168.424 359.097,177.308 365.730 C 181.861 369.130,183.427 369.171,325.122 369.611 L 468.333 370.055 468.333 377.160 C 468.333 386.329,464.083 420.632,460.727 438.546 C 451.479 487.912,431.308 547.766,406.868 598.366 C 348.835 718.520,255.342 823.023,165.659 867.983 C 139.602 881.045,112.186 888.919,85.833 890.908 C 75.870 891.660,68.865 893.126,64.971 895.275 C 50.475 903.277,46.159 922.172,56.011 934.502 C 66.415 947.522,77.690 949.284,112.496 943.334 C 199.629 928.438,295.954 858.967,376.206 753.144 C 427.358 685.692,469.168 605.837,494.784 526.667 C 498.491 515.208,502.541 501.708,503.783 496.667 C 505.025 491.625,506.861 487.500,507.863 487.500 C 510.490 487.500,631.667 627.987,631.667 631.033 C 631.667 632.436,628.196 638.964,623.954 645.541 C 603.462 677.315,577.044 710.857,551.473 737.565 C 542.658 746.772,534.220 756.674,532.723 759.570 C 527.061 770.518,530.645 786.672,540.253 793.514 C 553.540 802.974,565.679 801.024,580.297 787.081 C 602.621 765.787,636.643 724.846,657.855 693.750 C 664.889 683.438,671.062 675.042,671.572 675.094 C 672.083 675.146,724.537 735.418,788.138 809.032 C 851.739 882.646,905.739 944.035,908.138 945.452 C 928.659 957.569,954.559 938.119,948.393 915.221 C 946.449 908.004,951.395 913.878,801.667 740.965 C 747.125 677.978,702.288 625.528,702.030 624.410 C 701.771 623.292,707.099 610.780,713.871 596.605 C 733.445 555.631,756.667 490.877,756.667 477.267 C 756.667 461.112,738.954 447.461,723.420 451.643 C 710.250 455.190,705.835 461.123,698.179 485.568 C 689.892 512.031,677.862 543.840,668.491 564.068 C 662.606 576.773,661.257 578.615,659.343 576.568 C 651.632 568.322,526.592 423.058,523.771 419.069 C 520.496 414.436,520.397 413.160,521.963 395.833 C 522.875 385.750,523.946 375.813,524.342 373.750 L 525.064 370.000 666.969 370.000 L 808.874 370.000 815.943 365.857 C 823.523 361.415,830.000 350.844,830.000 342.916 C 830.000 332.842,822.147 321.578,812.137 317.295 C 807.724 315.407,781.817 315.000,665.928 315.000 L 525.083 315.000 524.625 191.953 L 524.167 68.905 519.360 62.605 C 514.473 56.198,503.544 49.986,497.500 50.180 C 495.667 50.239,492.268 50.863,489.947 51.568 " stroke="none" fill-rule="evenodd" fill="#000000"></path></svg>