<svg width="1000" height="1000" viewBox="0 0 1000 1000" version="1.1" id="svg5" sodipodi:docname="白.svg" inkscape:version="1.3.2 (091e20e, 2023-11-25, custom)" xmlns:inkscape="http://www.inkscape.org/namespaces/inkscape" xmlns:sodipodi="http://sodipodi.sourceforge.net/DTD/sodipodi-0.dtd" xmlns="http://www.w3.org/2000/svg" xmlns:svg="http://www.w3.org/2000/svg"><path d="M226.701 57.083 C 222.664 59.146,217.874 62.875,216.056 65.371 C 213.696 68.611,209.314 86.964,200.737 129.538 C 167.378 295.115,130.621 407.057,77.414 505.117 C 66.477 525.274,63.339 532.530,63.361 537.617 C 63.420 551.756,76.678 564.945,90.833 564.945 C 101.828 564.945,109.679 559.196,118.092 544.984 C 128.922 526.687,153.355 477.302,163.435 453.333 C 168.253 441.875,172.747 431.867,173.421 431.094 C 174.095 430.320,180.465 440.820,187.576 454.427 C 221.800 519.910,248.916 571.036,250.428 572.933 C 252.258 575.228,250.346 581.100,232.114 629.167 C 210.238 686.842,190.294 732.873,167.120 779.167 C 138.251 836.838,118.433 867.554,92.281 895.160 C 78.315 909.903,74.951 917.701,78.069 928.108 C 83.801 947.239,104.409 954.971,120.306 943.955 C 135.742 933.258,163.542 897.698,186.454 859.345 C 213.756 813.642,250.154 735.801,278.302 662.917 C 283.169 650.313,287.605 640.006,288.159 640.013 C 288.713 640.020,290.973 643.207,293.181 647.096 C 307.267 671.909,343.505 722.974,367.334 751.590 C 480.965 888.046,634.421 945.647,892.500 948.716 C 933.012 949.198,935.128 948.771,943.902 938.344 C 956.107 923.839,947.930 900.063,929.106 895.324 C 925.473 894.409,901.125 893.223,875.000 892.689 C 715.238 889.420,601.890 863.461,516.355 810.550 C 455.286 772.775,402.187 716.479,349.825 633.994 C 330.564 603.651,313.332 573.582,313.344 570.336 C 313.350 568.776,319.775 548.375,327.622 525.000 C 364.256 415.874,395.087 305.010,426.756 168.516 C 430.752 151.294,430.031 144.726,423.187 136.026 C 415.088 125.729,416.355 125.881,333.750 125.338 C 292.271 125.065,258.340 124.690,258.349 124.504 C 258.358 124.319,260.196 114.314,262.433 102.271 C 266.862 78.436,266.453 72.749,259.689 64.150 C 255.618 58.974,244.592 53.425,238.270 53.370 C 235.943 53.350,230.737 55.021,226.701 57.083 M663.333 86.868 C 658.598 88.751,650.658 95.877,647.773 100.833 C 646.325 103.323,645.622 183.726,645.000 418.333 L 644.167 732.500 637.777 721.603 C 627.190 703.549,613.094 697.469,598.767 704.779 C 589.094 709.714,584.461 716.947,583.751 728.224 L 583.166 737.500 617.207 794.946 C 638.864 831.494,653.118 853.835,656.388 856.356 C 663.027 861.476,671.946 863.448,679.294 861.419 C 686.362 859.467,695.585 851.642,698.148 845.424 C 699.544 842.036,699.925 744.127,699.603 471.667 L 699.167 102.500 695.165 96.889 C 688.328 87.303,673.768 82.719,663.333 86.868 M366.667 183.088 C 366.667 185.655,340.279 290.153,331.673 321.667 C 311.258 396.427,278.651 501.934,275.954 501.960 C 275.104 501.968,257.566 469.569,236.982 429.963 L 199.556 357.952 207.231 333.559 C 220.734 290.648,230.215 254.303,245.878 185.417 L 246.730 181.667 306.698 181.667 C 339.681 181.667,366.667 182.306,366.667 183.088 M445.153 271.936 C 437.003 277.529,433.078 283.571,432.192 291.893 C 431.583 297.607,440.167 333.519,472.224 459.374 C 494.668 547.488,514.153 621.738,515.524 624.374 C 525.760 644.055,553.389 644.493,563.266 625.132 C 565.136 621.466,566.667 615.774,566.667 612.483 C 566.667 605.612,487.969 294.132,483.779 284.418 C 479.656 274.862,471.621 269.492,460.254 268.697 C 452.438 268.151,449.866 268.702,445.153 271.936 M876.389 269.700 C 871.566 271.668,863.260 279.976,861.507 284.588 C 860.579 287.028,858.335 298.807,856.522 310.763 C 841.791 407.857,821.608 474.404,773.528 584.412 C 762.325 610.044,756.667 625.023,756.667 629.048 C 756.667 637.934,760.479 645.591,767.610 651.030 C 775.981 657.415,789.335 657.801,798.775 651.932 C 806.026 647.423,809.514 640.677,832.940 585.833 C 862.363 516.952,879.515 467.683,891.831 416.667 C 905.145 361.522,915.949 297.454,913.422 288.642 C 911.179 280.821,905.809 274.097,899.364 271.039 C 893.615 268.311,881.523 267.606,876.389 269.700 " stroke="none" fill-rule="evenodd" fill="black"></path></svg>