<svg width="1000" height="1000" viewBox="0 0 1000 1000" version="1.1" id="svg5" sodipodi:docname="уюЅ.svg" inkscape:version="1.3 (0e150ed6c4, 2023-07-21)" xmlns:inkscape="http://www.inkscape.org/namespaces/inkscape" xmlns:sodipodi="http://sodipodi.sourceforge.net/DTD/sodipodi-0.dtd" xmlns="http://www.w3.org/2000/svg" xmlns:svg="http://www.w3.org/2000/svg"><path d="M52.371 154.031 C 45.521 157.013,37.272 167.288,36.144 174.243 C 34.236 185.999,41.872 199.833,52.785 204.393 C 60.911 207.788,939.089 207.788,947.215 204.393 C 958.128 199.833,965.764 185.999,963.856 174.243 C 962.697 167.101,954.379 156.933,947.262 153.960 C 939.180 150.583,60.128 150.653,52.371 154.031 M201.716 315.960 C 198.535 317.347,194.521 319.759,192.796 321.320 C 184.565 328.769,184.960 314.899,184.933 597.649 L 184.907 862.049 189.097 869.198 C 197.617 883.736,215.877 887.186,228.637 876.669 C 236.920 869.841,240.000 862.432,240.000 849.331 L 240.000 838.333 500.000 838.333 L 760.000 838.333 760.000 849.220 C 760.000 862.729,762.767 869.583,770.939 876.319 C 784.151 887.210,802.247 883.969,810.927 869.157 L 815.141 861.967 815.041 598.344 C 814.934 314.093,815.447 330.482,806.408 322.292 C 796.905 313.680,815.377 314.193,500.833 313.803 C 242.137 313.482,206.817 313.737,201.716 315.960 M376.667 576.667 L 376.667 783.333 308.333 783.333 L 240.000 783.333 240.000 576.667 L 240.000 370.000 308.333 370.000 L 376.667 370.000 376.667 576.667 M568.333 576.667 L 568.333 783.333 500.000 783.333 L 431.667 783.333 431.667 576.667 L 431.667 370.000 500.000 370.000 L 568.333 370.000 568.333 576.667 M760.000 576.667 L 760.000 783.333 691.667 783.333 L 623.333 783.333 623.333 576.667 L 623.333 370.000 691.667 370.000 L 760.000 370.000 760.000 576.667 " stroke="none" fill-rule="evenodd" fill="#000000"></path></svg>