<svg width="1000" height="1000" viewBox="0 0 1000 1000" version="1.1" id="svg5" sodipodi:docname="уюЪ.svg" inkscape:version="1.3 (0e150ed6c4, 2023-07-21)" xmlns:inkscape="http://www.inkscape.org/namespaces/inkscape" xmlns:sodipodi="http://sodipodi.sourceforge.net/DTD/sodipodi-0.dtd" xmlns="http://www.w3.org/2000/svg" xmlns:svg="http://www.w3.org/2000/svg"><path d="M185.751 87.337 C 179.924 89.883,172.081 98.552,170.784 103.878 C 170.300 105.870,170.112 187.883,170.368 286.128 C 170.830 463.579,170.856 464.787,174.270 469.359 C 186.995 486.402,207.990 486.404,220.730 469.365 C 223.758 465.315,224.231 461.911,224.706 440.718 L 225.246 416.667 500.000 416.667 L 774.754 416.667 775.294 440.718 C 775.769 461.911,776.242 465.315,779.270 469.365 C 792.010 486.405,813.005 486.402,825.730 469.359 C 829.145 464.785,829.169 463.618,829.605 284.324 L 830.044 103.891 826.272 98.349 C 824.197 95.301,820.383 91.238,817.795 89.320 L 813.089 85.833 501.961 85.475 C 245.841 85.180,189.935 85.509,185.751 87.337 M774.612 182.083 L 775.058 223.333 500.029 223.333 L 225.000 223.333 225.000 182.778 C 225.000 160.472,225.502 141.720,226.116 141.106 C 226.730 140.492,350.292 140.180,500.699 140.412 L 774.167 140.833 774.612 182.083 M774.612 319.583 L 774.167 360.833 500.000 360.833 L 225.833 360.833 225.388 319.583 L 224.942 278.333 500.000 278.333 L 775.058 278.333 774.612 319.583 M134.167 520.000 C 58.054 520.928,61.962 520.305,53.316 532.884 C 46.794 542.372,48.987 559.041,57.807 567.024 C 66.056 574.489,70.462 575.000,126.613 575.000 L 180.000 575.000 180.040 740.417 C 180.062 833.693,180.741 908.684,181.596 912.371 C 184.547 925.094,195.732 935.000,207.148 935.000 C 211.019 935.000,321.075 903.567,470.293 859.844 C 611.362 818.508,727.694 785.074,728.808 785.546 C 729.922 786.019,769.788 818.768,817.400 858.323 C 865.012 897.879,906.037 931.313,908.567 932.621 C 914.446 935.661,925.541 935.675,931.333 932.649 C 948.600 923.628,952.491 902.798,939.462 889.132 C 929.998 879.205,581.025 590.990,574.560 587.762 C 565.834 583.404,555.219 585.113,547.181 592.170 C 536.916 601.183,534.447 611.052,539.376 623.370 C 541.675 629.117,552.140 638.487,608.543 685.298 C 645.094 715.634,674.996 740.915,674.991 741.477 C 674.984 742.401,240.882 870.070,237.917 870.021 C 237.229 870.009,236.667 803.625,236.667 722.500 L 236.667 575.000 581.720 575.000 C 888.467 575.000,927.455 574.715,932.909 572.436 C 944.847 567.448,950.385 559.181,950.385 546.345 C 950.385 536.615,945.455 528.473,936.527 523.455 C 930.521 520.080,928.994 520.064,566.498 519.616 C 366.299 519.369,171.750 519.542,134.167 520.000 " stroke="none" fill-rule="evenodd" fill="#000000"></path></svg>