<svg width="1000" height="1000" viewBox="0 0 1000 1000" version="1.1" id="svg5" sodipodi:docname="短.svg" inkscape:version="1.4 (86a8ad7, 2024-10-11)" xmlns:inkscape="http://www.inkscape.org/namespaces/inkscape" xmlns:sodipodi="http://sodipodi.sourceforge.net/DTD/sodipodi-0.dtd" xmlns="http://www.w3.org/2000/svg" xmlns:svg="http://www.w3.org/2000/svg"><path d="M655.205 46.809 C 648.654 48.194,642.453 52.480,637.603 58.974 C 634.262 63.447,634.154 65.758,633.703 142.621 L 633.239 221.667 540.720 221.667 C 451.843 221.667,447.946 221.796,441.741 224.962 C 431.708 230.080,427.500 237.233,427.500 249.167 C 427.500 261.100,431.708 268.253,441.741 273.371 C 447.946 276.537,451.843 276.667,540.767 276.667 L 633.333 276.667 633.333 350.833 L 633.333 425.000 561.250 425.009 C 514.067 425.015,486.891 425.650,482.578 426.848 C 468.680 430.706,459.169 446.759,463.069 459.774 C 465.497 467.880,470.454 474.242,477.230 477.950 C 481.966 480.541,490.150 480.884,557.917 481.329 L 633.333 481.825 633.333 559.200 L 633.333 636.576 522.083 637.038 L 410.833 637.500 404.667 641.334 C 396.226 646.583,391.667 654.475,391.667 663.838 C 391.667 668.025,392.333 673.203,393.148 675.346 C 395.876 682.521,404.958 689.715,413.640 691.577 C 418.893 692.703,459.752 693.333,527.549 693.333 L 633.268 693.333 633.717 810.417 L 634.167 927.500 638.057 932.954 C 642.786 939.585,652.878 945.000,660.505 945.000 C 669.496 945.000,680.084 938.409,684.495 930.067 L 688.333 922.809 688.333 808.136 L 688.333 693.462 803.750 692.981 L 919.167 692.500 925.333 688.666 C 931.889 684.589,937.203 677.145,939.000 669.521 C 941.804 657.625,931.797 642.043,919.088 638.514 C 914.608 637.271,876.636 636.682,800.417 636.676 L 688.333 636.667 688.333 559.236 L 688.333 481.805 776.250 481.319 C 874.103 480.778,870.061 481.253,879.231 469.231 C 890.859 453.985,882.893 432.070,863.796 426.767 C 859.785 425.653,826.797 425.015,772.917 425.009 L 688.333 425.000 688.333 350.872 L 688.333 276.743 787.214 276.288 L 886.095 275.833 892.391 271.030 C 899.491 265.614,903.333 257.937,903.333 249.167 C 903.333 240.396,899.491 232.720,892.391 227.303 L 886.095 222.500 787.261 222.045 L 688.427 221.590 687.964 142.747 L 687.500 63.904 682.849 57.808 C 675.665 48.392,665.966 44.533,655.205 46.809 M107.500 194.530 C 102.826 195.665,93.753 202.768,91.428 207.112 C 85.746 217.729,86.856 229.341,94.410 238.319 C 102.107 247.466,101.937 247.440,160.000 248.333 L 214.167 249.167 214.596 354.583 L 215.025 460.000 148.263 460.000 C 75.210 460.000,76.282 459.867,67.765 469.989 C 59.477 479.838,59.915 494.324,68.806 504.451 C 78.075 515.007,78.023 515.000,149.917 515.000 L 214.941 515.000 215.387 693.047 L 215.833 871.094 220.484 877.191 C 230.814 890.733,247.396 892.850,260.008 882.237 C 270.643 873.288,270.000 885.553,270.000 691.749 L 270.000 515.000 331.250 514.963 C 387.269 514.930,393.081 514.663,399.298 511.839 C 419.682 502.582,421.490 475.502,402.500 463.891 C 397.951 461.109,391.786 460.758,334.167 460.000 L 270.833 459.167 270.833 354.167 L 270.833 249.167 324.167 248.333 C 373.708 247.559,377.893 247.263,383.032 244.167 C 396.436 236.090,400.130 217.355,390.655 205.498 C 380.292 192.528,390.037 193.316,242.500 193.529 C 170.083 193.634,109.333 194.084,107.500 194.530 " stroke="none" fill-rule="evenodd" fill="black"></path></svg>