<svg width="1000" height="1000" viewBox="0 0 1000 1000" version="1.1" id="svg5" xmlns="http://www.w3.org/2000/svg" xmlns:svg="http://www.w3.org/2000/svg"><path d="M334.167 52.484 C 315.630 59.091,309.737 82.387,322.998 96.633 C 325.756 99.595,362.664 119.715,418.244 148.555 C 499.527 190.731,509.808 195.641,516.845 195.641 C 531.670 195.641,543.333 183.715,543.333 168.555 C 543.333 158.784,539.125 151.368,530.260 145.513 C 525.992 142.695,490.250 123.696,450.833 103.294 C 336.811 44.275,345.986 48.271,334.167 52.484 M737.520 102.617 C 734.780 104.046,722.780 114.867,710.853 126.665 C 675.151 161.979,635.231 194.745,581.667 232.698 C 558.400 249.183,507.009 283.227,494.124 290.690 L 489.081 293.611 360.403 240.103 C 289.630 210.673,229.448 186.140,226.665 185.583 C 219.270 184.104,207.465 189.176,202.182 196.102 C 195.917 204.317,194.945 217.315,199.932 226.190 C 201.941 229.764,205.216 233.736,207.209 235.017 C 209.202 236.297,259.471 257.630,318.918 282.422 C 378.365 307.215,427.008 328.213,427.014 329.085 C 427.020 329.957,412.507 338.489,394.763 348.046 C 289.526 404.723,179.286 450.025,96.316 470.690 C 80.255 474.690,65.152 479.249,62.753 480.821 C 51.534 488.172,47.719 505.720,54.837 517.236 C 59.093 524.123,63.828 527.441,72.882 529.878 C 78.859 531.488,83.090 530.827,109.941 524.091 C 175.159 507.729,251.091 479.345,334.167 440.274 C 357.581 429.262,420.659 397.108,436.893 387.909 C 440.893 385.642,454.930 377.611,468.085 370.062 C 486.084 359.734,493.096 356.528,496.418 357.107 C 498.847 357.530,593.833 396.656,707.500 444.054 C 931.556 537.483,923.222 534.461,935.658 526.775 C 952.083 516.624,953.254 491.309,937.768 481.162 C 935.655 479.778,848.856 443.268,744.880 400.028 C 640.904 356.788,555.180 320.777,554.382 320.004 C 553.578 319.224,561.993 312.588,573.263 305.114 C 639.856 260.954,700.110 213.742,744.967 170.575 C 773.459 143.156,776.667 138.797,776.667 127.496 C 776.667 107.241,755.028 93.488,737.520 102.617 M188.941 504.910 C 160.463 511.763,160.728 551.779,189.296 558.404 C 192.891 559.238,211.021 559.938,229.583 559.960 L 263.333 560.000 263.333 747.610 C 263.333 883.308,263.852 936.226,265.208 938.860 C 268.049 944.375,273.622 950.033,278.936 952.797 C 290.183 958.647,287.192 959.818,479.587 874.284 C 579.735 829.761,662.235 793.372,662.921 793.420 C 663.606 793.468,691.828 828.390,725.635 871.025 C 759.443 913.660,788.864 949.696,791.014 951.105 C 808.565 962.605,833.344 949.369,833.327 928.504 C 833.323 923.847,832.046 918.743,830.077 915.513 C 824.822 906.895,573.677 591.416,566.719 584.693 C 555.668 574.015,540.557 574.051,529.826 584.782 C 519.568 595.040,518.197 607.746,526.055 619.739 C 527.615 622.120,550.950 651.744,577.910 685.570 C 604.870 719.396,626.307 747.691,625.547 748.447 C 624.206 749.784,320.819 885.000,319.162 885.000 C 318.706 885.000,318.333 811.875,318.333 722.500 L 318.333 560.000 562.917 559.960 C 703.738 559.937,810.274 559.277,814.038 558.404 C 827.159 555.361,835.661 544.877,835.614 531.797 C 835.578 521.804,831.515 514.383,822.992 508.743 L 816.077 504.167 505.122 503.910 C 334.097 503.768,191.815 504.219,188.941 504.910 " stroke="none" fill-rule="evenodd" fill="black"></path></svg>