<svg width="1000" height="1000" viewBox="0 0 1000 1000" version="1.1" id="svg5" sodipodi:docname="чги.svg" inkscape:version="1.4 (86a8ad7, 2024-10-11)" xmlns:inkscape="http://www.inkscape.org/namespaces/inkscape" xmlns:sodipodi="http://sodipodi.sourceforge.net/DTD/sodipodi-0.dtd" xmlns="http://www.w3.org/2000/svg" xmlns:svg="http://www.w3.org/2000/svg"><path d="M449.167 71.548 C 441.403 73.421,437.193 76.199,432.206 82.737 C 428.456 87.653,427.599 90.512,427.555 98.257 C 427.509 106.135,428.294 108.791,432.169 113.877 C 441.609 126.262,437.750 125.778,531.240 126.309 L 614.980 126.784 615.407 527.272 L 615.833 927.760 620.503 933.882 C 626.588 941.859,632.944 945.000,643.004 945.000 C 652.049 945.000,659.679 940.893,665.680 932.795 C 669.146 928.118,669.172 927.144,670.000 770.321 L 670.833 612.552 718.333 686.517 C 770.122 767.159,771.313 768.611,785.651 768.611 C 795.557 768.611,806.077 762.722,809.941 755.013 C 815.752 743.419,836.584 676.306,852.460 618.031 C 894.453 463.889,916.274 317.725,923.501 142.169 L 925.436 95.172 921.468 87.256 C 916.872 78.086,911.553 73.725,902.371 71.596 C 894.637 69.802,456.593 69.756,449.167 71.548 M143.267 102.171 C 134.978 106.554,128.333 117.158,128.333 126.003 C 128.333 133.465,190.121 290.616,195.238 296.167 C 211.652 313.975,242.158 302.518,242.319 278.484 C 242.360 272.426,236.027 254.703,211.890 193.333 C 195.126 150.708,179.939 113.449,178.142 110.535 C 174.414 104.490,163.025 98.333,155.569 98.333 C 152.795 98.333,147.258 100.060,143.267 102.171 M370.833 100.696 C 361.016 105.078,357.282 111.399,346.629 141.667 C 333.620 178.627,320.881 210.924,307.187 241.667 C 296.058 266.651,272.083 313.856,263.145 328.383 L 258.047 336.667 190.420 336.667 L 122.793 336.667 115.723 340.810 C 106.102 346.448,100.853 357.095,102.448 367.736 C 103.848 377.068,114.552 388.827,123.226 390.562 C 126.264 391.170,149.656 391.667,175.208 391.667 C 200.760 391.667,221.667 392.163,221.667 392.770 C 221.667 394.122,201.395 421.307,187.691 438.333 C 169.150 461.368,142.750 490.429,110.833 522.937 C 93.417 540.676,78.263 557.209,77.159 559.678 C 70.036 575.599,84.202 596.561,102.137 596.639 C 112.516 596.684,118.280 592.911,137.472 573.507 C 147.539 563.328,156.352 555.000,157.055 555.000 C 157.758 555.000,158.333 625.174,158.333 710.943 C 158.333 823.185,158.859 867.906,160.208 870.526 C 163.049 876.042,168.622 881.700,173.936 884.464 C 180.096 887.668,191.659 887.639,197.731 884.403 C 200.354 883.005,240.336 846.566,286.579 803.427 C 332.823 760.288,371.135 725.556,371.717 726.246 C 372.299 726.936,385.054 760.125,400.062 800.000 C 429.732 878.831,431.682 882.547,445.372 886.327 C 462.303 891.002,481.128 875.990,479.482 859.125 C 478.715 851.265,345.924 500.198,340.896 492.736 C 326.277 471.043,291.667 482.441,291.667 508.948 C 291.667 511.916,304.747 548.805,320.734 590.922 C 344.822 654.383,349.461 667.987,347.817 670.341 C 345.468 673.705,215.452 795.000,214.195 795.000 C 213.721 795.000,213.333 727.197,213.333 644.326 L 213.333 493.652 225.533 478.909 C 241.540 459.566,265.508 427.359,278.650 407.536 L 289.167 391.672 357.500 391.633 C 420.531 391.597,426.363 391.353,432.665 388.491 C 442.194 384.163,447.180 376.551,447.980 365.109 C 448.728 354.412,444.877 347.025,435.131 340.456 C 429.574 336.712,428.878 336.667,376.420 336.667 C 344.211 336.667,323.333 336.047,323.333 335.092 C 323.333 334.226,327.419 325.789,332.413 316.342 C 353.024 277.355,380.741 211.893,398.415 160.458 C 406.646 136.504,408.460 129.359,407.895 123.130 C 406.270 105.209,386.938 93.507,370.833 100.696 M867.669 154.583 C 861.917 295.093,842.989 428.802,810.161 560.833 C 800.485 599.749,780.834 670.405,778.528 674.571 C 777.836 675.821,761.276 651.640,736.770 613.596 C 708.660 569.957,694.447 549.377,690.597 546.739 C 687.538 544.643,681.652 542.547,677.518 542.081 L 670.000 541.233 670.000 333.950 L 670.000 126.667 769.406 126.667 L 868.811 126.667 867.669 154.583 " stroke="none" fill-rule="evenodd" fill="#000000"></path></svg>