<svg width="1000" height="1000" viewBox="0 0 1000 1000" version="1.1" id="svg5" sodipodi:docname="чги.svg" inkscape:version="1.4.2 (f4327f4, 2025-05-13)" xmlns:inkscape="http://www.inkscape.org/namespaces/inkscape" xmlns:sodipodi="http://sodipodi.sourceforge.net/DTD/sodipodi-0.dtd" xmlns="http://www.w3.org/2000/svg" xmlns:svg="http://www.w3.org/2000/svg"><path d="M150.686 74.818 C 140.057 81.300,133.665 94.533,136.458 104.274 C 139.564 115.103,205.794 267.876,209.644 273.094 C 215.083 280.462,223.545 283.897,233.827 282.909 C 248.356 281.513,259.079 269.016,257.775 255.000 C 257.065 247.382,193.024 94.744,185.957 83.827 C 178.653 72.546,161.568 68.182,150.686 74.818 M407.417 74.011 C 399.780 77.338,394.472 84.740,389.255 99.341 C 372.784 145.441,343.278 212.015,322.127 250.805 C 307.746 277.179,287.634 311.031,283.740 315.417 C 281.343 318.116,275.346 318.333,203.321 318.333 L 125.493 318.333 119.869 322.123 C 116.777 324.207,112.541 328.443,110.456 331.536 C 102.152 343.859,107.999 362.980,122.169 369.840 C 129.066 373.178,131.920 373.333,186.500 373.333 L 243.613 373.333 238.122 380.417 C 209.531 417.295,143.132 486.565,99.739 524.782 C 88.470 534.706,79.377 544.119,78.087 547.196 C 70.449 565.415,83.675 585.385,103.379 585.385 C 113.908 585.385,116.235 583.842,144.804 557.917 C 157.683 546.229,168.621 536.667,169.110 536.667 C 169.600 536.667,170.000 611.181,170.000 702.254 L 170.000 867.840 173.750 873.350 C 175.813 876.381,179.477 880.324,181.893 882.113 C 187.584 886.328,200.071 887.732,206.858 884.921 C 209.744 883.725,256.412 845.001,310.566 798.867 C 381.916 738.083,409.377 715.613,410.301 717.263 C 411.001 718.515,425.822 753.865,443.236 795.817 C 460.650 837.770,476.056 873.864,477.473 876.026 C 481.800 882.630,492.687 887.153,502.085 886.250 C 515.603 884.951,524.948 875.638,526.241 862.174 C 526.971 854.575,522.595 843.434,451.723 672.467 C 410.311 572.568,374.910 487.635,373.054 483.726 C 363.766 464.166,334.267 463.302,324.453 482.304 C 318.211 494.390,318.979 496.966,353.349 579.167 C 370.980 621.333,385.676 657.333,386.007 659.167 C 386.482 661.796,370.229 676.413,309.099 728.333 C 266.468 764.542,230.106 795.196,228.294 796.453 C 225.020 798.726,225.000 797.772,225.000 639.450 L 225.000 480.161 241.857 461.372 C 261.268 439.738,284.688 410.788,300.272 389.167 L 311.083 374.167 391.916 373.333 L 472.749 372.500 478.786 368.362 C 496.026 356.544,495.813 333.969,478.350 322.083 C 472.878 318.359,472.409 318.333,410.409 318.333 C 359.913 318.333,348.135 317.920,348.807 316.170 C 349.264 314.980,353.523 307.292,358.272 299.086 C 371.632 276.003,403.161 212.005,415.299 183.333 C 431.356 145.404,446.667 104.111,446.667 98.736 C 446.667 96.153,444.979 90.696,442.917 86.610 C 436.462 73.823,420.696 68.227,407.417 74.011 M464.041 186.685 C 454.278 191.537,449.458 198.844,448.681 209.974 C 447.968 220.172,451.486 227.304,460.537 234.013 C 465.120 237.410,467.332 237.521,546.371 238.333 L 627.500 239.167 628.333 584.167 L 629.167 929.167 632.980 935.298 C 641.113 948.378,658.980 951.654,671.228 942.312 C 683.317 933.091,682.408 944.120,683.333 795.485 L 684.167 661.655 727.956 723.213 C 752.041 757.070,774.000 786.667,776.755 788.986 C 789.916 800.060,809.814 795.033,818.247 778.502 C 823.395 768.411,851.147 685.010,862.671 645.000 C 901.060 511.709,921.870 379.069,926.106 240.685 C 927.172 205.852,927.146 205.473,923.238 198.519 C 921.068 194.660,916.640 189.852,913.397 187.834 L 907.500 184.167 689.167 183.738 C 472.835 183.313,470.771 183.340,464.041 186.685 M870.550 247.917 C 861.995 413.188,842.374 526.386,797.173 671.250 C 791.095 690.729,785.559 706.667,784.871 706.667 C 784.183 706.667,766.239 682.273,744.996 652.459 C 704.182 595.177,700.914 591.667,688.400 591.667 L 683.333 591.667 683.333 415.000 L 683.333 238.333 777.190 238.333 L 871.046 238.333 870.550 247.917 " stroke="none" fill-rule="evenodd" fill="#000000"></path></svg>