<svg width="1000" height="1000" viewBox="0 0 1000 1000" version="1.1" id="svg5" sodipodi:docname="чеЦ.svg" inkscape:version="1.4 (86a8ad7, 2024-10-11)" xmlns:inkscape="http://www.inkscape.org/namespaces/inkscape" xmlns:sodipodi="http://sodipodi.sourceforge.net/DTD/sodipodi-0.dtd" xmlns="http://www.w3.org/2000/svg" xmlns:svg="http://www.w3.org/2000/svg"><path d="M246.371 80.000 C 157.601 80.812,155.123 80.922,150.641 84.270 C 142.479 90.365,139.427 96.004,138.677 106.377 C 137.874 117.472,140.043 122.987,148.293 130.833 L 153.550 135.833 230.108 136.298 C 289.858 136.661,306.667 137.219,306.667 138.840 C 306.667 146.102,276.512 243.820,251.474 317.692 C 241.497 347.130,233.333 373.784,233.333 376.922 C 233.333 384.885,239.763 396.762,246.496 401.237 C 252.153 404.995,252.246 405.000,322.941 405.000 L 393.722 405.000 392.376 408.750 C 391.636 410.813,390.611 433.875,390.099 460.000 L 389.167 507.500 314.167 508.333 C 259.819 508.937,238.197 509.723,235.645 511.186 C 228.649 515.199,221.916 524.702,220.801 532.136 C 219.127 543.298,224.219 553.193,235.029 559.783 C 240.712 563.247,242.363 563.321,313.935 563.327 L 387.038 563.333 385.935 569.210 C 376.795 617.929,332.292 681.204,281.289 717.997 C 251.733 739.318,221.893 751.998,193.983 755.096 C 174.529 757.256,167.780 760.056,162.387 768.204 C 157.162 776.100,155.852 783.316,158.298 790.726 C 163.346 806.021,175.790 812.809,195.394 810.961 C 242.889 806.483,292.000 782.894,338.563 742.195 C 371.841 713.108,400.265 676.423,419.361 637.917 C 423.793 628.979,427.874 621.667,428.430 621.667 C 428.986 621.667,474.755 662.254,530.137 711.862 C 585.520 761.469,633.833 804.286,637.500 807.011 C 643.550 811.506,645.128 811.905,654.554 811.322 C 663.303 810.780,665.759 809.902,670.120 805.756 C 672.968 803.049,676.356 798.808,677.649 796.333 C 680.872 790.163,680.600 778.542,677.083 772.135 C 675.479 769.213,623.178 721.225,560.859 665.494 L 447.552 564.167 521.693 563.333 C 573.447 562.752,596.840 561.917,599.167 560.570 C 607.981 555.465,613.611 545.838,613.611 535.869 C 613.611 526.776,609.984 519.763,602.217 513.836 L 596.096 509.167 520.548 508.701 L 445.000 508.235 445.000 463.231 C 445.000 426.997,444.513 417.060,442.500 412.243 C 441.125 408.952,440.000 405.981,440.000 405.641 C 440.000 405.301,530.375 405.034,640.833 405.048 L 841.667 405.073 841.667 410.537 C 841.667 413.542,840.895 426.088,839.952 438.417 C 827.035 607.242,761.543 756.473,651.041 868.867 C 642.190 877.869,634.018 884.994,632.881 884.701 C 631.743 884.407,605.979 858.667,575.626 827.500 C 545.273 796.333,518.829 769.394,516.861 767.635 C 514.625 765.637,510.006 764.174,504.558 763.737 C 494.920 762.963,487.625 766.578,481.129 775.348 C 476.508 781.587,475.446 796.090,479.053 803.691 C 483.151 812.329,611.903 944.928,620.901 949.779 C 634.695 957.216,644.045 952.216,678.142 919.167 C 758.197 841.572,818.084 744.335,855.721 630.833 C 877.908 563.926,891.899 482.952,894.465 406.604 C 895.643 371.558,894.946 365.505,888.902 358.323 C 879.588 347.253,882.265 347.585,794.881 346.667 L 715.595 345.833 755.393 230.833 C 796.993 110.625,798.252 106.065,792.745 95.520 C 791.399 92.942,787.932 88.583,785.041 85.833 L 779.784 80.833 711.975 80.420 C 549.497 79.428,330.495 79.231,246.371 80.000 M718.502 174.583 C 711.311 195.438,695.020 242.685,682.298 279.579 L 659.167 346.657 478.750 346.662 C 379.521 346.665,298.333 346.456,298.333 346.198 C 298.333 345.940,302.850 332.253,308.369 315.781 C 323.669 270.127,343.984 204.296,353.258 170.323 C 357.838 153.542,362.023 139.105,362.558 138.240 C 363.158 137.269,433.980 136.667,547.553 136.667 L 731.575 136.667 718.502 174.583 " stroke="none" fill-rule="evenodd" fill="black"></path></svg>