<svg width="1000" height="1000" viewBox="0 0 1000 1000" version="1.1" id="svg5" sodipodi:docname="чен.svg" inkscape:version="1.3 (0e150ed6c4, 2023-07-21)" xmlns:inkscape="http://www.inkscape.org/namespaces/inkscape" xmlns:sodipodi="http://sodipodi.sourceforge.net/DTD/sodipodi-0.dtd" xmlns="http://www.w3.org/2000/svg" xmlns:svg="http://www.w3.org/2000/svg"><path d="M635.205 50.142 C 623.480 52.622,614.917 62.438,613.733 74.756 C 612.947 82.945,613.773 84.754,660.019 176.108 C 685.917 227.265,708.195 270.783,709.525 272.812 C 712.667 277.608,724.585 283.333,731.426 283.333 C 738.754 283.333,748.931 277.849,753.494 271.440 C 755.845 268.139,757.521 262.936,757.936 257.653 C 758.587 249.369,757.501 246.980,712.401 157.500 C 686.990 107.083,664.398 63.406,662.198 60.439 C 655.769 51.769,645.690 47.924,635.205 50.142 M285.527 53.239 C 281.142 55.230,276.812 59.036,273.860 63.494 L 269.167 70.583 268.625 122.744 L 268.083 174.905 190.829 175.369 C 115.425 175.822,113.462 175.917,108.871 179.320 C 106.283 181.238,102.479 185.286,100.417 188.316 L 96.667 193.826 96.667 372.183 L 96.667 550.540 100.810 557.610 C 105.251 565.189,115.823 571.667,123.751 571.667 C 132.722 571.667,143.757 564.712,148.875 555.833 C 149.932 554.000,151.180 543.500,151.648 532.500 L 152.500 512.500 210.417 512.062 L 268.333 511.623 268.333 518.986 C 268.333 541.778,260.548 591.540,250.790 631.122 C 226.424 729.958,173.170 830.078,122.885 871.590 C 107.399 884.374,96.738 889.687,81.136 892.396 C 74.229 893.595,65.952 896.200,62.741 898.184 C 56.507 902.037,49.975 913.310,50.037 920.110 C 50.099 927.037,56.017 937.668,62.608 942.693 C 68.329 947.056,70.079 947.487,81.539 947.359 C 110.405 947.037,138.935 932.426,170.595 901.750 C 223.940 850.065,269.545 766.207,298.103 667.289 C 301.775 654.572,305.684 639.915,306.791 634.718 C 308.813 625.225,310.877 620.255,312.193 621.715 C 312.582 622.147,347.900 672.375,390.677 733.333 C 433.454 794.292,470.313 845.828,472.586 847.860 C 484.693 858.676,505.357 854.837,513.942 840.176 C 517.990 833.265,518.065 819.906,514.092 813.751 C 512.465 811.230,468.849 749.000,417.168 675.464 L 323.202 541.761 323.684 527.130 L 324.167 512.500 384.167 512.500 L 444.167 512.500 445.018 532.500 C 445.940 554.137,446.858 556.896,455.734 564.689 C 468.735 576.105,488.809 572.069,496.784 556.436 C 500.076 549.984,500.130 546.921,500.046 372.966 L 499.960 196.058 495.837 189.022 C 493.094 184.342,489.298 180.817,484.497 178.493 C 477.494 175.103,475.038 175.000,401.140 175.000 L 325.000 175.000 324.963 124.583 C 324.930 79.238,324.619 73.496,321.865 67.500 C 318.224 59.570,314.507 56.017,306.243 52.564 C 298.278 49.236,294.041 49.374,285.527 53.239 M847.125 146.618 C 832.978 149.980,829.056 156.050,820.939 187.152 C 802.128 259.232,771.444 354.946,742.818 430.833 C 723.083 483.152,714.399 504.992,713.333 504.983 C 712.875 504.979,687.750 465.824,657.500 417.971 C 627.250 370.119,600.660 328.772,598.411 326.090 C 590.951 317.193,576.607 314.026,566.782 319.107 C 560.000 322.614,553.712 330.737,551.543 338.794 C 549.939 344.751,550.138 346.871,552.909 353.302 C 554.693 357.444,585.519 407.185,621.410 463.836 C 657.301 520.488,686.667 567.275,686.667 567.807 C 686.667 568.339,681.862 579.363,675.990 592.304 C 636.744 678.797,598.751 749.347,559.142 809.284 C 535.400 845.210,517.274 868.005,495.620 889.167 C 486.240 898.333,477.763 907.945,476.783 910.525 C 471.060 925.585,479.824 941.943,496.195 946.760 C 508.497 950.380,515.774 946.245,540.067 921.835 C 575.901 885.826,613.046 832.456,656.398 754.689 C 669.897 730.474,708.938 653.391,717.386 634.272 C 721.124 625.813,722.086 624.725,724.018 626.772 C 725.260 628.089,769.601 697.792,822.552 781.667 C 875.503 865.542,920.718 936.216,923.030 938.720 C 925.342 941.225,930.369 944.472,934.201 945.935 C 953.213 953.196,974.324 933.404,968.903 913.401 C 968.024 910.155,918.759 830.805,859.426 737.066 C 800.094 643.327,751.124 565.526,750.605 564.173 C 750.086 562.821,754.187 551.016,759.718 537.941 C 782.057 485.132,809.221 412.310,830.889 347.147 C 853.737 278.433,880.005 185.013,879.994 172.509 C 879.984 161.553,872.561 151.722,860.893 147.210 C 855.028 144.942,854.310 144.911,847.125 146.618 M268.333 343.333 L 268.333 456.667 210.000 456.667 L 151.667 456.667 151.667 344.444 C 151.667 282.722,152.167 231.722,152.778 231.111 C 153.389 230.500,179.639 230.000,211.111 230.000 L 268.333 230.000 268.333 343.333 M445.000 343.333 L 445.000 456.667 385.000 456.667 L 325.000 456.667 325.000 343.333 L 325.000 230.000 385.000 230.000 L 445.000 230.000 445.000 343.333 " stroke="none" fill-rule="evenodd" fill="#000000"></path></svg>