<svg width="1000" height="1000" viewBox="0 0 1000 1000" version="1.1" id="svg5" xmlns="http://www.w3.org/2000/svg" xmlns:svg="http://www.w3.org/2000/svg"><path d="M250.833 128.612 C 249.000 129.626,245.741 132.040,243.592 133.978 C 234.409 142.254,234.836 133.587,234.959 309.234 L 235.073 471.667 198.478 471.667 C 176.730 471.667,159.980 472.384,157.192 473.436 C 150.214 476.066,141.855 484.891,139.993 491.593 C 138.969 495.280,138.348 557.747,138.343 657.820 L 138.333 818.139 105.117 818.653 C 74.618 819.125,71.524 819.448,67.303 822.603 C 59.413 828.501,56.159 834.307,55.490 843.681 C 54.665 855.242,59.560 864.032,69.845 869.458 L 77.191 873.333 500.000 873.333 L 922.809 873.333 930.155 869.458 C 940.440 864.032,945.335 855.242,944.510 843.681 C 943.841 834.307,940.587 828.501,932.697 822.603 C 928.476 819.448,925.382 819.125,894.883 818.653 L 861.667 818.139 861.657 657.820 C 861.652 557.747,861.031 495.280,860.007 491.593 C 858.145 484.891,849.786 476.066,842.808 473.436 C 840.020 472.384,823.270 471.667,801.522 471.667 L 764.927 471.667 765.041 309.234 C 765.164 133.587,765.593 142.281,756.408 133.958 C 754.259 132.010,750.862 129.573,748.860 128.542 C 743.719 125.894,255.623 125.963,250.833 128.612 M710.000 326.667 L 710.000 471.667 500.000 471.667 L 290.000 471.667 290.000 326.667 L 290.000 181.667 500.000 181.667 L 710.000 181.667 710.000 326.667 M805.000 673.333 L 805.000 818.333 500.000 818.333 L 195.000 818.333 195.000 673.333 L 195.000 528.333 500.000 528.333 L 805.000 528.333 805.000 673.333 " stroke="none" fill-rule="evenodd" fill="#000000"></path></svg>