<svg width="1000" height="1000" viewBox="0 0 1000 1000" version="1.1" id="svg5" sodipodi:docname="穴.svg" inkscape:version="1.4 (86a8ad7, 2024-10-11)" xmlns:inkscape="http://www.inkscape.org/namespaces/inkscape" xmlns:sodipodi="http://sodipodi.sourceforge.net/DTD/sodipodi-0.dtd" xmlns="http://www.w3.org/2000/svg" xmlns:svg="http://www.w3.org/2000/svg"><path d="M514.167 28.687 C 509.841 31.170,506.183 35.123,503.750 39.943 L 500.000 47.373 500.000 155.255 C 500.000 216.395,499.358 263.533,498.518 264.052 C 496.332 265.403,477.437 269.233,431.714 277.591 C 387.029 285.759,381.261 287.964,376.094 298.853 C 367.518 316.926,380.307 338.333,399.680 338.333 C 403.817 338.333,425.643 334.902,448.184 330.709 C 470.724 326.515,491.417 322.698,494.167 322.225 L 499.167 321.366 498.586 445.266 C 498.267 513.411,497.834 569.349,497.625 569.572 C 496.879 570.367,450.343 583.713,420.000 591.835 C 403.042 596.374,387.292 601.449,385.000 603.114 C 377.746 608.382,373.333 616.501,373.333 624.578 C 373.333 638.324,380.569 648.039,393.748 651.988 C 401.308 654.253,401.338 654.247,459.410 638.120 C 478.795 632.737,495.482 628.333,496.494 628.333 C 497.799 628.333,498.333 644.468,498.333 683.834 C 498.333 758.618,501.943 800.249,511.761 838.704 C 519.644 869.579,534.595 903.019,548.678 921.278 C 566.147 943.927,591.071 959.945,614.167 963.368 C 621.770 964.494,680.982 964.935,784.167 964.632 C 961.688 964.110,948.837 965.056,957.563 951.871 C 965.862 939.329,966.462 941.249,916.952 821.833 C 892.134 761.972,870.656 711.206,869.223 709.019 C 867.790 706.832,863.497 703.451,859.682 701.504 C 841.561 692.260,820.000 705.457,820.000 725.792 C 820.000 729.687,832.458 761.745,856.667 820.151 C 876.833 868.804,893.333 908.948,893.333 909.361 C 893.333 909.773,831.646 909.898,756.250 909.639 C 623.825 909.183,618.940 909.055,612.500 905.889 C 586.416 893.064,564.713 842.908,556.584 776.667 C 554.131 756.683,552.340 613.660,554.515 611.485 C 555.377 610.623,574.942 603.587,597.993 595.849 C 658.005 575.704,711.155 556.214,774.167 531.247 C 833.988 507.543,838.025 505.191,841.589 491.957 C 844.851 479.841,838.763 466.289,827.698 461.039 C 817.278 456.094,810.412 457.473,775.385 471.543 C 726.406 491.219,706.827 498.719,660.000 515.743 C 614.697 532.214,554.996 552.401,554.479 551.423 C 554.307 551.099,554.542 496.495,555.000 430.081 L 555.833 309.330 574.167 305.441 C 627.818 294.061,746.011 263.010,756.682 257.492 C 762.298 254.588,767.983 247.034,770.095 239.669 C 774.385 224.711,760.154 206.667,744.069 206.667 C 740.716 206.667,720.616 211.494,699.403 217.393 C 654.624 229.847,632.300 235.522,590.833 244.994 C 574.333 248.764,559.521 252.232,557.917 252.703 C 555.161 253.511,555.000 247.839,555.000 149.948 C 555.000 57.352,554.709 45.724,552.265 40.574 C 545.659 26.651,527.554 21.003,514.167 28.687 M87.102 271.543 C 73.936 281.080,74.852 259.994,75.371 541.667 C 75.806 777.484,76.009 792.821,78.768 797.868 C 87.303 813.482,104.576 818.469,118.412 809.313 C 128.172 802.854,130.552 796.926,131.354 777.083 L 132.045 760.000 202.689 760.000 L 273.333 760.000 273.333 771.585 C 273.333 794.198,279.238 807.236,291.629 811.981 C 303.982 816.711,318.205 811.796,325.333 800.333 L 329.167 794.167 329.657 545.833 C 329.927 409.250,329.688 294.281,329.128 290.346 C 327.933 281.962,320.297 272.317,312.163 268.918 C 307.827 267.107,285.956 266.667,200.304 266.667 L 93.833 266.667 87.102 271.543 M273.333 513.333 L 273.333 705.000 202.500 705.000 L 131.667 705.000 131.667 513.333 L 131.667 321.667 202.500 321.667 L 273.333 321.667 273.333 513.333 " stroke="none" fill-rule="evenodd" fill="black"></path></svg>