<svg width="1000" height="1000" viewBox="0 0 1000 1000" version="1.1" id="svg5" sodipodi:docname="立.svg" inkscape:version="1.3.2 (091e20e, 2023-11-25, custom)" xmlns:inkscape="http://www.inkscape.org/namespaces/inkscape" xmlns:sodipodi="http://sodipodi.sourceforge.net/DTD/sodipodi-0.dtd" xmlns="http://www.w3.org/2000/svg" xmlns:svg="http://www.w3.org/2000/svg"><path d="M485.088 102.039 C 480.006 104.761,476.469 108.291,473.838 113.267 L 470.000 120.524 470.000 210.262 L 470.000 300.000 366.613 300.000 C 253.519 300.000,256.369 299.764,247.883 309.849 C 238.744 320.709,238.752 334.300,247.903 345.175 C 256.363 355.229,253.606 355.000,366.026 355.000 L 468.825 355.000 467.741 369.110 C 466.433 386.114,461.279 413.725,455.597 434.167 C 421.008 558.585,334.100 676.923,244.141 722.093 C 224.356 732.027,209.970 736.296,189.912 738.183 C 172.473 739.824,167.146 742.127,160.116 751.065 C 150.378 763.444,155.524 783.347,170.458 791.070 C 176.929 794.417,197.348 794.254,214.456 790.721 C 326.391 767.600,448.819 632.350,501.000 474.167 C 504.931 462.250,508.799 452.500,509.595 452.500 C 510.391 452.500,573.522 525.625,649.885 615.000 C 726.248 704.375,792.192 781.082,796.426 785.459 C 804.891 794.210,813.531 797.626,822.801 795.887 C 829.332 794.662,839.046 786.679,842.771 779.477 C 846.150 772.941,844.997 760.345,840.435 753.963 C 838.550 751.325,766.445 666.667,680.202 565.833 L 523.397 382.500 523.384 375.000 C 523.376 370.875,523.835 364.688,524.403 361.250 L 525.436 355.000 629.123 355.000 L 732.809 355.000 740.067 351.162 C 748.297 346.810,755.000 336.189,755.000 327.500 C 755.000 319.876,748.203 308.101,741.544 304.188 C 736.028 300.948,732.259 300.805,630.833 300.000 L 525.833 299.167 525.000 207.500 C 524.368 137.979,523.658 114.944,522.061 112.151 C 515.002 99.807,497.958 95.146,485.088 102.039 M73.051 850.045 C 63.307 855.192,59.167 862.385,59.167 874.167 C 59.167 886.100,63.375 893.253,73.407 898.371 C 79.792 901.628,84.760 901.667,500.000 901.667 C 915.240 901.667,920.208 901.628,926.593 898.371 C 936.625 893.253,940.833 886.100,940.833 874.167 C 940.833 862.233,936.625 855.080,926.593 849.962 C 920.207 846.704,915.314 846.668,499.650 846.740 C 86.910 846.813,79.054 846.873,73.051 850.045 " stroke="none" fill-rule="evenodd" fill="#000000"></path></svg>