<svg width="1000" height="1000" viewBox="0 0 1000 1000" version="1.1" id="svg5" sodipodi:docname="угЏ.svg" inkscape:version="1.4 (86a8ad7, 2024-10-11)" xml:space="preserve" xmlns:inkscape="http://www.inkscape.org/namespaces/inkscape" xmlns:sodipodi="http://sodipodi.sourceforge.net/DTD/sodipodi-0.dtd" xmlns="http://www.w3.org/2000/svg" xmlns:svg="http://www.w3.org/2000/svg"><path d="M881.319 53.314 C 874.019 55.515,867.301 61.152,863.955 67.884 C 861.022 73.786,860.800 80.500,860.286 178.750 L 859.739 283.333 725.596 283.333 L 591.453 283.333 591.976 206.250 C 592.456 135.716,592.255 128.719,589.617 123.897 C 583.869 113.394,570.643 106.904,559.316 109.029 C 551.129 110.565,540.854 120.612,538.495 129.389 C 537.159 134.359,536.762 232.336,537.072 481.350 L 537.500 826.422 540.987 831.128 C 547.715 840.208,554.820 843.699,565.109 842.980 C 575.749 842.236,583.441 837.679,587.942 829.452 C 590.576 824.638,590.908 814.586,591.667 716.667 L 592.500 609.167 726.225 608.740 L 859.951 608.314 860.392 768.870 L 860.833 929.427 865.636 935.724 C 878.515 952.607,905.715 949.322,913.020 930.000 C 913.982 927.455,915.072 760.711,915.820 501.501 C 917.032 81.685,917.010 77.091,913.764 69.835 C 909.833 61.044,905.699 57.115,897.194 54.081 C 889.973 51.506,887.684 51.395,881.319 53.314 M90.668 149.842 C 81.139 154.170,76.153 161.783,75.353 173.224 C 74.606 183.922,78.456 191.309,88.203 197.877 C 93.802 201.651,94.091 201.667,155.981 201.667 C 190.290 201.667,218.545 202.328,219.049 203.143 C 221.022 206.335,208.877 321.708,200.607 378.333 C 198.264 394.375,195.992 410.125,195.558 413.333 C 193.077 431.668,185.456 474.442,178.188 510.833 C 153.691 633.481,121.017 741.452,77.723 842.816 C 71.154 858.195,68.335 866.958,68.340 871.983 C 68.355 889.455,85.751 902.745,102.539 898.110 C 113.201 895.166,118.442 888.077,129.805 861.234 C 182.171 737.530,223.027 591.782,246.251 445.833 L 247.577 437.500 327.772 437.067 L 407.966 436.635 407.279 451.234 C 402.945 543.211,394.806 618.484,379.198 710.914 C 372.076 753.090,362.229 801.879,357.943 816.227 L 355.833 823.288 321.667 796.445 C 302.875 781.681,285.764 768.941,283.642 768.134 C 267.524 762.004,249.030 773.521,247.070 790.908 C 245.387 805.840,247.298 807.936,300.699 849.736 C 365.344 900.337,360.054 896.649,369.398 897.632 C 379.047 898.647,388.566 894.001,394.315 885.470 C 398.483 879.285,409.147 842.107,417.503 804.629 C 442.812 691.115,463.333 520.018,463.333 422.518 C 463.333 406.205,462.846 402.933,459.458 396.512 C 457.043 391.933,453.120 387.765,449.042 385.444 L 442.500 381.722 349.357 381.694 L 256.214 381.667 257.325 373.750 C 257.936 369.396,260.238 350.833,262.441 332.500 C 266.119 301.883,268.369 280.332,273.835 223.333 L 275.833 202.500 378.333 201.667 C 456.590 201.030,481.704 200.335,484.516 198.728 C 489.817 195.696,496.469 186.404,497.683 180.336 C 500.124 168.130,492.317 153.857,480.496 148.918 C 476.076 147.071,441.170 146.673,286.304 146.703 C 105.783 146.738,97.200 146.876,90.668 149.842 M860.000 445.833 L 860.000 553.333 725.833 553.333 L 591.667 553.333 591.667 446.944 C 591.667 388.431,592.167 340.056,592.778 339.444 C 593.389 338.833,653.764 338.333,726.944 338.333 L 860.000 338.333 860.000 445.833 " stroke="none" fill-rule="evenodd" fill="black"></path></svg>