<svg width="1000" height="1000" viewBox="0 0 1000 1000" version="1.1" id="svg5" sodipodi:docname="чнТ.svg" inkscape:version="1.3 (0e150ed6c4, 2023-07-21)" xml:space="preserve" xmlns:inkscape="http://www.inkscape.org/namespaces/inkscape" xmlns:sodipodi="http://sodipodi.sourceforge.net/DTD/sodipodi-0.dtd" xmlns="http://www.w3.org/2000/svg" xmlns:svg="http://www.w3.org/2000/svg"><path d="M733.203 87.123 C 730.110 89.207,725.874 93.443,723.790 96.536 C 720.052 102.082,720.000 102.866,720.000 153.308 C 720.000 181.440,719.504 227.079,718.898 254.729 L 717.796 305.000 497.047 305.000 L 276.298 305.000 276.899 231.250 C 277.570 148.933,277.899 151.590,265.897 142.436 C 250.644 130.802,228.470 138.887,223.500 157.895 C 222.459 161.880,221.709 285.143,221.445 495.955 L 221.030 827.742 224.765 833.787 C 235.821 851.675,260.841 851.611,271.999 833.666 L 275.833 827.500 276.310 724.583 L 276.787 621.667 497.535 621.667 L 718.282 621.667 718.725 775.712 C 719.165 929.060,719.182 929.778,722.653 934.462 C 724.571 937.049,728.696 940.921,731.820 943.064 C 736.562 946.318,739.087 946.851,747.106 946.290 C 758.799 945.471,764.502 941.718,769.456 931.580 L 773.079 924.167 774.150 515.000 L 775.221 105.833 771.360 98.347 C 766.077 88.101,758.500 83.333,747.500 83.333 C 741.238 83.333,737.263 84.387,733.203 87.123 M718.333 462.500 L 718.333 565.000 497.500 565.000 L 276.667 565.000 276.667 463.611 C 276.667 407.847,277.167 361.722,277.778 361.111 C 278.389 360.500,377.764 360.000,498.611 360.000 L 718.333 360.000 718.333 462.500 " stroke="none" fill-rule="evenodd" fill="black"></path></svg>