<svg width="1000" height="1000" viewBox="0 0 1000 1000" version="1.1" id="svg5" xmlns="http://www.w3.org/2000/svg" xmlns:svg="http://www.w3.org/2000/svg"><path d="M67.249 121.547 C 47.391 130.564,46.086 156.886,64.869 169.544 L 70.493 173.333 500.000 173.333 L 929.507 173.333 935.131 169.544 C 944.877 162.975,948.728 155.588,947.980 144.891 C 947.180 133.449,942.194 125.837,932.665 121.509 C 926.060 118.509,911.715 118.407,500.000 118.407 C 86.419 118.407,73.968 118.497,67.249 121.547 M200.833 300.679 C 194.700 303.414,189.142 309.284,186.778 315.525 C 185.545 318.778,185.000 402.760,185.000 589.329 C 185.000 813.968,185.379 859.347,187.293 863.928 C 190.561 871.751,200.854 879.674,209.415 880.958 C 214.907 881.781,218.268 881.189,224.091 878.370 C 235.669 872.765,238.964 866.885,239.979 850.020 L 240.833 835.833 500.000 835.833 L 759.167 835.833 760.021 850.020 C 761.036 866.885,764.331 872.765,775.909 878.370 C 781.768 881.206,785.080 881.783,790.678 880.944 C 800.035 879.541,810.925 870.442,813.370 861.986 C 814.607 857.707,814.999 773.514,814.658 585.539 C 814.167 315.522,814.163 315.239,810.730 310.642 C 808.840 308.110,805.223 304.493,802.692 302.603 L 798.089 299.167 501.961 298.808 C 257.713 298.512,204.957 298.840,200.833 300.679 M471.667 446.678 L 471.667 540.023 356.250 539.595 L 240.833 539.167 240.400 448.333 C 240.162 398.375,240.326 356.563,240.765 355.417 C 241.392 353.778,266.109 353.333,356.614 353.333 L 471.667 353.333 471.667 446.678 M759.167 446.667 L 759.167 539.167 643.750 539.595 L 528.333 540.023 528.333 446.667 L 528.333 353.311 643.750 353.739 L 759.167 354.167 759.167 446.667 M471.667 687.500 L 471.667 780.000 355.833 780.000 L 240.000 780.000 240.000 687.500 L 240.000 595.000 355.833 595.000 L 471.667 595.000 471.667 687.500 M760.000 687.500 L 760.000 780.000 644.167 780.000 L 528.333 780.000 528.333 687.500 L 528.333 595.000 644.167 595.000 L 760.000 595.000 760.000 687.500 " stroke="none" fill-rule="evenodd" fill="#000000"></path></svg>