<svg width="1000" height="1000" viewBox="0 0 1000 1000" version="1.1" id="svg5" sodipodi:docname="็บ.svg" inkscape:version="1.3 (0e150ed6c4, 2023-07-21)" xmlns:inkscape="http://www.inkscape.org/namespaces/inkscape" xmlns:sodipodi="http://sodipodi.sourceforge.net/DTD/sodipodi-0.dtd" xmlns="http://www.w3.org/2000/svg" xmlns:svg="http://www.w3.org/2000/svg"><path d="M248.334 55.206 C 242.897 57.374,237.035 62.926,233.592 69.167 C 231.181 73.536,230.770 82.519,230.329 140.417 L 229.824 206.667 159.747 206.667 C 97.970 206.667,88.981 206.994,83.853 209.427 C 76.034 213.138,70.146 222.385,69.665 231.711 C 69.453 235.812,69.442 359.618,69.640 506.837 L 70.000 774.507 73.750 780.017 C 81.104 790.822,91.864 795.614,103.204 793.135 C 111.325 791.360,116.932 786.750,121.250 778.299 L 125.000 770.960 125.000 516.314 L 125.000 261.667 177.480 261.667 L 229.960 261.667 230.397 597.083 L 230.833 932.500 234.667 938.666 C 240.076 947.365,248.362 952.051,258.333 952.051 C 268.304 952.051,276.590 947.365,281.999 938.666 L 285.833 932.500 286.270 597.083 L 286.707 261.667 339.187 261.667 L 391.667 261.667 391.667 483.611 C 391.667 605.681,391.104 705.041,390.417 704.413 C 389.729 703.785,380.542 690.347,370.000 674.552 C 351.996 647.576,350.350 645.636,342.862 642.586 C 335.798 639.707,333.996 639.576,327.029 641.431 C 312.701 645.244,303.216 659.136,305.743 672.606 C 306.533 676.814,384.278 799.005,397.985 817.581 C 403.257 824.726,412.728 828.816,421.951 827.929 C 431.181 827.043,437.299 823.271,442.930 814.997 L 446.694 809.466 446.264 516.522 C 445.833 223.582,445.833 223.577,442.397 218.975 C 440.507 216.444,436.890 212.826,434.360 210.936 C 429.905 207.609,427.495 207.485,358.213 207.032 L 286.667 206.564 286.657 143.699 C 286.652 105.598,285.970 78.392,284.927 74.635 C 280.440 58.481,263.148 49.299,248.334 55.206 M698.373 60.309 C 695.186 62.474,690.874 66.777,688.790 69.869 L 685.000 75.493 685.000 156.080 L 685.000 236.667 613.750 236.703 C 547.871 236.737,541.985 236.974,535.668 239.842 C 526.139 244.170,521.153 251.783,520.353 263.224 C 519.634 273.512,523.124 280.616,532.203 287.347 C 536.766 290.729,539.112 290.858,610.537 291.667 L 684.167 292.500 684.167 434.167 L 684.167 575.833 589.167 576.667 C 516.957 577.300,493.283 578.005,490.484 579.606 C 488.459 580.764,484.784 584.358,482.316 587.593 C 472.059 601.040,476.846 620.755,492.169 628.173 C 499.231 631.592,501.375 631.667,592.193 631.667 L 685.000 631.667 685.000 783.416 C 685.000 949.751,684.412 940.001,694.989 948.902 C 700.911 953.885,709.166 955.840,717.599 954.258 C 725.455 952.784,736.150 942.961,738.291 935.253 C 739.375 931.349,739.985 875.835,739.991 780.417 L 740.000 631.667 832.147 631.667 L 924.294 631.667 931.717 627.917 C 951.285 618.031,952.203 593.085,933.464 580.456 L 927.840 576.667 833.920 576.667 L 740.000 576.667 740.000 434.167 L 740.000 291.667 811.856 291.667 C 881.246 291.667,883.922 291.549,889.802 288.245 C 898.656 283.268,903.697 275.067,903.814 265.450 C 903.932 255.683,900.256 248.303,892.217 242.169 L 886.097 237.500 813.049 237.017 L 740.000 236.534 740.000 157.960 C 740.000 81.714,739.897 79.173,736.524 72.205 C 731.749 62.342,724.874 57.819,713.442 57.020 C 705.773 56.484,703.164 57.053,698.373 60.309 " stroke="none" fill-rule="evenodd" fill="#000000"></path></svg>