<svg width="1000" height="1000" viewBox="0 0 1000 1000" version="1.1" id="svg5" sodipodi:docname="羊.svg" inkscape:version="1.3 (0e150ed6c4, 2023-07-21)" xmlns:inkscape="http://www.inkscape.org/namespaces/inkscape" xmlns:sodipodi="http://sodipodi.sourceforge.net/DTD/sodipodi-0.dtd" xmlns="http://www.w3.org/2000/svg" xmlns:svg="http://www.w3.org/2000/svg"><path d="M786.679 15.988 C 777.811 19.834,773.612 24.604,766.279 39.167 C 739.649 92.051,712.692 133.795,685.125 164.841 C 644.028 211.123,579.358 249.825,497.821 276.933 C 473.271 285.095,466.467 290.028,463.242 302.006 C 459.516 315.842,468.472 330.744,483.157 335.144 C 489.889 337.161,491.466 336.911,509.740 330.934 C 579.141 308.232,644.856 274.172,685.833 239.664 C 734.863 198.377,769.994 151.301,811.502 71.267 C 824.014 47.141,825.372 41.439,821.060 31.119 C 818.162 24.182,809.977 17.280,802.032 15.073 C 794.219 12.904,793.724 12.933,786.679 15.988 M176.667 31.203 C 166.817 34.904,158.333 46.879,158.333 57.081 C 158.333 60.132,159.708 65.325,161.388 68.620 C 165.919 77.507,299.177 214.387,305.415 216.562 C 308.210 217.536,313.035 218.333,316.136 218.333 C 334.943 218.333,348.339 198.539,341.160 181.358 C 337.699 173.074,203.110 34.162,196.217 31.760 C 190.896 29.905,180.880 29.619,176.667 31.203 M391.619 33.488 C 384.440 37.653,378.944 45.455,377.466 53.579 C 375.287 65.554,378.942 70.087,449.854 143.333 C 486.683 181.375,519.208 213.813,522.132 215.417 C 544.589 227.737,571.108 201.237,558.750 178.825 C 555.070 172.151,424.352 37.240,417.541 33.086 C 410.786 28.967,399.099 29.149,391.619 33.488 M275.833 238.603 C 274.000 239.613,270.089 242.711,267.143 245.489 C 261.276 251.019,261.169 251.399,254.141 291.667 C 248.367 324.753,235.274 376.931,224.448 410.000 C 186.603 525.601,133.689 609.236,68.025 657.240 C 62.814 661.050,57.002 666.894,55.109 670.227 C 48.286 682.240,51.997 698.614,63.177 705.830 C 76.492 714.423,85.568 712.641,106.001 697.422 C 122.451 685.170,159.125 648.770,173.932 630.000 C 212.195 581.495,245.971 516.978,271.221 444.167 L 277.578 425.833 357.829 425.401 L 438.079 424.968 433.184 443.734 C 411.445 527.083,370.264 614.892,321.343 682.213 C 289.523 726.002,251.420 766.356,210.604 799.494 C 184.264 820.880,180.592 825.976,182.070 839.092 C 184.045 856.615,202.523 867.995,218.893 861.771 C 221.154 860.911,232.604 852.494,244.337 843.066 C 361.240 749.129,447.779 609.505,488.992 448.333 L 494.745 425.833 589.039 425.403 C 643.150 425.156,683.333 425.603,683.333 426.452 C 683.333 427.265,679.275 443.959,674.314 463.549 C 631.719 631.760,551.071 766.215,442.052 850.771 C 428.805 861.045,425.000 867.091,425.000 877.867 C 425.000 897.512,446.804 911.429,463.740 902.594 C 481.408 893.377,541.707 836.733,568.929 803.781 C 644.567 712.221,702.350 589.983,732.619 457.500 C 735.760 443.750,738.720 430.813,739.197 428.750 L 740.064 425.000 814.198 425.000 C 854.973 425.000,888.333 425.648,888.333 426.439 C 888.333 429.179,878.206 484.251,874.039 504.167 C 840.997 662.111,783.125 804.071,714.569 895.346 C 706.712 905.805,697.033 917.802,693.059 922.005 L 685.833 929.646 625.246 902.316 C 591.923 887.284,561.923 874.571,558.579 874.065 C 546.313 872.208,531.588 884.006,529.008 897.758 C 527.535 905.612,532.272 917.377,538.899 922.321 C 541.796 924.483,576.278 940.595,615.525 958.126 C 688.942 990.920,693.387 992.432,704.251 988.301 C 719.038 982.679,775.141 909.566,805.816 855.941 C 865.569 751.485,914.644 604.085,939.860 453.333 C 950.299 390.927,949.609 382.830,933.055 373.417 L 926.943 369.942 610.760 369.931 L 294.577 369.919 295.537 364.543 C 296.065 361.586,299.204 346.792,302.513 331.667 C 311.307 291.474,315.140 264.814,313.157 257.632 C 311.204 250.560,304.651 242.434,298.218 239.107 C 292.691 236.249,280.603 235.977,275.833 238.603 " stroke="none" fill-rule="evenodd" fill="black"></path></svg>