<svg width="1000" height="1000" viewBox="0 0 1000 1000" version="1.1" id="svg5" sodipodi:docname="翰.svg" inkscape:version="1.3 (0e150ed6c4, 2023-07-21)" xmlns:inkscape="http://www.inkscape.org/namespaces/inkscape" xmlns:sodipodi="http://sodipodi.sourceforge.net/DTD/sodipodi-0.dtd" xmlns="http://www.w3.org/2000/svg" xmlns:svg="http://www.w3.org/2000/svg"><path d="M701.610 57.083 C 696.715 59.554,692.908 63.107,690.451 67.500 C 686.765 74.088,686.721 74.944,686.694 140.417 L 686.667 206.667 600.246 206.667 L 513.826 206.667 508.316 210.417 C 505.286 212.479,501.238 216.284,499.320 218.872 L 495.833 223.578 495.833 498.872 C 495.833 759.557,495.991 774.454,498.796 779.590 C 500.426 782.574,504.726 786.977,508.351 789.376 C 514.024 793.130,516.292 793.641,524.630 793.037 C 535.919 792.221,541.366 788.839,546.971 779.167 L 550.833 772.500 551.276 517.083 L 551.719 261.667 619.193 261.667 L 686.667 261.667 686.667 595.887 C 686.667 961.316,685.970 936.577,696.516 945.451 C 707.376 954.589,720.967 954.581,731.842 945.430 C 742.360 936.580,741.667 961.234,741.667 595.887 L 741.667 261.667 809.167 261.667 L 876.667 261.667 876.667 490.333 C 876.667 616.639,876.030 718.291,875.245 717.417 C 874.463 716.546,863.499 702.333,850.880 685.833 C 823.342 649.824,817.765 643.796,809.775 641.402 C 785.627 634.167,765.456 662.831,780.125 683.537 C 794.386 703.669,884.092 818.676,888.286 822.204 C 901.236 833.101,920.961 828.576,929.643 812.718 C 932.304 807.858,932.534 788.092,932.998 525.000 C 933.272 369.625,933.035 238.600,932.472 233.834 C 931.357 224.403,926.825 216.444,919.463 210.987 C 914.851 207.569,913.050 207.491,828.213 207.040 L 741.667 206.580 741.667 141.052 C 741.667 75.865,741.647 75.487,737.829 68.267 C 733.493 60.068,722.863 53.333,714.258 53.333 C 711.388 53.333,705.696 55.021,701.610 57.083 M233.981 59.841 C 231.129 61.580,227.004 65.515,224.814 68.585 L 220.833 74.167 220.371 155.417 L 219.908 236.667 164.067 236.667 C 101.839 236.667,100.915 236.807,92.014 247.606 C 81.554 260.295,84.336 278.502,98.035 287.020 C 104.038 290.753,105.372 290.851,161.667 291.667 L 219.167 292.500 219.167 434.167 L 219.167 575.833 144.167 576.667 C 61.034 577.590,62.247 577.426,55.291 588.710 C 48.006 600.527,48.627 611.422,57.140 621.117 C 66.499 631.777,65.562 631.667,146.613 631.667 L 220.000 631.667 220.000 781.974 C 220.000 931.170,220.026 932.334,223.493 939.497 C 227.791 948.375,238.151 955.013,247.646 954.973 C 256.534 954.935,266.622 948.862,271.189 940.799 L 274.945 934.167 274.973 782.917 L 275.000 631.667 348.225 631.667 C 395.909 631.667,423.086 631.048,426.142 629.894 C 436.300 626.056,445.043 613.936,444.963 603.804 C 444.906 596.519,439.253 585.882,433.111 581.502 L 427.500 577.500 351.667 576.667 L 275.833 575.833 275.833 434.167 L 275.833 292.500 334.167 291.667 C 391.387 290.849,392.601 290.762,397.774 287.072 C 403.733 282.821,410.000 271.210,410.000 264.420 C 410.000 254.334,401.229 242.251,391.142 238.439 C 388.168 237.316,366.058 236.667,330.771 236.667 L 275.092 236.667 274.629 155.121 C 274.177 75.359,274.090 73.472,270.680 68.871 C 261.799 56.888,245.429 52.860,233.981 59.841 " stroke="none" fill-rule="evenodd" fill="#000000"></path></svg>