<svg width="1000" height="1000" viewBox="0 0 1000 1000" version="1.1" id="svg5" sodipodi:docname="肉.svg" inkscape:version="1.3 (0e150ed6c4, 2023-07-21)" xmlns:inkscape="http://www.inkscape.org/namespaces/inkscape" xmlns:sodipodi="http://sodipodi.sourceforge.net/DTD/sodipodi-0.dtd" xmlns="http://www.w3.org/2000/svg" xmlns:svg="http://www.w3.org/2000/svg"><path d="M452.998 35.072 C 449.605 36.863,444.411 41.893,441.455 46.248 C 427.144 67.332,381.275 120.171,333.295 170.844 C 258.023 250.339,184.230 313.724,120.833 353.340 C 95.324 369.281,91.667 373.627,91.667 388.001 C 91.667 404.804,108.288 417.932,124.181 413.682 C 134.869 410.823,179.150 382.192,209.167 358.732 L 220.833 349.614 221.348 432.724 C 222.326 590.868,214.016 684.412,192.476 757.732 C 173.733 821.529,149.121 864.402,108.642 903.765 C 90.880 921.037,87.199 927.367,88.884 937.749 C 91.892 956.285,111.283 966.751,127.958 958.838 C 135.822 955.106,164.861 926.175,178.716 908.268 C 207.864 870.597,233.210 818.055,247.628 765.417 L 252.308 748.333 347.820 748.333 L 443.333 748.333 443.343 849.583 C 443.349 917.939,443.946 952.974,445.181 957.422 C 449.040 971.320,465.092 980.831,478.108 976.931 C 486.214 974.503,492.576 969.546,496.283 962.770 C 498.915 957.960,499.208 948.369,499.643 852.917 L 500.119 748.333 582.497 748.333 L 664.874 748.333 664.738 812.083 C 664.612 870.928,664.869 877.025,668.077 891.326 C 675.971 926.518,695.010 945.838,730.826 954.998 C 752.294 960.489,780.138 961.922,854.463 961.362 C 922.432 960.851,924.912 960.720,929.360 957.397 C 931.890 955.507,935.424 952.000,937.213 949.605 C 940.978 944.562,942.695 931.062,940.342 925.000 C 938.177 919.420,847.387 794.959,842.783 791.260 C 823.896 776.082,794.351 794.635,799.009 818.750 C 799.648 822.059,811.392 839.684,829.194 864.051 C 845.221 885.988,858.333 904.550,858.333 905.301 C 858.333 907.182,789.638 906.943,769.167 904.991 C 737.853 902.005,728.566 898.442,723.799 887.586 C 721.002 881.217,720.814 865.836,720.494 616.667 C 720.307 471.375,719.694 349.875,719.131 346.667 C 717.979 340.108,712.124 334.988,770.833 391.867 C 783.667 404.300,795.967 415.428,798.166 416.595 C 803.705 419.534,816.722 419.252,822.897 416.059 C 834.202 410.213,839.952 397.202,836.651 384.941 C 834.161 375.693,843.955 385.487,661.667 209.965 C 581.458 132.734,508.190 61.960,498.847 52.689 C 489.505 43.418,479.755 34.930,477.180 33.825 C 470.252 30.852,459.985 31.382,452.998 35.072 M587.760 214.896 C 651.784 276.714,704.404 327.864,704.694 328.562 C 704.984 329.260,702.739 329.119,699.705 328.249 C 696.508 327.332,653.428 326.667,597.233 326.667 L 500.277 326.667 499.716 289.583 C 499.105 249.275,498.393 245.889,488.974 238.480 C 478.471 230.218,464.863 230.218,454.359 238.480 C 444.940 245.889,444.228 249.275,443.618 289.583 L 443.056 326.667 347.361 326.667 C 294.729 326.667,251.712 326.104,251.768 325.417 C 251.824 324.729,259.835 317.417,269.571 309.167 C 309.978 274.925,401.414 180.825,450.621 122.842 C 460.574 111.113,469.311 101.738,470.036 102.009 C 470.760 102.279,523.736 153.078,587.760 214.896 M443.333 446.667 L 443.333 510.000 359.738 510.000 L 276.143 510.000 277.238 482.234 C 277.841 466.962,278.333 438.462,278.333 418.900 L 278.333 383.333 360.833 383.333 L 443.333 383.333 443.333 446.667 M665.000 446.667 L 665.000 510.000 582.500 510.000 L 500.000 510.000 500.000 446.667 L 500.000 383.333 582.500 383.333 L 665.000 383.333 665.000 446.667 M443.333 629.167 L 443.333 693.333 353.125 693.333 L 262.917 693.333 263.918 688.328 C 266.882 673.505,275.000 586.906,275.000 570.104 L 275.000 565.000 359.167 565.000 L 443.333 565.000 443.333 629.167 M664.603 628.750 L 664.167 692.500 582.083 692.932 L 500.000 693.365 500.000 629.182 L 500.000 565.000 582.520 565.000 L 665.040 565.000 664.603 628.750 " stroke="none" fill-rule="evenodd" fill="black"></path></svg>