<svg width="1000" height="1000" viewBox="0 0 1000 1000" version="1.1" id="svg5" sodipodi:docname="能.svg" inkscape:version="1.3.2 (091e20e, 2023-11-25, custom)" xmlns:inkscape="http://www.inkscape.org/namespaces/inkscape" xmlns:sodipodi="http://sodipodi.sourceforge.net/DTD/sodipodi-0.dtd" xmlns="http://www.w3.org/2000/svg" xmlns:svg="http://www.w3.org/2000/svg"><path d="M695.833 51.589 C 688.102 53.391,683.876 56.178,678.818 62.809 L 674.167 68.907 673.733 309.453 L 673.300 550.000 612.529 550.000 L 551.758 550.000 551.296 410.294 L 550.833 270.587 546.695 264.549 C 532.358 243.629,502.355 249.466,496.596 274.296 C 494.605 282.881,494.605 573.786,496.596 582.371 C 498.682 591.366,503.056 596.833,511.701 601.250 C 518.994 604.977,519.510 605.000,595.041 605.000 L 671.043 605.000 668.989 622.917 C 659.192 708.384,632.422 786.875,596.086 836.667 C 579.220 859.779,552.945 879.949,529.384 887.870 C 516.810 892.097,513.851 892.426,488.333 892.443 C 463.002 892.460,460.144 892.151,452.097 888.531 C 441.923 883.955,432.768 874.513,428.223 863.910 C 423.543 852.991,418.715 827.265,416.733 802.675 C 415.651 789.258,415.000 698.707,415.000 561.671 L 415.000 342.160 411.250 336.650 C 409.188 333.619,405.383 329.571,402.797 327.653 C 398.239 324.274,396.064 324.152,332.380 323.695 C 296.238 323.435,266.667 322.653,266.667 321.957 C 266.667 321.262,268.872 300.849,271.568 276.596 C 274.264 252.343,276.932 226.875,277.496 220.000 C 278.060 213.125,278.863 205.836,279.280 203.801 L 280.038 200.103 402.936 199.635 C 515.763 199.205,526.265 198.930,531.103 196.283 C 537.879 192.576,542.836 186.214,545.265 178.108 C 549.164 165.092,539.653 149.040,525.755 145.181 C 516.727 142.675,105.218 142.597,96.204 145.100 C 77.107 150.404,69.141 172.319,80.769 187.564 C 89.693 199.264,88.692 199.110,159.583 199.674 L 223.333 200.182 223.333 204.307 C 223.333 211.108,215.336 284.244,209.043 335.000 C 178.658 580.038,133.885 751.804,62.682 896.497 C 57.077 907.885,53.333 917.687,53.333 920.971 C 53.333 936.444,65.439 948.611,80.833 948.611 C 95.942 948.611,101.653 942.597,116.728 910.808 C 184.350 768.215,226.395 614.377,256.336 400.000 L 259.246 379.167 309.554 378.726 L 359.861 378.285 360.446 597.059 C 360.964 790.626,361.348 817.754,363.779 832.500 C 374.705 898.759,399.321 932.263,445.833 944.178 C 466.963 949.591,495.599 950.166,719.167 949.664 C 939.326 949.170,940.873 949.143,946.661 945.743 C 949.866 943.860,954.160 939.839,956.204 936.807 C 964.240 924.882,964.558 926.351,934.229 835.305 C 909.465 760.962,905.654 750.765,900.828 745.939 C 885.834 730.946,860.567 737.797,854.968 758.374 C 852.973 765.706,853.288 766.887,873.367 827.500 C 884.602 861.417,894.146 890.104,894.576 891.250 C 895.197 892.906,867.111 893.333,757.600 893.333 L 619.844 893.333 630.197 881.304 C 679.199 824.370,712.499 731.480,725.815 614.583 L 726.907 605.000 789.287 605.000 L 851.667 605.000 851.667 623.087 C 851.667 639.140,852.093 641.806,855.456 646.797 C 862.025 656.544,869.412 660.394,880.109 659.647 C 891.551 658.847,899.163 653.861,903.491 644.332 C 906.456 637.803,906.593 629.437,906.593 455.833 C 906.593 282.229,906.456 273.863,903.491 267.335 C 899.163 257.806,891.551 252.820,880.109 252.020 C 869.820 251.301,862.715 254.791,855.987 263.872 C 852.530 268.536,852.493 269.782,851.667 408.872 L 850.833 549.167 790.000 549.167 L 729.167 549.167 728.333 309.167 C 727.717 131.679,726.997 68.298,725.570 65.833 C 719.532 55.408,706.413 49.123,695.833 51.589 " stroke="none" fill-rule="evenodd" fill="black"></path></svg>