<svg width="1000" height="1000" viewBox="0 0 1000 1000" version="1.1" id="svg5" sodipodi:docname="膠.svg" inkscape:version="1.3 (0e150ed6c4, 2023-07-21)" xml:space="preserve" xmlns:inkscape="http://www.inkscape.org/namespaces/inkscape" xmlns:sodipodi="http://sodipodi.sourceforge.net/DTD/sodipodi-0.dtd" xmlns="http://www.w3.org/2000/svg" xmlns:svg="http://www.w3.org/2000/svg"><path d="M169.845 122.208 C 150.769 132.272,149.903 157.211,168.203 169.544 L 173.826 173.333 432.746 173.333 C 575.153 173.333,691.648 173.896,691.625 174.583 C 691.534 177.324,601.121 226.847,535.006 260.370 C 509.801 273.150,488.189 284.428,486.980 285.432 C 479.650 291.515,479.877 284.016,479.969 516.819 C 480.052 726.490,479.917 736.866,477.112 735.990 C 460.908 730.934,402.136 716.667,397.510 716.667 C 390.339 716.667,379.566 721.849,375.902 727.061 C 367.730 738.688,369.398 754.400,379.801 763.775 C 385.338 768.765,390.791 770.495,446.192 784.839 C 504.007 799.807,506.862 800.379,513.948 798.395 C 521.996 796.141,530.416 788.608,533.231 781.142 C 534.447 777.917,535.000 705.425,535.000 549.297 L 535.000 322.145 565.417 306.669 C 634.049 271.748,704.221 232.653,769.768 192.817 C 811.704 167.331,817.605 162.591,819.610 152.788 C 822.418 139.058,817.337 128.405,804.966 122.083 L 797.627 118.333 487.409 118.333 L 177.191 118.333 169.845 122.208 M792.192 353.503 C 783.000 356.163,777.806 363.513,765.071 391.887 C 726.572 477.665,702.089 520.812,666.742 565.181 C 651.150 584.751,648.761 590.050,650.551 601.081 C 653.545 619.534,676.727 629.029,692.294 618.179 C 705.724 608.819,741.630 558.712,765.859 515.517 C 784.903 481.566,825.347 395.350,827.664 383.765 C 829.812 373.022,822.277 359.965,810.964 354.827 C 803.497 351.436,800.153 351.200,792.192 353.503 M203.965 379.061 C 196.127 382.472,189.636 392.034,188.725 401.508 C 187.984 409.220,189.007 411.567,214.299 460.187 C 228.790 488.043,250.539 531.083,262.631 555.833 C 287.949 607.656,291.116 611.667,306.722 611.667 C 321.956 611.667,333.843 600.186,334.021 585.302 C 334.099 578.798,331.538 572.092,318.631 545.000 C 298.563 502.874,242.484 394.085,237.228 387.082 C 234.991 384.101,230.987 380.539,228.330 379.165 C 222.377 376.087,210.911 376.038,203.965 379.061 M89.952 847.161 C 81.703 851.524,75.000 862.135,75.000 870.833 C 75.000 879.532,81.703 890.143,89.952 894.505 L 97.229 898.353 504.994 897.927 L 912.760 897.500 919.057 892.697 C 934.168 881.171,933.509 859.412,917.692 847.603 L 913.089 844.167 505.159 843.740 L 97.229 843.313 89.952 847.161 " stroke="none" fill-rule="evenodd" fill="black"></path></svg>