<svg width="1000" height="1000" viewBox="0 0 1000 1000" version="1.1" id="svg5" sodipodi:docname="茶.svg" inkscape:version="1.3 (0e150ed6c4, 2023-07-21)" xmlns:inkscape="http://www.inkscape.org/namespaces/inkscape" xmlns:sodipodi="http://sodipodi.sourceforge.net/DTD/sodipodi-0.dtd" xmlns="http://www.w3.org/2000/svg" xmlns:svg="http://www.w3.org/2000/svg"><path d="M225.632 75.728 C 217.849 79.115,211.298 88.708,210.431 97.987 C 209.777 104.976,213.278 115.490,242.455 194.167 C 260.472 242.750,276.477 284.672,278.023 287.326 C 286.416 301.738,305.359 304.828,318.341 293.904 C 325.084 288.231,328.333 281.637,328.333 273.631 C 328.333 266.688,264.927 93.191,259.189 84.434 C 252.877 74.801,237.141 70.719,225.632 75.728 M408.051 76.711 C 399.771 81.085,394.618 88.809,393.762 98.130 C 393.138 104.927,396.979 116.387,426.407 195.525 C 444.751 244.856,460.949 287.033,462.403 289.252 C 470.227 301.193,490.038 304.205,501.119 295.139 C 507.305 290.078,511.654 281.283,511.660 273.822 C 511.665 268.807,502.369 241.745,479.029 178.822 C 461.078 130.428,444.877 88.373,443.027 85.365 C 436.225 74.304,420.141 70.325,408.051 76.711 M749.084 75.678 C 739.953 79.655,735.999 86.727,725.133 118.515 C 675.500 263.709,630.690 329.405,545.229 382.269 C 537.159 387.260,525.200 394.042,518.653 397.339 L 506.750 403.333 294.242 403.333 C 55.856 403.333,72.615 402.451,63.163 415.499 C 53.929 428.247,57.546 445.116,71.536 454.544 L 77.160 458.333 192.169 458.333 L 307.178 458.333 306.037 485.417 C 304.067 532.197,298.036 590.810,292.533 616.667 C 291.265 622.625,289.753 630.500,289.174 634.167 C 287.053 647.591,276.686 686.345,270.189 705.136 C 250.542 761.958,226.436 801.816,190.517 836.871 C 168.020 858.827,145.158 874.369,102.500 896.705 C 74.816 911.201,70.000 916.147,70.000 930.082 C 70.000 948.485,87.666 962.087,104.434 956.594 C 114.778 953.205,159.321 928.922,179.167 915.853 C 251.441 868.257,300.243 798.473,329.282 701.195 C 333.395 687.416,336.337 680.156,337.610 680.645 C 338.692 681.060,374.595 710.898,417.394 746.950 C 460.193 783.003,497.589 813.813,500.496 815.417 C 506.354 818.649,518.455 819.277,523.443 816.608 C 530.440 812.863,526.202 818.922,511.920 833.082 C 487.045 857.745,466.288 871.999,419.093 896.827 C 393.255 910.419,389.672 914.119,388.687 928.224 C 387.939 938.922,391.789 946.309,401.536 952.877 C 411.492 959.586,420.018 958.259,442.795 946.452 C 502.698 915.402,533.684 892.379,567.614 853.714 C 600.485 816.256,630.015 759.843,646.771 702.500 C 649.718 692.417,652.423 683.830,652.784 683.419 C 653.144 683.008,714.728 743.884,789.636 818.699 C 911.428 940.339,926.585 954.924,932.941 956.601 C 943.436 959.368,950.952 957.297,959.223 949.360 C 967.614 941.307,969.849 933.407,966.751 922.756 C 965.005 916.757,944.854 895.931,815.661 766.614 L 666.587 617.395 669.877 594.947 C 673.906 567.454,678.015 521.479,679.627 485.833 L 680.833 459.167 810.242 458.333 C 936.191 457.522,939.756 457.412,943.576 454.197 C 950.347 448.497,953.256 444.371,955.054 437.917 C 958.472 425.648,951.689 412.122,939.298 406.494 C 932.834 403.558,924.636 403.404,772.500 403.359 L 612.500 403.312 620.833 396.402 C 635.549 384.199,670.664 347.917,681.137 334.093 C 718.913 284.231,748.247 223.241,779.166 130.273 C 788.078 103.474,788.635 100.912,786.843 94.932 C 781.724 77.845,764.395 69.009,749.084 75.678 M624.406 460.855 C 625.654 464.107,622.132 526.810,619.057 556.081 C 616.859 577.003,615.293 587.554,608.208 629.167 C 599.255 681.742,574.157 748.922,549.366 786.667 L 540.061 800.833 540.031 792.752 C 540.014 788.307,538.845 782.236,537.433 779.261 C 535.702 775.614,505.432 749.116,444.476 697.890 C 394.761 656.110,352.896 620.556,351.443 618.880 C 349.030 616.097,349.055 614.105,351.737 595.833 C 355.982 566.910,359.795 523.421,360.944 490.833 C 361.494 475.250,362.229 461.573,362.577 460.440 C 363.073 458.828,391.459 458.388,493.347 458.417 C 605.096 458.449,623.614 458.793,624.406 460.855 " stroke="none" fill-rule="evenodd" fill="black"></path></svg>