<svg width="1000" height="1000" viewBox="0 0 1000 1000" version="1.1" id="svg5" xmlns="http://www.w3.org/2000/svg" xmlns:svg="http://www.w3.org/2000/svg"><path d="M486.619 51.822 C 483.384 53.698,478.884 57.938,476.619 61.243 L 472.500 67.253 472.030 185.293 L 471.560 303.333 349.997 303.333 L 228.434 303.333 227.967 230.292 L 227.500 157.252 223.362 151.215 C 213.447 136.749,194.293 134.124,181.869 145.528 C 173.499 153.209,173.488 153.350,173.247 249.880 L 173.022 340.199 177.196 346.506 C 185.471 359.011,176.584 358.333,332.335 358.333 L 471.667 358.333 471.667 389.167 L 471.667 420.000 315.780 420.000 C 144.211 420.000,153.573 419.426,143.806 430.549 C 135.064 440.506,134.853 454.674,143.287 465.396 C 151.196 475.451,143.143 475.000,314.835 475.000 L 471.667 475.000 471.667 505.833 L 471.667 536.667 299.583 536.703 C 135.369 536.738,127.188 536.882,120.668 539.842 C 116.911 541.549,112.036 545.470,109.835 548.556 L 105.833 554.167 105.334 680.833 C 104.997 766.327,105.407 809.472,106.596 813.567 C 108.857 821.354,119.614 831.131,127.561 832.621 C 138.806 834.731,149.768 829.263,156.530 818.172 C 159.936 812.584,159.988 810.877,159.994 702.917 L 160.000 593.333 315.833 593.333 L 471.667 593.333 471.676 756.250 C 471.682 863.175,472.277 921.297,473.407 925.365 C 476.885 937.891,487.841 946.667,500.000 946.667 C 512.159 946.667,523.115 937.891,526.593 925.365 C 527.723 921.297,528.318 863.175,528.324 756.250 L 528.333 593.333 684.167 593.333 L 840.000 593.333 840.000 685.000 C 840.000 743.762,839.414 776.667,838.366 776.667 C 837.468 776.667,801.280 760.457,757.950 740.645 C 714.619 720.833,676.442 704.246,673.111 703.785 C 655.020 701.281,638.656 719.791,643.489 737.293 C 647.156 750.575,649.344 751.811,751.667 798.446 C 804.375 822.468,850.114 843.520,853.309 845.228 C 866.427 852.241,882.592 847.920,891.238 835.089 L 895.056 829.424 894.611 691.795 L 894.167 554.167 890.165 548.556 C 887.964 545.470,883.089 541.549,879.332 539.842 C 872.812 536.882,864.631 536.738,700.417 536.703 L 528.333 536.667 528.333 505.833 L 528.333 475.000 685.165 475.000 C 856.857 475.000,848.804 475.451,856.713 465.396 C 865.147 454.674,864.936 440.506,856.194 430.549 C 846.427 419.426,855.789 420.000,684.220 420.000 L 528.333 420.000 528.333 389.167 L 528.333 358.333 650.000 358.333 L 771.667 358.333 771.667 365.054 C 771.667 374.261,775.045 381.564,782.216 387.860 C 795.673 399.676,816.382 395.336,824.094 379.084 C 826.697 373.599,826.929 363.825,826.766 266.392 C 826.576 152.101,826.666 153.361,818.131 145.528 C 805.707 134.124,786.553 136.749,776.638 151.215 L 772.500 157.252 772.033 230.292 L 771.566 303.333 650.003 303.333 L 528.440 303.333 527.970 185.293 L 527.500 67.253 523.362 61.215 C 514.927 48.907,498.765 44.776,486.619 51.822 " stroke="none" fill-rule="evenodd" fill="#000000"></path></svg>