<svg width="1000" height="1000" viewBox="0 0 1000 1000" version="1.1" id="svg5" xmlns="http://www.w3.org/2000/svg" xmlns:svg="http://www.w3.org/2000/svg"><path d="M488.367 78.750 C 479.723 83.167,475.349 88.634,473.262 97.629 C 472.429 101.225,471.728 137.376,471.706 177.965 L 471.667 251.764 298.449 251.613 C 105.942 251.445,119.780 250.622,110.503 262.785 L 105.833 268.907 105.338 574.037 C 105.066 741.858,105.303 883.066,105.864 887.833 C 107.702 903.425,119.191 915.000,132.829 915.000 C 141.355 915.000,147.284 912.278,153.884 905.335 C 159.551 899.372,161.574 891.557,161.627 875.417 L 161.667 863.333 500.000 863.333 L 838.333 863.333 838.373 875.417 C 838.426 891.557,840.449 899.372,846.116 905.335 C 852.716 912.278,858.645 915.000,867.171 915.000 C 879.299 915.000,890.371 905.449,893.404 892.371 C 895.632 882.764,895.480 284.019,893.246 273.832 C 891.243 264.695,887.924 260.066,879.839 255.137 C 874.195 251.696,873.305 251.679,701.250 251.673 L 528.333 251.667 528.294 177.917 C 528.272 137.354,527.571 101.225,526.738 97.629 C 525.904 94.033,523.815 89.158,522.096 86.796 C 518.328 81.615,505.936 75.000,500.000 75.000 C 497.638 75.000,492.404 76.688,488.367 78.750 M471.667 417.500 L 471.667 528.333 316.667 528.333 L 161.667 528.333 161.667 417.500 L 161.667 306.667 316.667 306.667 L 471.667 306.667 471.667 417.500 M838.333 417.500 L 838.333 528.333 683.333 528.333 L 528.333 528.333 528.333 417.500 L 528.333 306.667 683.333 306.667 L 838.333 306.667 838.333 417.500 M471.667 695.833 L 471.667 806.667 316.667 806.667 L 161.667 806.667 161.667 695.833 L 161.667 585.000 316.667 585.000 L 471.667 585.000 471.667 695.833 M838.333 695.833 L 838.333 806.667 683.333 806.667 L 528.333 806.667 528.333 695.833 L 528.333 585.000 683.333 585.000 L 838.333 585.000 838.333 695.833 " stroke="none" fill-rule="evenodd" fill="black"></path></svg>