<svg width="1000" height="1000" viewBox="0 0 1000 1000" version="1.1" id="svg5" xmlns="http://www.w3.org/2000/svg" xmlns:svg="http://www.w3.org/2000/svg"><path d="M179.167 52.362 C 172.955 55.135,165.782 62.659,163.439 68.858 C 160.981 75.364,160.966 446.569,163.423 458.027 C 165.285 466.708,172.479 475.791,179.654 478.519 C 185.778 480.847,196.454 480.258,202.814 477.240 C 206.013 475.721,210.626 471.466,213.065 467.783 C 217.321 461.358,217.523 460.023,218.063 434.710 L 218.626 408.333 500.000 408.333 L 781.374 408.333 781.937 434.583 C 782.451 458.534,782.836 461.374,786.334 466.999 C 791.583 475.441,799.475 480.000,808.838 480.000 C 813.025 480.000,818.203 479.333,820.346 478.519 C 827.521 475.791,834.715 466.708,836.577 458.027 C 837.749 452.560,838.333 387.207,838.333 261.531 C 838.333 105.343,837.942 72.312,836.039 67.863 C 833.264 61.377,825.860 54.185,819.475 51.773 C 816.218 50.542,718.353 50.020,499.475 50.065 C 239.749 50.119,183.285 50.524,179.167 52.362 M781.667 154.167 L 781.667 201.667 500.000 201.667 L 218.333 201.667 218.333 154.167 L 218.333 106.667 500.000 106.667 L 781.667 106.667 781.667 154.167 M781.667 305.000 L 781.667 353.333 500.000 353.333 L 218.333 353.333 218.333 305.000 L 218.333 256.667 500.000 256.667 L 781.667 256.667 781.667 305.000 M125.611 519.477 C 119.514 520.684,108.546 531.391,106.620 538.014 C 105.379 542.283,104.985 603.100,105.332 736.667 L 105.833 929.167 109.667 935.333 C 120.865 953.340,145.802 953.340,156.999 935.333 C 160.480 929.735,160.886 926.823,161.400 903.750 L 161.966 878.333 500.000 878.333 L 838.034 878.333 838.600 903.750 C 839.114 926.823,839.520 929.735,843.001 935.333 C 854.198 953.340,879.135 953.340,890.333 935.333 L 894.167 929.167 894.167 733.260 C 894.167 514.204,895.282 533.803,882.247 523.861 L 876.093 519.167 502.630 518.970 C 297.225 518.861,127.567 519.090,125.611 519.477 M838.333 623.333 L 838.333 671.667 500.000 671.667 L 161.667 671.667 161.667 623.333 L 161.667 575.000 500.000 575.000 L 838.333 575.000 838.333 623.333 M838.333 775.000 L 838.333 823.333 500.000 823.333 L 161.667 823.333 161.667 775.000 L 161.667 726.667 500.000 726.667 L 838.333 726.667 838.333 775.000 " stroke="none" fill-rule="evenodd" fill="#000000"></path></svg>