<svg width="1000" height="1000" viewBox="0 0 1000 1000" version="1.1" id="svg5" inkscape:version="1.4 (86a8ad7, 2024-10-11)" sodipodi:docname="谷.svg" xmlns:inkscape="http://www.inkscape.org/namespaces/inkscape" xmlns:sodipodi="http://sodipodi.sourceforge.net/DTD/sodipodi-0.dtd" xmlns="http://www.w3.org/2000/svg" xmlns:svg="http://www.w3.org/2000/svg"><path d="M100.611 136.143 C 94.812 137.292,83.725 147.929,81.594 154.388 C 77.498 166.797,83.548 181.381,95.503 187.918 C 100.418 190.606,110.387 190.871,223.507 191.311 L 346.181 191.788 345.594 195.477 C 336.577 252.109,329.119 296.308,325.006 317.500 C 319.747 344.595,308.443 395.345,307.426 396.427 C 307.120 396.753,258.675 363.044,199.771 321.518 C 140.867 279.992,89.626 244.921,85.902 243.581 C 76.154 240.076,67.472 242.136,59.845 249.763 C 48.064 261.544,47.604 277.127,58.718 287.897 C 61.715 290.802,114.792 328.837,176.667 372.421 C 238.542 416.006,289.855 452.699,290.697 453.963 C 293.860 458.713,261.156 550.621,237.694 602.918 C 206.660 672.091,159.379 751.173,103.576 827.240 C 89.818 845.994,81.366 859.077,80.694 862.657 C 77.465 879.866,90.130 895.278,107.500 895.278 C 121.437 895.278,123.918 892.913,154.995 850.000 C 236.219 737.842,289.889 636.236,329.308 520.000 C 335.246 502.490,340.568 489.358,341.625 489.609 C 343.586 490.074,635.806 695.545,639.846 699.298 C 642.457 701.724,643.210 699.199,627.964 739.167 C 617.301 767.121,598.141 813.761,596.579 815.566 C 595.913 816.336,563.834 780.999,525.293 737.041 C 467.015 670.571,454.072 656.657,448.409 654.391 C 439.872 650.976,436.785 650.979,428.197 654.416 C 418.389 658.340,411.667 668.124,411.667 678.475 C 411.667 682.861,412.331 688.186,413.143 690.308 C 414.438 693.692,562.510 864.119,580.603 883.050 C 584.396 887.020,589.646 891.395,592.269 892.773 C 601.785 897.771,616.509 895.129,623.754 887.122 C 628.666 881.695,660.088 809.200,680.879 755.327 C 686.161 741.641,689.494 735.089,690.900 735.628 C 692.058 736.073,740.464 769.917,798.470 810.838 C 856.475 851.758,906.769 886.685,910.234 888.453 C 925.386 896.183,942.609 888.179,948.367 870.732 C 951.061 862.569,948.008 851.927,941.078 845.323 C 938.194 842.574,885.583 804.948,824.167 761.709 C 762.750 718.469,711.589 682.208,710.475 681.128 C 708.891 679.592,709.717 675.168,714.264 660.832 C 761.382 512.271,786.098 375.232,794.974 213.333 C 797.536 166.601,797.284 157.386,793.245 150.198 C 791.362 146.849,787.105 142.247,783.783 139.971 L 777.745 135.833 440.956 135.636 C 255.722 135.527,102.567 135.755,100.611 136.143 M739.357 215.417 C 734.324 320.367,717.145 437.904,692.282 537.500 C 680.920 583.015,662.332 645.000,660.045 645.000 C 659.000 645.000,361.387 436.212,356.804 432.263 C 356.421 431.934,359.596 416.852,363.859 398.749 C 373.054 359.703,379.932 326.201,386.699 287.500 C 391.233 261.569,401.619 195.878,401.652 192.917 C 401.660 192.229,477.903 191.667,571.082 191.667 L 740.497 191.667 739.357 215.417 " stroke="none" fill-rule="evenodd" fill="black"></path></svg>