<svg width="1000" height="1000" viewBox="0 0 1000 1000" version="1.1" id="svg5" sodipodi:docname="豆.svg" inkscape:version="1.4 (86a8ad7, 2024-10-11)" xmlns:inkscape="http://www.inkscape.org/namespaces/inkscape" xmlns:sodipodi="http://sodipodi.sourceforge.net/DTD/sodipodi-0.dtd" xmlns="http://www.w3.org/2000/svg" xmlns:svg="http://www.w3.org/2000/svg"><path d="M345.538 108.221 C 198.079 109.159,196.873 109.194,192.205 112.653 C 183.125 119.382,179.634 126.487,180.353 136.776 C 181.153 148.217,186.139 155.830,195.668 160.158 C 202.148 163.100,209.439 163.262,337.083 163.297 L 471.667 163.333 471.667 317.500 L 471.667 471.667 399.407 471.667 L 327.147 471.667 290.885 365.417 C 270.941 306.979,253.219 256.167,251.503 252.500 C 246.888 242.640,238.318 237.500,226.494 237.500 C 215.748 237.500,210.158 240.568,203.750 249.983 C 196.783 260.220,197.508 263.085,234.167 370.242 C 252.958 425.172,268.333 470.398,268.333 470.745 C 268.333 471.092,252.714 471.628,233.624 471.938 C 199.842 472.485,198.753 472.611,192.879 476.638 C 175.879 488.295,175.880 511.710,192.882 523.362 L 198.920 527.500 335.294 527.963 L 471.667 528.427 471.667 682.564 L 471.667 836.701 397.336 836.267 L 323.006 835.833 288.393 726.974 C 269.355 667.101,252.872 616.419,251.764 614.348 C 248.253 607.788,236.905 601.658,228.416 601.737 C 215.482 601.856,206.021 609.077,201.786 622.066 C 199.309 629.659,196.846 620.805,234.128 738.333 C 249.976 788.292,263.456 830.854,264.083 832.917 L 265.225 836.667 169.696 836.703 C 80.307 836.738,73.730 836.938,67.369 839.827 C 45.701 849.668,45.291 878.113,66.658 889.162 C 70.984 891.399,120.503 891.691,500.017 891.718 C 980.366 891.752,935.776 892.983,944.732 879.440 C 953.279 866.515,949.807 851.034,936.184 841.316 L 930.833 837.500 828.750 837.034 C 772.604 836.778,726.667 836.239,726.667 835.836 C 726.667 835.433,729.948 830.018,733.959 823.802 C 761.368 781.322,778.308 730.176,795.736 637.282 C 800.555 611.592,799.801 606.075,790.151 596.426 C 780.328 586.603,765.878 586.086,754.359 595.146 C 747.367 600.647,745.792 605.326,738.422 642.500 C 719.310 738.903,703.613 778.087,665.082 825.578 L 656.085 836.667 592.209 836.667 L 528.333 836.667 528.333 682.547 L 528.333 528.427 664.706 527.963 L 801.079 527.500 807.779 523.065 C 824.201 512.196,824.203 487.808,807.782 476.935 L 801.086 472.500 762.209 471.949 C 740.828 471.646,723.333 471.105,723.333 470.746 C 723.333 470.387,727.914 463.135,733.514 454.630 C 753.535 424.219,770.986 382.224,782.473 336.809 C 790.216 306.201,800.000 258.589,800.000 251.523 C 800.000 228.485,774.122 215.912,756.018 230.153 C 749.172 235.537,747.145 240.995,740.795 271.134 C 719.485 372.272,700.254 416.999,658.843 461.727 L 649.641 471.667 588.987 471.667 L 528.333 471.667 528.333 317.500 L 528.333 163.333 662.980 163.333 L 797.627 163.333 805.050 159.583 C 824.618 149.698,825.536 124.751,806.797 112.123 L 801.174 108.333 657.498 108.333 C 578.476 108.333,509.400 108.095,503.994 107.805 C 498.589 107.514,427.284 107.701,345.538 108.221 " stroke="none" fill-rule="evenodd" fill="#000000"></path></svg>