<svg width="1000" height="1000" viewBox="0 0 1000 1000" version="1.1" id="svg5" xmlns="http://www.w3.org/2000/svg" xmlns:svg="http://www.w3.org/2000/svg"><path d="M178.848 76.578 C 161.883 84.280,160.943 106.843,177.174 116.740 C 182.395 119.924,187.823 119.988,453.250 119.994 C 623.184 119.998,723.410 120.586,722.417 121.574 C 720.706 123.276,484.835 260.967,478.930 263.712 C 475.913 265.114,464.075 259.493,402.616 227.475 C 335.243 192.376,329.381 189.644,323.206 190.472 C 313.838 191.729,308.556 195.739,304.655 204.558 C 301.794 211.027,301.570 213.105,303.163 218.422 C 304.194 221.862,306.341 226.223,307.935 228.114 C 310.519 231.180,358.390 256.646,490.833 325.412 C 568.271 365.618,605.824 385.391,607.886 387.045 C 609.918 388.674,609.789 398.288,607.296 431.250 L 606.382 443.333 522.971 443.333 C 442.252 443.333,439.385 443.442,434.124 446.693 C 428.121 450.403,423.333 458.895,423.333 465.833 C 423.333 471.768,427.895 481.170,432.255 484.224 C 435.349 486.392,429.870 486.667,383.548 486.667 L 331.354 486.667 332.287 478.750 C 335.591 450.708,338.134 399.914,338.614 352.393 C 338.993 314.748,338.923 313.842,335.203 308.618 C 327.849 298.290,314.204 295.274,303.728 301.661 C 294.218 307.460,293.720 310.419,291.790 372.500 C 290.143 425.482,287.731 468.765,285.733 481.188 L 284.872 486.543 185.278 487.021 C 90.237 487.478,85.459 487.647,80.790 490.707 C 73.868 495.244,70.277 499.990,69.038 506.239 C 67.510 513.949,69.290 519.274,75.757 526.331 L 81.409 532.500 180.288 533.333 C 244.620 533.876,279.139 534.749,279.087 535.833 C 277.929 560.141,260.297 639.240,247.477 677.643 C 233.268 720.205,218.509 751.102,197.131 783.040 C 168.486 825.834,141.513 850.604,84.572 886.404 C 64.754 898.864,61.145 901.808,58.135 907.971 C 52.564 919.380,56.781 931.526,68.398 937.533 C 78.981 943.006,84.367 941.098,117.259 920.218 C 149.498 899.753,169.302 884.243,190.833 862.600 C 238.100 815.086,271.375 756.567,295.612 678.333 C 302.095 657.407,313.333 612.805,313.333 608.004 C 313.333 606.352,314.186 605.000,315.228 605.000 C 316.270 605.000,353.504 641.787,397.971 686.750 C 442.438 731.712,480.923 769.587,483.494 770.916 C 493.800 776.246,507.477 772.550,513.401 762.836 C 517.043 756.862,517.666 746.654,514.725 741.140 C 513.657 739.138,470.532 694.799,418.892 642.610 C 340.846 563.734,325.000 546.951,325.000 543.163 C 325.000 532.687,320.190 533.334,398.095 533.327 C 465.645 533.321,469.431 533.160,474.502 530.067 C 481.120 526.032,485.002 518.792,484.994 510.499 C 484.987 503.794,479.994 493.866,475.824 492.266 C 474.454 491.740,473.333 490.640,473.333 489.822 C 473.333 488.020,601.148 487.784,602.202 489.583 C 604.835 494.083,590.582 582.245,580.583 623.295 C 558.664 713.290,526.800 777.210,479.360 826.349 C 457.624 848.864,439.418 862.512,388.898 894.167 C 377.794 901.124,372.826 908.888,373.798 917.764 C 374.820 927.105,380.223 934.173,388.865 937.473 C 398.551 941.173,403.233 939.407,432.387 921.058 C 467.066 899.232,485.229 885.074,508.523 861.709 C 539.361 830.776,560.209 801.319,581.686 758.333 C 599.033 723.614,618.235 668.017,627.450 625.833 C 629.052 618.500,630.908 611.501,631.574 610.280 C 632.386 608.791,677.674 661.673,769.060 770.823 C 844.011 860.342,907.696 935.026,910.584 936.787 C 928.062 947.444,950.656 928.430,942.815 909.662 C 941.509 906.537,876.743 827.897,798.892 734.906 C 721.040 641.916,653.972 561.683,649.851 556.610 L 642.358 547.386 646.081 518.276 C 648.128 502.266,649.848 488.979,649.902 488.750 C 649.956 488.521,689.188 488.331,737.083 488.327 C 819.345 488.321,824.451 488.148,829.300 485.191 C 835.019 481.703,840.000 472.692,840.000 465.833 C 840.000 458.895,835.213 450.403,829.209 446.693 C 823.944 443.439,821.087 443.333,738.322 443.333 L 652.870 443.333 653.917 432.917 C 654.493 427.188,655.464 398.500,656.074 369.167 C 657.062 321.660,656.886 315.258,654.458 310.564 C 648.130 298.326,635.457 293.828,624.173 299.815 C 615.251 304.548,611.785 310.720,610.536 324.103 C 609.976 330.096,609.348 335.000,609.141 335.000 C 606.492 335.000,525.139 290.896,526.130 289.997 C 526.884 289.313,594.250 249.983,675.833 202.596 C 757.417 155.209,826.189 114.273,828.661 111.626 C 838.706 100.870,834.904 83.478,821.040 76.767 C 813.955 73.337,813.633 73.333,499.890 73.370 C 194.777 73.405,185.634 73.497,178.848 76.578 " stroke="none" fill-rule="evenodd" fill="black"></path></svg>