<svg width="1000" height="1000" viewBox="0 0 1000 1000" version="1.1" id="svg5" sodipodi:docname="賢.svg" inkscape:version="1.4.2 (f4327f4, 2025-05-13)" xmlns:inkscape="http://www.inkscape.org/namespaces/inkscape" xmlns:sodipodi="http://sodipodi.sourceforge.net/DTD/sodipodi-0.dtd" xmlns="http://www.w3.org/2000/svg" xmlns:svg="http://www.w3.org/2000/svg"><path d="M394.950 55.417 C 384.787 60.551,380.000 68.160,380.000 79.181 C 380.000 85.763,381.038 89.398,384.285 94.183 C 386.642 97.656,407.267 120.596,430.118 145.160 C 452.970 169.725,471.667 190.215,471.667 190.693 C 471.667 191.171,406.229 191.773,326.250 192.031 C 192.597 192.462,180.411 192.731,175.615 195.357 C 164.090 201.666,158.389 213.388,160.742 225.933 C 162.248 233.959,172.069 244.531,180.005 246.668 C 184.217 247.802,289.957 248.223,497.742 247.934 L 809.167 247.500 815.333 243.666 C 833.200 232.556,832.686 206.933,814.387 196.446 L 807.500 192.500 677.424 191.667 L 547.347 190.833 485.349 123.934 C 421.955 55.530,417.722 51.667,406.153 51.667 C 404.074 51.667,399.033 53.354,394.950 55.417 M264.167 265.696 C 257.955 268.468,250.782 275.993,248.439 282.192 C 247.244 285.356,246.667 327.846,246.667 412.660 L 246.667 538.436 226.328 537.968 L 205.989 537.500 190.786 461.467 C 182.425 419.648,174.610 383.082,173.420 380.209 C 170.820 373.933,161.563 365.456,155.702 363.985 C 145.151 361.337,133.215 365.893,126.242 375.232 C 119.407 384.387,119.674 387.210,134.356 461.003 C 141.997 499.410,148.657 532.521,149.156 534.583 L 150.064 538.333 126.218 538.333 C 104.775 538.333,101.634 538.711,95.034 542.083 C 82.698 548.387,77.034 560.233,80.293 572.913 C 82.240 580.489,85.966 585.273,93.495 589.863 C 99.005 593.222,101.233 593.321,171.806 593.327 C 211.757 593.331,244.796 593.684,245.225 594.113 C 246.497 595.386,243.513 622.780,239.954 642.500 C 221.559 744.435,162.399 850.548,105.000 884.559 C 97.898 888.767,82.856 893.333,76.094 893.333 C 62.090 893.333,48.566 909.628,50.709 923.918 C 51.993 932.479,59.916 942.772,67.738 946.040 C 84.642 953.103,122.202 941.302,150.093 920.166 C 164.970 908.892,193.599 878.943,206.232 861.439 C 242.900 810.633,267.189 757.736,287.440 684.583 C 288.899 679.313,290.476 675.000,290.943 675.000 C 291.410 675.000,319.387 701.540,353.113 733.978 C 386.840 766.415,416.936 794.249,419.993 795.830 C 427.025 799.466,440.103 798.474,446.374 793.829 C 457.205 785.808,461.612 770.687,456.433 759.319 C 454.987 756.146,357.338 660.870,306.811 613.333 C 301.218 608.072,300.678 606.819,301.301 600.550 L 301.991 593.600 375.187 593.479 C 454.596 593.347,455.925 593.206,463.054 584.143 C 472.661 571.930,471.844 557.820,460.923 547.339 C 452.325 539.087,449.021 538.333,421.458 538.333 C 408.598 538.333,400.000 537.681,400.000 536.705 C 400.000 535.809,401.763 530.371,403.918 524.621 C 412.839 500.816,419.577 468.329,426.609 415.223 C 431.333 379.545,431.161 373.769,425.124 365.435 C 416.199 353.115,400.746 350.337,388.193 358.796 C 378.575 365.278,376.712 370.651,372.321 404.578 C 364.370 466.014,357.041 497.699,344.328 525.595 L 338.523 538.333 320.095 538.333 L 301.667 538.333 301.667 411.396 L 301.667 284.460 297.524 277.390 C 290.637 265.639,275.882 260.466,264.167 265.696 M694.002 266.418 C 690.244 268.174,685.369 272.136,683.168 275.222 L 679.167 280.833 678.720 409.583 L 678.273 538.333 653.303 538.333 C 639.570 538.333,628.333 538.044,628.333 537.691 C 628.333 536.378,596.478 390.596,594.893 384.659 C 588.638 361.218,561.507 356.104,546.048 375.453 C 541.998 380.522,541.046 383.264,541.131 389.619 C 541.190 393.954,548.084 428.784,556.452 467.021 C 564.820 505.258,571.667 536.883,571.667 537.300 C 571.667 537.717,558.669 538.307,542.782 538.612 C 514.050 539.164,513.865 539.191,507.748 543.861 C 504.366 546.443,500.454 550.301,499.056 552.435 C 492.139 562.991,495.546 579.766,506.268 587.945 L 512.238 592.500 594.452 592.962 L 676.667 593.424 676.667 597.172 C 676.667 614.444,668.646 656.265,660.081 683.648 C 638.240 753.480,603.244 813.931,561.264 854.342 C 534.648 879.963,516.649 890.362,495.008 892.621 C 482.302 893.947,476.984 896.327,471.096 903.325 C 459.313 917.328,463.365 935.956,480.098 944.703 C 486.597 948.101,488.983 948.448,499.653 947.544 C 544.206 943.771,592.709 910.156,635.686 853.267 C 666.622 812.318,696.505 753.221,712.556 701.250 C 715.033 693.229,717.534 686.679,718.113 686.693 C 718.693 686.708,760.402 744.128,810.801 814.295 C 869.666 896.247,904.236 942.949,907.468 944.888 C 918.934 951.764,931.712 950.288,940.983 941.017 C 948.621 933.379,951.155 923.927,948.042 914.689 C 946.557 910.285,904.133 849.854,838.552 758.725 L 731.486 609.950 731.993 602.059 L 732.500 594.167 765.000 593.970 C 782.875 593.861,819.702 593.674,846.837 593.553 C 895.215 593.338,896.283 593.260,901.797 589.544 C 915.212 580.504,918.773 565.898,910.857 552.390 C 903.839 540.415,897.217 538.333,866.140 538.333 C 851.763 538.333,840.000 537.876,840.000 537.317 C 840.000 536.757,843.373 526.306,847.495 514.092 C 855.963 489.001,862.666 457.106,869.159 411.000 C 873.345 381.278,873.445 379.107,870.935 372.534 C 867.381 363.229,860.842 357.311,851.305 354.768 C 844.318 352.905,842.561 353.036,835.528 355.951 C 821.693 361.685,819.251 367.196,814.167 404.167 C 805.828 464.806,797.880 496.589,784.176 524.099 L 777.500 537.500 755.457 537.965 L 733.413 538.430 732.957 410.465 L 732.500 282.500 728.684 277.150 C 719.893 264.825,706.364 260.639,694.002 266.418 " stroke="none" fill-rule="evenodd" fill="#000000"></path></svg>