<svg width="1000" height="1000" viewBox="0 0 1000 1000" version="1.1" id="svg5" xmlns="http://www.w3.org/2000/svg" xmlns:svg="http://www.w3.org/2000/svg"><path d="M165.668 68.176 C 156.103 72.520,151.142 80.119,150.401 91.558 L 149.801 100.833 221.410 225.000 C 274.390 316.864,294.546 350.409,298.885 353.941 C 306.143 359.847,316.632 361.342,325.217 357.693 C 337.519 352.465,345.397 337.138,341.638 325.746 C 339.141 318.181,201.354 79.179,196.373 73.774 C 188.265 64.974,177.172 62.952,165.668 68.176 M813.791 68.489 C 805.267 72.708,803.337 75.752,789.409 106.943 C 775.548 137.985,756.041 176.962,744.825 196.030 C 688.824 291.226,624.483 344.524,511.667 389.172 C 498.375 394.432,486.021 399.770,484.212 401.035 C 481.465 402.956,449.420 403.339,289.212 403.370 C 106.819 403.405,97.173 403.555,90.764 406.466 C 82.769 410.098,75.712 417.964,74.177 424.954 C 71.848 435.558,80.932 449.028,93.165 453.110 C 97.253 454.474,150.499 455.000,284.398 455.000 L 469.965 455.000 470.399 684.878 L 470.833 914.756 474.320 919.461 C 487.670 937.478,512.330 937.478,525.680 919.461 L 529.167 914.756 529.601 684.878 L 530.035 455.000 715.602 455.000 C 849.501 455.000,902.747 454.474,906.835 453.110 C 919.068 449.028,928.152 435.558,925.823 424.954 C 924.288 417.964,917.231 410.098,909.236 406.466 C 902.871 403.575,894.505 403.401,757.500 403.314 L 612.500 403.221 621.534 397.860 C 657.631 376.441,685.550 354.720,715.025 325.124 C 747.368 292.650,769.921 262.622,795.772 217.617 C 818.313 178.374,853.333 102.564,853.333 93.011 C 853.333 83.852,846.803 73.282,838.400 68.838 C 829.406 64.082,822.880 63.989,813.791 68.489 " stroke="none" fill-rule="evenodd" fill="#000000"></path></svg>