<svg width="1000" height="1000" viewBox="0 0 1000 1000" version="1.1" id="svg5" sodipodi:docname="遅.svg" inkscape:version="1.4 (86a8ad7, 2024-10-11)" xml:space="preserve" xmlns:inkscape="http://www.inkscape.org/namespaces/inkscape" xmlns:sodipodi="http://sodipodi.sourceforge.net/DTD/sodipodi-0.dtd" xmlns="http://www.w3.org/2000/svg" xmlns:svg="http://www.w3.org/2000/svg"><path d="M560.000 46.203 C 554.632 48.220,548.164 53.827,545.693 58.605 C 544.268 61.360,540.570 78.739,537.475 97.224 C 529.757 143.319,520.955 184.624,513.111 211.553 C 509.488 223.990,505.362 238.292,503.943 243.333 C 499.621 258.689,486.980 289.566,474.944 314.167 C 455.626 353.653,428.309 396.648,397.208 436.517 C 378.724 460.212,377.237 471.009,390.614 484.386 C 402.154 495.926,418.228 495.879,429.173 484.274 C 436.888 476.094,461.903 442.332,477.771 418.681 C 485.587 407.032,492.474 397.358,493.075 397.185 C 493.972 396.926,571.788 490.414,582.287 504.365 C 585.374 508.466,585.331 508.831,578.337 538.006 C 556.994 627.029,527.292 708.284,490.489 778.333 C 471.927 813.662,460.499 832.793,435.635 870.160 C 422.463 889.957,411.240 908.381,410.696 911.103 C 407.985 924.659,419.752 940.426,434.198 942.592 C 446.968 944.507,454.393 939.663,467.904 920.602 C 524.321 841.015,568.837 753.349,601.927 656.667 C 609.092 635.732,628.333 569.427,628.333 565.671 C 628.333 564.385,628.938 563.333,629.678 563.333 C 630.417 563.333,663.604 602.857,703.428 651.163 C 743.251 699.469,779.112 742.969,783.120 747.829 L 790.407 756.665 781.620 793.749 C 776.787 814.145,772.483 832.521,772.055 834.583 C 771.628 836.646,770.754 838.333,770.113 838.333 C 769.473 838.333,755.123 812.356,738.224 780.606 C 721.326 748.856,705.240 720.440,702.478 717.458 C 695.596 710.029,685.576 707.134,676.333 709.903 C 661.932 714.218,652.562 730.063,656.807 742.925 C 658.738 748.776,751.297 922.926,757.299 932.001 C 761.655 938.588,773.703 943.946,781.734 942.869 C 791.369 941.577,799.941 935.562,803.425 927.650 C 806.564 920.520,826.230 847.366,831.100 824.703 C 832.650 817.487,834.482 811.790,835.171 812.042 C 835.860 812.294,859.685 840.714,888.116 875.197 C 932.116 928.565,940.819 938.299,946.604 940.614 C 958.950 945.554,968.810 943.092,977.830 932.819 C 984.879 924.790,986.594 914.171,982.251 905.440 C 980.535 901.990,950.712 864.667,915.977 822.500 C 881.243 780.333,852.135 744.942,851.293 743.852 C 850.327 742.602,851.633 732.460,854.835 716.352 C 881.636 581.541,896.346 448.192,901.602 292.394 C 902.753 258.275,902.707 242.039,901.446 237.472 C 899.148 229.149,890.815 220.845,882.422 218.514 C 877.861 217.248,828.777 216.682,722.917 216.676 C 614.243 216.669,570.000 216.144,570.000 214.861 C 570.000 213.868,571.459 207.305,573.242 200.278 C 583.356 160.420,597.411 79.864,596.190 68.761 C 595.236 60.092,588.299 50.512,580.667 47.323 C 575.104 44.999,564.704 44.435,560.000 46.203 M118.791 171.822 C 114.776 173.809,110.118 177.929,107.957 181.404 C 104.186 187.468,104.162 187.912,103.333 266.667 L 102.500 345.833 71.365 346.667 C 36.828 347.591,35.221 348.079,26.936 360.153 C 23.682 364.895,23.149 367.420,23.710 375.439 C 24.523 387.051,28.230 392.737,38.367 397.917 C 45.141 401.378,47.925 401.667,74.520 401.667 L 103.333 401.667 103.333 601.856 L 103.333 802.046 106.863 808.327 C 108.805 811.781,113.219 816.195,116.673 818.137 C 122.812 821.587,124.650 821.667,197.961 821.667 L 272.969 821.667 273.596 834.082 C 274.061 843.288,275.104 847.678,277.631 851.062 C 290.329 868.070,311.350 868.053,324.064 851.025 C 327.489 846.438,327.501 845.709,327.935 624.045 L 328.369 401.667 357.101 401.630 C 389.588 401.589,396.292 399.889,403.414 389.887 C 409.260 381.677,409.880 367.658,404.731 360.153 C 396.446 348.079,394.837 347.591,360.301 346.667 L 329.167 345.833 328.333 266.667 C 327.727 209.052,326.950 186.541,325.480 183.979 C 319.342 173.275,305.945 166.763,295.006 169.165 C 289.398 170.397,279.514 178.177,276.186 183.979 C 274.716 186.541,273.940 209.052,273.333 266.667 L 272.500 345.833 215.833 345.833 L 159.167 345.833 158.333 266.667 C 157.746 210.852,156.928 186.517,155.560 184.167 C 152.528 178.957,144.631 172.054,139.475 170.106 C 132.468 167.459,126.627 167.943,118.791 171.822 M619.278 282.083 C 613.624 333.519,610.885 356.000,606.640 385.833 C 600.041 432.205,599.450 435.372,597.500 434.825 C 594.770 434.058,523.333 346.505,523.333 343.925 C 523.333 342.620,527.342 332.766,532.242 322.026 C 537.141 311.287,543.616 295.938,546.630 287.917 L 552.109 273.333 586.175 273.333 L 620.240 273.333 619.278 282.083 M845.983 302.917 C 841.771 413.388,832.510 513.344,817.588 609.402 C 809.860 659.148,804.866 685.236,803.182 684.654 C 802.071 684.270,710.747 574.173,654.422 505.315 L 644.678 493.402 649.785 465.451 C 659.110 414.414,668.450 347.136,673.505 294.583 L 675.549 273.333 761.330 273.333 L 847.111 273.333 845.983 302.917 M273.333 584.167 L 273.333 766.667 215.833 766.667 L 158.333 766.667 158.333 584.167 L 158.333 401.667 215.833 401.667 L 273.333 401.667 273.333 584.167 " stroke="none" fill-rule="evenodd" fill="#000000"></path></svg>