<svg width="1000" height="1000" viewBox="0 0 1000 1000" version="1.1" id="svg5" sodipodi:docname="釘.svg" inkscape:version="1.4 (86a8ad7, 2024-10-11)" xmlns:inkscape="http://www.inkscape.org/namespaces/inkscape" xmlns:sodipodi="http://sodipodi.sourceforge.net/DTD/sodipodi-0.dtd" xmlns="http://www.w3.org/2000/svg" xmlns:svg="http://www.w3.org/2000/svg"><path d="M235.833 32.362 C 229.815 35.048,222.463 42.613,220.311 48.333 C 219.449 50.625,218.222 59.625,217.583 68.333 C 213.024 130.562,197.875 221.149,189.147 238.372 C 186.747 243.108,184.744 250.461,184.305 256.142 C 182.118 284.465,147.292 375.410,110.390 449.167 C 91.879 486.164,91.102 488.381,93.517 497.348 C 97.270 511.286,111.627 520.275,125.869 517.603 C 137.762 515.372,142.354 508.918,165.059 462.520 C 195.549 400.214,210.929 362.653,227.514 310.000 L 236.176 282.500 379.754 282.074 L 523.333 281.648 523.333 589.299 L 523.333 896.950 514.583 890.033 C 476.020 859.549,423.188 804.525,370.002 739.456 C 364.138 732.281,357.400 725.408,355.029 724.182 C 338.554 715.662,319.786 723.892,314.980 741.742 C 312.197 752.077,315.102 759.081,329.481 776.702 C 412.426 878.347,484.534 945.132,537.531 969.395 C 544.756 972.703,548.733 973.534,554.322 972.904 C 562.831 971.945,571.967 965.665,576.252 957.831 C 578.996 952.813,579.192 932.829,579.603 617.083 L 580.040 281.667 739.376 281.667 C 898.581 281.667,898.718 281.664,904.993 278.137 C 920.315 269.525,923.284 246.189,910.526 234.643 C 901.233 226.233,919.632 226.667,572.441 226.667 C 265.904 226.667,249.821 226.521,250.687 223.750 C 257.588 201.662,270.579 110.797,272.549 70.833 C 273.478 52.006,273.309 50.442,269.677 44.167 C 262.961 32.560,247.484 27.162,235.833 32.362 " stroke="none" fill-rule="evenodd" fill="#000000"></path></svg>