<svg width="1000" height="1000" viewBox="0 0 1000 1000" version="1.1" id="svg5" inkscape:version="1.2.1 (9c6d41e410, 2022-07-14)" sodipodi:docname="針.svg" xmlns:inkscape="http://www.inkscape.org/namespaces/inkscape" xmlns:sodipodi="http://sodipodi.sourceforge.net/DTD/sodipodi-0.dtd" xmlns="http://www.w3.org/2000/svg" xmlns:svg="http://www.w3.org/2000/svg"><path d="M632.806 52.360 C 624.473 55.404,620.208 59.356,616.468 67.500 C 613.524 73.910,613.405 89.673,613.370 477.083 C 613.350 698.688,612.943 880.000,612.467 880.000 C 610.634 880.000,581.290 864.719,567.236 856.445 C 480.949 805.653,370.909 714.344,247.500 591.136 C 217.645 561.330,191.806 536.887,188.804 535.612 C 181.579 532.543,175.511 532.796,167.335 536.509 C 154.010 542.561,147.945 559.154,154.223 572.383 C 157.553 579.401,232.395 655.333,275.833 695.765 C 416.363 826.569,526.896 906.179,619.418 943.226 C 628.722 946.952,638.917 950.000,642.072 950.000 C 651.154 950.000,661.733 943.442,666.162 935.067 L 670.000 927.809 669.960 503.488 C 669.937 254.725,669.293 76.462,668.404 72.629 C 664.605 56.248,648.019 46.805,632.806 52.360 " stroke="none" fill-rule="evenodd" fill="#000000"></path></svg>