<svg width="1000" height="1000" viewBox="0 0 1000 1000" version="1.1" id="svg5" sodipodi:docname="鎖.svg" inkscape:version="1.4 (86a8ad7, 2024-10-11)" xmlns:inkscape="http://www.inkscape.org/namespaces/inkscape" xmlns:sodipodi="http://sodipodi.sourceforge.net/DTD/sodipodi-0.dtd" xmlns="http://www.w3.org/2000/svg" xmlns:svg="http://www.w3.org/2000/svg"><path d="M246.371 80.000 C 157.601 80.812,155.123 80.922,150.641 84.270 C 142.479 90.365,139.427 96.004,138.677 106.377 C 137.874 117.472,140.043 122.987,148.293 130.833 L 153.550 135.833 230.108 136.298 C 289.858 136.661,306.667 137.219,306.667 138.840 C 306.667 146.102,276.512 243.820,251.474 317.692 C 241.497 347.130,233.333 373.784,233.333 376.922 C 233.333 384.885,239.763 396.762,246.496 401.237 L 252.160 405.000 462.330 405.099 C 577.923 405.153,710.563 405.111,757.083 405.005 L 841.667 404.813 841.667 410.407 C 841.667 420.740,838.259 460.659,835.727 480.000 C 831.630 511.282,825.111 544.210,816.507 577.083 L 814.872 583.333 767.436 583.333 L 720.000 583.333 720.000 531.775 C 720.000 478.319,719.538 474.156,712.806 466.925 C 704.374 457.869,717.482 458.358,480.031 458.247 C 262.422 458.146,259.802 458.184,254.452 461.490 C 251.475 463.330,247.381 467.787,245.353 471.395 C 241.765 477.779,241.667 479.359,241.667 530.644 L 241.667 583.333 196.250 583.343 C 170.690 583.348,148.172 584.091,144.747 585.042 C 137.039 587.183,127.216 597.878,125.742 605.734 C 123.534 617.504,128.965 629.744,138.930 635.454 C 141.430 636.887,157.238 637.750,191.667 638.333 L 240.833 639.167 241.667 704.167 C 242.451 765.336,242.696 769.500,245.833 774.826 C 247.667 777.938,251.143 781.958,253.560 783.759 C 258.358 787.336,270.669 789.363,277.370 787.681 C 283.678 786.098,292.872 777.283,295.027 770.750 L 296.925 765.000 393.790 765.000 L 490.654 765.000 485.429 770.417 C 476.467 779.708,474.012 793.068,479.240 804.086 C 483.208 812.448,612.152 945.063,620.901 949.779 C 634.695 957.216,644.045 952.216,678.142 919.167 C 758.197 841.572,818.084 744.335,855.721 630.833 C 877.908 563.926,891.899 482.952,894.465 406.604 C 895.643 371.558,894.946 365.505,888.902 358.323 C 879.588 347.253,882.265 347.585,794.881 346.667 L 715.595 345.833 755.393 230.833 C 796.993 110.625,798.252 106.065,792.745 95.520 C 791.399 92.942,787.932 88.583,785.041 85.833 L 779.784 80.833 711.975 80.420 C 549.497 79.428,330.495 79.231,246.371 80.000 M718.502 174.583 C 711.311 195.438,695.020 242.685,682.298 279.579 L 659.167 346.657 478.750 346.662 C 379.521 346.665,298.333 346.456,298.333 346.198 C 298.333 345.940,302.850 332.253,308.369 315.781 C 323.669 270.127,343.984 204.296,353.258 170.323 C 357.838 153.542,362.023 139.105,362.558 138.240 C 363.158 137.269,433.980 136.667,547.553 136.667 L 731.575 136.667 718.502 174.583 M453.333 548.333 L 453.333 583.333 375.000 583.333 L 296.667 583.333 296.667 548.333 L 296.667 513.333 375.000 513.333 L 453.333 513.333 453.333 548.333 M665.000 548.333 L 665.000 583.333 586.667 583.333 L 508.333 583.333 508.333 548.333 L 508.333 513.333 586.667 513.333 L 665.000 513.333 665.000 548.333 M452.950 674.583 L 453.400 710.000 375.033 710.000 L 296.667 710.000 296.667 675.278 C 296.667 656.181,297.174 640.048,297.794 639.428 C 298.414 638.808,333.477 638.495,375.711 638.734 L 452.500 639.167 452.950 674.583 M665.000 674.167 L 665.000 710.000 586.667 710.000 L 508.333 710.000 508.333 675.278 C 508.333 656.181,508.833 640.056,509.444 639.444 C 510.056 638.833,545.306 638.333,587.778 638.333 L 665.000 638.333 665.000 674.167 M795.533 639.583 C 796.563 641.349,782.442 675.311,770.413 700.000 C 746.689 748.690,714.749 797.411,680.818 836.667 C 661.521 858.992,635.634 885.000,632.710 885.000 C 631.353 885.000,628.658 882.986,626.722 880.525 C 624.786 878.064,598.778 851.064,568.927 820.525 L 514.653 765.000 589.649 765.000 L 664.646 765.000 668.573 772.830 C 673.471 782.596,679.125 786.790,688.877 787.889 C 698.705 788.997,703.520 787.697,710.098 782.162 C 720.177 773.681,720.339 772.412,720.124 703.736 C 720.017 669.486,720.364 640.759,720.896 639.898 C 722.044 638.041,794.455 637.736,795.533 639.583 " stroke="none" fill-rule="evenodd" fill="black"></path></svg>