<svg width="1000" height="1000" viewBox="0 0 1000 1000" version="1.1" id="svg5" sodipodi:docname="隊.svg" inkscape:version="1.3 (0e150ed6c4, 2023-07-21)" xmlns:inkscape="http://www.inkscape.org/namespaces/inkscape" xmlns:sodipodi="http://sodipodi.sourceforge.net/DTD/sodipodi-0.dtd" xmlns="http://www.w3.org/2000/svg" xmlns:svg="http://www.w3.org/2000/svg"><path d="M506.764 30.309 C 498.039 34.856,493.679 40.313,491.596 49.296 C 490.762 52.891,490.062 77.771,490.040 104.583 L 490.000 153.333 398.333 153.333 C 333.138 153.333,306.667 152.807,306.667 151.512 C 306.667 150.510,308.243 142.072,310.169 132.762 C 312.548 121.269,313.752 108.843,313.919 94.062 C 314.165 72.474,314.126 72.236,309.364 65.968 C 297.854 50.818,276.109 51.290,264.518 66.940 C 261.935 70.427,260.749 76.513,258.991 95.274 C 255.570 131.801,251.788 144.809,237.790 168.178 C 221.741 194.971,199.973 213.760,161.341 234.167 C 142.389 244.178,138.720 246.779,135.488 252.500 C 127.798 266.112,132.730 282.513,146.674 289.691 C 157.068 295.042,164.321 293.892,185.390 283.551 C 217.600 267.742,247.254 245.380,267.586 221.566 L 278.884 208.333 382.775 208.333 C 468.631 208.333,486.667 208.722,486.667 210.572 C 486.667 220.687,470.046 253.550,454.081 275.000 C 394.436 355.141,275.678 420.869,181.063 426.105 C 165.839 426.947,159.729 428.000,154.494 430.683 C 134.949 440.698,134.343 465.004,153.316 477.917 C 158.096 481.170,160.947 481.663,174.830 481.636 C 250.169 481.492,349.323 441.664,427.500 380.142 C 443.731 367.369,473.179 338.583,487.436 321.553 C 500.486 305.964,515.352 284.159,522.299 270.417 C 524.732 265.604,527.037 261.667,527.421 261.667 C 527.805 261.667,598.105 307.553,683.643 363.636 C 887.430 497.250,865.649 483.766,876.319 482.916 C 886.122 482.136,892.098 478.567,897.917 470.017 C 903.110 462.387,903.087 449.277,897.867 441.496 C 895.077 437.338,848.145 405.731,721.173 322.500 L 548.279 209.167 665.513 208.333 L 782.747 207.500 788.784 203.362 C 806.026 191.546,805.814 168.969,788.350 157.083 L 782.840 153.333 664.840 153.333 L 546.840 153.333 546.337 100.417 C 545.778 41.725,545.681 41.169,534.434 32.591 C 526.251 26.349,515.988 25.503,506.764 30.309 M503.895 494.092 C 499.452 496.818,495.705 500.934,493.478 505.534 C 490.163 512.383,490.000 515.347,490.000 568.860 L 490.000 625.000 371.667 625.000 C 306.583 625.000,253.333 624.692,253.333 624.315 C 253.333 623.939,255.185 616.626,257.448 608.065 C 265.538 577.463,269.133 532.462,264.393 521.119 C 259.486 509.375,244.648 501.858,232.819 505.125 C 224.723 507.360,215.635 515.412,213.584 522.167 C 212.693 525.100,211.510 535.919,210.955 546.209 C 208.344 594.612,196.568 627.553,170.136 660.389 C 153.224 681.400,122.764 704.528,91.667 719.969 C 83.875 723.839,75.048 729.339,72.051 732.194 C 54.756 748.666,67.658 778.333,92.118 778.333 C 95.194 778.333,103.835 775.355,111.469 771.663 C 153.393 751.389,187.388 725.440,214.313 693.158 L 225.288 680.000 355.977 680.000 C 427.856 680.000,486.667 680.633,486.667 681.406 C 486.667 685.192,479.245 703.605,473.180 714.865 C 418.616 816.168,250.094 911.841,115.833 917.736 C 89.548 918.890,82.130 921.606,75.810 932.390 C 67.857 945.961,71.430 960.410,85.040 969.715 C 90.662 973.559,91.572 973.651,115.833 972.842 C 179.281 970.724,249.431 951.215,320.833 915.830 C 410.441 871.423,479.761 812.478,517.404 748.679 C 523.466 738.405,526.232 735.116,528.180 735.864 C 529.622 736.417,619.684 789.235,728.318 853.238 C 836.951 917.240,928.234 970.820,931.167 972.303 C 947.730 980.678,967.785 969.127,969.608 950.164 C 970.691 938.892,966.607 931.084,955.985 924.116 C 951.318 921.055,857.500 865.553,747.500 800.779 C 637.500 736.004,546.788 682.330,545.917 681.503 C 544.975 680.609,601.748 679.985,685.917 679.963 C 820.387 679.929,827.843 679.771,834.332 676.824 C 844.708 672.112,849.167 664.713,849.167 652.206 C 849.167 641.082,846.576 635.904,837.692 629.270 C 833.149 625.877,831.271 625.823,689.462 625.000 L 545.833 624.167 545.000 565.536 C 544.205 509.611,544.008 506.693,540.730 502.306 C 534.842 494.424,529.025 491.159,519.652 490.477 C 512.413 489.950,509.590 490.597,503.895 494.092 " stroke="none" fill-rule="evenodd" fill="#000000"></path></svg>