<svg width="1000" height="1000" viewBox="0 0 1000 1000" version="1.1" id="svg5" sodipodi:docname="震.svg" inkscape:version="1.4 (86a8ad7, 2024-10-11)" xml:space="preserve" xmlns:inkscape="http://www.inkscape.org/namespaces/inkscape" xmlns:sodipodi="http://sodipodi.sourceforge.net/DTD/sodipodi-0.dtd" xmlns="http://www.w3.org/2000/svg" xmlns:svg="http://www.w3.org/2000/svg"><path d="M487.500 52.271 C 481.238 55.180,474.094 62.715,471.773 68.858 C 470.603 71.954,470.000 103.003,470.000 160.108 L 470.000 246.667 360.942 246.667 C 287.739 246.667,250.341 247.251,247.192 248.444 C 244.611 249.422,240.741 251.860,238.592 253.861 C 229.428 262.393,229.913 250.400,229.919 468.344 C 229.925 689.185,229.267 674.524,239.599 684.150 C 249.458 693.336,263.977 693.186,275.152 683.783 C 283.551 676.715,285.000 671.141,285.000 645.887 L 285.000 623.333 377.500 623.333 L 470.000 623.333 470.000 777.980 L 470.000 932.627 473.750 940.057 C 483.777 959.923,512.717 959.547,522.265 939.426 C 524.740 934.212,525.000 918.885,525.000 778.498 L 525.000 623.333 620.000 623.333 L 715.000 623.333 715.000 645.887 C 715.000 671.141,716.449 676.715,724.848 683.783 C 736.023 693.186,750.542 693.336,760.401 684.150 C 770.784 674.476,770.124 689.217,770.040 468.915 C 769.965 269.653,769.934 267.837,766.560 261.833 C 764.688 258.502,760.439 253.914,757.118 251.638 L 751.080 247.500 638.040 247.039 L 525.000 246.577 525.000 158.932 C 525.000 73.617,524.909 71.125,521.578 65.198 C 514.791 53.122,498.760 47.041,487.500 52.271 M915.798 253.281 C 908.442 254.949,902.234 259.523,897.964 266.422 C 894.356 272.251,894.158 274.511,893.124 321.667 C 890.698 432.276,872.971 506.318,825.886 602.500 C 817.360 619.917,809.847 635.933,809.191 638.091 C 805.833 649.136,818.138 666.895,830.793 669.269 C 850.603 672.986,857.707 664.864,884.087 608.333 C 925.535 519.512,943.145 446.119,948.501 339.878 C 950.910 292.084,950.094 274.076,945.157 266.088 C 938.974 256.083,926.822 250.782,915.798 253.281 M47.299 282.302 C 39.888 285.659,33.068 295.326,32.160 303.761 C 31.549 309.432,41.522 346.823,82.504 492.500 C 110.612 592.417,134.901 676.414,136.478 679.161 C 139.598 684.592,148.359 691.191,154.495 692.731 C 169.462 696.488,187.371 681.829,187.108 666.037 C 186.991 659.044,88.917 307.806,83.808 296.085 C 78.076 282.935,60.527 276.310,47.299 282.302 M470.000 435.833 L 470.000 568.333 377.500 568.333 L 285.000 568.333 285.000 435.833 L 285.000 303.333 377.500 303.333 L 470.000 303.333 470.000 435.833 M715.000 435.833 L 715.000 568.333 620.000 568.333 L 525.000 568.333 525.000 435.833 L 525.000 303.333 620.000 303.333 L 715.000 303.333 715.000 435.833 " stroke="none" fill-rule="evenodd" fill="#000000"></path></svg>