<svg width="1000" height="1000" viewBox="0 0 1000 1000" version="1.1" id="svg5" xmlns="http://www.w3.org/2000/svg" xmlns:svg="http://www.w3.org/2000/svg"><path d="M675.833 52.377 C 672.167 54.583,667.667 58.888,665.833 61.944 C 662.596 67.340,662.487 70.894,662.040 185.417 L 661.580 303.333 601.624 303.333 L 541.667 303.333 541.667 232.193 C 541.667 163.372,541.553 160.817,538.173 153.836 C 530.288 137.546,508.490 133.332,495.202 145.528 C 486.832 153.209,486.821 153.350,486.580 249.880 L 486.355 340.199 490.529 346.506 C 498.480 358.520,497.006 358.333,584.002 358.333 L 661.667 358.333 661.667 405.886 L 661.667 453.440 563.180 453.267 L 464.692 453.094 458.440 457.232 C 446.084 465.409,446.667 458.536,446.667 596.026 C 446.667 700.132,446.316 718.672,444.389 716.607 C 442.478 714.561,294.605 463.580,288.478 451.986 C 286.584 448.402,287.520 447.019,302.127 431.800 C 322.453 410.623,348.058 380.869,367.232 356.146 C 388.644 328.537,414.713 289.056,415.976 282.325 C 421.178 254.596,385.487 237.504,368.402 259.544 C 366.431 262.086,357.406 275.042,348.345 288.333 C 327.294 319.217,281.787 376.224,277.917 376.558 C 277.229 376.618,276.667 339.917,276.667 295.000 L 276.667 213.333 350.417 213.297 C 418.604 213.263,424.679 213.027,430.964 210.173 C 443.369 204.539,450.151 190.998,446.702 178.750 C 444.582 171.221,440.753 166.426,433.172 161.804 C 427.525 158.361,426.709 158.346,248.696 158.340 C 51.987 158.333,62.756 157.758,54.400 168.712 C 46.139 179.543,46.551 192.622,55.473 202.784 C 64.848 213.462,63.736 213.333,146.613 213.333 L 221.667 213.333 221.667 323.333 C 221.667 383.833,221.104 433.303,220.417 433.267 C 219.729 433.231,197.042 405.772,170.000 372.248 C 142.958 338.724,118.749 309.533,116.201 307.380 C 106.344 299.051,91.174 300.100,81.493 309.782 C 71.193 320.082,69.848 333.330,77.907 345.111 C 79.517 347.464,102.914 376.627,129.902 409.918 C 181.229 473.235,184.551 476.531,197.137 476.630 C 203.259 476.678,211.728 472.993,215.675 468.563 C 217.421 466.604,219.484 465.000,220.258 465.000 C 221.033 465.000,221.667 473.124,221.667 483.054 L 221.667 501.109 215.288 506.235 C 211.408 509.353,203.131 520.725,194.160 535.264 C 146.721 612.142,83.794 698.333,55.028 725.833 C 45.535 734.908,41.515 740.795,39.861 748.044 C 35.462 767.315,54.379 785.093,73.750 779.894 C 79.195 778.433,83.930 774.852,94.219 764.413 C 120.882 737.364,160.667 685.845,198.333 629.589 C 209.792 612.476,219.729 598.442,220.417 598.404 C 221.104 598.365,221.667 637.583,221.667 685.554 L 221.667 772.774 212.917 772.151 C 206.030 771.660,202.754 772.348,197.534 775.381 C 186.104 782.022,180.655 796.073,185.039 807.603 C 187.741 814.710,225.335 873.391,230.504 878.572 C 236.935 885.015,247.045 887.578,255.767 884.975 C 264.012 882.516,274.120 872.319,275.587 864.980 C 276.181 862.012,276.667 788.277,276.667 701.125 C 276.667 606.075,277.273 543.300,278.181 544.250 C 279.014 545.121,308.335 594.583,343.339 654.167 C 378.343 713.750,408.599 764.259,410.575 766.408 C 416.686 773.058,423.058 775.445,432.356 774.568 C 437.019 774.128,442.146 773.215,443.750 772.539 C 446.423 771.413,446.667 772.804,446.667 789.178 C 446.667 804.113,447.228 808.046,450.089 813.135 C 458.376 827.879,477.089 832.241,489.502 822.322 C 502.530 811.912,501.661 823.719,501.664 657.083 L 501.667 508.333 581.641 508.333 L 661.616 508.333 662.058 718.039 L 662.500 927.745 666.638 933.784 C 680.974 954.705,710.979 948.868,716.738 924.038 C 717.603 920.305,718.271 829.716,718.294 712.917 L 718.333 508.333 798.333 508.333 L 878.333 508.333 878.272 630.417 L 878.211 752.500 840.356 713.867 C 807.657 680.497,801.649 675.079,796.250 674.098 C 785.804 672.200,778.304 674.591,770.629 682.265 C 762.156 690.739,759.807 700.655,763.933 710.532 C 765.529 714.352,783.641 734.347,812.132 763.742 C 837.235 789.642,864.366 817.958,872.423 826.667 C 889.633 845.268,894.381 848.333,905.978 848.333 C 915.859 848.333,923.550 844.025,929.544 835.131 L 933.333 829.507 933.333 651.337 C 933.333 459.242,933.764 468.801,924.742 460.625 C 916.287 452.963,918.037 453.081,815.716 453.267 L 718.333 453.443 718.333 405.888 L 718.333 358.333 778.333 358.333 L 838.333 358.333 838.333 366.104 C 838.333 381.241,851.553 395.000,866.097 395.000 C 874.544 395.000,885.192 388.204,889.495 380.067 L 893.333 372.809 893.306 265.988 L 893.278 159.167 889.522 152.534 C 879.079 134.096,852.587 134.096,842.145 152.534 C 838.409 159.131,838.388 159.557,838.361 231.250 L 838.333 303.333 778.333 303.333 L 718.333 303.333 718.294 190.417 C 718.272 128.313,717.571 74.558,716.738 70.962 C 712.250 51.613,692.224 42.513,675.833 52.377 " stroke="none" fill-rule="evenodd" fill="#000000"></path></svg>