<svg width="1000" height="1000" viewBox="0 0 1000 1000" version="1.1" id="svg5" sodipodi:docname="顔.svg" inkscape:version="1.3 (0e150ed6c4, 2023-07-21)" xml:space="preserve" xmlns:inkscape="http://www.inkscape.org/namespaces/inkscape" xmlns:sodipodi="http://sodipodi.sourceforge.net/DTD/sodipodi-0.dtd" xmlns="http://www.w3.org/2000/svg" xmlns:svg="http://www.w3.org/2000/svg"><path d="M162.500 136.658 C 158.833 138.486,153.958 142.743,151.667 146.118 L 147.500 152.256 147.062 513.211 C 146.765 758.271,147.181 876.864,148.357 882.566 C 151.386 897.242,162.745 905.876,177.423 904.659 C 193.740 903.306,201.498 893.732,202.904 873.212 L 203.810 860.000 500.024 860.000 L 796.238 860.000 797.005 873.244 C 797.621 883.876,798.619 887.768,802.070 892.983 C 812.212 908.309,834.772 909.049,846.835 894.452 C 848.480 892.462,850.615 887.234,851.580 882.835 C 853.816 872.632,853.970 165.587,851.738 155.962 C 849.651 146.968,845.277 141.500,836.633 137.083 L 829.294 133.333 499.230 133.335 C 172.867 133.336,169.092 133.373,162.500 136.658 M796.667 496.667 L 796.667 805.000 500.000 805.000 L 203.333 805.000 203.333 496.667 L 203.333 188.333 500.000 188.333 L 796.667 188.333 796.667 496.667 M488.367 235.417 C 479.723 239.834,475.349 245.301,473.262 254.296 C 472.398 258.024,471.729 346.954,471.706 461.250 L 471.667 661.667 373.280 661.667 C 264.859 661.667,267.500 661.426,259.400 672.046 C 251.139 682.876,251.551 695.956,260.473 706.117 C 263.392 709.443,268.206 713.176,271.170 714.415 C 279.171 717.758,720.829 717.758,728.830 714.415 C 731.794 713.176,736.608 709.443,739.527 706.117 C 748.449 695.956,748.861 682.876,740.600 672.046 C 732.500 661.426,735.141 661.667,626.720 661.667 L 528.333 661.667 528.294 461.250 C 528.271 346.954,527.602 258.024,526.738 254.296 C 525.904 250.700,523.815 245.825,522.096 243.462 C 518.328 238.282,505.936 231.667,500.000 231.667 C 497.638 231.667,492.404 233.354,488.367 235.417 M687.258 325.995 C 684.374 327.417,680.496 330.213,678.638 332.207 C 676.781 334.202,668.382 353.083,659.973 374.167 C 635.180 436.334,610.513 484.468,586.160 518.201 C 577.144 530.691,575.929 533.316,575.354 541.553 C 574.817 549.228,575.386 551.836,578.642 556.627 C 587.227 569.260,601.374 573.459,614.447 567.255 C 620.582 564.344,631.515 550.630,646.140 527.500 C 671.100 488.026,688.059 452.906,714.525 385.888 C 724.743 360.013,726.853 353.114,726.149 347.869 C 723.722 329.776,703.103 318.179,687.258 325.995 M288.582 339.494 C 280.482 343.485,274.428 353.465,274.304 363.031 C 274.215 369.992,277.644 377.487,306.088 432.500 C 323.624 466.417,344.549 508.042,352.587 525.000 C 368.556 558.690,372.723 565.404,380.003 569.168 C 387.380 572.983,400.118 572.385,406.684 567.917 C 416.169 561.461,419.167 555.939,419.167 544.923 C 419.167 535.389,417.845 532.458,375.434 447.962 C 351.381 400.041,329.256 357.109,326.267 352.557 C 318.976 341.452,311.586 336.656,301.837 336.705 C 297.618 336.725,291.654 337.981,288.582 339.494 " stroke="none" fill-rule="evenodd" fill="#000000"></path></svg>