<svg width="1000" height="1000" viewBox="0 0 1000 1000" version="1.1" id="svg5" sodipodi:docname="飛.svg" inkscape:version="1.3.2 (091e20e, 2023-11-25, custom)" xmlns:inkscape="http://www.inkscape.org/namespaces/inkscape" xmlns:sodipodi="http://sodipodi.sourceforge.net/DTD/sodipodi-0.dtd" xmlns="http://www.w3.org/2000/svg" xmlns:svg="http://www.w3.org/2000/svg"><path d="M255.614 106.814 C 248.715 108.813,238.743 120.026,237.675 126.984 C 237.209 130.018,236.483 181.496,236.062 241.380 C 235.640 301.265,234.866 350.689,234.343 351.213 C 233.819 351.736,222.043 354.702,208.172 357.804 C 180.239 364.051,175.704 365.868,169.432 373.323 C 161.595 382.635,161.521 395.957,169.248 406.088 C 178.030 417.602,186.000 419.120,210.332 413.914 C 220.691 411.698,230.479 409.485,232.083 408.996 C 234.807 408.168,235.000 410.853,235.000 449.515 C 235.000 509.832,238.599 532.640,252.565 560.833 C 267.653 591.291,289.761 610.670,319.572 619.567 C 328.387 622.198,346.679 622.471,544.623 622.935 C 692.494 623.282,762.134 622.887,766.630 621.677 C 786.793 616.247,794.069 596.693,782.793 578.235 C 764.984 549.083,710.837 466.921,707.383 463.810 C 693.618 451.410,671.013 457.675,664.087 475.809 C 662.261 480.591,661.647 485.206,662.343 488.917 C 662.940 492.098,673.636 510.473,686.396 530.239 L 709.375 565.833 522.342 566.257 C 340.299 566.670,335.108 566.594,327.750 563.441 C 312.219 556.783,299.338 537.761,293.817 513.333 C 291.501 503.085,290.978 491.476,290.913 448.889 C 290.869 420.319,291.292 396.486,291.852 395.925 C 292.413 395.365,306.905 391.192,324.058 386.651 C 441.681 355.517,536.470 321.452,627.500 277.600 C 659.065 262.394,709.505 235.205,718.059 228.786 C 731.100 218.998,734.083 202.803,725.124 190.435 C 719.313 182.414,708.005 177.316,699.706 178.975 C 696.761 179.565,680.524 187.640,663.624 196.920 C 560.659 253.464,447.784 297.139,313.750 332.299 L 291.667 338.092 291.667 233.321 C 291.667 163.496,291.077 126.985,289.898 123.858 C 287.267 116.881,278.442 108.521,271.741 106.660 C 264.850 104.745,262.677 104.766,255.614 106.814 M652.500 677.362 C 636.707 684.411,630.730 704.761,640.584 717.926 C 643.693 722.080,832.004 898.404,848.755 912.847 C 860.434 922.916,873.895 923.255,885.175 913.764 C 894.438 905.970,897.357 893.868,892.677 882.665 C 889.736 875.628,682.792 682.163,673.709 677.960 C 666.288 674.526,659.295 674.329,652.500 677.362 M300.833 679.436 C 291.060 684.589,288.629 688.376,282.422 708.123 C 259.291 781.713,205.311 836.012,130.833 860.608 C 113.010 866.494,107.793 869.954,103.561 878.697 C 99.019 888.078,99.066 894.109,103.750 903.390 C 108.145 912.098,117.725 918.264,126.922 918.306 C 135.132 918.343,163.388 908.386,185.959 897.504 C 254.568 864.423,307.687 804.656,332.609 732.500 C 340.507 709.632,341.125 698.496,335.000 689.442 C 327.435 678.261,311.767 673.672,300.833 679.436 " stroke="none" fill-rule="evenodd" fill="black"></path></svg>