<svg width="1000" height="1000" viewBox="0 0 1000 1000" version="1.1" id="svg5" sodipodi:docname="高.svg" inkscape:version="1.3 (0e150ed6c4, 2023-07-21)" xmlns:inkscape="http://www.inkscape.org/namespaces/inkscape" xmlns:sodipodi="http://sodipodi.sourceforge.net/DTD/sodipodi-0.dtd" xmlns="http://www.w3.org/2000/svg" xmlns:svg="http://www.w3.org/2000/svg"><path d="M400.614 45.074 C 393.551 47.220,383.792 58.363,382.379 65.895 C 380.016 78.487,382.654 82.362,429.207 134.697 L 473.212 184.167 332.023 185.000 C 201.675 185.769,190.424 186.057,185.503 188.748 C 172.047 196.106,166.887 211.874,173.643 224.987 C 178.495 234.404,186.063 239.493,197.167 240.805 C 201.934 241.368,337.458 241.605,498.333 241.331 C 770.871 240.867,791.189 240.638,796.051 237.977 C 813.105 228.640,816.708 207.983,803.574 194.849 C 800.192 191.467,794.442 187.871,790.796 186.859 C 786.248 185.596,747.011 185.014,665.833 185.004 L 547.500 184.989 486.858 116.826 C 453.504 79.336,424.417 47.844,422.220 46.842 C 416.188 44.094,406.461 43.298,400.614 45.074 M189.167 522.487 C 180.095 525.672,172.099 535.144,170.720 544.340 C 169.850 550.141,170.430 553.246,173.564 559.561 C 178.715 569.945,185.762 574.476,198.809 575.793 C 204.506 576.368,340.042 576.612,500.000 576.336 C 770.958 575.868,791.190 575.638,796.051 572.977 C 807.687 566.606,813.275 554.958,810.871 542.083 C 809.276 533.544,797.826 522.568,788.989 521.108 C 785.420 520.519,650.500 520.061,489.167 520.091 C 241.677 520.138,194.791 520.512,189.167 522.487 M60.614 856.807 C 53.670 858.828,43.798 869.996,42.409 877.401 C 40.055 889.945,45.757 901.667,57.282 907.977 C 62.164 910.649,89.506 910.866,481.667 911.334 C 712.208 911.609,905.494 911.365,911.191 910.791 C 922.927 909.608,930.390 905.435,936.210 896.797 C 943.845 885.469,939.673 868.575,927.117 859.971 L 921.078 855.833 493.456 855.560 C 240.024 855.399,63.707 855.907,60.614 856.807 " stroke="none" fill-rule="evenodd" fill="#000000"></path></svg>