<svg width="1000" height="1000" viewBox="0 0 1000 1000" version="1.1" id="svg5" sodipodi:docname="龍.svg" inkscape:version="1.3 (0e150ed6c4, 2023-07-21)" xmlns:inkscape="http://www.inkscape.org/namespaces/inkscape" xmlns:sodipodi="http://sodipodi.sourceforge.net/DTD/sodipodi-0.dtd" xmlns="http://www.w3.org/2000/svg" xmlns:svg="http://www.w3.org/2000/svg"><path d="M315.833 60.705 C 313.083 61.937,309.063 64.639,306.900 66.709 C 299.174 74.100,298.333 79.072,298.333 117.401 L 298.333 153.242 186.953 153.705 L 75.572 154.167 69.418 158.861 C 61.239 165.101,58.070 170.259,57.185 178.774 C 56.304 187.248,61.639 198.795,68.871 204.069 C 73.481 207.431,75.823 207.517,185.538 208.333 L 297.500 209.167 297.500 266.667 L 297.500 324.167 229.703 325.000 C 164.202 325.805,161.747 325.951,157.203 329.320 C 148.930 335.453,145.000 342.918,145.000 352.500 C 145.000 363.506,149.792 371.118,159.950 376.250 L 167.373 380.000 455.353 380.000 L 743.333 380.000 743.333 465.820 L 743.333 551.639 451.120 552.070 L 158.907 552.500 152.610 557.303 C 141.273 565.950,141.666 561.472,141.676 682.030 C 141.688 814.493,142.701 824.564,159.356 857.916 C 175.919 891.086,202.770 909.791,250.000 921.062 C 261.729 923.862,281.372 924.080,568.333 924.607 C 780.978 924.998,876.024 924.629,880.262 923.397 C 892.577 919.818,901.661 903.655,898.267 891.362 C 896.634 885.448,800.060 747.815,790.062 737.154 C 771.539 717.402,736.424 738.180,744.904 763.875 C 745.922 766.960,762.462 791.538,781.659 818.492 C 800.857 845.447,816.587 868.080,816.615 868.788 C 816.644 869.497,693.104 869.845,542.083 869.562 C 292.618 869.094,266.468 868.793,256.223 866.272 C 238.552 861.922,225.915 855.490,217.620 846.623 C 209.212 837.633,206.044 831.229,201.155 813.333 C 197.935 801.546,197.703 795.297,197.095 703.750 L 196.450 606.667 488.812 606.667 L 781.174 606.667 786.837 602.903 C 789.952 600.833,794.188 595.799,796.250 591.717 L 800.000 584.294 799.960 469.230 C 799.938 405.945,799.238 351.225,798.404 347.629 C 796.674 340.170,792.675 334.236,786.029 329.270 C 781.749 326.071,778.535 325.776,739.466 325.000 L 697.500 324.167 697.500 266.667 L 697.500 209.167 817.574 208.333 C 932.501 207.536,937.858 207.363,942.542 204.293 C 952.810 197.564,957.465 186.763,954.934 175.542 C 953.005 166.988,948.516 161.452,939.966 157.083 L 932.627 153.333 814.647 153.333 L 696.667 153.333 696.667 116.502 C 696.667 74.988,695.809 71.085,685.156 64.119 C 673.177 56.286,662.164 56.739,652.216 65.473 C 642.318 74.164,641.667 77.372,641.667 117.446 L 641.667 153.333 497.500 153.333 L 353.333 153.333 353.333 117.446 C 353.333 78.355,352.617 74.455,343.955 66.356 C 335.444 58.398,325.458 56.391,315.833 60.705 M641.667 266.676 L 641.667 325.019 497.917 324.593 L 354.167 324.167 353.727 268.345 C 353.485 237.643,353.649 211.581,354.091 210.429 C 354.728 208.769,384.678 208.333,498.281 208.333 L 641.667 208.333 641.667 266.676 " stroke="none" fill-rule="evenodd" fill="black"></path></svg>