<svg width="1000" height="1000" viewBox="0 0 1000 1000" version="1.1" id="svg5" xmlns="http://www.w3.org/2000/svg" xmlns:svg="http://www.w3.org/2000/svg"><path d="M607.500 147.271 C 601.238 150.180,594.094 157.715,591.773 163.858 C 590.544 167.109,590.000 259.492,590.000 464.641 L 590.000 760.731 554.583 725.511 C 525.351 696.441,518.002 689.986,512.500 688.544 C 500.112 685.297,488.298 690.431,481.779 701.894 C 477.917 708.685,477.286 720.418,480.476 726.116 C 483.869 732.179,603.548 851.831,607.858 853.469 C 620.172 858.151,635.164 852.115,641.270 840.016 L 645.040 832.546 644.603 499.190 C 644.192 185.406,643.996 165.520,641.252 160.503 C 634.584 148.310,618.683 142.077,607.500 147.271 M370.833 228.232 C 367.167 230.110,362.292 234.409,360.000 237.785 L 355.833 243.922 355.374 436.544 C 354.863 650.813,354.259 638.785,365.993 647.735 C 372.753 652.891,384.395 654.679,391.647 651.675 C 398.423 648.868,406.095 639.827,408.233 632.129 C 410.451 624.142,410.614 257.159,408.404 247.629 C 404.215 229.568,386.288 220.312,370.833 228.232 " stroke="none" fill-rule="evenodd" fill="#000000"></path></svg>