<svg width="1000" height="1000" viewBox="0 0 1000 1000" version="1.1" id="svg5" sodipodi:docname="！.svg" inkscape:version="1.2.1 (9c6d41e410, 2022-07-14)" xmlns:inkscape="http://www.inkscape.org/namespaces/inkscape" xmlns:sodipodi="http://sodipodi.sourceforge.net/DTD/sodipodi-0.dtd" xmlns="http://www.w3.org/2000/svg" xmlns:svg="http://www.w3.org/2000/svg"><path d="M607.500 147.271 C 601.238 150.180,594.094 157.715,591.773 163.858 C 590.544 167.109,590.000 259.493,590.000 464.642 L 590.000 760.733 553.750 724.664 C 522.494 693.564,516.617 688.432,511.089 687.415 C 489.974 683.530,472.142 705.829,480.659 725.470 C 481.962 728.477,509.976 757.696,544.409 791.964 C 609.956 857.198,610.199 857.391,622.906 854.220 C 629.321 852.619,637.795 845.819,641.252 839.497 C 644.000 834.472,644.167 815.034,644.167 500.000 C 644.167 184.966,644.000 165.528,641.252 160.503 C 634.584 148.310,618.683 142.077,607.500 147.271 M370.833 228.232 C 367.167 230.110,362.292 234.409,360.000 237.785 L 355.833 243.922 355.374 436.544 C 354.863 650.813,354.259 638.785,365.993 647.735 C 372.753 652.891,384.395 654.679,391.647 651.675 C 398.423 648.868,406.095 639.827,408.233 632.129 C 410.451 624.142,410.614 257.159,408.404 247.629 C 404.215 229.568,386.288 220.312,370.833 228.232 " stroke="none" fill-rule="evenodd" fill="black"></path></svg>