<svg width="1000" height="1000" viewBox="0 0 1000 1000" version="1.1" id="svg5" sodipodi:docname="？.svg" inkscape:version="1.2.1 (9c6d41e410, 2022-07-14)" xmlns:inkscape="http://www.inkscape.org/namespaces/inkscape" xmlns:sodipodi="http://sodipodi.sourceforge.net/DTD/sodipodi-0.dtd" xmlns="http://www.w3.org/2000/svg" xmlns:svg="http://www.w3.org/2000/svg"><path d="M267.500 176.533 C 246.883 181.571,238.175 204.653,251.098 220.011 C 260.859 231.611,246.258 230.743,447.194 231.667 L 628.554 232.500 579.694 274.233 C 552.820 297.186,467.833 369.764,390.833 435.517 C 239.595 564.664,221.092 581.145,208.347 598.066 C 197.010 613.117,186.094 634.631,180.676 652.603 C 174.546 672.935,174.124 701.102,179.659 720.499 C 193.312 768.347,230.598 804.042,281.779 818.261 C 305.125 824.747,323.423 825.155,568.333 824.652 L 804.167 824.167 810.333 820.333 C 818.846 815.039,823.704 806.617,823.797 796.989 C 823.864 789.950,819.562 780.855,780.839 706.175 C 751.641 649.868,736.417 622.197,733.486 620.115 C 722.148 612.057,707.487 612.973,697.534 622.360 C 691.404 628.141,687.449 639.519,689.151 646.474 C 689.738 648.872,703.669 676.816,720.109 708.573 C 736.549 740.329,750.000 766.767,750.000 767.323 C 750.000 767.878,651.120 768.333,530.267 768.333 C 318.572 768.333,310.073 768.216,297.944 765.114 C 265.245 756.751,240.756 734.654,233.354 706.833 C 232.281 702.800,231.407 693.800,231.412 686.833 C 231.430 658.414,248.847 628.414,280.665 601.996 C 288.060 595.857,390.873 508.062,509.139 406.897 C 637.229 297.328,725.679 220.510,727.908 216.897 C 735.343 204.848,731.318 188.561,718.784 179.971 L 712.745 175.833 492.623 175.572 C 371.555 175.428,270.250 175.861,267.500 176.533 " stroke="none" fill-rule="evenodd" fill="black"></path></svg>