<svg width="500" height="1000" viewBox="0 0 499.99998110236197 1000" version="1.1" id="svg5" sodipodi:docname="ａ.svg" inkscape:version="1.3 (0e150ed6c4, 2023-07-21)" xml:space="preserve" xmlns:inkscape="http://www.inkscape.org/namespaces/inkscape" xmlns:sodipodi="http://sodipodi.sourceforge.net/DTD/sodipodi-0.dtd" xmlns="http://www.w3.org/2000/svg" xmlns:svg="http://www.w3.org/2000/svg"><path d="M67.001 173.388 C 61.870 175.362,56.159 180.783,53.360 186.336 C 51.718 189.592,51.303 191.679,51.303 196.667 C 51.303 201.654,51.718 203.741,53.360 206.998 C 56.243 212.719,61.858 217.973,67.238 219.986 C 71.684 221.650,73.332 221.667,232.531 221.667 C 385.121 221.667,393.333 221.741,393.333 223.125 C 393.333 223.927,391.846 231.333,390.030 239.583 C 359.294 379.197,290.174 525.724,190.140 663.333 C 160.059 704.712,123.599 749.433,96.567 778.107 C 84.614 790.786,82.353 794.784,82.353 803.243 C 82.353 816.511,92.427 827.355,105.526 828.190 C 115.033 828.795,118.023 827.177,130.486 814.681 C 155.400 789.702,197.188 738.722,231.609 691.316 C 343.727 536.902,417.753 372.373,446.292 214.167 C 449.114 198.526,449.290 196.670,448.383 192.190 C 446.633 183.543,440.616 176.317,432.677 173.327 C 428.326 171.687,426.050 171.667,249.760 171.710 C 74.474 171.753,71.173 171.783,67.001 173.388 " stroke="none" fill-rule="evenodd" fill="black"></path></svg>