<svg width="500" height="1000" viewBox="0 0 499.99998110236197 1000" version="1.1" id="svg5" xmlns="http://www.w3.org/2000/svg" xmlns:svg="http://www.w3.org/2000/svg"><path d="M242.083 152.782 C 234.196 155.395,229.798 159.349,222.469 170.417 C 193.514 214.138,168.262 242.961,139.167 265.499 C 123.806 277.398,96.463 294.679,78.333 303.946 C 66.024 310.238,60.390 315.384,57.576 322.905 L 55.833 327.563 55.833 574.574 C 55.833 750.885,56.096 822.849,56.749 826.001 C 58.612 834.978,65.831 843.308,74.625 846.627 C 87.461 851.471,102.735 845.257,108.912 832.679 C 111.008 828.409,111.293 826.798,111.667 817.083 L 112.083 806.250 250.000 806.250 L 387.917 806.250 388.333 817.083 C 388.707 826.798,388.992 828.409,391.088 832.679 C 397.265 845.257,412.539 851.471,425.375 846.627 C 434.169 843.308,441.388 834.978,443.251 826.001 C 444.550 819.738,444.550 333.595,443.251 327.333 C 441.528 319.027,435.024 310.981,427.083 307.332 L 422.917 305.417 301.368 305.000 L 179.820 304.583 186.380 299.092 C 207.727 281.223,229.415 257.135,250.306 228.089 C 262.842 210.661,272.855 195.909,274.951 191.780 C 281.895 178.103,275.326 160.318,260.980 153.957 C 256.169 151.824,246.745 151.238,242.083 152.782 M388.333 555.417 L 388.333 750.000 250.000 750.000 L 111.667 750.000 111.667 555.972 C 111.667 449.257,111.917 361.694,112.222 361.389 C 112.528 361.083,174.778 360.833,250.556 360.833 L 388.333 360.833 388.333 555.417 " stroke="none" fill-rule="evenodd" fill="black"></path></svg>