<svg width="500" height="1000" viewBox="0 0 499.99998110236197 1000" version="1.1" id="svg5" sodipodi:docname="ｃ.svg" inkscape:version="1.3 (0e150ed6c4, 2023-07-21)" xml:space="preserve" xmlns:inkscape="http://www.inkscape.org/namespaces/inkscape" xmlns:sodipodi="http://sodipodi.sourceforge.net/DTD/sodipodi-0.dtd" xmlns="http://www.w3.org/2000/svg" xmlns:svg="http://www.w3.org/2000/svg"><path d="M57.342 152.059 C 52.212 153.472,48.456 155.859,44.338 160.327 C 40.045 164.984,38.730 167.578,37.507 173.796 C 36.357 179.640,37.269 186.314,39.931 191.532 C 42.212 196.002,48.056 201.657,52.988 204.167 L 57.083 206.250 221.042 206.467 C 332.353 206.614,385.000 206.957,385.000 207.538 C 385.000 210.168,355.066 252.526,337.620 274.583 C 307.016 313.276,268.112 352.791,238.932 374.819 C 228.732 382.520,225.393 386.444,223.313 393.178 C 221.693 398.423,221.666 401.680,221.653 594.463 L 221.640 790.417 215.612 784.143 C 191.293 758.835,187.499 755.148,184.056 753.481 C 169.765 746.563,153.555 752.131,146.548 766.364 C 144.228 771.077,143.860 772.701,143.860 778.211 C 143.860 783.267,144.297 785.551,145.961 789.185 C 148.383 794.476,148.201 794.275,196.456 845.159 C 228.198 878.632,233.166 883.536,237.549 885.726 C 246.801 890.350,256.174 889.955,264.612 884.586 C 272.035 879.864,276.022 873.752,277.459 864.892 C 278.037 861.333,278.323 786.285,278.327 637.203 L 278.333 414.823 280.625 413.038 C 288.117 407.203,304.045 392.996,316.908 380.675 C 354.455 344.710,392.093 298.728,426.253 247.083 C 449.328 212.198,461.859 190.190,462.882 182.750 C 464.752 169.154,455.645 155.573,442.271 152.012 C 436.041 150.354,63.369 150.399,57.342 152.059 " stroke="none" fill-rule="evenodd" fill="black"></path></svg>