<svg width="500" height="1000" viewBox="0 0 499.99998110236197 1000" version="1.1" id="svg5" sodipodi:docname="ｄ.svg" inkscape:version="1.3 (0e150ed6c4, 2023-07-21)" xmlns:inkscape="http://www.inkscape.org/namespaces/inkscape" xmlns:sodipodi="http://sodipodi.sourceforge.net/DTD/sodipodi-0.dtd" xmlns="http://www.w3.org/2000/svg" xmlns:svg="http://www.w3.org/2000/svg"><path d="M77.279 166.740 C 69.418 168.592,62.050 174.711,58.459 182.371 L 56.250 187.083 56.250 499.583 L 56.250 812.083 58.446 816.767 C 62.661 825.756,69.934 831.517,79.167 833.182 C 91.215 835.354,103.438 829.106,109.167 817.845 C 111.122 814.002,111.276 812.751,111.667 797.500 L 112.083 781.250 250.000 781.250 L 387.917 781.250 388.333 797.500 C 388.724 812.751,388.878 814.002,390.833 817.845 C 401.763 839.327,431.270 838.700,441.554 816.767 L 443.750 812.083 443.750 500.000 L 443.750 187.917 441.554 183.233 C 437.284 174.126,430.094 168.501,420.472 166.739 C 414.331 165.614,82.052 165.616,77.279 166.740 M221.667 473.756 L 221.667 725.012 166.875 724.798 L 112.083 724.583 111.874 473.542 L 111.664 222.500 166.665 222.500 L 221.667 222.500 221.667 473.756 M388.126 473.542 L 387.917 724.583 333.125 724.798 L 278.333 725.012 278.333 473.756 L 278.333 222.500 333.335 222.500 L 388.336 222.500 388.126 473.542 " stroke="none" fill-rule="evenodd" fill="black"></path></svg>