<svg width="500" height="1000" viewBox="0 0 499.99998110236197 1000" version="1.1" id="svg5" sodipodi:docname="ｅ.svg" inkscape:version="1.3 (0e150ed6c4, 2023-07-21)" xml:space="preserve" xmlns:inkscape="http://www.inkscape.org/namespaces/inkscape" xmlns:sodipodi="http://sodipodi.sourceforge.net/DTD/sodipodi-0.dtd" xmlns="http://www.w3.org/2000/svg" xmlns:svg="http://www.w3.org/2000/svg"><path d="M224.453 145.035 C 216.911 146.527,208.729 152.630,205.361 159.276 C 203.910 162.139,179.872 262.043,125.229 492.308 C 56.291 782.807,47.165 822.029,47.138 827.917 C 47.102 835.975,48.890 840.494,54.479 846.469 C 63.503 856.116,77.157 858.120,88.450 851.454 C 90.449 850.275,149.646 806.551,220.000 754.290 C 290.354 702.029,348.163 659.528,348.465 659.843 C 348.766 660.159,360.319 700.354,374.138 749.167 C 389.344 802.877,400.049 839.260,401.252 841.320 C 403.971 845.972,409.291 850.598,414.900 853.186 C 424.858 857.781,437.505 855.039,445.430 846.566 C 450.989 840.623,452.823 836.006,452.837 827.917 C 452.848 821.649,451.073 814.993,423.162 716.667 C 406.834 659.146,392.743 609.458,391.850 606.250 C 379.968 563.573,331.170 392.483,329.816 388.750 C 327.333 381.908,320.628 375.151,313.744 372.554 C 309.697 371.028,307.564 370.738,302.500 371.028 C 291.606 371.653,283.791 376.828,278.616 386.845 C 276.702 390.550,276.337 392.309,276.321 397.917 C 276.303 404.189,277.937 410.334,303.984 501.925 C 319.210 555.463,331.645 599.901,331.619 600.675 C 331.571 602.110,121.114 758.892,120.312 758.090 C 120.088 757.865,150.907 626.878,188.801 467.008 C 253.603 193.611,257.675 175.985,257.314 170.459 C 256.929 164.568,255.168 159.914,251.390 154.804 C 248.697 151.161,241.731 146.845,236.283 145.444 C 230.867 144.051,229.639 144.009,224.453 145.035 " stroke="none" fill-rule="evenodd" fill="black"></path></svg>