<svg width="500" height="1000" viewBox="0 0 499.99998110236197 1000" version="1.1" id="svg5" sodipodi:docname="ｇ.svg" inkscape:version="1.3 (0e150ed6c4, 2023-07-21)" xml:space="preserve" xmlns:inkscape="http://www.inkscape.org/namespaces/inkscape" xmlns:sodipodi="http://sodipodi.sourceforge.net/DTD/sodipodi-0.dtd" xmlns="http://www.w3.org/2000/svg" xmlns:svg="http://www.w3.org/2000/svg"><path d="M105.833 155.779 C 98.965 157.876,91.325 164.135,88.231 170.200 C 84.269 177.967,84.490 188.933,88.757 196.298 C 91.361 200.793,97.541 206.392,102.354 208.616 L 106.250 210.417 240.208 210.637 C 335.566 210.795,374.167 211.118,374.167 211.760 C 374.167 212.255,373.051 219.281,371.687 227.372 C 358.775 303.968,332.662 390.783,295.618 480.271 C 292.236 488.440,289.187 495.126,288.843 495.128 C 288.499 495.129,261.069 471.007,227.887 441.524 C 186.363 404.628,166.072 387.137,162.795 385.417 C 158.575 383.201,157.223 382.918,150.892 382.925 C 142.433 382.934,138.038 384.600,132.151 390.027 C 127.217 394.575,125.341 397.703,123.696 404.121 C 122.610 408.362,122.523 410.311,123.241 414.384 C 124.188 419.758,126.533 424.997,129.452 428.259 C 130.441 429.364,161.327 457.009,198.089 489.693 L 264.927 549.119 261.973 555.601 C 249.361 583.275,214.247 649.807,191.258 689.583 C 154.380 753.393,107.641 825.207,71.145 874.135 C 57.936 891.843,57.162 893.416,57.188 902.500 C 57.212 910.841,58.757 914.973,64.107 921.011 C 71.401 929.242,82.788 932.254,93.561 928.801 C 101.527 926.249,105.647 921.836,125.121 895.000 C 184.806 812.752,247.009 710.240,294.642 615.625 C 302.199 600.615,308.544 588.333,308.742 588.333 C 308.940 588.333,329.835 606.761,355.176 629.284 C 389.172 659.499,402.451 670.804,405.833 672.409 C 412.330 675.491,421.716 675.466,428.457 672.347 C 434.181 669.699,439.164 664.875,442.256 658.987 C 444.287 655.119,444.569 653.664,444.576 647.031 C 444.589 633.491,447.537 636.768,386.603 582.591 C 357.534 556.745,333.643 535.330,333.512 535.002 C 333.381 534.673,337.176 525.257,341.946 514.077 C 388.906 404.007,419.259 298.893,432.134 201.749 C 434.634 182.890,434.666 178.896,432.364 172.746 C 429.903 166.166,423.000 159.264,416.421 156.802 L 411.604 155.000 259.760 155.072 C 176.246 155.111,106.979 155.429,105.833 155.779 " stroke="none" fill-rule="evenodd" fill="black"></path></svg>