<svg width="500" height="1000" viewBox="0 0 499.99998110236197 1000" version="1.1" id="svg5" xml:space="preserve" sodipodi:docname="ｈ.svg" inkscape:version="1.3 (0e150ed6c4, 2023-07-21)" xmlns:inkscape="http://www.inkscape.org/namespaces/inkscape" xmlns:sodipodi="http://sodipodi.sourceforge.net/DTD/sodipodi-0.dtd" xmlns="http://www.w3.org/2000/svg" xmlns:svg="http://www.w3.org/2000/svg"><path d="M71.313 137.069 C 52.611 144.758,47.979 169.253,62.635 182.963 C 70.467 190.288,70.816 190.359,101.667 190.833 L 128.750 191.250 129.167 517.917 L 129.583 844.583 131.922 849.345 C 138.052 861.829,153.381 868.135,166.008 863.368 C 168.625 862.380,172.413 860.187,174.426 858.494 C 176.439 856.802,234.673 795.320,303.835 721.869 C 400.922 618.760,430.248 587.136,432.500 583.119 C 435.197 578.309,435.417 577.382,435.417 570.833 C 435.417 562.276,433.158 556.649,427.421 550.912 C 421.767 545.258,416.019 542.910,407.917 542.946 C 399.841 542.981,394.113 545.307,388.277 550.922 C 386.184 552.936,339.744 602.115,285.078 660.208 C 230.411 718.302,185.530 765.833,185.342 765.833 C 185.154 765.833,185.000 636.463,185.000 478.344 L 185.000 190.856 303.958 190.636 L 422.917 190.417 427.083 188.502 C 435.271 184.739,441.690 176.352,443.381 167.209 C 445.640 154.987,437.631 141.308,425.573 136.797 L 420.771 135.000 248.510 135.020 L 76.250 135.040 71.313 137.069 " stroke="none" fill-rule="evenodd" fill="black"></path></svg>