<svg width="500" height="1000" viewBox="0 0 499.99998110236197 1000" version="1.1" id="svg5" sodipodi:docname="ｉ.svg" inkscape:version="1.3 (0e150ed6c4, 2023-07-21)" xml:space="preserve" xmlns:inkscape="http://www.inkscape.org/namespaces/inkscape" xmlns:sodipodi="http://sodipodi.sourceforge.net/DTD/sodipodi-0.dtd" xmlns="http://www.w3.org/2000/svg" xmlns:svg="http://www.w3.org/2000/svg"><path d="M136.672 198.551 C 127.845 199.824,120.160 205.889,115.958 214.900 L 113.773 219.583 113.240 267.500 C 112.947 293.854,112.468 320.854,112.177 327.500 C 111.885 334.146,111.264 348.396,110.797 359.167 C 107.341 438.792,99.736 514.182,88.722 577.999 C 75.229 656.187,55.312 722.397,35.170 756.026 C 29.685 765.185,28.851 768.038,29.385 775.830 C 30.091 786.130,35.638 794.401,44.882 798.941 C 48.900 800.914,50.614 801.250,56.667 801.250 C 62.562 801.250,64.528 800.885,68.389 799.074 C 74.348 796.280,78.822 791.667,81.480 785.577 C 82.642 782.916,83.837 781.133,84.135 781.615 C 84.918 782.882,93.959 765.116,100.436 749.583 C 132.696 672.226,155.663 548.038,164.549 402.917 C 167.255 358.729,169.163 307.889,169.165 279.914 C 169.166 271.387,169.408 262.106,169.702 259.289 L 170.237 254.167 246.369 254.167 L 322.500 254.167 322.508 460.208 C 322.515 665.512,322.744 684.908,325.460 710.000 C 330.936 760.589,345.928 785.874,376.968 796.869 C 388.903 801.097,395.445 801.660,432.699 801.663 C 463.995 801.666,466.973 801.543,470.800 800.089 C 482.337 795.706,490.081 783.645,488.928 771.855 C 488.443 766.890,444.453 616.377,441.912 610.986 C 439.892 606.701,433.696 600.728,428.750 598.298 C 425.252 596.579,423.379 596.252,417.083 596.263 C 410.467 596.274,409.014 596.563,404.746 598.712 C 399.169 601.521,395.196 605.588,391.916 611.845 C 389.906 615.679,389.611 617.168,389.643 623.333 C 389.677 630.065,390.516 633.241,406.506 687.232 C 415.761 718.481,423.333 744.450,423.333 744.941 C 423.333 746.133,403.970 746.131,398.408 744.938 C 390.589 743.261,387.906 739.508,384.602 725.628 C 381.935 714.423,380.257 698.969,379.148 675.417 C 378.541 662.521,378.304 584.935,378.424 438.285 L 378.602 220.319 376.342 215.368 C 373.620 209.404,368.564 203.982,362.917 200.972 L 358.750 198.750 315.000 198.543 C 194.833 197.973,140.664 197.975,136.672 198.551 " stroke="none" fill-rule="evenodd" fill="black"></path></svg>