<svg width="500" height="1000" viewBox="0 0 499.99998110236197 1000" version="1.1" id="svg5" sodipodi:docname="ｋ.svg" inkscape:version="1.3 (0e150ed6c4, 2023-07-21)" xml:space="preserve" xmlns:inkscape="http://www.inkscape.org/namespaces/inkscape" xmlns:sodipodi="http://sodipodi.sourceforge.net/DTD/sodipodi-0.dtd" xmlns="http://www.w3.org/2000/svg" xmlns:svg="http://www.w3.org/2000/svg"><path d="M103.373 155.973 C 99.317 157.142,92.221 162.033,89.605 165.462 C 85.372 171.012,83.820 175.693,83.820 182.917 C 83.820 188.045,84.254 190.545,85.698 193.750 C 88.143 199.174,94.999 206.078,100.345 208.498 L 104.583 210.417 228.971 210.638 L 353.358 210.860 352.830 213.138 C 339.363 271.151,317.447 328.617,286.074 388.179 L 278.750 402.083 278.333 341.250 L 277.917 280.417 275.517 275.221 C 272.729 269.185,266.869 263.267,261.014 260.574 C 255.454 258.017,244.546 258.017,238.986 260.574 C 233.131 263.267,227.271 269.185,224.483 275.221 L 222.083 280.417 221.854 388.179 L 221.624 495.942 211.110 511.096 C 169.971 570.386,116.922 635.820,72.174 682.468 C 59.030 696.171,57.085 699.666,57.085 709.583 C 57.085 715.073,57.479 717.092,59.318 721.017 C 61.962 726.660,67.325 732.132,72.963 734.940 C 78.947 737.920,87.949 738.275,94.583 735.793 C 98.925 734.169,101.016 732.485,110.462 723.003 C 135.192 698.179,179.931 645.970,210.444 606.328 L 221.250 592.289 221.667 724.269 L 222.083 856.250 224.279 860.933 C 228.392 869.705,235.203 875.410,244.047 877.492 C 253.008 879.601,263.329 876.475,269.795 869.695 C 272.595 866.758,426.952 659.139,437.260 644.444 C 442.218 637.377,444.030 630.092,442.579 623.066 C 441.200 616.392,439.001 612.254,434.518 607.897 C 428.462 602.011,424.289 600.415,415.000 600.429 C 408.048 600.440,406.566 600.713,402.840 602.668 C 400.506 603.892,396.756 606.935,394.507 609.429 C 392.257 611.923,365.292 647.884,334.583 689.343 L 278.750 764.723 278.539 638.081 L 278.328 511.439 281.832 505.928 C 312.477 457.725,334.140 419.167,352.449 380.234 C 383.928 313.297,402.498 257.005,412.586 197.940 C 414.884 184.483,415.044 182.454,414.160 177.960 C 413.618 175.209,412.491 171.617,411.655 169.978 C 409.364 165.487,403.471 160.002,398.333 157.579 L 393.750 155.417 250.000 155.280 C 156.689 155.191,105.240 155.434,103.373 155.973 " stroke="none" fill-rule="evenodd" fill="black"></path></svg>