<svg width="500" height="1000" viewBox="0 0 499.99998110236197 1000" version="1.1" id="svg5" sodipodi:docname="ｌ.svg" inkscape:version="1.3 (0e150ed6c4, 2023-07-21)" xmlns:inkscape="http://www.inkscape.org/namespaces/inkscape" xmlns:sodipodi="http://sodipodi.sourceforge.net/DTD/sodipodi-0.dtd" xmlns="http://www.w3.org/2000/svg" xmlns:svg="http://www.w3.org/2000/svg"><path d="M78.310 166.965 C 56.710 171.619,48.852 198.062,64.437 213.648 C 69.173 218.383,73.406 220.539,80.108 221.626 C 83.622 222.196,136.617 222.490,236.875 222.494 L 388.333 222.500 388.333 332.917 L 388.333 443.333 236.403 443.333 C 130.226 443.333,82.992 443.607,79.554 444.243 C 70.157 445.980,63.232 451.199,59.048 459.698 C 53.814 470.331,55.922 482.632,64.437 491.148 C 69.173 495.883,73.406 498.039,80.108 499.126 C 83.622 499.696,136.618 499.990,236.878 499.994 L 388.339 500.000 388.128 612.292 L 387.917 724.583 232.500 725.000 L 77.083 725.417 72.500 727.594 C 57.809 734.573,51.738 752.756,59.593 766.250 C 62.375 771.029,68.088 776.283,72.917 778.502 L 77.083 780.417 232.500 780.833 L 387.917 781.250 388.333 797.500 C 388.724 812.751,388.878 814.002,390.833 817.845 C 401.763 839.327,431.270 838.700,441.554 816.767 L 443.750 812.083 443.750 500.000 L 443.750 187.917 441.554 183.233 C 437.284 174.126,430.094 168.501,420.472 166.739 C 413.107 165.390,84.612 165.608,78.310 166.965 " stroke="none" fill-rule="evenodd" fill="black"></path></svg>