<svg width="500" height="1000" viewBox="0 0 499.99998110236197 1000" version="1.1" id="svg5" sodipodi:docname="ｍ.svg" inkscape:version="1.3 (0e150ed6c4, 2023-07-21)" xml:space="preserve" xmlns:inkscape="http://www.inkscape.org/namespaces/inkscape" xmlns:sodipodi="http://sodipodi.sourceforge.net/DTD/sodipodi-0.dtd" xmlns="http://www.w3.org/2000/svg" xmlns:svg="http://www.w3.org/2000/svg"><path d="M44.583 180.725 C 38.654 183.559,33.991 188.021,30.971 193.750 C 29.048 197.397,28.773 198.904,28.762 205.833 C 28.752 212.474,29.065 214.391,30.707 217.725 C 33.016 222.413,38.965 228.610,43.225 230.765 C 49.682 234.030,52.929 234.167,124.305 234.167 L 193.528 234.167 193.148 236.042 C 192.939 237.073,160.003 361.667,119.958 512.917 C 52.102 769.208,47.150 788.370,47.167 794.583 C 47.191 802.885,49.230 807.672,55.347 813.789 C 62.625 821.067,73.851 823.661,83.640 820.325 C 85.974 819.530,140.536 783.716,217.636 732.372 C 289.169 684.735,348.072 645.885,348.532 646.038 C 348.991 646.192,360.530 681.629,374.174 724.787 C 387.818 767.946,399.792 804.932,400.782 806.978 C 403.098 811.761,408.901 817.089,414.673 819.732 C 424.341 824.158,436.751 821.710,444.590 813.830 C 450.688 807.700,452.778 802.833,452.855 794.583 C 452.915 788.060,452.293 785.948,423.890 696.333 C 407.925 645.962,393.817 601.337,392.540 597.166 C 386.539 577.565,332.223 406.358,330.294 400.963 C 328.617 396.270,327.113 393.830,323.845 390.500 C 317.440 383.972,312.929 382.083,303.750 382.083 C 296.797 382.083,295.868 382.291,291.012 384.923 C 284.860 388.259,281.403 391.929,278.418 398.295 C 276.605 402.159,276.267 404.009,276.352 409.583 C 276.448 415.904,277.865 420.701,303.643 501.954 C 318.598 549.092,330.833 588.177,330.833 588.811 C 330.833 589.898,121.794 729.572,121.143 728.920 C 120.974 728.752,150.226 617.458,186.146 481.599 L 251.454 234.583 350.519 234.157 C 420.196 233.856,450.339 233.455,452.132 232.802 C 459.483 230.127,466.009 224.393,469.293 217.725 C 470.935 214.391,471.248 212.474,471.238 205.833 C 471.227 198.904,470.952 197.397,469.029 193.750 C 466.009 188.021,461.346 183.559,455.417 180.725 L 450.417 178.335 250.000 178.335 L 49.583 178.335 44.583 180.725 " stroke="none" fill-rule="evenodd" fill="black"></path></svg>