<svg width="500" height="1000" viewBox="0 0 499.99998110236197 1000" version="1.1" id="svg5" sodipodi:docname="ｎ.svg" inkscape:version="1.3 (0e150ed6c4, 2023-07-21)" xml:space="preserve" xmlns:inkscape="http://www.inkscape.org/namespaces/inkscape" xmlns:sodipodi="http://sodipodi.sourceforge.net/DTD/sodipodi-0.dtd" xmlns="http://www.w3.org/2000/svg" xmlns:svg="http://www.w3.org/2000/svg"><path d="M203.292 120.252 C 198.348 121.650,194.548 124.064,190.318 128.491 C 188.431 130.467,158.266 169.021,123.285 214.167 C 88.304 259.313,58.054 298.125,56.064 300.417 C 54.073 302.708,51.332 306.799,49.972 309.508 C 47.864 313.709,47.500 315.389,47.500 320.935 C 47.500 329.628,49.669 335.360,55.047 340.881 C 57.337 343.233,61.183 346.015,63.796 347.212 L 68.458 349.346 127.563 349.217 L 186.667 349.087 186.667 351.873 C 186.667 356.246,181.100 404.521,177.418 432.083 C 159.269 567.926,133.635 662.415,86.649 766.667 C 82.827 775.146,72.549 796.333,63.809 813.750 L 47.917 845.417 47.934 852.917 C 47.949 859.838,48.168 860.821,50.774 865.654 C 54.072 871.774,57.791 875.296,63.918 878.101 C 76.456 883.841,91.339 879.432,98.661 867.809 C 102.528 861.670,127.641 811.557,135.774 793.750 C 192.228 670.144,220.570 557.417,240.405 377.589 C 242.043 362.742,243.581 350.273,243.824 349.881 C 244.066 349.488,278.368 349.167,320.049 349.167 L 395.833 349.167 395.823 352.708 C 395.791 363.780,392.482 420.882,390.379 446.667 C 381.497 555.562,364.257 653.744,335.250 760.625 C 331.736 773.573,328.620 784.167,328.326 784.167 C 328.032 784.167,315.444 764.011,300.354 739.376 C 282.549 710.309,271.583 693.236,269.117 690.745 C 264.134 685.709,257.500 683.089,249.583 683.032 C 231.681 682.901,218.217 701.128,223.198 718.750 C 224.494 723.335,312.192 866.030,317.025 871.416 C 322.713 877.757,328.578 880.382,337.101 880.401 C 342.993 880.415,344.446 880.091,349.358 877.673 C 355.364 874.716,359.701 870.381,362.338 864.697 C 363.218 862.801,366.593 852.625,369.838 842.083 C 408.207 717.434,431.537 603.500,443.300 483.333 C 448.365 431.599,451.680 375.158,451.939 336.250 L 452.083 314.583 449.921 310.000 C 447.497 304.861,442.001 298.956,437.543 296.702 C 435.915 295.879,432.596 294.784,430.167 294.269 C 426.996 293.597,384.530 293.333,279.542 293.333 C 199.127 293.333,133.348 293.052,133.367 292.708 C 133.385 292.365,156.266 262.646,184.214 226.667 C 222.154 177.824,235.447 160.134,236.681 156.844 C 241.528 143.919,235.955 129.505,223.465 122.662 C 217.370 119.323,209.783 118.416,203.292 120.252 " stroke="none" fill-rule="evenodd" fill="black"></path></svg>