<svg width="500" height="1000" viewBox="0 0 499.99998110236197 1000" version="1.1" id="svg5" sodipodi:docname="ｏ.svg" inkscape:version="1.3 (0e150ed6c4, 2023-07-21)" xml:space="preserve" xmlns:inkscape="http://www.inkscape.org/namespaces/inkscape" xmlns:sodipodi="http://sodipodi.sourceforge.net/DTD/sodipodi-0.dtd" xmlns="http://www.w3.org/2000/svg" xmlns:svg="http://www.w3.org/2000/svg"><path d="M170.833 110.833 L 89.583 111.250 84.831 113.584 C 78.826 116.532,73.147 122.770,70.797 128.999 C 68.394 135.366,68.790 144.471,71.727 150.373 C 74.443 155.833,80.243 161.477,85.831 164.099 L 90.417 166.250 158.958 166.482 L 227.500 166.713 227.500 280.008 L 227.500 393.302 143.958 393.526 L 60.417 393.750 56.286 395.783 C 48.860 399.437,42.926 406.199,40.765 413.471 C 39.141 418.932,39.736 427.121,42.147 432.493 C 45.057 438.976,51.348 444.971,57.761 447.370 C 62.559 449.166,62.615 449.167,145.031 449.167 L 227.500 449.167 227.500 621.408 L 227.500 793.650 200.208 766.601 C 168.528 735.203,168.824 735.415,156.667 735.421 C 149.721 735.424,148.239 735.695,144.583 737.626 C 139.361 740.384,134.169 745.585,131.697 750.534 C 128.150 757.637,128.181 768.078,131.772 775.289 C 132.916 777.588,151.312 796.540,186.539 831.715 C 228.383 873.496,240.457 885.097,243.721 886.655 C 249.857 889.583,258.864 889.915,265.391 887.453 C 271.350 885.206,277.836 879.116,280.875 872.917 L 282.917 868.750 283.131 658.975 L 283.346 449.200 361.048 448.975 L 438.750 448.750 442.917 446.713 C 448.924 443.777,455.291 436.955,457.507 431.081 C 459.919 424.689,459.554 415.549,456.648 409.546 C 453.998 404.071,448.450 398.687,442.664 395.975 L 437.917 393.750 360.625 393.525 L 283.333 393.300 283.333 280.006 L 283.333 166.713 351.875 166.482 L 420.417 166.250 425.184 164.016 C 430.817 161.375,436.589 155.725,439.288 150.208 C 442.127 144.405,442.409 135.358,439.958 128.750 C 437.453 121.995,430.606 115.082,424.009 112.645 C 419.325 110.916,418.253 110.891,335.675 110.655 C 289.700 110.524,215.521 110.604,170.833 110.833 " stroke="none" fill-rule="evenodd" fill="black"></path></svg>