<svg width="500" height="1000" viewBox="0 0 499.99998110236197 1000" version="1.1" id="svg5" sodipodi:docname="ｐ.svg" inkscape:version="1.3 (0e150ed6c4, 2023-07-21)" xmlns:inkscape="http://www.inkscape.org/namespaces/inkscape" xmlns:sodipodi="http://sodipodi.sourceforge.net/DTD/sodipodi-0.dtd" xmlns="http://www.w3.org/2000/svg" xmlns:svg="http://www.w3.org/2000/svg"><path d="M383.274 91.091 C 374.712 93.509,367.039 100.182,364.038 107.822 C 363.251 109.825,361.248 120.978,359.587 132.607 C 344.566 237.733,317.608 342.677,278.632 447.754 C 272.515 464.243,271.031 467.528,269.837 467.216 C 269.047 467.009,238.005 449.907,200.856 429.210 C 163.707 408.514,131.349 390.666,128.948 389.548 C 125.696 388.034,123.157 387.514,118.990 387.508 C 98.766 387.479,85.348 406.680,92.517 425.391 C 96.232 435.087,95.553 434.648,175.723 479.167 C 215.754 501.396,248.698 520.060,248.932 520.642 C 249.400 521.805,248.955 522.915,238.328 547.083 C 214.984 600.171,185.851 658.111,155.785 711.250 C 125.519 764.743,89.063 822.074,62.258 858.333 C 50.971 873.601,49.513 877.338,50.931 887.355 C 52.321 897.170,58.040 904.695,67.400 909.025 C 71.116 910.744,73.382 911.195,78.373 911.210 C 83.816 911.226,85.409 910.861,90.204 908.500 C 96.680 905.312,98.840 903.013,110.801 886.568 C 171.967 802.475,244.530 673.221,292.148 563.544 C 295.779 555.180,299.022 548.337,299.355 548.335 C 299.688 548.334,325.563 562.581,356.855 579.995 C 420.197 615.245,418.904 614.666,428.862 612.208 C 435.922 610.466,441.314 607.139,445.047 602.220 C 449.541 596.299,451.074 591.201,450.667 583.530 C 450.258 575.834,447.925 570.371,442.929 565.417 C 440.567 563.075,421.919 552.292,380.235 529.167 C 347.602 511.063,320.886 495.827,320.868 495.309 C 320.849 494.791,323.293 487.854,326.299 479.892 C 369.514 365.436,398.493 254.926,414.617 143.099 C 418.695 114.818,418.423 110.157,412.198 101.667 C 405.714 92.822,393.265 88.270,383.274 91.091 " stroke="none" fill-rule="evenodd" fill="black"></path></svg>