<svg width="500" height="1000" viewBox="0 0 499.99998110236197 1000" version="1.1" id="svg5" sodipodi:docname="ｓ.svg" inkscape:version="1.3 (0e150ed6c4, 2023-07-21)" xml:space="preserve" xmlns:inkscape="http://www.inkscape.org/namespaces/inkscape" xmlns:sodipodi="http://sodipodi.sourceforge.net/DTD/sodipodi-0.dtd" xmlns="http://www.w3.org/2000/svg" xmlns:svg="http://www.w3.org/2000/svg"><path d="M140.833 206.667 L 67.917 207.083 63.164 209.417 C 49.642 216.058,43.810 232.321,50.105 245.833 C 52.494 250.960,57.982 256.868,62.457 259.132 C 68.730 262.304,72.694 262.500,130.458 262.500 L 186.667 262.500 186.667 265.002 C 186.667 268.639,181.255 315.773,177.875 341.575 C 161.618 465.675,138.097 558.141,99.315 650.417 C 88.588 675.940,80.060 694.265,63.492 727.400 L 47.917 758.549 47.936 765.733 C 47.952 771.849,48.296 773.615,50.246 777.619 C 52.807 782.877,58.007 788.109,63.459 790.912 C 69.073 793.799,78.490 794.099,85.196 791.603 C 93.980 788.333,97.224 784.275,108.462 762.500 C 182.595 618.859,217.882 493.784,239.532 297.917 C 241.154 283.250,242.699 269.281,242.967 266.875 L 243.453 262.500 319.643 262.500 L 395.833 262.500 395.831 265.208 C 395.828 269.398,394.259 302.134,393.305 317.917 C 386.496 430.637,371.272 530.886,345.027 635.833 C 338.711 661.091,329.444 695.528,328.590 696.921 C 328.364 697.290,315.674 677.231,300.391 652.346 C 285.108 627.461,271.174 605.640,269.427 603.855 C 267.680 602.070,264.188 599.629,261.667 598.430 C 257.777 596.580,255.948 596.250,249.583 596.250 C 242.859 596.250,241.630 596.501,237.706 598.676 C 223.735 606.416,218.208 622.559,224.992 635.807 C 225.821 637.426,246.182 670.813,270.240 710.000 C 296.773 753.221,315.410 782.738,317.615 785.032 C 323.403 791.054,328.038 792.889,337.500 792.901 C 346.393 792.913,349.708 791.684,355.917 786.075 C 361.006 781.478,362.748 777.737,368.641 758.750 C 421.790 587.497,447.872 429.141,452.162 251.667 C 452.685 230.042,452.656 229.480,450.796 224.589 C 448.234 217.858,441.383 210.949,434.841 208.501 C 430.120 206.735,429.881 206.731,321.930 206.491 C 262.431 206.358,180.938 206.438,140.833 206.667 " stroke="none" fill-rule="evenodd" fill="black"></path></svg>