<svg width="500" height="1000" viewBox="0 0 499.99998110236197 1000" version="1.1" id="svg5" xml:space="preserve" sodipodi:docname="ｔ.svg" inkscape:version="1.3 (0e150ed6c4, 2023-07-21)" xmlns:inkscape="http://www.inkscape.org/namespaces/inkscape" xmlns:sodipodi="http://sodipodi.sourceforge.net/DTD/sodipodi-0.dtd" xmlns="http://www.w3.org/2000/svg" xmlns:svg="http://www.w3.org/2000/svg"><path d="M366.667 111.564 C 356.014 115.063,348.419 123.852,346.635 134.748 C 346.144 137.744,345.841 263.964,345.838 466.639 L 345.833 793.694 318.125 766.120 C 292.541 740.661,290.047 738.411,285.594 736.773 C 275.109 732.918,264.123 735.177,256.373 742.783 C 249.905 749.130,247.917 753.765,247.917 762.500 C 247.917 775.483,245.350 772.357,304.830 831.837 C 364.560 891.566,361.123 888.763,374.583 888.734 C 381.048 888.720,382.658 888.416,386.250 886.529 C 394.600 882.143,400.194 874.438,401.698 865.252 C 402.773 858.690,402.773 141.310,401.698 134.748 C 400.190 125.537,394.543 117.777,386.250 113.521 C 383.011 111.858,380.599 111.326,375.417 111.131 C 371.750 110.993,367.813 111.188,366.667 111.564 M121.559 175.059 C 115.655 175.989,110.803 178.495,106.418 182.880 C 101.442 187.856,99.474 191.664,98.374 198.441 C 97.232 205.477,97.170 615.012,98.310 621.970 C 99.841 631.321,105.496 639.071,113.933 643.381 C 117.331 645.117,119.082 645.417,125.833 645.417 C 135.159 645.417,139.232 643.795,145.405 637.621 C 150.059 632.968,152.352 628.349,153.401 621.517 C 153.913 618.185,154.126 539.233,153.980 406.667 C 153.765 210.583,153.658 196.853,152.314 193.501 C 147.158 180.636,134.467 173.026,121.559 175.059 " stroke="none" fill-rule="evenodd" fill="black"></path></svg>