<svg width="500" height="1000" viewBox="0 0 499.99998110236197 1000" version="1.1" id="svg5" sodipodi:docname="ｕ.svg" inkscape:version="1.3 (0e150ed6c4, 2023-07-21)" xml:space="preserve" xmlns:inkscape="http://www.inkscape.org/namespaces/inkscape" xmlns:sodipodi="http://sodipodi.sourceforge.net/DTD/sodipodi-0.dtd" xmlns="http://www.w3.org/2000/svg" xmlns:svg="http://www.w3.org/2000/svg"><path d="M65.659 136.734 C 43.457 139.989,33.957 166.757,49.261 182.938 C 53.843 187.783,58.685 190.469,64.995 191.666 C 67.835 192.204,125.927 192.500,228.925 192.500 C 363.890 192.500,388.414 192.677,388.186 193.646 C 387.637 195.983,235.401 569.970,235.000 569.968 C 234.771 569.967,220.708 539.351,203.750 501.932 C 178.253 445.674,172.318 433.232,169.457 430.043 C 155.912 414.947,132.065 418.688,123.571 437.241 C 120.710 443.489,120.278 449.963,122.302 456.250 C 123.541 460.097,201.626 633.451,212.202 655.833 C 213.394 658.354,232.919 701.292,255.593 751.250 C 304.969 860.044,300.433 850.386,304.013 854.348 C 309.503 860.424,316.205 863.373,324.621 863.413 C 334.887 863.463,345.130 857.093,349.655 847.845 C 352.346 842.345,353.256 833.579,351.646 828.660 C 351.063 826.876,331.891 784.215,309.043 733.857 C 286.194 683.499,267.500 641.603,267.500 640.753 C 267.500 639.904,310.339 533.918,362.699 405.229 L 457.897 171.250 457.907 164.167 C 457.915 158.314,457.561 156.359,455.867 152.917 C 451.419 143.878,443.924 138.308,434.052 136.706 C 427.567 135.654,72.843 135.681,65.659 136.734 " stroke="none" fill-rule="evenodd" fill="black"></path></svg>