<svg width="500" height="1000" viewBox="0 0 499.99998110236197 1000" version="1.1" id="svg5" sodipodi:docname="ｘ.svg" inkscape:version="1.3 (0e150ed6c4, 2023-07-21)" xml:space="preserve" xmlns:inkscape="http://www.inkscape.org/namespaces/inkscape" xmlns:sodipodi="http://sodipodi.sourceforge.net/DTD/sodipodi-0.dtd" xmlns="http://www.w3.org/2000/svg" xmlns:svg="http://www.w3.org/2000/svg"><path d="M170.838 71.335 C 163.144 74.140,156.716 80.171,153.654 87.457 C 152.990 89.037,150.772 103.603,148.725 119.826 C 146.678 136.049,144.039 155.381,142.862 162.786 C 141.684 170.191,140.372 178.591,139.948 181.452 C 135.480 211.547,125.884 256.546,116.980 289.167 C 105.991 329.419,95.437 358.266,70.180 417.083 C 61.913 436.333,54.330 454.521,53.327 457.500 C 48.626 471.476,54.744 485.593,68.254 491.938 C 75.883 495.521,83.412 495.494,90.913 491.856 C 100.244 487.330,102.388 484.506,109.435 467.456 C 112.361 460.376,119.539 443.521,125.387 430.000 C 154.219 363.336,168.301 320.712,182.513 257.083 C 184.692 247.331,191.667 212.360,191.667 211.190 C 191.667 210.994,233.473 210.833,284.571 210.833 L 377.474 210.833 377.060 215.625 C 376.832 218.260,376.076 226.979,375.382 235.000 C 369.369 304.394,352.199 392.946,329.574 471.250 C 323.125 493.569,311.274 530.728,310.295 531.699 C 309.904 532.087,283.345 512.929,251.277 489.126 C 219.208 465.322,191.276 445.050,189.205 444.076 C 183.440 441.366,177.136 441.109,169.957 443.289 C 164.802 444.855,163.211 445.827,159.210 449.855 C 156.628 452.456,153.869 455.962,153.081 457.647 C 148.258 467.951,150.371 480.921,158.139 488.698 C 160.252 490.813,283.647 583.035,289.802 587.098 C 290.081 587.282,282.722 604.998,275.441 621.667 C 268.290 638.040,251.254 672.719,242.896 687.917 C 194.656 775.630,140.212 837.298,79.167 873.370 C 66.685 880.745,62.453 884.464,59.426 890.714 C 57.500 894.692,57.147 896.508,57.132 902.500 C 57.116 908.990,57.353 910.025,59.955 914.851 C 65.271 924.710,74.238 930.198,85.189 930.294 C 90.268 930.339,91.521 929.974,98.523 926.420 C 120.693 915.166,148.417 895.018,173.901 871.640 C 216.096 832.931,257.643 777.499,292.867 712.917 C 305.339 690.051,328.883 640.716,334.923 624.792 C 335.401 623.531,336.141 622.500,336.567 622.500 C 336.993 622.500,351.721 633.189,369.296 646.253 C 386.871 659.317,403.313 671.035,405.833 672.294 C 412.326 675.537,421.643 675.569,428.463 672.373 C 444.904 664.668,450.102 643.383,438.886 629.695 C 436.588 626.891,414.450 610.088,358.506 568.685 C 357.476 567.923,358.438 564.391,364.867 545.352 C 404.324 428.493,431.213 292.574,433.848 196.667 C 434.347 178.517,434.303 177.757,432.463 172.923 C 429.885 166.149,423.053 159.284,416.421 156.802 L 411.604 155.000 306.219 155.000 C 248.257 155.000,200.833 154.847,200.833 154.660 C 200.833 154.473,202.186 143.879,203.839 131.118 C 205.492 118.357,206.891 103.979,206.947 99.167 C 207.038 91.451,206.809 89.924,205.010 86.250 C 202.377 80.872,196.518 75.045,191.273 72.590 C 185.767 70.013,176.095 69.419,170.838 71.335 " stroke="none" fill-rule="evenodd" fill="black"></path></svg>