<svg width="500" height="1000" viewBox="0 0 499.99998110236197 1000" version="1.1" id="svg5" xml:space="preserve" xmlns="http://www.w3.org/2000/svg" xmlns:svg="http://www.w3.org/2000/svg"><path d="M398.362 112.669 C 392.808 114.801,385.713 121.585,383.084 127.278 L 381.250 131.250 381.035 330.154 C 380.831 518.407,380.742 529.082,379.368 529.486 C 378.570 529.720,331.229 543.105,274.167 559.230 C 217.104 575.354,169.950 588.725,169.380 588.944 C 168.557 589.259,168.300 551.262,168.130 403.629 L 167.917 217.917 165.743 213.333 C 163.333 208.251,157.805 202.323,153.333 200.025 C 145.705 196.105,135.789 196.158,127.775 200.160 C 123.115 202.487,117.098 208.866,114.733 213.986 L 112.917 217.917 112.701 411.421 L 112.486 604.926 109.785 605.685 C 53.754 621.441,40.371 625.482,36.455 627.828 C 28.224 632.761,22.687 643.758,23.564 653.433 C 24.829 667.379,35.789 678.146,49.538 678.947 C 55.232 679.279,60.446 677.866,215.833 633.870 C 304.063 608.890,377.277 588.197,378.532 587.887 L 380.814 587.324 381.032 728.037 L 381.250 868.750 383.084 872.722 C 385.791 878.585,392.799 885.202,398.599 887.372 C 407.873 890.842,418.340 889.268,425.921 883.264 C 429.918 880.099,434.243 873.620,435.677 868.653 C 437.113 863.675,437.113 136.325,435.677 131.347 C 433.279 123.039,426.324 115.459,418.300 112.411 C 412.682 110.276,404.313 110.384,398.362 112.669 " stroke="none" fill-rule="evenodd" fill="black"></path></svg>