<svg width="500" height="1000" viewBox="0 0 499.99998110236197 1000" version="1.1" id="svg5" sodipodi:docname="ｚ.svg" inkscape:version="1.3 (0e150ed6c4, 2023-07-21)" xml:space="preserve" xmlns:inkscape="http://www.inkscape.org/namespaces/inkscape" xmlns:sodipodi="http://sodipodi.sourceforge.net/DTD/sodipodi-0.dtd" xmlns="http://www.w3.org/2000/svg" xmlns:svg="http://www.w3.org/2000/svg"><path d="M378.585 156.703 C 372.766 159.006,366.719 164.621,363.759 170.471 C 361.368 175.198,361.318 175.574,360.705 193.680 C 359.540 228.097,358.266 249.546,356.172 269.974 C 339.526 432.389,276.490 579.082,171.204 700.417 C 141.281 734.900,94.750 778.654,73.548 792.243 C 64.761 797.875,60.966 803.142,59.066 812.337 C 54.600 833.959,77.345 852.012,97.917 843.172 C 100.667 841.990,175.529 810.447,264.277 773.076 C 353.025 735.704,427.462 704.199,429.693 703.064 C 435.159 700.283,439.774 695.539,442.406 690.000 C 445.325 683.856,445.493 673.306,442.766 667.354 C 437.588 656.048,424.463 648.755,413.113 650.878 C 408.028 651.829,412.070 650.172,309.583 693.339 C 261.458 713.609,221.350 730.402,220.453 730.656 C 218.987 731.071,219.029 730.862,220.870 728.573 C 221.996 727.174,227.271 720.642,232.593 714.056 C 321.987 603.440,381.121 471.705,404.555 330.973 C 412.302 284.448,416.013 242.451,416.164 199.583 L 416.250 175.417 413.941 170.715 C 411.360 165.459,406.160 160.231,400.708 157.410 C 395.449 154.689,384.554 154.341,378.585 156.703 M74.583 272.785 C 67.123 275.223,61.807 279.951,57.674 287.827 C 52.986 296.758,51.587 289.643,89.483 449.583 C 110.641 538.880,124.195 594.490,125.435 597.089 C 131.040 608.844,144.334 615.308,156.496 612.192 C 165.225 609.956,172.423 603.994,176.123 595.935 C 180.065 587.350,181.136 592.679,143.860 435.417 C 122.488 345.252,109.084 290.288,107.724 287.243 C 105.302 281.820,100.413 277.000,94.302 274.010 C 89.637 271.728,79.708 271.111,74.583 272.785 " stroke="none" fill-rule="evenodd" fill="black"></path></svg>