<?xml version="1.0" encoding="UTF-8" standalone="no"?>
<!-- Created with Inkscape (http://www.inkscape.org/) -->

<svg
   width="500"
   height="1000"
   viewBox="0 0 132.29166 264.58333"
   version="1.1"
   id="svg5"
   xmlns="http://www.w3.org/2000/svg"
   xmlns:svg="http://www.w3.org/2000/svg">
  <defs
     id="defs2" />
  <path
     style="fill:none;stroke:#000000;stroke-width:14.9999;stroke-linecap:round;stroke-linejoin:round;stroke-opacity:0.5;paint-order:fill markers stroke"
     id="path1585"
     d="m -150.53989,-66.14587 a 40.347702,26.015614 0 0 1 -34.94213,-13.007807 40.347702,26.015614 0 0 1 0,-26.015613 40.347702,26.015614 0 0 1 34.94213,-13.00781"
     transform="matrix(0,-1,-1,0,0,0)" />
  <path
     style="fill:none;stroke:#000000;stroke-width:15.0001;stroke-linecap:round;stroke-linejoin:round;stroke-opacity:0.5;paint-order:fill markers stroke"
     d="m 118.17703,73.64589 v 93.33046 23.96111"
     id="path1639" />
  <path
     style="fill:none;stroke:#000000;stroke-width:15.0001;stroke-linecap:round;stroke-linejoin:round;stroke-opacity:0.5;paint-order:fill markers stroke"
     d="m 66.145866,73.64589 v 74.87546 4.03704"
     id="path1754" />
  <path
     style="fill:none;stroke:#000000;stroke-width:14.9999;stroke-linecap:round;stroke-linejoin:round;stroke-opacity:0.5;paint-order:fill markers stroke"
     id="path1979"
     d="m -150.53989,-14.114639 a 40.347702,26.015614 0 0 1 -34.94213,-13.007807 40.347702,26.015614 0 0 1 0,-26.015614 40.347702,26.015614 0 0 1 34.94213,-13.007806"
     transform="matrix(0,-1,-1,0,0,0)" />
  <path
     style="fill:none;stroke:#000000;stroke-width:15.0001;stroke-linecap:round;stroke-linejoin:round;stroke-opacity:0.5;paint-order:fill markers stroke"
     d="m 14.114636,73.64589 v 74.87546 4.03704"
     id="path1983" />
</svg>
