<svg width="200" height="1000" viewBox="0 0 200 1000" version="1.1" id="svg5" sodipodi:docname="!.svg" inkscape:version="1.4 (86a8ad7, 2024-10-11)" xmlns:inkscape="http://www.inkscape.org/namespaces/inkscape" xmlns:sodipodi="http://sodipodi.sourceforge.net/DTD/sodipodi-0.dtd" xmlns="http://www.w3.org/2000/svg" xmlns:svg="http://www.w3.org/2000/svg"><path d="M97.000 0.187 C 96.542 0.265,95.117 0.499,93.833 0.707 C 89.233 1.451,83.967 3.665,79.833 6.592 C 72.859 11.532,68.153 18.390,65.944 26.833 C 65.054 30.237,64.749 37.002,65.324 40.591 C 67.540 54.424,77.626 65.591,91.190 69.229 C 94.142 70.021,95.094 70.117,100.000 70.117 C 104.906 70.117,105.858 70.021,108.810 69.229 C 122.079 65.670,131.977 54.972,134.523 41.437 C 135.266 37.490,135.046 30.593,134.059 26.833 C 130.547 13.464,120.268 3.624,106.870 0.806 C 104.508 0.309,98.495 -0.068,97.000 0.187 M96.758 222.010 C 85.392 223.206,75.602 231.840,72.579 243.333 L 71.833 246.167 71.833 523.333 L 71.833 800.500 72.587 803.333 C 76.288 817.244,88.806 826.032,102.917 824.627 C 114.703 823.453,124.273 815.135,127.413 803.333 L 128.167 800.500 128.167 523.333 L 128.167 246.167 127.421 243.333 C 123.771 229.454,110.922 220.519,96.758 222.010 " stroke="none" fill-rule="evenodd" fill="#000000"></path></svg>