<svg width="300" height="1000" viewBox="0 0 299.9999962204724 1000" version="1.1" id="svg5" sodipodi:docname="(.svg" inkscape:version="1.2.1 (9c6d41e410, 2022-07-14)" xmlns:inkscape="http://www.inkscape.org/namespaces/inkscape" xmlns:sodipodi="http://sodipodi.sourceforge.net/DTD/sodipodi-0.dtd" xmlns="http://www.w3.org/2000/svg" xmlns:svg="http://www.w3.org/2000/svg"><path d="M225.500 0.488 C 218.840 1.415,214.885 3.624,205.182 11.837 C 181.701 31.712,158.428 58.789,138.379 89.558 C 91.610 161.335,57.365 260.244,46.041 356.250 C 42.511 386.180,42.402 390.977,42.621 506.250 C 42.828 615.662,42.740 611.722,45.526 636.750 C 54.059 713.432,77.727 794.121,110.983 859.909 C 137.900 913.158,170.387 956.317,206.172 986.372 C 215.781 994.442,219.931 996.475,227.641 996.888 C 232.948 997.173,237.191 996.417,241.340 994.449 C 257.487 986.787,262.501 966.162,251.669 951.958 C 250.629 950.594,246.928 947.131,243.445 944.261 C 207.162 914.375,173.255 865.391,147.911 806.250 C 121.036 743.534,103.836 673.092,99.505 608.000 C 98.804 597.469,98.803 400.068,99.503 389.500 C 103.230 333.276,116.300 273.899,137.362 217.500 C 156.947 165.059,181.444 121.119,210.813 85.750 C 217.645 77.522,235.463 59.620,243.044 53.366 C 249.861 47.744,252.574 44.801,254.560 40.875 C 258.948 32.201,258.230 20.670,252.812 12.810 C 246.633 3.847,235.962 -0.968,225.500 0.488 " stroke="none" fill-rule="evenodd" fill="black"></path></svg>