<svg width="500" height="1000" viewBox="0 0 499.99998110236197 1000" version="1.1" id="svg5" sodipodi:docname="2.svg" inkscape:version="1.2.1 (9c6d41e410, 2022-07-14)" xmlns:inkscape="http://www.inkscape.org/namespaces/inkscape" xmlns:sodipodi="http://sodipodi.sourceforge.net/DTD/sodipodi-0.dtd" xmlns="http://www.w3.org/2000/svg" xmlns:svg="http://www.w3.org/2000/svg"><path d="M369.347 48.472 C 366.926 48.851,363.484 49.906,361.698 50.817 C 356.659 53.388,350.315 60.363,348.153 65.709 L 346.250 70.417 346.250 500.000 L 346.250 929.583 348.153 934.291 C 350.306 939.615,356.654 946.610,361.645 949.156 C 368.599 952.703,379.796 952.672,386.827 949.085 C 391.089 946.910,396.906 941.099,399.075 936.847 C 400.004 935.025,401.152 931.146,401.626 928.226 C 402.830 920.804,402.829 79.186,401.624 71.764 C 399.043 55.858,385.341 45.970,369.347 48.472 M116.326 167.938 C 110.222 170.249,104.016 175.802,100.826 181.806 C 99.934 183.487,98.811 187.424,98.331 190.556 C 97.734 194.450,97.531 273.956,97.688 442.083 L 97.917 687.917 100.113 692.600 C 106.035 705.232,118.359 711.877,131.012 709.264 C 143.039 706.780,151.291 698.062,153.293 685.726 C 154.436 678.679,154.498 197.500,153.357 190.530 C 151.818 181.131,145.972 173.097,137.725 169.045 C 132.741 166.596,121.418 166.010,116.326 167.938 " stroke="none" fill-rule="evenodd" fill="black"></path></svg>