<svg width="500" height="1000" viewBox="0 0 499.99998110236197 1000" version="1.1" id="svg5" sodipodi:docname="5.svg" inkscape:version="1.2.1 (9c6d41e410, 2022-07-14)" xmlns:inkscape="http://www.inkscape.org/namespaces/inkscape" xmlns:sodipodi="http://sodipodi.sourceforge.net/DTD/sodipodi-0.dtd" xmlns="http://www.w3.org/2000/svg" xmlns:svg="http://www.w3.org/2000/svg"><path d="M81.443 392.531 C 72.877 393.972,64.933 399.930,60.833 407.988 C 59.045 411.504,58.750 413.203,58.750 420.000 C 58.750 426.797,59.045 428.496,60.833 432.012 C 65.102 440.401,72.789 445.983,82.196 447.523 C 88.803 448.605,411.197 448.605,417.804 447.523 C 427.154 445.992,434.904 440.337,439.215 431.900 C 440.951 428.503,441.250 426.752,441.250 420.000 C 441.250 413.203,440.955 411.504,439.167 407.988 C 434.898 399.599,427.211 394.017,417.804 392.477 C 411.833 391.499,87.267 391.551,81.443 392.531 " stroke="none" fill-rule="evenodd" fill="black"></path></svg>