<svg width="300" height="1000" viewBox="0 0 299.9999962204724 1000" version="1.1" id="svg5" sodipodi:docname="].svg" inkscape:version="1.2.1 (9c6d41e410, 2022-07-14)" xmlns:inkscape="http://www.inkscape.org/namespaces/inkscape" xmlns:sodipodi="http://sodipodi.sourceforge.net/DTD/sodipodi-0.dtd" xmlns="http://www.w3.org/2000/svg" xmlns:svg="http://www.w3.org/2000/svg"><path d="M66.989 0.481 C 56.085 1.914,46.138 10.919,43.536 21.711 C 42.682 25.251,42.816 32.724,43.792 36.000 C 46.790 46.061,54.869 53.598,65.000 55.782 C 67.694 56.363,79.602 56.484,134.625 56.491 L 201.000 56.500 201.000 498.750 L 201.000 941.000 134.125 941.007 C 76.245 941.014,66.819 941.116,64.047 941.770 C 54.957 943.913,46.874 951.650,43.961 961.000 C 42.667 965.150,42.571 972.269,43.754 976.337 C 45.851 983.551,51.456 990.553,57.791 993.875 C 64.137 997.202,58.183 997.000,150.000 997.000 C 223.176 997.000,233.647 996.907,236.229 996.234 C 245.531 993.812,253.287 986.091,256.332 976.224 C 257.220 973.348,257.250 957.661,257.250 499.000 C 257.250 99.561,257.142 24.316,256.566 22.000 C 254.262 12.732,246.634 4.462,237.536 1.368 L 234.250 0.250 152.000 0.184 C 106.763 0.148,68.507 0.282,66.989 0.481 M244.750 52.000 C 244.580 52.275,244.216 52.500,243.941 52.500 C 243.666 52.500,243.580 52.275,243.750 52.000 C 243.920 51.725,244.284 51.500,244.559 51.500 C 244.834 51.500,244.920 51.725,244.750 52.000 M240.225 54.455 C 239.655 55.001,234.415 56.582,234.128 56.295 C 234.017 56.184,235.237 55.650,236.838 55.109 C 240.285 53.944,240.878 53.829,240.225 54.455 M239.000 942.502 C 239.000 942.711,238.217 942.613,237.259 942.284 C 234.754 941.422,234.566 940.996,236.960 941.604 C 238.082 941.889,239.000 942.293,239.000 942.502 M241.500 943.785 C 241.500 943.923,241.050 943.794,240.500 943.500 C 239.950 943.206,239.500 942.852,239.500 942.715 C 239.500 942.577,239.950 942.706,240.500 943.000 C 241.050 943.294,241.500 943.648,241.500 943.785 " stroke="none" fill-rule="evenodd" fill="black"></path></svg>