<svg width="400" height="1000" viewBox="0 0 399.9999924409448 1000" version="1.1" id="svg5" sodipodi:docname="c.svg" inkscape:version="1.3.2 (091e20e, 2023-11-25, custom)" xmlns:inkscape="http://www.inkscape.org/namespaces/inkscape" xmlns:sodipodi="http://sodipodi.sourceforge.net/DTD/sodipodi-0.dtd" xmlns="http://www.w3.org/2000/svg" xmlns:svg="http://www.w3.org/2000/svg"><path d="M186.333 150.642 C 176.558 151.413,170.151 152.469,159.437 155.076 C 128.226 162.670,101.392 178.361,77.333 203.085 C 62.613 218.212,52.060 233.176,42.604 252.333 C 33.985 269.793,26.436 291.973,25.552 302.432 C 24.486 315.048,32.655 326.992,45.000 330.863 C 55.331 334.103,64.248 332.020,72.412 324.462 C 77.165 320.062,78.883 316.653,82.230 304.983 C 97.524 251.660,135.697 214.520,182.318 207.603 C 191.212 206.284,207.969 206.603,216.883 208.262 C 255.464 215.444,290.232 246.097,306.723 287.471 C 314.856 307.876,318.183 325.304,318.214 347.667 C 318.233 361.398,317.588 368.548,315.238 380.667 C 306.116 427.705,275.711 467.024,236.375 482.650 C 225.451 486.990,210.899 490.000,200.845 490.000 C 190.202 490.000,183.658 492.371,177.612 498.417 C 172.011 504.018,169.349 510.434,169.349 518.333 C 169.349 526.067,171.992 532.595,177.252 537.855 C 183.432 544.035,190.266 546.630,200.426 546.655 C 219.547 546.702,241.107 557.195,259.349 575.333 C 305.330 621.053,327.737 708.417,314.919 792.000 C 304.490 860.006,272.498 914.932,231.667 934.936 C 219.061 941.112,209.952 943.333,197.225 943.333 C 174.825 943.334,155.585 934.296,135.583 914.377 C 116.533 895.406,105.139 876.407,91.759 841.299 C 89.921 836.477,88.512 834.012,85.951 831.138 C 80.030 824.495,71.308 820.819,63.089 821.504 C 47.202 822.826,34.925 837.926,37.357 853.151 C 37.733 855.504,39.535 861.441,41.361 866.343 C 67.896 937.582,116.580 986.003,173.000 997.274 C 194.802 1001.629,216.130 1000.205,238.000 992.934 C 292.926 974.672,337.665 921.150,359.986 847.000 C 377.375 789.235,379.369 723.835,365.566 664.012 C 353.318 610.933,330.102 566.446,298.241 535.004 C 294.524 531.335,289.813 526.983,287.773 525.333 C 285.734 523.683,284.061 522.033,284.057 521.667 C 284.052 521.300,285.463 520.103,287.191 519.007 C 316.185 500.613,342.289 468.899,357.239 433.905 C 387.272 363.605,377.967 281.132,333.236 221.163 C 310.602 190.817,278.829 168.039,244.327 157.422 C 226.167 151.834,204.036 149.247,186.333 150.642 " stroke="none" fill-rule="evenodd" fill="black"></path></svg>