<svg width="500" height="1000" viewBox="0 0 499.99998110236197 1000" version="1.1" id="svg5" sodipodi:docname="d.svg" inkscape:version="1.3.2 (091e20e, 2023-11-25, custom)" xmlns:inkscape="http://www.inkscape.org/namespaces/inkscape" xmlns:sodipodi="http://sodipodi.sourceforge.net/DTD/sodipodi-0.dtd" xmlns="http://www.w3.org/2000/svg" xmlns:svg="http://www.w3.org/2000/svg"><path d="M74.059 150.902 C 64.770 152.341,55.872 159.425,52.320 168.209 L 50.417 172.917 50.155 390.000 C 49.895 605.822,49.989 615.349,52.604 637.500 C 58.621 688.465,79.219 739.452,108.824 776.667 C 115.677 785.281,132.314 801.993,140.833 808.820 C 174.537 835.830,210.622 849.167,250.000 849.167 C 294.987 849.167,336.066 831.618,372.714 796.744 C 411.941 759.417,440.088 699.400,447.396 637.500 C 450.011 615.349,450.105 605.822,449.845 390.000 L 449.583 172.917 447.667 168.174 C 445.043 161.681,438.141 154.839,431.826 152.471 C 416.672 146.789,400.429 154.619,394.698 170.368 C 394.029 172.205,393.645 236.237,393.320 399.583 L 392.870 626.250 391.077 637.083 C 386.339 665.715,379.401 687.476,367.749 710.256 C 353.860 737.407,334.517 759.489,311.450 774.524 C 300.503 781.659,285.908 788.043,275.208 790.375 L 272.500 790.966 272.500 485.219 C 272.500 267.942,272.237 178.050,271.591 174.554 C 270.414 168.191,268.426 164.389,263.920 159.891 C 257.825 153.806,253.463 152.083,244.167 152.087 C 237.221 152.091,235.739 152.361,232.083 154.292 C 223.529 158.811,217.984 166.614,216.618 176.055 C 216.183 179.064,215.860 308.830,215.850 484.375 C 215.839 682.585,215.550 787.500,215.013 787.500 C 213.196 787.500,198.528 780.676,192.458 777.006 C 182.736 771.130,175.477 765.475,166.365 756.681 C 136.495 727.855,117.356 688.008,108.921 637.083 L 107.127 626.250 106.679 399.583 C 106.356 236.122,105.972 172.206,105.303 170.368 C 103.484 165.374,101.619 162.546,97.421 158.413 C 91.174 152.264,82.752 149.557,74.059 150.902 " stroke="none" fill-rule="evenodd" fill="black"></path></svg>