<svg width="400" height="1000" viewBox="0 0 399.9999924409448 1000" version="1.1" id="svg5" sodipodi:docname="g.svg" inkscape:version="1.3.2 (091e20e, 2023-11-25, custom)" xmlns:inkscape="http://www.inkscape.org/namespaces/inkscape" xmlns:sodipodi="http://sodipodi.sourceforge.net/DTD/sodipodi-0.dtd" xmlns="http://www.w3.org/2000/svg" xmlns:svg="http://www.w3.org/2000/svg"><path d="M73.450 154.683 C 62.541 156.271,52.832 165.913,50.672 177.306 C 49.826 181.764,49.779 814.278,50.623 820.828 C 51.836 830.237,58.070 838.825,66.667 842.931 C 70.701 844.857,71.506 845.000,78.333 845.000 C 85.161 845.000,85.965 844.857,90.000 842.931 C 98.437 838.901,104.700 830.414,106.032 821.204 C 106.391 818.722,106.645 692.812,106.653 513.833 L 106.667 210.667 200.000 210.667 L 293.333 210.667 293.347 513.833 C 293.355 692.812,293.609 818.722,293.968 821.204 C 295.310 830.487,301.499 838.874,310.000 842.932 C 314.034 844.857,314.840 845.000,321.667 845.000 C 328.494 845.000,329.299 844.857,333.333 842.931 C 341.930 838.825,348.164 830.237,349.377 820.828 C 350.220 814.289,350.174 181.780,349.330 177.258 C 347.158 165.623,337.492 156.316,325.828 154.629 C 320.754 153.895,78.506 153.947,73.450 154.683 M135.333 941.406 C 124.290 943.205,114.529 952.113,111.701 962.973 C 107.346 979.700,118.591 996.618,135.833 999.282 C 150.124 1001.490,164.611 991.857,168.299 977.693 C 173.574 957.433,155.961 938.045,135.333 941.406 M255.333 941.406 C 244.290 943.205,234.529 952.113,231.701 962.973 C 227.346 979.700,238.591 996.618,255.833 999.282 C 270.124 1001.490,284.611 991.857,288.299 977.693 C 293.574 957.433,275.961 938.045,255.333 941.406 " stroke="none" fill-rule="evenodd" fill="black"></path></svg>