<svg width="400" height="1000" viewBox="0 0 399.9999924409448 1000" version="1.1" id="svg5" sodipodi:docname="j.svg" inkscape:version="1.2.1 (9c6d41e410, 2022-07-14)" xmlns:inkscape="http://www.inkscape.org/namespaces/inkscape" xmlns:sodipodi="http://sodipodi.sourceforge.net/DTD/sodipodi-0.dtd" xmlns="http://www.w3.org/2000/svg" xmlns:svg="http://www.w3.org/2000/svg"><path d="M312.849 151.948 C 302.953 155.321,295.476 164.369,293.968 174.796 C 293.613 177.254,293.354 264.680,293.345 385.333 C 293.335 518.629,293.090 594.852,292.652 600.667 C 290.130 634.173,282.558 665.491,270.470 692.423 C 256.347 723.886,235.296 746.832,214.218 753.739 C 209.000 755.448,207.389 755.667,200.000 755.667 C 192.611 755.667,191.000 755.448,185.782 753.739 C 164.704 746.832,143.653 723.886,129.530 692.423 C 117.442 665.491,109.870 634.173,107.348 600.667 C 106.910 594.854,106.665 519.059,106.655 386.667 C 106.646 266.817,106.387 179.920,106.032 177.463 C 104.700 168.253,98.437 159.765,90.000 155.736 C 85.965 153.809,85.161 153.667,78.333 153.667 C 71.506 153.667,70.701 153.809,66.667 155.736 C 58.070 159.841,51.836 168.429,50.623 177.839 C 50.304 180.311,50.036 273.233,50.027 384.333 C 50.009 601.149,49.958 597.461,53.376 624.667 C 58.322 664.032,71.026 704.380,87.752 733.841 C 105.987 765.962,128.775 788.855,154.988 801.390 C 164.217 805.803,170.760 808.073,180.264 810.161 C 190.040 812.308,209.960 812.308,219.736 810.161 C 229.092 808.106,235.726 805.820,244.667 801.571 C 260.400 794.095,273.168 784.337,287.056 769.178 L 293.000 762.689 293.354 869.844 C 293.737 985.691,293.486 978.135,297.179 985.130 C 299.431 989.394,305.044 994.601,309.776 996.816 C 327.000 1004.876,346.929 993.810,349.377 974.828 C 350.222 968.276,350.148 180.878,349.302 175.000 C 347.713 163.963,340.000 154.827,329.610 151.675 C 325.199 150.337,317.193 150.467,312.849 151.948 " stroke="none" fill-rule="evenodd" fill="black"></path></svg>