<svg width="400" height="1000" viewBox="0 0 399.9999924409448 1000" version="1.1" id="svg5" sodipodi:docname="l.svg" inkscape:version="1.2.1 (9c6d41e410, 2022-07-14)" xmlns:inkscape="http://www.inkscape.org/namespaces/inkscape" xmlns:sodipodi="http://sodipodi.sourceforge.net/DTD/sodipodi-0.dtd" xmlns="http://www.w3.org/2000/svg" xmlns:svg="http://www.w3.org/2000/svg"><path d="M187.667 150.706 C 158.794 152.340,128.931 162.382,104.471 178.681 C 92.601 186.592,85.853 192.088,76.289 201.636 C 53.733 224.153,38.195 250.502,28.387 282.867 C 25.540 292.263,24.826 298.415,26.004 303.412 C 31.000 324.614,55.937 332.649,71.979 318.226 C 76.734 313.950,78.188 311.108,82.670 297.323 C 91.469 270.259,104.403 250.296,123.559 234.212 C 144.208 216.874,167.344 207.786,193.174 206.866 C 204.776 206.452,211.898 207.089,222.333 209.472 C 257.394 217.479,287.172 242.005,304.321 277.000 C 310.407 289.418,314.627 303.226,317.056 318.667 C 318.564 328.255,318.588 349.047,317.103 359.333 C 311.332 399.304,289.682 433.957,257.817 454.222 C 251.986 457.931,241.694 462.933,235.120 465.253 C 223.545 469.339,214.491 471.014,200.333 471.689 C 191.270 472.121,187.155 473.119,182.736 475.958 C 174.192 481.446,169.333 490.163,169.333 500.000 C 169.333 509.837,174.192 518.554,182.736 524.042 C 187.155 526.881,191.270 527.879,200.333 528.311 C 210.041 528.774,217.312 529.720,224.120 531.404 C 267.423 542.120,302.194 578.403,314.031 625.225 C 317.171 637.645,318.213 646.712,318.183 661.333 C 318.147 679.233,316.102 691.711,310.535 708.000 C 297.931 744.883,269.027 775.038,234.944 786.864 C 220.358 791.925,208.516 793.699,193.143 793.126 C 163.413 792.018,137.497 780.341,115.307 758.054 C 100.163 742.844,90.275 726.067,82.670 702.677 C 78.188 688.892,76.734 686.050,71.979 681.774 C 55.916 667.332,31.007 675.359,26.004 696.588 C 24.826 701.585,25.540 707.737,28.387 717.133 C 41.614 760.781,66.876 795.897,102.333 819.921 C 169.584 865.487,257.413 857.718,315.910 801.030 C 363.980 754.444,384.401 686.089,370.259 619.107 C 361.993 579.958,340.899 542.771,312.499 517.280 C 306.552 511.942,294.878 502.717,291.560 500.733 C 290.369 500.021,290.369 499.979,291.560 499.267 C 292.235 498.863,295.718 496.325,299.301 493.626 C 339.569 463.292,365.841 417.529,372.998 365.253 C 373.569 361.080,374.220 351.967,374.444 345.000 C 377.329 255.493,320.158 176.229,237.667 155.365 C 229.460 153.289,217.231 151.367,209.758 150.978 C 206.041 150.785,201.500 150.534,199.667 150.421 C 197.833 150.308,192.433 150.436,187.667 150.706 " stroke="none" fill-rule="evenodd" fill="black"></path></svg>