<svg width="400" height="1000" viewBox="0 0 399.9999924409448 1000" version="1.1" id="svg5" sodipodi:docname="o.svg" inkscape:version="1.2.1 (9c6d41e410, 2022-07-14)" xmlns:inkscape="http://www.inkscape.org/namespaces/inkscape" xmlns:sodipodi="http://sodipodi.sourceforge.net/DTD/sodipodi-0.dtd" xmlns="http://www.w3.org/2000/svg" xmlns:svg="http://www.w3.org/2000/svg"><path d="M166.000 150.723 C 116.860 154.007,71.655 187.061,36.748 245.235 C 28.374 259.190,26.001 264.391,25.549 269.785 C 24.536 281.874,30.393 292.166,41.365 297.577 C 49.557 301.617,57.136 301.584,65.879 297.469 C 71.863 294.653,74.730 291.324,82.071 278.667 C 92.536 260.624,100.440 249.788,111.667 238.096 C 128.120 220.959,144.801 210.949,162.459 207.616 C 171.073 205.990,184.246 206.591,192.333 208.978 C 228.372 219.616,261.664 258.568,285.403 317.868 C 302.143 359.688,313.020 411.343,316.349 464.833 L 316.795 472.000 217.457 472.000 C 123.207 472.000,117.919 472.062,114.226 473.215 C 97.493 478.439,89.276 497.546,97.266 512.653 C 99.515 516.905,104.248 521.904,108.238 524.242 C 114.941 528.170,109.976 528.000,217.871 528.000 L 316.795 528.000 316.349 535.167 C 312.087 603.653,296.233 665.706,270.694 713.867 C 248.407 755.894,221.463 782.423,192.333 791.022 C 184.246 793.409,171.073 794.010,162.459 792.384 C 144.801 789.051,128.120 779.041,111.667 761.904 C 100.466 750.239,92.684 739.565,82.086 721.333 C 77.657 713.713,74.285 708.719,72.365 706.933 C 64.944 700.034,52.913 697.558,43.933 701.082 C 39.271 702.912,33.483 707.147,31.006 710.540 C 27.169 715.797,25.667 720.711,25.667 728.000 C 25.667 734.126,25.760 734.522,28.537 740.099 C 32.003 747.063,40.584 761.454,46.168 769.667 C 73.252 809.504,108.058 836.581,144.000 845.774 C 163.295 850.709,185.259 850.706,204.667 845.766 C 240.524 836.639,274.346 810.450,302.132 770.296 C 313.452 753.938,329.062 724.136,337.556 702.667 C 369.406 622.162,380.752 521.456,368.951 424.000 C 363.611 379.901,352.554 335.280,337.562 297.333 C 332.447 284.387,318.635 256.102,312.333 245.667 C 272.846 180.287,221.559 147.011,166.000 150.723 " stroke="none" fill-rule="evenodd" fill="black"></path></svg>