<svg width="500" height="1000" viewBox="0 0 499.99998110236197 1000" version="1.1" id="svg5" sodipodi:docname="q.svg" inkscape:version="1.4 (86a8ad7, 2024-10-11)" xmlns:inkscape="http://www.inkscape.org/namespaces/inkscape" xmlns:sodipodi="http://sodipodi.sourceforge.net/DTD/sodipodi-0.dtd" xmlns="http://www.w3.org/2000/svg" xmlns:svg="http://www.w3.org/2000/svg"><path d="M107.192 150.979 C 79.886 154.329,56.860 182.500,40.049 233.126 C 32.961 254.471,29.772 266.953,29.860 273.006 C 30.086 288.469,42.264 300.322,57.917 300.314 C 64.661 300.311,69.842 298.363,75.554 293.682 C 80.366 289.739,82.805 285.329,85.425 275.833 C 94.132 244.276,102.442 223.382,110.970 211.611 L 113.590 207.993 116.410 211.255 C 120.494 215.980,129.357 234.481,133.742 247.436 C 148.131 289.944,157.963 347.884,162.883 419.167 C 165.887 462.687,165.887 537.313,162.883 580.833 C 157.963 652.116,148.131 710.056,133.742 752.564 C 129.367 765.489,120.497 784.017,116.433 788.718 L 113.637 791.953 111.484 789.102 C 103.282 778.237,94.108 755.923,87.040 729.647 C 83.446 716.285,80.943 710.953,76.408 707.001 C 64.610 696.721,48.396 697.146,37.785 708.015 C 29.693 716.303,28.035 725.637,32.027 740.417 C 41.189 774.331,50.975 798.398,62.855 816.238 C 74.555 833.807,87.110 844.130,101.444 847.967 C 107.609 849.617,119.887 849.618,126.047 847.969 C 160.984 838.617,186.487 791.626,203.716 704.860 C 213.002 658.093,220.803 581.897,220.828 537.708 L 220.833 528.333 249.867 528.333 L 278.901 528.333 279.461 547.708 C 281.781 628.011,293.769 710.052,310.926 763.039 C 327.144 813.130,347.804 840.969,373.953 847.969 C 380.113 849.618,392.391 849.617,398.556 847.967 C 419.134 842.459,436.977 822.713,451.692 789.167 C 459.647 771.032,470.249 735.402,470.150 727.140 C 470.015 716.019,462.966 705.592,452.914 701.645 C 442.702 697.635,432.123 699.567,423.592 707.001 C 418.950 711.047,416.498 716.344,412.565 730.833 C 405.413 757.177,396.694 778.261,388.519 788.979 L 386.303 791.884 383.537 788.683 C 382.015 786.923,378.357 780.593,375.407 774.616 C 357.321 737.970,343.527 669.645,337.548 587.083 C 333.923 537.032,333.923 462.968,337.548 412.917 C 343.527 330.355,357.321 262.030,375.407 225.384 C 378.357 219.407,382.029 213.061,383.567 211.282 L 386.363 208.047 388.516 210.898 C 396.742 221.795,405.397 242.766,412.565 269.167 C 416.498 283.656,418.950 288.953,423.592 292.999 C 435.354 303.249,451.607 302.850,462.147 292.055 C 470.537 283.461,471.958 274.459,467.536 257.917 C 450.894 195.670,427.516 159.785,398.556 152.033 C 392.391 150.383,380.113 150.382,373.953 152.031 C 338.984 161.392,313.529 208.293,296.284 295.140 C 287.007 341.863,279.190 418.020,279.171 461.875 L 279.167 471.667 250.000 471.667 L 220.833 471.667 220.828 462.292 C 220.803 418.103,213.002 341.907,203.716 295.140 C 183.514 193.404,151.471 145.546,107.192 150.979 " stroke="none" fill-rule="evenodd" fill="black"></path></svg>