<svg width="400" height="1000" viewBox="0 0 399.9999924409448 1000" version="1.1" id="svg5" sodipodi:docname="r.svg" inkscape:version="1.3.2 (091e20e, 2023-11-25, custom)" xmlns:inkscape="http://www.inkscape.org/namespaces/inkscape" xmlns:sodipodi="http://sodipodi.sourceforge.net/DTD/sodipodi-0.dtd" xmlns="http://www.w3.org/2000/svg" xmlns:svg="http://www.w3.org/2000/svg"><path d="M74.569 0.702 C 62.757 2.084,52.413 12.496,50.635 24.796 C 49.848 30.238,49.836 818.726,50.623 824.828 C 52.025 835.697,59.995 845.172,70.390 848.325 C 72.192 848.872,75.767 849.319,78.333 849.319 C 90.706 849.319,100.091 842.486,105.232 829.731 C 106.248 827.213,106.361 805.998,106.686 557.333 C 107.020 302.810,107.105 287.395,108.214 282.835 C 112.866 263.690,120.957 248.958,133.958 235.958 C 147.216 222.699,162.899 214.205,181.560 210.175 C 189.265 208.511,210.735 208.511,218.440 210.175 C 255.537 218.186,284.136 246.645,291.651 283.025 C 292.220 285.782,292.986 292.503,293.352 297.961 C 294.221 310.895,295.554 314.767,301.238 320.862 C 306.912 326.946,313.623 330.000,321.317 330.000 C 329.481 330.000,336.205 327.065,341.945 320.996 C 348.524 314.040,350.158 307.727,349.257 292.747 C 347.627 265.645,339.832 242.615,324.295 219.000 C 300.490 182.818,260.643 158.351,217.321 153.313 C 209.197 152.368,190.803 152.368,182.679 153.313 C 157.040 156.294,130.191 167.066,110.035 182.457 L 107.000 184.775 106.640 103.888 C 106.253 16.686,106.472 21.786,102.821 14.870 C 100.826 11.093,95.277 5.661,91.458 3.748 C 85.539 0.782,80.955 -0.045,74.569 0.702 " stroke="none" fill-rule="evenodd" fill="black"></path></svg>