<svg width="400" height="1000" viewBox="0 0 399.9999924409448 1000" version="1.1" id="svg5" sodipodi:docname="s.svg" inkscape:version="1.3.2 (091e20e, 2023-11-25, custom)" xmlns:inkscape="http://www.inkscape.org/namespaces/inkscape" xmlns:sodipodi="http://sodipodi.sourceforge.net/DTD/sodipodi-0.dtd" xmlns="http://www.w3.org/2000/svg" xmlns:svg="http://www.w3.org/2000/svg"><path d="M74.569 150.659 C 63.027 152.143,52.950 161.958,50.680 173.927 C 49.734 178.919,49.734 821.081,50.680 826.073 C 53.009 838.349,62.941 847.800,75.172 849.377 C 77.644 849.696,104.481 849.966,134.810 849.978 C 180.999 849.996,191.153 849.833,197.340 848.970 C 219.936 845.818,239.342 835.456,258.364 816.385 C 273.019 801.692,284.058 786.108,296.586 762.423 C 320.691 716.851,339.136 646.774,345.949 574.877 C 348.687 545.990,349.000 538.307,349.000 500.000 C 349.000 461.693,348.687 454.010,345.949 425.123 C 339.137 353.241,320.465 282.356,296.482 237.333 C 283.812 213.548,272.944 198.233,258.364 183.615 C 239.196 164.397,219.540 153.969,196.889 150.999 C 190.589 150.174,179.631 150.015,133.799 150.087 C 103.293 150.135,76.640 150.393,74.569 150.659 M199.075 209.063 C 220.429 218.356,242.624 248.401,258.864 290.000 C 276.530 335.250,287.284 388.485,292.129 454.667 C 293.270 470.266,293.270 529.734,292.129 545.333 C 287.284 611.515,276.530 664.750,258.864 710.000 C 242.624 751.599,220.429 781.644,199.075 790.937 L 194.333 793.000 150.500 793.185 L 106.667 793.370 106.667 500.000 L 106.667 206.630 150.500 206.815 L 194.333 207.000 199.075 209.063 " stroke="none" fill-rule="evenodd" fill="black"></path></svg>