<svg width="500" height="1000" viewBox="0 0 499.99998110236197 1000" version="1.1" id="svg5" sodipodi:docname="U+002F.svg" inkscape:version="1.2.1 (9c6d41e410, 2022-07-14)" xmlns:inkscape="http://www.inkscape.org/namespaces/inkscape" xmlns:sodipodi="http://sodipodi.sourceforge.net/DTD/sodipodi-0.dtd" xmlns="http://www.w3.org/2000/svg" xmlns:svg="http://www.w3.org/2000/svg"><path d="M401.211 2.428 C 396.248 5.275,391.410 10.381,389.515 14.773 C 388.769 16.502,313.910 231.292,223.163 492.083 C 96.583 855.850,58.065 967.436,57.729 971.344 C 56.780 982.369,63.522 993.804,73.696 998.425 C 78.784 1000.736,92.966 1000.646,97.616 998.274 C 102.591 995.736,107.929 990.466,110.044 986.004 C 111.066 983.847,186.134 768.708,276.863 507.917 C 403.060 145.174,441.928 32.553,442.267 28.656 C 443.225 17.638,436.482 6.198,426.304 1.575 C 423.706 0.395,420.879 0.034,414.167 0.026 C 406.029 0.016,405.122 0.185,401.211 2.428 " stroke="none" fill-rule="evenodd" fill="#000000"></path></svg>