<svg width="400" height="1000" viewBox="0 0 399.9999924409448 1000" version="1.1" id="svg5" sodipodi:docname="'.svg" inkscape:version="1.4 (86a8ad7, 2024-10-11)" xmlns:inkscape="http://www.inkscape.org/namespaces/inkscape" xmlns:sodipodi="http://sodipodi.sourceforge.net/DTD/sodipodi-0.dtd" xmlns="http://www.w3.org/2000/svg" xmlns:svg="http://www.w3.org/2000/svg"><path d="M317.529 0.724 C 309.874 1.731,300.779 8.053,297.179 14.870 C 293.528 21.786,293.747 16.686,293.360 103.888 L 293.000 184.775 289.965 182.457 C 280.664 175.355,265.306 166.818,253.938 162.431 C 235.861 155.455,220.112 152.578,200.000 152.578 C 174.897 152.578,154.095 157.532,132.231 168.719 C 101.058 184.668,76.837 210.365,62.774 242.407 C 55.707 258.509,51.887 274.445,50.724 292.667 C 49.777 307.519,51.460 314.023,58.055 320.996 C 63.706 326.971,70.528 330.000,78.333 330.000 C 86.204 330.000,92.877 327.060,98.501 321.113 C 104.437 314.836,105.769 311.052,106.648 297.961 C 107.014 292.503,107.780 285.782,108.349 283.025 C 115.864 246.645,144.463 218.186,181.560 210.175 C 189.265 208.511,210.735 208.511,218.440 210.175 C 237.101 214.205,252.784 222.699,266.042 235.958 C 279.043 248.958,287.134 263.690,291.786 282.835 C 292.895 287.395,292.980 302.810,293.314 557.333 C 293.639 805.998,293.752 827.213,294.768 829.731 C 296.899 835.018,298.566 837.698,301.692 840.858 C 307.462 846.694,313.659 849.319,321.667 849.319 C 335.786 849.319,347.254 839.228,349.302 825.000 C 350.148 819.122,350.222 31.724,349.377 25.172 C 347.350 9.457,333.277 -1.346,317.529 0.724 " stroke="none" fill-rule="evenodd" fill="black"></path></svg>