<svg width="400" height="1000" viewBox="0 0 399.9999924409448 1000" version="1.1" id="svg5" sodipodi:docname="U+0046.svg" inkscape:version="1.4 (86a8ad7, 2024-10-11)" xmlns:inkscape="http://www.inkscape.org/namespaces/inkscape" xmlns:sodipodi="http://sodipodi.sourceforge.net/DTD/sodipodi-0.dtd" xmlns="http://www.w3.org/2000/svg" xmlns:svg="http://www.w3.org/2000/svg"><path d="M318.333 0.651 C 309.622 2.518,67.767 70.387,64.769 71.805 C 55.572 76.156,49.259 86.146,49.259 96.349 C 49.259 107.726,55.388 117.252,65.918 122.241 C 69.981 124.166,70.866 124.330,77.000 124.293 L 83.667 124.252 208.228 89.468 C 292.332 65.981,333.893 54.085,336.188 52.842 C 340.998 50.237,345.536 45.439,348.080 40.271 C 351.062 34.214,351.551 26.330,349.353 19.727 C 345.794 9.030,336.124 1.381,324.947 0.419 C 322.776 0.232,319.800 0.336,318.333 0.651 M181.667 151.605 C 159.101 155.391,140.444 165.600,121.259 184.657 C 107.272 198.551,97.336 212.288,87.222 231.718 C 70.057 264.689,57.948 306.826,53.039 350.667 C 50.007 377.744,49.999 378.325,50.022 574.606 C 50.034 676.756,50.304 762.356,50.623 764.828 C 53.061 783.736,73.024 794.864,90.138 786.856 C 97.010 783.640,102.318 777.620,105.295 769.667 C 106.170 767.329,106.340 742.573,106.674 569.000 C 107.095 350.325,106.762 366.880,111.301 339.322 C 120.890 281.115,143.064 235.006,171.000 215.188 C 190.399 201.426,210.723 204.596,230.384 224.450 C 256.941 251.266,275.282 299.600,282.453 361.667 C 283.519 370.895,283.625 386.977,283.820 570.093 L 284.032 768.519 171.055 860.284 C 91.213 925.135,57.419 952.971,55.833 955.191 C 51.756 960.899,51.000 963.474,51.000 971.654 C 51.000 978.693,51.102 979.228,53.280 983.655 C 57.494 992.222,65.420 998.010,74.796 999.365 C 80.196 1000.146,318.777 1000.157,324.828 999.377 C 343.736 996.939,354.864 976.976,346.856 959.862 C 344.600 955.042,339.430 949.450,335.130 947.179 C 328.201 943.521,333.639 943.745,242.520 943.359 L 158.040 943.000 241.520 875.200 C 287.434 837.910,326.200 806.532,327.667 805.472 C 334.247 800.714,338.649 793.945,340.033 786.459 C 341.040 781.010,340.477 381.426,339.445 369.667 C 337.007 341.870,334.154 323.150,329.319 303.216 C 318.968 260.545,303.858 226.643,283.316 200.000 C 276.982 191.785,262.533 177.334,255.363 172.042 C 242.583 162.611,228.947 156.064,215.573 152.937 C 206.571 150.833,190.118 150.186,181.667 151.605 " stroke="none" fill-rule="evenodd" fill="black"></path></svg>