<svg width="500" height="1000" viewBox="0 0 499.99998110236197 1000" version="1.1" id="svg5" sodipodi:docname="U+003F.svg" inkscape:version="1.4 (86a8ad7, 2024-10-11)" xmlns:inkscape="http://www.inkscape.org/namespaces/inkscape" xmlns:sodipodi="http://sodipodi.sourceforge.net/DTD/sodipodi-0.dtd" xmlns="http://www.w3.org/2000/svg" xmlns:svg="http://www.w3.org/2000/svg"><path d="M440.000 4.113 C 434.561 5.773,430.228 9.254,417.441 22.233 C 373.293 67.046,328.590 121.085,284.173 183.333 C 272.709 199.399,242.439 244.210,236.185 254.374 C 234.846 256.550,233.375 258.331,232.917 258.332 C 232.458 258.333,227.877 256.456,222.736 254.162 C 196.459 242.437,167.462 233.788,137.522 228.744 C 130.430 227.549,124.492 226.436,124.326 226.271 C 124.161 226.105,144.690 191.224,169.946 148.757 C 195.203 106.290,216.847 69.611,218.045 67.247 C 220.914 61.585,221.506 54.406,219.633 47.966 C 217.138 39.383,213.125 34.610,204.673 30.174 C 201.032 28.263,199.390 27.938,193.316 27.928 C 186.954 27.918,185.634 28.203,180.629 30.666 C 177.050 32.428,174.026 34.674,172.212 36.916 C 170.655 38.842,152.779 68.354,132.488 102.500 C 112.198 136.646,85.940 180.738,74.138 200.482 C 62.336 220.226,51.827 238.039,50.785 240.065 C 49.482 242.600,48.773 245.716,48.514 250.048 C 48.195 255.380,48.455 257.133,50.209 261.475 C 52.665 267.556,55.719 271.373,60.833 274.756 C 66.890 278.762,69.468 279.274,87.500 280.052 C 114.805 281.229,136.073 284.363,158.750 290.550 C 175.651 295.161,203.333 305.476,203.333 307.163 C 203.333 307.475,199.627 314.146,195.096 321.990 C 145.170 408.420,106.452 498.609,88.393 570.540 C 84.678 585.338,80.322 607.680,78.182 622.917 C 75.644 640.981,75.391 683.449,77.735 697.910 C 85.246 744.257,103.868 775.464,137.507 798.073 C 179.993 826.630,255.242 832.310,315.754 811.529 C 336.439 804.425,359.909 790.844,376.555 776.347 C 451.445 711.126,467.967 584.446,417.760 460.417 C 389.886 391.557,342.962 331.434,283.749 288.710 L 281.383 287.003 295.217 266.036 C 348.302 185.579,397.269 123.724,458.535 59.730 C 473.227 44.383,475.358 40.724,475.358 30.833 C 475.358 25.818,474.918 23.633,473.134 19.775 C 470.190 13.408,463.856 7.294,457.895 5.063 C 453.143 3.285,444.256 2.813,440.000 4.113 M259.424 340.194 C 277.308 353.802,301.587 377.509,315.000 394.459 C 356.615 447.049,381.653 507.191,389.295 572.917 C 390.859 586.373,390.608 618.755,388.836 632.083 C 385.687 655.758,380.627 673.064,371.293 692.083 C 363.640 707.676,356.381 717.932,345.047 729.167 C 323.867 750.161,296.179 762.684,262.083 766.689 C 251.372 767.947,226.137 767.960,215.417 766.712 C 163.767 760.701,137.778 734.383,132.439 682.685 C 131.218 670.857,131.875 644.676,133.740 630.833 C 143.886 555.552,181.646 458.435,241.877 352.708 C 247.425 342.969,252.107 335.000,252.282 335.000 C 252.456 335.000,255.670 337.337,259.424 340.194 " stroke="none" fill-rule="evenodd" fill="black"></path></svg>