<svg width="500" height="1000" viewBox="0 0 499.99998110236197 1000" version="1.1" id="svg5" sodipodi:docname="x.svg" inkscape:version="1.3.2 (091e20e, 2023-11-25, custom)" xmlns:inkscape="http://www.inkscape.org/namespaces/inkscape" xmlns:sodipodi="http://sodipodi.sourceforge.net/DTD/sodipodi-0.dtd" xmlns="http://www.w3.org/2000/svg" xmlns:svg="http://www.w3.org/2000/svg"><path d="M152.563 151.687 C 113.581 159.894,82.539 202.978,65.027 273.181 C 57.137 304.811,52.813 336.030,50.808 375.833 C 50.200 387.915,49.989 454.540,50.161 580.417 L 50.417 767.083 52.333 771.826 C 54.957 778.319,61.859 785.161,68.174 787.529 C 83.327 793.210,99.600 785.365,105.298 769.632 C 105.958 767.808,106.356 709.393,106.697 564.167 C 107.219 341.835,106.880 356.795,112.162 322.500 C 119.647 273.905,133.759 235.012,151.022 215.400 C 155.251 210.596,161.165 206.667,164.167 206.667 C 167.180 206.667,173.088 210.602,177.360 215.456 C 194.627 235.072,208.671 273.806,216.171 322.500 C 221.453 356.795,221.115 341.835,221.637 564.167 C 221.977 709.393,222.375 767.808,223.036 769.632 C 225.968 777.729,232.646 784.831,239.876 787.542 C 246.134 789.889,253.879 789.883,260.159 787.529 C 266.474 785.161,273.376 778.319,276.000 771.826 L 277.917 767.083 278.378 564.167 C 278.884 341.786,278.546 356.729,283.836 322.500 C 292.514 266.347,310.898 221.102,329.943 209.023 C 334.619 206.058,337.048 206.058,341.723 209.023 C 360.646 221.024,379.290 266.899,387.841 322.500 C 393.150 357.019,392.813 341.593,393.103 563.333 L 393.368 765.417 230.662 855.417 C 141.174 904.917,65.706 946.917,62.955 948.750 C 54.717 954.242,50.495 962.329,50.556 972.502 C 50.610 981.402,56.049 990.859,63.687 995.336 C 71.664 1000.011,79.880 1000.801,87.917 997.667 C 89.750 996.952,166.437 954.767,258.333 903.923 C 350.229 853.079,427.994 810.181,431.143 808.594 C 438.480 804.899,444.365 799.372,447.280 793.439 L 449.583 788.750 449.834 597.500 C 450.095 398.794,449.752 370.763,446.707 341.667 C 438.096 259.363,414.351 197.086,380.781 168.757 C 372.599 161.852,363.340 156.486,354.583 153.573 C 348.684 151.611,346.573 151.349,336.250 151.303 C 326.253 151.258,323.689 151.529,318.333 153.203 C 304.772 157.439,289.989 167.594,279.652 179.775 C 270.080 191.054,256.854 213.250,252.083 226.042 C 251.271 228.219,250.334 230.000,250.000 230.000 C 249.666 230.000,248.729 228.219,247.917 226.042 C 243.146 213.250,229.920 191.054,220.348 179.775 C 210.150 167.759,195.297 157.493,182.083 153.328 C 175.497 151.252,158.987 150.334,152.563 151.687 " stroke="none" fill-rule="evenodd" fill="black"></path></svg>