<svg width="500" height="1000" viewBox="0 0 499.99998110236197 1000" version="1.1" id="svg5" sodipodi:docname="y.svg" inkscape:version="1.3.2 (091e20e, 2023-11-25, custom)" xmlns:inkscape="http://www.inkscape.org/namespaces/inkscape" xmlns:sodipodi="http://sodipodi.sourceforge.net/DTD/sodipodi-0.dtd" xmlns="http://www.w3.org/2000/svg" xmlns:svg="http://www.w3.org/2000/svg"><path d="M153.482 150.942 C 108.258 154.840,65.614 192.168,35.425 254.284 C 30.267 264.896,28.990 270.067,30.004 276.224 C 32.081 288.830,40.697 297.604,53.357 300.005 C 61.726 301.592,72.057 298.043,77.902 291.573 C 79.450 289.860,83.532 282.899,86.973 276.104 C 106.480 237.594,128.905 213.954,151.667 207.905 C 157.606 206.326,167.505 206.335,173.783 207.924 C 212.134 217.631,250.215 280.540,269.242 365.621 C 274.761 390.301,279.468 423.090,281.832 453.333 C 283.242 471.370,283.242 528.630,281.832 546.667 C 276.197 618.748,261.930 676.806,238.190 724.271 C 220.436 759.768,199.064 783.386,177.909 790.889 C 171.596 793.128,159.393 793.936,153.229 792.523 C 146.363 790.949,135.788 785.541,129.021 780.144 C 113.393 767.678,100.234 750.076,86.973 723.896 C 80.091 710.309,77.090 706.391,71.086 703.157 C 52.254 693.014,29.693 706.441,29.823 727.715 C 29.863 734.220,31.044 737.474,38.706 752.187 C 67.991 808.429,105.422 841.568,147.376 848.397 C 155.365 849.697,171.720 849.464,180.371 847.926 C 221.658 840.588,260.203 805.348,288.271 749.278 C 314.569 696.743,331.681 629.239,337.098 556.667 C 337.833 546.813,338.629 536.406,338.867 533.542 L 339.299 528.333 368.805 528.333 L 398.311 528.333 398.531 678.125 L 398.750 827.917 400.946 832.600 C 405.221 841.718,412.687 847.555,421.925 849.004 C 434.101 850.914,445.595 844.995,451.545 833.750 L 453.750 829.583 454.167 664.792 C 454.396 574.156,454.396 425.844,454.167 335.208 L 453.750 170.417 451.545 166.250 C 440.228 144.862,411.204 145.522,400.946 167.400 L 398.750 172.083 398.531 321.875 L 398.311 471.667 368.805 471.667 L 339.299 471.667 338.867 466.458 C 338.629 463.594,337.834 453.188,337.099 443.333 C 332.342 379.499,318.182 318.126,296.916 269.167 C 261.850 188.437,210.407 146.035,153.482 150.942 " stroke="none" fill-rule="evenodd" fill="black"></path></svg>